<svg width="80" height="80" viewBox="0 0 80 80" fill="none" xmlns="http://www.w3.org/2000/svg">
<path fill-rule="evenodd" clip-rule="evenodd" d="M9.98094 36.8218L69.8975 29.7362L67.9165 43.315L8 50.4001L9.98094 36.8218ZM71.9922 30.2641C72.0248 30.5243 71.9546 30.7811 71.7892 30.9851C71.6286 31.1835 71.4069 31.3141 71.1366 31.3459C70.6589 31.4026 70.3048 31.106 70.2518 30.6892C70.2185 30.4292 70.2894 30.1714 70.4548 29.9681C70.6158 29.77 70.8366 29.6389 71.1063 29.6071C71.5854 29.5501 71.9387 29.8475 71.9922 30.2641ZM71.1084 29.702C70.8692 29.7301 70.6728 29.8527 70.5428 30.0129C70.3861 30.2059 70.3222 30.4319 70.3527 30.6674C70.3991 31.0355 70.6922 31.3048 71.1353 31.2525C71.3748 31.2231 71.5717 31.1008 71.7007 30.9409C71.857 30.7491 71.9213 30.5221 71.8917 30.2861C71.8442 29.9187 71.5523 29.6492 71.1084 29.702ZM71.5955 30.2313C71.6154 30.3935 71.5277 30.5136 71.3644 30.5825L71.5358 30.8663L71.2349 30.9015L71.0898 30.6544L70.9822 30.6681L70.9449 30.9362L70.6546 30.9705L70.7896 30.0381L71.1663 29.9933C71.4469 29.96 71.574 30.0691 71.5955 30.2313ZM24.8002 38.1541L23.731 45.4508L21.2795 45.7399L22.3492 38.4442L24.8002 38.1541ZM32.8896 37.1973L31.8196 44.4939L29.6398 44.7515L27.4532 41.4453L26.916 45.0736L24.4861 45.3613L25.555 38.0653L27.8489 37.7936L29.9454 40.9667L30.4583 37.4842L32.8896 37.1973ZM39.9094 36.3674L39.6118 38.3694L35.7663 38.8228L35.6588 39.5634L39.2411 39.1396L38.9871 40.9004L35.4043 41.324L35.2827 42.1177L39.1244 41.663L38.836 43.6638L32.5846 44.4032L33.6538 37.1065L39.9094 36.3674ZM64.2208 33.4924L61.4952 37.3176L63.7552 40.7172L61.1041 41.0313L59.9547 39.1388L58.4639 41.3433L56.2721 41.6024L55.6242 41.6784L53.6626 41.9106L53.4175 40.9769L50.8499 41.2807L50.3308 42.3051L47.8585 42.5966L47.6595 42.6206L45.4181 42.885L45.9442 39.2692L43.8772 42.0642L43.8353 42.0693L42.5304 39.6733L42.0024 43.2903L39.6032 43.5738L40.6731 36.2776L43.0927 35.9912L44.2887 38.3701L46.2356 35.6196L48.9281 35.3012L47.9273 42.1295L51.832 34.9681L54.2628 34.6816L56.1 41.0102L58.5533 37.5624L56.404 34.4163L59.0553 34.1034L60.1114 35.7199L61.3808 33.828L64.2208 33.4924ZM52.6503 37.6263L51.7264 39.4769L53.0665 39.3186L52.6503 37.6263ZM15.9334 46.3761H15.9372L20.5092 45.835L20.8238 43.7946L17.7173 44.1628C17.3056 44.2114 16.9351 44.0877 17.0087 43.5762L17.281 41.7264C17.3625 41.1389 17.8786 40.9821 18.4183 40.9187L21.2962 40.5807L21.5997 38.5349L16.5379 39.1352C15.8319 39.2181 15.2856 39.651 15.12 40.2894L14.3949 45.2969C14.3248 45.9485 15.0176 46.4839 15.9334 46.3761Z" fill="#FEBE1F"/>
</svg>
