<svg width="80" height="80" viewBox="0 0 80 80" fill="none" xmlns="http://www.w3.org/2000/svg">
<path fill-rule="evenodd" clip-rule="evenodd" d="M66.4543 48.8451C69.5308 48.8451 72 46.2543 72 43.1372C72 40.1415 69.4905 37.6721 66.4543 37.6721C63.4185 37.6721 60.9083 40.1013 60.9083 43.1372C60.8683 46.2543 63.3371 48.8451 66.4543 48.8451ZM66.4546 42.0035C67.1833 42.0035 67.7096 42.5299 67.7096 43.2585C67.7096 43.9871 67.1429 44.5135 66.4546 44.5135C65.726 44.5135 65.1997 43.9871 65.1997 43.2585C65.1997 42.5299 65.7667 42.0035 66.4546 42.0035ZM56.0105 44.838C55.6865 44.838 55.4032 44.8782 55.1199 44.8782L55.4439 43.0567C55.4842 42.7325 55.5249 42.4089 55.5249 42.1254C55.5249 40.3038 54.4719 39.0895 52.529 39.0895C50.9911 39.0895 50.0191 40.1824 49.6955 42.0446L47.6309 53.7841C47.5903 54.1078 47.5496 54.4314 47.5496 54.7151C47.5496 56.537 48.6025 57.7512 50.5455 57.7512C52.084 57.7512 53.0957 56.6583 53.4196 54.7964L53.9863 51.4768C54.1076 50.7884 54.5936 50.3835 55.1605 50.3835C55.8892 50.3835 56.2938 50.8692 56.2938 51.5576C56.2938 51.6791 56.2938 51.8005 56.2535 51.9219L55.6865 55.2414C55.6462 55.5653 55.6055 55.889 55.6055 56.213C55.6055 57.7916 56.4155 58.8845 57.9941 59.1678C58.1964 59.2085 58.399 59.2085 58.6014 59.2085C60.099 59.2085 61.1516 58.1156 61.4756 56.2533L62.0828 52.7314C62.1635 52.2456 62.2042 51.7599 62.2042 51.3148C62.2042 47.5904 59.492 44.838 56.0105 44.838ZM46.2947 50.8691C46.335 51.1932 46.3757 51.5169 46.3757 51.8004C46.3757 53.6218 45.3234 54.8364 43.3798 54.8364C41.8419 54.8364 40.8296 53.7435 40.506 51.8812L39.939 48.5618C39.8176 47.8332 39.4127 47.4287 38.8461 47.4287C37.9961 47.4287 37.4697 48.1167 37.6318 48.9667L38.1983 52.2861C38.2389 52.6098 38.2796 52.9338 38.2796 53.2575C38.2796 55.039 37.2674 56.2533 35.2838 56.2533C33.786 56.2533 32.7337 55.1604 32.4096 53.2981L31.843 50.1003C31.7618 49.5739 31.7216 49.0475 31.7216 48.5618C31.7216 44.433 34.8789 41.5993 38.8867 41.5993C42.1656 41.5993 45.0397 43.7445 45.7277 47.6711L46.2947 50.8691Z" fill="#E73458"/>
<path fill-rule="evenodd" clip-rule="evenodd" d="M24.5965 43.7444C24.5965 42.0443 25.8514 40.7893 27.5515 40.7893C29.2521 40.7893 30.5066 42.0443 30.5066 43.7444C30.5066 45.445 29.2517 46.6995 27.5515 46.6995C25.8514 46.6995 24.5965 45.445 24.5965 43.7444ZM30.4261 51.3544V55.5244C30.4261 57.6293 29.414 58.9652 27.471 59.0052C25.6089 59.0052 24.5561 57.6696 24.5561 55.5244V51.3544C24.5561 49.2092 25.5682 47.8734 27.5112 47.8734C29.3738 47.8734 30.4261 49.2092 30.4261 51.3544ZM16.1773 41.3561C16.501 41.3154 16.8653 41.2748 17.189 41.2748C20.0632 41.2748 22.7755 43.4611 23.3827 47.0234C23.4635 47.4283 23.5041 47.8328 23.4635 48.1565C23.4635 51.8808 20.4682 55.2001 16.4604 55.2001C13.141 55.2001 10.1452 52.8122 9.53806 49.4115L8.08082 41.194L8.07976 41.1855C8.03991 40.8646 8 40.5434 8 40.2225C8 38.4412 9.01211 37.2268 10.9957 37.2268C12.4932 37.2268 13.5459 38.3197 13.8696 40.1819L14.1937 42.0034C14.6794 41.7606 15.3268 41.5177 16.1773 41.3561ZM15.1654 48.1973C15.1654 49.0072 15.732 49.4929 16.42 49.4929C17.1892 49.4929 17.7562 48.9666 17.7156 48.238C17.7156 47.4285 17.149 46.9424 16.4606 46.9424C15.732 46.9424 15.1654 47.4687 15.1654 48.1973Z" fill="#00A75D"/>
<path fill-rule="evenodd" clip-rule="evenodd" d="M66.4548 31.0337C66.4548 34.9603 63.3377 38.1582 59.4109 38.1582C55.4844 38.1582 52.3673 34.9603 52.3673 31.0337C52.3673 27.2285 55.5654 24.1114 59.4109 24.1114C63.2567 24.1114 66.4548 27.1879 66.4548 31.0337ZM60.6661 31.1548C60.6661 30.4261 60.0998 29.8998 59.4112 29.8998C58.7232 29.8998 58.1563 30.3855 58.1563 31.1548C58.1563 31.8834 58.6826 32.4097 59.4112 32.4097C60.1398 32.4097 60.6661 31.8834 60.6661 31.1548ZM45.8496 40.3439C48.9261 40.3439 51.3953 37.7531 51.3953 34.636C51.436 31.6407 48.8858 29.1713 45.8496 29.1713C42.8134 29.1713 40.3035 31.6 40.3035 34.636C40.3035 37.7531 42.7728 40.3439 45.8496 40.3439ZM45.8499 33.5027C46.5789 33.5027 47.1048 34.0287 47.1048 34.7577C47.1455 35.4863 46.5789 36.0123 45.8499 36.0123C45.1213 36.0123 44.5953 35.4863 44.5953 34.7577C44.5953 33.9884 45.1619 33.5027 45.8499 33.5027ZM40.3849 25.0423C40.3849 23.2203 39.3325 22.0059 37.3895 22.0059C35.8511 22.0059 34.8389 23.0989 34.5153 24.961L32.4509 36.7412C32.4102 37.0649 32.37 37.3886 32.37 37.6721C32.37 39.4936 33.4223 40.708 35.3653 40.708C36.9038 40.708 37.9155 39.6151 38.2396 37.7529L40.3039 25.9731C40.3445 25.6494 40.3849 25.3253 40.3849 25.0423ZM31.0332 27.2685C31.5596 28.4427 31.843 29.6977 31.843 30.9522C31.843 34.3935 29.8188 37.8343 26.1757 39.5344C24.7993 40.1818 23.3015 40.5059 21.8848 40.5059C18.2819 40.5059 14.9219 38.5223 13.1812 34.798C12.5338 33.3814 12.2097 31.9241 12.2097 30.4665C12.2097 26.864 14.1933 23.4634 17.9578 21.7226C19.3343 21.0752 20.4678 20.7917 21.5201 20.7917C22.8157 20.7917 23.8278 21.2369 24.3542 22.3298C24.5967 22.8156 24.6779 23.2611 24.6779 23.7062C24.6779 24.7992 24.0707 25.7304 23.18 26.1354C22.2893 26.5805 21.4799 26.4184 20.387 26.9448C19.0508 27.5926 18.2413 28.8878 18.2413 30.3857C18.2413 31.0335 18.3628 31.6813 18.6869 32.3693C19.4557 33.9885 20.8727 34.7578 22.33 34.7578C22.9371 34.7578 23.5443 34.6359 24.1109 34.3529C25.8114 33.543 26.378 32.4907 26.2566 31.1549L25.2038 31.6406C24.7185 31.8835 24.3136 31.9643 23.9087 31.9643C23.0586 31.9643 22.4108 31.4786 22.0871 30.7499C21.9251 30.3857 21.8442 30.0213 21.8442 29.6977C21.8442 28.9284 22.2893 28.2404 23.3827 27.714L27.2687 25.8921C27.7544 25.6898 28.1995 25.5684 28.6045 25.5684C29.6568 25.5684 30.5072 26.1756 31.0332 27.2685Z" fill="#007FC8"/>
</svg>
