<svg width="80" height="80" viewBox="0 0 80 80" fill="none" xmlns="http://www.w3.org/2000/svg">
<path fill-rule="evenodd" clip-rule="evenodd" d="M72 40C72 57.673 57.673 72 40 72C22.327 72 8 57.673 8 40C8 22.327 22.327 8 40 8C57.673 8 72 22.327 72 40Z" fill="black"/>
<path fill-rule="evenodd" clip-rule="evenodd" d="M67.0085 34.8704C67.0085 35.1678 66.8155 35.3401 66.5387 35.3401H62.4368V43.245C62.4368 43.9957 62.4656 45.6351 63.3397 46.4803C64.0576 47.181 65.409 47.3291 66.5637 47.3291C66.8117 47.3291 67.0085 47.5079 67.0085 47.7742V52.3473C67.0085 52.5914 66.8624 52.8048 66.5536 52.8048H65.8619C62.2416 52.8048 60.2457 51.5137 59.0929 50.3494C57.5044 48.7104 56.8152 46.7047 56.8152 43.3988V35.3401H53.566C53.328 35.3401 53.1212 35.2019 53.1212 34.8955V30.2727C53.1212 30.0454 53.3009 29.8645 53.5163 29.8645H56.8152V23.3758C56.8152 23.1076 56.9772 22.9307 57.2722 22.9307H61.992C62.2667 22.9307 62.4368 23.1174 62.4368 23.3758V29.8645H66.5146C66.8192 29.8645 67.0085 30.0237 67.0085 30.3469V34.8704ZM41.6841 52.872C48.2568 52.872 53.2545 47.5203 53.2545 41.4382C53.2545 35.2458 48.1239 30.0015 42.0521 30.0015C38.455 30.0015 36.007 32.0056 36.007 32.0056V18.5578C36.007 18.2919 35.7985 18.1377 35.5869 18.1377H30.8057C30.5493 18.1377 30.3852 18.3211 30.3852 18.5582V40.2395C30.3852 44.9668 31.3686 47.0436 33.0839 49.0029C35.5007 51.7615 38.9083 52.872 41.6841 52.872ZM41.6468 35.4788C44.9567 35.4788 47.6217 37.9588 47.6217 41.4563C47.6217 45.0267 44.7647 47.4075 41.5778 47.4075C38.0271 47.4075 35.7485 44.4635 35.7485 41.2741C35.7485 38.4635 37.9069 35.4788 41.6468 35.4788ZM28.1038 45.4538C28.1038 49.533 25.1061 52.8803 19.6746 52.8803C17.4597 52.8803 15.9934 52.5636 13.3621 51.6552C13.1249 51.5806 12.9423 51.4825 12.9423 51.1859V46.7855C12.9423 46.4232 13.1688 46.2317 13.4728 46.2317C13.6661 46.2317 13.833 46.3026 13.9799 46.3654C15.8412 47.0838 17.671 47.7648 19.8412 47.7595C21.3743 47.7595 22.6839 47.2216 22.6839 45.8538C22.6839 45.1059 22.4287 44.8458 22.1095 44.6841C21.7596 44.4909 21.3653 44.3108 20.9621 44.1607C19.9056 43.7672 18.8746 43.5945 17.785 43.176C16.7483 42.7838 15.4429 42.2341 14.48 41.3225C13.2993 40.2407 12.6937 38.7793 12.6937 36.9159C12.6937 32.4581 16.3446 29.7016 20.8886 29.7016C23.8982 29.7016 26.3598 30.6436 26.3598 30.6436C26.5936 30.7231 26.8291 30.8003 26.8291 31.0637V35.3648C26.8291 35.6893 26.6785 35.9321 26.3942 35.9321C26.2285 35.9321 25.8901 35.7853 25.8901 35.7853C25.8901 35.7853 23.0662 34.6936 21.134 34.7145C18.958 34.7145 18.1062 35.6585 18.1062 36.6932C18.1062 37.6483 19.0158 37.9022 20.2318 38.2875C20.8156 38.4478 23.1758 39.0546 24.2346 39.5428C26.5973 40.4913 28.1038 42.6878 28.1038 45.4538Z" fill="white"/>
</svg>
