<svg width="80" height="80" viewBox="0 0 80 80" fill="none" xmlns="http://www.w3.org/2000/svg">
<path d="M60.7094 36.8169L27.0795 46.5627C25.5467 47.0075 23.9504 46.0843 23.6047 44.5515L17.6921 18.3541C17.41 17.0789 18.3998 15.874 19.7304 15.874H53.432C55.0576 15.874 56.5054 16.8868 57.034 18.3973L62.3756 33.6504C62.8403 34.9785 62.0838 36.4185 60.711 36.8169H60.7094Z" fill="#044CA1"/>
<path d="M56.7697 17.815C56.7697 17.815 53.5345 24.2039 52.2088 27.0392C50.8831 29.8744 49.7304 33.2313 49.0276 35.7402C48.3248 38.249 48.2433 40.4283 48.2433 40.4283L33.2351 44.7772C33.2351 44.7772 34.0521 38.1418 31.7545 33.4073C29.457 28.6728 25.1098 24.2311 24.9044 24.0135C24.6989 23.7959 24.4722 23.4775 24.5603 23.2007C24.6484 22.9239 25.312 23.0967 25.312 23.0967C30.812 24.8695 38.6308 33.0793 40.1228 34.6857C40.2582 34.8313 40.4913 34.8282 40.6218 34.681C43.5292 31.3993 46.479 27.628 49.1125 24.3031C51.7441 20.9782 54.0598 18.1014 55.6936 16.6069C55.6936 16.6069 55.6936 16.6069 55.6953 16.6069C56.1305 16.9237 56.4989 17.3318 56.7664 17.8086C56.7664 17.8086 56.7664 17.8102 56.7664 17.8118L56.7697 17.815Z" fill="#FBD205"/>
<path d="M40.048 30.5705C43.064 30.5705 45.509 28.1463 45.509 25.156C45.509 22.1656 43.064 19.7415 40.048 19.7415C37.0321 19.7415 34.5872 22.1656 34.5872 25.156C34.5872 28.1463 37.0321 30.5705 40.048 30.5705Z" fill="#FBD205"/>
<path d="M8.1731 58.0445V50.0796H10.0532L12.1697 54.0381L12.9671 55.7965H13.0176C12.985 55.3725 12.9394 54.9005 12.8807 54.3789C12.822 53.8573 12.7943 53.3613 12.7943 52.8892V50.0796H14.5374V58.0445H12.6573L10.5407 54.0749L9.74337 52.3405H9.69283C9.73359 52.7804 9.78251 53.2525 9.83632 53.7581C9.89013 54.2637 9.91785 54.7517 9.91785 55.2237V58.0461H8.1731V58.0445Z" fill="#044CA1"/>
<path d="M18.643 58.1917C18.1196 58.1917 17.6287 58.067 17.1673 57.8189C16.7075 57.5708 16.3357 57.2077 16.0536 56.7325C15.7715 56.2556 15.6296 55.6845 15.6296 55.0157C15.6296 54.3469 15.7699 53.7756 16.0536 53.2989C16.3357 52.8221 16.7075 52.4604 17.1673 52.2124C17.6271 51.9644 18.1196 51.8396 18.643 51.8396C19.1664 51.8396 19.6458 51.9644 20.1057 52.2124C20.5655 52.4604 20.9373 52.8236 21.2194 53.2989C21.5015 53.7756 21.6433 54.3469 21.6433 55.0157C21.6433 55.6845 21.5015 56.2556 21.2194 56.7325C20.9373 57.2094 20.5655 57.5708 20.1057 57.8189C19.6458 58.067 19.1566 58.1917 18.643 58.1917ZM18.643 56.7373C19.0164 56.7373 19.2985 56.5805 19.4893 56.2668C19.68 55.9533 19.7763 55.5357 19.7763 55.0141C19.7763 54.4925 19.68 54.0749 19.4893 53.7612C19.2985 53.4476 19.0164 53.2909 18.643 53.2909C18.2696 53.2909 17.9777 53.4476 17.7902 53.7612C17.6027 54.0749 17.5097 54.4925 17.5097 55.0141C17.5097 55.5357 17.6027 55.9533 17.7902 56.2668C17.9777 56.5805 18.2614 56.7373 18.643 56.7373Z" fill="#044CA1"/>
<path d="M23.9084 58.0446L21.8293 51.9854H23.6719L24.4693 54.8446C24.5525 55.1454 24.6324 55.4542 24.7122 55.7662C24.7905 56.0798 24.872 56.3951 24.9552 56.7136H25.0058C25.146 56.1024 25.3042 55.4798 25.4787 54.8446L26.2874 51.9854H28.0419L26.0249 58.0446H23.9084Z" fill="#044CA1"/>
<path d="M31.2411 58.1917C30.7177 58.1917 30.2269 58.067 29.7655 57.8189C29.3056 57.5708 28.9338 57.2077 28.6517 56.7325C28.3697 56.2556 28.2278 55.6845 28.2278 55.0157C28.2278 54.3469 28.368 53.7756 28.6517 53.2989C28.9338 52.8221 29.3056 52.4604 29.7655 52.2124C30.2253 51.9644 30.7177 51.8396 31.2411 51.8396C31.7646 51.8396 32.244 51.9644 32.7038 52.2124C33.1637 52.4604 33.5354 52.8236 33.8175 53.2989C34.0996 53.7756 34.2415 54.3469 34.2415 55.0157C34.2415 55.6845 34.0996 56.2556 33.8175 56.7325C33.5354 57.2094 33.1637 57.5708 32.7038 57.8189C32.244 58.067 31.7548 58.1917 31.2411 58.1917ZM31.2411 56.7373C31.6146 56.7373 31.8967 56.5805 32.0874 56.2668C32.2782 55.9533 32.3744 55.5357 32.3744 55.0141C32.3744 54.4925 32.2782 54.0749 32.0874 53.7612C31.8967 53.4476 31.6146 53.2909 31.2411 53.2909C30.8677 53.2909 30.5759 53.4476 30.3883 53.7612C30.2008 54.0749 30.1079 54.4925 30.1079 55.0141C30.1079 55.5357 30.2008 55.9533 30.3883 56.2668C30.5759 56.5805 30.8596 56.7373 31.2411 56.7373Z" fill="#044CA1"/>
<path d="M39.0957 58.0445V51.5948H36.8667V50.0796H43.1657V51.5948H40.9367V58.0445H39.0941H39.0957Z" fill="#044CA1"/>
<path d="M45.7945 58.1918C44.9059 58.1918 44.164 57.9135 43.5655 57.355C42.9687 56.7965 42.6687 56.0174 42.6687 55.0157C42.6687 54.3645 42.8073 53.7997 43.0861 53.3245C43.3633 52.8477 43.7253 52.4813 44.1688 52.2253C44.6124 51.9693 45.0836 51.8413 45.5826 51.8413C46.4615 51.8413 47.1202 52.1197 47.5556 52.6781C47.991 53.2365 48.2095 53.9261 48.2095 54.7485C48.2095 55.083 48.185 55.347 48.1345 55.5422H44.4363C44.5194 55.9822 44.7053 56.3055 44.9972 56.5134C45.2874 56.7213 45.6364 56.8254 46.0424 56.8254C46.4827 56.8254 46.9262 56.6911 47.3746 56.4221L47.9845 57.5086C47.3045 57.9646 46.574 58.1934 45.7929 58.1934L45.7945 58.1918ZM44.4248 54.3565H46.6539C46.6539 54.0222 46.5724 53.7485 46.4109 53.5325C46.2495 53.3165 45.9853 53.2093 45.6201 53.2093C45.3299 53.2093 45.0722 53.3053 44.8488 53.4957C44.6254 53.6877 44.4836 53.9741 44.4248 54.3565Z" fill="#044CA1"/>
<path d="M49.168 58.0445V51.9852H50.6616L50.7858 52.7677H50.8362C51.094 52.5149 51.3677 52.2972 51.6582 52.1148C51.9484 51.9308 52.2971 51.8396 52.7032 51.8396C53.1437 51.8396 53.4974 51.9276 53.7682 52.102C54.037 52.278 54.2505 52.5276 54.4087 52.854C54.6829 52.5772 54.9714 52.3388 55.2746 52.1388C55.5782 51.9388 55.9368 51.8396 56.3511 51.8396C57.0145 51.8396 57.5022 52.0572 57.8136 52.4925C58.1251 52.9276 58.28 53.5244 58.28 54.2813V58.0429H56.4503V54.5133C56.4503 54.0733 56.3884 53.7725 56.263 53.6093C56.1388 53.446 55.9483 53.3645 55.6905 53.3645C55.384 53.3645 55.0304 53.5597 54.6325 53.9501V58.0429H52.8028V54.5133C52.8028 54.0733 52.7425 53.7725 52.6216 53.6093C52.5012 53.446 52.3086 53.3645 52.043 53.3645C51.7283 53.3645 51.3792 53.5597 50.9977 53.9501V58.0429H49.168V58.0445Z" fill="#044CA1"/>
<path d="M59.5256 60.2928V51.9853H61.0193L61.1435 52.5838H61.1939C61.4352 52.3726 61.7057 52.195 62.0093 52.0525C62.3126 51.9101 62.6257 51.8381 62.9486 51.8381C63.6952 51.8381 64.2841 52.1166 64.716 52.675C65.1479 53.2334 65.3634 53.9806 65.3634 54.9166C65.3634 55.9598 65.0959 56.7647 64.5611 57.3357C64.0263 57.9055 63.426 58.1902 62.7625 58.1902C62.2392 58.1902 61.75 57.9791 61.2935 57.5553L61.3553 58.5199V60.2912H59.5256V60.2928ZM62.3384 56.7261C62.6531 56.7261 62.924 56.5838 63.1473 56.2991C63.3707 56.0142 63.4833 55.5614 63.4833 54.9438C63.4833 53.8526 63.126 53.307 62.4118 53.307C62.0548 53.307 61.7024 53.491 61.3537 53.8574V56.3373C61.5201 56.4845 61.6848 56.5854 61.8512 56.6429C62.0171 56.7008 62.1786 56.7277 62.3368 56.7277L62.3384 56.7261Z" fill="#044CA1"/>
<path d="M68.9996 58.1917C68.4763 58.1917 67.9854 58.067 67.524 57.8189C67.0642 57.5708 66.6921 57.2077 66.4102 56.7325C66.1283 56.2556 65.9861 55.6845 65.9861 55.0157C65.9861 54.3469 66.1266 53.7756 66.4102 53.2989C66.6921 52.8221 67.0642 52.4604 67.524 52.2124C67.9838 51.9644 68.4763 51.8396 68.9996 51.8396C69.5229 51.8396 70.0024 51.9644 70.4622 52.2124C70.922 52.4604 71.294 52.8236 71.576 53.2989C71.8579 53.7756 72.0001 54.3469 72.0001 55.0157C72.0001 55.6845 71.8579 56.2556 71.576 56.7325C71.294 57.2094 70.922 57.5708 70.4622 57.8189C70.0024 58.067 69.5131 58.1917 68.9996 58.1917ZM68.9996 56.7373C69.373 56.7373 69.6553 56.5805 69.8459 56.2668C70.0368 55.9533 70.1327 55.5357 70.1327 55.0141C70.1327 54.4925 70.0368 54.0749 69.8459 53.7612C69.6553 53.4476 69.373 53.2909 68.9996 53.2909C68.6263 53.2909 68.3342 53.4476 68.1469 53.7612C67.9592 54.0749 67.8662 54.4925 67.8662 55.0141C67.8662 55.5357 67.9592 55.9533 68.1469 56.2668C68.3342 56.5805 68.6181 56.7373 68.9996 56.7373Z" fill="#044CA1"/>
<path d="M9.40885 63.0929C9.00446 63.0929 8.66855 62.947 8.40113 62.6575C8.13371 62.3679 8 61.9646 8 61.4495C8 60.9345 8.13697 60.5392 8.40928 60.2465C8.6816 59.9533 9.02402 59.8062 9.43331 59.8062C9.63061 59.8062 9.80346 59.8464 9.95347 59.9248C10.1035 60.0032 10.2258 60.0945 10.3204 60.1982L10.0986 60.4592C10.0138 60.3695 9.91597 60.2959 9.80835 60.2416C9.70073 60.1869 9.5768 60.16 9.4382 60.16C9.13328 60.16 8.88705 60.275 8.70116 60.5054C8.51527 60.7358 8.42233 61.0478 8.42233 61.4415C8.42233 61.8352 8.51201 62.1585 8.69301 62.3921C8.87401 62.6257 9.11697 62.7423 9.42189 62.7423C9.5768 62.7423 9.71377 62.7105 9.83607 62.6478C9.95673 62.5855 10.0692 62.4974 10.1703 62.384L10.397 62.6353C10.2682 62.7809 10.1247 62.8927 9.96326 62.9743C9.80183 63.0543 9.61593 63.0962 9.40722 63.0962L9.40885 63.0929Z" fill="#044CA1"/>
<path d="M12.6554 63.0354L12.3505 62.0687H11.1732L10.8634 63.0354H10.4443L11.5385 59.864H12.0016L13.0957 63.0354H12.6571H12.6554ZM11.4292 61.2609L11.2759 61.7438H12.2461L12.0929 61.2609C12.0342 61.0832 11.9771 60.9071 11.9249 60.7313C11.8728 60.5552 11.8206 60.3759 11.7668 60.1921H11.7472C11.6983 60.3759 11.6477 60.5552 11.5939 60.7313C11.5417 60.9071 11.4863 61.0832 11.426 61.2609H11.4292Z" fill="#044CA1"/>
<path d="M13.425 63.0354V59.864H13.849L15.0165 61.856L15.3671 62.5135H15.3867C15.3769 62.3522 15.3655 62.1858 15.354 62.0129C15.3426 61.8399 15.3361 61.6703 15.3361 61.5026V59.864H15.7258V63.0354H15.3019L14.1295 61.0386L13.7789 60.3855H13.7593C13.7723 60.5472 13.7854 60.7104 13.7968 60.8769C13.8082 61.0434 13.8148 61.2094 13.8148 61.3775V63.0354H13.425Z" fill="#044CA1"/>
<path d="M18.268 63.0354L17.9631 62.0687H16.7858L16.476 63.0354H16.0569L17.1511 59.864H17.6141L18.7083 63.0354H18.2696H18.268ZM17.0418 61.2609L16.8885 61.7438H17.8587L17.7055 61.2609C17.6467 61.0832 17.5897 60.9071 17.5375 60.7313C17.4853 60.5552 17.4315 60.3759 17.3793 60.1921H17.3598C17.3108 60.3759 17.2603 60.5552 17.2065 60.7313C17.1543 60.9071 17.0988 61.0832 17.0385 61.2609H17.0418Z" fill="#044CA1"/>
<path d="M19.0359 63.0354V59.864H19.4451V62.6928H20.8589V63.037H19.0359V63.0354Z" fill="#044CA1"/>
<path d="M22.1587 63.0354V59.864H22.9674C23.4664 59.864 23.8464 59.9999 24.1056 60.2721C24.3649 60.544 24.4953 60.9312 24.4953 61.435C24.4953 61.9393 24.3649 62.3345 24.1056 62.6144C23.8464 62.8943 23.473 63.0354 22.987 63.0354H22.1587ZM22.5679 62.7073H22.9381C23.3164 62.7073 23.5985 62.5967 23.7877 62.3743C23.9768 62.152 24.0714 61.8399 24.0714 61.4366C24.0714 61.0337 23.9768 60.7297 23.7877 60.515C23.5985 60.3007 23.3148 60.1937 22.9381 60.1937H22.5679V62.7073Z" fill="#044CA1"/>
<path d="M26.7943 63.0354L26.4894 62.0687H25.3121L25.0023 63.0354H24.5833L25.6774 59.864H26.1405L27.2346 63.0354H26.796H26.7943ZM25.5681 61.2609L25.4148 61.7438H26.3851L26.2318 61.2609C26.1731 61.0832 26.116 60.9071 26.0639 60.7313C26.0116 60.5552 25.9578 60.3759 25.9057 60.1921H25.8861C25.8372 60.3759 25.7866 60.5552 25.7328 60.7313C25.6806 60.9071 25.6252 61.0832 25.5649 61.2609H25.5681Z" fill="#044CA1"/>
<path d="M28.4214 63.0354V59.864H30.2835V60.2018H28.8306V61.197H30.0569V61.5408H28.8306V62.6912H30.3341V63.0354H28.423H28.4214Z" fill="#044CA1"/>
<path d="M31.7861 63.0928C31.5594 63.0928 31.3491 63.0494 31.1551 62.9645C30.961 62.8797 30.7931 62.7663 30.6528 62.6239L30.8991 62.3437C31.0132 62.4639 31.1502 62.558 31.3051 62.632C31.4616 62.704 31.623 62.7406 31.791 62.7406C32.0046 62.7406 32.1709 62.6927 32.2883 62.5982C32.4057 62.5037 32.4661 62.3791 32.4661 62.2238C32.4661 62.0686 32.4155 61.9452 32.3128 61.8732C32.2117 61.8012 32.0829 61.7309 31.928 61.6637L31.4649 61.4655C31.31 61.4044 31.1632 61.3103 31.0214 61.1852C30.8795 61.059 30.8094 60.8812 30.8094 60.6492C30.8094 60.4172 30.9056 60.2077 31.098 60.0477C31.2904 59.8876 31.5317 59.8076 31.8252 59.8076C32.016 59.8076 32.1937 59.8446 32.3601 59.9166C32.5264 59.9886 32.6666 60.0831 32.7808 60.1997L32.559 60.4606C32.4612 60.3677 32.3519 60.2942 32.2313 60.2415C32.1106 60.1884 31.9753 60.1615 31.8252 60.1615C31.6442 60.1615 31.4991 60.2029 31.3899 60.2877C31.279 60.371 31.2252 60.4844 31.2252 60.6255C31.2252 60.7775 31.2823 60.8893 31.398 60.9645C31.5122 61.0381 31.6345 61.102 31.7633 61.1535L32.2215 61.3469C32.409 61.4269 32.5655 61.5294 32.6943 61.6541C32.8232 61.7791 32.8868 61.9581 32.8868 62.1933C32.8868 62.4446 32.7889 62.6589 32.5932 62.8334C32.3976 63.0096 32.1286 63.0972 31.7877 63.0972L31.7861 63.0928Z" fill="#044CA1"/>
<path d="M33.3921 63.0354V59.864H34.3134C34.6754 59.864 34.9673 59.9328 35.1906 60.0687C35.414 60.2062 35.5249 60.4479 35.5249 60.7969C35.5249 61.1455 35.414 61.3759 35.1955 61.536C34.9754 61.6976 34.6884 61.7776 34.333 61.7776H33.8013V63.0354H33.3921ZM33.8013 61.4495H34.284C34.8384 61.4495 35.1172 61.232 35.1172 60.7969C35.1172 60.5681 35.0455 60.4097 34.9037 60.32C34.7602 60.2319 34.5482 60.1873 34.2661 60.1873H33.803V61.4495H33.8013Z" fill="#044CA1"/>
<path d="M36.053 63.0354V59.864H37.9151V60.2018H36.4623V61.197H37.6885V61.5408H36.4623V62.6912H37.9657V63.0354H36.0546H36.053Z" fill="#044CA1"/>
<path d="M38.9296 63.0354H38.5203V59.864H39.5296C39.8606 59.864 40.1329 59.9296 40.3449 60.0622C40.5569 60.1953 40.6629 60.4258 40.6629 60.7535C40.6629 61.0016 40.596 61.2002 40.464 61.349C40.3302 61.4978 40.1542 61.5983 39.934 61.653L40.7575 63.0354H40.2944L39.5166 61.696H38.9296V63.0354ZM38.9296 61.3679H39.4709C39.9927 61.3679 40.2536 61.1632 40.2536 60.7535C40.2536 60.5472 40.1867 60.4016 40.0514 60.3168C39.9161 60.2319 39.7237 60.1889 39.4693 60.1889H38.9279V61.3679H38.9296Z" fill="#044CA1"/>
<path d="M42.9604 63.0354L42.6554 62.0687H41.4782L41.1683 63.0354H40.7493L41.8434 59.864H42.3065L43.4006 63.0354H42.962H42.9604ZM41.7342 61.2609L41.5809 61.7438H42.5511L42.3978 61.2609C42.3391 61.0832 42.282 60.9071 42.2299 60.7313C42.1777 60.5552 42.1239 60.3759 42.0717 60.1921H42.0521C42.0032 60.3759 41.9526 60.5552 41.8988 60.7313C41.8467 60.9071 41.7912 61.0832 41.7309 61.2609H41.7342Z" fill="#044CA1"/>
<path d="M43.7285 63.0354V59.864H44.1525L45.32 61.856L45.6706 62.5135H45.6901C45.6804 62.3522 45.6689 62.1858 45.6575 62.0129C45.6461 61.8399 45.6396 61.6703 45.6396 61.5026V59.864H46.0293V63.0354H45.6053L44.4329 61.0386L44.0824 60.3855H44.0628C44.0758 60.5472 44.0889 60.7104 44.1003 60.8769C44.1117 61.0434 44.1182 61.2094 44.1182 61.3775V63.0354H43.7285Z" fill="#044CA1"/>
<path d="M48.4178 63.6863C48.4178 63.9533 48.1472 64.1009 47.6041 64.1262L47.565 63.9328C47.7721 63.92 47.9123 63.8942 47.989 63.856C48.064 63.8174 48.1031 63.7631 48.1031 63.6912C48.1031 63.6272 48.0754 63.5758 48.02 63.5408C47.9645 63.5054 47.8651 63.4785 47.7248 63.4592L47.9074 63.0864C47.5292 63.0639 47.2177 62.9087 46.9715 62.6224C46.7252 62.3361 46.6013 61.944 46.6013 61.4478C46.6013 60.952 46.7383 60.5375 47.0106 60.2447C47.2829 59.952 47.6253 59.8044 48.0346 59.8044C48.2319 59.8044 48.4048 59.8447 48.5548 59.9231C48.7048 60.0015 48.8271 60.0928 48.9217 60.1965L48.6999 60.4575C48.6151 60.3678 48.5173 60.2942 48.4097 60.2399C48.3021 60.1852 48.1781 60.1583 48.0395 60.1583C47.7346 60.1583 47.4884 60.2733 47.3025 60.5037C47.1166 60.7341 47.0236 61.0461 47.0236 61.4398C47.0236 61.8335 47.1133 62.1567 47.2943 62.3904C47.4754 62.624 47.7183 62.7406 48.0232 62.7406C48.1781 62.7406 48.3151 62.7088 48.4374 62.6461C48.558 62.5838 48.6706 62.4957 48.7717 62.3823L48.9985 62.6336C48.8874 62.7599 48.7635 62.8608 48.6282 62.9376C48.4928 63.0144 48.3412 63.0639 48.17 63.0832L48.0575 63.3437C48.1683 63.3695 48.2564 63.4081 48.3216 63.4608C48.3852 63.5118 48.4178 63.5886 48.4178 63.6879V63.6863Z" fill="#044CA1"/>
<path d="M51.2564 63.0354L50.9516 62.0687H49.7743L49.4645 63.0354H49.0457L50.1398 59.864H50.6028L51.697 63.0354H51.2581H51.2564ZM50.0304 61.2609L49.8771 61.7438H50.8475L50.6942 61.2609C50.6352 61.0832 50.5783 60.9071 50.5262 60.7313C50.4738 60.5552 50.4201 60.3759 50.368 60.1921H50.3484C50.2996 60.3759 50.2488 60.5552 50.1951 60.7313C50.1431 60.9071 50.0873 61.0832 50.0271 61.2609H50.0304Z" fill="#044CA1"/>
</svg>
