<svg width="80" height="80" viewBox="0 0 80 80" fill="none" xmlns="http://www.w3.org/2000/svg">
<path d="M49.5736 50.1619C49.5736 49.4764 49.6677 46.7132 49.6677 44.4868C49.6677 42.6123 49.1217 39.2242 49.1217 37.4104C49.1217 36.3215 49.1217 35.0627 49.0762 34.5197C49.9438 33.9556 50.8081 33.3762 53.247 31.9992C54.1176 31.5048 55.8499 30.7191 55.8499 29.3663C55.8499 28.4564 55.0097 27.1703 53.6838 27.4554C52.4919 27.7102 52.5219 28.6445 50.6079 29.8274C49.0488 30.7889 48.2174 31.253 47.8961 31.4319C47.43 31.1819 46.9084 31.0526 46.3793 31.0558C45.4875 31.0558 44.4471 31.4593 44.4471 32.6179C44.4471 33.1518 44.6169 33.7251 43.904 34.0981C43.5065 34.3499 41.0343 35.7997 38.9656 37.0464C37.2213 38.0989 36.4114 38.014 35.6743 38.4568C35.4142 38.6031 35.1976 38.8158 35.0468 39.0732C34.8959 39.3306 34.8162 39.6235 34.8158 39.9219C34.8406 40.2788 34.9565 40.6234 35.1525 40.9228C35.6227 41.5294 36.0413 41.8479 36.7784 41.8479C38.0282 41.8479 39.0687 40.756 40.998 39.382C42.2113 38.5266 43.8341 37.2982 44.4804 37.2982C45.0597 37.2982 45.4602 37.7349 45.4602 39.5275C45.4602 45.5181 45.0963 46.5373 45.0963 50.6927C45.0963 51.4419 45.1233 52.816 45.1478 53.3985C45.1751 54.1566 45.1266 56.3194 45.0871 57.123C45.0597 57.7844 45.6696 60.0746 47.5774 59.7651C49.5644 59.4405 50.0226 58.2634 50.0437 57.4539C50.0649 56.644 49.9012 54.4963 49.798 53.3985C49.6624 52.3246 49.5865 51.2441 49.5707 50.1619" fill="#E84343"/>
<path d="M71.3993 25.8782C70.4469 24.9349 69.0514 25.0896 68.2293 25.5476C67.016 26.224 66.0725 27.8741 65.4991 28.4807C59.2806 34.9869 57.6123 41.114 57.0237 42.3848C56.9749 42.5244 56.8858 42.6463 56.7674 42.7349C56.6493 42.8235 56.5071 42.8748 56.3593 42.8823C56.0954 42.8823 55.85 42.7306 55.7526 42.3121C55.4887 41.0624 55.3221 38.9179 55.1189 36.1698C55.0094 34.7078 53.9267 34.0466 52.5919 34.3894C51.3056 34.723 50.7201 35.545 50.8293 36.9949C50.9144 38.1263 51.1753 39.2395 51.8487 42.2969C52.0126 43.0461 53.4229 49.3521 54.6515 51.1205C56.1439 53.2679 58.8378 52.5188 58.8804 50.6261C58.8929 49.5879 59.0417 48.5559 59.3231 47.5565C60.4243 43.7468 61.8712 41.2474 63.0028 38.9937C65.5598 33.898 68.4629 31.5382 68.4629 31.5382C71.0776 30.6737 71.651 29.3391 71.7998 28.9114C71.9819 28.4352 72.288 26.7882 71.3811 25.8782" fill="#E84343"/>
<path fill-rule="evenodd" clip-rule="evenodd" d="M30.484 20.2061L37.9311 22.8662L35.5377 25.2593L30.484 20.2061ZM64.4586 56.2284V20.2061L67.5798 22.302V26.0141C67.0005 26.5203 66.4997 27.1897 66.0923 27.7347C65.8646 28.0387 65.6664 28.304 65.4994 28.4807C65.1372 28.8595 64.7908 29.237 64.459 29.6123V36.4094C65.6713 34.4858 66.825 33.1543 67.5798 32.3755V56.2284H64.4586ZM67.5798 32.3755C67.5798 32.3755 67.5801 32.3754 67.5798 32.3755V26.0141C67.5798 26.0141 67.5801 26.0141 67.5798 26.0141V32.3755ZM30.123 56.2258H33.2442V50.2837L30.123 47.1595V56.2258ZM40.931 47.1836V50.605H37.5096L40.931 47.1836Z" fill="#03ABCE"/>
<path d="M35.5377 27.2309L42.5634 20.2061H63.0754V31.2671C59.5448 35.7405 58.0533 39.6966 57.3602 41.5348C57.2181 41.9119 57.1095 42.1999 57.0237 42.3849C56.9749 42.5245 56.8858 42.6464 56.7674 42.735C56.6493 42.8236 56.5071 42.8749 56.3593 42.8823C56.0954 42.8823 55.85 42.7307 55.7527 42.3121C55.4887 41.0624 55.3221 38.9179 55.1189 36.1699C55.0094 34.7079 53.9267 34.0467 52.5919 34.3894C51.3056 34.723 50.7201 35.545 50.8293 36.9949C50.9071 38.0308 51.1325 39.0514 51.6867 41.563C51.7378 41.7945 51.7919 42.039 51.8487 42.2969C52.0126 43.0461 53.4229 49.3521 54.6515 51.1205C56.1439 53.2679 58.8378 52.5188 58.8804 50.6261C58.8929 49.5879 59.0417 48.5559 59.3231 47.5565C60.2524 44.3417 61.4279 42.06 62.4522 40.0716C62.6415 39.7036 62.826 39.3457 63.0028 38.9938C63.0269 38.9455 63.0513 38.8975 63.0754 38.8497V56.2222H50.0092C49.9584 55.2757 49.8653 54.1141 49.798 53.3986C49.6624 52.3247 49.5866 51.2442 49.5707 50.1621H49.5737C49.5737 49.9174 49.5856 49.4082 49.6011 48.7532C49.6288 47.5727 49.6677 45.9188 49.6677 44.487C49.6677 43.542 49.5288 42.2124 49.3913 40.8938C49.256 39.5966 49.1217 38.3099 49.1217 37.4105C49.1217 36.3216 49.1217 35.0628 49.0762 34.5199C49.1366 34.4804 49.1973 34.441 49.2583 34.4012C50.0722 33.8709 50.9787 33.2802 53.2471 31.9993C53.3395 31.9469 53.4411 31.8913 53.5496 31.832C54.4654 31.3321 55.85 30.576 55.85 29.3665C55.85 28.4565 55.0097 27.1704 53.6839 27.4556C53.066 27.5876 52.7763 27.9024 52.3742 28.3398C52.0004 28.7459 51.5296 29.2579 50.6079 29.8275C49.0488 30.789 48.2178 31.2531 47.8962 31.4321C47.43 31.182 46.9085 31.0527 46.3793 31.0559C45.4876 31.0559 44.4471 31.4594 44.4471 32.618C44.4471 32.7041 44.4514 32.7913 44.456 32.8784C44.4788 33.3315 44.5019 33.7854 43.9041 34.0983C43.7137 34.2188 43.0483 34.6138 42.1791 35.1297L42.1787 35.1299C41.2319 35.6917 40.044 36.3967 38.9656 37.0465C37.9067 37.6855 37.1921 37.9053 36.6291 38.0784C36.2648 38.1905 35.9639 38.283 35.6743 38.4569C35.4142 38.6032 35.1976 38.8159 35.0468 39.0733C34.8959 39.3307 34.8162 39.6236 34.8158 39.922C34.8407 40.2789 34.9566 40.6236 35.1525 40.923C35.6227 41.5296 36.0413 41.848 36.7785 41.848C37.7287 41.848 38.5579 41.2169 39.7488 40.3104C40.1242 40.0246 40.5356 39.7114 40.998 39.3821C41.158 39.2691 41.3256 39.1498 41.4968 39.0275C42.6228 38.2238 43.9196 37.2983 44.4804 37.2983C45.0597 37.2983 45.4602 37.7351 45.4602 39.5277C45.4602 42.7961 45.352 44.5846 45.2534 46.2101C45.1712 47.5639 45.0963 48.8046 45.0963 50.6929C45.0963 51.4421 45.1234 52.8161 45.1478 53.3986C45.1676 53.9508 45.1475 55.2476 45.1194 56.2222H42.3387L42.3358 43.8073L35.5377 50.6047L28.7398 43.8073V56.2222H8V20.2061H28.5123L35.5377 27.2309Z" fill="#EDE416"/>
</svg>
