<svg width="80" height="80" viewBox="0 0 80 80" fill="none" xmlns="http://www.w3.org/2000/svg">
<path fill-rule="evenodd" clip-rule="evenodd" d="M37.2766 37.0496H40.4535L38.8652 33.2114L37.2766 37.0496ZM24.5672 36.4231H20.2554V42.0626H17.6075V31.88H13.9761V42.1409H11.3286V31.8017H8V30.0786H17.6075H20.2554V34.6996H24.5672V30.0786H27.2151H33.8722V31.8017H27.2151V34.6213H32.2836V36.3447H27.2151V40.3395H33.2674L37.5789 30.0786H40.2267L45.2954 42.0626H42.6479L41.2859 38.8511H36.5957L35.1582 42.1409H32.5107L32.5437 42.0626H30.0292H27.2151V42.1409H24.5672V42.0626V36.4231ZM64.8132 35.5618C67.007 35.5618 68.1417 34.9349 68.1417 33.6034C68.1417 32.3502 67.0827 31.7236 64.8887 31.7236H64.0567V35.5618H64.8132ZM61.4089 31.8017H54.7519V34.6214H59.8202V36.4231H54.7519V40.3396H61.4089V31.8017ZM72 42.0626H68.974L64.5103 37.128H64.0567V42.0626H61.4089H52.1039V31.8801H48.7755V42.141H46.1274V31.8017H42.8747V30.0786H52.1039H61.4089V30H64.435C66.4773 30 67.9905 30.3136 68.8982 30.8619C69.8817 31.4885 70.4112 32.4283 70.4112 33.5248C70.4112 34.3864 70.1088 35.0916 69.4277 35.7182C68.8225 36.4231 67.9905 36.8147 67.1585 36.9714L72 42.0626ZM58.9285 46.516C58.9285 46.2881 58.8502 46.0602 58.772 45.8323C58.6939 45.6045 58.5374 45.4526 58.381 45.3005C58.2245 45.1484 57.9902 44.9969 57.7555 44.9205C57.5209 44.8448 57.2865 44.769 56.9737 44.769H55.8785V48.3386H56.9737V48.263C57.2865 48.263 57.5209 48.1868 57.7555 48.1108C57.9902 48.035 58.2245 47.883 58.381 47.7311C58.5374 47.579 58.6939 47.3511 58.772 47.1996C58.8502 46.9716 58.9285 46.7438 58.9285 46.516ZM59.0067 45.6798C59.0847 45.9077 59.1629 46.2116 59.1629 46.5155C59.1629 46.8191 59.0847 47.047 59.0067 47.3506C58.9285 47.5785 58.772 47.8068 58.5374 48.0346L57.8337 48.4903C57.599 48.5661 57.2865 48.6418 56.9737 48.6418H55.5657V44.4643H56.9737C57.2865 44.4643 57.599 44.5407 57.8337 44.6165C58.0684 44.6922 58.303 44.8443 58.5374 45.0722C58.772 45.2244 58.85 45.4522 59.0067 45.6798ZM54.0022 46.3634H51.3434V44.4643H51.0305V48.5661H51.3434V46.6673H54.0022V48.5661H54.3149V44.4643H54.0022V46.3634ZM24.6005 47.0756C24.6005 46.2106 23.9175 45.5093 23.0755 45.5093C22.2334 45.5093 21.5508 46.2106 21.5508 47.0756C21.5508 47.9411 22.2334 48.6421 23.0755 48.6421C23.9175 48.6421 24.6005 47.9411 24.6005 47.0756ZM43.293 46.5069C43.293 46.4256 43.293 46.3444 43.2179 46.2632C43.2179 46.182 43.1422 46.1011 43.0669 46.0198C42.991 45.9386 42.9157 45.8574 42.84 45.8574C42.7649 45.7759 42.6135 45.7759 42.538 45.7759C42.3115 45.7759 42.1605 45.8574 42.0094 46.0198C41.8584 46.182 41.7832 46.3444 41.7832 46.5881H43.293V46.5069ZM43.822 46.2636C43.8974 46.5072 43.8974 46.6696 43.8974 46.9133V47.0758H41.6319C41.7075 47.3198 41.783 47.5635 41.9337 47.726C42.0849 47.888 42.3114 47.9693 42.5379 47.9693C42.6889 47.9693 42.84 47.9693 42.9909 47.888C43.1422 47.8071 43.2177 47.726 43.3687 47.5635L43.7464 47.9693C43.5952 48.1316 43.4442 48.2945 43.2177 48.3756C42.9909 48.457 42.7647 48.5381 42.4627 48.5381C42.2359 48.5381 42.0094 48.457 41.8584 48.3756C41.7075 48.2945 41.481 48.2133 41.3297 48.0505C41.1789 47.888 41.1032 47.726 41.028 47.4823C40.952 47.2386 40.8767 47.0758 40.8767 46.8321C40.8767 46.5885 40.8767 46.3448 40.952 46.1823C41.028 45.939 41.1032 45.7762 41.2542 45.6138C41.4054 45.4513 41.5562 45.3701 41.7075 45.2889C41.8584 45.2077 42.0849 45.1264 42.3114 45.1264C42.5379 45.1264 42.7647 45.2077 42.9157 45.2889C43.0669 45.3701 43.2177 45.5326 43.3687 45.695C43.6707 45.8578 43.822 46.0202 43.822 46.2636ZM40.1217 45.2075L39.3665 47.6445L38.5359 45.2075H37.7807L39.0645 48.538H39.6687L40.8769 45.2075H40.1217ZM48.8059 45.2075L48.0504 47.5633L47.2955 45.2075H46.5405L47.673 48.4568C47.673 48.4568 47.4465 49.1065 47.22 49.269C47.0689 49.3501 46.6914 49.3501 46.5405 49.3501V50C46.7667 50 47.3709 50 47.5222 49.9188C47.7487 49.7563 47.8242 49.6751 47.9752 49.3501L49.4857 45.2887H48.8059V45.2075ZM45.1812 45.7761V45.2075H44.5017V48.4568H45.1812V47.2385C45.1812 46.9945 45.1812 46.832 45.2569 46.6695C45.4834 46.1013 46.0872 45.9388 46.3894 45.8576L46.1632 45.2075C45.8607 45.2887 45.4077 45.3699 45.1812 45.7761ZM27.6619 48.4568H28.3417V45.2075H27.6619V48.4568ZM30.9841 46.832C30.9089 46.7508 30.8332 46.6695 30.6824 46.6695C30.6067 46.5883 30.4557 46.5883 30.3802 46.5071C30.3046 46.5071 30.2292 46.4258 30.1537 46.4258C30.0781 46.4258 30.0024 46.3446 29.9272 46.3446C29.8516 46.3446 29.7759 46.2634 29.7759 46.2634C29.7759 46.1822 29.7007 46.1822 29.7007 46.1013C29.7007 46.0201 29.7007 45.9388 29.7759 45.8576C29.8516 45.7761 29.9272 45.7761 30.0781 45.7761C30.2292 45.7761 30.3046 45.7761 30.4557 45.8576L30.9089 46.1013L31.2109 45.5324C31.0597 45.4512 30.9089 45.2887 30.6824 45.2887C30.4557 45.2075 30.3046 45.2075 30.0781 45.2075C29.9272 45.2075 29.7759 45.2075 29.6251 45.2887C29.4739 45.3699 29.3986 45.3699 29.2474 45.4512C29.1721 45.5324 29.0964 45.6136 29.0209 45.7761C28.9452 45.8576 28.9452 46.0201 28.9452 46.1822C28.9452 46.3446 28.9452 46.5071 29.0209 46.5883L29.2474 46.832C29.3229 46.9131 29.4739 46.9945 29.5494 46.9945C29.6251 47.0756 29.7759 47.0756 29.8516 47.0756C29.9272 47.0756 30.0024 47.1571 30.0781 47.1571C30.1537 47.1571 30.2292 47.2385 30.3046 47.2385C30.3802 47.2385 30.3802 47.3196 30.4557 47.3196C30.4557 47.4008 30.5314 47.4008 30.5314 47.4821C30.5314 47.5633 30.4557 47.6445 30.3802 47.7258C30.3046 47.807 30.1537 47.807 30.0024 47.807C29.8516 47.807 29.7007 47.807 29.4739 47.7258C29.3229 47.6445 29.1721 47.5633 28.9452 47.4008L28.8699 48.0503C29.0964 48.2131 29.2474 48.2943 29.4739 48.4568C29.7007 48.538 29.9272 48.6191 30.1537 48.6191C30.3046 48.6191 30.4557 48.6191 30.6067 48.538C30.7579 48.4568 30.8332 48.4568 30.9841 48.3755C31.0597 48.2943 31.1354 48.2131 31.2109 48.0503C31.2862 47.8878 31.2862 47.807 31.2862 47.5633C31.2862 47.4008 31.2862 47.3196 31.2109 47.1571C31.1354 46.9945 31.0597 46.9131 30.9841 46.832ZM33.1742 45.7762C33.5517 45.7762 33.7784 45.939 33.9294 46.1823L34.3824 45.695C34.0802 45.3701 33.7784 45.1264 33.1742 45.1264C32.2682 45.1264 31.5884 45.939 31.5884 46.8321C31.5884 47.726 32.2682 48.5381 33.1742 48.5381C33.7784 48.5381 34.1559 48.2945 34.3824 47.888L34.0051 47.4823C33.7784 47.726 33.4764 47.888 33.1742 47.888C32.6456 47.888 32.2682 47.401 32.2682 46.8321C32.2682 46.2636 32.6456 45.7762 33.1742 45.7762ZM37.1007 46.8318C37.1007 46.6693 37.1007 46.5881 37.0256 46.4256C36.9499 46.2632 36.9499 46.182 36.799 46.1011C36.7234 46.0198 36.6481 45.9386 36.4969 45.8574C36.4212 45.7759 36.2704 45.7759 36.1194 45.7759C35.9682 45.7759 35.8926 45.7759 35.7417 45.8574C35.5906 45.9386 35.5152 46.0198 35.4396 46.1011C35.3641 46.182 35.2887 46.2632 35.2887 46.4256C35.2131 46.5881 35.2131 46.6693 35.2131 46.8318C35.2131 46.9941 35.2131 47.0755 35.2887 47.2381C35.3641 47.4006 35.3641 47.4818 35.5152 47.5631C35.5906 47.6443 35.6661 47.7255 35.8174 47.8068C35.9682 47.8876 36.0439 47.8876 36.1947 47.8876C36.3459 47.8876 36.4969 47.8876 36.5726 47.8068C36.7234 47.7255 36.799 47.6443 36.8745 47.5631C36.9499 47.4818 37.0256 47.3195 37.0256 47.2381C37.1007 47.157 37.1007 46.9941 37.1007 46.8318ZM37.705 46.1823C37.7806 46.426 37.8562 46.5885 37.8562 46.8321C37.8562 47.0758 37.7806 47.3198 37.705 47.4823C37.6294 47.726 37.4785 47.888 37.4029 48.0505C37.252 48.2133 37.1007 48.2945 36.8745 48.457C36.6481 48.5381 36.4212 48.6193 36.1947 48.6193C35.9682 48.6193 35.7417 48.5381 35.5906 48.457C35.3641 48.3756 35.2131 48.2133 35.0619 48.1316C34.9111 47.9693 34.8357 47.8071 34.7601 47.5635C34.6846 47.3198 34.6092 47.1573 34.6092 46.9133C34.6092 46.6696 34.6846 46.426 34.7601 46.2636C34.8357 46.0202 34.9866 45.8578 35.1376 45.695C35.2887 45.5326 35.4396 45.4513 35.666 45.2889C35.8925 45.2077 36.0439 45.1264 36.3459 45.1264C36.5726 45.1264 36.7991 45.2077 37.0256 45.2889C37.2521 45.3701 37.4029 45.5326 37.554 45.6138C37.4785 45.7762 37.6294 45.939 37.705 46.1823ZM27.2841 46.2632C27.2841 47.4818 26.3779 48.4565 25.1699 48.4565H23.9614C24.1879 48.2941 24.4144 48.0501 24.5656 47.7255H25.1699C26.0002 47.7255 26.6046 47.0753 26.6046 46.2632C26.6046 45.3697 26.0759 44.8011 25.1699 44.8011H24.4144V45.4509C24.2635 45.2885 24.1879 45.126 24.037 45.0448C23.9613 44.9636 23.8105 44.8824 23.7348 44.8824V44.1514H25.2451C26.3779 44.1514 27.2841 45.0448 27.2841 46.2632Z" fill="black"/>
</svg>
