<svg width="80" height="80" viewBox="0 0 80 80" fill="none" xmlns="http://www.w3.org/2000/svg">
<path fill-rule="evenodd" clip-rule="evenodd" d="M72 40.0001C72 57.6669 57.6825 71.9915 40.0152 72C22.3483 72.0085 8.01684 57.6981 8.00002 40.0304C7.98278 22.3635 22.2868 8.02547 39.9541 8.00003C57.621 7.9746 71.9659 22.2716 72 39.9385" fill="#410E41"/>
<path fill-rule="evenodd" clip-rule="evenodd" d="M48.3499 31.0579L47.1113 32.3493C47.0871 37.9432 47.1269 43.5366 47.0904 49.1296L51.0649 49.1428L52.2518 47.9374L48.34 47.8899C48.3605 42.3223 48.3404 36.6254 48.3499 31.0579ZM41.9092 37.6909C42.1509 37.3893 42.4098 37.0972 42.683 36.8236C41.956 35.9625 40.8889 35.3376 39.7447 35.1936C39.5289 35.158 39.3131 35.1387 39.0998 35.1354C37.6069 35.11 36.2009 35.862 35.1802 37.2675C37.0641 35.9707 40.0549 36.3452 41.4202 38.1783C41.1531 38.4458 40.891 38.717 40.6313 38.9926C41.885 39.0115 43.1384 38.9934 44.3921 39.0041C44.5792 38.9865 44.8052 39.0328 44.9521 38.8896C45.3611 38.5385 45.7168 38.0671 46.0906 37.6814C44.6973 37.7167 43.3041 37.6946 41.9092 37.6909ZM59.5786 47.933C59.5675 45.0222 59.5786 42.0429 59.572 39.1305L55.7886 41.3807L52.2899 39.1699L52.2719 41.407L54.5829 42.9208C55.8292 42.0962 57.0612 41.2491 58.3285 40.4544C58.326 43.3532 58.3281 46.2525 58.3269 49.1526C59.6208 49.1243 60.9246 49.2047 62.2138 49.1145C62.649 48.7531 63.3946 47.9391 63.3946 47.9391L59.5786 47.933ZM21.8748 47.9087C21.8821 43.6179 21.8785 39.2277 21.8772 34.9368C20.347 34.9463 18.82 34.9368 17.2893 34.941L17.2844 31.1641L16.0393 32.6546C16.0393 32.6546 16.0446 35.1296 16.0426 36.2562C17.5683 36.2542 19.0932 36.2546 20.6173 36.2554C20.6128 40.5524 20.628 44.8486 20.61 49.1465C21.9876 49.1596 23.3652 49.1469 24.7417 49.1543C25.165 48.7526 25.5786 48.3407 25.9962 47.935C24.6235 47.9247 23.2475 47.9666 21.8748 47.9087ZM34.0754 46.5122C32.2658 45.2593 30.994 43.2971 30.6153 41.1645C30.182 38.856 30.8052 36.3986 32.2719 34.5397C31.229 35.3278 30.4561 36.4269 29.917 37.5928C29.037 39.5629 28.9825 41.8669 29.7582 43.878C30.5837 46.0228 32.34 47.814 34.5172 48.685C35.9786 49.3114 37.611 49.4242 39.1814 49.2375C41.2508 48.9323 43.2134 47.8681 44.5135 46.2603C43.2877 47.2105 41.7972 47.8295 40.2411 48.0199C38.0906 48.2969 35.8305 47.7619 34.0754 46.5122ZM29.2487 36.2615C28.166 36.2427 27.0834 36.2718 26.0003 36.2435L25.9982 34.9405C27.4998 34.9418 29.0001 34.9381 30.5017 34.9426C30.0852 35.352 29.6782 35.8652 29.2487 36.2615Z" fill="#AB3331"/>
<path fill-rule="evenodd" clip-rule="evenodd" d="M55.7883 36.8881L48.3495 31.058L48.3397 47.8895L52.2519 47.9375L52.29 39.17L55.7883 41.3804L59.5721 39.1306C59.5721 39.1306 59.5405 48.0586 59.5783 47.9331L63.3941 47.9392L63.4197 30.9353L55.7883 36.8881ZM45.4806 33.8978C44.9698 33.3804 44.4246 32.8898 43.8039 32.5045C42.4767 31.6434 40.9017 31.1905 39.3165 31.154C38.3651 31.1322 37.4105 31.2602 36.5029 31.5396C34.8266 32.0418 33.3506 33.0916 32.2662 34.4364C30.8008 36.3101 30.1772 38.7868 30.6105 41.1134C30.9887 43.2619 32.2597 45.2389 34.0685 46.5021C35.8224 47.7612 38.0816 48.2994 40.2314 48.0209C41.7866 47.8289 43.2767 47.2053 44.5017 46.2477C44.9567 45.8842 45.3661 45.4723 45.753 45.042L42.8061 42.2744C41.9352 43.3657 40.5829 44.1554 39.1393 44.0812C36.8878 44.203 34.7959 42.3417 34.569 40.1595C34.4291 39.1174 34.6888 38.0307 35.2845 37.1577C36.2416 35.7341 38.0505 34.8926 39.7764 35.1798C40.9206 35.3251 41.9561 35.9561 42.6826 36.8237L41.9089 37.691C43.3029 37.6947 44.6978 37.7173 46.0902 37.6815C46.3184 37.5622 46.4 37.2996 46.384 37.0601C46.3819 35.6984 46.3881 34.3355 46.3795 32.9734L45.4806 33.8978ZM30.5013 34.9431L25.9979 34.9406L25.9934 47.9351L21.8745 47.9084L21.8769 34.9365L17.289 34.9414L17.2841 31.1638L30.5095 31.1622L30.5013 34.9431Z" fill="#EBEBCA"/>
</svg>
