<svg width="80" height="80" viewBox="0 0 80 80" fill="none" xmlns="http://www.w3.org/2000/svg">
<path fill-rule="evenodd" clip-rule="evenodd" d="M71.9275 43.1088C71.8892 42.7329 71.7821 42.0561 71.6986 41.6052C71.6515 41.3481 71.5852 41.0015 71.5208 40.6669C71.471 40.4045 71.4221 40.1496 71.3852 39.9512C71.0715 38.2148 70.2768 35.7262 69.4519 33.8996C64.6839 23.3447 52.863 14.9176 40.8287 13.4817C39.6673 13.3464 36.7102 13.2862 35.4113 13.3763C27.9381 13.8875 20.5949 17.0074 15.5828 21.796C11.4183 25.7804 9.04166 30.3661 8.18587 36.0795C7.95694 37.6434 7.93397 41.0863 8.14771 42.507C9.03428 48.3331 11.8232 52.8812 17.3247 57.5046C17.6993 57.813 18.1957 58.1965 18.4324 58.3543C18.6695 58.5121 18.9444 58.7223 19.0515 58.813C19.3268 59.0685 20.6408 59.9854 20.725 59.9854C20.7631 59.9854 20.8931 60.061 21.0154 60.1583C21.2829 60.369 21.9934 60.7899 22.6277 61.113C22.8874 61.249 23.1167 61.3841 23.1393 61.4139C23.1627 61.4516 23.8425 61.7974 24.6523 62.1881C25.8827 62.7823 26.5551 63.0827 27.9533 63.6694C28.0373 63.7072 28.3737 63.8272 28.7024 63.9401C29.0306 64.0525 29.3137 64.1725 29.3362 64.2032C29.3596 64.2405 29.4585 64.2707 29.5656 64.2707C29.6726 64.2707 29.8486 64.3156 29.9631 64.3756C30.0776 64.4285 30.3147 64.5036 30.4903 64.5339C30.6737 64.5636 30.8341 64.6161 30.8649 64.6539C30.8874 64.6916 30.9945 64.7214 31.1093 64.7214C31.2238 64.7294 31.3994 64.7743 31.5065 64.8343C31.6136 64.8947 31.8047 64.9396 31.9266 64.9476C32.0566 64.9476 32.194 64.9774 32.2326 65.0072C32.3319 65.0903 33.2332 65.4059 33.3173 65.3912C33.3481 65.3832 33.4704 65.413 33.577 65.4587C33.6841 65.5032 33.9976 65.5787 34.265 65.6312C34.5321 65.6761 34.7844 65.7516 34.8304 65.7814C34.8685 65.8192 35.006 65.8494 35.1438 65.8494C35.2735 65.8494 35.518 65.9094 35.6784 65.977C35.8466 66.045 36.0989 66.1125 36.2437 66.1196C36.3889 66.1352 36.6642 66.1725 36.8554 66.2179C38.5362 66.5632 40.9354 66.7139 43.847 66.6539C46.4829 66.5939 48.3397 66.4205 50.5325 66.0374C50.819 65.9836 51.1828 65.9245 51.4348 65.8841C51.499 65.8734 51.5559 65.8641 51.6025 65.8565C52.0152 65.789 52.6799 65.6463 52.9013 65.5707C52.9626 65.549 53.1386 65.5263 53.2839 65.5112C53.4284 65.4961 53.7648 65.421 54.0248 65.3307C54.2844 65.2405 54.567 65.1725 54.651 65.1725C54.735 65.1725 54.827 65.1352 54.8497 65.0974C54.8733 65.0525 55.0106 65.0223 55.1479 65.0223C55.2853 65.0223 55.5679 64.9623 55.7746 64.8792C56.3626 64.6619 56.6604 64.5636 56.9359 64.4961C57.0733 64.4663 57.2261 64.4059 57.2795 64.361C57.3333 64.3232 57.5013 64.2632 57.6693 64.2405C57.8297 64.2103 58.1053 64.1201 58.2808 64.0454C58.3693 64.0054 58.5239 63.9405 58.6964 63.8685L58.6968 63.8681C58.851 63.8036 59.0195 63.733 59.167 63.6694L59.1692 63.6685C60.023 63.3161 60.1155 63.2779 61.1537 62.7672C61.6808 62.5116 62.1626 62.2561 62.2235 62.2036C62.2844 62.1432 62.4221 62.0605 62.5292 62.0152C62.7812 61.9028 62.9572 61.8045 63.4461 61.4663C64.195 60.9632 64.2484 60.9254 64.271 60.865C64.2866 60.8352 64.3324 60.8125 64.3626 60.8125C64.4012 60.8125 64.5617 60.6921 64.7221 60.5494C64.8826 60.4063 65.043 60.2863 65.0737 60.2863C65.1346 60.2863 65.4479 60.0156 66.1817 59.3241C66.4186 59.1134 66.6324 58.933 66.6706 58.933C66.7012 58.933 66.7315 58.8881 66.7315 58.8276C66.7315 58.7676 66.7852 58.7076 66.8466 58.6774C66.9075 58.6548 66.9608 58.5872 66.9608 58.5196C66.9608 58.4592 67.0066 58.4068 67.0528 58.4068C67.1292 58.4068 67.5341 58.0156 68.1377 57.3546C68.3821 57.0836 69.1079 56.0691 69.1923 55.8736C69.2457 55.7608 69.3297 55.6329 69.383 55.603C69.4368 55.5727 69.4821 55.4977 69.4821 55.4374C69.4821 55.3849 69.5132 55.3247 69.5435 55.3095C69.6199 55.2869 69.6812 55.1742 70.1928 54.1671C70.3919 53.7686 70.5523 53.4001 70.5523 53.3477C70.5523 53.2948 70.583 53.2197 70.6208 53.1747C70.6595 53.1369 70.7283 52.9717 70.7737 52.8061C70.827 52.6409 70.8959 52.4381 70.9341 52.3553C71.0492 52.0773 71.3163 51.1525 71.3163 51.0246C71.3163 50.957 71.3541 50.8742 71.3928 50.8517C71.4386 50.8291 71.4692 50.7238 71.4692 50.6262C71.4692 50.5286 71.4995 50.3704 71.5381 50.2729C71.8892 49.3706 72.1266 45.0182 71.9275 43.1088ZM56.447 50.19C55.6901 50.3404 54.9337 50.2502 54.0937 49.9121C52.7408 49.3554 51.8162 48.4536 50.7467 46.6569C50.5096 46.2585 50.2655 46.1679 50.334 46.5065C50.4485 47.0779 50.4562 47.619 50.3799 48.3708C50.1428 50.6786 49.2259 52.4154 47.7285 53.3775C46.2384 54.3322 44.5728 54.2346 42.9527 53.1069C42.1428 52.5429 41.0885 51.3177 40.6072 50.3777C40.5153 50.2051 40.3857 50.0621 40.3242 50.0621C40.1867 50.0621 40.1867 50.0998 40.4083 51.2652C40.5916 52.2572 40.5383 53.6705 40.2938 54.3096C39.9422 55.2118 39.415 55.7456 38.6433 55.971C38.2766 56.0764 38.2154 56.069 37.8257 55.9411C37.1225 55.7078 36.5494 55.3246 35.7244 54.5125C34.9679 53.7759 34.716 53.6329 34.716 53.9337C34.716 53.994 34.6089 54.3773 34.4788 54.7757C34.005 56.2416 33.333 57.2188 32.6606 57.4221C32.2553 57.5348 31.7588 57.4069 31.0557 57.0011C30.4903 56.6703 29.4971 55.8435 29.191 55.4447C28.878 55.0389 28.725 55.084 28.6027 55.6029C28.4579 56.2792 28.0222 57.4069 27.7469 57.8583C27.2505 58.6774 26.5018 59.1059 25.7986 58.9703C25.47 58.9103 24.8514 58.6174 24.5071 58.3543C24.1941 58.121 23.7281 57.4672 23.3535 56.7154C21.6878 53.4377 21.237 47.2582 22.4214 43.9806C22.9104 42.6122 23.6518 41.6875 24.5838 41.2591C25.5467 40.8156 26.0813 40.8759 27.6862 41.6125C28.1748 41.8379 28.6487 42.0183 28.7406 42.0183C28.8477 42.0183 29.1147 41.7781 29.5578 41.2817C30.3758 40.3721 30.8189 40.0187 31.3461 39.8683C32.645 39.485 34.6774 40.4098 36.0452 41.9958C36.7176 42.7774 37.6956 44.2663 38.3299 45.4763C38.6889 46.1605 38.9564 46.5741 39.0331 46.5966C39.1553 46.6192 39.1627 46.5815 39.1172 46.3335C39.0101 45.6719 38.9793 44.0482 39.0635 43.2587C39.1857 42.1236 39.3309 41.5674 39.7207 40.7705C40.1486 39.8986 40.7217 39.2895 41.4019 38.9886C42.2577 38.6131 43.1209 38.5455 44.0534 38.7783C46.1469 39.3047 47.8815 40.7857 49.1192 43.0857C49.4401 43.6797 49.5927 43.8978 49.6998 43.8978C49.8298 43.8978 49.8376 43.8526 49.799 43.4616C49.7305 42.8226 49.8909 41.3042 50.1125 40.5524C50.5252 39.1468 51.4343 38.1241 52.5195 37.8388C53.039 37.6957 53.9484 37.7109 54.5901 37.8761C55.3999 38.0794 56.4239 38.5377 57.2186 39.0415C58.0439 39.5678 59.2053 40.6951 59.7399 41.4846C60.1835 42.1462 60.6497 43.191 60.8252 43.8904C61.4746 46.5515 59.3581 49.6038 56.447 50.19ZM26.3946 27.6526C23.9724 28.2917 21.7714 29.8629 21.3131 31.291C21.0686 32.0506 21.3972 32.6516 22.276 33.0352C22.6735 33.2156 22.8951 33.2533 23.5445 33.2832C24.2321 33.3132 24.3314 33.3357 24.2933 33.4411C24.2836 33.4839 24.2064 33.69 24.1024 33.9673C24.0424 34.1274 23.9734 34.3112 23.9035 34.5011C23.3993 35.8317 23.2311 36.5761 23.2237 37.4705C23.2159 38.1096 23.2463 38.2826 23.3993 38.6134C23.4986 38.8315 23.6898 39.0942 23.8346 39.1995C24.5837 39.7558 25.9511 40.0489 27.1663 39.9136C30.1082 39.5755 32.5759 38.0796 32.8434 36.4707C32.8742 36.2903 32.9353 36.1551 32.9964 36.1551C33.0497 36.1551 33.218 36.3051 33.3706 36.4855C33.9056 37.1323 35.0822 37.869 36.0069 38.1395C36.5878 38.3051 37.558 38.2973 38.1693 38.1096C39.8961 37.5832 41.0575 35.9219 41.4781 33.3357C41.5392 32.9676 41.5925 32.4786 41.5925 32.2609C41.5925 31.6067 41.7759 31.7571 42.0512 32.6368C42.5246 34.1477 43.3652 35.6439 44.1139 36.3355C44.5956 36.779 45.4362 37.1774 46.1542 37.2975C46.6202 37.3725 46.7884 37.3651 47.293 37.2602C49.6614 36.7564 51.396 34.5913 52.1599 31.1935C52.5728 29.3816 52.6035 28.1638 52.29 26.4798C51.8773 24.2171 50.6698 21.8789 49.4858 21.0218C48.9661 20.6537 48.0643 20.2401 47.5601 20.1426C46.4906 19.947 45.5125 20.1877 44.5496 20.8792C42.9451 22.0519 41.6844 24.9763 41.4703 28.0207C41.4018 29.0057 41.2869 29.0131 40.9431 28.0658C40.4159 26.6077 39.4834 25.1189 38.6887 24.4651C38.2456 24.0966 37.405 23.6908 36.9086 23.5932C35.6939 23.3673 33.9975 24.2245 32.9505 25.6076C32.2247 26.5701 31.7969 27.5473 31.4223 29.0881C31.2159 29.9453 31.1704 31.6444 31.3382 32.3212C31.5216 33.0504 31.8046 33.8698 32.0795 34.4634C32.2247 34.7868 32.347 35.0951 32.347 35.1475C32.347 35.3053 32.1099 35.2754 31.6516 35.0725C31.1548 34.8467 29.7489 34.5536 29.4813 34.6216C29.1987 34.6892 29.2294 34.5011 29.6266 33.6665C30.3831 32.0654 30.8036 30.3138 30.6584 29.4042C30.5131 28.4569 30.0926 27.9158 29.2906 27.6075C28.763 27.412 27.2352 27.4272 26.3946 27.6526Z" fill="#800080"/>
</svg>
