<svg width="80" height="80" viewBox="0 0 80 80" fill="none" xmlns="http://www.w3.org/2000/svg">
<path fill-rule="evenodd" clip-rule="evenodd" d="M16.1401 29.9226C22.7013 24.2573 31.3457 21.2035 40.0073 21.2505C40.9039 21.2556 41.8011 21.296 42.6954 21.3679C54.4586 22.0587 65.5324 28.9412 71.7577 38.8126C72.5856 40.8165 71.134 42.46 69.7834 43.9888C69.3368 44.4945 68.9012 44.9876 68.5627 45.4771C61.5833 53.7551 50.9083 58.9798 39.9764 58.7423C39.307 58.7442 38.6374 58.7392 37.9685 58.7033C27.7746 58.2767 17.965 53.3548 11.4449 45.5706C11.1055 45.0956 10.6885 44.6241 10.2634 44.1433C8.99071 42.7041 7.64454 41.1817 8.08548 39.2346C10.0334 35.6007 13.1145 32.6849 16.1401 29.9226ZM53.4452 28.3206C49.5798 25.1024 44.5239 23.4679 39.5154 23.5629C35.6199 23.6367 31.7529 24.7585 28.5075 27.0004C24.2649 29.8839 20.5131 34.3457 20.0779 39.6094C19.9794 44.5817 23.2833 48.928 26.9372 52.0157C31.3542 55.5673 37.2017 57.2679 42.8436 56.4767C50.5633 55.5473 57.7846 49.9266 59.8986 42.3909C61.1568 36.9161 57.5152 31.6486 53.4452 28.3206Z" fill="#FFBB00"/>
<path fill-rule="evenodd" clip-rule="evenodd" d="M39.4845 25.4547C44.9186 25.2784 50.3855 28.3623 52.7974 33.2906C55.8264 38.9659 54.5211 46.6017 49.6017 50.8295C46.6717 53.5894 42.4542 54.9066 38.4534 54.47C31.4504 53.8235 25.6433 47.4403 25.6016 40.4624C25.2493 33.8594 30.0057 27.4283 36.4923 25.9002C37.4774 25.6351 38.4782 25.4873 39.4845 25.4547Z" fill="#00821B"/>
</svg>
