<svg width="80" height="80" viewBox="0 0 80 80" fill="none" xmlns="http://www.w3.org/2000/svg">
<path fill-rule="evenodd" clip-rule="evenodd" d="M17.2254 50.6716C15.6914 47.3952 14.832 43.7415 14.832 39.8781C14.832 25.8959 26.0975 14.5615 39.994 14.5611C53.8884 14.5611 65.156 25.8955 65.156 39.8781C65.156 45.0737 63.5998 49.9005 60.9329 53.9233L59.0925 50.4999L57.653 49.2678L56.6429 46.1632L52.7574 38.2354L48.5802 36.3624C48.5802 36.3624 46.8776 33.4209 46.6397 33.0143C45.9008 30.8064 44.7743 27.4958 44.7743 27.4958L43.443 24.9275L40.7283 22.9709L39.1345 24.1609L36.6574 27.6972L35.5161 28.6484L33.0665 32.4784L31.3118 34.0833L27.6913 39.1824L26.7338 39.6268L17.2254 50.6716ZM59.122 54.2372L57.9118 51.7068L56.1506 49.9846L51.6476 39.8571L49.5192 39.1742L48.9851 39.8654L48.6011 39.9074L47.8622 37.7411L45.1788 33.2409L43.1948 27.2157L41.1308 25.1249C41.1308 25.1249 41.1997 31.0664 41.1956 31.2299C41.1919 31.3596 39.6017 35.9901 39.6017 35.9901L41.7593 37.4104L38.0203 47.5168L38.7525 47.986L36.8162 52.4483L39.324 55.1596H42.8629L42.3497 53.5254L47.996 55.6283H54.0845L52.5617 52.8425L51.7686 49.9801L55.074 54.2372H59.122ZM21.5735 49.4311L25.5254 42.9912L27.4536 40.7578L27.6911 40.7536L25.6842 44.5207L24.8768 45.0277L21.8844 49.3558L21.5735 49.4311ZM23.3347 60.7611C25.2104 60.2334 27.3388 58.9639 27.3388 56.714C27.3388 54.1201 24.6156 52.8798 21.3734 52.8798C17.9116 52.8798 14.7359 54.4257 13.5568 56.8186C13.2462 57.4554 13.0751 58.147 13.0751 58.8844C13.0751 59.5504 13.2315 60.1498 13.5568 60.6359C14.0577 61.3814 14.9467 61.8513 16.2612 61.8513C17.8636 61.8513 19.1428 60.9625 19.1428 59.4166C19.1428 59.4166 19.1678 58.9849 18.669 58.9849C18.2579 58.9849 18.1516 59.2654 18.1639 59.4166C18.2185 60.6313 17.5112 61.5953 16.2361 61.5953C14.813 61.5953 14.214 60.3718 14.214 59.0644C14.214 56.391 16.2152 54.6185 18.2956 53.8602C19.3639 53.4664 20.2234 53.3243 21.3397 53.3243C23.6933 53.3243 25.6215 54.2371 25.6215 56.6761C25.6215 58.7163 23.921 60.4555 21.882 60.598L21.9571 60.3171C22.3809 58.8213 22.8859 57.1832 23.7184 55.9721C23.7664 55.8922 23.8521 55.7798 23.9501 55.6582L23.8353 55.5112C23.6851 55.5993 23.4201 55.7966 23.3138 55.8799C21.7026 57.1451 20.7354 59.355 19.7901 61.5148C18.4437 64.591 17.1418 67.5659 14.0868 67.5659C13.8989 67.5659 13.7238 67.5494 13.5568 67.52C12.4721 67.3446 11.9047 66.6107 11.9088 65.5883C11.9088 65.4822 11.9274 65.3558 11.9449 65.2369C11.9605 65.1307 11.9753 65.031 11.9753 64.9558C11.9753 64.6875 11.796 64.415 11.4079 64.415C10.9422 64.415 10.7548 64.7798 10.7466 65.3163C10.7191 66.8539 11.8358 67.7424 13.5568 67.8971C13.7447 67.9179 13.9408 67.9264 14.1434 67.9264C18.1975 67.9264 20.6932 64.8385 21.7446 61.0881C22.2328 61.0296 23.032 60.8702 23.3347 60.7611ZM66.9384 57.5602H67.372V58.7964H67.7101V57.5602H68.1443V57.2587H66.9384V57.5602ZM69.2211 58.2601L68.8621 57.2587H68.3571V58.7964L68.6952 58.7923V57.615L69.0829 58.7923H69.3373L69.7384 57.615H69.7464V58.7923H70.0803V57.2587H69.5715L69.2211 58.2601ZM58.0328 68.4086H58.9632L57.753 69.8582L59.1052 71.9488H58.2494L57.2689 70.4405L56.8386 70.9691V71.9488H56.1087V68.4086H56.8386V69.8704L58.0328 68.4086ZM52.6655 70.5579L53.4129 71.9488H52.5949L51.9106 70.6752H51.3177V71.9488H50.5875V68.4043H52.094C52.4361 68.4043 52.7118 68.5088 52.9206 68.7099C53.1286 68.911 53.2291 69.192 53.2291 69.544C53.2291 70.0342 53.0244 70.3861 52.6655 70.5579ZM52.006 69.0544C52.294 69.0544 52.4905 69.2304 52.4905 69.5446C52.4905 69.8507 52.294 70.0304 52.006 70.0304H51.3176V69.0544H52.006ZM47.4326 68.8614C47.7706 69.1926 47.9462 69.6283 47.9462 70.1776C47.9462 70.7264 47.7706 71.1707 47.4326 71.5056C47.0904 71.8325 46.6523 72 46.1181 72C45.584 72 45.1454 71.832 44.8032 71.5056C44.457 71.1707 44.29 70.7264 44.29 70.1776C44.29 69.6283 44.457 69.1926 44.8032 68.8614C45.1454 68.5222 45.584 68.359 46.1181 68.359C46.6523 68.359 47.0904 68.5222 47.4326 68.8614ZM46.9024 69.3211C47.103 69.5307 47.2027 69.8118 47.2027 70.1765C47.2027 70.5365 47.1026 70.8213 46.9024 71.0352C46.7018 71.2491 46.4433 71.3536 46.118 71.3536C45.7927 71.3536 45.5297 71.2491 45.3295 71.0352C45.1289 70.8213 45.0329 70.5365 45.0329 70.1765C45.0329 69.8112 45.1289 69.5307 45.3295 69.3211C45.5297 69.1078 45.7927 69.0075 46.118 69.0075C46.4433 69.0075 46.7018 69.1078 46.9024 69.3211ZM40.6867 70.7088L39.9356 68.4086H39.3366L38.5936 70.7088L37.8363 68.4086H37.0453L38.2765 71.9488H38.8923L39.641 69.7072L40.3885 71.9488H40.9998L42.2264 68.4086H41.4354L40.6867 70.7088ZM32.8683 69.0534H31.6896V68.4086H34.7694V69.0534H33.5944V71.9488H32.8683V69.0534ZM27.4995 70.4491H28.8222V69.8198H27.4995V69.0534H29.029V68.4086H26.7709V71.9488H29.0331V71.2992H27.4995V70.4491ZM21.5547 68.4086L23.103 70.6037V68.4086H23.8291V71.9488H23.2097L21.6655 69.7574V71.9488H20.9393V68.4086H21.5547ZM65.1016 59.6509H66.0323L65.8446 60.0785H64.9091C64.8974 60.106 64.8766 60.154 64.8483 60.2188L64.8424 60.2319L64.8387 60.2407L64.8376 60.2438L64.8371 60.244C64.7155 60.5238 64.4776 61.0718 64.2296 61.6326C63.8584 62.479 63.4696 63.3595 63.4531 63.3931C63.1817 64.0801 63.0025 64.5958 63.0025 64.9851C63.0025 65.375 63.195 65.5297 63.4904 65.5297C63.7374 65.5297 63.9875 65.4171 64.2296 65.2363C64.6179 64.9435 64.9971 64.4742 65.3395 63.9841L65.5896 64.223C65.2142 64.7553 64.7758 65.3329 64.2296 65.7142C63.8542 65.9744 63.4286 66.1462 62.9358 66.1462C62.2387 66.1462 61.7294 65.727 61.7294 64.8891C61.7294 64.6166 61.7929 64.2646 61.8963 63.9755C61.4499 64.5958 60.5988 65.4086 59.7681 65.4086C59.213 65.4086 58.9631 65.0566 58.9631 64.5995C58.9631 64.3403 59.0756 63.9419 59.213 63.6065C59.3622 63.2379 59.5877 62.767 59.8793 62.1574L59.8797 62.1569L59.8798 62.1563L59.8895 62.1361C59.9339 62.0438 59.9787 61.9515 60.023 61.8609L60.0236 61.8593C60.3107 61.2693 60.5738 60.7284 60.5738 60.5148C60.5738 60.3846 60.5069 60.2964 60.3736 60.2964C59.7681 60.2964 59.1133 61.189 58.454 62.6763L57.3061 65.3078H55.8584L56.3006 64.2939C55.7747 64.9222 55.2487 65.4294 54.5562 65.4294C53.9552 65.4294 53.8296 65.0187 53.8296 64.591C53.8296 64.4785 53.8633 64.2598 53.8924 64.1057H53.876C53.3127 64.8801 52.507 65.4294 51.9273 65.4294C51.3427 65.4294 51.0629 65.0689 51.0629 64.5499C51.0629 64.3147 51.1593 63.959 51.3176 63.5819C51.5347 63.0705 51.8268 62.455 52.0897 61.9014L52.315 61.4076C52.0938 61.5201 51.8773 61.558 51.7016 61.558C51.5096 61.558 51.3509 61.5201 51.2299 61.4577C51.1966 61.8764 51.0551 62.4294 50.7671 63.0785C50.1243 64.5201 49.0642 65.4379 47.7538 65.4379C46.6522 65.4379 46.2305 64.7883 46.1764 64.0262V63.8246C45.4584 64.7755 44.8242 65.4086 43.9963 65.4086C43.3555 65.4086 43.1278 65.0358 43.1278 64.6166C43.1278 64.3526 43.2299 64.0171 43.3366 63.7825L44.6154 61.0301C44.7241 60.787 44.7495 60.6358 44.7495 60.5518C44.7495 60.3969 44.6909 60.3215 44.5489 60.3215C44.0775 60.3215 43.4449 60.9629 42.8673 62.2662L41.5339 65.2998L40.0689 65.3078L41.9824 60.9543C42.064 60.7574 42.0997 60.6107 42.0997 60.5312C42.0997 60.3969 42.0221 60.3384 41.9093 60.3384C41.5295 60.3384 40.7553 61.0214 40.1838 62.3201L38.8796 65.3078H37.4524L37.8884 64.3062C37.2961 65.0358 36.8115 65.4086 36.2232 65.4086C35.6829 65.4086 35.4179 65.0145 35.4179 64.5451C35.4179 64.4571 35.4368 64.2939 35.4495 64.2139C35.0692 64.6918 34.3726 65.4086 33.6193 65.4086C32.9014 65.4086 32.5424 64.9729 32.5551 64.2854C32.5633 63.4561 33.0351 62.4502 33.7404 61.4865C33.4401 61.6705 33.1061 61.8177 32.8075 61.8177C32.4321 61.8177 32.286 61.6332 32.286 61.3569C32.286 61.1948 32.3653 61.0235 32.4267 60.8909C32.4654 60.8072 32.4969 60.7391 32.4969 60.6984C32.4969 60.6565 32.4739 60.6358 32.4321 60.6358C32.2901 60.6358 31.7749 61.1639 31.3306 62.1819L29.9616 65.3078H28.5634L29.0077 64.2897C28.4612 64.9771 27.7749 65.4086 27.2657 65.4086C26.6836 65.4086 26.4957 65.0609 26.4957 64.5787C26.4957 64.5318 26.5183 64.4097 26.5317 64.3371L26.5318 64.3366L26.5319 64.3361C26.5352 64.3185 26.5379 64.3035 26.5396 64.2939C26.1577 64.7675 25.5214 65.4086 24.7263 65.4086C24.0084 65.4086 23.6539 64.9723 23.6621 64.2854C23.6769 63.4219 24.184 62.3665 24.9326 61.3649C25.6235 60.4513 26.9068 59.555 28.2233 59.555C29.1164 59.555 29.8217 59.7099 29.7088 59.9615L28.2483 63.3046C28.115 63.5979 27.8811 64.1473 27.8811 64.3691C27.8811 64.5163 27.9459 64.5745 28.0563 64.5745C28.5343 64.5745 29.3983 63.3382 29.9283 62.1569L31.0298 59.6468H32.3086L31.9189 60.5728C32.3796 60.0493 32.9953 59.5422 33.5213 59.5422C33.7904 59.5422 33.8967 59.6761 33.8967 59.873C33.8967 60.1317 33.7256 60.4404 33.5864 60.6915C33.491 60.8637 33.4105 61.0088 33.4105 61.0923C33.4105 61.147 33.4524 61.1973 33.5418 61.1973C33.7256 61.1973 34.0866 60.9921 34.5687 60.5897C35.2616 60.0159 36.2003 59.555 37.1164 59.555C38.0095 59.555 38.7081 59.7099 38.6019 59.9615L37.1414 63.3046L37.1127 63.3718C37.0022 63.6294 36.7951 64.1121 36.7951 64.319C36.7951 64.4651 36.8595 64.5201 36.9703 64.5201C37.4524 64.5201 38.2909 63.3382 38.8209 62.1569L39.9229 59.6509H41.2439L40.8554 60.5897C41.44 59.9068 42.0763 59.5422 42.6962 59.5422C43.1967 59.5422 43.426 59.7939 43.426 60.2668C43.426 60.3883 43.4174 60.4974 43.401 60.5856C43.9795 59.9278 44.7241 59.5422 45.4002 59.5422C45.8839 59.5422 46.1846 59.8519 46.1846 60.2837C46.1846 60.6601 46.027 61.0367 45.7984 61.5825L45.7423 61.7169L44.8074 63.7318L44.7999 63.7489C44.7445 63.8742 44.6154 64.1665 44.6154 64.3147C44.6154 64.4614 44.6822 64.5201 44.7909 64.5201C45.2082 64.5201 45.7464 63.8577 46.2597 63.0198C46.4853 62.303 46.7397 61.679 47.111 61.1046C47.666 60.2458 48.5177 59.534 49.707 59.534C50.5751 59.534 51.1507 60.0283 51.2344 60.9543C51.3008 61.0589 51.426 61.168 51.7016 61.168C52.2649 61.168 52.6321 60.6774 52.8364 60.2586L53.1203 59.6423H54.5685L53.3164 62.383L52.7117 63.7195C52.628 63.9163 52.5197 64.1761 52.5197 64.3227C52.5197 64.4694 52.5948 64.5281 52.7117 64.5281C53.2873 64.5281 54.1886 63.1329 54.5562 62.3115L55.7078 59.6423H57.1601L55.9667 62.383C55.9667 62.383 55.3115 63.9163 55.2656 64.0294C55.2155 64.1425 55.1818 64.2769 55.1818 64.3355C55.1818 64.4529 55.2319 64.5201 55.3451 64.5201C55.8998 64.5201 56.8011 63.0491 57.2397 62.1569L58.3326 59.6509H59.6807L59.3303 60.518C59.8727 59.9401 60.4651 59.5418 61.1248 59.5418C61.7086 59.5418 62.0009 59.9022 62.0009 60.3796C62.0009 60.8458 61.5454 61.7729 61.2481 62.3771L61.2331 62.4081C61.0288 62.8273 60.7572 63.3974 60.5906 63.7953C60.4487 64.1217 60.415 64.2395 60.415 64.3521C60.415 64.4737 60.4905 64.5238 60.5988 64.5238C61.133 64.5238 62.0761 63.2379 62.6686 61.9345L63.4904 60.0785H62.8062L63.0025 59.6509H63.6739L64.2296 58.3814L64.5592 57.6272H65.9822L65.1016 59.6509ZM49.7316 60.0321C50.0032 60.0321 50.0992 60.2665 50.0906 60.5643C50.066 61.3356 49.3899 63.2251 48.5886 64.3521C48.2715 64.8086 47.9917 64.9387 47.7538 64.9387C47.4199 64.9387 47.3239 64.6619 47.3698 64.2561C47.4408 63.5473 48.0168 61.8966 48.8307 60.7653C49.1975 60.2455 49.4564 60.0321 49.7316 60.0321ZM36.2484 62.0518H36.2443L37.1542 60.0113C36.4404 60.0113 35.7688 60.5266 35.2617 61.2219C34.529 62.2235 33.9489 63.4763 33.9366 64.1889C33.9407 64.4614 34.0806 64.5281 34.2874 64.5281C34.8547 64.5281 35.5641 63.615 36.2484 62.0518ZM28.2611 60.0113L27.3557 62.0518C26.6796 63.5937 25.9407 64.5281 25.3942 64.5281C25.1895 64.5281 25.0521 64.4614 25.0435 64.1889C25.0562 63.4763 25.6383 62.2235 26.3727 61.2219C26.8777 60.5266 27.5472 60.0113 28.2611 60.0113ZM30.3455 52.5495L30.7127 51.1873L30.9215 50.3285L33.3879 45.8448L33.6739 46.1343L32.9309 48.1288L32.3529 50.8191L30.7127 52.7126L30.3455 52.5495ZM33.9115 36.5889L32.6869 38.2523L32.0276 38.7342L29.4816 42.7273L29.7363 43.2007L26.9048 49.5528L27.1136 49.5491L28.8309 47.4665L30.3956 44.864L31.1825 44.4574L32.9474 41.0595L33.1521 38.9562L34.1392 36.5844L33.9115 36.5889ZM26.0492 14.0248L26.2912 15.7136L27.0654 14.1887L28.7408 14.4692L27.5306 13.2664L28.3216 11.7415L26.8086 12.5332L25.6131 11.2929L25.8904 13.0028L24.3569 13.7529L26.0492 14.0248ZM31.0047 13.5814L32.0479 12.232L33.6422 12.8272L32.6806 11.4147L33.7443 10.0616L32.1087 10.5559L31.1676 9.11457L31.1216 10.8409L29.4712 11.285L31.0863 11.8761L31.0047 13.5814ZM36.0459 12.3622L37.3189 11.2266L38.7815 12.1064L38.0927 10.5436L39.3825 9.40794L37.6861 9.5966L37.0244 8L36.6617 9.68846L34.9612 9.82686L36.4385 10.6985L36.0459 12.3622ZM67.9107 52.0757L69.6296 52.2273L68.3027 51.125L68.9704 49.5411L67.5182 50.4548L66.2408 49.3356L66.6499 50.9989L65.1976 51.8915L66.8878 52.0044L67.2883 53.6768L67.9107 52.0757ZM70.2141 43.9711L68.9576 45.1401L67.4845 44.2858L68.2024 45.8403L66.9416 46.9925L68.6285 46.7832L69.3331 48.3502L69.6461 46.6658L71.3576 46.4813L69.8504 45.6476L70.2141 43.9711ZM69.3752 41.3201L70.356 42.7326V41.0187L71.9997 40.5198L70.3725 39.9794L70.4227 38.2653L69.4003 39.6482L67.7976 39.0785L68.7864 40.4782L67.7597 41.8396L69.3752 41.3201ZM69.5459 32.63L68.7949 34.1846L67.1171 33.9205L68.34 35.1106L67.5843 36.6441L69.0781 35.8269L70.3011 37.0379L69.9843 35.3449L71.5075 34.5574L69.8093 34.3312L69.5459 32.63ZM65.5272 28.9587L66.9502 29.8974L66.483 31.5443L67.8013 30.4671L69.2291 31.4265L68.6067 29.8216L69.9677 28.7659L68.2483 28.8581L67.6765 27.2368L67.2259 28.9001L65.5272 28.9587ZM64.6136 25.0496L64.4718 26.7513L65.5651 25.448L67.1427 26.1222L66.2323 24.6641L67.3678 23.3657L65.6984 23.7801L64.8382 22.2967L64.6968 24.019L63.0441 24.3918L64.6136 25.0496ZM59.76 20.3531L61.4254 20.7049L61.5923 22.4102L62.4307 20.9228L64.1006 21.2914L62.9443 20.0301L63.8206 18.5468L62.2595 19.2594L61.1413 17.9648L61.3165 19.6742L59.76 20.3531ZM57.4858 17.0592L57.9695 18.7015L58.5205 17.0839L60.2275 17.1301L58.8544 16.1077L59.4386 14.486L58.0364 15.4791L56.6973 14.4192L57.1937 16.0702L55.7874 17.0254L57.4858 17.0592ZM52.9454 14.1894L53.7171 15.7143L53.955 14.0218L55.6494 13.7536L54.1138 13.0035L54.3932 11.2981L53.1952 12.5339L51.6806 11.7422L52.4736 13.2717L51.2675 14.4699L52.9454 14.1894ZM46.3602 12.8227L47.954 12.232L48.9977 13.5814L48.9185 11.8761L50.5333 11.2891L48.8808 10.8409L48.8389 9.11457L47.8958 10.56L46.2597 10.0657L47.3243 11.4147L46.3602 12.8227ZM41.225 12.1064L42.6875 11.2266L43.9605 12.3622L43.5684 10.6985L45.0412 9.82686L43.3406 9.68846L42.9817 8L42.3204 9.59248L40.6178 9.40794L41.9134 10.5436L41.225 12.1064ZM12.7162 53.6768L13.1166 52.0007L14.8089 51.8915L13.3607 50.9948L13.7718 49.3356L12.4848 50.4548L11.0325 49.5411L11.7021 51.1209L10.3815 52.2227L12.0922 52.0757L12.7162 53.6768ZM11.3788 46.7832L13.0625 46.9966L11.8063 45.8403L12.5202 44.2858L11.049 45.1401L9.7928 43.9711L10.1559 45.6476L8.64737 46.4813L10.3581 46.6658L10.6736 48.3502L11.3788 46.7832ZM9.65069 42.7364L10.6296 41.3201L12.2488 41.8441L11.222 40.4736L12.2049 39.0744L10.6066 39.6482L9.58218 38.2653L9.63633 39.9794L8.00024 40.5198L9.65069 41.0141V42.7364ZM9.70323 37.0379L10.9299 35.8269L12.422 36.6441L11.6646 35.1106L12.8913 33.9247L11.2117 34.1846L10.4647 32.63L10.1955 34.3312L8.49503 34.5574L10.0245 35.3491L9.70323 37.0379ZM10.7797 31.4265L12.2029 30.4671L13.5235 31.5443L13.0582 29.8974L14.479 28.9545L12.7785 28.9001L12.3259 27.2368L11.7586 28.8581L10.0412 28.7704L11.3996 29.8216L10.7797 31.4265ZM12.8684 26.1216L14.4438 25.4473L15.5391 26.7547L15.3931 25.049L16.9623 24.3912L15.3078 24.0184L15.1699 22.3007L14.3079 23.7794L12.6411 23.3688L13.7742 24.6634L12.8684 26.1216ZM17.5754 20.9228L18.4143 22.4061L18.5813 20.7049L20.2421 20.3531L18.6835 19.6784L18.8673 17.9648L17.7465 19.2635L16.1838 18.5468L17.0581 20.0301L15.8999 21.2914L17.5754 20.9228ZM19.779 17.1298L21.1522 16.1116L20.5659 14.4858L21.9678 15.483L23.3097 14.4231L22.8088 16.0741L24.2196 17.0252L22.5187 17.059L22.0367 18.7055L21.4882 17.0878L19.779 17.1298Z" fill="#0168A5"/>
</svg>
