<svg width="80" height="80" viewBox="0 0 80 80" fill="none" xmlns="http://www.w3.org/2000/svg">
<path d="M56.8953 34.2422C56.8953 35.4221 55.9416 36.3785 54.7626 36.3785C53.5833 36.3785 52.6279 35.4221 52.6279 34.2422C52.6279 33.0622 53.5833 32.1074 54.7626 32.1074C55.9416 32.1074 56.8953 33.0622 56.8953 34.2422Z" fill="#27BBC9"/>
<path d="M71.9551 37.7271L71.2586 38.5126L70.5556 37.7271H70.512V39.2015H70.7758V38.2888L71.2345 38.8294H71.2825L71.7361 38.2888V39.2015H72V37.7271H71.9551Z" fill="#27BBC9"/>
<path d="M69.0597 37.9764H69.4974V39.2016H69.7609V37.9764H70.2002V37.751H69.0597V37.9764Z" fill="#27BBC9"/>
<path d="M63.8315 45.9252C63.8315 44.7453 64.7887 43.7908 65.9662 43.7908C67.1451 43.7908 68.0991 44.7453 68.0991 45.9252C68.0991 47.1055 67.1451 48.0615 65.9662 48.0615C64.7887 48.0615 63.8315 47.1055 63.8315 45.9252Z" fill="#27BBC9"/>
<path d="M66.1969 37.1481C67.3665 37.3654 68.1402 38.4907 67.9231 39.6612C67.7075 40.8314 66.3145 41.7344 64.5258 41.0518C64.466 41.0296 64.4075 41.0071 64.3498 40.985C63.8824 40.8056 63.4759 40.6496 63.0349 40.8201C62.5492 41.0085 62.287 41.7153 62.287 42.1354V47.9437H57.9777V39.2119C57.9777 38.0222 58.9427 37.0564 60.133 37.0564C61.0948 37.0564 61.9105 37.6891 62.1872 38.5616C62.2124 38.5407 62.2527 38.5062 62.2986 38.4669C62.3939 38.3852 62.5134 38.2829 62.5699 38.2395C62.5716 38.2395 62.5716 38.2379 62.5731 38.2379C63.7474 37.3318 64.7607 36.8793 66.1969 37.1481Z" fill="#27BBC9"/>
<path d="M56.9114 44.0172L56.9176 39.2132C56.9176 38.022 55.9527 37.0577 54.7624 37.0562C53.572 37.0562 52.6056 38.0204 52.6056 39.5869L52.6039 44.8301C52.6039 45.5415 52.1954 45.6414 52.0602 44.8703C51.6741 42.6664 49.0652 42.8997 48.3207 44.1666C47.5162 45.5318 48.3125 46.8245 49.5331 47.6116C50.2363 48.0641 51.3623 48.3492 52.4368 48.3492H52.5556C55.6312 48.3492 56.9114 46.6493 56.9114 44.0172Z" fill="#27BBC9"/>
<path fill-rule="evenodd" clip-rule="evenodd" d="M47.7335 46.7932L45.3704 43.216L47.0066 40.2429C47.6111 39.2155 47.27 37.8924 46.2439 37.287C45.2177 36.6817 43.8956 37.023 43.2892 38.05L41.3363 41.545V39.2155C41.3363 38.0227 40.3697 37.0553 39.1777 37.0553C37.9875 37.0553 37.0209 38.0227 37.0209 39.2155V47.9408H41.3363V44.525L43.6123 47.9393L47.0966 47.9377C47.5113 47.9377 47.8476 47.6014 47.8476 47.186C47.8476 47.0413 47.8044 46.9075 47.7335 46.7932ZM30.7738 40.1923C31.1583 40.1936 31.4862 40.4724 31.7419 40.9409C31.9286 41.295 32.0571 41.7233 32.112 42.2156H36.4324C36.3053 40.8617 35.7005 39.6335 34.7931 38.7273C33.7704 37.7018 32.3354 37.061 30.7738 37.061C29.2116 37.061 27.777 37.7018 26.7539 38.7273C25.7293 39.7512 25.0875 41.187 25.0893 42.7504C25.0875 44.3149 25.7293 45.751 26.7539 46.7731C27.5423 47.5603 28.9127 48.441 30.7738 48.4395C32.1729 48.441 33.468 47.9258 34.4572 47.0821C35.1794 46.4688 36.2492 45.239 36.4324 43.2848H32.112C32.0571 43.7774 31.9286 44.2072 31.7419 44.5595C31.4862 45.0299 31.1583 45.3084 30.7738 45.3084C30.3891 45.3084 30.0609 45.0299 29.8052 44.5595C29.5545 44.0848 29.4064 43.47 29.4049 42.7504C29.4064 42.0323 29.5545 41.4172 29.8052 40.9409C30.0609 40.4724 30.3891 40.1936 30.7738 40.1923ZM24.012 35.6575C24.4462 35.2229 24.7147 34.6223 24.7147 33.9591C24.7147 33.296 24.4462 32.6969 24.012 32.2624C23.5778 31.8275 22.9776 31.5603 22.3151 31.5603C21.654 31.5603 21.0538 31.8275 20.6196 32.2624C20.1854 32.6969 19.9166 33.296 19.9166 33.9591C19.9166 34.6223 20.1854 35.2229 20.6196 35.6575L21.1489 36.1887C22.0336 37.0726 22.0964 37.3075 21.2549 38.1496L20.774 38.6309C20.3784 39.0268 20.1356 39.5725 20.1356 40.1748V47.9405H24.496V40.1748C24.496 39.5725 24.2517 39.0268 23.8576 38.6309L23.3766 38.1496C22.5352 37.3075 22.5979 37.0726 23.4827 36.1872L24.012 35.6575ZM17.7042 38.722C18.7285 39.7443 19.3688 41.1801 19.3688 42.7447V47.9414H15.0532V42.8336C15.0516 42.2103 14.9035 41.679 14.6529 41.2671C14.3988 40.8599 14.0687 40.62 13.6844 40.6184C13.3001 40.62 12.9701 40.8599 12.7159 41.2671C12.4653 41.679 12.3172 42.2103 12.3156 42.8336V47.9414H8V42.7447C8 41.1801 8.64 39.7443 9.66463 38.722C10.6877 37.6965 12.1208 37.0541 13.6844 37.0556C15.248 37.0541 16.6811 37.6965 17.7042 38.722Z" fill="#FD6821"/>
</svg>
