<svg width="80" height="80" viewBox="0 0 80 80" fill="none" xmlns="http://www.w3.org/2000/svg">
<path fill-rule="evenodd" clip-rule="evenodd" d="M61.3016 27.3411C56.9075 31.5181 56.5256 35.8229 56.5256 39.5498V39.8715C56.5256 42.6989 56.2707 43.5338 54.9336 44.7546L54.8696 44.8192C54.2331 45.4617 53.0867 45.8471 49.8392 45.8471V55.9355C53.9781 55.9355 58.2448 55.4859 61.7472 52.1443C66.1416 47.9678 66.5235 43.6626 66.5235 39.9356V39.614C66.5235 36.787 67.3515 35.4379 68.1152 34.6663C68.88 33.9596 71.0448 34.0883 72 34.0883V24C67.988 24.1283 64.1035 24.6421 61.3016 27.3411ZM25.5126 36.2087C26.0857 35.0521 26.4041 33.7667 26.4041 32.4176C26.4041 27.7911 22.7742 24.0642 18.1891 24H8V55.9997H19.9085C25.7674 55.8717 30.4796 51.1165 30.4796 45.2692C30.4796 41.5423 28.633 38.1361 25.5126 36.2087ZM35.3192 56H44.9992V24H35.3192V56Z" fill="#00B1EB"/>
</svg>
