<svg width="80" height="80" viewBox="0 0 80 80" fill="none" xmlns="http://www.w3.org/2000/svg">
<path fill-rule="evenodd" clip-rule="evenodd" d="M72 30.9033H8V45.5685C8 45.5685 17.1398 50.8107 32.0591 48.1224C46.9786 45.4341 51.2795 44.0901 60.6883 46.1061C70.0968 48.1224 72 49.0969 72 49.0969V30.9033Z" fill="#EE1C24"/>
<path fill-rule="evenodd" clip-rule="evenodd" d="M67.1016 33.4945H63.3932H63.392V40.6909H65.6096V38.5134H66.92C68.5733 38.5134 69.7426 37.6974 69.7426 35.9542C69.7426 34.9261 69.0571 33.4945 67.1016 33.4945ZM66.4673 36.7993H65.6096V35.3383H66.5978C67.1418 35.3383 67.6462 35.3786 67.6462 36.0331C67.6462 36.759 67.0413 36.7993 66.4673 36.7993ZM54.3236 37.0912C54.3223 34.8951 55.7847 33.3226 57.9714 33.3226C60.1579 33.3226 61.619 34.8951 61.619 37.0912C61.619 39.2888 60.1579 40.8601 57.9714 40.8601C55.7847 40.8601 54.3236 39.2875 54.3236 37.0912ZM56.5398 37.0911C56.5398 38.6947 57.4066 39.067 57.9712 39.067C58.5358 39.067 59.4029 38.6947 59.4029 37.0911C59.4029 35.4891 58.5358 35.1155 57.9712 35.1155C57.4066 35.1155 56.5398 35.4876 56.5398 37.0911ZM50.3425 33.4944H52.5603V40.6908H50.3425V37.8385H48.2659V40.6908H46.0482V33.4944H48.2659V35.9945H50.3425V33.4944ZM44.5239 38.3828C44.5239 40.2581 42.8005 40.8628 41.1984 40.8628C40.3828 40.8628 38.0546 40.571 38.0346 38.2726H40.2534V38.2713C40.2534 38.4529 40.2844 38.6142 40.3342 38.7445C40.4954 39.1772 40.9795 39.2687 41.3921 39.2687C41.7549 39.2687 42.3086 39.1478 42.3086 38.6142C42.3086 38.2419 41.9956 38.1411 40.7563 37.7875C40.7153 37.7759 40.6739 37.7642 40.6325 37.7526C39.5255 37.441 38.3167 37.1007 38.3167 35.7014C38.3167 34.0387 39.7374 33.3225 41.2185 33.3225C42.7804 33.3225 44.1608 33.9165 44.2211 35.6707H42.1245C42.1651 35.399 42.044 35.2176 41.8624 35.0965C41.681 34.9649 41.4295 34.9151 41.2078 34.9151C40.9057 34.9151 40.4122 34.9959 40.4122 35.399C40.4437 35.803 41.0872 35.9582 41.8557 36.1435C42.064 36.1937 42.2814 36.2462 42.4982 36.3064C43.5157 36.5885 44.5239 37.0617 44.5239 38.3828ZM34.2982 40.6906H36.5159V33.4944H34.2982V40.6906ZM29.3291 38.8465H32.5132V40.6908H27.1113V33.4944H29.3291V38.8465ZM21.6894 33.3225C19.5024 33.3225 18.0414 34.8951 18.0429 37.0927C18.0429 39.2887 19.504 40.8616 21.6906 40.8616C23.8776 40.8616 25.3384 39.2902 25.3384 37.0927C25.3384 34.8951 23.8761 33.3225 21.6894 33.3225ZM21.6894 39.0669C21.1248 39.0669 20.2593 38.6946 20.2578 37.091C20.2578 35.4875 21.1248 35.1154 21.6894 35.1154C22.254 35.1154 23.1208 35.489 23.1208 37.091C23.1208 38.6946 22.254 39.0669 21.6894 39.0669ZM10.3213 33.4943H14.0295C15.9853 33.4943 16.6708 34.926 16.6708 35.954C16.6708 37.6973 15.5015 38.5132 13.8494 38.5132H12.5389V40.6908H10.3213V33.4943ZM12.5388 36.7991H13.3952C13.9691 36.7991 14.5738 36.7587 14.5738 36.0329C14.5738 35.3784 14.07 35.338 13.5255 35.338H12.5375V36.7991H12.5388Z" fill="white"/>
</svg>
