<svg width="80" height="80" viewBox="0 0 80 80" fill="none" xmlns="http://www.w3.org/2000/svg">
<g clip-path="url(#clip0_656_3035)">
<path fill-rule="evenodd" clip-rule="evenodd" d="M0.00488281 80H79.8938V0H0.00488281V80Z" fill="white"/>
<path d="M62.2391 52.0084C68.2507 52.0084 71.3656 47.2818 72 43.251L67.3368 43.2573C67.1931 43.8368 66.2216 47.6171 62.5883 47.6171C62.5394 47.6171 61.9604 47.6171 61.899 47.6139C59.2285 47.5283 57.0428 45.2425 57.0428 40.734C57.0428 37.2738 58.7261 34.1651 61.9418 34.0857H62.5883C65.9118 34.0857 67.0793 37.6631 67.1507 37.8817L71.8035 37.8975C70.8991 33.4305 67.5029 29.7832 62.3585 29.7832C56.5892 29.7832 52.4873 34.6811 52.4873 40.8827C52.4873 47.9781 56.8467 52.0084 62.2391 52.0084Z" fill="black"/>
<path d="M33.4187 51.3895H28.6639V30.437H35.9261L39.7646 45.5416C40.0585 44.0855 43.5779 30.437 43.5779 30.437H50.8895V51.3895H46.1159V36.0154C46.0151 36.4651 41.9625 51.3895 41.9625 51.3895H37.5787L33.4187 35.9802V51.3895Z" fill="black"/>
<path fill-rule="evenodd" clip-rule="evenodd" d="M8.64669 42.6473C8.23913 43.477 8 44.4234 8 45.4491C8 48.995 10.7313 51.8829 15.2561 51.8829C18.0179 51.8829 20.1487 50.6854 21.1847 49.7805C21.1847 50.0035 21.2344 50.5489 21.2766 51.013C21.289 51.1484 21.3007 51.2769 21.3103 51.3885H26.203C26.1505 49.3474 26.1301 49.1366 26.1221 48.9253C26.117 48.7906 26.117 48.6557 26.117 48.0455V37.1257C26.117 34.9003 26.0773 32.9629 23.7108 31.4811C21.9509 30.4076 19.6272 30.1606 17.6993 30.1606C16.4177 30.1606 11.6538 30.1606 9.72585 33.748C9.10357 34.9161 9.01153 35.7679 8.92862 36.7652V36.7715L13.8548 36.7652C13.861 36.3059 13.9225 35.8341 14.3362 35.3118C14.8205 34.6534 15.8967 33.9949 17.9044 33.9949C21.8562 33.9949 21.2737 38.0915 21.2737 38.0915C21.2737 38.0915 19.2995 38.1167 15.0963 38.6521C13.1562 38.8991 10.0907 39.681 8.64669 42.6473ZM16.3408 47.6372C14.419 47.6372 13.0946 46.8143 13.0946 45.2022C13.0946 43.0242 15.0845 42.5334 16.8069 42.3085C18.9744 42.0331 21.3103 41.9506 21.3103 41.9506V43.3915C21.3103 44.012 21.3103 44.6263 21.0284 45.2437C20.5073 46.4812 18.7845 47.6372 16.3408 47.6372Z" fill="black"/>
</g>
<defs>
<clipPath id="clip0_656_3035">
<rect width="80" height="80" fill="white"/>
</clipPath>
</defs>
</svg>
