<svg width="80" height="80" viewBox="0 0 80 80" fill="none" xmlns="http://www.w3.org/2000/svg">
<g clip-path="url(#clip0_656_3414)">
<path d="M80 0H0V80H80V0Z" fill="#A01B21"/>
<path fill-rule="evenodd" clip-rule="evenodd" d="M44.1764 47.7308C42.5476 45.1852 42.8064 40.1048 44.7643 37.8234H41.2424L41.3072 45.3848C41.2424 47.5367 42.2186 47.9897 44.1764 47.7308ZM17.0156 44.4363C18.0265 44.2647 19.0354 44.0935 19.6693 43.5565V45.3794C19.9283 49.2895 13.9956 50.3951 13.672 47.0081C13.6316 45.0106 15.3263 44.723 17.0156 44.4363ZM48.8038 41.4746H56.1656C55.5777 36.4535 49.5858 36.5182 48.8038 41.4746ZM66.7903 27.3335H72V52.1641H65.2209V36.9119H59.4879C60.9872 38.6701 61.8339 41.2805 61.575 44.6028L48.8685 44.538C48.7391 49.6886 55.1247 49.6239 56.1009 46.8194H61.3809C59.8168 53.534 49.3917 54.6396 44.829 49.2302V51.8998C37.8554 52.2234 35.6388 51.8297 35.7036 46.814V38.8643C32.3813 38.5407 30.2941 40.8868 30.3588 43.2328V51.9646H20.1278L19.9337 50.2711C17.8464 52.094 16.9349 52.6171 14.0657 52.5524C11.1318 52.6818 7.87431 51.312 8.00374 47.1429C7.93902 43.3623 10.4793 41.5987 17.1292 41.2751C20.2572 41.0809 20.0631 39.0585 19.3458 38.2764C18.5637 37.365 14.9125 36.6477 14.0657 39.6463H8.72106C8.85048 34.5012 14.3247 33.7191 17.5228 33.7838C20.3866 33.7838 22.997 34.1775 24.7552 36.8472V34.4364H30.1V37.6993C31.0761 35.2238 32.8991 33.7892 35.7036 33.9834V28.9677H41.2424V34.3123H44.9584V37.6346C46.5224 35.418 49.2622 33.854 52.7139 33.9834C55.2541 33.9187 57.5354 34.7654 59.1642 36.4589V32.4841C62.6861 32.8077 66.6609 30.7852 66.7903 27.3335Z" fill="white"/>
</g>
<defs>
<clipPath id="clip0_656_3414">
<rect width="80" height="80" fill="white"/>
</clipPath>
</defs>
</svg>
