<svg width="80" height="80" viewBox="0 0 80 80" fill="none" xmlns="http://www.w3.org/2000/svg">
<mask id="mask0_656_2572" style="mask-type:luminance" maskUnits="userSpaceOnUse" x="8" y="25" width="49" height="30">
<path fill-rule="evenodd" clip-rule="evenodd" d="M8 25.7856H56.1352V54.2146H8V25.7856Z" fill="white"/>
</mask>
<g mask="url(#mask0_656_2572)">
<path fill-rule="evenodd" clip-rule="evenodd" d="M53.1389 45.7895C52.7335 46.2878 51.575 47.4329 51.0441 47.8568C46.7829 51.2601 40.5162 53.2707 33.3421 53.532C32.7861 53.5534 32.6892 53.5463 32.6497 53.5003C32.6174 53.4652 32.6068 53.352 32.6139 53.1506L32.6248 52.8573L33.1808 52.8322C37.3596 52.6522 41.2155 51.4757 44.2934 49.4469C46.4668 48.0123 48.0238 46.3302 49.0171 44.3445C49.7921 42.7894 50.1223 41.3159 50.065 39.6407C49.9752 36.9903 48.9063 34.686 46.7755 32.5413C44.8566 30.6083 42.5358 29.2265 39.5835 28.2616C37.625 27.6221 35.6845 27.2686 33.4497 27.1449C33.0372 27.1239 32.6748 27.0883 32.6535 27.0672C32.6032 27.0319 32.5852 26.4734 32.6319 26.4277C32.6463 26.4135 32.8219 26.4099 33.0192 26.4204C33.2166 26.431 33.6039 26.4488 33.8802 26.4595C36.5598 26.5656 39.6733 27.0566 42.1769 27.7705C44.9677 28.5656 47.5038 29.6892 49.5734 31.0464C52.1415 32.7355 53.8993 34.7323 54.7925 36.9832C55.9656 39.9376 55.3878 43.0048 53.1389 45.7895ZM28.1408 52.0056C25.1493 51.5107 22.4412 50.4859 20.1418 48.9771C19.2128 48.3658 18.7465 47.9841 18.3808 47.5389C16.8527 45.6765 15.9236 43.5561 15.6189 41.2272C15.5435 40.6726 15.5325 39.4215 15.5973 38.8633C15.8733 36.4496 16.8346 34.2482 18.4488 32.3254C18.8793 31.8134 19.9803 31.0144 21.2001 30.3254C23.9191 28.7917 27.1473 27.8906 30.7236 27.6646C31.2329 27.6328 33.6542 27.6752 34.1673 27.728C36.4523 27.9508 38.4392 28.3995 40.2831 29.1096C42.5571 29.9861 44.9139 31.4139 45.7282 32.4069C47.3711 34.4211 48.318 36.6936 48.5331 39.146C48.5905 39.7822 48.5583 40.86 48.4651 41.5031C48.2749 42.7894 47.9269 43.8883 47.3313 45.0827C46.9478 45.8568 46.5782 46.4539 46.0508 47.1429C45.599 47.7403 45.3048 48.03 44.7452 48.4471C40.4408 51.6522 34.1566 52.9988 28.1408 52.0056ZM31.5236 53.2354L31.513 53.5287L30.8849 53.5216C30.5408 53.5145 29.9917 53.497 29.6654 53.4757C23.0007 53.0551 17.0929 51.0478 13.0576 47.8215C12.5268 47.3974 11.4398 46.3234 11.0345 45.8251C9.74306 44.2276 8.9682 42.4714 8.78534 40.7221C8.72795 40.1814 8.76376 39.2272 8.85722 38.6865C9.01849 37.7641 9.24452 37.0891 9.70369 36.1773C10.9771 33.6295 13.4378 31.4243 16.9494 29.6752C20.0524 28.1273 23.6608 27.1132 27.6928 26.6573C28.7435 26.5372 29.7515 26.4701 31.3012 26.4135C31.3799 26.4099 31.4624 26.4242 31.4876 26.4488C31.5485 26.509 31.5452 27.0743 31.4876 27.0957C31.4624 27.1025 31.1112 27.1274 30.7056 27.1487C26.0499 27.3959 21.8495 28.8625 18.6891 31.343C18.1261 31.7849 16.921 32.9547 16.5299 33.4388C14.8725 35.499 14.062 37.6547 14.062 40.0117C14.062 42.602 15.0591 44.9626 17.068 47.1394C18.8506 49.069 21.451 50.6697 24.396 51.6557C26.4014 52.3271 28.7005 52.7441 30.8527 52.8256C31.2689 52.8429 31.4698 52.864 31.4947 52.8962C31.5163 52.9208 31.5307 53.0658 31.5236 53.2354ZM56.0872 38.8455C55.7467 36.2764 54.3118 33.9228 51.7901 31.792C48.1671 28.7353 42.654 26.6466 36.4629 25.9825C34.9491 25.8233 34.4506 25.7986 32.3557 25.788C31.24 25.7844 30.2574 25.7844 30.1677 25.7915C30.0778 25.7986 29.7228 25.8197 29.3784 25.8411C26.3475 26.0249 23.2054 26.6113 20.4864 27.4985C15.7227 29.0532 12.0425 31.4456 9.90458 34.3858C8.89303 35.7781 8.25811 37.3082 8.05366 38.8562C7.98179 39.4073 7.98179 40.5806 8.05366 41.132C8.22585 42.4359 8.67792 43.6658 9.42026 44.8707C10.9377 47.3268 13.768 49.6309 17.1825 51.1964C22.3442 53.5605 28.7724 54.5924 35.2253 54.0907C43.5436 53.4475 50.6063 50.3343 54.0787 45.786C54.502 45.2313 54.8427 44.6799 55.1692 44.0227C55.6103 43.1358 55.865 42.383 56.0334 41.4568C56.141 40.8458 56.1701 39.4853 56.0872 38.8455Z" fill="#8BA0B2"/>
</g>
<path fill-rule="evenodd" clip-rule="evenodd" d="M67.1315 36.4341C67.0526 37.0505 66.6281 39.5772 66.5859 39.6869C66.5674 39.7253 66.2488 40.0295 65.8735 40.3665L65.1941 40.9791H63.3355H61.477L61.2683 41.1947C61.034 41.4413 61.01 41.5124 60.9055 42.1443C60.829 42.6141 60.829 42.7548 60.8965 42.8125C60.9368 42.8473 61.3088 42.8608 62.9162 42.874L64.8922 42.8897L65.095 43.1206C65.575 43.6541 65.5989 43.7042 65.529 44.122C65.5018 44.2916 65.4708 44.4821 65.4599 44.542L65.4338 44.6556L64.9031 44.6807C64.6101 44.6941 62.997 44.7 61.3178 44.6959C58.9008 44.6904 58.2508 44.6769 58.1996 44.6459C58.11 44.5941 58.11 44.5113 58.1922 43.9394C58.2744 43.3672 58.595 41.4202 58.7506 40.5631L58.7947 40.3226L59.0622 40.0529C59.2119 39.9046 59.5234 39.6117 59.752 39.4037L60.1699 39.0223H62.0283H63.887L64.101 38.8028C64.2528 38.6489 64.3244 38.5507 64.3483 38.4541C64.416 38.2192 64.5369 37.3103 64.5369 37.0677C64.5369 36.8387 64.5352 36.827 64.416 36.6787L64.2898 36.5245L62.2846 36.5113C60.426 36.5016 60.2704 36.4996 60.1953 36.4437C60.1185 36.3937 59.6059 35.7966 59.5545 35.6966C59.527 35.6445 59.6059 34.9781 59.6606 34.8105C59.6791 34.7528 59.7099 34.6852 59.725 34.6621C59.752 34.6276 60.3199 34.6218 62.81 34.6314C65.6942 34.6411 65.8718 34.6428 65.9927 34.7007C66.1244 34.7584 66.3589 35.0263 66.8695 35.6905C67.1628 36.076 67.1715 36.1067 67.1315 36.4341ZM71.9601 38.4755C71.8059 37.2755 71.4674 36.2703 70.9215 35.3941C70.2587 34.333 69.1547 33.1985 68.2156 32.619C67.6441 32.2644 66.6702 31.8774 66.1241 31.7867C65.5568 31.6905 64.5679 31.6752 58.1996 31.6521C52.492 31.6328 51.7502 31.6366 51.7502 31.6772C51.7502 31.7042 51.9334 31.8832 52.157 32.0757C52.6166 32.4765 53.3434 33.2219 53.6768 33.6455C54.9127 35.2092 55.7331 36.9677 55.9838 38.591C56.0496 39.0243 56.0589 40.5072 55.9985 40.9636C55.8099 42.3503 55.257 43.7311 54.3652 45.0505C53.8618 45.7938 53.0322 46.7452 52.3404 47.3809C52.166 47.5368 52.0253 47.6851 52.0253 47.71C52.0253 47.7466 52.9646 47.7524 57.6189 47.7524C63.3504 47.7486 65.0806 47.7273 65.6975 47.6407C66.322 47.5559 67.0088 47.3326 67.6659 47.0012C69.2279 46.2116 70.5005 44.8925 71.2366 43.3075C71.6121 42.4948 71.8189 41.8111 71.9417 40.9636C72.0111 40.4879 72.0203 38.9646 71.9601 38.4755Z" fill="#003380"/>
<path fill-rule="evenodd" clip-rule="evenodd" d="M11.4327 39.4039L13.3626 39.3932L13.4022 39.0047C13.6282 36.9092 14.4996 34.9546 16.0204 33.1347C17.3263 31.5692 19.1879 30.1452 21.3436 29.0674C21.6305 28.9224 21.8781 28.7883 21.8926 28.7636C21.9356 28.7035 21.8352 28.336 21.7705 28.3253C21.742 28.3217 21.4157 28.4172 21.0388 28.5409C17.9574 29.5553 15.5292 30.8345 13.5061 32.5094C12.9573 32.9617 12.0138 33.9088 11.6084 34.4106C10.6581 35.5908 10.0445 36.7819 9.71815 38.0858C9.6285 38.4429 9.50659 39.1812 9.50659 39.3615C9.50659 39.4039 9.76488 39.411 11.4327 39.4039Z" fill="#003380"/>
<path fill-rule="evenodd" clip-rule="evenodd" d="M21.2359 50.8252C18.4488 49.4082 16.3754 47.6131 15.0017 45.4186C14.1121 44.0014 13.5203 42.3265 13.402 40.8951C13.3877 40.7504 13.3695 40.5383 13.3588 40.4253L13.3372 40.2239H11.4218H9.50635V40.4464C9.50635 41.3865 9.87232 42.7186 10.4247 43.7825C11.8919 46.6165 15.113 49.1608 19.342 50.8252C20.1062 51.1294 21.6125 51.638 21.7347 51.638C21.7885 51.638 21.817 51.603 21.8457 51.4897C21.9391 51.1611 21.9714 51.1964 21.2359 50.8252Z" fill="#003380"/>
<path fill-rule="evenodd" clip-rule="evenodd" d="M42.7332 29.0497C44.8317 30.092 46.6505 31.4421 47.9023 32.8874C48.6339 33.7321 49.1108 34.4282 49.5988 35.372C50.2444 36.6121 50.5853 37.7077 50.7322 39.0223L50.7753 39.3933L52.7087 39.404L54.6385 39.4111L54.6172 39.1741C54.4163 37.2163 53.5303 35.4177 51.9195 33.7143C50.0186 31.7003 47.3531 30.0534 44.0857 28.8696C43.3826 28.6151 42.4501 28.3147 42.3601 28.3147C42.3207 28.3147 42.2885 28.3642 42.2599 28.4701C42.1807 28.7848 42.1665 28.767 42.7332 29.0497Z" fill="#003380"/>
<path fill-rule="evenodd" clip-rule="evenodd" d="M54.5771 41.0541C54.6057 40.8598 54.6309 40.5947 54.6309 40.4603V40.2236H52.7119C51.5321 40.2236 50.793 40.2378 50.793 40.2554C50.793 40.4392 50.6996 41.2804 50.6458 41.6019C50.0036 45.3513 47.0981 48.7755 42.7329 50.9277C42.2593 51.161 42.22 51.1859 42.22 51.2776C42.22 51.4472 42.2918 51.6379 42.3526 51.6379C42.4424 51.6379 43.1742 51.4084 43.87 51.161C48.0669 49.6662 51.2845 47.447 53.085 44.8001C53.9137 43.5809 54.3833 42.4039 54.5771 41.0541Z" fill="#003380"/>
<path fill-rule="evenodd" clip-rule="evenodd" d="M22.4019 45.2419H21.3043C20.501 45.2419 20.1995 45.2313 20.167 45.1995C20.1099 45.1429 20.1099 44.6692 20.167 44.6126C20.1995 44.5809 20.5188 44.5702 21.3797 44.5702H22.549L22.6638 44.4536C22.7783 44.3406 22.7783 44.3338 22.7783 43.9945V43.6516H19.4965L18.9045 44.2347V45.6872L19.1483 45.9241L19.3921 46.1606H20.49C21.4407 46.1606 21.5984 46.1679 21.6451 46.2172C21.7167 46.2842 21.7277 46.7579 21.6593 46.8249C21.6271 46.8567 21.3007 46.8673 20.4146 46.8673L19.2095 46.8709L19.0589 47.0124L18.9045 47.1536V47.7865H22.3301L22.9221 47.2031V45.7507L22.6602 45.4964L22.4019 45.2419Z" fill="#003380"/>
<path fill-rule="evenodd" clip-rule="evenodd" d="M26.3224 45.5493C26.247 45.6305 26.2292 45.6305 25.5405 45.6305C25.0417 45.6305 24.8265 45.6199 24.7943 45.5881C24.7476 45.5424 24.7298 44.6375 24.7763 44.5951C24.7872 44.5809 25.1209 44.5705 25.5118 44.5705C26.2219 44.5705 26.2254 44.5705 26.3115 44.6588C26.394 44.7366 26.4014 44.7683 26.4014 45.104C26.4014 45.4291 26.394 45.4751 26.3224 45.5493ZM26.9932 43.6516H23.5674V47.7865H24.7511L24.7585 47.1396L24.7692 46.4963L25.8813 46.4859L26.9932 46.4788L27.6207 45.8604V44.27L26.9932 43.6516Z" fill="#003380"/>
<path fill-rule="evenodd" clip-rule="evenodd" d="M31.1004 46.5283L30.871 46.7612H29.6228L29.5006 46.6413L29.3787 46.5212V44.8389L29.6083 44.6058H30.8566L31.1004 44.846V46.5283ZM31.6563 43.6516H28.7761L28.1592 44.3162V47.1678L28.787 47.7865H31.6563L32.2841 47.1678V44.27L31.6563 43.6516Z" fill="#003380"/>
<path fill-rule="evenodd" clip-rule="evenodd" d="M35.7203 45.3019C35.6452 45.3796 35.627 45.3832 34.9563 45.3832C34.4721 45.3832 34.2567 45.3692 34.2283 45.3408C34.1816 45.2948 34.1674 44.6375 34.2105 44.5951C34.2212 44.5809 34.5474 44.5702 34.9276 44.5702C35.6197 44.5702 35.6234 44.5702 35.7097 44.6588C35.7886 44.733 35.7995 44.7754 35.7995 44.9801C35.7995 45.1782 35.785 45.2346 35.7203 45.3019ZM36.5168 46.1039C36.5168 46.0864 36.6315 45.9592 36.7677 45.8251L37.0188 45.581V44.2347L36.427 43.6516H32.9656V47.7862H34.1852L34.1923 47.0512L34.2032 46.3195L34.7267 46.3091C35.1179 46.302 35.2612 46.3124 35.2863 46.3442C35.3079 46.3691 35.4372 46.7013 35.5732 47.0794L35.8243 47.7685L36.4953 47.7791C37.1482 47.7862 37.1624 47.7862 37.1624 47.7156C37.1624 47.6732 37.0188 47.3019 36.8395 46.8922C36.6637 46.4788 36.5168 46.1253 36.5168 46.1039Z" fill="#003380"/>
<path fill-rule="evenodd" clip-rule="evenodd" d="M37.3418 43.6516V44.6764H37.9623C38.3963 44.6764 38.5972 44.6906 38.6261 44.7188C38.6583 44.7505 38.6692 45.1429 38.6692 46.2736V47.7862H39.8528L39.8597 46.2385L39.8708 44.6939L40.5273 44.6832L41.1799 44.6764V43.6516H37.3418Z" fill="#003380"/>
<path fill-rule="evenodd" clip-rule="evenodd" d="M44.9281 47.7862L45.4839 47.2384V45.7154L44.9964 45.2417H43.9023C43.0987 45.2417 42.7974 45.2311 42.7649 45.1993C42.74 45.1747 42.722 45.0543 42.722 44.906C42.722 44.7576 42.74 44.6375 42.7649 44.6126C42.7974 44.5809 43.1167 44.5702 43.9777 44.5702H45.147L45.2617 44.4536C45.3766 44.3406 45.3766 44.3335 45.3766 43.9942V43.6516H42.0585L41.5024 44.1992V45.6869L41.9905 46.1606H43.0881C44.0388 46.1606 44.1963 46.1677 44.2432 46.2169C44.3148 46.2842 44.3257 46.7577 44.2574 46.8249C44.225 46.8567 43.8952 46.8674 42.9914 46.8674H41.7683L41.5024 47.1358V47.7862H44.9281Z" fill="#003380"/>
<path fill-rule="evenodd" clip-rule="evenodd" d="M38.4165 37.2261C37.4372 38.884 36.4734 40.5632 35.4952 42.2199C35.3547 42.4571 35.2147 42.6928 35.0828 42.9345C36.2455 42.9315 37.4082 42.9401 38.5809 42.9371C39.1036 42.0093 39.6136 41.0671 40.1377 40.1409C40.6274 41.011 41.1201 41.8872 41.6127 42.7588C41.6297 42.7883 41.6901 42.9302 41.7228 42.9302H45.3044C44.1845 41.0168 43.0358 39.1004 41.909 37.1827C42.9228 35.4308 43.9625 33.6759 44.9777 31.9265C44.9848 31.9154 44.9947 31.8999 44.9921 31.8859H41.5139C41.0659 32.6778 40.629 33.4806 40.1765 34.2684C39.7411 33.4737 39.3101 32.6747 38.8676 31.8859H35.269C35.2619 31.8844 35.269 31.8958 35.2718 31.8958C36.3187 33.6746 37.3753 35.4432 38.4165 37.2261Z" fill="#003380"/>
<path fill-rule="evenodd" clip-rule="evenodd" d="M30.4705 39.506V35.4486C30.4705 35.2734 30.4692 35.1035 30.502 34.9701C30.5665 34.7075 30.7239 34.5097 30.9314 34.3804C31.0434 34.3116 31.1709 34.2638 31.3238 34.2527C31.6402 34.2288 31.8928 34.3791 32.06 34.5462C32.1458 34.6318 32.219 34.737 32.2661 34.8523C32.3176 34.9785 32.3379 35.1134 32.3379 35.2873V39.3445C32.3379 39.5228 32.3479 39.6955 32.3135 39.8303C32.219 40.2095 31.9068 40.4858 31.4813 40.5308C31.1524 40.5661 30.8974 40.4284 30.7326 40.2641C30.6051 40.1363 30.5076 39.9652 30.4776 39.7518C30.4662 39.6774 30.4705 39.5931 30.4705 39.506ZM25.9844 37.4913C26.0057 38.3535 26.1919 39.061 26.4755 39.6744C26.8979 40.59 27.5194 41.3155 28.3171 41.8646C29.1145 42.4119 30.0997 42.8109 31.4343 42.8109C32.2877 42.8109 33.028 42.5905 33.6407 42.308C33.9487 42.1666 34.2266 41.9979 34.4928 41.8125C34.8894 41.536 35.2448 41.2033 35.5381 40.8383C35.6385 40.7149 35.7314 40.5856 35.8231 40.4508C36.3646 39.6563 36.7539 38.6791 36.7539 37.361C36.7539 36.9384 36.7008 36.5369 36.6094 36.1716C36.4277 35.4545 36.1469 34.8396 35.7731 34.3271C35.2059 33.5451 34.5014 32.9188 33.5561 32.5006C33.2514 32.3659 32.9093 32.2438 32.5395 32.1638C32.1844 32.0866 31.7322 32.0193 31.3053 32.0388H31.2982C30.8616 32.0388 30.4575 32.0993 30.0926 32.1876C29.7274 32.276 29.3924 32.3982 29.093 32.5414C28.3298 32.9079 27.6984 33.3935 27.1999 34.0139C26.7016 34.6359 26.3077 35.3574 26.1073 36.2786C26.0288 36.6435 25.9742 37.0649 25.9844 37.4913Z" fill="#003380"/>
<path fill-rule="evenodd" clip-rule="evenodd" d="M19.1171 31.8788C19.1115 35.5611 19.1115 39.266 19.1186 42.947C19.1226 42.947 19.1226 42.9513 19.1285 42.9498H22.3003C22.3016 42.9485 22.3031 42.947 22.3031 42.9427C22.3031 41.744 22.297 40.5673 22.296 39.3683C23.3327 39.3615 24.3836 39.3683 25.4261 39.3656V36.3431C24.391 36.3418 23.3469 36.3489 22.3186 36.3403C22.3232 35.8742 22.31 35.3617 22.326 34.8985H26.1304C26.0618 33.8892 25.993 32.8797 25.9216 31.872C25.9201 31.8689 25.9186 31.8689 25.9145 31.8689H19.1199C19.1171 31.8689 19.1171 31.8745 19.1171 31.8788Z" fill="#003380"/>
</svg>
