<svg width="80" height="80" viewBox="0 0 80 80" fill="none" xmlns="http://www.w3.org/2000/svg">
<path d="M9.18307 42.3042L8 45.0774H13.464L14.6471 42.3042H9.18307Z" fill="#FF0930"/>
<path d="M37.6678 42.4431C36.1197 42.4431 34.9881 41.2821 34.9881 39.7393C34.9881 38.1965 36.1197 37.0528 37.6678 37.0528C39.2159 37.0528 40.3476 38.1973 40.3476 39.7393C40.3476 41.2813 39.2168 42.4431 37.6678 42.4431ZM37.6678 34.1763C34.4139 34.1763 31.8562 36.6025 31.8562 39.7393C31.8562 42.8762 34.4139 45.3205 37.6678 45.3205C40.9216 45.3205 43.4802 42.8754 43.4802 39.7393C43.4802 36.6033 40.9225 34.1763 37.6678 34.1763Z" fill="#09043E"/>
<path d="M24.8955 42.4779C23.3649 42.4779 22.234 41.3168 22.234 39.7393C22.234 38.1618 23.3649 37.0181 24.8955 37.0181C26.4445 37.0181 27.5927 38.1626 27.5927 39.7393C27.5927 41.316 26.4309 42.4779 24.8955 42.4779ZM25.6082 34.1763C24.0418 34.1763 22.9102 34.9043 22.3021 35.7703V34.4184H19.2058V48.4581H22.3733V43.9686C23.086 44.8007 24.3047 45.2684 25.6794 45.2684C28.5856 45.2684 30.7261 42.8233 30.7261 39.7567C30.7261 36.5851 28.4985 34.1763 25.6105 34.1763" fill="#09043E"/>
<path d="M68.3453 34.4185L65.9793 40.8144L63.6646 34.4185H59.9412L64.3955 45.0776H67.4576L71.9999 34.4185H68.3453Z" fill="#09043E"/>
<path d="M47.865 45.0776V40.1219C47.865 38.3362 48.9087 37.2824 51.0325 37.2824H51.5719V34.4185H51.2963C49.5731 34.4185 48.5468 34.9043 47.7986 36.048V34.4185H44.6982V45.0776H47.865Z" fill="#09043E"/>
<path d="M18.0577 42.1316V41.8887C18.0577 39.6534 16.6133 38.6651 14.0904 38.4048L11.8802 38.18C11.341 38.1279 11.1477 37.9718 11.1477 37.6768C11.1477 37.3613 11.3742 37.1917 11.8604 37.1917H15.9497L17.1328 34.4185H12.0022C9.58376 34.4185 8 35.7704 8 37.7635C8 39.7567 9.06191 40.8144 11.9499 41.1086L13.9858 41.3169C14.5251 41.3689 14.8213 41.5771 14.8213 42.0449V42.1316H18.0577Z" fill="#09043E"/>
<path d="M59.0361 45.0775V42.2182H57.7311C56.426 42.2182 55.8306 41.6283 55.8306 40.3458V37.2823H58.2316L59.4527 34.4183H55.8337V31.5417H52.6663V40.8316C52.6663 43.6214 54.2317 45.0775 57.4682 45.0775H59.0361Z" fill="#09043E"/>
</svg>
