<svg width="80" height="80" viewBox="0 0 80 80" fill="none" xmlns="http://www.w3.org/2000/svg">
<path fill-rule="evenodd" clip-rule="evenodd" d="M11.48 52.8377H12.7096V58.8998H11.48V52.8377ZM23.3645 52.8377V53.8204H21.5616V58.8998H20.332V53.8204H18.4469V52.8377H23.3645ZM48.4445 52.8377V53.8204H46.6414V58.8998H45.4122V53.8204H43.527V52.8377H48.4445ZM48.6907 52.8377H49.9196V58.8998H48.6907V52.8377ZM23.6105 58.0806C23.6105 58.5721 24.0204 58.8998 24.4299 58.8998H28.2001V57.8347H25.3315C25.0036 57.8347 24.8398 57.7526 24.8398 57.425V56.2782H27.7903V55.2137H24.8398V54.3128C24.8398 53.9849 25.0036 53.8207 25.3315 53.8207H28.036V52.838H24.4299C24.02 52.838 23.6105 53.1654 23.6105 53.6569V58.0806ZM67.2951 58.0806C67.2951 58.5721 67.7048 58.8998 68.1149 58.8998H71.5572V57.8347H69.0158C68.6878 57.8347 68.6063 57.7526 68.6063 57.425V52.838H67.2951V58.0806ZM33.2819 58.162C33.2819 57.9161 33.1996 57.097 33.1996 56.8517C33.1177 56.2782 32.7079 56.1143 32.5441 55.9508C32.9539 55.7049 33.1996 55.5408 33.3634 55.0493C33.5272 54.476 33.3634 54.0666 33.2815 53.8204C33.1174 53.083 32.4618 52.8377 31.8882 52.8377H28.4462V58.8998H29.7573V56.5237H31.2326C31.6425 56.5237 31.9704 56.6879 31.9704 57.097V58.3259C31.9704 58.5721 32.0523 58.7356 32.1342 58.8998H33.4457V58.6535C33.3634 58.5721 33.2819 58.5721 33.2819 58.162ZM31.479 55.4587H29.7573V53.8204H31.3968C31.9704 53.8204 32.2161 54.1484 32.2161 54.5578C32.2984 55.1314 31.7247 55.4587 31.479 55.4587ZM41.8878 52.8377C41.3956 52.8377 41.0683 53.083 40.9045 53.4924L39.0189 58.8998H40.2488L40.7406 57.6709H42.9531L43.3629 58.8998H44.6748L42.7896 53.4924C42.7075 53.1648 42.2975 52.8377 41.8878 52.8377ZM41.0677 56.6885L41.8874 54.3125L42.7072 56.6885H41.0677ZM53.1163 52.6736C52.3783 52.6736 51.6409 52.9195 51.067 53.4924C50.4934 54.0663 50.1655 54.9675 50.1655 55.9505C50.1655 56.8514 50.4934 57.7523 51.067 58.3256C51.6409 58.8991 52.3783 59.1453 53.1163 59.1453C53.9355 59.1453 54.6735 58.8991 55.165 58.3256C55.7385 57.7523 56.0665 56.8514 56.0665 55.9505C56.0665 54.9669 55.7385 54.0663 55.165 53.4924C54.6735 52.9195 53.9358 52.6736 53.1163 52.6736ZM54.2634 57.5891C53.9355 57.9165 53.5261 57.9979 53.1163 57.9979C52.7063 57.9979 52.2968 57.9161 52.0506 57.5891C51.6412 57.2611 51.395 56.6058 51.395 55.9508C51.395 55.2134 51.6412 54.5578 52.0506 54.2298C52.2968 53.9018 52.7063 53.8204 53.1163 53.8204C53.5261 53.8204 53.9355 53.9025 54.2634 54.2298C54.6735 54.5578 54.837 55.2134 54.837 55.9508C54.8373 56.6058 54.6735 57.2611 54.2634 57.5891ZM65.2458 53.4927C65.164 53.1648 64.7546 52.838 64.3449 52.838C63.8527 52.838 63.5254 53.0833 63.3606 53.4927L61.4755 58.9001H62.7053L63.1974 57.6712H65.4099L65.8197 58.9001H67.1306L65.2458 53.4927ZM63.5254 56.6058L64.3449 54.3125L65.164 56.6058H63.5254ZM14.677 53.1648C14.5128 53.0016 14.2671 52.8377 14.021 52.8377C13.5297 52.8377 13.2013 53.1648 13.2013 53.5745V58.8998H14.4309V54.6395L16.7259 58.4897C16.8078 58.735 17.0539 58.8991 17.3815 58.8991C17.7917 58.8991 18.2012 58.5715 18.2012 58.1617V52.8374H16.8901V57.0149L14.677 53.1648ZM35.3305 53.1648C35.2486 53.0016 34.9206 52.8377 34.6749 52.8377C34.2651 52.8377 33.8552 53.1648 33.8552 53.5745V58.8998H35.1667V54.6395L37.3794 58.4897C37.5432 58.735 37.7889 58.8991 38.035 58.8991C38.5267 58.8991 38.8547 58.5715 38.8547 58.1617V52.8374H37.6255V57.0149L35.3305 53.1648ZM57.7875 53.1648C57.7058 53.0016 57.4596 52.8377 57.1319 52.8377C56.7225 52.8377 56.3131 53.1648 56.3131 53.5745V58.8998H57.624V54.6395L59.8368 58.4897C60.001 58.735 60.2463 58.8991 60.4925 58.8991C60.9846 58.8991 61.3123 58.5715 61.3123 58.1617V52.8374H60.0827V57.0149L57.7875 53.1648Z" fill="#CC1417"/>
<path fill-rule="evenodd" clip-rule="evenodd" d="M29.5093 41.4506C29.5093 42.0246 29.0995 42.4333 28.5258 42.4333H23.8535C13.7723 42.4333 14.6739 29.5723 23.2799 29.5723H28.3613V25.968H23.0359C19.6681 25.968 17.1516 27.2346 15.4705 29.1055C13.7806 30.9863 12.9088 33.5079 12.9039 36.0445C12.899 38.5803 13.7605 41.0977 15.4936 42.9755C17.2182 44.8442 19.8418 46.1187 23.4458 46.1187H32.2156C32.7182 46.1187 33.1987 45.638 33.1987 45.1363V26.9504C33.1987 25.9638 33.714 25.2359 34.4798 25.0079C35.221 24.7873 36.0427 25.0876 36.5393 25.8045L36.5475 25.8165L36.5552 25.8288C37.8251 27.8761 40.9392 32.8725 43.7364 37.3579C45.1348 39.6004 46.4537 41.7149 47.4234 43.2688L48.5813 45.1251L48.9004 45.6365L48.984 45.7702L49.0047 45.8033C49.2605 46.1658 49.5433 46.1954 49.6899 46.1476C49.8264 46.1033 50.0828 45.9104 50.0828 45.3008V26.9507C50.0828 25.9452 50.6357 25.2278 51.4109 25.0065C52.1572 24.7933 53.0012 25.0776 53.5051 25.8049L53.5159 25.8203L53.5255 25.8363C54.7515 27.8787 57.8627 32.8704 60.671 37.3574C62.0742 39.5997 63.4011 41.714 64.3767 43.2677C64.8647 44.0446 65.2646 44.6813 65.5429 45.1238L65.8646 45.6351L65.9485 45.7688L65.9699 45.8028C66.2263 46.1662 66.5094 46.1958 66.656 46.148C66.7922 46.1038 67.0486 45.9109 67.0486 45.3012V21.1349H63.4408V35.2251C61.3826 31.7627 59.3336 28.2947 57.2942 24.8211C53.5239 18.3496 46.3933 20.9711 46.3933 26.5417V35.2251C46.3933 35.2251 44.2622 31.3744 40.4098 24.7392C36.64 18.2677 29.5093 20.9711 29.5093 26.5417V41.4506ZM68.1967 21.1349V45.3012C68.1967 46.2479 67.7564 46.9972 67.0114 47.2397C66.2784 47.4783 65.4997 47.1401 65.0196 46.4471L65.0123 46.4366L65.0056 46.4259L65.4914 46.1202C65.0056 46.4259 65.0056 46.4258 65.0053 46.4257L65.005 46.4251L65.0037 46.423L64.9983 46.4143L64.9767 46.3801L64.8927 46.2463L64.5711 45.7348C64.2927 45.2922 63.8926 44.6553 63.4046 43.8783C62.4286 42.3242 61.1017 40.2094 59.6979 37.9665C56.9 33.4963 53.7917 28.5096 52.5517 26.445C52.3182 26.119 51.98 26.0379 51.7262 26.1104C51.4971 26.1758 51.2309 26.4003 51.2309 26.9507V45.3008C51.2309 46.2477 50.7903 46.9969 50.0453 47.2393C49.3123 47.4779 48.5333 47.1398 48.0535 46.4465L48.0459 46.4353L48.0386 46.4237L48.5256 46.1198C48.0386 46.4237 48.0386 46.4238 48.0386 46.4237L48.038 46.423L48.0367 46.4208L48.0313 46.4121L48.01 46.378L47.9266 46.2442L47.6075 45.7328L46.4493 43.8764C45.4797 42.3225 44.1607 40.208 42.762 37.9654C39.9715 33.4904 36.8641 28.5047 35.588 26.4476C35.3479 26.1091 35.0266 26.043 34.8073 26.1083C34.6101 26.167 34.3468 26.3809 34.3468 26.9504V45.1363C34.3468 46.2726 33.3517 47.2667 32.2156 47.2667H23.4458C19.5504 47.2667 16.6109 45.8789 14.6499 43.7541C12.6973 41.6384 11.7505 38.831 11.7559 36.0422C11.7612 33.2541 12.7181 30.451 14.6166 28.3382C16.5238 26.2156 19.3552 24.8199 23.0359 24.8199H28.3613V21.1346H23.6897C2.78982 21.1346 2.954 50.9534 24.0177 50.9534H32.2142C35.7388 50.9534 38.0334 48.9055 38.0334 44.9733V37.4368C38.0334 37.4368 42.6233 45.0552 44.4267 48.0866C47.5411 53.1651 54.9996 52.1822 54.9996 45.7926V37.4368C54.9996 37.4368 59.5888 45.0552 61.3922 48.0866C64.4244 53.1651 71.8833 52.1822 71.8833 45.7926V21.1349H68.1967Z" fill="#CC1417"/>
<path d="M28.3612 29.5723V29.689H28.478V29.5723H28.3612ZM28.3612 25.9679H28.478V25.8512H28.3612V25.9679ZM36.5475 25.8164L36.6467 25.7549L36.6452 25.7524L36.6435 25.75L36.5475 25.8164ZM49.0046 45.8033L48.9054 45.8651L48.9073 45.8679L48.9092 45.8706L49.0046 45.8033ZM53.5159 25.8202L53.6157 25.7601L53.6138 25.7569L53.6116 25.7538L53.5159 25.8202ZM65.9698 45.8027L65.8712 45.8649L65.8728 45.8675L65.8744 45.8701L65.9698 45.8027ZM67.0485 21.1349H67.1653V21.0181H67.0485V21.1349ZM63.4408 21.1349V21.0181H63.324V21.1349H63.4408ZM63.4408 35.2251L63.3402 35.2848L63.5575 35.2251H63.4408ZM57.2941 24.821L57.1933 24.8798L57.1936 24.8801L57.2941 24.821ZM46.3932 35.2251L46.2911 35.2817L46.51 35.2251H46.3932ZM40.4098 24.7392L40.5109 24.6805L40.5106 24.6804L40.4098 24.7392ZM68.1966 21.1349V21.0181H68.0799V21.1349H68.1966ZM65.0123 46.4366L64.9133 46.4988L64.9149 46.5009L64.9162 46.5031L65.0123 46.4366ZM65.0056 46.4258L64.9432 46.327L64.8446 46.3892L64.9066 46.488L65.0056 46.4258ZM65.0053 46.4256L64.9066 46.488L64.907 46.4886L65.0053 46.4256ZM52.5516 26.4449L52.6518 26.3848L52.6493 26.3808L52.6468 26.3769L52.5516 26.4449ZM48.0458 46.4352L47.9466 46.497L47.9482 46.4994L47.9498 46.5017L48.0458 46.4352ZM48.0385 46.4236L47.9768 46.3246L47.8776 46.3864L47.9393 46.4855L48.0385 46.4236ZM48.5256 46.1197L48.5873 46.2188L48.5905 46.2169L48.5933 46.2148L48.5256 46.1197ZM48.5256 46.1197L48.5933 46.2148L48.4635 46.0207L48.5256 46.1197ZM48.0385 46.4236L48.1375 46.3619V46.3616L48.0385 46.4236ZM35.5879 26.4475L35.6871 26.3859L35.6852 26.3829L35.6832 26.3799L35.5879 26.4475ZM28.3612 24.8199V24.9366H28.478V24.8199H28.3612ZM28.3612 21.1345H28.478V21.0177H28.3612V21.1345ZM38.0333 37.4367L38.1333 37.3765L37.9166 37.4367H38.0333ZM44.4266 48.0865L44.3261 48.1462L44.3271 48.1475L44.4266 48.0865ZM54.9995 37.4367L55.0994 37.3765L54.8828 37.4367H54.9995ZM61.3921 48.0865L61.2916 48.1462L61.2919 48.1463L61.3921 48.0865ZM71.8833 21.1349H72V21.0181H71.8833V21.1349ZM28.5257 42.55C29.1638 42.55 29.626 42.0892 29.626 41.4505H29.3925C29.3925 41.9599 29.0351 42.3165 28.5257 42.3165V42.55ZM23.8535 42.55H28.5257V42.3165H23.8535V42.55ZM23.2798 29.4555C18.9053 29.4555 16.4839 32.73 16.4422 36.0013C16.4214 37.6369 16.9947 39.2758 18.2178 40.5061C19.4419 41.7373 21.3074 42.55 23.8535 42.55V42.3165C21.359 42.3165 19.5567 41.5216 18.3834 40.3414C17.2091 39.1603 16.6556 37.5839 16.6757 36.0043C16.716 32.845 19.0484 29.689 23.2798 29.689V29.4555ZM28.3612 29.4555H23.2798V29.689H28.3612V29.4555ZM28.2445 25.9679V29.5723H28.478V25.9679H28.2445ZM28.3612 25.8512H23.0359V26.0847H28.3612V25.8512ZM23.0359 25.8512C19.6362 25.8512 17.0877 27.1309 15.3836 29.0275L15.5573 29.1835C17.2154 27.3382 19.6999 26.0847 23.0359 26.0847V25.8512ZM15.3836 29.0275C13.6725 30.9318 12.792 33.482 12.7871 36.0441L13.0206 36.0446C13.0254 33.5337 13.8886 31.0407 15.5573 29.1835L15.3836 29.0275ZM12.7871 36.0441C12.7821 38.6058 13.6523 41.1527 15.4077 43.0546L15.5793 42.8962C13.8686 41.0426 13.0158 38.5548 13.0206 36.0446L12.7871 36.0441ZM15.4077 43.0546C17.1564 44.9494 19.8121 46.2354 23.4457 46.2354V46.0019C19.8713 46.0019 17.2799 44.7389 15.5793 42.8962L15.4077 43.0546ZM23.4457 46.2354H32.2155V46.0019H23.4457V46.2354ZM32.2155 46.2354C32.5036 46.2354 32.7778 46.0984 32.9781 45.8981C33.1785 45.6979 33.3154 45.4239 33.3154 45.1362H33.0819C33.0819 45.3503 32.9786 45.5675 32.813 45.733C32.6475 45.8985 32.43 46.0019 32.2155 46.0019V46.2354ZM33.3154 45.1362V26.9503H33.0819V45.1362H33.3154ZM33.3154 26.9503C33.3154 26.0056 33.8055 25.3304 34.513 25.1198L34.4464 24.896C33.6224 25.1413 33.0819 25.9218 33.0819 26.9503H33.3154ZM34.513 25.1198C35.2012 24.9149 35.9725 25.1914 36.4432 25.871L36.6352 25.738C36.1128 24.9838 35.2408 24.6595 34.4464 24.896L34.513 25.1198ZM36.4432 25.871L36.4515 25.8829L36.6435 25.75L36.6352 25.738L36.4432 25.871ZM36.4482 25.878L36.4559 25.8903L36.6544 25.7672L36.6467 25.7549L36.4482 25.878ZM36.4559 25.8903C37.7259 27.9377 40.8402 32.9343 43.6371 37.4196L43.8353 37.296C41.0381 32.8106 37.9241 27.8144 36.6544 25.7672L36.4559 25.8903ZM43.6371 37.4196C45.0355 39.6621 46.3547 41.7766 47.324 43.3305L47.5222 43.2069C46.5529 41.653 45.2337 39.5385 43.8353 37.296L43.6371 37.4196ZM47.324 43.3305L48.4823 45.1868L48.6805 45.0632L47.5222 43.2069L47.324 43.3305ZM48.4823 45.1868L48.8014 45.6982L48.9996 45.5746L48.6805 45.0632L48.4823 45.1868ZM48.8014 45.6982L48.8847 45.8319L49.0829 45.7084L48.9996 45.5746L48.8014 45.6982ZM48.8847 45.8319L48.9054 45.8651L49.1036 45.7415L49.0829 45.7084L48.8847 45.8319ZM48.9092 45.8706C49.1888 46.2671 49.5222 46.325 49.7261 46.2586L49.6539 46.0366C49.5642 46.0657 49.3317 46.0644 49.1001 45.736L48.9092 45.8706ZM49.7261 46.2586C49.9227 46.1947 50.1995 45.9467 50.1995 45.3008H49.966C49.966 45.8738 49.7299 46.0119 49.6539 46.0366L49.7261 46.2586ZM50.1995 45.3008V26.9507H49.966V45.3008H50.1995ZM50.1995 26.9507C50.1995 25.991 50.7237 25.3241 51.4427 25.1187L51.3787 24.8942C50.5478 25.1314 49.966 25.8991 49.966 26.9507H50.1995ZM51.4427 25.1187C52.1397 24.9198 52.9327 25.1836 53.409 25.8714L53.6011 25.7384C53.0699 24.9715 52.175 24.6668 51.3787 24.8942L51.4427 25.1187ZM53.409 25.8714L53.4198 25.8867L53.6116 25.7538L53.6011 25.7384L53.409 25.8714ZM53.4156 25.8803L53.4252 25.8964L53.6256 25.7762L53.6157 25.7601L53.4156 25.8803ZM53.4252 25.8964C54.6518 27.9398 57.7637 32.9327 60.572 37.4193L60.7699 37.2954C57.9612 32.808 54.8507 27.8173 53.6256 25.7762L53.4252 25.8964ZM60.572 37.4193C61.9752 39.6616 63.3021 41.776 64.2777 43.3297L64.4756 43.2056C63.4996 41.6518 62.1731 39.5376 60.7699 37.2954L60.572 37.4193ZM64.2777 43.3297C64.7657 44.1066 65.1659 44.7434 65.4439 45.1859L65.6418 45.0616C65.3635 44.6191 64.9633 43.9824 64.4756 43.2056L64.2777 43.3297ZM65.4439 45.1859L65.7656 45.6972L65.9631 45.5729L65.6418 45.0616L65.4439 45.1859ZM65.7656 45.6972L65.8495 45.8309L66.0474 45.7066L65.9631 45.5729L65.7656 45.6972ZM65.8495 45.8309L65.8712 45.8649L66.0687 45.7406L66.0474 45.7066L65.8495 45.8309ZM65.8744 45.8701C66.1546 46.2675 66.4883 46.3254 66.6922 46.259L66.62 46.0369C66.5303 46.0661 66.2975 46.0648 66.0652 45.7355L65.8744 45.8701ZM66.6922 46.259C66.8885 46.1951 67.1653 45.9472 67.1653 45.3011H66.9318C66.9318 45.8744 66.6957 46.0123 66.62 46.0369L66.6922 46.259ZM67.1653 45.3011V21.1349H66.9318V45.3011H67.1653ZM63.4408 21.2516H67.0485V21.0181H63.4408V21.2516ZM63.5575 35.2251V21.1349H63.324V35.2251H63.5575ZM57.1936 24.8801C59.233 28.3539 61.282 31.8221 63.3402 35.2848L63.541 35.1654C61.4828 31.7032 59.4341 28.2353 57.395 24.7619L57.1936 24.8801ZM46.51 26.5416C46.51 23.8098 48.2561 21.8091 50.4572 21.2791C52.6528 20.7504 55.3294 21.6808 57.1933 24.8798L57.395 24.7622C55.4885 21.4898 52.7148 20.4952 50.4024 21.0521C48.0958 21.6076 46.2765 23.7029 46.2765 26.5416H46.51ZM46.51 35.2251V26.5416H46.2765V35.2251H46.51ZM40.3089 24.7978C42.2348 28.115 43.7303 30.7361 44.7444 32.5279C45.2515 33.4237 45.6383 34.1123 45.8982 34.5768C46.028 34.809 46.1263 34.9853 46.1922 35.1034C46.2249 35.1626 46.2498 35.2071 46.2663 35.2369C46.2746 35.2518 46.2806 35.263 46.2847 35.2705C46.287 35.2742 46.2886 35.277 46.2895 35.2789C46.2902 35.2798 46.2905 35.2805 46.2908 35.281C46.2908 35.2812 46.2908 35.2816 46.2911 35.2817C46.2911 35.2816 46.2911 35.2817 46.2911 35.2817C46.2911 35.2817 46.2911 35.2817 46.3932 35.2251C46.4953 35.1686 46.4953 35.1685 46.4953 35.1685C46.4953 35.1684 46.495 35.1681 46.495 35.1678C46.4947 35.1674 46.4944 35.1667 46.4938 35.1657C46.4928 35.1638 46.4912 35.161 46.489 35.1573C46.4848 35.1498 46.4788 35.1385 46.4705 35.1236C46.454 35.0937 46.4292 35.0491 46.3961 34.9899C46.3302 34.8716 46.2319 34.6952 46.1018 34.4627C45.8419 33.9979 45.4551 33.309 44.9477 32.4128C43.9332 30.6204 42.4371 27.9985 40.5109 24.6805L40.3089 24.7978ZM29.626 26.5416C29.626 23.8095 31.3726 21.788 33.5742 21.2379C35.7695 20.6893 38.4457 21.5992 40.3089 24.7978L40.5106 24.6804C38.6041 21.4074 35.83 20.4335 33.5175 21.0114C31.2113 21.5877 29.3925 23.7032 29.3925 26.5416H29.626ZM29.626 41.4505V26.5416H29.3925V41.4505H29.626ZM68.0799 21.1349V45.3011H68.3134V21.1349H68.0799ZM68.0799 45.3011C68.0799 46.2144 67.6577 46.9065 66.9754 47.1286L67.0476 47.3507C67.8553 47.0878 68.3134 46.2813 68.3134 45.3011H68.0799ZM66.9754 47.1286C66.3022 47.3476 65.5734 47.0415 65.1153 46.3805L64.9235 46.5135C65.4258 47.2385 66.2545 47.6088 67.0476 47.3507L66.9754 47.1286ZM65.1153 46.3805L65.1083 46.3701L64.9162 46.5031L64.9235 46.5135L65.1153 46.3805ZM65.1112 46.3744L65.1042 46.3636L64.9066 46.488L64.9133 46.4988L65.1112 46.3744ZM65.0676 46.5246L65.5534 46.2189L65.429 46.0213L64.9432 46.327L65.0676 46.5246ZM65.429 46.0213C65.1863 46.1741 65.0648 46.2505 65.004 46.2887C64.9738 46.3078 64.9585 46.3173 64.9512 46.3219C64.9493 46.3231 64.948 46.3239 64.947 46.3245C64.9464 46.3248 64.9461 46.325 64.9458 46.3252C64.9458 46.3251 64.9458 46.3252 64.9458 46.3252C64.9458 46.3251 64.9461 46.3251 64.9461 46.325C64.9464 46.3249 64.9477 46.3241 64.9493 46.3232C64.9502 46.3227 64.9521 46.3218 64.9544 46.3206C64.956 46.3198 64.9614 46.3172 64.969 46.3147C64.9715 46.3138 64.9983 46.3042 65.0317 46.3119C65.0527 46.3167 65.0711 46.3271 65.0861 46.3411C65.0978 46.3524 65.1048 46.3645 65.1036 46.3627L64.907 46.4886C64.9057 46.4867 64.913 46.4988 64.9248 46.5101C64.9394 46.5241 64.9582 46.5346 64.9792 46.5394C65.0126 46.5471 65.039 46.5374 65.0418 46.5365C65.0495 46.5341 65.0549 46.5314 65.0565 46.5306C65.059 46.5295 65.0606 46.5285 65.0616 46.528C65.0644 46.5264 65.067 46.5249 65.067 46.5248C65.0686 46.5238 65.0711 46.5223 65.0749 46.5199C65.0826 46.5151 65.0978 46.5055 65.1284 46.4864C65.1891 46.4482 65.3106 46.3718 65.5534 46.2189L65.429 46.0213ZM65.1042 46.3633L65.1039 46.3628L64.9063 46.4872L64.9066 46.488L65.1042 46.3633ZM65.1039 46.3628L65.1026 46.3608L64.9047 46.485L64.9063 46.4872L65.1039 46.3628ZM65.1026 46.3608L65.0969 46.3521L64.8993 46.4764L64.9047 46.485L65.1026 46.3608ZM65.0969 46.3521L65.0756 46.3179L64.8777 46.4422L64.8993 46.4764L65.0969 46.3521ZM65.0756 46.3179L64.9913 46.1841L64.7937 46.3084L64.8777 46.4422L65.0756 46.3179ZM64.9913 46.1841L64.6696 45.6726L64.4721 45.7969L64.7937 46.3084L64.9913 46.1841ZM64.6696 45.6726C64.3916 45.23 63.9911 44.5931 63.5034 43.8161L63.3056 43.9403C63.7936 44.7174 64.1937 45.3543 64.4721 45.7969L64.6696 45.6726ZM63.5034 43.8161C62.5275 42.2621 61.2006 40.1473 59.7967 37.9045L59.5989 38.0284C61.0027 40.2713 62.3296 42.3862 63.3056 43.9403L63.5034 43.8161ZM59.7967 37.9045C56.9986 33.4339 53.8912 28.4484 52.6518 26.3848L52.4518 26.505C53.6924 28.5709 56.801 33.5586 59.5989 38.0284L59.7967 37.9045ZM52.6468 26.3769C52.3853 26.012 51.9965 25.9117 51.694 25.9981L51.7579 26.2227C51.9631 26.1641 52.2513 26.2259 52.4568 26.5129L52.6468 26.3769ZM51.694 25.9981C51.5569 26.0372 51.4096 26.1239 51.2976 26.2807C51.1853 26.4375 51.1141 26.6564 51.1141 26.9507H51.3476C51.3476 26.6945 51.4093 26.5259 51.4875 26.4165C51.5658 26.3072 51.6663 26.2489 51.7579 26.2227L51.694 25.9981ZM51.1141 26.9507V45.3008H51.3476V26.9507H51.1141ZM51.1141 45.3008C51.1141 46.2142 50.6916 46.9062 50.0089 47.1283L50.0815 47.3503C50.8888 47.0876 51.3476 46.2811 51.3476 45.3008H51.1141ZM50.0089 47.1283C49.3361 47.3473 48.607 47.0412 48.1495 46.38L47.9574 46.5129C48.4597 47.2383 49.2884 47.6084 50.0815 47.3503L50.0089 47.1283ZM48.1495 46.38L48.1416 46.3688L47.9498 46.5017L47.9574 46.5129L48.1495 46.38ZM48.1448 46.3734L48.1375 46.3619L47.9393 46.4855L47.9466 46.497L48.1448 46.3734ZM48.1002 46.5227L48.5873 46.2188L48.4635 46.0207L47.9768 46.3246L48.1002 46.5227ZM48.4635 46.0207C48.2202 46.1727 48.0983 46.2486 48.0376 46.2865C48.007 46.3055 47.9921 46.3149 47.9844 46.3196C47.9825 46.3207 47.9813 46.3215 47.9803 46.3221C47.98 46.3224 47.9797 46.3226 47.9794 46.3228C47.979 46.3229 47.979 46.3229 47.979 46.323C47.979 46.3229 47.9794 46.3228 47.9797 46.3226C47.9797 46.3225 47.9809 46.3218 47.9829 46.3208C47.9835 46.3204 47.9854 46.3194 47.9876 46.3183C47.9892 46.3176 47.9946 46.3149 48.0023 46.3125C48.0048 46.3116 48.0315 46.3019 48.0649 46.3098C48.1152 46.3216 48.1368 46.3609 48.1375 46.3619L47.9393 46.485C47.9399 46.486 47.9615 46.5253 48.0118 46.5371C48.0452 46.545 48.0719 46.5353 48.0748 46.5344C48.0821 46.532 48.0875 46.5294 48.0891 46.5286C48.0917 46.5274 48.0936 46.5265 48.0942 46.526C48.0971 46.5244 48.0996 46.5229 48.0999 46.5228C48.1015 46.5218 48.1037 46.5204 48.1076 46.518C48.1152 46.5132 48.1308 46.5037 48.161 46.4847C48.2221 46.4467 48.3439 46.3707 48.5873 46.2188L48.4635 46.0207ZM48.1375 46.3616L48.1371 46.361L47.939 46.4847L47.9393 46.4855L48.1375 46.3616ZM48.1371 46.361L48.1359 46.359L47.9377 46.4825L47.939 46.4847L48.1371 46.361ZM48.1359 46.359L48.1305 46.3503L47.9323 46.4739L47.9377 46.4825L48.1359 46.359ZM48.1305 46.3503L48.1091 46.3161L47.911 46.4397L47.9323 46.4739L48.1305 46.3503ZM48.1091 46.3161L48.0255 46.1824L47.8273 46.306L47.911 46.4397L48.1091 46.3161ZM48.0255 46.1824L47.7064 45.671L47.5082 45.7945L47.8273 46.306L48.0255 46.1824ZM47.7064 45.671L46.5481 43.8146L46.35 43.9382L47.5082 45.7945L47.7064 45.671ZM46.5481 43.8146C45.5788 42.2607 44.2596 40.1461 42.8612 37.9035L42.663 38.0271C44.0614 40.2697 45.3807 42.3843 46.35 43.9382L46.5481 43.8146ZM42.8612 37.9035C40.0703 33.4285 36.9631 28.443 35.6871 26.3859L35.4887 26.509C36.7649 28.5663 39.8725 33.5522 42.663 38.0271L42.8612 37.9035ZM35.6832 26.3799C35.4164 26.0039 35.0449 25.9157 34.7739 25.9963L34.8405 26.2201C35.0083 26.1702 35.2793 26.2141 35.4927 26.515L35.6832 26.3799ZM34.7739 25.9963C34.6516 26.0327 34.5134 26.116 34.4067 26.2717C34.3001 26.4273 34.23 26.6476 34.23 26.9503H34.4635C34.4635 26.6836 34.525 26.5122 34.5993 26.4038C34.6736 26.2955 34.7656 26.2424 34.8405 26.2201L34.7739 25.9963ZM34.23 26.9503V45.1362H34.4635V26.9503H34.23ZM34.23 45.1362C34.23 46.208 33.2872 47.1499 32.2155 47.1499V47.3835C33.4161 47.3835 34.4635 46.3371 34.4635 45.1362H34.23ZM32.2155 47.1499H23.4457V47.3835H32.2155V47.1499ZM23.4457 47.1499C19.58 47.1499 16.6726 45.7736 14.7356 43.6749L14.564 43.8332C16.5491 45.9841 19.5208 47.3835 23.4457 47.3835V47.1499ZM14.7356 43.6749C12.8053 41.5833 11.8672 38.8055 11.8726 36.0424L11.6391 36.042C11.6336 38.8565 12.589 41.6933 14.564 43.8332L14.7356 43.6749ZM11.8726 36.0424C11.8779 33.2798 12.8261 30.5054 14.7033 28.4162L14.5296 28.2601C12.61 30.3965 11.6445 33.2282 11.6391 36.042L11.8726 36.0424ZM14.7033 28.4162C16.5876 26.3192 19.3869 24.9366 23.0359 24.9366V24.7031C19.3233 24.7031 16.4599 26.1119 14.5296 28.2601L14.7033 28.4162ZM23.0359 24.9366H28.3612V24.7031H23.0359V24.9366ZM28.2445 21.1345V24.8199H28.478V21.1345H28.2445ZM23.6897 21.2513H28.3612V21.0177H23.6897V21.2513ZM24.0177 50.8366C18.7811 50.8366 14.853 48.9842 12.2258 46.2138C9.59716 43.4417 8.26459 39.7437 8.23405 36.0429C8.20351 32.3422 9.47505 28.6446 12.0473 25.8731C14.6179 23.1034 18.4944 21.2513 23.6897 21.2513V21.0177C18.435 21.0177 14.4946 22.893 11.8761 25.7143C9.25924 28.5338 7.96957 32.2909 8.00054 36.0449C8.03152 39.7989 9.3832 43.5555 12.0564 46.3745C14.7311 49.1951 18.7223 51.0701 24.0177 51.0701V50.8366ZM32.2141 50.8366H24.0177V51.0701H32.2141V50.8366ZM37.9166 44.9732C37.9166 46.9166 37.35 48.3786 36.3633 49.3549C35.3763 50.3314 33.9541 50.8366 32.2141 50.8366V51.0701C33.9987 51.0701 35.4861 50.5513 36.5276 49.5209C37.5693 48.4901 38.1501 46.9621 38.1501 44.9732H37.9166ZM37.9166 37.4367V44.9732H38.1501V37.4367H37.9166ZM44.5268 48.0268C43.625 46.5108 42.0268 43.8482 40.6538 41.5647C39.9673 40.4229 39.3372 39.3758 38.8787 38.6142C38.6495 38.2335 38.4631 37.924 38.3341 37.7098C38.2696 37.6026 38.2194 37.5193 38.1854 37.4628C38.1683 37.4345 38.1553 37.4129 38.1466 37.3984C38.1422 37.3912 38.1389 37.3857 38.1367 37.382C38.1356 37.3802 38.1347 37.3788 38.1342 37.3779C38.1339 37.3774 38.1337 37.3771 38.1336 37.3768C38.1335 37.3767 38.1336 37.3769 38.1336 37.3768C38.1335 37.3768 38.1333 37.3765 38.0333 37.4367C37.9333 37.497 37.9333 37.497 37.9334 37.4971C37.9333 37.497 37.9334 37.4971 37.9334 37.4971C37.9335 37.4973 37.9339 37.4979 37.9342 37.4984C37.9347 37.4993 37.9356 37.5007 37.9366 37.5025C37.9389 37.5062 37.9422 37.5117 37.9465 37.5189C37.9553 37.5334 37.9683 37.555 37.9853 37.5833C38.0194 37.6398 38.0696 37.7231 38.1341 37.8302C38.2631 38.0445 38.4494 38.3539 38.6787 38.7347C39.1372 39.4963 39.7672 40.5433 40.4537 41.685C41.8267 43.9686 43.4249 46.6308 44.3261 48.1462L44.5268 48.0268ZM54.8828 45.7926C54.8828 47.3665 54.4238 48.5989 53.6953 49.4867C52.9661 50.3749 51.9622 50.9249 50.8602 51.1252C48.6554 51.5258 46.0592 50.5252 44.5262 48.0255L44.3271 48.1475C45.9084 50.7262 48.5987 51.7734 50.9019 51.3549C52.0538 51.1456 53.109 50.5693 53.8756 49.6348C54.6429 48.7 55.1163 47.4134 55.1163 45.7926H54.8828ZM54.8828 37.4367V45.7926H55.1163V37.4367H54.8828ZM61.4923 48.0268C60.5908 46.5108 58.9922 43.8482 57.6196 41.5647C56.9334 40.4229 56.3032 39.3759 55.8448 38.6143C55.6157 38.2335 55.4293 37.924 55.3002 37.7098C55.2359 37.6027 55.1856 37.5193 55.1516 37.4628C55.1344 37.4345 55.1214 37.4129 55.1128 37.3984C55.1083 37.3912 55.1052 37.3857 55.1029 37.382C55.1017 37.3802 55.101 37.3788 55.1004 37.3779C55.1001 37.3774 55.1001 37.3771 55.0998 37.3768C55.0998 37.3767 55.0998 37.3769 55.0998 37.3768C55.0998 37.3768 55.0994 37.3765 54.9995 37.4367C54.8997 37.497 54.8997 37.497 54.8997 37.497C54.8997 37.4969 54.8997 37.4971 54.8997 37.497C54.9 37.4973 54.9 37.4979 54.9003 37.4984C54.9009 37.4993 54.9019 37.5007 54.9028 37.5025C54.9051 37.5062 54.9083 37.5117 54.9127 37.5189C54.9216 37.5334 54.9347 37.555 54.9515 37.5833C54.9855 37.6398 55.0358 37.7231 55.1004 37.8302C55.2292 38.0445 55.4156 38.3539 55.6447 38.7347C56.1031 39.4963 56.7333 40.5433 57.4195 41.685C58.7921 43.9686 60.3903 46.6308 61.2916 48.1462L61.4923 48.0268ZM71.7665 45.7926C71.7665 48.9328 69.9402 50.726 67.7538 51.1252C65.5594 51.5257 62.9843 50.5256 61.4923 48.0268L61.2919 48.1463C62.8322 50.726 65.5025 51.7735 67.7958 51.3549C70.0967 50.9349 72 49.042 72 45.7926H71.7665ZM71.7665 21.1349V45.7926H72V21.1349H71.7665ZM68.1966 21.2516H71.8833V21.0181H68.1966V21.2516Z" fill="#CC1417"/>
</svg>
