<svg width="80" height="80" viewBox="0 0 80 80" fill="none" xmlns="http://www.w3.org/2000/svg">
<path d="M12.3618 62.3044H14.4139V65.9839H18.2196V62.3044H20.2716V71.818H18.2221V67.945H14.4164V71.818H12.3618V62.3044Z" fill="black"/>
<path d="M24.1258 62.3044V71.818H22.0737V62.3044H24.1258Z" fill="black"/>
<path d="M27.2792 68.7199C27.6054 69.5354 28.2827 70.0789 29.1139 70.0789C29.7829 70.0789 30.3373 69.7391 30.3373 69.1274C30.3373 68.6655 30.0254 68.353 29.3455 68.1077L28.2032 67.7007C26.8176 67.1989 25.9337 66.3551 25.9337 64.9823C25.9337 63.2559 27.2525 62.1279 29.0462 62.1279C30.4602 62.1279 31.697 62.9023 32.2807 64.1802L30.5823 65.1626C30.2963 64.5237 29.7937 64.0213 29.0871 64.0213C28.4616 64.0213 28.0268 64.361 28.0268 64.8639C28.0268 65.3125 28.3663 65.5839 28.9508 65.8015L30.1876 66.2773C31.7104 66.8485 32.4454 67.7183 32.4454 68.9951C32.4454 70.8986 30.8566 71.9999 29.088 71.9999C27.5117 71.9999 26.1253 71.1701 25.5273 69.6581L27.2792 68.7199Z" fill="black"/>
<path d="M33.2549 62.3044H40.3227V64.2068H37.8215V71.8164H35.7694V64.2068H33.2549V62.3044Z" fill="black"/>
<path d="M45.7681 71.9957C43.0086 71.9957 40.7935 69.8069 40.7935 67.0618C40.7935 64.3162 43.0086 62.1279 45.7681 62.1279C48.5277 62.1279 50.742 64.3157 50.742 67.0618C50.742 69.8079 48.5268 71.9957 45.7681 71.9957ZM45.7681 64.1125C44.1509 64.1125 42.8865 65.417 42.8865 67.0618C42.8865 68.7066 44.1509 70.0127 45.7681 70.0127C47.3854 70.0127 48.6489 68.7082 48.6489 67.0645C48.6489 65.4202 47.3854 64.1125 45.7681 64.1125Z" fill="black"/>
<path d="M54.1186 71.818H52.0933V62.3044H55.26C57.3121 62.3044 58.7396 63.4058 58.7396 65.3492C58.7396 66.7082 57.9242 67.6596 56.7828 68.0943L59.4052 71.818H57.0002L54.6588 68.3396H54.1152L54.1186 71.818ZM54.1186 66.6538H55.2734C56.0887 66.6538 56.6866 66.178 56.6866 65.3903C56.6866 64.5882 56.0887 64.1359 55.2734 64.1359H54.1186V66.6538Z" fill="black"/>
<path d="M64.5572 71.818H62.5043V67.6863L59.1067 62.3044H61.4481L63.5546 65.7839L65.661 62.3044H67.9581L64.5606 67.6863L64.5572 71.818Z" fill="black"/>
<path d="M67.9565 59.0079H12.0417V58.1475H67.9565V59.0079Z" fill="#EE2726"/>
<path d="M53.974 50.6273H53.1127V30.1331H26.8854V50.6273H26.0241V11.5238H26.8854V29.2727H53.1127V11.5238H53.974V50.6273ZM56.1708 54.8527H62.6599V54.0809L62.2267 54.075C62.2267 54.075 61.316 54.1285 60.2482 53.4554C58.8358 52.6468 58.9019 50.7502 58.9019 50.7502V50.0461V50.0519V11.9512C58.9194 11.4912 59.0691 10.0696 60.2457 9.39649C61.3135 8.72751 62.2242 8.77685 62.2242 8.77685L62.6574 8.76598V8H44.4503V8.76598L44.8826 8.77685C44.8826 8.77685 45.7933 8.72417 46.862 9.39649C48.0452 10.0738 48.1898 11.5121 48.2057 11.9612V12.7757V13.172L48.189 24.6593H31.8367L31.82 13.172V12.7757V11.9612C31.8359 11.5121 31.9805 10.0738 33.1646 9.39649C34.2325 8.72751 35.1431 8.77685 35.1431 8.77685L35.5762 8.76598V8H17.3684V8.76598L17.8007 8.77685C17.8007 8.77685 18.7121 8.72417 19.78 9.39649C20.9508 10.0655 21.1054 11.4871 21.1238 11.9512V50.0528V50.0469V50.751C21.1238 50.751 21.1908 52.6476 19.7783 53.4562C18.7105 54.1252 17.799 54.0759 17.799 54.0759L17.3667 54.0817V54.8536H35.578V54.0817L35.1448 54.0759C35.1448 54.0759 34.2341 54.1294 33.1663 53.4562C32.07 52.8291 31.8651 51.5513 31.8283 51.0078L31.8216 34.7625H48.2057L48.1999 51.0078C48.1623 51.5513 47.9574 52.8291 46.862 53.4562C45.7933 54.1252 44.8826 54.0817 44.8826 54.0817H44.4503V54.8536L56.1708 54.8527Z" fill="#FFC42C"/>
</svg>
