<svg width="80" height="80" viewBox="0 0 80 80" fill="none" xmlns="http://www.w3.org/2000/svg">
<path fill-rule="evenodd" clip-rule="evenodd" d="M39.9832 8C22.3288 8 8 22.3797 8 39.982C8 57.6183 22.3288 72 39.9832 72C57.6732 72 72.0001 57.6183 72.0001 39.982C72.0001 22.3797 57.6732 8 39.9832 8ZM39.9837 55.974C32.8187 55.974 25.1058 55.8376 18.1814 55.0845C16.1588 54.8786 15.0958 54.3991 14.8564 52.207C14.4795 48.2354 14.4453 44.1609 14.4453 39.982C14.4453 35.8392 14.4795 31.764 14.8564 27.7917C15.0958 25.6016 16.1588 25.1215 18.1814 24.9162C24.2401 24.2577 30.9033 24.0425 37.2744 24.0228C38.1847 24.0202 39.0885 24.0215 39.9837 24.0261C47.1823 23.99 54.8953 24.1632 61.8182 24.9162C63.8428 25.1215 64.903 25.6016 65.1452 27.7917C65.5201 31.764 65.5564 35.8392 65.5564 39.982C65.5564 44.1609 65.5196 48.2354 65.1452 52.207C64.903 54.3991 63.8428 54.8786 61.8182 55.0845C54.8953 55.8376 47.1823 55.974 39.9837 55.974ZM26.9909 39.9817C26.9909 32.8597 32.7852 27.0384 39.9837 27.0384C47.2165 27.0384 53.0095 32.8597 53.0095 39.9817C53.0095 47.139 47.2165 52.9262 39.9837 52.9262C32.7852 52.9262 26.9909 47.139 26.9909 39.9817Z" fill="#00AEEF"/>
</svg>
