<svg width="80" height="80" viewBox="0 0 80 80" fill="none" xmlns="http://www.w3.org/2000/svg">
<path fill-rule="evenodd" clip-rule="evenodd" d="M69.3877 39.9021L71.8366 36.245H69.6489L68.1469 38.694L66.6122 36.245H64.4571L66.8734 39.9021L64.2612 43.7552H66.4489L68.1469 41.143L69.8121 43.7552H72L69.3877 39.9021ZM61.6816 43.7225H63.5101V36.245H61.6816V43.7225ZM60.604 37.747C60.702 38.0409 60.7673 38.3674 60.7673 38.694C60.7673 39.0205 60.702 39.347 60.604 39.6409C60.5061 39.9348 60.3428 40.196 60.1142 40.4246C59.8857 40.6532 59.6244 40.8164 59.2979 40.947C58.9714 41.0776 58.6122 41.143 58.1877 41.143H56.2938V43.6899H54.4326V36.245H58.1877C58.6122 36.245 58.9714 36.3103 59.2979 36.4409C59.6244 36.5715 59.8857 36.7348 60.1142 36.9634C60.3428 37.1919 60.5061 37.4532 60.604 37.747ZM58.8734 38.7266C58.8734 38.4327 58.7754 38.2368 58.5795 38.0736C58.3836 37.9103 58.1551 37.845 57.8938 37.845H56.2612V39.6083H57.8938C58.1877 39.6083 58.4163 39.543 58.5795 39.3797C58.7754 39.2164 58.8734 39.0205 58.8734 38.7266ZM53.6816 43.7552L50.8408 36.2777H48.4571L45.6489 43.7552H47.7388L48.1306 42.645H51.2L51.5918 43.7552H53.6816ZM49.6652 37.9756L50.7101 41.0776H48.6204L49.6652 37.9756ZM41.7306 41.143H43.4285V41.8287L43.3959 41.8613C43.2326 41.9919 43.0366 42.0899 42.7755 42.1878C42.5142 42.2532 42.253 42.3185 41.9591 42.3185C41.6326 42.3185 41.3387 42.2858 41.0775 42.1552C40.8163 42.0246 40.5877 41.8613 40.3918 41.6654C40.1959 41.4695 40.0326 41.2083 39.9347 40.947C39.8367 40.6858 39.7713 40.3919 39.7713 40.0654C39.7713 39.7389 39.8367 39.445 39.9347 39.1838C40.0326 38.9225 40.1959 38.6613 40.3918 38.4654C40.5877 38.2695 40.8163 38.1062 41.0775 37.9756C41.3387 37.8776 41.6326 37.8123 41.9591 37.8123C42.3509 37.8123 42.6775 37.9103 42.9714 38.1062C43.2326 38.3021 43.4612 38.5307 43.5917 38.7593L45.1265 37.9429C44.9959 37.747 44.8326 37.5185 44.6694 37.3225C44.4735 37.094 44.2449 36.8981 43.9836 36.7348C43.7551 36.5715 43.4285 36.4409 43.102 36.343C42.7755 36.245 42.3836 36.1797 41.9591 36.1797C41.404 36.1797 40.8816 36.2777 40.3918 36.4409C39.902 36.6368 39.4775 36.8981 39.1183 37.2246C38.7265 37.5511 38.4653 37.9429 38.2367 38.4327C38.0081 38.8899 37.9102 39.445 37.9102 40.0328C37.9102 40.6205 38.0081 41.1756 38.2367 41.6327C38.4653 42.0899 38.7591 42.5144 39.1183 42.8409C39.4775 43.2001 39.902 43.4613 40.3918 43.6246C40.8816 43.7879 41.404 43.8858 41.9591 43.8858C42.6449 43.8858 43.2979 43.7552 43.8857 43.494C44.4081 43.2327 44.8979 42.9062 45.2897 42.4491V39.5103H41.7306V41.143ZM31.4775 43.7552H36.9306V42.1552H33.3388V40.7511H36.8652V39.1511H33.3388V37.845H36.9306V36.245H31.4775V43.7552ZM27.2979 36.245H29.9101V43.7552H28.0816V38.5307L26.0571 43.7552H25.2734L23.2489 38.5307V43.7552H21.3877V36.245H24.0326L25.6653 40.4899L27.2979 36.245Z" fill="#4D2868"/>
<path fill-rule="evenodd" clip-rule="evenodd" d="M19.2979 40L13.6489 34.3511V40H19.2979Z" fill="#AECD60"/>
<path fill-rule="evenodd" clip-rule="evenodd" d="M13.6492 34.3511L8.00024 40H13.6492V34.3511Z" fill="#DBE283"/>
<path fill-rule="evenodd" clip-rule="evenodd" d="M8 40L13.649 45.649V40H8Z" fill="#A2C62C"/>
<path fill-rule="evenodd" clip-rule="evenodd" d="M13.6492 40V45.649L19.2982 40H13.6492Z" fill="#86BC25"/>
</svg>
