<svg width="80" height="80" viewBox="0 0 80 80" fill="none" xmlns="http://www.w3.org/2000/svg">
<path fill-rule="evenodd" clip-rule="evenodd" d="M13.4392 24.152H11.9515C9.77826 24.152 8 22.3178 8 20.076C8 17.8341 9.77826 16 11.9515 16H13.4392C15.3964 16 17.0323 17.4877 17.3386 19.4207H14.603C14.3047 18.7296 13.5511 18.2379 12.6658 18.2379C11.5197 18.2379 10.5905 19.0608 10.5905 20.076C10.5905 21.0911 11.5197 21.9141 12.6658 21.9141C13.5511 21.9141 14.3047 21.4223 14.603 20.7312H17.3386C17.0323 22.6643 15.3964 24.152 13.4392 24.152ZM47.1235 27.7994L50.5576 32.0717L39.6018 44.665L41.7059 44.6417L41.6874 44.665H51.3676C44.738 42.6647 46.565 38.7659 47.4592 37.4017L47.8142 36.916H54.4512L58.3128 41.72L58.6656 42.1586C59.212 42.8834 60.108 44.2893 59.1564 44.665H71.9996L57.6928 26.8591L47.1235 27.7994ZM47.3048 45.9567H49.1156C50.4656 45.9567 51.57 47.0958 51.57 48.4883V49.3887C51.57 50.7812 50.4656 51.9204 49.1156 51.9204H47.3048C45.9549 51.9204 44.8504 50.7812 44.8504 49.3887V48.4883C44.8504 47.0958 45.9549 45.9567 47.3048 45.9567ZM56.7012 46.3175H62.612V58.226H72V63.6392H62.612H56.7012V58.226V46.3175ZM50.6492 53.7818V57.3144V59.2664H55.1456V63.6392H41.4829V59.2664H46.0662V57.3144H41.4829V52.9418H50.6492V53.7818ZM34.3308 55.0353C32.379 54.8073 26.4869 54.4655 23.9827 54.3895C23.8196 54.3846 23.6354 54.3794 23.4333 54.3738C20.532 54.2928 13.9659 54.1097 13.9659 52.9418C13.9659 51.8307 18.3353 51.888 20.3382 51.9143C20.5872 51.9176 20.8 51.9204 20.9628 51.9204C22.436 51.9204 33.1525 52.1864 38.8237 53.5159V47.704C38.8237 47.704 30.2432 46.1846 23.8354 46.1846C23.3177 46.1846 22.7804 46.1814 22.2298 46.178C15.9659 46.1405 8 46.0927 8 50.6668C8 53.364 10.0254 54.6799 17.1698 55.0856C18.848 55.1808 20.6929 55.2537 22.5283 55.3262C28.506 55.5623 34.383 55.7945 34.0731 56.7828C33.6778 58.0428 29.6712 58.0012 26.0218 57.9632L25.7503 57.96C22.0309 57.9224 14.8129 57.5424 8.71814 56.1748V62.528C8.71814 62.528 17.1698 64 26.9656 64C36.7614 64 40.1494 62.5188 40.1494 59.024C40.1494 55.6906 36.6316 55.2946 34.613 55.0674C34.5152 55.0564 34.421 55.0458 34.3308 55.0353ZM50.9752 32.5915L48.314 36.2321H53.9016L50.9752 32.5915ZM38.942 40.591C38.942 37.4287 34.8543 36.973 34.8543 36.973C34.8543 36.973 39.892 36.631 39.892 32.0157C39.892 27.4004 33.8047 27.4574 33.8047 27.4574H32.8381H30.297H28.3636V44.665H32.8381V38.5018C32.8381 38.5018 33.6068 38.3927 34.0626 38.8628C34.5183 39.3327 34.4677 40.591 34.4677 40.591V43.9813V44.665H38.942V43.9813V40.591ZM32.838 31.8306V35.4535C32.838 35.4535 35.1995 35.577 35.1995 33.4829C35.1995 33.4829 35.2962 31.8306 32.838 31.8306ZM23.5923 35.7622H22.95C25.2518 35.7622 26.8721 34.1535 26.8721 32.1874C26.8721 29.586 25.8226 27.4575 18.795 27.4575H14.9724H14.3511H10.9999H8.75356V44.6651H10.9999H14.3511H15.2622H19.1938C25.4634 44.6651 27.311 42.398 27.311 39.6271V39.598C27.311 37.4882 25.8409 35.7622 23.5923 35.7622ZM21.2423 38.9022C21.2423 38.1352 20.634 37.5077 19.8904 37.5077H18.7682H17.8534H14.3327V40.2967H17.8534H18.7682H19.8904C20.634 40.2967 21.2423 39.6692 21.2423 38.9022ZM17.7535 34.143H14.3326V31.56H17.7535H18.7682H19.783C20.4716 31.56 21.0351 32.1412 21.0351 32.8515C21.0351 33.5619 20.4716 34.143 19.783 34.143H18.7682H17.7535ZM49.8052 23.9532H53.9944V21.503H49.8052V16.2182H47.2274V23.9532H48.7464H49.8052ZM40.1111 23.9532H37.5562L39.2273 16.2182H44.1574L45.8284 23.9532H43.2736L43.0104 22.3482H40.3743L40.1111 23.9532ZM40.6799 20.4845H42.7046L42.36 18.3834H41.0245L40.6799 20.4845ZM27.7832 23.9532H30.1309V19.3473L33.8805 23.9532H36.2282V16.2182H33.8805V20.6578L30.1309 16.2182H27.7832V23.9532ZM18.1855 23.9532H20.7404L21.0036 22.3482H23.6396L23.9028 23.9532H26.4576L24.7866 16.2182H19.8565L18.1855 23.9532ZM21.3092 20.4845H23.334L22.9894 18.3834H21.6538L21.3092 20.4845Z" fill="black"/>
</svg>
