<svg width="80" height="80" viewBox="0 0 80 80" fill="none" xmlns="http://www.w3.org/2000/svg">
<path d="M71.4576 34.8332V32.7546H63.9641L62.9395 35.2045H68.1064L65.2083 37.8317V39.5685H67.7986C68.794 39.5685 69.3358 39.9398 69.3358 40.7415C69.3358 41.4978 68.7792 41.8994 67.7694 41.8994H63.1585V44.3485H68.0929C70.5517 44.3485 72 42.9974 72 40.6817C72 38.841 70.6832 37.5945 68.6638 37.4755L71.4576 34.8332Z" fill="#FF0930"/>
<path d="M12.5954 44.3485L13.5902 41.9729H8.99476L8 44.3485H12.5954Z" fill="#FF0930"/>
<path d="M32.9524 35.0112C30.2156 35.0112 28.0647 37.0891 28.0647 39.7761C28.0647 42.4631 30.2156 44.5561 32.9524 44.5561C35.6892 44.5561 37.8408 42.4631 37.8408 39.7761C37.8408 37.0891 35.6892 35.0112 32.9524 35.0112ZM32.9524 42.0932C31.6505 42.0932 30.6991 41.099 30.6991 39.7775C30.6991 38.456 31.6485 37.4769 32.9524 37.4769C34.2564 37.4769 35.2057 38.4553 35.2057 39.7761C35.2057 41.0969 34.2564 42.0919 32.9518 42.0919" fill="#09043E"/>
<path d="M22.8101 35.0112C21.4933 35.0112 20.542 35.6349 20.03 36.3767V35.2189H17.4248V47.2452H20.0883V43.3982C20.6885 44.1106 21.7157 44.5114 22.8685 44.5114C25.3096 44.5114 27.1126 42.4185 27.1126 39.7912C27.1126 37.0746 25.2391 35.0112 22.8095 35.0112H22.8101ZM22.2094 42.1221C20.921 42.1221 19.9717 41.1272 19.9717 39.7761C19.9717 38.425 20.921 37.4459 22.2094 37.4459C23.512 37.4459 24.4782 38.4257 24.4782 39.7761C24.4782 41.1265 23.4978 42.1221 22.2094 42.1221Z" fill="#09043E"/>
<path d="M58.0077 44.3486L61.828 35.219H58.7543L56.764 40.6969L54.8172 35.219H51.6858L55.4323 44.3486H58.0077Z" fill="#09043E"/>
<path d="M41.5286 44.3486V40.1028C41.5286 38.5743 42.4101 37.6688 44.1922 37.6688H44.6458V35.219H44.4119C42.9628 35.219 42.0996 35.6315 41.4703 36.6141V35.219H38.8672V44.3486H41.5286Z" fill="#09043E"/>
<path d="M16.4592 41.8252V41.6189C16.4592 39.704 15.244 38.8583 13.1223 38.6355L11.2636 38.4403C10.8093 38.3963 10.6486 38.2622 10.6486 38.0099C10.6486 37.7431 10.8392 37.5973 11.2487 37.5973H14.688L15.6834 35.219H11.366C9.33177 35.219 8 36.3769 8 38.0841C8 39.7913 8.89236 40.6969 11.3226 40.9492L13.0321 41.1259C13.4857 41.1706 13.7346 41.3487 13.7346 41.7496V41.8238L16.4592 41.8252Z" fill="#09043E"/>
<path d="M50.9243 44.3485V41.8994H49.8265C48.7294 41.8994 48.2316 41.394 48.2316 40.296V37.6688H50.251L51.2763 35.2189H48.2316V32.7554H45.5681V40.7133C45.5681 43.1033 46.8849 44.3506 49.6075 44.3506L50.9243 44.3485Z" fill="#09043E"/>
</svg>
