<svg width="80" height="80" viewBox="0 0 80 80" fill="none" xmlns="http://www.w3.org/2000/svg">
<path d="M63.4276 52.1055C63.2236 52.3025 62.9793 52.4017 62.6934 52.4017C62.4075 52.4017 62.1498 52.3012 61.9485 52.0989C61.7472 51.8979 61.6465 51.65 61.6465 51.3553C61.6465 51.0605 61.7552 50.7952 61.974 50.5929C62.178 50.404 62.4182 50.3088 62.6948 50.3088C62.9713 50.3088 63.2303 50.412 63.4356 50.6157C63.641 50.8207 63.743 51.0672 63.743 51.3553C63.743 51.6433 63.6383 51.9032 63.429 52.1069L63.4276 52.1055ZM62.0787 50.747C61.9123 50.9171 61.8291 51.1195 61.8291 51.3539C61.8291 51.5884 61.9136 51.8027 62.0841 51.9716C62.2519 52.1417 62.4558 52.2261 62.6948 52.2261C62.9337 52.2261 63.1364 52.1404 63.3055 51.9702C63.4732 51.7987 63.5578 51.5924 63.5578 51.3539C63.5578 51.1154 63.4746 50.9185 63.3068 50.747C63.1377 50.5728 62.9337 50.4857 62.6961 50.4857C62.4586 50.4857 62.2505 50.5728 62.0814 50.747H62.0787ZM62.2344 51.9354V50.7765C62.3069 50.7765 62.4142 50.7765 62.5578 50.7765C62.7015 50.7765 62.7807 50.7765 62.7968 50.7791C62.888 50.7858 62.9645 50.8059 63.025 50.8381C63.1283 50.8957 63.1793 50.9882 63.1793 51.1154C63.1793 51.2132 63.1524 51.2829 63.0975 51.3271C63.0424 51.37 62.9753 51.3968 62.8961 51.4048C62.9686 51.4195 63.0236 51.4423 63.0612 51.4718C63.1296 51.5268 63.1632 51.6138 63.1632 51.7317V51.8349C63.1632 51.8456 63.1632 51.8577 63.1659 51.8684C63.1672 51.8791 63.1699 51.8912 63.174 51.9019L63.1847 51.934H62.8948C62.8854 51.8966 62.8786 51.8443 62.876 51.7746C62.872 51.7049 62.8666 51.658 62.8572 51.6326C62.8424 51.5924 62.8129 51.5642 62.7726 51.5482C62.7498 51.5388 62.7149 51.5321 62.6693 51.5294L62.6022 51.5254H62.5377V51.934H62.2331L62.2344 51.9354ZM62.7874 51.0042C62.7458 50.9882 62.6881 50.9801 62.6116 50.9801H62.5377V51.3164H62.6559C62.727 51.3164 62.782 51.303 62.8209 51.2735C62.8612 51.244 62.88 51.1985 62.88 51.1355C62.88 51.0725 62.8491 51.0283 62.786 51.0029L62.7874 51.0042Z" fill="#F590F7"/>
<path d="M57.3003 50.3279H58.5069L59.6223 52.8146H59.633V50.3279H60.7484V54.9744H59.6008L58.4264 52.4354H58.4156V54.9744H57.3003V50.3279Z" fill="#F590F7"/>
<path d="M54.9219 50.2166C56.0856 50.2166 56.8627 51.2321 56.8627 52.651C56.8627 54.0699 56.0856 55.0855 54.9219 55.0855C53.7582 55.0855 52.9797 54.0699 52.9797 52.651C52.9797 51.2321 53.7568 50.2166 54.9219 50.2166ZM54.9219 53.9265C55.2212 53.9265 55.6829 53.6854 55.6829 52.651C55.6829 51.6167 55.2212 51.3755 54.9219 51.3755C54.6226 51.3755 54.1595 51.6167 54.1595 52.651C54.1595 53.6854 54.6199 53.9265 54.9219 53.9265Z" fill="#F590F7"/>
<path d="M51.3999 50.3279H52.5797V54.9744H51.3999V50.3279Z" fill="#F590F7"/>
<path d="M48.7464 53.4119C48.7464 53.5285 48.7625 53.633 48.7894 53.7174C48.8753 53.9974 49.133 54.0563 49.3531 54.0563C49.5464 54.0563 49.8416 53.9786 49.8416 53.633C49.8416 53.3918 49.6752 53.3275 49.0162 53.0997C48.4109 52.8907 47.7183 52.6897 47.7183 51.7519C47.7183 50.6787 48.474 50.2151 49.2632 50.2151C50.094 50.2151 50.8282 50.5996 50.8604 51.7318H49.745C49.7665 51.5563 49.7021 51.4397 49.6054 51.3606C49.5088 51.2762 49.3746 51.2427 49.2565 51.2427C49.0954 51.2427 48.8323 51.295 48.8323 51.5549C48.8538 51.8872 49.4014 51.9582 49.9423 52.1404C50.4846 52.3226 51.0201 52.6281 51.0201 53.4815C51.0201 54.6914 50.1034 55.0826 49.2511 55.0826C48.8163 55.0826 47.5774 54.8937 47.5667 53.4092H48.7464V53.4119Z" fill="#F590F7"/>
<path d="M45.9277 50.3279H47.1075V54.9744H45.9277V50.3279Z" fill="#F590F7"/>
<path d="M44.2876 54.9744H42.9682L41.8259 50.3279H43.0165L43.6433 53.1455H43.6541L44.2701 50.3279H45.4821L44.2862 54.9744H44.2876Z" fill="#F590F7"/>
<path d="M38.2839 50.3279H41.4542V51.519H39.4637V52.0991H41.2716V53.2058H39.4637V53.786H41.5119V54.977H38.2839V50.3305V50.3279Z" fill="#F590F7"/>
<path d="M35.1177 50.3279H36.2975V53.7846H37.9927V54.9757H35.1177V50.3292V50.3279Z" fill="#F590F7"/>
<path d="M31.5273 50.3279H34.6976V51.519H32.7085V52.0991H34.5165V53.2058H32.7085V53.786H34.758V54.977H31.5287V50.3305L31.5273 50.3279Z" fill="#F590F7"/>
<path d="M28.9328 51.519H27.8604V50.3279H31.185V51.519H30.1126V54.9757H28.9328V51.519Z" fill="#F590F7"/>
<path d="M24.7101 52.0588C24.6886 51.89 24.5812 51.3755 24.094 51.3755C23.541 51.3755 23.3652 52.0266 23.3652 52.651C23.3652 53.2754 23.5424 53.9265 24.094 53.9265C24.4913 53.9265 24.647 53.5875 24.7154 53.1521H25.8737C25.8737 54.0899 25.2456 55.0855 24.1249 55.0855C22.886 55.0855 22.1841 54.0243 22.1841 52.651C22.1841 51.1866 22.9465 50.2166 24.1249 50.2166C25.1758 50.2233 25.7557 50.8931 25.8577 52.0588H24.7101Z" fill="#F590F7"/>
<path d="M20.5505 50.3279H21.7304V54.9744H20.5505V50.3279Z" fill="#F590F7"/>
<path d="M17.8975 53.4119C17.8975 53.5285 17.9137 53.633 17.9405 53.7174C18.0264 53.9974 18.2841 54.0563 18.5042 54.0563C18.6962 54.0563 18.9928 53.9786 18.9928 53.633C18.9928 53.3918 18.8264 53.3275 18.166 53.0997C17.5593 52.8907 16.8681 52.6897 16.8681 51.7519C16.8681 50.6787 17.6237 50.2151 18.4116 50.2151C19.2438 50.2151 19.978 50.5996 20.0101 51.7318H18.8948C18.9163 51.5563 18.8518 51.4397 18.7552 51.3606C18.6586 51.2762 18.5244 51.2427 18.4062 51.2427C18.2452 51.2427 17.9834 51.295 17.9834 51.5549C18.0049 51.8872 18.5526 51.9582 19.0934 52.1404C19.6343 52.3226 20.1712 52.6281 20.1712 53.4815C20.1712 54.6914 19.2545 55.0826 18.4008 55.0826C17.966 55.0826 16.7272 54.8937 16.7178 53.4092H17.8975V53.4119Z" fill="#F590F7"/>
<path d="M16.3767 53.179C16.3767 54.4679 15.8022 55.0856 14.6332 55.0856C13.4641 55.0856 12.8843 54.4665 12.8843 53.179V50.3279H14.0641V52.8601C14.0641 53.3344 14.0641 53.928 14.6385 53.928C15.213 53.928 15.1969 53.3358 15.1969 52.8601V50.3279H16.3767V53.179Z" fill="#F590F7"/>
<path d="M8.00781 50.3279H9.68556L10.2332 53.0611H10.2439L10.7902 50.3279H12.4679V54.9744H11.3526V51.9933H11.3418L10.6774 54.9744H9.79831L9.13258 51.9933H9.12184V54.9744H8.00781V50.3279Z" fill="#F590F7"/>
<path d="M8 49.1032H29.1719L32.526 46.6246V35.3139L33.883 36.5974L38.829 35.472L40.1 34.431V49.1032H61.1873L64.865 46.5067V7.43379L61.1873 5.20166H40.5645L36.1849 9.56676L35.1191 8.38103L28.2095 5.20166H8" fill="black"/>
<path d="M60.162 48.3114H40.8934V29.5782L33.8831 35.539L28.1774 29.6666V48.3128H8.79199V5.99219H27.8513L33.9596 12.8159L40.833 5.99219H60.1593L60.162 48.3114Z" fill="#F590F7"/>
<path d="M28.9048 31.6108V48.3116L31.7342 46.2228V34.4606L28.9048 31.6108Z" fill="#F590F7"/>
<path d="M34.9836 35.5189L38.6666 34.6815L40.1551 33.4609V31.2556L34.9836 35.5189Z" fill="#F590F7"/>
<path d="M34.5206 8.89949L29.3142 6.50391L34.0213 11.7667L35.6507 10.1616L34.5206 8.89949Z" fill="#F590F7"/>
<path d="M60.9536 48.3114L64.0715 46.1544V7.86792L60.9456 5.99219L60.9536 48.3114Z" fill="#F590F7"/>
<path d="M51.6079 13.5647H51.6065C51.1663 13.6921 50.6589 14.0605 50.4616 14.2132C50.463 14.2132 50.3744 14.2762 50.3744 14.2762C49.9462 14.579 49.7046 14.7652 49.5664 14.9448L49.4805 15.0654C49.3006 15.3252 49.1758 15.4847 49.1087 15.5463C49.0577 15.5799 48.9128 15.6482 48.8147 15.6937C48.6711 15.7607 48.5181 15.8384 48.3705 15.9242L48.3517 15.9282C48.09 15.9818 47.8766 16.0287 47.7169 16.089C47.6215 16.1251 47.4833 16.1921 47.2484 16.3087C47.2484 16.3087 46.9182 16.4668 46.9061 16.4721C46.8807 16.4802 46.7558 16.5164 46.7558 16.5164L46.2927 16.661C46.1894 16.6986 46.0807 16.7602 45.9276 16.85L45.9102 16.8607C45.815 16.8768 45.6914 16.8821 45.6163 16.8768C45.6015 16.8701 45.5841 16.8634 45.5841 16.8634C45.2284 16.7053 44.4875 16.377 43.7667 16.4976C43.4392 16.5539 43.1292 16.6798 42.8916 16.8459C42.6742 16.925 42.3521 17.0858 42.1467 17.3792C42.0541 17.4449 41.9118 17.56 41.7991 17.7677C41.587 18.1563 41.4528 18.6828 41.4366 18.8677C41.43 18.9347 41.4273 18.999 41.4273 19.0607C41.4273 19.3125 41.4716 19.5269 41.5091 19.7065L41.5347 19.8351C41.5521 19.9275 41.5561 19.9905 41.5561 20.0307C41.5561 20.0535 41.5548 20.0682 41.5535 20.0776C41.5373 20.091 41.4997 20.1191 41.4152 20.1633C41.4125 20.1633 41.0863 20.3737 41.0863 20.3737C41.0863 20.3737 40.932 20.4755 40.9038 20.4942C40.8555 20.5117 40.7039 20.5693 40.7039 20.5693C40.4045 20.6791 40.2515 20.7381 40.1361 20.8024C39.9321 20.9176 39.7374 21.0115 39.5643 21.0918C39.3026 21.2164 39.1294 21.2981 38.9858 21.4334C38.6825 21.7228 38.1805 22.0297 38.0141 22.1235L37.9979 22.1328L37.9819 22.1436C37.7537 22.2869 37.3229 22.5294 36.8907 22.7706C36.637 22.9113 36.3565 23.1323 36.092 23.3467C36.092 23.3467 36.0343 23.3923 36.0102 23.4124C35.9806 23.4284 35.829 23.5075 35.829 23.5075C35.6129 23.6187 35.4759 23.691 35.378 23.7567L35.2021 23.88C35.1149 23.9429 34.9109 24.0889 34.8545 24.1225C34.7015 24.2082 34.4358 24.2832 34.1552 24.3623C33.5432 24.5351 32.8573 24.7294 32.3567 25.2868C31.8359 25.8642 31.5527 26.6266 31.5527 27.3648C31.5527 27.6877 31.6064 28.0053 31.7178 28.3013C32.0547 29.1963 32.8023 29.7765 33.3392 30.0002C33.9955 30.2722 35.1069 30.2669 35.7578 29.7832C36.1538 29.4871 36.3377 29.0905 36.4719 28.8011C36.5712 28.5854 36.6584 28.4876 36.692 28.4568C36.8705 28.2839 37.0437 28.0374 37.249 27.7346C37.249 27.7346 37.3524 27.5859 37.3738 27.5551C37.5201 27.4171 37.7134 27.2871 37.9658 27.1598C38.6234 26.8276 39.0636 26.4269 39.2999 26.2112L39.3764 26.1416L39.5321 25.9942C39.5764 25.9513 39.6368 25.891 39.661 25.8763C40.3092 25.5226 40.6689 25.2532 40.8824 25.0911L40.9132 25.0683C40.9924 25.0121 41.2984 24.858 41.4622 24.7749L41.7521 24.6262C41.9132 24.5405 42.0648 24.4347 42.2017 24.3355C42.2675 24.6236 42.348 25.1045 42.4151 25.8897C42.4165 25.9192 42.4218 26.0839 42.4299 26.7646V26.8356C42.4326 26.9682 42.4514 27.1826 42.4795 27.472C42.4795 27.472 42.5011 27.7159 42.5024 27.7306C42.497 27.8364 42.493 27.9436 42.493 28.0562C42.493 28.3576 42.5118 28.6738 42.5333 28.9806C42.5306 29.0436 42.5293 29.1066 42.5293 29.1682C42.5293 29.416 42.548 29.6532 42.5856 29.8756C42.5964 29.9359 42.6004 30.0552 42.6004 30.1891C42.6004 30.3754 42.591 30.5897 42.5776 30.7144C42.5654 30.8215 42.5614 30.9247 42.5614 31.0225C42.5614 31.1149 42.5654 31.2021 42.5682 31.2838L42.5735 31.4351C42.5735 31.4593 42.5735 31.4834 42.5735 31.5075C42.5735 31.8049 42.5413 32.1011 42.5225 32.2832L42.5024 32.5177V32.5981C42.4917 33.0456 42.4809 33.2318 42.4715 33.3095L42.4554 33.3819C42.4084 33.5842 42.3735 33.7369 42.3641 33.8562C42.3601 33.9018 42.3574 33.95 42.3574 34.0035C42.3574 34.1844 42.3803 34.4122 42.4124 34.711C42.4245 34.8235 42.442 34.9843 42.4447 35.0567C42.4245 35.2081 42.3735 35.3822 42.3132 35.5845C42.2031 35.949 42.0621 36.4166 42.0621 36.9713C42.0621 37.1012 42.0702 37.2352 42.0877 37.3732C42.1413 37.8019 42.2286 38.1825 42.3507 38.5361C42.3695 38.6045 42.4729 39.0212 42.5091 39.2087L42.5171 39.2489L42.5293 39.2878C42.5722 39.4298 42.693 39.8518 42.7319 40.0903C42.74 40.1426 42.7426 40.219 42.7426 40.298C42.7426 40.4011 42.7373 40.5097 42.7346 40.578L42.7306 40.7482C42.7332 40.9197 42.7735 41.1514 42.8594 41.5748C42.8594 41.5748 42.8715 41.6391 42.8809 41.6847C42.8796 41.7195 42.8768 41.7611 42.8768 41.7611C42.8702 41.8897 42.8648 42.0036 42.8648 42.1054C42.8648 42.1992 42.8702 42.2849 42.8822 42.364C42.9332 42.6802 43.0876 43.6408 43.7989 44.0709C44.2446 44.3402 44.6539 44.4045 44.9251 44.4474C44.9882 44.4568 45.0673 44.4702 45.0968 44.4782C45.9612 44.7382 46.9008 44.5854 47.4417 44.3737C47.7544 44.2518 48.039 44.0254 48.204 43.7668C48.2027 43.7694 48.1786 43.8016 48.1786 43.8016L48.243 43.74C48.341 43.6489 48.4752 43.5256 48.5933 43.3447C48.7396 43.121 48.8403 42.7847 48.9946 42.2528C49.051 42.0599 49.1087 41.8602 49.1476 41.7517C49.2228 41.5467 49.2509 41.3122 49.2509 41.0778C49.2509 40.4521 49.0537 39.8317 49.0416 39.7969C48.9906 39.6428 48.6523 38.8537 48.5611 38.646C48.5289 38.5227 48.4846 38.1382 48.4658 37.9694L48.4229 37.6371L48.3181 37.2031C48.3181 37.2031 48.2645 36.9886 48.2497 36.9284C48.2497 36.8828 48.251 36.7904 48.251 36.7904C48.2523 36.7006 48.2537 36.6229 48.2537 36.5532C48.2537 36.4273 48.2497 36.3281 48.2349 36.2383C48.2027 36.0428 48.1906 35.8445 48.1906 35.6421C48.1906 35.2549 48.2376 34.8557 48.2859 34.4403L48.2927 34.3854V34.3305C48.2873 34.1322 48.2833 33.8964 48.2833 33.7611C48.2833 33.7142 48.2833 33.6793 48.2833 33.6619V33.686C48.3222 33.2881 48.3383 32.8526 48.353 32.4333V32.4145L48.3866 31.671C48.3879 31.6455 48.3893 31.62 48.3893 31.5959C48.3893 31.5048 48.3785 31.4164 48.3678 31.324C48.3598 31.2502 48.3463 31.1391 48.3463 31.0574C48.3463 31.0306 48.3463 31.0078 48.3504 30.9903C48.3611 30.9327 48.3651 30.8738 48.3651 30.8095C48.3651 30.658 48.3383 30.4718 48.2886 30.1811C48.2886 30.1811 48.2833 30.1489 48.2805 30.1315C48.2805 30.1221 48.2805 30.1128 48.2805 30.098C48.2805 29.9707 48.298 29.6639 48.3101 29.4536C48.3289 29.1213 48.3423 28.8761 48.3423 28.6926C48.3423 28.6189 48.3396 28.5559 48.3356 28.501C48.3356 28.4983 48.2913 28.2102 48.2913 28.2102C48.251 27.9691 48.1826 27.5685 48.1504 27.204C48.141 26.9615 48.1343 26.6761 48.1343 26.506C48.1343 26.4484 48.1343 26.4042 48.1369 26.3801C48.1423 26.3104 48.1437 26.23 48.1437 26.1375C48.1437 25.9915 48.1383 25.816 48.1329 25.6164L48.1195 24.7535C48.1195 24.7535 48.1195 24.7441 48.1195 24.7401C48.1195 24.4789 48.047 23.2261 48.0215 23.0426C48.0067 22.9341 47.992 22.7425 47.992 22.5375C47.992 22.4035 47.9987 22.2641 48.0148 22.1369C48.0631 21.7711 48.0685 21.5513 48.0725 21.3732C48.0752 21.2499 48.0792 21.1588 48.0953 21.0382C48.1624 20.9726 48.3154 20.8788 48.4242 20.8332C49 20.7059 49.3583 20.5974 49.5932 20.3911C49.7959 20.2129 50.0925 20.1258 50.2523 20.0789L50.2657 20.0749C50.6535 19.961 50.9019 19.7319 51.0361 19.6086L51.0549 19.5912C51.1502 19.535 51.6522 19.2416 51.6522 19.2416L51.93 19.0446C51.9904 18.9923 52.0293 18.9602 52.0575 18.9535C52.2173 18.9106 52.3555 18.8382 52.4897 18.7673C52.5662 18.7271 52.6521 18.6815 52.7031 18.6641L52.8521 18.6172C53.0964 18.5408 53.2185 18.5006 53.3313 18.4323L53.3433 18.4256C53.9527 18.0451 54.7956 17.063 54.7956 15.8827C54.7956 15.7259 54.7808 15.5651 54.7486 15.403C54.6681 15.001 54.4507 14.721 54.2909 14.516L54.1916 14.3834C53.656 13.5715 52.8534 13.5768 52.5903 13.5795C52.534 13.5795 52.4186 13.5674 52.3246 13.5581C52.0602 13.5299 51.832 13.5058 51.6065 13.5701L51.6079 13.5647ZM42.1159 17.4288C42.0997 17.4542 42.0823 17.477 42.0689 17.5038C42.0836 17.4743 42.0997 17.4502 42.1159 17.4288Z" fill="black"/>
<path d="M47.329 20.8227C47.4028 20.3953 48.1344 20.0844 48.1947 20.071C48.3599 20.0335 48.9316 19.9169 49.0739 19.7924C49.4148 19.4936 49.8403 19.3716 50.0443 19.3114C50.349 19.2216 50.5154 18.9845 50.6161 18.9295C50.7503 18.8558 51.1623 18.6026 51.2872 18.537C51.4107 18.4726 51.5569 18.2649 51.8549 18.1859C52.0053 18.1457 52.2308 17.9863 52.4536 17.9113C52.6106 17.859 52.871 17.784 52.9247 17.7518C53.4575 17.4182 54.1595 16.4897 53.9743 15.5518C53.9139 15.2504 53.6749 15.0307 53.5327 14.8136C53.2468 14.3809 52.8669 14.3634 52.5985 14.3661C52.3569 14.3661 51.9596 14.2871 51.8267 14.3259C51.5449 14.4063 51.1301 14.6971 50.9476 14.8391C50.8697 14.9007 50.3127 15.2732 50.1987 15.4232C50.1369 15.5037 49.843 15.9605 49.6242 16.1508C49.4323 16.3169 48.9276 16.479 48.6605 16.6719C48.4914 16.7095 48.1518 16.7711 48.0055 16.8274C47.8632 16.881 47.3008 17.1757 47.1774 17.2172C47.0969 17.2454 46.7022 17.3539 46.5774 17.4008C46.4861 17.4343 46.2325 17.5978 46.1962 17.6085C46.0029 17.6647 45.6352 17.6955 45.4205 17.6487C45.3063 17.6245 44.5171 17.1744 43.9038 17.2775C43.6232 17.3257 43.3843 17.445 43.2702 17.5562C43.1024 17.5991 42.8528 17.717 42.7803 17.8617C42.7105 17.9997 42.583 17.9957 42.5012 18.1457C42.3414 18.4405 42.2394 18.8639 42.2327 18.9349C42.2058 19.2162 42.2783 19.4561 42.3213 19.6919C42.4461 20.3672 42.226 20.6378 41.7871 20.8655C41.6878 20.9178 41.3482 21.1657 41.2596 21.2059C41.1375 21.2608 40.6516 21.4242 40.5321 21.4913C40.0651 21.7552 39.6396 21.9133 39.5389 22.0084C39.0947 22.4305 38.4088 22.815 38.4088 22.815C38.1766 22.961 37.782 23.1834 37.284 23.4621C36.9833 23.6296 36.5337 24.0235 36.4558 24.0744C36.3727 24.1293 35.9458 24.3343 35.8277 24.4147C35.7499 24.467 35.3714 24.747 35.2546 24.8113C35.013 24.9453 34.7043 25.0323 34.3768 25.1248C33.848 25.2749 33.3031 25.4289 32.9541 25.8162C32.4239 26.4043 32.2011 27.3154 32.4682 28.0242C32.7353 28.7329 33.3473 29.1443 33.6534 29.2715C34.1352 29.4711 34.9284 29.4216 35.2949 29.1496C35.5298 28.9741 35.6532 28.7061 35.762 28.4703C35.8036 28.3806 35.9378 28.0938 36.1499 27.8889C36.37 27.6758 36.7095 27.105 36.8035 27.0126C37.0276 26.7942 37.3055 26.6133 37.6169 26.4552C38.2545 26.1337 38.649 25.7384 38.8584 25.5522C39.0047 25.4222 39.1242 25.2735 39.2852 25.1851C39.9187 24.8394 40.2462 24.5876 40.4449 24.4375C40.6153 24.3089 41.12 24.0704 41.3884 23.9284C41.6663 23.781 41.9911 23.4983 42.1173 23.4407C42.2823 23.3643 42.5696 23.3576 42.6756 23.4286C42.7816 23.4983 43.0447 23.8721 43.2138 25.8228C43.2219 25.9166 43.2313 26.7004 43.2326 26.825C43.2354 27.0233 43.3078 27.661 43.3038 27.7227C43.2796 28.0978 43.3038 28.5413 43.3346 28.9647C43.3346 28.9821 43.3078 29.3426 43.3749 29.7445C43.4192 30.0084 43.3977 30.5778 43.3722 30.8029C43.3481 31.0119 43.3696 31.2196 43.3722 31.4206C43.3816 31.9297 43.3038 32.4228 43.3011 32.5393C43.2984 32.6291 43.2917 33.2159 43.2608 33.437C43.2555 33.4799 43.1682 33.8148 43.1588 33.9233C43.1347 34.1833 43.2608 34.9577 43.242 35.1211C43.2152 35.3502 43.1481 35.5767 43.0756 35.8151C42.9494 36.2332 42.8072 36.7062 42.8783 37.2715C42.9172 37.581 42.9843 37.9414 43.1159 38.3139C43.1212 38.33 43.2461 38.8244 43.2903 39.0561C43.2903 39.0561 43.4608 39.6162 43.5172 39.9605C43.5601 40.2285 43.5252 40.6345 43.5266 40.7322C43.5293 40.9225 43.6662 41.5241 43.6783 41.6165C43.6863 41.6808 43.6447 42.0882 43.6689 42.2382C43.7212 42.5651 43.8474 43.1707 44.2138 43.3932C44.6621 43.6638 45.0634 43.6396 45.3292 43.72C45.9801 43.9156 46.7331 43.8017 47.1572 43.637C47.2955 43.5834 47.4592 43.4681 47.5411 43.3395C47.6283 43.2055 47.8122 43.097 47.9344 42.9121C48.0753 42.6964 48.2766 41.8403 48.4082 41.4799C48.5478 41.098 48.392 40.3517 48.2914 40.0409C48.2592 39.9431 47.9129 39.1245 47.827 38.9383C47.7424 38.7507 47.6767 37.9508 47.6445 37.7767C47.623 37.6601 47.4793 37.1335 47.4619 37.0317C47.4485 36.9526 47.4767 36.5051 47.4552 36.3672C47.3451 35.6879 47.4243 35.0086 47.5009 34.3521C47.5009 34.3521 47.4861 33.7009 47.4968 33.6058C47.5357 33.2307 47.5505 32.8032 47.5652 32.3906C47.5746 32.1119 47.584 31.848 47.5988 31.6202C47.6082 31.4902 47.5223 31.1406 47.5746 30.8525C47.5948 30.744 47.5022 30.2804 47.4968 30.2268C47.4686 29.9749 47.576 28.8642 47.5505 28.5721C47.5398 28.4596 47.4136 27.8325 47.3639 27.2605C47.3639 27.2605 47.3357 26.537 47.3505 26.3266C47.3693 26.0533 47.3263 25.3687 47.3317 24.7483C47.3344 24.5447 47.2606 23.2933 47.2418 23.1567" fill="black"/>
<path d="M68.2824 10.9466C67.3347 11.027 66.6985 11.5482 66.3563 11.8282C66.3441 11.839 65.4113 12.6871 65.167 13.0099C65.167 13.0086 64.9912 13.2846 64.9912 13.2846L64.853 13.507L64.3913 14.0818L64.3684 14.11L63.8383 14.7732L63.853 14.7558C63.8168 14.7973 63.6302 14.9862 63.4933 15.1241C63.0047 15.6186 62.896 15.7351 62.8343 15.8169C62.8356 15.8142 62.7162 15.975 62.7162 15.975C62.2034 16.6582 61.9095 17.0441 61.8411 17.1219L61.8531 17.1098C61.6975 17.2719 61.3109 17.7851 61.1793 17.9766C60.9915 18.254 60.7579 18.5983 60.6612 18.7256C60.5794 18.8354 60.4801 18.9453 60.378 19.0592L60.3686 19.0699L59.5325 20.0587L59.5016 20.1082C59.3204 20.4017 59.0641 20.8358 58.966 21.022C58.9647 21.026 58.9231 21.1145 58.9231 21.1145C58.6453 21.7562 58.4869 21.9666 58.4453 22.0162C58.1191 22.402 57.9809 22.9554 57.9125 23.2367C57.895 23.2903 57.8306 23.4551 57.7621 23.5891C57.6668 23.7753 57.4829 24.1799 57.4145 24.3287C56.789 25.304 56.7622 25.3523 56.7501 25.3737C56.683 25.493 56.5353 25.6953 56.4065 25.8748L56.3998 25.8842C56.0307 26.396 55.8978 26.601 55.8414 26.8086L55.8374 26.8248L55.8334 26.8408C55.7716 27.1128 55.6575 27.2722 55.5475 27.4276L55.5408 27.4384C55.4374 27.5844 55.3314 27.7344 55.2924 27.9435C55.2039 28.4204 55.0133 28.7527 54.8898 28.8907C54.7798 28.8023 54.7193 28.6509 54.6187 28.3213C54.5771 28.0815 54.4912 27.5308 54.4791 27.2467V27.2294C54.4684 26.9895 54.4576 26.7417 54.4335 26.5018L54.3167 25.5224C54.267 25.1232 54.1597 24.05 54.1543 23.9924C54.0644 22.8777 53.9919 21.996 53.0403 21.3328C52.7409 21.1252 52.3436 21.0796 51.9598 21.0622C51.4699 21.0113 50.9102 21.0434 50.537 21.1453C50.384 21.1855 50.2458 21.2632 49.8485 21.507L49.725 21.5821C49.3586 21.7844 48.9009 22.0376 48.6915 22.4529C48.5077 22.8187 48.4419 23.3225 48.4419 23.8597C48.4419 24.4385 48.5184 25.0549 48.6083 25.576C48.6311 25.7047 48.6862 25.9056 49.168 27.1972C49.2056 27.3071 49.5613 28.3682 49.6713 28.7514L50.0458 29.9733V29.9773C50.176 30.3618 50.3706 30.9433 50.4243 31.2555C50.4981 31.6829 50.6149 32.0915 50.7276 32.4868L50.733 32.5068C50.835 32.8646 50.9397 33.2344 51.0122 33.6162C51.0122 33.6136 51.1156 33.9981 51.1156 33.9981L51.2471 34.4737L51.2417 34.4429C51.2699 34.6358 51.4672 35.3084 51.5384 35.5054C51.5384 35.5027 51.5504 35.5415 51.5504 35.5415C51.6108 35.7104 51.6726 35.8859 51.7141 36.0292C51.8994 36.683 52.1048 37.1734 52.3571 37.708C52.5651 38.1515 52.7235 38.4556 52.8282 38.6084C53.4053 39.4538 54.0067 39.975 55.2267 39.9683C55.8629 39.9656 56.5165 39.9026 56.9863 39.4699C57.4185 39.0706 57.7246 38.607 57.738 38.5869C58.0601 38.0952 58.303 37.4843 58.4238 36.8679C58.4667 36.6482 58.4789 36.4272 58.4789 36.2074C58.4789 36.056 58.4735 35.906 58.4667 35.7586C58.4614 35.6193 58.456 35.4786 58.456 35.3406C58.456 35.2026 58.4614 35.0712 58.4775 34.9467C58.5003 34.7738 58.5916 34.1682 58.8117 33.6203L58.8211 33.6002C58.9218 33.3751 59.0439 33.087 59.1056 32.8539C59.1727 32.598 59.3365 32.3541 59.5096 32.0955L59.7794 31.6695C59.9418 31.3827 60.5713 30.3122 60.6518 30.1903L60.8304 29.9344L60.8545 29.8983L61.6652 28.5651L61.6787 28.537C61.7484 28.4004 61.9041 28.0212 61.9685 27.8216C62.0048 27.7077 62.0478 27.5763 62.0854 27.4853C62.1202 27.445 62.1726 27.3861 62.1726 27.3861C62.4397 27.09 62.6222 26.8797 62.7149 26.6452C62.7149 26.6465 62.7001 26.6787 62.7001 26.6787L62.8276 26.4469C63.0034 26.1347 63.1229 25.9177 63.1806 25.7649C63.2571 25.5626 63.4611 25.233 63.5832 25.0361C63.6853 24.8726 63.7402 24.7829 63.7792 24.6877C63.8772 24.4546 63.9873 24.1907 64.1376 24.0286C64.2838 23.8718 64.4409 23.6186 64.6637 23.2501C64.8047 23.017 64.9939 22.7062 65.0717 22.6284C65.3885 22.3176 65.6596 21.8326 65.8408 21.503C65.8744 21.4534 65.9938 21.3074 66.0826 21.1989C66.4207 20.7862 66.6701 20.4727 66.7925 20.1873C66.8516 20.048 67.0262 19.9006 67.3104 19.7492L67.5186 19.6139C67.6717 19.4826 67.7894 19.3513 67.8932 19.236C68.0608 19.0511 68.1815 18.9172 68.4152 18.7912C68.588 18.6988 69.262 18.3853 69.3896 18.337C69.6407 18.2486 70.0942 18.0141 70.4149 17.7757C70.8232 17.4702 71.2524 16.8204 71.3626 16.618C71.6108 16.1639 71.7761 15.4792 71.8527 15.1135C71.9466 14.6552 72 14.3766 72 13.9451C72 13.8567 71.9977 13.7616 71.9936 13.6571C71.96 12.8746 71.3748 11.9073 70.6336 11.4075C70.1064 11.0511 69.1831 10.8703 68.2807 10.948L68.2824 10.9466Z" fill="#F590F7"/>
<path d="M60.9685 28.178C61.0168 28.0828 61.1578 27.7439 61.2128 27.5737C61.2745 27.3835 61.3322 27.204 61.3993 27.07C61.4423 26.9829 61.9013 26.5408 61.9765 26.3505C62.0141 26.258 62.3684 25.6658 62.4369 25.4836C62.5912 25.0777 63.0006 24.4935 63.0462 24.3823C63.163 24.1023 63.3093 23.7539 63.5576 23.4873C63.6582 23.3801 63.8314 23.0934 63.9857 22.8389C64.1911 22.4999 64.3683 22.2078 64.5173 22.0618C64.7562 21.8286 64.9964 21.3918 65.1561 21.1038C65.2675 20.9041 65.9199 20.2101 66.0646 19.8738C66.3012 19.3219 66.956 19.0525 67.0018 19.0137C67.1172 18.9146 67.2083 18.8127 67.3051 18.7055C67.4931 18.4978 67.685 18.2835 68.0435 18.0919C68.2418 17.9861 68.9789 17.6417 69.128 17.5895C69.2927 17.5318 69.6778 17.3376 69.944 17.1393C70.216 16.9343 70.5785 16.4037 70.6701 16.2376C70.8778 15.8571 71.0257 15.21 71.0808 14.95C71.191 14.4154 71.2269 14.2037 71.2055 13.6893C71.1828 13.152 70.7276 12.4218 70.1934 12.0614C69.8176 11.8082 69.0607 11.6729 68.3508 11.7345C67.7024 11.7894 67.2593 12.1123 66.8609 12.4392C66.8354 12.4607 65.9763 13.2539 65.8004 13.487C65.7521 13.5513 65.5629 13.8835 65.4917 13.9787C65.3266 14.1971 65.1508 14.4088 64.9817 14.6137C64.8112 14.8201 64.6367 15.0318 64.4716 15.2488C64.4341 15.297 64.3347 15.3989 64.0569 15.6789C63.8555 15.8812 63.52 16.2215 63.4677 16.2898C63.3442 16.4533 62.5322 17.5412 62.4248 17.6538C62.3133 17.769 61.959 18.2339 61.8342 18.4188C61.6315 18.7176 61.402 19.0552 61.2946 19.1972C61.1913 19.3353 61.0785 19.4612 60.9631 19.5871L60.1739 20.521C59.9833 20.8305 59.7458 21.2351 59.6665 21.3852C59.6505 21.416 59.3364 22.185 59.0478 22.5253C58.8344 22.7772 58.727 23.2274 58.676 23.4431C58.6666 23.486 58.574 23.7351 58.4666 23.9468C58.3619 24.1532 58.1123 24.7039 58.1123 24.7039C58.1123 24.7039 57.468 25.7101 57.4399 25.7597C57.3526 25.915 57.205 26.1187 57.0479 26.3357C56.8936 26.5501 56.6332 26.9092 56.605 27.0137C56.5084 27.437 56.3258 27.6943 56.1929 27.8832C56.1365 27.9636 56.0775 28.0453 56.0708 28.0869C55.9352 28.8117 55.5836 29.4388 55.1957 29.6464C55.0293 29.7362 54.8521 29.7496 54.6978 29.6839C54.1313 29.4454 53.9918 28.9872 53.8454 28.5009C53.8454 28.5009 53.7045 27.6983 53.6857 27.2763C53.675 27.0419 53.6656 26.8006 53.6428 26.5796C53.6092 26.258 53.569 25.9325 53.5286 25.619C53.475 25.1942 53.3636 24.0621 53.3636 24.0621C53.279 23.009 53.2321 22.4289 52.5864 21.9787C52.4106 21.8567 51.9328 21.8514 51.8804 21.8474C51.4885 21.8072 51.0214 21.8299 50.7436 21.905C50.6483 21.9305 50.2014 22.2185 50.1101 22.2694C49.8376 22.4195 49.498 22.607 49.4001 22.804C49.184 23.2341 49.18 24.2188 49.3893 25.4394C49.4148 25.5895 49.7652 26.5287 49.9142 26.9293C49.9142 26.9293 50.3101 28.1043 50.4322 28.529C50.5221 28.8425 50.7986 29.7228 50.7986 29.7228C50.9436 30.1555 51.1409 30.7477 51.2053 31.1162C51.2711 31.4994 51.3771 31.8718 51.4899 32.2658C51.5986 32.6463 51.71 33.0401 51.7919 33.4648C51.8053 33.5332 52.0133 34.2272 52.0281 34.3277C52.0429 34.4255 52.2093 35.0217 52.2858 35.2347C52.3543 35.429 52.4267 35.6287 52.4777 35.8096C52.6469 36.4098 52.8388 36.8667 53.075 37.3664C53.2576 37.7563 53.4079 38.0457 53.4857 38.1596C53.9568 38.8496 54.3367 39.1778 55.2238 39.1725C55.8775 39.1685 56.2319 39.0854 56.452 38.883C56.7526 38.6057 57.005 38.26 57.0774 38.1489C57.3446 37.7416 57.5472 37.2311 57.6479 36.7112C57.7016 36.4326 57.6895 36.1164 57.6774 35.7828C57.6653 35.4732 57.6533 35.1517 57.6949 34.8368C57.7204 34.6413 57.8224 33.9553 58.0814 33.3135C58.0948 33.28 58.2787 32.8848 58.3418 32.6463C58.4424 32.2644 58.6505 31.9522 58.8532 31.6508C58.9404 31.5208 59.0223 31.3975 59.0907 31.2756C59.2424 31.0064 59.9055 29.8755 59.9967 29.7429C60.0545 29.6585 60.1189 29.5633 60.1793 29.4816L60.9738 28.1753L60.9685 28.178Z" fill="black"/>
<path d="M53.8171 57.0764H16.8851C11.9823 57.0764 8.00781 61.0436 8.00781 65.9373C8.00781 70.8311 11.9823 74.7981 16.8851 74.7981H53.8171C58.7199 74.7981 62.6944 70.8311 62.6944 65.9373C62.6944 61.0436 58.7199 57.0764 53.8171 57.0764Z" fill="#F590F7"/>
<path d="M28.0376 61.605H20.7254C19.465 61.605 18.4436 62.6246 18.4436 63.8824V68.3308C18.4436 69.5887 19.465 70.6083 20.7254 70.6083H28.0376C29.298 70.6083 30.3194 69.5887 30.3194 68.3308V63.8824C30.3194 62.6246 29.298 61.605 28.0376 61.605ZM28.2014 68.2252H20.5629V63.9885H28.2014V68.2252Z" fill="#FFFCFF"/>
<path d="M41.1199 61.605H33.8076C32.5473 61.605 31.5259 62.6246 31.5259 63.8824V68.3308C31.5259 69.5887 32.5473 70.6083 33.8076 70.6083H41.1199C42.3803 70.6083 43.4016 69.5887 43.4016 68.3308V63.8824C43.4016 62.6246 42.3803 61.605 41.1199 61.605ZM41.2836 68.2252H33.6452V63.9885H41.2836V68.2252Z" fill="#FFFCFF"/>
<path d="M51.4348 70.2854H44.4701V68.8117H51.2509V68.2317H45.5613C44.8486 68.2317 44.2688 67.6529 44.2688 66.9413V65.931C44.2688 65.2199 44.8486 64.6411 45.5613 64.6411H52.5045V66.1148H45.7452V66.7592H51.4348C52.1475 66.7592 52.7273 67.338 52.7273 68.0496V68.9967C52.7273 69.7083 52.1475 70.2871 51.4348 70.2871V70.2854Z" fill="#FFFCFF"/>
<path d="M53.432 58.124H17.351C13.0524 58.124 9.56763 61.6026 9.56763 65.8938C9.56763 70.1844 13.0524 73.6631 17.351 73.6631H53.432C57.7307 73.6631 61.2155 70.1844 61.2155 65.8938C61.2155 61.6026 57.7307 58.124 53.432 58.124Z" stroke="white" stroke-width="3" stroke-miterlimit="10"/>
</svg>
