<svg width="80" height="80" viewBox="0 0 80 80" fill="none" xmlns="http://www.w3.org/2000/svg">
<path d="M17.6535 42.7423L15.8538 44.5195V47.7564C15.8538 48.8204 16.753 49.6777 17.8424 49.627C18.8624 49.5796 19.6456 48.7117 19.6456 47.7044V44.5207L17.846 42.7434C17.7934 42.6915 17.7073 42.6915 17.6547 42.7434M19.6468 42.0066V44.5207L21.963 46.8092C22.7032 47.5402 23.9037 47.5402 24.644 46.8092C25.3841 46.0795 25.3841 44.8927 24.644 44.1617L22.3265 41.8731H19.7807C19.7054 41.8731 19.6456 41.9333 19.6456 42.0066M14.9726 39.9057L13.1729 38.1285H9.89531C9.37276 38.1285 8.89924 38.3387 8.55486 38.6764C8.21167 39.0153 7.99763 39.4865 8.00002 40.0061C8.00361 41.0465 8.89804 41.8719 9.95271 41.8719H13.1729L14.9726 40.0947C15.0252 40.0427 15.0252 39.9577 14.9726 39.9057ZM17.8448 37.2582L19.6444 35.4809V32.2429C19.6444 31.7256 19.4316 31.2568 19.0896 30.9191C18.7165 30.5518 18.1892 30.3357 17.614 30.3759C16.6131 30.4455 15.8538 31.3029 15.8538 32.2936V35.4785L17.6535 37.2558C17.7061 37.3077 17.7922 37.3077 17.8448 37.2558M15.8538 37.9927V35.4785L13.5364 33.1899C13.1669 32.8239 12.6803 32.642 12.196 32.642C11.7117 32.642 11.225 32.8239 10.8555 33.1899C10.1153 33.9221 10.1153 35.1065 10.8555 35.8375L13.1729 38.1249H15.7187C15.794 38.1249 15.8538 38.0647 15.8538 37.9915M19.7807 38.1249H22.3265L24.6056 35.8741C25.3278 35.1609 25.3937 33.9989 24.7061 33.2537C23.9719 32.4578 22.7247 32.4365 21.963 33.1888L19.6468 35.4774V37.9915C19.6468 38.0659 19.7078 38.1249 19.7819 38.1249M15.7199 41.8696H13.1741L10.8567 44.1581C10.4872 44.5242 10.3019 45.0037 10.3019 45.4819C10.3019 45.9602 10.4872 46.4409 10.8567 46.8057C11.5957 47.5367 12.7974 47.5367 13.5376 46.8057L15.855 44.5171V42.003C15.855 41.9286 15.794 41.8696 15.7199 41.8696ZM53.3638 37.3869C52.595 37.3869 51.9504 37.6715 51.4494 38.0411V34.5303H48.8773V46.3487H51.4494V39.8372C51.7663 39.6105 52.1609 39.483 52.6094 39.483C53.5361 39.483 53.774 40.1773 53.774 41.0075V46.3487H56.3473V40.7914C56.3473 38.556 55.301 37.3869 53.3638 37.3869ZM59.9933 43.2654V39.64H62.2724V37.6585H59.9933V34.5291H57.506L57.4546 43.3162C57.4546 43.6208 57.4881 43.909 57.506 44.1794C57.695 45.9578 59.0151 46.5848 60.3698 46.5848C61.3815 46.5848 62.1706 46.3818 62.5474 46.1952V44.1121C62.1706 44.2987 61.6207 44.4675 61.0886 44.4675C60.5229 44.4675 59.992 44.1629 59.992 43.2654M45.0569 41.115C44.1218 40.8363 43.6806 40.6095 43.6806 40.1738C43.6806 39.79 44.0513 39.6164 44.422 39.5467C44.6695 39.4948 44.9516 39.4948 45.2339 39.5125C46.0099 39.5822 46.8912 39.8608 47.4735 40.1573V37.9277C46.945 37.701 45.8867 37.388 44.6157 37.388C42.5696 37.388 41.2638 38.4331 41.2638 40.0533C41.2638 41.6735 42.4286 42.4222 44.0691 42.8757C45.0748 43.1721 45.6046 43.3634 45.6046 43.8334C45.6046 44.3565 45.0043 44.5301 44.3526 44.5301C43.488 44.5301 42.2181 44.1641 41.3895 43.7283V46.011C42.0244 46.2897 43.0481 46.5861 44.3885 46.5861C46.6294 46.5861 48.0225 45.6107 48.0225 43.9373C48.0225 42.3691 47.0693 41.6723 45.058 41.115M69.3239 37.6585L67.3066 42.6997L65.2869 37.6585H62.612L66.4635 46.3475H68.1663L72 37.6585H69.325H69.3239ZM31.8317 37.1176V46.3487H34.387V39.6412H36.2907V37.6596H34.2842V37.4069C34.2842 36.526 34.8499 36.0524 35.7252 36.0524C36.1365 36.0524 36.4628 36.1198 36.5992 36.1705V34.0189C36.445 33.9847 35.999 33.9174 35.4668 33.9174C33.1685 33.9174 31.8305 35.188 31.8305 37.1188M38.8615 33.7485C38.0759 33.7485 37.4387 34.3779 37.4387 35.1538C37.4387 35.9296 38.0759 36.5591 38.8615 36.5591C39.6473 36.5591 40.2845 35.9296 40.2845 35.1538C40.2845 34.3779 39.6473 33.7485 38.8615 33.7485ZM25.6017 38.1273H22.3253L20.5257 39.9045C20.4731 39.9565 20.4731 40.0415 20.5257 40.0935L22.3253 41.8707H25.5479C26.5691 41.8707 27.4469 41.0961 27.4946 40.09C27.546 39.0153 26.678 38.1261 25.6005 38.1261M37.5749 46.3475H40.147V37.6596H37.5749V46.3487V46.3475Z" fill="#2262E9"/>
</svg>
