<svg width="80" height="80" viewBox="0 0 80 80" fill="none" xmlns="http://www.w3.org/2000/svg">
<path d="M22.0161 55.1834C22.0161 54.9212 23.9405 54.8294 23.9405 53.259C23.9405 51.6886 22.1052 50.1391 16.6783 50.1129C11.2513 50.0867 7.96102 52.3178 8.00035 54.1425C8.03967 55.9672 10.4753 58.041 11.6524 55.7733C11.6524 55.7733 10.2603 55.2489 10.5146 53.8489C10.9052 51.6886 13.4195 51.3163 13.4195 51.3163C13.4374 51.5388 13.3967 51.762 13.3015 51.9639C12.9508 52.883 12.7971 53.8655 12.8506 54.8477C12.9476 56.1822 13.0472 59.9524 12.4363 60.4426C13.1552 60.9211 14.0095 61.1548 14.8719 61.1085C16.6783 61.0299 16.9929 60.2064 17.2865 60.2064C17.5801 60.2064 18.8176 61.0692 21.3895 61.0692C23.9614 61.0692 25.0993 59.5616 25.0993 58.5653C25.0993 55.9882 22.0161 55.4376 22.0161 55.1834ZM19.2738 59.3832C18.932 59.3832 18.5978 59.2822 18.3137 59.0921C18.0294 58.9021 17.808 58.6322 17.6773 58.3161C17.5466 58.0004 17.5126 57.6527 17.5794 57.3176C17.6463 56.9824 17.8111 56.6745 18.053 56.433C18.2949 56.1915 18.603 56.0271 18.9383 55.9608C19.2737 55.8944 19.6211 55.929 19.9368 56.0602C20.2524 56.1913 20.5221 56.4132 20.7116 56.6977C20.9011 56.982 21.002 57.3163 21.0015 57.6583C21.0008 58.1161 20.8185 58.5549 20.4945 58.8784C20.1706 59.2018 19.7315 59.3832 19.2738 59.3832ZM19.2738 54.7324C18.932 54.7324 18.598 54.6311 18.3139 54.4412C18.0298 54.2514 17.8083 53.9815 17.6776 53.6658C17.5468 53.3502 17.5126 53.0028 17.5793 52.6676C17.6459 52.3325 17.8105 52.0246 18.0521 51.783C18.2937 51.5414 18.6016 51.3768 18.9367 51.3102C19.2718 51.2435 19.6192 51.2777 19.9349 51.4085C20.2506 51.5393 20.5205 51.7607 20.7103 52.0448C20.9002 52.3289 21.0015 52.663 21.0015 53.0047C21.0015 53.2316 20.9568 53.4563 20.87 53.6658C20.7831 53.8755 20.6559 54.0659 20.4955 54.2264C20.335 54.3868 20.1446 54.5141 19.9349 54.6009C19.7253 54.6877 19.5007 54.7324 19.2738 54.7324ZM34.9596 58.3869C34.9596 57.5482 35.0172 54.6642 35.0172 54.5148C35.0172 54.3653 34.9596 54.2526 34.7079 54.1478C34.3071 53.9383 33.8596 53.8345 33.4075 53.8463C32.7154 53.8463 31.7008 54.2291 31.685 54.3706C31.6693 54.5122 31.685 54.811 31.4491 54.811C31.2131 54.811 30.9195 54.1084 29.2363 54.1084C27.5532 54.1084 25.2382 55.1702 25.7914 57.9075C26.0903 59.3754 28.282 61.258 30.285 60.925C31.6536 60.7047 31.8581 59.8501 32.1674 59.8501C32.4768 59.8501 32.954 60.8516 34.215 60.8645C35.4761 60.8779 36.1577 60.3035 36.0712 59.7162C35.9375 58.8356 34.9648 59.394 34.9517 58.3765L34.9596 58.3869ZM28.0303 58.7959C27.6888 58.7954 27.355 58.694 27.0712 58.5035C26.7874 58.3135 26.5664 58.0436 26.436 57.7279C26.3057 57.4122 26.2718 57.0645 26.3388 56.7297C26.4057 56.3947 26.5705 56.0871 26.8122 55.8458C27.054 55.6044 27.3618 55.4401 27.6969 55.3736C28.0319 55.3072 28.3792 55.3416 28.6947 55.4724C29.0103 55.6033 29.28 55.8247 29.4697 56.1088C29.6594 56.3928 29.7607 56.7268 29.7607 57.0684C29.7607 57.296 29.7158 57.5214 29.6284 57.7313C29.5411 57.9416 29.4131 58.1321 29.2519 58.2927C29.0906 58.4534 28.8992 58.5804 28.6887 58.6667C28.4782 58.7531 28.2527 58.7972 28.0251 58.7959H28.0303ZM41.5794 54.1084C40.4731 54.1084 40.2686 54.7403 39.8727 54.7403C39.7547 54.7403 39.7233 54.5935 39.7233 54.3863V50.7605C39.7233 50.2178 38.1502 49.877 37.8409 49.877C36.7921 49.877 36.3071 50.7028 36.3071 50.9519C36.3071 51.1144 36.2494 54.4414 36.2494 55.65C36.2494 56.8585 35.9008 58.5838 37.7806 59.9628C39.8124 61.4545 43.2364 61.0718 44.6521 59.8449C45.963 58.7017 45.5304 56.8036 44.8513 55.7287C44.1723 54.6538 43.0397 54.1084 41.5794 54.1084ZM42.9139 58.7855C42.5722 58.7855 42.2381 58.6845 41.954 58.4944C41.6699 58.3044 41.4484 58.0349 41.3177 57.7192C41.1869 57.4035 41.1527 57.0559 41.2194 56.7208C41.286 56.3857 41.4506 56.0778 41.6922 55.8362C41.9338 55.5946 42.2417 55.43 42.5768 55.3634C42.912 55.2967 43.2594 55.3309 43.5751 55.4617C43.8908 55.5924 44.1606 55.8139 44.3505 56.098C44.5403 56.3821 44.6416 56.7162 44.6416 57.058C44.643 57.2856 44.5993 57.5115 44.5131 57.7222C44.4269 57.933 44.2999 58.1247 44.1393 58.2863C43.9787 58.4478 43.7878 58.5761 43.5775 58.6637C43.3672 58.751 43.1416 58.7959 42.9139 58.7959V58.7855ZM54.6827 54.853C54.5203 54.7639 53.6523 54.2788 53.0494 54.2788C52.5653 54.307 52.0997 54.4756 51.7097 54.7639C51.6363 54.8361 51.5797 54.9235 51.5443 55.0201C51.5085 55.1165 51.4942 55.2197 51.5028 55.3223C51.5028 55.4403 51.5473 56.4129 51.5028 57.8993C51.4579 59.3858 50.9442 59.8423 50.4277 59.8423C50.2374 59.8393 50.0556 59.7624 49.9209 59.6281C49.7863 59.4933 49.7095 59.3115 49.7068 59.1211C49.7068 58.8723 49.7356 55.5871 49.7356 55.338C49.7356 55.0889 49.7068 54.9107 49.5154 54.8137C49.324 54.7167 48.1757 54.2684 47.806 54.2684C46.9225 54.2684 46.6892 54.5489 46.482 54.7927C46.365 54.9812 46.3177 55.2048 46.3483 55.4246V58.2509C46.3483 59.2994 46.5555 60.4292 47.9397 61.2109C49.324 61.9922 50.5903 61.182 50.9128 60.9483C51.068 60.8188 51.2575 60.7371 51.4579 60.7125C51.5227 61.705 51.4929 62.7013 51.369 63.6881C51.1645 64.9233 50.3543 65.0412 49.8667 65.0412C49.3791 65.0412 49.3424 64.9099 49.3659 64.763C49.3896 64.6162 49.6281 64.6296 49.8379 64.2388C49.9637 63.9978 49.6911 63.3396 49.1169 62.957C48.5428 62.5739 47.5438 62.5005 47.1296 63.0304C46.7154 63.5599 46.8937 64.8995 49.1457 65.6203C51.3979 66.3415 52.9604 65.5918 53.7991 64.8339C54.6382 64.0764 54.8296 62.8179 54.8296 62.1835C54.8296 61.5491 54.8874 56.4575 54.8874 55.7051C54.8874 54.9527 54.8455 54.9684 54.6827 54.8818V54.853Z" fill="#B5000B"/>
<path d="M58.7751 51.8353L57.9204 54.2368H56.8455L56.5678 55.1202H57.5693C57.5693 55.1202 56.6857 57.6815 56.4784 58.3004C56.2715 58.9193 56.0068 60.3742 56.9215 60.9223C57.8366 61.4699 58.9349 61.5066 60.1018 61.0531C61.6172 60.4658 62.5164 59.4643 63.248 57.6241L62.4218 57.3883C62.4218 57.3883 61.9658 58.5522 61.5097 58.9482C61.0532 59.3438 60.6023 59.6375 60.17 59.4932C59.7373 59.349 59.8893 58.7854 60.1411 58.0067C60.3929 57.228 61.1897 55.1229 61.1897 55.1229H62.367L62.7051 54.2263H61.7455C61.6276 54.2263 61.5697 54.1529 61.6565 53.8723C61.7429 53.5918 62.6131 51.2952 62.6131 51.2952L58.7855 51.8195L58.7751 51.8353ZM65.3296 54.1634H68.9815C68.9815 54.1634 67.5896 57.834 67.495 58.138C67.4004 58.442 67.1409 59.3753 68.0193 59.4332C68.5436 59.4699 69.1832 59.0527 69.4769 58.6463C69.9044 58.0434 69.5818 57.6737 69.6397 57.0734C69.6971 56.4731 70.164 54.9236 70.5678 54.512C70.9716 54.1004 71.863 53.8645 71.9649 54.6431C72.0672 55.4218 71.9809 56.2162 71.2311 57.5269C70.2871 59.1918 68.5358 60.7072 67.4453 61.0454C66.3544 61.3835 65.2536 61.5696 64.3989 60.854C63.5442 60.1384 63.6121 59.1313 64.0003 57.97C64.3881 56.8087 65.34 54.1712 65.34 54.1712L65.3296 54.1634Z" fill="#F29E17"/>
<path d="M36.4854 42.0984C36.4113 42.1882 36.3288 42.2707 36.239 42.3448C36.239 42.3448 35.7732 43.7078 34.992 44.3187C34.3181 44.843 30.9721 47.3292 28.2979 48.6374C27.2492 52.0142 30.2414 51.8764 32.1848 51.0127C34.5889 50.4333 36.7194 46.9099 38.231 43.8868C37.8857 43.0818 37.2784 42.4705 36.4854 42.0984Z" fill="#FCB740"/>
<path d="M37.4738 40.3259C37.9818 40.6147 38.4689 40.9388 38.9315 41.296C39.0757 40.3233 39.0476 39.433 39.0948 38.7042C38.6629 38.2723 38.0024 38.2321 37.4738 38.114C37.572 38.8571 37.7101 39.6146 37.4738 40.3259ZM36.7195 41.5114C36.6241 41.6636 36.4052 42.0234 36.2876 42.1592C37.079 42.5179 37.8734 43.0947 38.231 43.8867C38.231 43.8867 38.4181 43.5623 38.447 43.4548C38.231 42.807 37.3673 41.7273 36.7195 41.5114Z" fill="#FEDEA1"/>
<path d="M37.1514 37.6246C38.2311 36.9768 38.6033 36.7154 38.6033 35.6812C38.9161 35.8403 39.1246 35.9198 39.9585 36.3176C39.1246 37.0336 39.0948 37.8292 39.0948 38.7043C38.3651 38.2269 37.5609 38.2269 37.2482 38.0678C36.9354 37.9087 37.3599 37.9428 37.1514 37.6246Z" fill="#FCB740"/>
<path d="M37.1514 40.6477C37.0207 40.9662 36.9046 41.2212 36.7195 41.5114C37.3985 41.889 38.0878 42.8204 38.447 43.4549C38.6629 42.807 38.8548 41.9858 38.9316 41.2958C38.5062 40.9707 37.8404 40.4664 37.3673 40.2158L37.1514 40.6477Z" fill="#C72027"/>
<path d="M28.7626 26.0866C28.7486 26.0536 28.739 26.0282 28.7329 26.0095C28.882 25.7201 29.3912 24.7907 30.1044 24.0036C30.4861 23.5824 30.9158 23.2139 31.3688 23.0015C31.8165 22.7915 32.2797 22.7364 32.7523 22.9254C33.7754 23.3347 34.6096 24.213 35.2214 25.0643C35.7748 25.8342 36.1312 26.56 36.2738 26.8503C36.2882 26.8795 36.3003 26.9043 36.3103 26.9243L36.3315 26.9667L36.3685 26.9964C36.4536 27.0645 36.5234 27.1802 36.5695 27.3627C36.6156 27.5451 36.6332 27.7758 36.6283 28.0486C36.6194 28.5458 36.5372 29.1406 36.4507 29.7663C36.442 29.8294 36.4332 29.8928 36.4245 29.9564C36.3304 30.642 36.2398 31.3546 36.2572 31.9658C36.2744 32.5656 36.3964 33.1378 36.7971 33.4717C37.4367 34.0047 37.9665 34.5351 38.3341 34.9816C38.5183 35.2052 38.6585 35.4038 38.7515 35.5682C38.8492 35.7406 38.8787 35.8479 38.8787 35.8971C38.8787 35.9679 38.8482 36.129 38.7727 36.3456C38.6995 36.5555 38.5911 36.7978 38.4516 37.0261C38.1636 37.4973 37.7893 37.8381 37.3715 37.8405C37.3688 37.8398 37.3583 37.8371 37.3383 37.8276C37.3078 37.8133 37.2666 37.7886 37.2141 37.7506C37.1092 37.6745 36.977 37.5578 36.8197 37.4013C36.5058 37.0895 36.1111 36.639 35.6635 36.0911C34.7695 34.9966 33.6784 33.5299 32.6263 32.0472C31.5745 30.5649 30.564 29.0699 29.8313 27.9197C29.4647 27.3441 29.1694 26.8575 28.9735 26.5031C28.8751 26.3252 28.8046 26.1854 28.7626 26.0866Z" fill="#ADD154" stroke="#C8DE93"/>
<path d="M32.4268 22.7604C33.3129 22.7971 35.2713 23.8851 36.8051 27.5949C36.9099 27.3773 37.0227 27.1649 37.1459 26.9578C35.7721 23.366 34.0628 20.6211 32.12 20.6211C30.062 20.6211 28.2609 23.9114 27.7732 24.8866C28.0747 25.2091 28.4024 25.5867 28.7563 26.0009C29.0395 25.4083 30.4238 22.6765 32.4268 22.7604Z" fill="#72BC41"/>
<path d="M35.0041 33.8213C35.661 32.8821 36.0083 31.7611 35.9977 30.615C35.9977 27.9067 34.1625 25.7097 31.9235 25.7097C31.0355 25.7181 30.1815 26.0532 29.5247 26.6509" fill="#CF2027"/>
<path d="M18.4637 30.8143C18.49 28.5386 18.9094 23.2454 22.205 23.2454C23.1829 23.2454 25.2331 23.6701 27.9728 26.5068C30.5604 29.1757 35.4394 36.0184 36.087 37.2008L18.4637 30.8143ZM18.4637 30.8143C18.4297 33.7375 20.8259 36.6476 24.8817 38.6139L18.4637 30.8143ZM29.1062 46.51L29.1121 46.516C27.7 47.2995 25.7848 48.1561 24.1791 48.1561H24.176L24.1729 48.1561C23.6154 48.1723 23.0642 48.0348 22.5796 47.7588C22.1583 47.5001 21.9062 47.087 21.7745 46.576C21.6417 46.0608 21.6352 45.4589 21.6988 44.8542C21.8257 43.6454 22.2259 42.4798 22.3682 42.0944C22.572 41.5441 22.9926 41.0019 23.4078 40.5639C23.7456 40.2075 24.0692 39.9309 24.2441 39.7883C28.7242 41.3699 30.7283 41.8218 35.3096 42.4552C35.2784 42.4902 35.2438 42.527 35.2055 42.5657C35.0571 42.7157 34.865 42.8826 34.6375 43.062C34.1826 43.4208 33.5987 43.8204 32.9681 44.2241C31.7073 45.0314 30.2761 45.8453 29.3526 46.37L29.1062 46.51ZM36.3053 39.9098L36.2284 40.0643C36.0033 40.4756 35.7607 40.8772 35.5013 41.2679C34.4175 41.1364 29.1644 40.4183 24.9752 38.4193C20.9495 36.4674 18.6471 33.6153 18.6797 30.8168C18.6927 29.6849 18.804 27.8191 19.3138 26.2429C19.8277 24.6544 20.7077 23.4613 22.205 23.4613C23.1126 23.4613 25.1095 23.853 27.8174 26.6568C29.1003 27.98 30.9598 30.3478 32.5839 32.5398C34.2102 34.7348 35.5823 36.7288 35.8976 37.3045L35.898 37.3052C36.1712 37.8 36.3455 38.3149 36.4134 38.7783C36.482 39.2459 36.4396 39.6402 36.3053 39.9098Z" fill="#ADD154"/>
<path d="M18.4637 30.8143C18.49 28.5386 18.9094 23.2454 22.205 23.2454C23.1829 23.2454 25.2331 23.6701 27.9728 26.5068C30.5604 29.1757 35.4394 36.0184 36.087 37.2008L18.4637 30.8143ZM18.4637 30.8143C18.4297 33.7375 20.8259 36.6476 24.8817 38.6139L18.4637 30.8143ZM29.1062 46.51L29.1121 46.516C27.7 47.2995 25.7848 48.1561 24.1791 48.1561H24.176L24.1729 48.1561C23.6154 48.1723 23.0642 48.0348 22.5796 47.7588C22.1583 47.5001 21.9062 47.087 21.7745 46.576C21.6417 46.0608 21.6352 45.4589 21.6988 44.8542C21.8257 43.6454 22.2259 42.4798 22.3682 42.0944C22.572 41.5441 22.9926 41.0019 23.4078 40.5639C23.7456 40.2075 24.0692 39.9309 24.2441 39.7883C28.7242 41.3699 30.7283 41.8218 35.3096 42.4552C35.2784 42.4902 35.2438 42.527 35.2055 42.5657C35.0571 42.7157 34.865 42.8826 34.6375 43.062C34.1826 43.4208 33.5987 43.8204 32.9681 44.2241C31.7073 45.0314 30.2761 45.8453 29.3526 46.37L29.1062 46.51ZM36.3053 39.9098L36.2284 40.0643C36.0033 40.4756 35.7607 40.8772 35.5013 41.2679C34.4175 41.1364 29.1644 40.4183 24.9752 38.4193C20.9495 36.4674 18.6471 33.6153 18.6797 30.8168C18.6927 29.6849 18.804 27.8191 19.3138 26.2429C19.8277 24.6544 20.7077 23.4613 22.205 23.4613C23.1126 23.4613 25.1095 23.853 27.8174 26.6568C29.1003 27.98 30.9598 30.3478 32.5839 32.5398C34.2102 34.7348 35.5823 36.7288 35.8976 37.3045L35.898 37.3052C36.1712 37.8 36.3455 38.3149 36.4134 38.7783C36.482 39.2459 36.4396 39.6402 36.3053 39.9098Z" stroke="#C8DE93"/>
<path d="M26.1557 46.7649C27.524 46.7649 28.6333 45.6556 28.6333 44.2873C28.6333 42.919 27.524 41.8098 26.1557 41.8098C24.7874 41.8098 23.6782 42.919 23.6782 44.2873C23.6782 45.6556 24.7874 46.7649 26.1557 46.7649Z" fill="#CF2027"/>
<path d="M37.3296 37.125C37.0124 36.5586 32.2146 29.8601 29.0083 26.0272L28.7461 25.6864H28.7304C28.1406 24.9578 27.4945 24.2767 26.7981 23.6493C24.4779 21.7642 22.6217 21.6437 21.982 21.6777C19.0981 21.8219 17.6876 25.9144 17.2236 27.3066C16.7595 28.6987 15.7685 31.4961 17.5697 34.4849C19.3708 37.4736 23.0517 38.9234 23.0517 38.9234L23.0228 39.2145C22.2545 39.7245 21.5699 40.3507 20.9936 41.0707C20.0053 42.2897 19.0772 46.8384 20.4981 48.9358C21.9191 51.0332 24.7637 50.0081 27.5217 49.0224C30.2798 48.0366 34.6895 44.8276 35.4734 44.2062C36.2573 43.5849 36.3439 42.2321 36.3439 42.2321C36.3439 42.2321 36.8944 41.8257 37.3925 40.6355C37.8907 39.4452 37.736 37.8538 37.3296 37.125ZM29.4645 46.5632L29.4225 46.5894C27.9936 47.4021 25.9251 48.3721 24.179 48.3721C23.5808 48.3895 22.9894 48.2417 22.4697 47.9448C20.5348 46.7624 21.8772 42.801 22.1656 42.0197C22.6034 40.8373 23.9431 39.7493 24.2026 39.5448C28.8614 41.1939 30.8303 41.6264 35.6911 42.2897C35.2034 43.2913 31.3049 45.5092 29.4592 46.5579L29.4645 46.5632ZM36.5038 40.0089C36.2309 40.5205 35.9317 41.0175 35.6071 41.498C34.9176 41.4193 29.315 40.7298 24.8817 38.6141C20.8259 36.6478 18.4296 33.7377 18.4637 30.8144C18.4899 28.5388 18.9093 23.2455 22.2049 23.2455C23.1828 23.2455 25.233 23.6703 27.9727 26.507C30.5603 29.1759 35.4394 36.0186 36.0869 37.201C36.6559 38.2313 36.821 39.3587 36.4985 40.0062L36.5038 40.0089Z" fill="#72BC41"/>
<path d="M25.073 36.7763C27.7821 36.7763 29.9782 34.5801 29.9782 31.8711C29.9782 29.162 27.7821 26.9658 25.073 26.9658C22.3639 26.9658 20.1677 29.162 20.1677 31.8711C20.1677 34.5801 22.3639 36.7763 25.073 36.7763Z" fill="#CF2027"/>
<path d="M52.4254 19.1004C52.2073 19.0999 51.9931 19.1589 51.8061 19.271C51.6191 19.3831 51.4666 19.5442 51.3643 19.7368C51.2619 19.9294 51.2144 20.1462 51.2261 20.3639C51.2381 20.5817 51.309 20.792 51.4316 20.9723C51.1469 21.5776 50.7808 22.1412 50.3437 22.6476C49.7355 23.2951 48.9096 24.3569 48.616 24.4356H48.5741C47.5372 23.7338 46.3614 23.2634 45.1265 23.0566C45.5177 21.6912 46.0566 20.3725 46.7336 19.124C47.4205 17.9285 47.7823 17.2888 47.9475 16.9715C48.0342 16.9854 48.1218 16.9924 48.2097 16.9925C48.5932 16.9961 48.9628 16.8489 49.2388 16.5826C49.5149 16.3164 49.6754 15.9523 49.6857 15.5689C49.6857 15.1761 49.5296 14.7993 49.2518 14.5215C48.974 14.2437 48.5973 14.0876 48.2044 14.0876C47.8116 14.0876 47.4348 14.2437 47.157 14.5215C46.8792 14.7993 46.7231 15.1761 46.7231 15.5689C46.7229 15.8745 46.8223 16.1718 47.0063 16.4157C46.6655 17.2206 45.5591 19.8555 45.2602 20.6341C44.9849 21.3525 44.5209 22.4981 44.3269 22.9727C44.1748 22.9596 44.0201 22.9543 43.8655 22.9517C42.517 22.9398 41.1885 23.2786 40.0106 23.9349C38.8326 24.5913 37.8454 25.5426 37.146 26.6955C37.0236 26.9035 36.9109 27.1159 36.8078 27.3326C36.7606 27.4296 36.716 27.5293 36.6741 27.6288C36.3492 28.399 36.1654 29.2214 36.1313 30.0566C36.0448 32.2824 37.18 34.1675 38.9523 35.439C40.404 36.4495 42.1033 37.0458 43.868 37.1641C48.7759 37.5364 51.6152 35.8847 51.8566 30.4105C51.9507 28.2633 50.8864 26.3049 49.2347 24.9311C49.2977 24.5352 49.7931 24.1446 50.5089 23.4026C51.3349 22.5375 52.4331 21.5019 52.4331 21.5019C52.7519 21.5019 53.0572 21.3754 53.2822 21.1502C53.5076 20.925 53.6342 20.6196 53.6342 20.3012C53.6342 19.9827 53.5076 19.6773 53.2822 19.4521C53.0572 19.2269 52.7519 19.1004 52.4331 19.1004H52.4254Z" fill="#FCB340" stroke="#FCB340" stroke-width="2" stroke-miterlimit="10"/>
<path d="M44.2772 24.0207C46.0338 22.9668 47.9481 25.5323 48.38 26.612C49.2437 25.5323 50.7553 26.396 51.4031 27.6917C52.8386 30.5629 50.9712 32.8741 49.8915 32.6582C48.8118 32.4422 48.6444 31.6446 47.5162 31.3626C45.7887 30.9307 44.4931 31.7944 42.7656 30.9307C40.6062 29.851 42.1178 25.3164 44.2772 24.0207Z" fill="white"/>
<mask id="mask0_656_2738" style="mask-type:alpha" maskUnits="userSpaceOnUse" x="41" y="23" width="11" height="10">
<path d="M44.2772 24.0207C46.0338 22.9668 47.9481 25.5323 48.38 26.612C49.2437 25.5323 50.7553 26.396 51.4031 27.6917C52.8386 30.5629 50.9712 32.8741 49.8915 32.6582C48.8118 32.4422 48.6444 31.6446 47.5162 31.3626C45.7887 30.9307 44.4931 31.7944 42.7656 30.9307C40.6062 29.851 42.1178 25.3164 44.2772 24.0207Z" fill="white"/>
</mask>
<g mask="url(#mask0_656_2738)">
<path d="M52.0508 29.2032C50.7551 28.3395 44.0611 26.8279 41.6858 27.0439C41.038 24.4526 44.2771 22.2933 48.3799 24.2367C49.7598 24.8903 53.3464 30.067 52.0508 29.2032Z" fill="#FFE09F"/>
</g>
<path d="M44.5184 27.5162C44.3072 27.5131 44.0999 27.5729 43.9228 27.6879C43.7457 27.803 43.6068 27.9681 43.5239 28.1623C43.4409 28.3565 43.4175 28.571 43.4568 28.7785C43.4961 28.986 43.5962 29.1771 43.7444 29.3276C43.8926 29.478 44.0822 29.581 44.2891 29.6233C44.496 29.6657 44.7109 29.6456 44.9063 29.5655C45.1017 29.4854 45.2689 29.349 45.3865 29.1736C45.5042 28.9982 45.567 28.7918 45.5671 28.5807C45.5692 28.4416 45.5436 28.3036 45.4918 28.1745C45.44 28.0454 45.3631 27.928 45.2656 27.8289C45.168 27.7299 45.0517 27.6512 44.9234 27.5976C44.7951 27.5439 44.6574 27.5162 44.5184 27.5162ZM44.9851 29.0159C44.9194 29.0159 44.8553 28.9965 44.8006 28.9601C44.746 28.9237 44.7033 28.872 44.678 28.8115C44.6526 28.7509 44.6457 28.6843 44.6582 28.6198C44.6706 28.5554 44.7018 28.4961 44.7478 28.4493C44.7939 28.4026 44.8527 28.3704 44.917 28.357C44.9812 28.3436 45.048 28.3494 45.1089 28.3738C45.1698 28.3982 45.2222 28.4401 45.2594 28.4941C45.2966 28.5482 45.317 28.6121 45.318 28.6777C45.3187 28.7218 45.3106 28.7657 45.2942 28.8067C45.2778 28.8477 45.2533 28.885 45.2224 28.9165C45.1914 28.948 45.1544 28.973 45.1137 28.99C45.0729 29.0071 45.0292 29.0159 44.9851 29.0159Z" fill="black"/>
<path d="M49.0669 28.8795C48.8864 28.8743 48.7086 28.923 48.556 29.0195C48.4034 29.1159 48.283 29.2557 48.2104 29.4209C48.1377 29.5862 48.1159 29.7693 48.1479 29.947C48.1799 30.1246 48.2642 30.2887 48.3899 30.4182C48.5156 30.5477 48.6772 30.6367 48.8538 30.6739C49.0305 30.7111 49.2142 30.6947 49.3815 30.6269C49.5488 30.5591 49.692 30.4429 49.7929 30.2932C49.8938 30.1435 49.9477 29.9672 49.9478 29.7866C49.9506 29.5497 49.8595 29.3213 49.6945 29.1514C49.5294 28.9814 49.3038 28.8836 49.0669 28.8795ZM49.4234 30.1458C49.3633 30.1458 49.3045 30.128 49.2545 30.0946C49.2045 30.0611 49.1655 30.0136 49.1425 29.958C49.1194 29.9025 49.1134 29.8414 49.1252 29.7824C49.1369 29.7234 49.1659 29.6692 49.2084 29.6266C49.251 29.5841 49.3051 29.5552 49.3641 29.5434C49.4231 29.5317 49.4842 29.5377 49.5398 29.5607C49.5954 29.5837 49.6429 29.6227 49.6763 29.6727C49.7097 29.7227 49.7276 29.7815 49.7276 29.8417C49.7276 29.9223 49.6955 29.9997 49.6385 30.0567C49.5815 30.1138 49.5041 30.1458 49.4234 30.1458Z" fill="black"/>
<path d="M41.8676 27.5581C41.8676 27.5581 42.8245 24.3177 44.9953 24.0293C45.0633 24.0228 45.1318 24.0228 45.1998 24.0293C46.6156 24.1027 47.5961 25.4844 47.9919 26.1581C48.1202 26.38 48.1675 26.6395 48.1257 26.8922L47.4728 30.8248L47.5646 30.8589L48.5688 26.9578C48.6259 26.7528 48.7611 26.5783 48.9454 26.472C49.1298 26.3656 49.3484 26.3358 49.5545 26.3888C50.055 26.4751 50.5196 26.7049 50.8919 27.0502C51.2643 27.3956 51.5282 27.8416 51.6517 28.3342C51.5615 27.8001 51.33 27.2998 50.9815 26.8851C50.6331 26.4702 50.1803 26.156 49.6699 25.9746C49.101 25.8226 48.8545 25.9065 48.5504 26.1083C48.5216 26.1293 47.1451 23.5679 45.0425 23.6806C45.0425 23.6806 42.8927 23.6806 41.865 27.5713L41.8676 27.5581Z" fill="#F5BF65"/>
<path d="M48.6134 31.8919C48.5086 32.3009 47.8688 32.4923 47.1872 32.3166C46.5055 32.141 46.0363 31.6691 46.1385 31.2679C46.2408 30.8668 46.8804 30.6676 47.5647 30.8432C48.249 31.0188 48.7183 31.4829 48.6134 31.8919Z" fill="#DE3A81"/>
<path d="M48.3801 31.5785C48.3801 31.3625 48.1642 31.5785 47.9482 31.3625C47.9482 31.5785 47.8619 32.0535 47.5164 32.2263H47.7323C47.9482 32.2263 48.3801 31.7944 48.3801 31.5785Z" fill="#EC83A0"/>
<path d="M42.9817 34.3855C42.9817 35.897 47.3004 36.9767 47.3004 35.6811C47.3004 35.4652 43.8454 34.6014 42.9817 34.3855Z" fill="#EE7294"/>
<path d="M45.1632 33.866C43.1943 33.2919 41.2148 31.0005 41.2148 31.0005C41.2148 31.0005 41.3145 31.2993 42.0591 32.2746C42.4969 32.8462 42.2399 34.0076 43.1314 35.0877C43.9782 36.1181 46.1437 36.3645 46.2171 36.3645C46.3928 36.3645 47.0037 36.3986 47.2239 36.0552C47.3733 35.7746 47.3497 35.3578 47.3995 35.1428C47.4991 34.7286 48.283 34.6814 48.7104 34.6499C49.0679 34.608 49.4062 34.4652 49.6857 34.2383C49.6857 34.2383 48.6553 34.8859 45.1632 33.866ZM47.1032 35.8821C47.0875 36.0866 46.7965 36.2413 46.5789 36.2361C45.8317 36.2151 44.4239 36.0184 43.4014 35.0668C43.2802 34.9609 43.1672 34.8461 43.0632 34.7233C43.5707 34.7546 44.0753 34.8221 44.5733 34.9252C45.622 35.1035 46.1123 35.4705 46.0598 35.7353C46.0205 35.9398 45.989 36.1915 46.0598 36.1915C46.2381 36.1915 46.0965 35.6042 46.5291 35.6042C46.7275 35.6121 46.9229 35.6556 47.1059 35.7327C47.1137 35.7851 47.1085 35.8349 47.1032 35.8821Z" fill="#D12426"/>
<path d="M48.2937 16.8085C49.0092 16.8085 49.5893 16.2284 49.5893 15.5129C49.5893 14.7974 49.0092 14.2173 48.2937 14.2173C47.5781 14.2173 46.998 14.7974 46.998 15.5129C46.998 16.2284 47.5781 16.8085 48.2937 16.8085Z" fill="#D12028"/>
<path d="M52.3963 21.4294C52.9926 21.4294 53.476 20.946 53.476 20.3497C53.476 19.7534 52.9926 19.27 52.3963 19.27C51.8 19.27 51.3167 19.7534 51.3167 20.3497C51.3167 20.946 51.8 21.4294 52.3963 21.4294Z" fill="#D12028"/>
</svg>
