<svg width="80" height="80" viewBox="0 0 80 80" fill="none" xmlns="http://www.w3.org/2000/svg">
<path fill-rule="evenodd" clip-rule="evenodd" d="M53.2346 72C54.0397 72 54.7728 71.3819 54.7728 69.9451C54.7728 68.5045 54.0355 67.8907 53.2346 67.8907C52.4285 67.8907 51.6959 68.5083 51.6959 69.9451C51.6959 71.3776 52.4285 72 53.2346 72ZM53.2345 68.4533C53.6835 68.4533 54.0439 68.8464 54.0439 69.9451C54.0397 71.0432 53.6797 71.4363 53.2345 71.4363C52.785 71.4363 52.4247 71.0432 52.4247 69.9451C52.4247 68.8464 52.785 68.4533 53.2345 68.4533ZM49.3355 69.9451C49.3355 71.3819 48.6025 72 47.7969 72C46.9913 72 46.2544 71.3776 46.2544 69.9451C46.2544 68.5083 46.9913 67.8907 47.7969 67.8907C48.6025 67.8907 49.3355 68.5045 49.3355 69.9451ZM48.6067 69.9451C48.6067 68.8464 48.2463 68.4533 47.7969 68.4533C47.3478 68.4533 46.987 68.8464 46.987 69.9451C46.987 71.0432 47.3478 71.4363 47.7969 71.4363C48.2463 71.4363 48.6067 71.0432 48.6067 69.9451ZM41.8902 69.5707H43.036V67.9451H43.7487V71.9397H43.036V70.1771H41.8902V71.9397H41.1817V67.9451H41.8902V69.5707ZM37.1333 72C37.9389 72 38.6757 71.3819 38.6757 69.9451C38.6757 68.5045 37.9351 67.8907 37.1333 67.8907C36.3281 67.8907 35.5908 68.5083 35.5908 69.9451C35.5908 71.3776 36.3281 72 37.1333 72ZM37.1333 68.4533C37.5828 68.4533 37.9431 68.8464 37.9431 69.9451C37.939 71.0432 37.5785 71.4363 37.1333 71.4363C36.6839 71.4363 36.3239 71.0432 36.3239 69.9451C36.3239 68.8464 36.6839 68.4533 37.1333 68.4533ZM33.2386 69.9451C33.2386 71.3819 32.5017 72 31.6961 72C30.8905 72 30.1536 71.3776 30.1536 69.9451C30.1536 68.5083 30.8905 67.8907 31.6961 67.8907C32.5017 67.8907 33.2386 68.5045 33.2386 69.9451ZM32.506 69.9451C32.506 68.8464 32.1456 68.4533 31.6961 68.4533C31.2467 68.4533 30.8863 68.8464 30.8863 69.9451C30.8863 71.0432 31.2467 71.4363 31.6961 71.4363C32.1456 71.4363 32.506 71.0432 32.506 69.9451ZM26.8585 71.0245H26.8703L27.4371 67.9461H28.0811L27.2834 71.9408H26.4331L25.8583 68.6709H25.8465L25.2388 71.9408H24.4011L23.6196 67.9461H24.2796L24.8261 71.0245H24.8383L25.4211 67.9461H26.2837L26.8585 71.0245ZM65.9029 64.7659H14.0972V8H65.9029V64.7659ZM63.4082 62.1963H16.5869V10.5781H63.4082V62.1963ZM47.2346 51.6604C47.2346 46.5006 49.8823 44.2803 52.7693 44.2803C55.6554 44.2803 58.3035 46.5006 58.3035 51.6604C58.3035 56.8202 55.6554 59.0397 52.7693 59.0397C49.8785 59.0397 47.2346 56.8202 47.2346 51.6604ZM49.8625 51.6555C49.8625 55.5989 51.158 57.0201 52.7697 57.0201C54.3809 57.0201 55.6761 55.5989 55.6761 51.6555C55.6761 47.7122 54.3809 46.291 52.7697 46.291C51.1538 46.291 49.8625 47.7122 49.8625 51.6555ZM27.3646 59.0354C30.2511 59.0354 32.8992 56.8158 32.8992 51.6561C32.8992 46.4963 30.2553 44.2764 27.3646 44.2764C24.4776 44.2764 21.8299 46.4963 21.8299 51.6561C21.8299 56.8158 24.4776 59.0354 27.3646 59.0354ZM27.3645 46.2949C28.9762 46.2949 30.2714 47.7153 30.2714 51.6594C30.2714 55.6028 28.9796 57.0235 27.3645 57.0235C25.7533 57.0235 24.4577 55.6028 24.4577 51.6594C24.4577 47.7153 25.7533 46.2949 27.3645 46.2949ZM34.486 36.9637C34.486 34.5395 35.0731 32.7643 35.9922 31.5639C37.0287 30.2063 38.4939 29.584 40.0207 29.584C42.9069 29.584 45.5592 31.8039 45.5592 36.9637C45.5592 39.5142 44.911 41.3481 43.9074 42.5489H43.9033C42.8744 43.7727 41.4817 44.3434 40.0207 44.3434C37.1338 44.3434 34.486 42.1198 34.486 36.9637ZM40.0237 42.3281C38.4129 42.3281 37.1173 40.9069 37.1173 36.9631C37.1173 35.5896 37.2709 34.5229 37.546 33.7159C38.0563 32.205 38.9754 31.5986 40.0237 31.5986C41.6353 31.5986 42.9352 33.0198 42.9352 36.9631C42.9352 38.4865 42.7364 39.6356 42.4089 40.4664C41.8864 41.7923 41.0158 42.3281 40.0237 42.3281ZM50.7207 22.0194H54.8383V28.3517H57.3885V13.998H54.8383V19.8389H50.7207V13.998H48.1701V28.3517H50.7207V22.0194ZM22.5429 28.3517L19.7328 13.998H22.1256L24.077 25.0578H24.1174L26.2064 13.998H29.3158L31.3849 25.0578H31.425L33.4532 13.998H35.7654L32.8949 28.3517H29.8505L27.7776 16.5917H27.7371L25.5468 28.3517H22.5429Z" fill="black"/>
</svg>
