<svg width="80" height="80" viewBox="0 0 80 80" fill="none" xmlns="http://www.w3.org/2000/svg">
<path fill-rule="evenodd" clip-rule="evenodd" d="M15.0638 20C12.9288 20 11.9122 20.8226 11.9122 22.5677V26.2642C11.9122 26.9828 11.6102 27.2907 10.8956 27.2907H10.5399C8.81067 27.2907 8 28.267 8 30.3714C8 32.4256 8.81067 33.4032 10.5399 33.4032H10.8956C11.6102 33.4032 11.9122 33.7107 11.9122 34.428V41.7718C11.9122 49.1147 14.8102 52.8609 20.5042 52.8609C24.4197 52.8609 26.5538 51.476 26.5538 48.9104C26.5538 47.6771 25.9926 47.0605 24.9255 47.0605C24.5169 47.0605 24.1149 47.1085 23.6061 47.1632C22.8952 47.2672 22.2342 47.3166 21.7251 47.3166C19.4868 47.3166 18.3696 45.5719 18.3696 42.1323V34.428C18.3696 33.7107 18.6761 33.4032 19.3862 33.4032H21.1142C22.8952 33.4032 23.6537 32.4256 23.6537 30.267C23.6537 28.267 22.8422 27.2907 21.1142 27.2907H19.3862C18.6236 27.2907 18.3696 27.0358 18.3696 26.2642V22.5677C18.3696 20.8226 17.3522 20 15.0638 20ZM40.6358 30.8351L37.2303 40.7424C37.1277 41.1535 36.8717 41.3607 36.5657 41.3607C36.2129 41.3607 36.0057 41.1535 35.8564 40.7424L32.4521 30.8351C31.4347 27.8551 30.7233 27.137 28.6363 27.137C26.7044 27.137 25.6911 27.9078 25.6911 29.3449C25.6911 29.705 25.7386 29.9624 25.9425 30.475L32.704 48.9104C33.7206 51.7329 34.5357 52.4528 36.5657 52.4528C38.5985 52.4528 39.4125 51.7329 40.4299 48.9104L47.1917 30.475C47.3947 29.8588 47.4454 29.705 47.4454 29.3449C47.4454 27.9078 46.429 27.137 44.4967 27.137C42.413 27.137 41.653 27.8551 40.6358 30.8351ZM47.4974 43.7253C47.4974 54.1473 52.5804 59.9999 61.6287 59.9999C67.1683 59.9999 71.3367 57.6383 71.3367 54.557C71.3367 53.3773 70.729 52.6044 69.8657 52.6044C69.5067 52.6044 69.1527 52.7105 68.338 53.0176C65.9493 53.9926 64.6277 54.2996 62.696 54.2996C57.2557 54.2996 53.9517 51.1702 53.9517 46.0841C53.9517 45.5719 54.2054 45.3141 54.8147 45.3141H67.576C70.945 45.3141 71.9777 44.1596 72 40.3557V40.1117C71.953 32.3726 67.3357 27.1879 60.4593 27.1879C52.3757 27.1879 47.4974 33.4028 47.4974 43.7253ZM54.0557 39.4088C54.0557 34.9949 56.496 31.9143 60.1023 31.9143C63.7603 31.9143 65.7977 34.4786 65.7977 39.2033C65.7977 39.8738 65.593 40.1278 64.9847 40.1278H54.8657C54.3584 40.1278 54.0557 39.8738 54.0557 39.4088Z" fill="url(#paint0_linear_656_2965)"/>
<defs>
<linearGradient id="paint0_linear_656_2965" x1="40" y1="2.74529e-05" x2="4.04495" y2="57.528" gradientUnits="userSpaceOnUse">
<stop stop-color="#2DC4FB"/>
<stop offset="1" stop-color="#003FBF"/>
</linearGradient>
</defs>
</svg>
