<svg width="80" height="80" viewBox="0 0 80 80" fill="none" xmlns="http://www.w3.org/2000/svg">
<path d="M47.0686 46.2123C47.0702 46.6935 46.6856 47.0864 46.2062 47.0919C42.883 47.1303 39.4997 47.0957 36.1926 47.1111C35.4017 47.1027 34.6114 47.0919 33.8205 47.0864C33.3402 47.0832 32.9533 46.6902 32.9543 46.2081C32.9603 42.0652 32.9562 37.911 32.9478 33.7676C32.9468 33.2823 33.3387 32.8885 33.8224 32.8889C37.9312 32.8917 42.0758 32.9067 46.1836 32.8917C46.664 32.89 47.0558 33.2776 47.0606 33.7602C47.0662 34.3222 47.0694 34.9173 47.0657 35.3854C47.0242 38.5528 47.0606 43.1128 47.0689 46.2122" fill="#2ECCF2"/>
<path d="M39.1013 39.52C39.0431 38.7315 38.667 37.9696 37.9577 37.557C37.1803 37.1053 35.9701 37.0754 35.1872 37.5164C34.2796 38.027 33.7973 39.0477 33.903 40.0577C34.0012 41 34.4612 41.9011 35.4316 42.2034C36.3166 42.4795 37.483 42.465 38.2695 41.9366C39.0753 41.3957 39.1665 40.4002 39.1013 39.52Z" fill="white"/>
<path d="M43.3274 37.2257C42.531 37.2467 41.7471 37.5835 41.2998 38.2665C40.8096 39.0153 40.725 40.2113 41.1332 41.0073C41.6061 41.929 42.6111 42.4541 43.6326 42.3962C44.5855 42.3429 45.5131 41.9295 45.8618 40.9831C46.1792 40.1197 46.2179 38.9644 45.7217 38.1609C45.2139 37.3386 44.2158 37.2018 43.3273 37.2256" fill="white"/>
<path d="M36.8204 38.2439C36.7654 38.2327 36.7114 38.2257 36.6583 38.2215C36.1324 38.1668 35.6045 38.2864 35.2977 38.7596C35.0087 39.2067 34.9724 39.8831 35.1376 40.376C35.3281 40.9446 35.8135 41.3463 36.4308 41.3715C36.96 41.393 37.5879 41.2211 37.8653 40.746C38.1041 40.3382 38.1143 39.6902 37.9868 39.246C37.8364 38.7223 37.35 38.3546 36.8204 38.2439Z" fill="black"/>
<path d="M44.8896 38.8674C44.6058 38.4329 44.0765 38.2577 43.5821 38.225C43.4895 38.2189 43.3973 38.2176 43.3043 38.2253C42.8365 38.265 42.3947 38.4893 42.1698 38.9331C41.8329 39.5992 41.9264 40.5756 42.5437 41.0302C43.1297 41.4609 44.1719 41.5931 44.7217 41.0227C45.2303 40.4953 45.2863 39.4741 44.8896 38.8672" fill="black"/>
<path d="M40.0518 43.0302H40.0477C40.0289 43.0302 40.0098 43.0302 39.9912 43.0299C39.9736 43.0289 39.9554 43.0282 39.9378 43.0271C39.9368 43.0271 39.9353 43.0271 39.9345 43.0268C39.9061 43.0254 39.8777 43.023 39.8498 43.0198C39.8325 43.018 39.8163 43.0156 39.7995 43.0137C39.7925 43.0123 39.7851 43.0113 39.7777 43.0106C39.3428 42.9461 39.1172 42.7457 39.1176 42.7457C39.0612 42.7018 39.0129 42.655 38.9757 42.6055C38.8853 42.4855 38.8644 42.3173 38.9263 42.2183C38.9807 42.1318 39.0841 42.0865 39.1949 42.1094C39.1949 42.1094 39.2037 42.1108 39.2191 42.116C39.22 42.1163 39.2215 42.1163 39.2228 42.117C39.2353 42.1212 39.2517 42.1282 39.2717 42.1385C39.2768 42.1413 39.2819 42.1436 39.2865 42.1464C39.3099 42.1591 39.3369 42.1768 39.3666 42.1988C39.3666 42.1988 39.3698 42.2016 39.3759 42.2067C39.3802 42.2099 39.3838 42.2123 39.3881 42.2156C39.3881 42.2156 39.3937 42.2202 39.402 42.2273C39.4462 42.2613 39.5263 42.3197 39.6133 42.3651C39.7301 42.4221 39.8772 42.4697 40.0416 42.4669H40.0569C40.2213 42.4697 40.3684 42.4221 40.4846 42.3651C40.5722 42.3197 40.6522 42.2614 40.6964 42.2273C40.7048 42.2202 40.7104 42.2156 40.7104 42.216C40.7147 42.2123 40.7183 42.21 40.7225 42.2067C40.7285 42.2015 40.7319 42.1987 40.7309 42.2001C40.7611 42.1768 40.7882 42.159 40.8114 42.1464C40.8166 42.1436 40.8217 42.1413 40.8263 42.1384C40.8468 42.1282 40.8631 42.1212 40.8756 42.117C40.8772 42.1167 40.8781 42.1167 40.8794 42.1159C40.8943 42.1108 40.9036 42.1094 40.9036 42.1108C41.0144 42.0865 41.1178 42.1318 41.1722 42.2182C41.234 42.3173 41.2132 42.4854 41.1229 42.6055C41.0856 42.655 41.0372 42.7017 40.9813 42.7456C40.9813 42.7456 40.7556 42.946 40.3204 43.0105C40.3134 43.0116 40.3059 43.0123 40.2984 43.0137C40.2822 43.0154 40.266 43.0179 40.2487 43.0197C40.2208 43.0229 40.1924 43.0253 40.1639 43.0267C40.163 43.0271 40.1615 43.0271 40.1607 43.0271C40.1416 43.0285 40.123 43.0288 40.1039 43.0299C40.0868 43.0302 40.069 43.0302 40.0518 43.0302Z" fill="#ED1C99"/>
<path d="M24.5975 40.2101C25.2454 39.8854 25.5922 38.9016 25.2985 38.2036C25.0509 37.6155 24.4699 37.3412 23.8737 37.2413C23.2904 37.1436 22.6077 37.1254 22.024 37.2333C21.7171 37.2903 21.416 37.4253 21.2708 37.7192C21.0558 38.1546 21.0897 38.7399 21.0701 39.2141C21.0696 39.2234 21.0692 39.2328 21.0687 39.2421C21.0431 39.8228 21.0929 40.3614 21.111 40.943C21.1245 41.384 21.1822 41.9815 21.543 42.2698C21.8265 42.4968 22.2216 42.5426 22.5177 42.3118C22.8174 42.0773 22.8686 41.563 22.8747 41.2C22.8762 41.129 22.8767 41.0575 22.8775 40.986C23.1674 41.3378 23.4202 41.7279 23.7605 42.0292C23.8359 42.096 23.915 42.1567 23.9942 42.2179C24.3726 42.5095 24.9535 42.5272 25.2458 42.0736C25.5754 41.5625 24.9405 40.5469 24.5973 40.2101L24.5975 40.2101ZM22.782 39.6145C22.7923 39.0707 22.7806 38.6558 22.7747 38.4966C22.8281 38.4849 22.9882 38.4793 23.0101 38.4788C23.2387 38.477 23.5091 38.4727 23.6767 38.6544C23.7716 38.7577 23.8117 38.8918 23.8177 39.0296C23.8233 39.258 23.6497 39.4902 23.4174 39.5551C23.2038 39.6154 23.0302 39.6154 22.809 39.6149C22.8076 39.6149 22.782 39.6146 22.782 39.6146" fill="black"/>
<path d="M71.6164 38.3675C70.7385 37.0726 69.0531 36.8455 67.7804 37.5734C66.6694 38.2087 66.2155 39.9115 66.8364 41.12C67.2661 41.9562 68.26 42.4472 69.1224 42.4598C69.6549 42.4682 70.1949 42.3804 70.6924 42.1047C71.9734 41.3956 72.3774 39.5843 71.6164 38.3675ZM68.5514 40.2054C68.2223 39.3822 69.0764 38.6848 69.7983 39.2215C70.161 39.5046 70.1699 40.1633 69.8045 40.466C69.4372 40.7701 68.7572 40.6459 68.5514 40.2054Z" fill="black"/>
<path d="M63.8358 37.1862C63.0124 37.1549 62.3611 37.1516 61.5377 37.1909C60.8857 37.2213 60.3527 37.5758 60.5216 38.2948C60.6399 38.7961 61.3348 38.8717 61.8566 38.8862C61.8505 39.4258 61.8324 40.162 61.8542 40.7011C61.8677 41.0319 61.8615 41.3626 61.9375 41.6892C62.0278 42.076 62.215 42.4025 62.7162 42.4553C63.1999 42.5053 63.5103 42.2684 63.6611 41.8919C63.9106 41.2687 63.8054 40.3629 63.8152 39.7084C63.8183 39.4772 63.8231 39.1142 63.8263 38.8825C64.4054 38.8807 65.1017 38.7446 65.159 38.1897C65.2507 37.2997 64.4776 37.2105 63.8357 37.1862" fill="black"/>
<path d="M51.4857 41.3091C51.617 41.4722 51.7576 41.6287 51.9009 41.781C52.0522 41.9417 52.244 42.0898 52.4399 42.1958C52.6415 42.3046 52.8803 42.3714 53.1117 42.3672C53.7828 42.3565 53.9881 41.7497 54.0258 41.2021C54.0565 40.7546 54.0505 40.2403 54.0454 39.7932C54.0417 39.4508 54.0384 39.1359 54.0403 38.8084C54.0417 38.4884 54.0546 38.1558 53.9695 37.8437C53.8922 37.5592 53.6572 37.263 53.3616 37.1841C53.0692 37.1051 52.7364 37.1561 52.5041 37.3233C52.0918 37.6195 52.0457 38.2712 52.0467 38.7981C51.69 38.3422 51.3736 37.9979 51.1631 37.7858C50.8364 37.4569 50.4454 37.1346 49.924 37.1607C49.5293 37.1804 49.2617 37.4135 49.1407 37.7746C48.9806 38.253 49.014 39.0611 49.0164 39.7343C49.0173 40.1683 48.9884 40.6037 49.0189 41.0372C49.044 41.4035 49.0942 41.8165 49.3261 42.1131C49.549 42.3985 49.7943 42.4957 50.1653 42.4733C50.418 42.4583 50.6353 42.3392 50.7769 42.136C51.0585 41.7324 51.0585 41.169 51.0324 40.7018C51.0324 40.7018 51.3057 41.0854 51.4858 41.3091" fill="black"/>
<path d="M31.385 37.7346C31.3068 37.5921 31.1891 37.4688 31.0415 37.3847C30.6803 37.1792 30.2357 37.175 29.8307 37.1736C29.228 37.1708 28.6853 37.1483 28.0834 37.1708C27.9465 37.1759 27.7408 37.1992 27.5937 37.2506C27.1534 37.4034 26.9165 37.8294 27.058 38.3284C27.1715 38.7287 27.5956 38.8474 27.9736 38.9109C28.0694 38.9273 28.2542 38.9366 28.3515 38.9408C28.3604 39.6672 28.3138 40.6819 28.3925 41.4042C28.4553 41.9788 28.7053 42.4903 29.4207 42.4618C29.619 42.4539 29.7903 42.3362 29.9067 42.1792C30.1347 41.8718 30.1389 41.4864 30.1571 41.1201C30.1645 40.965 30.2004 38.9483 30.2031 38.9483C30.4335 38.9483 30.5737 38.938 30.7696 38.9025C31.0038 38.86 31.2342 38.7857 31.3654 38.5769C31.5316 38.3134 31.5233 37.9869 31.385 37.7346Z" fill="black"/>
<path d="M11.2039 40.4816C11.102 40.5265 11.0015 40.5779 10.8921 40.6096C10.65 40.6806 10.4131 40.6423 10.2213 40.4737C10.0412 40.3144 9.94436 40.0187 9.94856 39.8159C9.95416 39.524 10.0784 39.2198 10.3344 39.0629C10.4555 38.9891 10.5965 38.9564 10.7375 38.9638C10.9265 38.9746 11.0638 39.0689 11.2347 39.1339C11.5493 39.2535 11.9613 39.2268 12.1987 39.0643C12.4677 38.8797 12.5929 38.6728 12.5743 38.2855C12.5589 37.9758 12.3718 37.7076 12.1414 37.5395C11.8933 37.3577 11.5842 37.2255 11.284 37.1779C11.1411 37.155 10.9963 37.1428 10.8515 37.1419C10.0151 37.1363 9.17911 37.4409 8.63078 38.0959C7.9768 38.8774 7.79572 40.1341 8.25655 41.0545C8.56098 41.6627 9.1228 42.1458 9.77214 42.3443C10.3004 42.5064 10.8711 42.526 11.4092 42.4008C11.8561 42.2967 12.3011 42.0836 12.4979 41.6398C12.5887 41.4357 12.6264 41.197 12.5706 40.9788C12.4365 40.4532 11.9152 40.3407 11.5219 40.3948C11.4073 40.4102 11.3045 40.4377 11.2039 40.4816Z" fill="black"/>
<path d="M18.0543 38.2456C17.8411 37.7985 17.519 37.1226 16.8724 37.0969C16.8096 37.0944 16.7593 37.0966 16.7523 37.0969C16.177 37.116 15.8679 37.6374 15.6464 38.0882C15.5914 38.1998 15.5337 38.3101 15.4742 38.4199C15.2461 38.8394 15.0427 39.2715 14.8528 39.7102C14.6396 40.2035 14.4157 40.7066 14.2467 41.2177C14.1992 41.3611 14.1792 41.5124 14.1881 41.6638C14.2067 41.9749 14.2919 42.2253 14.5642 42.3865C14.7792 42.514 15.0492 42.5603 15.2922 42.4977C15.6883 42.3958 15.8824 42.0427 16.0132 41.6101C16.2157 41.6101 16.5704 41.6115 16.7733 41.6138H16.852C17.0521 41.6114 17.4068 41.6107 17.6098 41.6101C17.6251 41.6582 17.6428 41.7054 17.6624 41.7512C17.7918 42.1184 17.9803 42.407 18.3326 42.4977C18.4113 42.5182 18.49 42.5281 18.5672 42.5281H18.5803C18.807 42.5249 19.0206 42.4309 19.1915 42.2842C19.1975 42.279 19.2035 42.2734 19.2096 42.2683C19.2929 42.194 19.3562 42.1085 19.3953 42.0034C19.433 41.9025 19.4489 41.7932 19.4568 41.6867C19.474 41.4601 19.4275 41.2462 19.3116 40.9948L19.0132 40.3039C18.7129 39.6088 18.3931 38.9225 18.0543 38.2456ZM16.8124 40.2189C16.5909 40.2164 16.5639 40.2189 16.2501 40.2123C16.3851 39.8339 16.6779 39.1682 16.8115 38.9248H16.8134C16.9815 39.243 17.2519 39.9017 17.3743 40.2123C17.0611 40.2189 17.034 40.2165 16.8124 40.2189Z" fill="black"/>
<path d="M58.1509 37.5252C57.9908 37.3112 57.7181 37.1491 57.4006 37.1613C57.0924 37.1734 56.8448 37.2991 56.6531 37.5289C56.3756 37.8616 56.3495 38.3553 56.3217 38.7613C56.2886 39.2397 56.3039 39.7246 56.3017 40.2034C56.2999 40.6659 56.2723 41.1461 56.3729 41.6021C56.5101 42.2253 57.2353 42.7163 57.8931 42.307C58.5899 41.874 58.4796 40.9439 58.4991 40.2571C58.5126 39.7825 58.5005 39.3565 58.5005 38.9066C58.4908 38.51 58.439 37.9097 58.1509 37.5252Z" fill="black"/>
</svg>
