<svg width="80" height="80" viewBox="0 0 80 80" fill="none" xmlns="http://www.w3.org/2000/svg">
<path fill-rule="evenodd" clip-rule="evenodd" d="M48.4613 55.3343C48.7011 55.9162 48.9218 56.4511 49.1522 57.0105H47.7705C48.0009 56.4515 48.2219 55.9156 48.4613 55.3343ZM46.711 59.2326C46.8344 59.2358 46.8863 59.1868 46.9276 59.0805C47.0397 58.7895 47.1673 58.505 47.2775 58.2134C47.321 58.0983 47.3767 58.0481 47.5072 58.0494C48.1472 58.0558 48.7874 58.0545 49.4274 58.05C49.5379 58.049 49.5949 58.0842 49.6349 58.1876C49.7522 58.4905 49.8765 58.7908 50.0051 59.0892C50.028 59.1423 50.0821 59.2206 50.1234 59.2216C50.4981 59.2319 50.8735 59.2277 51.2627 59.2277C51.2479 59.1694 51.245 59.1433 51.235 59.1198C50.5126 57.431 49.7905 55.7419 49.0613 54.0561C49.0365 53.9984 48.9389 53.941 48.8722 53.9372C48.6263 53.923 48.3785 53.9417 48.1327 53.9275C47.9787 53.9188 47.9129 53.979 47.8559 54.1137C47.2189 55.6156 46.5751 57.1146 45.9335 58.6145C45.8504 58.8082 45.7698 59.0028 45.6744 59.2293C46.0453 59.2293 46.3785 59.2235 46.711 59.2326ZM66.5296 54.9973V53.9855H62.5676V59.2116H66.5657V58.1931H63.7108C63.7108 57.8792 63.7186 57.5825 63.7076 57.2863C63.7021 57.1352 63.7547 57.0946 63.9016 57.0962C64.595 57.1027 65.2888 57.0994 65.9822 57.0985C66.0524 57.0985 66.1223 57.0917 66.1919 57.0878V56.067H63.7221V54.9973H66.5296ZM26.9809 58.1915V57.0965H29.4528V56.0687H29.2226C28.5355 56.0687 27.8484 56.0709 27.1615 56.0651C27.0973 56.0645 26.9793 56.0155 26.9781 55.9852C26.9646 55.6636 26.9697 55.3411 26.9697 54.996H29.7846V53.9797H25.8219V59.2148H29.8305V58.1915H26.9809ZM9.16764 56.0371V53.9852H8.01373V59.2126H9.18117V57.1365H11.3134V59.2148H12.4586V53.9836H11.3118V56.0371H9.16764ZM35.2912 55.0504C35.3794 55.2538 35.3747 55.4706 35.2127 55.6259C35.0727 55.7596 34.887 55.8479 34.7165 55.9475C34.6896 55.9633 34.6196 55.9472 34.5968 55.922C34.408 55.711 34.2838 55.4754 34.3508 55.18C34.4059 54.9364 34.5851 54.792 34.8559 54.7872C35.0367 54.791 35.2071 54.8565 35.2912 55.0504ZM34.403 58.3474C34.1354 58.3165 33.9082 58.2047 33.8182 57.9346C33.7257 57.6569 33.8086 57.411 34.0228 57.2132C34.0902 57.151 34.1703 57.102 34.2405 57.0501C34.5843 57.3882 34.9185 57.7165 35.2676 58.0597C35.0019 58.2672 34.7262 58.3848 34.403 58.3474ZM35.8146 56.2878C36.2483 55.9733 36.4176 55.5363 36.342 55.0153C36.265 54.4856 35.9469 54.135 35.4408 53.9771C35.223 53.9094 34.9818 53.8846 34.7525 53.8901C33.5208 53.9204 32.8869 55.0533 33.4965 56.1186C33.5348 56.1856 33.574 56.252 33.6164 56.3248C33.5664 56.3545 33.533 56.3748 33.499 56.3944C33.4586 56.4173 33.4169 56.4382 33.377 56.4624C32.8071 56.8059 32.5417 57.3076 32.6188 57.9672C32.6964 58.6303 33.1044 59.0299 33.7258 59.2119C34.4486 59.424 35.1244 59.2935 35.7423 58.8659C35.806 58.822 35.8689 58.7769 35.9506 58.7193C36.1597 58.9261 36.3568 59.1214 36.5625 59.3254C36.8337 59.1365 37.1106 58.9442 37.4227 58.727C37.1459 58.4621 36.8888 58.2159 36.6401 57.9778C36.874 57.5976 37.0957 57.2374 37.3279 56.86C37.027 56.6957 36.7498 56.5446 36.4687 56.3912C36.2924 56.6976 36.1276 56.9838 35.9728 57.2525C35.7409 57.0266 35.52 56.8114 35.2998 56.5968C35.4652 56.4985 35.6501 56.407 35.8146 56.2878ZM45.0303 54.5239C44.2718 53.9072 43.3928 53.7799 42.4629 53.9404C41.3051 54.1402 40.4216 55.1055 40.2901 56.2688C40.148 57.5241 40.749 58.6474 41.8571 59.0837C43.0706 59.5615 44.2 59.3366 45.2243 58.5543C45.2797 58.5121 45.3119 58.4083 45.3126 58.3326C45.3194 57.683 45.3168 57.0327 45.3158 56.3828C45.3158 56.3264 45.3065 56.2697 45.302 56.2178H43.0242V57.2048H44.1822C44.1822 57.442 44.1874 57.6533 44.178 57.8641C44.1761 57.9127 44.1355 57.9746 44.0936 58.0049C43.434 58.4808 42.3249 58.311 41.8319 57.662C41.3415 57.0163 41.3866 56.0297 41.9334 55.4358C42.4529 54.8722 43.3258 54.7862 44.0414 55.2312C44.1594 55.3047 44.2702 55.3894 44.3978 55.4783C44.6375 55.1909 44.8747 54.9067 45.1241 54.6077C45.0796 54.5677 45.0561 54.5445 45.0303 54.5239ZM58.1248 55.0182C58.6774 55.0433 59.231 54.9302 59.7562 55.1771C60.38 55.47 60.6952 56.1376 60.5785 56.9158C60.4799 57.5725 59.9937 58.0545 59.326 58.1557C59.2339 58.1695 59.1408 58.1824 59.048 58.1837C58.7486 58.1873 58.4493 58.185 58.1248 58.185V55.0182ZM57.9998 59.2284C58.5189 59.2187 59.0457 59.2535 59.5551 59.1771C60.6069 59.0199 61.3731 58.4463 61.6918 57.4146C62.005 56.3999 61.8104 55.4677 61.0245 54.7111C60.4751 54.182 59.7868 53.9768 59.0335 53.9713C58.4003 53.9668 57.7674 53.97 57.1343 53.971C57.0772 53.9713 57.0205 53.9807 56.9583 53.9861V59.2293C57.3212 59.2293 57.6605 59.2345 57.9998 59.2284ZM16.004 54.9538C16.9142 54.9522 17.6104 55.6694 17.6097 56.6077C17.6092 57.5454 16.9215 58.2556 16.0198 58.2501C15.1182 58.2446 14.4295 57.5325 14.4273 56.6035C14.4252 55.6575 15.0961 54.9554 16.004 54.9538ZM13.3448 57.4884C13.8948 59.1423 15.9685 59.8499 17.5249 58.9145C18.5724 58.2849 19.0638 57.034 18.73 55.8466C18.3959 54.658 17.3347 53.8856 16.0341 53.8846C14.0651 53.883 12.7374 55.662 13.3448 57.4884ZM52.9702 54.9989C53.4809 55.0208 53.9858 55.0121 54.4817 55.074C54.8368 55.1184 55.016 55.401 55.0186 55.7606C55.0211 56.1173 54.8381 56.3696 54.4988 56.4714C54.4292 56.4924 54.3561 56.5136 54.2845 56.5143C53.8534 56.5182 53.4226 56.5162 52.9702 56.5162V54.9989ZM53.6704 57.5477C53.8138 57.5399 53.8995 57.5866 53.9781 57.7078C54.282 58.1757 54.5961 58.6368 54.9116 59.0972C54.9486 59.1514 55.0147 59.2216 55.0688 59.2229C55.4855 59.2335 55.9024 59.2287 56.3642 59.2287C55.9218 58.5846 55.5045 57.9772 55.0833 57.364C55.2148 57.2954 55.3244 57.2464 55.4252 57.1835C56.0429 56.7991 56.2524 56.2195 56.1973 55.5286C56.1418 54.8336 55.7855 54.3393 55.1149 54.1205C54.8227 54.0251 54.5024 53.9874 54.1927 53.9768C53.5666 53.9555 52.9393 53.9703 52.3122 53.9703H51.8025V59.2158H52.9602V57.5509C53.219 57.5509 53.4452 57.5596 53.6704 57.5477ZM68.4736 55.9211C68.549 56.0148 68.5948 56.0696 68.6383 56.1263C69.3942 57.1127 70.1492 58.0999 70.9077 59.0843C70.9525 59.1427 71.0221 59.2193 71.0833 59.2222C71.3871 59.2364 71.692 59.2287 72 59.2287V53.9868H70.8532V57.179C70.7794 57.0885 70.7372 57.0395 70.6979 56.9886C69.9665 56.0335 69.236 55.0781 68.5032 54.124C68.4604 54.0683 68.4037 53.9829 68.3508 53.981C68.008 53.9681 67.6642 53.9745 67.3188 53.9745V59.2184H68.4736V55.9211ZM22.0767 55.9881C21.6859 55.3633 21.2968 54.7379 20.9033 54.115C20.8677 54.0586 20.8057 53.9797 20.7541 53.9784C20.363 53.9668 19.9713 53.972 19.5692 53.972V59.2145H20.7119V55.9175C20.7253 55.914 20.7387 55.9104 20.7521 55.9069C21.225 56.6197 21.698 57.3324 22.1872 58.07C22.6883 57.315 23.1643 56.5974 23.6403 55.8798C23.6573 55.8869 23.6742 55.8937 23.6912 55.9005V59.2119H24.8358V53.9703C24.4918 53.9703 24.1598 53.98 23.8288 53.9665C23.6554 53.9594 23.555 54.0113 23.4626 54.1637C23.0574 54.8333 22.6366 55.4935 22.2055 56.1827C22.1489 56.0973 22.1114 56.0435 22.0767 55.9881ZM41.6376 38.2561C41.5184 38.1565 41.4163 38.0631 41.3061 37.9806C38.4761 35.8631 35.2998 35.2293 31.8976 36.0506C26.4406 37.3681 24.1292 42.5777 25.6396 47.2211C26.5241 49.9404 28.4783 51.6495 31.1524 52.573C33.0566 53.2305 35.0108 53.2695 36.979 52.9176C38.8253 52.5878 40.5211 51.9011 42.0208 50.7628C42.1455 50.6682 42.1909 50.5687 42.1906 50.4141C42.1861 47.9938 42.1874 45.5735 42.1874 43.1532V42.9105H34.0719V46.7876H35.502H36.9317C36.9317 47.1216 36.9231 47.4261 36.9355 47.7298C36.9413 47.8739 36.8819 47.9403 36.7609 48.0001C36.2293 48.2633 35.6637 48.3603 35.0762 48.3676C33.4228 48.3882 32.0216 47.4991 31.4547 46.0632C31.154 45.3014 31.1214 44.513 31.2399 43.7137C31.4757 42.1216 32.5807 40.9773 34.1458 40.7793C35.6701 40.5864 37.075 40.9252 38.3066 41.8736C38.3639 41.9178 38.4219 41.9612 38.4994 42.02C39.5504 40.7595 40.5875 39.5155 41.6376 38.2561ZM24.4682 52.7663V36.0942H18.8653V41.9512H13.5913V36.0962H8V52.7709H13.5997V46.8055H18.8672V52.7663H24.4682ZM46.6695 52.7651H52.2871V40.7663H52.5255C53.226 40.7663 53.9266 40.7727 54.6267 40.7617C54.8011 40.7589 54.88 40.8113 54.9454 40.9733C56.5153 44.8397 58.0919 48.7031 59.6618 52.5695C59.7266 52.7291 59.8026 52.7837 59.9789 52.7829C61.6199 52.775 63.261 52.7759 64.9021 52.7819C65.0642 52.7824 65.1454 52.7392 65.2088 52.5836C67.4154 47.1572 69.6275 41.7328 71.8386 36.3081C71.865 36.2433 71.8869 36.1768 71.922 36.081H71.6594C69.7712 36.081 67.8833 36.0839 65.9954 36.0765C65.8053 36.0758 65.7215 36.129 65.658 36.3124C64.6372 39.2716 63.6074 42.228 62.5795 45.1849C62.5544 45.257 62.526 45.3279 62.4841 45.4393C62.4387 45.3139 62.4087 45.2338 62.3804 45.1529C61.3528 42.1959 60.324 39.2393 59.3012 36.2806C59.2497 36.1315 59.1875 36.0768 59.0225 36.077C53.4919 36.0818 47.9616 36.081 42.431 36.0815C42.3607 36.0815 42.2905 36.0886 42.2215 36.0924V40.7663H46.6695V52.7651ZM52.2239 34.942H8.05808C8.05308 34.9305 8.04807 34.9189 8.04307 34.9073C15.3941 30.1627 22.7452 25.418 30.1067 20.6667C37.4628 25.4146 44.8189 30.1625 52.2239 34.942Z" fill="#11ADC4"/>
</svg>
