<svg width="80" height="80" viewBox="0 0 80 80" fill="none" xmlns="http://www.w3.org/2000/svg">
<path fill-rule="evenodd" clip-rule="evenodd" d="M56.6512 37.7316C56.0809 38.2893 55.6994 39.0181 55.6095 39.8286C55.5981 39.9386 55.5923 40.0508 55.5907 40.1651C55.5907 40.1705 55.5902 40.1758 55.5897 40.1813C55.5892 40.1869 55.5887 40.1927 55.5887 40.1986C55.5887 40.2042 55.5892 40.2097 55.5897 40.2151C55.5902 40.2206 55.5907 40.2261 55.5907 40.2316C55.5923 40.3459 55.5981 40.4582 55.6095 40.5681C55.6994 41.3784 56.0809 42.1085 56.6512 42.6654C56.6838 42.6974 56.7176 42.7294 56.7513 42.7599C56.7846 42.7901 56.8193 42.8189 56.8543 42.8479L56.856 42.8493C57.385 43.2843 58.0283 43.5775 58.6888 43.6982L58.6965 43.6993C58.7056 43.7007 58.7151 43.7021 58.7244 43.7043C58.8202 43.7203 58.9154 43.734 59.0104 43.7429C59.1311 43.7533 59.2532 43.7604 59.3766 43.7604C59.3924 43.7604 59.4085 43.7594 59.4244 43.7584C59.4374 43.7576 59.4505 43.7568 59.463 43.7566C59.5631 43.7545 59.6671 43.7459 59.7716 43.7363C60.5238 43.654 61.2481 43.3424 61.8431 42.8315L62.2392 42.4904L63.9489 44.2558L63.5056 44.6403C62.468 45.5392 60.888 46.0994 59.3766 46.0994C55.3883 46.0994 53.0071 43.0996 53.0071 40.1991V40.1979C53.0071 37.2964 55.3883 34.2971 59.3766 34.2971C60.888 34.2971 62.468 34.8573 63.5056 35.7565L63.9489 36.141L62.2392 37.9066L61.8431 37.5653C61.2481 37.0549 60.5238 36.7428 59.7716 36.6603C59.6671 36.6511 59.5631 36.6427 59.463 36.6407C59.4516 36.6404 59.4398 36.6397 59.4279 36.6391C59.4109 36.6381 59.3935 36.6371 59.3766 36.6371C59.2532 36.6371 59.1311 36.643 59.0104 36.6544C58.9154 36.6638 58.8202 36.6765 58.7244 36.6928C58.7125 36.6953 58.7004 36.6966 58.6888 36.6976C58.0283 36.8192 57.385 37.1115 56.856 37.548L56.854 37.5497C56.8191 37.5786 56.7845 37.6073 56.7513 37.6369C56.7176 37.6674 56.6838 37.6996 56.6512 37.7316ZM72.0001 34.4611V36.7989H66.9119V38.9759H72.0001V41.3137H66.9119V43.5979H72.0001V45.9374H64.3003V34.4611H72.0001ZM48.9032 34.4611L53.8391 45.9374H51.1097C51.1097 45.9374 50.3236 44.028 50.1131 43.5232H45.7502C45.5411 44.028 44.7546 45.9374 44.7546 45.9374H42.0229L42.1113 45.734L46.9598 34.4611H48.9032ZM47.9321 38.2047C48.3986 39.3449 48.8628 40.4823 49.1818 41.2667H46.6818C47.001 40.4823 47.4642 39.3449 47.9321 38.2047ZM39.471 42.4044H38.3835V45.9374H35.887V34.4611H39.471C42.2416 34.4611 43.7362 36.5112 43.7362 38.4383C43.7362 40.3619 42.2416 42.4044 39.471 42.4044ZM39.1841 36.7176C41.2397 36.7176 41.2397 38.014 41.2397 38.4383C41.2397 38.8617 41.2397 40.1473 39.1841 40.1473H38.3835V36.7176H39.1841ZM34.992 42.5681C34.992 44.6134 33.1553 46.0421 30.5253 46.0421C27.8979 46.0421 26.2032 44.6979 25.9954 42.4432L25.9875 42.3251H28.6842C28.7625 43.0204 29.0509 43.7297 30.6037 43.7297C31.5541 43.7297 32.2964 43.2685 32.2964 42.6761C32.2964 42.2512 31.7989 41.8678 30.8172 41.5389L29.273 41.0206C27.1949 40.3269 26.1849 39.2187 26.1849 37.6311C26.1849 35.6333 27.996 34.1838 30.493 34.1838C33.5252 34.1838 34.9496 35.9203 34.9496 35.9203C34.3639 36.7027 33.8622 37.7931 33.8622 37.7931C32.9573 37.0521 31.9345 36.4962 30.4767 36.4962C29.0341 36.4962 28.8787 37.2626 28.8787 37.5894C28.8787 37.804 28.8787 38.2484 30.2407 38.6841L31.7687 39.1753C33.9089 39.8568 34.992 40.9988 34.992 42.5681Z" fill="#413D3F"/>
<path d="M13.7151 40.2081C13.7151 39.2215 14.522 38.4221 15.5162 38.4221C16.5095 38.4221 17.3159 39.2215 17.3159 40.2081C17.3159 41.1946 16.5095 41.9943 15.5162 41.9943C14.522 41.9943 13.7151 41.1946 13.7151 40.2081Z" fill="#F7DE05"/>
<path fill-rule="evenodd" clip-rule="evenodd" d="M15.5162 32.4854C11.3659 32.4854 8 35.8498 8 39.9997C8 44.1505 11.3659 47.5147 15.5162 47.5147C19.6663 47.5147 23.0311 44.1505 23.0311 39.9997C23.0311 35.8498 19.6663 32.4854 15.5162 32.4854ZM15.5162 44.4751C13.1713 44.4751 11.2699 42.5886 11.2699 40.2622C11.2699 38.5746 12.2705 37.119 13.7148 36.4471V35.5374C13.7148 34.5504 14.5212 33.7505 15.5162 33.7505C16.511 33.7505 17.3161 34.5504 17.3161 35.5374L17.2844 36.4326C18.7462 37.0984 19.7623 38.5621 19.7623 40.2622C19.7623 42.5886 17.8611 44.4751 15.5162 44.4751Z" fill="#F7DE05"/>
</svg>
