<svg width="80" height="80" viewBox="0 0 80 80" fill="none" xmlns="http://www.w3.org/2000/svg">
<path fill-rule="evenodd" clip-rule="evenodd" d="M24.4612 14.8638H55.5262L72 31.9424L40 65.1363L8 31.9424L24.4612 14.8638ZM40 60.5054L67.5418 31.9424L54.2244 18.1376H25.7726L12.4643 31.9424L40 60.5054ZM49.2455 23.8522C49.2455 24.7601 48.3702 25.3492 47.6266 25.3492C46.447 25.3492 45.8353 24.4868 45.8353 23.2599C45.8353 23.0214 45.9159 22.8867 45.9999 22.7463C46.0913 22.5936 46.1867 22.4343 46.1867 22.1274C46.1867 21.9029 45.4431 21.854 45.1357 21.854C43.0368 21.854 41.6815 24.4868 41.6815 29.0233V34.1488H45.2204V35.1935H41.6815V51.068H45.2204V52.1126H34.8988V51.068H38.2651V35.1935H34.902V34.1488H38.2682V31.9261C38.2682 24.1678 41.3741 20.9038 45.5686 20.9038C47.2753 20.907 49.2455 21.7238 49.2455 23.8522ZM50.9049 36.2446C51.7773 36.2446 52.4862 35.5091 52.4862 34.6044C52.4862 33.6965 51.7773 32.9642 50.9049 32.9642C50.0329 32.9642 49.3239 33.6997 49.3239 34.6044C49.3239 35.5091 50.0329 36.2446 50.9049 36.2446Z" fill="black"/>
</svg>
