<svg width="80" height="80" viewBox="0 0 80 80" fill="none" xmlns="http://www.w3.org/2000/svg">
<path fill-rule="evenodd" clip-rule="evenodd" d="M11.0312 30H23.9484C25.6153 30 26.9797 31.4373 26.9797 33.1939V38.3905C26.9797 39.9887 25.4478 41.6077 23.9369 41.6077H18.1658V37.3858L16.8608 37.3845V42.1877C16.8608 42.4402 17.1034 42.6889 17.3446 42.6889L26.979 42.6883V49.9987H11.0312C9.36427 49.9987 8 48.5613 8 46.8045V33.1946C8 31.4378 9.36363 30.0004 11.0312 30.0004V30ZM30.1685 42.1738H37.5183V39.7395H31.2378C30.8227 39.7395 30.4167 39.4505 30.4167 38.8558V37.3053H37.5177V34.871H30.4167V33.3276C30.4167 32.5971 30.9782 32.4372 31.2365 32.4372H37.5177V30.0038C37.5177 30.0038 31.409 30.0031 30.1678 30.0031C28.9275 30.0031 27.959 31.0667 27.959 32.3198V39.857C27.959 41.7596 29.6067 42.1738 30.1685 42.1738ZM60.8785 32.3204V39.861C60.8785 41.2771 61.977 42.1738 63.0417 42.1738H69.5992C71.0987 42.1738 71.8025 40.8532 71.8025 39.7771V32.3204C71.8025 31.3318 71.1023 30.0038 69.5992 30.0038H63.082C61.7178 30.0038 60.8785 31.1618 60.8785 32.3204ZM68.6642 48.0188V42.8345H67.2342V42.8352V48.677C67.2342 49.3678 67.7895 49.9993 68.4892 49.9993H71.763V48.4993H69.1217C68.8817 48.4993 68.6642 48.3153 68.6642 48.0188ZM71.8342 44.987C71.9452 44.7799 72 44.5622 72 44.3338C72 44.1039 71.9435 43.8845 71.8313 43.6744C71.7183 43.464 71.5635 43.3031 71.3662 43.1906C71.1687 43.0781 70.9632 43.0218 70.7487 43.0218C70.5348 43.0218 70.3287 43.0781 70.1318 43.1906C69.9343 43.3031 69.7793 43.4646 69.6668 43.6744C69.5545 43.8845 69.498 44.1039 69.498 44.3338C69.498 44.5624 69.5528 44.7799 69.6638 44.987C69.774 45.1941 69.9277 45.3563 70.1258 45.4721C70.3238 45.5876 70.531 45.6459 70.7487 45.6459C70.9668 45.6459 71.1742 45.5876 71.3715 45.4721C71.5697 45.3563 71.724 45.1948 71.8342 44.987ZM71.6208 43.8028C71.7118 43.9722 71.7575 44.1486 71.7575 44.3338C71.7575 44.5173 71.7128 44.6928 71.6235 44.8599C71.5343 45.0268 71.4102 45.1563 71.252 45.2505C71.0932 45.3437 70.9267 45.3909 70.7512 45.3909C70.5768 45.3909 70.4105 45.3444 70.2513 45.2505C70.0922 45.157 69.9685 45.0268 69.8795 44.8599C69.7905 44.6928 69.746 44.5179 69.746 44.3338C69.746 44.1486 69.7918 43.9722 69.8825 43.8028C69.9733 43.634 70.0983 43.5042 70.2555 43.4143C70.4135 43.3239 70.5785 43.2788 70.7505 43.2788C70.9228 43.2788 71.0875 43.3239 71.2467 43.4143C71.4052 43.5042 71.53 43.634 71.6208 43.8028ZM71.1845 44.7564L71.341 45.0368H71.0078L70.8962 44.8107C70.8212 44.6584 70.7597 44.5624 70.7102 44.5237C70.6615 44.4842 70.5993 44.4642 70.5243 44.4642H70.4538V45.0362H70.1842V43.6449C70.1842 43.6449 70.848 43.6463 70.8785 43.6483C70.9675 43.6566 71.037 43.6751 71.087 43.7044C71.1362 43.7331 71.1778 43.7785 71.2107 43.838C71.2442 43.8981 71.2607 43.9639 71.2607 44.0373C71.2607 44.1377 71.2297 44.224 71.1667 44.2947C71.104 44.3665 71.0163 44.4106 70.9028 44.4278C70.9438 44.443 70.9743 44.4609 70.996 44.4795C71.0173 44.4987 71.0478 44.5345 71.0863 44.587C71.0955 44.6002 71.129 44.6571 71.1845 44.7564ZM70.975 44.0534C70.975 44.0929 70.9638 44.1287 70.9425 44.1607C70.9205 44.192 70.8907 44.2137 70.8535 44.2265C70.8155 44.2386 70.7187 44.245 70.5633 44.245H70.4538V43.8648H70.5633C70.717 43.8648 70.8132 43.8713 70.8523 43.8845C70.8913 43.8981 70.9218 43.9196 70.9425 43.9498C70.9638 43.9804 70.975 44.0149 70.975 44.0534ZM62.926 44.3332C62.6035 44.3332 62.4647 44.626 62.4647 44.8139V45.7495H66.596V47.1662H62.4647V48.1018C62.4647 48.2803 62.5595 48.5823 62.9285 48.5823H66.5953V49.9993H62.3688C61.6393 49.9993 61.1132 49.3712 61.1132 48.6803V44.2379C61.1132 43.6237 61.618 42.8345 62.3688 42.8345V42.8332H66.5953V44.3332H62.926ZM54.49 42.8345H59.0268C59.785 42.8345 60.2887 43.404 60.2887 44.1677V49.9993H58.8593V44.815C58.8593 44.6284 58.8152 44.3345 58.396 44.3345H55.8402V49.9993H54.49V42.8345ZM47.836 42.8345H52.3732C53.1308 42.8345 53.635 43.404 53.635 44.1677V49.9993H52.205V44.815C52.205 44.6284 52.161 44.3345 51.7417 44.3345H49.186V49.9993H47.836V42.8345ZM46.9643 44.1511V49.9993H45.5343V47.3335H42.5152V49.9993H41.1658V42.8352H45.6378C46.4333 42.8352 46.9643 43.5056 46.9643 44.1511ZM45.0783 44.3338C45.4002 44.3338 45.535 44.5526 45.535 44.8143V46.083H42.5158V44.3338H45.0783ZM38.9922 42.8345H40.4222V49.9993H38.9922V47.167H35.9732V49.9993H34.5427V42.8345H35.9732V45.6676H38.9922V42.8345ZM28.1838 44.0348V48.8328C28.1838 49.5487 28.7375 50 29.2958 50H33.8247V48.5823H29.987C29.756 48.5823 29.534 48.369 29.534 48.0872V44.8163C29.534 44.5792 29.687 44.3345 29.9942 44.3345H33.8247V42.8345H29.2958C28.5533 42.8345 28.1838 43.574 28.1838 44.0348ZM63.2008 38.8813C63.2008 39.5957 63.7605 39.7395 64.0257 39.7395H68.6368C69.2462 39.7395 69.481 39.2882 69.481 38.88V33.2963C69.481 32.8796 69.184 32.4372 68.6622 32.4372H64.0433C63.463 32.4372 63.2008 32.9391 63.2008 33.3276V38.8813ZM49.5407 42.3167H51.863V37.592H55.0352C55.7267 37.592 57.4688 38.1552 57.4688 40.1567C57.4688 41.7351 57.4643 42.0785 57.4623 42.2232V42.2234V42.2237V42.2245V42.2274C57.4618 42.2638 57.4615 42.2876 57.4615 42.3167H60.0485V39.4391C60.0485 37.6063 58.4563 36.9608 57.8882 36.9608C57.6457 36.9608 57.7182 36.7671 57.8882 36.7671C58.7628 36.7671 60.055 35.7478 60.055 34.2326V32.5647C60.055 31.8008 59.2772 30.0045 57.6162 30.0045H49.5407V42.3167ZM51.863 35.4443H56.6132C56.8942 35.4443 57.4615 35.2551 57.4615 34.5509V33.3276C57.4615 32.8514 57.1092 32.4372 56.6132 32.4372H51.863V35.4443ZM46.1243 30.0038H48.4455V42.3167H40.6825C38.9507 42.3167 38.4767 40.6962 38.4767 40.0003V30.0038H40.9348V38.8558C40.9348 39.4966 41.4182 39.7395 41.7827 39.7395H46.1243V30.0038Z" fill="#1EB8EC"/>
</svg>
