<svg width="80" height="80" viewBox="0 0 80 80" fill="none" xmlns="http://www.w3.org/2000/svg">
<path fill-rule="evenodd" clip-rule="evenodd" d="M68.8151 38.3218C69.6966 38.3218 70.448 38.6375 71.0688 39.268C71.6896 39.8908 72 40.6521 72 41.5521V44.5229H69.5862V41.6002C69.5862 41.2547 69.511 40.9595 69.3609 40.7143C69.2105 40.4694 69.0287 40.3467 68.8154 40.3467C68.6057 40.3467 68.4258 40.4694 68.2754 40.7143C68.1252 40.9595 68.0502 41.2547 68.0502 41.6002V44.5229H65.6365V41.5521C65.6365 40.6521 65.9466 39.8908 66.5674 39.268C67.184 38.6375 67.9332 38.3218 68.8151 38.3218ZM65.354 41.5578C65.354 40.666 65.0436 39.9045 64.423 39.2737C63.8022 38.639 63.0511 38.3216 62.1694 38.3216C61.2877 38.3216 60.5361 38.6392 59.9158 39.2737C59.295 39.9047 58.9843 40.666 58.9843 41.5578C58.9843 42.4537 59.295 43.2172 59.9158 43.8477C60.0026 43.9403 60.0657 43.9984 60.1054 44.0224C60.6985 44.5366 61.3805 44.7939 62.1517 44.7939H62.1814C62.9558 44.7939 63.6422 44.5385 64.2391 44.0283C64.2391 44.0246 64.2626 44.0003 64.3102 43.9561C64.3657 43.9039 64.403 43.8679 64.423 43.8475C65.0436 43.2169 65.354 42.4534 65.354 41.5578ZM62.7089 40.5331C62.8631 40.8184 62.9402 41.16 62.9402 41.5578C62.9402 41.9596 62.8631 42.303 62.7089 42.5883C62.5585 42.8735 62.3786 43.0162 62.1692 43.0162C61.9597 43.0162 61.7777 42.8738 61.6237 42.5883C61.4774 42.2989 61.4042 41.9553 61.4042 41.5578C61.4042 41.1639 61.4774 40.8225 61.6237 40.5331C61.7777 40.248 61.9597 40.1054 62.1692 40.1054C62.3789 40.1054 62.5585 40.248 62.7089 40.5331ZM58.6534 40.9974C58.6733 41.1661 58.6831 41.3228 58.6831 41.4674C58.6831 41.628 58.6711 41.7728 58.6474 41.9013H54.9052C54.9367 42.1543 55.0039 42.3754 55.1068 42.5644C55.2572 42.8454 55.437 42.988 55.6465 42.9923C55.8598 42.9923 56.0598 42.8657 56.2455 42.6125C56.3364 42.484 56.4074 42.3555 56.4589 42.2269H58.6118C58.5882 42.7812 58.3546 43.3155 57.9121 43.83C57.2834 44.4727 56.534 44.7943 55.6642 44.7943C54.7746 44.7943 54.0194 44.4787 53.3986 43.8479C52.778 43.2212 52.4674 42.4602 52.4674 41.564C52.4674 40.6723 52.778 39.911 53.3986 39.2804C54.0194 38.6531 54.7686 38.3396 55.6465 38.3396C56.5126 38.3396 57.2598 38.6613 57.8884 39.304C58.3155 39.7378 58.5705 40.3022 58.6534 40.9974ZM56.3465 40.9913C56.303 40.7863 56.2513 40.6296 56.1922 40.5212C56.0339 40.232 55.8519 40.0872 55.6465 40.0872C55.4172 40.0872 55.2374 40.2279 55.1068 40.509C55.0396 40.6536 54.9862 40.8145 54.9468 40.9911L56.3465 40.9913ZM52.1918 36.4232C52.1878 36.0859 52.0694 35.7987 51.8359 35.5615C51.5985 35.3207 51.3142 35.2 50.982 35.2C50.6498 35.2 50.365 35.3207 50.1278 35.5613C49.8908 35.7987 49.7719 36.0878 49.7719 36.4292V38.4363C49.5228 38.3721 49.2678 38.3396 49.007 38.3396C48.1252 38.3396 47.376 38.6552 46.7593 39.2858C46.1386 39.9166 45.8281 40.6779 45.8281 41.5697C45.8281 42.4615 46.1386 43.223 46.7593 43.8538C47.376 44.4844 48.1252 44.7999 49.007 44.7999C49.8884 44.7999 50.6378 44.4844 51.2548 43.8538C51.8793 43.223 52.1918 42.4617 52.1918 41.5697V36.4232ZM49.5466 40.5392C49.6966 40.8205 49.7719 41.1619 49.7719 41.5636C49.7719 41.9696 49.6969 42.3132 49.5466 42.5943C49.3965 42.8796 49.2164 43.022 49.007 43.022C48.7934 43.022 48.6135 42.8796 48.4672 42.5943C48.317 42.3089 48.2419 41.9655 48.2419 41.5636C48.2419 41.1619 48.3168 40.8205 48.4672 40.5392C48.6135 40.2539 48.7934 40.1115 49.007 40.1115C49.2164 40.1115 49.3962 40.2539 49.5466 40.5392ZM44.6381 39.2737C45.2589 39.9045 45.5693 40.666 45.5693 41.5578C45.5693 42.4534 45.2589 43.2169 44.6381 43.8475C44.618 43.8679 44.5807 43.9039 44.5254 43.9561C44.4778 44.0003 44.4544 44.0246 44.4544 44.0283C43.8573 44.5385 43.1712 44.7939 42.3964 44.7939H42.3667C41.5958 44.7939 40.9135 44.5366 40.3206 44.0224C40.281 43.9984 40.2178 43.9403 40.1308 43.8477C39.5102 43.2172 39.1996 42.4537 39.1996 41.5578C39.1996 40.666 39.5102 39.9047 40.1308 39.2737C40.7516 38.6392 41.5025 38.3216 42.3846 38.3216C43.2662 38.3216 44.0175 38.639 44.6381 39.2737ZM43.1554 41.5578C43.1554 41.16 43.0782 40.8184 42.9242 40.5331C42.7738 40.248 42.5939 40.1054 42.3844 40.1054C42.1747 40.1054 41.9932 40.248 41.8387 40.5331C41.6926 40.8225 41.6194 41.1639 41.6194 41.5578C41.6194 41.9553 41.6926 42.2989 41.8387 42.5883C41.9932 42.8738 42.1747 43.0162 42.3844 43.0162C42.5939 43.0162 42.7738 42.8735 42.9242 42.5883C43.0782 42.303 43.1554 41.9596 43.1554 41.5578ZM36.8118 35.5617C37.0492 35.3209 37.3338 35.2002 37.6659 35.2002C38.0019 35.2002 38.2865 35.3209 38.5199 35.562C38.7571 35.7989 38.8758 36.0883 38.8758 36.4299V44.5232H36.4618V36.4297C36.4618 36.0883 36.5783 35.7989 36.8118 35.5617ZM36.1922 41.4674C36.1922 41.3228 36.1824 41.1661 36.1626 40.9974C36.0796 40.3022 35.8246 39.7378 35.3975 39.304C34.7689 38.6613 34.0215 38.3396 33.1556 38.3396C32.278 38.3396 31.5286 38.6531 30.9079 39.2804C30.2871 39.911 29.9767 40.6723 29.9767 41.564C29.9767 42.4602 30.2871 43.2212 30.9079 43.8479C31.5286 44.4787 32.2838 44.7943 33.1735 44.7943C34.0431 44.7943 34.7926 44.4727 35.421 43.83C35.8639 43.3155 36.0973 42.7812 36.1212 42.2269H33.968C33.9168 42.3555 33.8458 42.484 33.7546 42.6125C33.5689 42.8657 33.3694 42.9923 33.1558 42.9923C32.9462 42.988 32.7663 42.8454 32.6159 42.5644C32.5133 42.3754 32.4461 42.1543 32.4143 41.9013H36.1568C36.1802 41.7728 36.1922 41.628 36.1922 41.4674ZM33.7014 40.5212C33.7606 40.6296 33.8121 40.7863 33.8556 40.9913L32.4557 40.9911C32.4954 40.8145 32.5489 40.6536 32.6159 40.509C32.7465 40.2279 32.9265 40.0872 33.1556 40.0872C33.3613 40.0872 33.543 40.232 33.7014 40.5212ZM28.9606 41.8233L29.8799 40.1297C29.9946 39.9368 30.0518 39.7339 30.0518 39.521C30.0518 39.4167 30.038 39.3123 30.0105 39.2076C29.9274 38.8783 29.7414 38.6251 29.453 38.4484C29.2631 38.3359 29.0637 38.2796 28.854 38.2796C28.7511 38.2796 28.6466 38.2937 28.5398 38.3218C28.2154 38.4062 27.9682 38.595 27.7984 38.8885L26.707 40.8712V39.5453C26.707 39.2076 26.5884 38.9184 26.3511 38.6771C26.1178 38.4402 25.8332 38.3216 25.4972 38.3216C25.165 38.3216 24.8822 38.4402 24.6492 38.6771C24.4118 38.9184 24.2931 39.2078 24.2931 39.5453V44.5171H26.707V42.5644L27.9644 44.5229H29.9571C30.1389 44.5229 30.2575 44.4447 30.313 44.2879C30.3287 44.2437 30.3366 44.1954 30.3366 44.1434C30.3366 44.0189 30.2852 43.8783 30.1824 43.7213L28.9606 41.8233ZM20.7405 40.1173C20.9502 40.1173 21.1319 40.258 21.2864 40.5392C21.393 40.7442 21.4622 40.9851 21.494 41.2623H23.9018C23.8345 40.491 23.5302 39.8323 22.9886 39.2858C22.3676 38.6552 21.6186 38.3396 20.7407 38.3396C19.8592 38.3396 19.1098 38.6552 18.493 39.2858C17.8722 39.9084 17.5618 40.6638 17.5618 41.5517V41.5818C17.5618 42.4697 17.8722 43.2249 18.493 43.8477V43.8538C19.1098 44.4844 19.8551 44.7999 20.729 44.7999H20.7584C21.6284 44.7999 22.3716 44.4844 22.9886 43.8538V43.8477C23.5302 43.3053 23.8345 42.6464 23.9018 41.871H21.494C21.4622 42.1484 21.393 42.3891 21.2864 42.5941C21.1322 42.8755 20.9502 43.0181 20.7405 43.022C20.531 43.0183 20.3511 42.8755 20.201 42.5943C20.0508 42.3089 19.9754 41.9674 19.9754 41.5697C19.9754 41.168 20.0508 40.8246 20.201 40.5392C20.3511 40.258 20.531 40.1173 20.7405 40.1173ZM16.6874 37.8339L16.9782 37.5324C17.2429 37.2712 17.3756 36.9497 17.3756 36.568C17.3756 36.1906 17.2429 35.8691 16.9782 35.604C16.721 35.3387 16.4049 35.206 16.0292 35.206C15.6574 35.206 15.3431 35.3406 15.0863 35.6099C14.8211 35.8711 14.6889 36.1906 14.6889 36.568C14.6889 36.946 14.8211 37.2673 15.0863 37.5324L15.3769 37.8337C15.6299 38.0908 15.7621 38.2796 15.7743 38.4003V38.4122C15.7743 38.5449 15.6634 38.7237 15.4421 38.9487L15.1691 39.2197C14.9318 39.461 14.8132 39.754 14.8132 40.0996V44.5232H17.251V40.0998C17.251 39.7586 17.1322 39.4653 16.8951 39.2201L16.6282 38.9487C16.4028 38.7239 16.2902 38.5471 16.2902 38.4185V38.4064C16.298 38.2817 16.4303 38.091 16.6874 37.8339ZM13.4325 39.268C14.0533 39.8908 14.3637 40.6521 14.3637 41.5521V44.5229H11.9499V41.6002C11.9499 41.2547 11.8748 40.9595 11.7246 40.7143C11.5742 40.4694 11.3924 40.3467 11.1789 40.3467C10.9692 40.3467 10.7893 40.4694 10.6391 40.7143C10.4887 40.9595 10.4137 41.2547 10.4137 41.6002V44.5229H8V41.5521C8 40.6521 8.3104 39.8908 8.9312 39.268C9.54794 38.6375 10.2972 38.3218 11.1789 38.3218C12.0606 38.3218 12.8117 38.6375 13.4325 39.268Z" fill="#FD6821"/>
</svg>
