<svg width="80" height="80" viewBox="0 0 80 80" fill="none" xmlns="http://www.w3.org/2000/svg">
<path d="M8.93899 38.2243H8V50.7542H8.93899V53.3102H10.296V27.8586H8.93899V38.2243ZM43.3875 53.5582H61.466V52.3927H43.3875V53.5582ZM67.4852 44.7032V26.6268H52.1751V27.1488H33.8381V26.3718H15.7962V51.1639H67.4852V47.9983H71.3527V44.7032H67.4852Z" fill="#F26122"/>
<path d="M11.4543 27.9805H22.2847C24.7478 27.9805 25.8442 29.0602 25.8442 30.9834C25.8442 32.0461 25.3213 32.9741 24.4103 33.3282V33.3619C25.9624 33.7669 26.4686 35.2176 26.4686 36.1117C26.4686 38.4734 25.2877 40.0255 21.7621 40.0255H11.4543V27.9805ZM16.1103 32.4677H19.7036C20.6653 32.4677 20.8846 32.1473 20.8846 31.675C20.8846 31.2363 20.6653 30.9159 19.7036 30.9159H16.1103V32.4677ZM16.1103 37.0901H20.1758C21.1206 37.0901 21.4074 36.6853 21.4074 36.1454C21.4074 35.6055 21.1206 35.2007 20.1758 35.2007H16.1103V37.0901Z" fill="white"/>
<path d="M56.4968 27.9805H65.7584C69.8408 27.9805 72 29.5662 72 34.003C72 38.4397 69.8576 40.0255 65.8593 40.0255H56.4966V27.9805H56.4968ZM61.2543 36.9891H63.9872C66.1634 36.9891 67.0404 35.9093 67.0404 34.0032C67.0404 32.097 66.1634 31.0171 63.9872 31.0171H61.2543V36.9891Z" fill="white"/>
<path d="M11.4222 41.3618H16.7041L21.3954 47.8572H21.4446V41.3618H25.8735V53.0735H20.805L15.8842 46.5124H15.8515V53.0735H11.4226V41.3618H11.4222Z" fill="white"/>
<path d="M56.6773 45.0062C56.7824 46.5551 57.7612 47.7716 59.9517 48.1048L59.952 48.1044L65.3747 48.9128C66.0145 49.014 66.2333 49.3675 66.2333 49.7211C66.2333 50.2937 65.829 50.6978 64.3471 50.6978C63.6064 50.6978 63.0842 50.6138 62.7306 50.4455C62.3935 50.2601 62.2422 49.9907 62.2252 49.5864H56.4997C56.5162 53.123 60.5075 53.6282 64.1618 53.6282C69.5 53.6282 71.8913 52.2474 71.8913 49.317C71.8913 47.2794 70.4095 46.1678 68.0181 45.8143L62.343 44.9723C61.8715 44.905 61.7198 44.6859 61.7198 44.3493C61.7198 43.8441 62.2081 43.4904 63.623 43.4904C64.1449 43.4904 64.6837 43.5579 65.1048 43.7431C65.5428 43.9114 65.829 44.2146 65.829 44.703H71.3526C71.1842 42.1602 68.978 40.7625 63.623 40.7625C60.8657 40.7625 58.5364 41.1817 57.4041 42.5234L57.7442 41.3618H53.2659L51.757 48.5135H51.724L50.0182 41.3618H46.3277L44.6052 48.5135H44.5725L43.0632 41.3618H26.9518V53.0735H39.4017V50.2195H31.5776V48.6447H38.8441V45.7906H31.5776V44.2158H39.4017V44.1644L41.997 53.0735H46.5407L48.1482 46.5779H48.1811L49.772 53.0735H54.3159L56.6773 45.0062Z" fill="white"/>
<path d="M30.2696 27.9805H36.1067L41.235 40.0255H36.1741L35.6678 38.6421H30.7082L30.2022 40.0255H25.1412L30.2696 27.9805ZM33.205 31.6243H33.1714L31.7542 35.7067H34.6223L33.205 31.6243Z" fill="white"/>
<path d="M40.5661 27.9805H45.9982L50.8229 34.6609H50.8735V27.9805H55.4281V40.0255H50.2153L45.1544 33.2775H45.1205V40.0255H40.5659V27.9805H40.5661Z" fill="white"/>
</svg>
