<svg width="80" height="80" viewBox="0 0 80 80" fill="none" xmlns="http://www.w3.org/2000/svg">
<path fill-rule="evenodd" clip-rule="evenodd" d="M23.668 41.701C23.668 38.9433 21.4107 36.7108 18.6223 36.7108C15.8338 36.7108 13.5766 38.9433 13.5766 41.701C13.5766 44.4585 15.8338 46.6909 18.6223 46.6909C21.4107 46.6909 23.7344 44.3928 23.668 41.701ZM60.4484 27.6498C60.1831 28.766 59.9172 29.8826 59.718 31.0642H66.6222L65.4276 36.5796H58.6556C57.6597 42.3578 56.5312 48.2013 53.7426 52.7318C50.4896 58.116 45.4439 60.9395 38.3402 61.2676L39.6681 55.0301C43.7842 54.5046 46.5728 52.7318 48.4978 49.5801C50.5557 46.2318 51.5516 41.6355 52.4149 36.6453H40.8631C39.8008 42.2918 38.5394 48.0046 35.8174 52.5349C32.2325 58.4445 26.722 61.3334 18.9542 61.3334L20.2821 55.1613C29.9752 54.6362 32.365 47.7417 34.5562 36.6453H27.9832C28.7799 38.0898 29.2449 39.797 29.2449 41.6355C29.2449 47.4133 24.4647 52.1409 18.6223 52.1409C12.7799 52.1409 8 47.4133 8 41.6355C8 35.8574 12.7799 31.1298 18.6223 31.1298H35.6846C36.0165 29.4883 36.3485 27.8471 36.7468 26.2712C37.7427 22.2659 40.7964 19.3768 44.7801 18.7859C48.6304 18.1946 52.3488 19.8365 54.2738 22.9882L49.029 26.1399C48.2987 25.0233 46.8384 24.6297 45.7095 24.8267C44.8466 24.9577 43.2532 25.4833 42.722 27.7157C42.3901 28.8317 42.1909 29.9479 41.9253 31.1298H53.4112C53.7426 29.4883 54.075 27.8471 54.4729 26.2712C55.4688 22.2659 58.523 19.3768 62.5067 18.7859C66.3566 18.1946 70.075 19.8365 72 22.9882L66.7556 26.1399C66.0252 25.0233 64.5646 24.6297 63.4354 24.8267C62.5724 24.9577 60.9792 25.4833 60.4484 27.6498ZM34.1575 29.2257H32.0334L32.7637 25.155H32.2989L31.5022 29.6196H34.0912L34.1575 29.2257ZM28.0496 28.0437H30.0417L29.5766 25.6799L28.0496 28.0437ZM26.5228 29.6196L29.4437 25.155H29.9088L30.8383 29.6196H30.3732L30.1076 28.4381H27.7843L27.0539 29.6196H26.5228ZM23.4689 25.8113L25.3279 29.6852H25.9254L26.7221 25.2203H26.1909L25.527 29.029L23.7344 25.2203H23.1369L22.3402 29.6852H22.8047L23.4689 25.8113ZM18.8875 28.0437H20.8796L20.4149 25.6799L18.8875 28.0437ZM17.3609 29.6196L20.2821 25.155H20.7468L21.6763 29.6196H21.2112L20.946 28.4381H18.6223L17.892 29.6196H17.3609ZM13.5102 27.8469C13.5102 26.3368 14.7053 25.0889 16.2323 25.0889C16.8962 25.0889 17.4937 25.3515 17.7593 25.8112L17.3609 26.0738C17.2285 25.8112 16.8298 25.4832 16.2323 25.4832C14.9708 25.4832 14.0417 26.5991 14.0417 27.8469C14.0417 28.7002 14.5725 29.4225 15.6351 29.4225C16.1659 29.4225 16.697 29.2255 17.0957 28.7659L17.2942 28.9629C16.9626 29.4225 16.3654 29.7508 15.502 29.7508C14.3069 29.7508 13.5102 28.9629 13.5102 27.8469Z" fill="black"/>
</svg>
