<svg width="80" height="80" viewBox="0 0 80 80" fill="none" xmlns="http://www.w3.org/2000/svg">
<path fill-rule="evenodd" clip-rule="evenodd" d="M43.0815 32.2411C43.2712 32.7819 43.3661 33.4573 43.3661 34.2687V35.3393C43.3661 36.1498 43.2712 36.8355 43.0815 37.3946C42.8913 37.9539 42.6056 38.3793 42.2248 38.668C41.9777 38.8616 41.7064 39.0113 41.4126 39.1165C41.1183 39.2237 40.7901 39.2763 40.428 39.2763C40.0298 39.2763 39.6822 39.2237 39.3879 39.1165C39.0934 39.0113 38.822 38.8616 38.5737 38.668C38.2131 38.3793 37.9276 37.9539 37.7185 37.3946C37.5098 36.8355 37.4055 36.1405 37.4055 35.3109V34.2693C37.4055 33.4578 37.5098 32.7827 37.7185 32.2421C37.9284 31.7021 38.2131 31.2677 38.5737 30.9398C38.822 30.7658 39.0934 30.6261 39.3879 30.5196C39.6822 30.4137 40.0292 30.3606 40.428 30.3606C40.7901 30.3606 41.1177 30.4132 41.4126 30.5191C41.7064 30.6256 41.9777 30.7653 42.2248 30.9393C42.6063 31.2669 42.8913 31.7016 43.0815 32.2411ZM53.7757 39.1313H58.282V37.5388H55.4577V35.5425H57.9391V33.8915H55.4577V32.0966H58.282V30.4762H53.7757V39.1313ZM46.9605 40.8971H48.5282V49.5521H47.0172L44.7064 44.5444V49.5521H43.1665V40.8971H44.6496L46.9605 45.9637V40.8971ZM55.174 40.8971H57.8832C58.6443 40.8971 59.2661 41.1665 59.7508 41.7073C60.2357 42.2478 60.4784 42.9235 60.4784 43.7336V43.9365C60.4784 44.4959 60.3641 44.9929 60.1367 45.4275C59.9073 45.8619 59.6126 46.2037 59.2517 46.4548L60.4499 49.5521H58.7666L57.6268 46.8022H56.8849V49.5521H55.174V40.8971ZM72.0001 47.9596V49.5521H67.8074V40.8971H69.5186V47.9596H72.0001ZM63.3586 40.9262L60.9063 49.5521H62.6736L62.9309 48.4527H65.2115L65.4409 49.5521H67.2371L64.7557 40.9262H63.3586ZM63.274 46.9471L63.8719 44.4286C63.9102 44.2363 63.9528 44.0229 64.0007 43.7917C64.048 43.5604 64.0713 43.3864 64.0713 43.2704C64.0713 43.3864 64.095 43.5604 64.1423 43.7917C64.1903 44.0236 64.2328 44.2363 64.2711 44.4286L64.8421 46.9471H63.274ZM58.7947 43.8218C58.7947 44.3036 58.6901 44.6516 58.4813 44.864C58.2727 45.0751 58.0155 45.1818 57.7118 45.1818H56.8843V42.5182H57.7118C58.0155 42.5182 58.2727 42.6198 58.4813 42.8221C58.6901 43.0258 58.7947 43.3382 58.7947 43.7633V43.8218ZM54.2603 40.8977H49.3836V42.5183H50.9806V49.553H52.6639V42.5183H54.2603V40.8977ZM32.698 44.7764V45.7315C32.698 46.2725 32.7359 46.7015 32.8128 47.0193C32.8887 47.339 32.9923 47.5658 33.1259 47.6998C33.2208 47.8354 33.3396 47.9278 33.4822 47.9753C33.6249 48.0236 33.7817 48.0481 33.9526 48.0481C34.2004 48.0481 34.429 47.9898 34.6375 47.8746C34.847 47.7581 35.0174 47.5266 35.1507 47.1792L36.6627 47.8746C36.4147 48.4716 36.0584 48.9206 35.5926 49.2198C35.1279 49.5193 34.5806 49.6683 33.953 49.6683C33.5922 49.6683 33.2552 49.6203 32.941 49.5239C32.6266 49.4279 32.3569 49.2836 32.1279 49.0896C31.7666 48.781 31.4868 48.3569 31.2873 47.8158C31.0868 47.2763 30.9869 46.5901 30.9869 45.7606V44.6901C30.9869 43.8788 31.0868 43.2035 31.2873 42.6632C31.4862 42.1229 31.7666 41.698 32.1279 41.3897C32.3569 41.1969 32.6271 41.0423 32.941 40.9268C33.2552 40.8113 33.5922 40.7535 33.953 40.7535C34.5431 40.7535 35.0804 40.9074 35.5652 41.2157C36.0497 41.5241 36.4153 42.0069 36.6631 42.6632L35.1513 43.2994C35.0183 42.9527 34.843 42.7206 34.6242 42.6046C34.4057 42.4892 34.1829 42.4314 33.9539 42.4314C33.783 42.4314 33.6255 42.4554 33.4831 42.5033C33.3409 42.5523 33.2219 42.6436 33.127 42.7792C32.9941 42.9142 32.8897 43.1354 32.8128 43.4455C32.7359 43.7541 32.698 44.1977 32.698 44.7764ZM65.4122 30.4762L67.8074 34.9628V39.1313H69.5191V34.9625L71.9151 30.4762H70.0609L68.6356 33.1973L67.2664 30.4762H65.4122ZM63.6863 38.8715C64.0571 38.6969 64.3657 38.4567 64.6144 38.1476C64.8611 37.838 65.0562 37.4472 65.1981 36.9747C65.3407 36.5025 65.4122 35.996 65.4122 35.4549V33.8915C65.4122 33.4087 65.3407 32.9552 65.1981 32.5309C65.0562 32.1061 64.8611 31.739 64.6144 31.431C64.3657 31.1227 64.0571 30.8853 63.6863 30.7224C63.3154 30.5584 62.9116 30.4762 62.4743 30.4762H59.7372V39.1313H62.4743C62.9116 39.1313 63.3154 39.045 63.6863 38.8715ZM61.4475 37.5382V32.0966H62.2749C62.522 32.0966 62.7315 32.1345 62.9021 32.2126C63.073 32.2896 63.2153 32.4049 63.3298 32.56C63.4626 32.7335 63.5581 32.9364 63.6147 33.1671C63.6721 33.3991 63.6997 33.66 63.6997 33.9487V35.3384C63.6997 35.7055 63.6712 36.0284 63.6147 36.3084C63.5581 36.5883 63.462 36.8245 63.3298 37.018C63.2153 37.1717 63.073 37.298 62.9021 37.3939C62.7315 37.4908 62.522 37.5382 62.2749 37.5382H61.4475ZM41.9119 40.8977H37.5763V49.5523H41.9119V47.9598H39.2873V45.9638H41.5117V44.3421H39.2873V42.5184H41.9119V40.8977ZM50.3241 34.413L49.0694 39.1313H47.6722L46.3889 34.413L45.8753 39.1313H44.2778L45.2767 30.4762H46.9026L48.3855 35.9179L49.8686 30.4762H51.4655L52.4346 39.1313H50.8662L50.3241 34.413ZM41.6547 35.3096C41.6547 35.8504 41.6168 36.2747 41.5403 36.583C41.4652 36.8913 41.3603 37.1241 41.2273 37.2777C41.1317 37.4133 41.0134 37.5143 40.8708 37.5819C40.7284 37.6502 40.5809 37.6832 40.428 37.6832C40.2385 37.6832 40.0671 37.6502 39.9155 37.5819C39.7625 37.5151 39.6396 37.4133 39.5441 37.2777C39.4105 37.1241 39.3072 36.8918 39.2308 36.583C39.1541 36.2747 39.116 35.8504 39.116 35.3096V34.3246C39.116 33.7846 39.1541 33.3556 39.2308 33.037C39.3072 32.7192 39.4111 32.482 39.5441 32.3274C39.6396 32.2126 39.7625 32.125 39.9155 32.0678C40.0664 32.0103 40.2376 31.9814 40.428 31.9814C40.5998 31.9814 40.7522 32.0103 40.8852 32.0678C41.018 32.1255 41.1317 32.2126 41.2273 32.3274C41.3607 32.4825 41.4652 32.7192 41.5403 33.037C41.6168 33.3556 41.6547 33.7846 41.6547 34.3246V35.3096ZM35.1513 32.9075L36.6631 32.2133C36.4153 31.557 36.0497 31.0842 35.5652 30.7947C35.0804 30.506 34.5431 30.3609 33.953 30.3609C33.5922 30.3609 33.2552 30.4143 32.941 30.5205C32.6271 30.6269 32.3569 30.7666 32.1277 30.9406C31.7666 31.2683 31.4862 31.7029 31.2873 32.2429C31.0868 32.7832 30.9869 33.4586 30.9869 34.2701V35.3115C30.9869 36.141 31.0868 36.836 31.2873 37.3954C31.4868 37.9542 31.7666 38.3798 32.1277 38.6688C32.3569 38.8621 32.6266 39.0119 32.941 39.1184C33.2552 39.2243 33.5922 39.2769 33.953 39.2769C34.5806 39.2769 35.1279 39.1279 35.5926 38.8284C36.0584 38.5291 36.4147 38.0718 36.6627 37.4531L35.152 36.7863C35.0183 37.1147 34.8483 37.3467 34.6388 37.4815C34.4294 37.6166 34.2017 37.6841 33.9539 37.6841C33.783 37.6841 33.6259 37.6508 33.4831 37.5828C33.3409 37.5158 33.2219 37.4142 33.127 37.2784C32.9936 37.1247 32.8897 36.8927 32.814 36.5836C32.7368 36.2756 32.6993 35.851 32.6993 35.3102V34.326C32.6993 33.786 32.7368 33.3568 32.814 33.0377C32.8897 32.7201 32.9941 32.4832 33.127 32.328C33.2219 32.2133 33.3409 32.1256 33.4831 32.0684C33.6255 32.0109 33.783 31.9821 33.9539 31.9821C34.1829 31.9821 34.4057 32.0442 34.6242 32.1702C34.843 32.295 35.0183 32.5412 35.1513 32.9075Z" fill="black"/>
<path fill-rule="evenodd" clip-rule="evenodd" d="M28.6559 39.9757H28.655C28.655 39.9836 28.6541 39.9917 28.6541 39.9998C28.6541 40.0123 28.6559 40.0245 28.6559 40.0372V39.9757ZM25.4273 32.0825C24.4375 31.0694 23.2688 30.268 21.9195 29.6798C20.5686 29.0918 19.1322 28.7969 17.6112 28.7969C15.5576 28.7969 13.681 29.3271 11.9781 30.3881C10.2763 31.4499 8.95111 32.8401 8 34.5574L10.3101 35.8308C11.0141 34.5574 12.0221 33.5253 13.3338 32.7336C14.6458 31.9428 16.0716 31.5463 17.6112 31.5463C18.7522 31.5463 19.8362 31.7696 20.8635 32.2127C21.8898 32.6566 22.7789 33.2598 23.5291 34.0225C24.2809 34.7843 24.8795 35.6819 25.3262 36.7145C25.7688 37.7387 25.9908 38.8339 25.9946 39.9999C25.9908 41.1671 25.7696 42.2626 25.3262 43.2858C24.8795 44.3179 24.2809 45.2157 23.5291 45.978C22.7789 46.741 21.8898 47.3434 20.8635 47.7871C19.8362 48.231 18.7522 48.4534 17.6112 48.4534C16.0716 48.4534 14.6458 48.0575 13.3338 47.2669C12.0221 46.475 11.0141 45.4431 10.3101 44.1694L8 45.4431C8.95111 47.1604 10.2763 48.5499 11.9781 49.6116C13.6805 50.6729 15.5576 51.2034 17.6106 51.2034C19.1324 51.2034 20.5686 50.9089 21.9187 50.3206C23.2688 49.7309 24.4375 48.931 25.4265 47.9173C26.4147 46.9039 27.1995 45.7122 27.779 44.3424C28.3557 42.9793 28.6447 41.529 28.6478 39.9937C28.6434 38.4627 28.3548 37.0169 27.7795 35.6576C27.2002 34.2875 26.4153 33.0956 25.4273 32.0825ZM15.5157 37.8868C14.9356 38.4856 14.6458 39.1994 14.6458 40.0292C14.6458 40.8587 14.9356 41.5684 15.5157 42.1566C16.0952 42.7457 16.7949 43.0395 17.6112 43.0395C18.1633 43.0395 18.6712 42.8998 19.1383 42.6199C19.6041 42.3399 19.9604 41.968 20.2077 41.5058L22.5171 42.839C22.0417 43.6876 21.3628 44.3823 20.478 44.9229C19.5937 45.4627 18.6392 45.7331 17.6112 45.7331C16.8511 45.7331 16.1285 45.583 15.4441 45.2843C14.7596 44.985 14.1653 44.5803 13.6615 44.0683C13.1579 43.5564 12.7586 42.9537 12.4635 42.259C12.1689 41.5643 12.0213 40.8211 12.0213 40.0297C12.0213 39.2386 12.1689 38.4952 12.4635 37.8005C12.7586 37.1058 13.1584 36.502 13.6615 35.9909C14.1661 35.4787 14.7596 35.074 15.4441 34.7752C16.1285 34.4759 16.8511 34.3261 17.6112 34.3261C18.6578 34.3261 19.6175 34.5919 20.4927 35.1219C21.3666 35.6529 22.0417 36.3531 22.5171 37.221L20.2077 38.5527C19.9604 38.1088 19.6041 37.7378 19.1383 37.4383C18.6712 37.139 18.1633 36.9898 17.6112 36.9898C16.7944 36.9898 16.0952 37.2885 15.5157 37.8868Z" fill="#FDC600"/>
</svg>
