<svg width="111" height="40" viewBox="0 0 111 40" fill="none" xmlns="http://www.w3.org/2000/svg">
<g clip-path="url(#clip0_16_399)">
<path d="M82.7875 17.8333C79.809 17.8333 77.219 18.9259 75.0915 21.1111C72.9085 23.2963 71.8725 25.9259 71.8725 28.9815C71.8725 32.037 72.9085 34.6666 75.0915 36.7963C77.219 38.9815 79.7905 40.074 82.7875 40.074C85.7845 40.074 88.4115 38.9815 90.5945 36.7963C92.722 34.6666 93.8135 32.037 93.8135 28.9815C93.8135 25.9259 92.722 23.2963 90.5945 21.1111C88.4115 18.9259 85.8215 17.8333 82.7875 17.8333ZM86.913 33.0555C85.8215 34.2037 84.4525 34.7778 82.843 34.7778C81.289 34.7778 79.92 34.2037 78.773 33.0555C77.6815 31.9074 77.0525 30.537 77.0525 28.9259C77.0525 27.2592 77.6815 25.8889 78.773 24.7963C79.8645 23.6481 81.2335 23.074 82.843 23.1296C84.4525 23.074 85.8215 23.6481 86.9685 24.7963C88.06 25.8889 88.578 27.2592 88.6335 28.9259C88.578 30.5185 88.0045 31.9074 86.913 33.0555ZM13.4865 17.6111C15.096 17.6111 16.576 18.074 18.019 18.9815C19.277 19.8518 20.313 21.0555 20.9975 22.4815H26.5105C25.715 19.5555 24.161 17.0926 21.756 15.2407C19.351 13.2963 16.539 12.3703 13.4865 12.3703C9.69402 12.3703 6.60452 13.6852 3.95902 16.3889C1.25802 19.0926 -0.055481 22.2963 -0.055481 26.0926C-0.055481 29.8333 1.25802 33.1481 3.95902 35.8518C6.60452 38.5 9.74952 39.8148 13.542 39.8148C16.576 39.8148 19.388 38.8889 21.8115 37C24.161 35.0555 25.7705 32.6852 26.566 29.7592H21.053C20.3685 31.2037 19.3325 32.3518 18.0745 33.2592C16.6315 34.1296 15.207 34.5741 13.542 34.5741C11.1925 34.5741 9.23152 33.7037 7.64052 32.1111C5.97552 30.4444 5.18002 28.5 5.23552 26.1481C5.18002 23.7963 5.97552 21.8333 7.64052 20.1852C9.19452 18.4629 11.1925 17.6111 13.4865 17.6111ZM53.0765 19.1666C51.245 18.1852 49.2285 17.7222 46.9345 17.7963C43.3825 17.7407 40.9035 18.7222 39.479 20.6111C38.554 21.7592 38.11 23.3148 37.9805 25.2037H43.253C43.364 24.2778 43.66 23.6481 43.993 23.2592C44.5665 22.5741 45.4915 22.1666 46.805 22.2222C47.8965 22.1666 48.7475 22.3889 49.395 22.7407C50.024 23.037 50.2645 23.6666 50.32 24.5185C50.32 25.2037 49.913 25.7778 49.1175 26.1296L45.0475 26.7592C43.1605 26.9815 41.662 27.4444 40.515 28.1296C38.5725 29.2778 37.592 31.1666 37.6475 33.8703C37.592 35.7592 38.221 37.2592 39.4235 38.4074C40.515 39.3333 41.9395 39.8518 43.734 39.9074C46.6015 39.8518 48.8955 39.1666 50.505 37.7222V39.9074H55.7775V24.4074C55.7035 21.8518 54.797 20.074 53.0765 19.1666ZM50.1535 31.2778C50.1535 33.1111 49.6355 34.3703 48.655 35.074C47.619 35.7592 46.583 36.1666 45.3805 36.1666C44.6405 36.1666 44.0115 35.9444 43.4935 35.537C42.9755 35.074 42.7535 34.4444 42.7535 33.4629C42.7535 32.3703 43.1605 31.6296 44.0115 31.0555C44.5295 30.7592 45.3805 30.4815 46.472 30.3703L49.1175 29.6852L50.1535 29.1111V31.2778ZM29.2115 12.3889H34.484V39.8889H29.2115V12.3889ZM70.004 18.0185L67.9875 18.5926C66.5445 19.1666 65.2865 20.1481 64.2505 21.574V18.8703L59.2555 18.8148V39.9444H64.4725V29.8333C64.4725 28.1111 64.6945 26.9074 65.157 26.0926C65.5085 25.2963 66.193 24.5926 66.9885 24.074C67.9135 23.4444 68.8755 23.1481 69.856 23.1481L71.4655 23.2592L71.41 17.8703L70.004 18.0185ZM104.063 2.55553L91.39 15.3148L94.72 18.6481L107.393 5.90738L104.063 2.55553ZM81.067 -0.0740967H85.766V13.5926H81.067V-0.0740967ZM97.014 23.9259H110.945V28.6296H97.014V23.9259Z" fill="white"/>
</g>
<defs>
<clipPath id="clip0_16_399">
<rect width="111" height="40" fill="white"/>
</clipPath>
</defs>
</svg>
