<svg width="80" height="80" viewBox="0 0 80 80" fill="none" xmlns="http://www.w3.org/2000/svg">
<path fill-rule="evenodd" clip-rule="evenodd" d="M55.8298 50.3863L60.9955 56.6137L71.972 56.6114L71.974 48.472L57.4099 48.4679C56.2806 49.764 56.2388 49.9211 55.8298 50.3863ZM47.2739 23.3884C49.8576 24.7184 51.3563 27.2805 51.3563 30.4091V30.4087C51.3563 33.0322 50.0035 34.7972 47.9482 36.3237C47.9482 36.3237 46.4076 37.5163 45.5675 38.0886L52.1923 46.0652C52.3798 45.8088 54.5127 43.2521 54.5127 43.2521H70.9181V36.1309H54.5127V31.0544L71.9978 31.0429L72 23.3863L47.2739 23.3884ZM37.5366 46.7646C37.5366 49.581 40.1486 52.1269 42.9483 52.1269C44.9098 52.1269 46.3578 51.5088 47.8983 50.1254L40.8985 41.5646C38.8875 42.996 37.5366 44.3313 37.5366 46.7646ZM30.1941 42.4717L26.9732 32.6346L23.6731 42.4717H30.1941ZM33.9868 30.3125C33.9868 33.5568 35.9504 35.9416 37.3009 37.5158C34.4098 39.4718 31.3251 42.2862 31.3251 46.6251C31.3251 48.0421 31.5228 49.32 31.8998 50.4593L21.394 50.4495L19.2254 56.6156L8 56.6114L21.2689 23.3845L38.1602 23.3862C35.4892 24.6961 33.9868 27.2003 33.9868 30.3125ZM42.1156 34.2723C40.9489 32.8889 39.9248 31.6959 39.9248 30.4561C39.9248 28.882 40.8569 27.6894 42.6786 27.6894C44.406 27.6894 45.4318 28.8815 45.4318 30.4561C45.4318 31.6483 44.5941 32.5546 43.5204 33.318C43.5204 33.318 42.585 33.986 42.1156 34.2723Z" fill="black"/>
</svg>
