<svg width="80" height="80" viewBox="0 0 80 80" fill="none" xmlns="http://www.w3.org/2000/svg">
<path fill-rule="evenodd" clip-rule="evenodd" d="M45.2203 33.9418H53.9068C55.2792 33.9418 56.701 34.5869 56.4201 36.818C56.3688 37.2183 56.3549 37.3411 56.3549 37.3411H44.8088L45.2203 33.9418ZM41.428 33.9416C43.6429 33.9416 44.2519 35.2573 44.0754 36.7085C44.041 36.9903 43.9967 37.3411 43.9967 37.3411H20.5118C20.5534 37.0086 20.5937 36.6758 20.6329 36.3429C20.8012 34.9022 21.9964 33.9391 23.8014 33.9414C24.7529 33.9426 41.428 33.9416 41.428 33.9416ZM9.46887 33.942H20.1178L19.7071 37.3411H9.0568L9.46887 33.942ZM52.2171 38.6355L51.3162 46.0542L55.2996 46.053L56.1999 38.6369L52.2171 38.6355ZM43.7501 46.0542L44.6498 38.6355L48.6341 38.6369L47.7336 46.053L43.7501 46.0542ZM32.7534 38.6367L31.8537 46.0546H35.8349L36.3956 41.448H41.3964C42.8147 41.448 43.5772 40.6761 43.7184 39.6394C43.7639 39.3057 43.8046 38.9716 43.8411 38.6367H32.7534ZM31.5894 41.835C31.6062 41.6928 31.6196 41.5802 31.6288 41.5117C31.9391 39.1918 30.3527 38.6389 29.1034 38.6389C28.8171 38.6389 27.4918 38.6385 25.9432 38.638C23.767 38.6374 21.15 38.6367 20.3555 38.6367C20.0633 40.5727 21.0204 41.4478 22.377 41.4478C23.1147 41.4478 27.7652 41.4459 27.7652 41.4459L27.5969 42.8356L19.8468 42.8362L19.4564 46.0542C19.4564 46.0542 27.8942 46.0571 28.2363 46.0542C28.2479 46.0534 28.2623 46.0525 28.2793 46.0514C28.6781 46.0267 30.5199 45.9122 31.1642 44.3447C31.3449 43.905 31.5081 42.5231 31.5894 41.835ZM19.2081 41.448L19.5496 38.6367H8.90182L8 46.0546H18.6497L19.0422 42.8366L12.3737 42.8358L12.5422 41.448H19.2081Z" fill="#FF2925"/>
<path d="M68.0544 33.9672L67.4779 38.6644H63.8911L64.0319 37.4643L64.5059 33.9414H60.4834L60.176 36.7675L59.9326 38.6644C59.6508 40.5742 60.5987 41.4517 61.9438 41.4517H67.132L66.5683 46.0586H70.5268L72 33.9543L68.0544 33.9672Z" fill="#FF2925"/>
</svg>
