<svg width="80" height="80" viewBox="0 0 80 80" fill="none" xmlns="http://www.w3.org/2000/svg">
<path fill-rule="evenodd" clip-rule="evenodd" d="M27.8391 47.2915H28.5301V44.2006H27.8391V47.2915ZM23.1973 47.2917H23.8881V44.2007H23.1973V47.2917ZM16.1834 46.6549H14.8893V44.2006H14.199V47.2915H16.1834V46.6549ZM9.61691 47.2862V44.8021H10.5066V44.1983H8V44.8122H8.89872V47.2862H9.61691ZM22.4837 44.1888C22.2959 44.1913 22.0604 44.1279 21.9339 44.215C21.8014 44.3062 21.7697 44.5405 21.7002 44.7146C21.5045 45.2046 21.3119 45.6957 21.1077 46.2129C21.0743 46.1349 21.0503 46.0834 21.03 46.0306C20.8084 45.4592 20.5887 44.8872 20.3637 44.3172C20.344 44.2677 20.2912 44.1968 20.2509 44.1948C20.0115 44.1832 19.7712 44.189 19.5121 44.189C19.5378 44.2593 19.5556 44.3127 19.5769 44.365C19.9268 45.2186 20.277 46.0722 20.6274 46.9258C20.7815 47.3014 20.7819 47.2973 21.2005 47.3018C21.3141 47.3029 21.3691 47.2696 21.4127 47.1645C21.722 46.4188 22.0389 45.6759 22.3531 44.932C22.4544 44.6921 22.5554 44.452 22.6663 44.1886C22.5877 44.1886 22.5356 44.188 22.4837 44.1888ZM25.2583 44.296C24.9082 44.5053 24.7574 44.8154 24.7858 45.2098C24.8128 45.5783 25.0583 45.7722 25.3826 45.8961C25.4971 45.9398 25.6172 45.9696 25.7321 46.0122C25.8619 46.0602 25.998 46.1011 26.1152 46.171C26.3467 46.3084 26.3276 46.5601 26.0822 46.6737C26.0116 46.7064 25.9297 46.7235 25.8514 46.7312C25.5794 46.7576 25.3633 46.6435 25.1754 46.448C25.0063 46.6299 24.843 46.8056 24.6715 46.99C25.1889 47.403 25.7466 47.4823 26.3471 47.2726C26.7668 47.126 26.9935 46.777 26.9865 46.3341C26.9801 45.9326 26.7769 45.6864 26.3218 45.534C26.1446 45.4746 25.9634 45.4257 25.7874 45.3633C25.6395 45.3105 25.5164 45.2236 25.5179 45.0497C25.5189 44.914 25.6414 44.809 25.8393 44.7657C26.0874 44.7114 26.3034 44.7844 26.5028 44.9483C26.661 44.7799 26.8161 44.6154 26.9774 44.4438C26.565 44.0621 25.7557 43.9987 25.2583 44.296ZM11.11 47.2887H13.3407V46.6587H11.8217V46.0274H13.1812V45.4002H11.8199V44.8179H13.2507V44.1969H11.11V47.2887ZM17.5732 46.0344H18.9263V45.3991H17.5732V44.8262H19.0137V44.1987H16.8665V47.2885H19.0994V46.657H17.5732V46.0344ZM29.9526 45.7368C29.9503 46.3299 30.3334 46.7292 30.9089 46.7331C31.5103 46.7371 31.9153 46.343 31.9189 45.7505C31.9225 45.1676 31.5142 44.7504 30.9388 44.7489C30.3522 44.7475 29.9552 45.1453 29.9526 45.7368ZM31.0112 44.1098C31.626 44.1291 32.1856 44.363 32.4831 44.9863C32.7612 45.5691 32.7375 46.1628 32.365 46.7036C31.9983 47.2359 31.438 47.4102 30.808 47.3742C30.1303 47.3354 29.5915 47.0512 29.3374 46.4096C28.9307 45.3826 29.4574 44.1045 31.0112 44.1098ZM33.9537 45.1072C34.0085 45.1879 34.0379 45.2288 34.0649 45.2715C34.466 45.9086 34.8659 46.5466 35.2698 47.182C35.2999 47.2296 35.3566 47.2917 35.4028 47.2935C35.6857 47.3036 35.9689 47.2986 36.2582 47.2986V44.1986H35.5604V46.2846C35.5035 46.2522 35.4734 46.2124 35.447 46.1707C35.0575 45.5509 34.6695 44.9304 34.2778 44.3121C34.2474 44.2638 34.1936 44.1965 34.1488 44.1949C33.8505 44.1845 33.5514 44.1894 33.2547 44.1894V47.2929H33.9537V45.1072ZM64.9882 35.8113C64.9876 35.7747 64.9265 35.7183 64.8833 35.7064C64.0814 35.4837 63.1398 35.8279 62.6763 36.5085C62.6224 36.5878 62.5711 36.6688 62.5184 36.7489C62.5082 36.7459 62.4979 36.7427 62.4876 36.7396V35.8076H60.8874V42.0493H62.4896V41.8647C62.4896 40.8337 62.4889 39.8028 62.4897 38.7718C62.4905 37.8055 63.1699 37.1376 64.161 37.1447C64.4318 37.1464 64.7019 37.1945 64.9929 37.2235C64.9929 36.7521 64.9952 36.2816 64.9882 35.8113ZM16.1085 42.0539H17.7016V32.6155H16.1085V42.0539ZM58.2278 38.2948C58.215 37.8671 58.0933 37.4931 57.7643 37.208C57.3371 36.838 56.8218 36.7779 56.2832 36.85C55.8282 36.9107 55.4684 37.1355 55.2251 37.5192C55.0756 37.7551 54.977 38.0097 54.9628 38.2948H58.2278ZM59.8355 39.4792H54.9716C54.9552 39.9821 55.3598 40.5598 55.8822 40.7922C56.6791 41.1463 57.6311 40.9338 58.2575 40.262C58.3002 40.2161 58.342 40.1692 58.3955 40.1103C58.7834 40.3956 59.163 40.6746 59.5508 40.9599C59.0591 41.5507 58.4564 41.9584 57.699 42.1192C56.6575 42.34 55.6618 42.2145 54.7686 41.6288C53.7306 40.9484 53.287 39.9547 53.3419 38.759C53.3955 37.5886 53.9381 36.6751 54.9972 36.0923C55.7943 35.6539 56.6596 35.5276 57.5513 35.7164C58.7516 35.9704 59.4191 36.7591 59.7057 37.8845C59.7751 38.1569 59.8076 38.4406 59.8313 38.7212C59.8516 38.9645 59.8355 39.2107 59.8355 39.4792ZM22.2735 40.7956C23.3658 40.7934 24.152 40.0017 24.15 38.906C24.1481 37.8489 23.3369 37.0562 22.2587 37.0573C21.1876 37.0584 20.3876 37.8655 20.389 38.9438C20.3904 40.0064 21.1959 40.798 22.2735 40.7956ZM22.2502 42.2213C20.986 42.1863 19.9045 41.7381 19.2296 40.6133C18.1803 38.8638 18.8947 36.1576 21.595 35.7C22.5498 35.5382 23.4617 35.6743 24.2796 36.1986C25.4065 36.9207 25.8505 37.9763 25.7451 39.2585C25.5991 41.0329 24.13 42.1595 22.4425 42.2096C22.3889 42.2112 22.3353 42.216 22.2502 42.2213ZM29.9723 40.7956C31.0444 40.7978 31.8513 40.0099 31.8544 38.9581C31.8575 37.8725 31.0644 37.0596 30 37.0573C28.9095 37.055 28.0954 37.845 28.0933 38.9073C28.0914 40.001 28.8799 40.7936 29.9723 40.7956ZM29.9793 42.2202C28.7726 42.1931 27.7474 41.7902 27.0487 40.794C25.8529 39.0894 26.4772 36.1872 29.289 35.7004C30.1553 35.5505 30.9897 35.6607 31.7696 36.0714C32.9858 36.7119 33.5525 37.912 33.4587 39.187C33.3195 41.0828 31.7727 42.1685 30.1399 42.2096C30.0862 42.2111 30.0329 42.2166 29.9793 42.2202ZM49.1143 40.7953C50.2011 40.7976 51.0064 40.0069 51.008 38.9361C51.0096 37.8704 50.206 37.0601 49.145 37.0571C48.0561 37.0538 47.24 37.8566 47.2417 38.9297C47.2435 39.9968 48.0428 40.7932 49.1143 40.7953ZM47.2187 41.1617V42.0552H45.6985V32.6182H47.2991V36.6031C47.3509 36.5562 47.3778 36.5356 47.4004 36.5111C48.0478 35.803 48.8796 35.5776 49.8155 35.6564C51.3999 35.7902 52.4331 37.0183 52.5918 38.4783C52.6793 39.2852 52.5668 40.0577 52.1461 40.7661C51.6159 41.6587 50.7991 42.1183 49.7551 42.2028C49.1386 42.2528 48.5457 42.1705 48.0015 41.8593C47.695 41.684 47.45 41.4474 47.2187 41.1617ZM40.2255 41.8574C40.2255 40.8888 40.2246 39.9201 40.2262 38.9514C40.2265 38.7579 40.2258 38.5635 40.2425 38.3711C40.3062 37.6352 40.7367 37.1479 41.4235 37.0689C42.079 36.9933 42.5824 37.2533 42.722 37.9463C42.7578 38.1249 42.779 38.3092 42.7797 38.4911C42.785 39.6168 42.7824 40.7426 42.7824 41.8682V42.0469H44.3942V41.8427C44.3942 40.6646 44.4005 39.4864 44.39 38.3084C44.3872 38.0016 44.3589 37.6899 44.2958 37.3897C44.1386 36.6402 43.7611 36.0377 42.9755 35.7826C42.7054 35.6949 42.4094 35.6546 42.1234 35.6453C41.431 35.6229 40.8039 35.8017 40.3214 36.321C40.1926 36.4595 40.0827 36.6149 39.9575 36.7709C39.5807 35.945 38.8737 35.6516 38.006 35.6412C37.1311 35.6307 36.4332 35.9525 35.9697 36.7188V35.8077H34.449V42.049H36.0505V40.968C36.0505 40.1773 36.0455 39.3865 36.0518 38.596C36.0586 37.7108 36.5228 37.164 37.339 37.0639C38.0042 36.9822 38.4469 37.2888 38.5697 37.9288C38.6019 38.0971 38.6103 38.2719 38.611 38.4436C38.6145 39.5851 38.6128 40.7266 38.6128 41.8681V42.0527H40.2255V41.8574ZM68.586 37.0571C67.4601 37.0573 66.6774 37.82 66.6804 38.9138C66.6831 39.9333 67.5131 40.7222 68.5835 40.7222C69.697 40.7223 70.4727 39.9693 70.4732 38.8879C70.4737 37.7987 69.7092 37.0567 68.586 37.0571ZM70.4736 36.723V35.8072H71.9989V35.9799C71.9989 37.8695 72.0022 39.7591 71.9973 41.6487C71.9955 42.3803 71.8576 43.085 71.4752 43.7264C71.0487 44.442 70.3979 44.8733 69.5835 45.0526C68.4745 45.2966 67.3761 45.2379 66.3089 44.836C65.8961 44.6807 65.5265 44.4514 65.1887 44.1528C65.5113 43.7247 65.8275 43.305 66.1516 42.8751C66.2699 42.9686 66.3754 43.0554 66.4846 43.1377C67.2137 43.6874 68.0359 43.8825 68.9393 43.7213C69.7675 43.5734 70.2423 43.0794 70.3449 42.2623C70.3863 41.9325 70.3846 41.5975 70.4026 41.265C70.3882 41.2597 70.3742 41.2543 70.3599 41.2489C70.2534 41.3548 70.1568 41.4726 70.0388 41.5644C69.4262 42.0405 68.7162 42.1891 67.9513 42.1247C66.0703 41.9668 64.9503 40.411 65.0788 38.655C65.1291 37.967 65.3219 37.3268 65.7572 36.7745C66.3952 35.9652 67.2683 35.6334 68.2907 35.6421C68.9537 35.6479 69.5642 35.8224 70.0624 36.2723C70.2057 36.4018 70.3241 36.5572 70.4736 36.723ZM9.70663 36.5805C10.1859 36.5805 10.6521 36.5878 11.1178 36.5776C11.3739 36.5721 11.634 36.5602 11.8842 36.5113C12.6704 36.3582 13.0593 35.7869 12.8716 35.0859C12.7466 34.6189 12.3804 34.414 11.9402 34.326C11.2094 34.1802 10.4669 34.2471 9.72853 34.2509C9.72423 34.2509 9.71994 34.2569 9.70663 34.2672V36.5805ZM9.70609 40.6385C10.285 40.6385 10.8431 40.6453 11.4008 40.6354C11.6463 40.6309 11.8944 40.6091 12.1359 40.5661C12.8573 40.438 13.2463 40.0687 13.3063 39.4248C13.3692 38.7464 13.0922 38.3022 12.4423 38.1227C12.2831 38.0787 12.1179 38.0345 11.9544 38.0304C11.2196 38.0114 10.4843 38.0064 9.74908 37.9972C9.73525 37.9971 9.72101 38.0088 9.70609 38.0152V40.6385ZM8.01128 32.8257C8.06984 32.8257 8.12223 32.8256 8.17461 32.8257C9.34559 32.8257 10.5166 32.824 11.6877 32.8269C12.3069 32.8285 12.907 32.9245 13.4583 33.2176C14.2928 33.6614 14.649 34.3721 14.6028 35.2727C14.5564 36.1739 14.044 36.759 13.2028 37.0916C13.1362 37.118 13.0689 37.143 12.9993 37.1695C13.2382 37.2439 13.4758 37.2913 13.6893 37.3892C14.5042 37.7629 14.9449 38.4021 14.9979 39.2747C15.0585 40.2662 14.6957 41.0693 13.7736 41.552C13.4249 41.7343 13.0321 41.8609 12.6436 41.9404C12.227 42.0257 11.7922 42.0514 11.3648 42.0576C10.3121 42.0732 9.25909 42.0628 8.20631 42.0628H8.01128V32.8257Z" fill="black"/>
</svg>
