<svg width="80" height="80" viewBox="0 0 80 80" fill="none" xmlns="http://www.w3.org/2000/svg">
<path fill-rule="evenodd" clip-rule="evenodd" d="M67.2975 47.8243H72V45.7524H67.2975V47.8243Z" fill="black"/>
<path fill-rule="evenodd" clip-rule="evenodd" d="M67.0781 35.0811L68.2495 43.4817H71.0035L71.941 35.2515V32.0728H67.1363L67.0781 35.0811Z" fill="black"/>
<path fill-rule="evenodd" clip-rule="evenodd" d="M53.426 47.7957C51.1263 45.3314 52.0051 40.8472 56.0627 39.622C56.2916 39.5392 56.5179 39.4588 56.7403 39.38C59.3249 38.4623 61.3483 37.7439 60.34 35.7621C59.0468 34.7176 57.499 35.3231 57.2786 37.4081H52.6498C52.6407 33.6957 55.0624 31.9549 58.9191 32.0157C62.8993 31.7786 65.3994 33.4434 65.3644 36.5L65.3643 47.7388H60.9479L60.948 47.3556L60.5305 47.3627L60.047 47.7955L53.426 47.7957ZM60.6035 43.2548V40.6438C56.9886 41.7847 56.0024 43.8848 57.4103 45.5252C59.208 46.2253 60.5556 45.2793 60.6035 43.2548Z" fill="black"/>
<path fill-rule="evenodd" clip-rule="evenodd" d="M46.3802 37.8055V44.6736C46.2652 47.6046 48.2573 48.6452 51.4779 47.6253V45.5252C50.3124 45.5648 49.7853 45.1674 49.7201 44.1627V37.9191H51.5363V35.4783H49.7201V32.0725H46.3802V35.4783H44.9154V37.8055H46.3802Z" fill="black"/>
<path fill-rule="evenodd" clip-rule="evenodd" d="M36.3026 32.4701L36.2439 47.9093H41.107V39.7923C41.0883 37.8899 42.3186 37.0762 44.7985 37.3516V32.1863C43.6389 31.9636 42.0959 32.8529 40.6969 34.854V32.4701H36.3026Z" fill="black"/>
<path fill-rule="evenodd" clip-rule="evenodd" d="M21.3613 32.1292V44.5599C21.3312 46.3798 21.3507 47.9313 22.3574 47.8521H34.486V32.1858H29.5643V43.4815C29.6883 46.8494 26.0556 46.9627 26.3416 43.7652V32.1292H21.3613Z" fill="black"/>
<path fill-rule="evenodd" clip-rule="evenodd" d="M12.6894 37.181C12.8107 33.5063 16.2483 33.7523 15.9706 37.9189H20.4237C20.4898 34.186 19.2984 32.275 17.4354 32.1291H11.2246C9.07891 32.069 7.94614 34.945 8.00197 39.0541V42.4598C8.1112 45.9516 9.18536 47.8626 10.6973 47.8521H17.4354C19.5077 47.999 20.8358 45.653 20.4237 42.0057H15.9706C16.1751 46.3453 12.8479 46.7122 12.6894 42.857V37.181Z" fill="black"/>
</svg>
