<svg width="80" height="80" viewBox="0 0 80 80" fill="none" xmlns="http://www.w3.org/2000/svg">
<path fill-rule="evenodd" clip-rule="evenodd" d="M32.3312 21.8333V14.6668H40.0562H47.7818L47.7778 21.8295L47.7745 28.9933L40.0528 28.9966L32.3312 29.0004V21.8333ZM50.133 21.8239C50.133 25.7601 50.1376 28.985 50.1426 28.9905C50.1482 28.996 53.6228 28.9988 57.8644 28.9966L65.5759 28.9933L65.5797 21.8295L65.5835 14.6668H57.8581H50.133V21.8239ZM62.3307 26.2588C61.471 26.6859 60.4522 26.9718 59.3671 27.0886C59.1218 27.1152 58.2199 27.1275 57.9835 27.1075C57.1796 27.0399 56.504 26.8925 55.7808 26.6255C54.9925 26.3352 54.1924 25.7497 53.6177 25.0422C52.9485 24.2173 52.5807 23.2688 52.4824 22.1098C52.4165 21.3387 52.6242 20.3719 53.0262 19.5775C53.7203 18.208 54.8776 17.3067 56.5935 16.8009C57.3147 16.5881 58.4209 16.5111 59.4355 16.6036C60.09 16.6629 61.1328 16.9322 62.0199 17.2712C62.1479 17.3203 62.2766 17.3694 62.3336 17.391L62.337 17.3923L62.3396 17.3933L62.3408 17.3938L62.3564 17.3997L62.4194 17.423V18.3659C62.4194 18.8845 62.416 19.3088 62.4118 19.3088C62.4075 19.3088 62.3362 19.2717 62.253 19.2257C61.7611 18.9576 61.0961 18.6817 60.5063 18.5016C59.6901 18.2523 58.8195 18.1277 58.2098 18.172C57.9805 18.1892 57.7027 18.2257 57.5326 18.2623C56.6273 18.4557 55.9847 18.7759 55.4459 19.3011C55.1263 19.613 54.908 19.9199 54.7408 20.2911C54.4943 20.8395 54.3566 21.583 54.4052 22.1098C54.4723 22.84 54.7193 23.4832 55.1491 24.0444C55.3467 24.3037 55.7195 24.6317 56.0307 24.8233C56.7135 25.2427 57.6681 25.4793 58.6776 25.4787C59.7657 25.4776 61.0649 25.0649 62.3193 24.3198L62.5224 24.1996L62.519 25.1829L62.5152 26.1668L62.3307 26.2588ZM43.4697 25.8576C42.9462 26.4271 42.2195 26.7662 41.1731 26.9307L40.9288 26.9689L38.6632 26.9739L36.397 26.9783V21.8333V16.6883L38.3007 16.6928L38.6423 16.6935C39.9625 16.6965 40.2085 16.697 40.4481 16.7367C40.503 16.7458 40.5575 16.7569 40.6246 16.7706C40.6479 16.7753 40.6728 16.7804 40.6997 16.7858C42.0303 17.0529 42.8651 17.7852 43.1122 18.9026C43.1421 19.0356 43.146 19.096 43.1466 19.4029C43.1471 19.7869 43.1336 19.8866 43.0481 20.1519C42.9388 20.4899 42.7756 20.7453 42.4902 21.0267C42.2944 21.2195 42.1052 21.3613 41.9082 21.4622C41.8699 21.4821 41.8378 21.502 41.8384 21.5059C41.8384 21.5098 41.9133 21.5347 42.0045 21.5613C42.3793 21.6699 42.7222 21.83 43.0137 22.0339C43.191 22.1574 43.4708 22.4272 43.5952 22.5945C43.8192 22.8937 43.97 23.2311 44.0584 23.6305C44.0972 23.8061 44.1108 24.189 44.0871 24.4167C44.0269 24.9795 43.8091 25.4881 43.4697 25.8576ZM38.2455 19.6212V18.2883L39.1146 18.2938C39.924 18.2994 39.9921 18.3016 40.1232 18.3298C40.7329 18.4595 41.0936 18.7636 41.2192 19.25C41.2462 19.3559 41.249 19.4002 41.2428 19.5841C41.2298 19.9481 41.1398 20.1735 40.9113 20.4145C40.6833 20.6544 40.3653 20.814 39.9234 20.9109C39.7832 20.9414 39.736 20.9436 39.0104 20.9492L38.2455 20.9547V19.6212ZM38.2455 22.5829V23.9879V25.3928L39.4466 25.3873L39.5567 25.3868C40.4667 25.3822 40.6603 25.3812 40.8463 25.3434C40.8966 25.3332 40.9463 25.3203 41.0094 25.304L41.0362 25.297C41.5316 25.1674 41.8941 24.8976 42.068 24.5275C42.1766 24.2959 42.2194 23.9652 42.1716 23.7325C42.0398 23.0927 41.5051 22.6888 40.667 22.5985C40.578 22.5885 40.0917 22.5829 39.3841 22.5829H38.2455ZM14.53 21.8333V14.6667H22.2477H29.966V21.8333V29.0004H22.2477H14.53V21.8333ZM23.3713 26.9307C23.9325 26.8431 24.362 26.7157 24.7684 26.5157C25.4371 26.1878 25.8953 25.7097 26.1255 25.1002C26.2443 24.7856 26.2916 24.5019 26.2916 24.1036C26.2916 23.8576 26.2859 23.7867 26.2578 23.6477C26.1627 23.1851 25.9403 22.7435 25.6341 22.4067C25.2897 22.0278 24.7645 21.7203 24.1785 21.5535C24.1008 21.5314 24.0367 21.5098 24.0367 21.5059C24.0367 21.502 24.0946 21.4666 24.1656 21.4272C24.5652 21.204 24.9238 20.8361 25.123 20.4444C25.2688 20.158 25.3364 19.8766 25.3482 19.5049C25.36 19.1481 25.3257 18.9087 25.2187 18.5913C24.8928 17.6246 24.04 16.9864 22.7752 16.7614L22.7702 16.7605C22.6984 16.7478 22.6394 16.7374 22.5802 16.7288C22.3075 16.6894 22.0292 16.6894 20.4697 16.6894H20.4257H18.5958V21.8339V26.9783L20.862 26.9739L23.1276 26.9689L23.3713 26.9307ZM20.4443 22.5812V23.9862V25.3917H21.5571C22.738 25.3917 22.8579 25.3856 23.1427 25.3197C23.7152 25.185 24.1143 24.8947 24.282 24.4881C24.3524 24.3186 24.3811 24.1635 24.3811 23.9507C24.3811 23.7795 24.376 23.738 24.3417 23.626C24.1768 23.0887 23.754 22.7591 23.0566 22.6233C22.8951 22.5917 22.8601 22.5912 21.6674 22.5862L20.4443 22.5812ZM20.4443 19.6206V18.2883L21.3128 18.2938C22.1436 18.2988 22.1875 18.3004 22.3254 18.3315C22.7329 18.4218 23.0251 18.5846 23.2097 18.8251C23.3685 19.0317 23.445 19.26 23.4456 19.5287C23.4456 19.9137 23.3302 20.1974 23.069 20.4511C22.8658 20.6483 22.6057 20.7863 22.2742 20.8727C21.9967 20.9458 21.8942 20.9525 21.1428 20.953H20.4443V19.6206ZM61.3993 36.1886V42.235V48.2813H63.724C65.0781 48.2813 66.1729 48.2752 66.3448 48.2664C68.0569 48.1816 69.37 47.6675 70.3597 46.6958C70.5948 46.4642 70.773 46.2537 70.9491 45.9966C71.655 44.9701 72 43.7252 72 42.2061C72 41.0582 71.7927 40.0444 71.3874 39.2084C71.1146 38.645 70.8136 38.2123 70.4116 37.8068C69.4705 36.8562 68.1443 36.3121 66.5027 36.2041C66.3621 36.1947 65.3534 36.1886 63.8376 36.1886H61.3993ZM68.1717 45.8061C67.6954 46.1263 67.1284 46.3218 66.4115 46.4138C66.2557 46.4338 66.0158 46.4388 64.9071 46.4437L63.5876 46.4498V42.2355V38.0207L64.9586 38.0268L65.0198 38.027C66.0885 38.0311 66.3232 38.032 66.5542 38.0647C66.6192 38.0739 66.6838 38.0857 66.767 38.1007L66.7809 38.1032C68.2144 38.3614 69.1779 39.2517 69.5439 40.6572C69.6744 41.1608 69.7149 41.5175 69.7158 42.199C69.7162 42.7281 69.7048 42.8998 69.6482 43.2687C69.4709 44.4117 68.9722 45.2676 68.1717 45.8061ZM51.2368 48.2719C51.2313 48.2664 51.2267 45.5457 51.2267 42.2256V36.1886H52.3211H53.4155L53.4193 41.3004L53.4227 46.4116L56.4424 46.4154L59.4625 46.4188V47.3501V48.2813H55.3543C53.095 48.2813 51.2419 48.2774 51.2368 48.2719ZM39.6206 42.2344V36.1875L42.086 36.193L42.1964 36.1932C44.2781 36.1972 44.6137 36.1978 44.9444 36.2386C45.0079 36.2464 45.0712 36.2557 45.1466 36.2668L45.165 36.2695C46.3341 36.4401 47.1965 36.8207 47.8342 37.4473C48.3504 37.9542 48.6442 38.5669 48.7506 39.3558C48.803 39.7453 48.7939 40.2389 48.727 40.6272C48.5243 41.8012 47.774 42.6959 46.584 43.1823L46.579 43.1844C46.4878 43.2223 46.4117 43.2538 46.409 43.256C46.4062 43.2582 46.5525 43.4875 46.736 43.7662C47.6411 45.1468 48.4753 46.4708 49.2245 47.7168C49.4069 48.0204 49.5561 48.2714 49.5561 48.2752C49.5561 48.2785 48.9915 48.2813 48.3014 48.2813H47.0462L46.9533 48.1179C46.5998 47.4941 46.2272 46.8636 45.4352 45.5518C44.5053 44.0106 44.2678 43.6316 44.2379 43.6377C44.2233 43.6399 43.6644 43.646 42.9951 43.6499L41.7792 43.6571V45.9695V48.2813H40.6997H39.6206V42.2344ZM44.0825 41.9226C44.6555 41.8937 45.0715 41.8151 45.4644 41.6605C45.8967 41.491 46.1967 41.2311 46.3808 40.8672C46.6454 40.3442 46.647 39.5221 46.3847 38.988C46.1455 38.5022 45.6586 38.1742 44.9426 38.0174C44.467 37.9132 44.3308 37.9044 42.9731 37.8955L41.7792 37.8878V39.9121V41.937L42.7958 41.9364C43.3547 41.9364 43.9339 41.9303 44.0825 41.9226ZM28.5728 48.0775C29.1086 48.2991 29.7267 48.4425 30.4162 48.5068C30.714 48.5339 31.605 48.5268 31.8876 48.4941C32.8428 48.3838 33.6297 48.1318 34.3564 47.703C35.8086 46.8459 36.7329 45.3662 37.0172 43.4433C37.1185 42.7563 37.1213 41.7901 37.025 41.0887C36.9406 40.4782 36.8055 39.9658 36.5787 39.3979C36.2882 38.6711 35.9021 38.0888 35.3477 37.5415C34.7414 36.9431 34.0389 36.5155 33.2233 36.249C31.9405 35.8291 30.2873 35.8235 28.9825 36.2335C27.8241 36.5975 26.8391 37.3199 26.167 38.2988C25.7009 38.9763 25.3756 39.7724 25.2135 40.6272C25.1065 41.1907 25.0789 41.5275 25.0801 42.2499C25.0806 42.7585 25.0857 42.8893 25.1133 43.1374C25.2011 43.9374 25.3581 44.5684 25.6182 45.1662C26.2148 46.5384 27.2005 47.5096 28.5728 48.0775ZM33.6326 45.7064C33.1097 46.2238 32.4809 46.5207 31.6805 46.6299C31.5195 46.6521 30.87 46.6714 30.7489 46.6576C30.7202 46.6543 30.6341 46.6448 30.557 46.6365C29.7723 46.5501 29.1267 46.2637 28.6072 45.7717C27.867 45.0704 27.4527 44.0671 27.3621 42.7558C27.3395 42.4361 27.3531 41.6627 27.3851 41.3984C27.4679 40.717 27.6097 40.2184 27.8664 39.7032C28.064 39.3071 28.2846 39.0046 28.5847 38.7204C29.2793 38.0622 30.2328 37.7437 31.3231 37.8046C31.8848 37.8362 32.3121 37.9403 32.7528 38.1526C33.7035 38.6102 34.3334 39.4301 34.6374 40.6051C34.844 41.4023 34.8833 42.456 34.7409 43.3679C34.5901 44.3341 34.2113 45.1352 33.6326 45.7064ZM11.2861 48.2558C10.135 44.4986 9.0796 40.6544 8.17222 36.9165C8.08216 36.5442 8.00449 36.2284 8.00054 36.2141C7.99266 36.1902 8.05571 36.1886 9.17416 36.1886H10.3557L10.4913 36.8545C11.1927 40.2887 11.6812 42.4399 12.3877 45.1961C12.4929 45.6077 12.5813 45.9467 12.5836 45.949C12.5948 45.96 13.2934 43.3961 13.6649 41.9806L13.7006 41.8443L13.701 41.8429L13.7014 41.8412C13.7726 41.5698 13.8705 41.1966 13.9384 40.9397C14.2075 39.9231 14.2925 39.594 14.6116 38.3281C14.7023 37.9695 14.7901 37.6218 14.8574 37.3555L14.8578 37.3535C14.9202 37.1067 14.9648 36.9301 14.9775 36.88L15.0254 36.691L16.0937 36.6872L17.1626 36.6833L17.1761 36.716C17.184 36.7343 17.2476 36.9814 17.3174 37.2656C17.4638 37.8605 17.9957 39.953 18.1589 40.5763C18.3346 41.2444 18.4888 41.83 18.5839 42.1845C18.6059 42.2674 18.634 42.3725 18.6623 42.4781L18.6625 42.4789L18.6627 42.4795C18.6957 42.6029 18.7289 42.727 18.7528 42.8172C18.9244 43.4598 19.5487 45.7451 19.565 45.7916C19.569 45.8027 19.5757 45.8088 19.5785 45.8049C19.5892 45.7949 19.9635 44.3285 20.1465 43.5812C20.6103 41.6865 21.2435 38.85 21.7011 36.6107C21.7411 36.4146 21.7777 36.2396 21.7822 36.2213L21.7895 36.1886H22.9429H24.0962L24.0884 36.2213C23.8238 37.3315 23.1472 39.9563 22.6525 41.7912C22.12 43.7651 21.2756 46.7235 20.8337 48.1616L20.7972 48.2813H19.6455H18.4933L18.4702 48.2049C18.4573 48.1633 18.2743 47.5362 18.0644 46.8121C17.7277 45.6531 17.5426 45.0094 17.2403 43.9451C16.9662 42.9784 16.4596 41.1491 16.1944 40.1613L16.1901 40.1449C16.0674 39.6901 16.0425 39.5979 16.0328 39.5994C16.0304 39.5998 16.0288 39.6063 16.027 39.6144L16.0267 39.6156C15.9991 39.7375 15.3366 42.1535 15.0693 43.1086L15.0338 43.2353C14.9492 43.5383 14.8107 44.0344 14.7011 44.4249C14.3403 45.7224 14.1208 46.4947 13.7999 47.5977L13.6035 48.2741L12.4484 48.278C11.3582 48.2813 11.2934 48.2802 11.2861 48.2558ZM56.9351 64.5785C57.8264 65.0045 58.8326 65.2532 59.9578 65.3262C60.1385 65.338 60.8795 65.3347 61.0737 65.3212C62.5553 65.219 63.6328 64.8149 64.4055 64.0714C65.0916 63.4119 65.4243 62.5303 65.3863 61.4726C65.3593 60.7143 65.1946 60.211 64.8112 59.7081C64.4899 59.2868 63.9001 58.8683 63.2254 58.5842C62.8074 58.4081 62.0714 58.1826 61.1848 57.9584C60.4041 57.7608 59.8877 57.6008 59.6356 57.4767C59.2725 57.2981 59.031 57.0904 58.9107 56.8529C58.7524 56.5404 58.7152 56.126 58.8115 55.7559C58.9483 55.2279 59.4351 54.8224 60.1503 54.6407C60.5181 54.5471 60.6684 54.5327 61.2587 54.5321C61.6796 54.5321 61.8358 54.5371 62.0056 54.5576C62.9636 54.6734 63.9571 54.9842 64.6419 55.3825C64.7116 55.423 64.7724 55.4556 64.7766 55.4556C64.7808 55.4556 64.7851 55.0268 64.7851 54.5028V53.5499L64.6398 53.4779C64.0812 53.202 63.3005 52.9638 62.5676 52.8446C61.3934 52.6541 60.1444 52.7217 59.1856 53.0269C57.8817 53.4413 56.9947 54.2912 56.7054 55.4013C56.6151 55.7476 56.6011 55.8772 56.6024 56.3581C56.6028 56.8412 56.6214 56.9962 56.7177 57.326C56.8794 57.8778 57.2446 58.384 57.723 58.721C58.4192 59.2099 59.1695 59.5055 60.6692 59.88C61.6526 60.1253 61.9786 60.2346 62.3252 60.4339C62.535 60.5551 62.687 60.6683 62.7998 60.7861C63.0607 61.0622 63.168 61.3282 63.1806 61.7331C63.1958 62.206 63.035 62.6029 62.7044 62.9065C62.3797 63.2054 61.9199 63.4068 61.3621 63.4942C60.4636 63.6361 59.3004 63.5356 58.3238 63.232C57.856 63.0863 57.3105 62.8486 56.8802 62.6033C56.7654 62.5379 56.6674 62.4842 56.6624 62.4842C56.6573 62.4842 56.6535 62.925 56.6535 63.4642V64.4442L56.9351 64.5785ZM42.4857 64.6971C42.5478 64.9006 42.597 65.0619 42.6 65.0708C42.6051 65.0851 42.85 65.0889 43.759 65.0889C44.8437 65.0889 44.9118 65.0877 44.9197 65.0636C44.9501 64.9652 45.3998 63.406 45.5271 62.9576C45.8766 61.7302 46.8205 58.3346 47.1622 57.0756C47.263 56.7055 47.3474 56.4052 47.3491 56.4074C47.3519 56.4096 47.4138 56.634 47.4876 56.905C48.1129 59.2167 48.6589 61.1572 49.4239 63.7868C49.5939 64.3707 49.7481 64.9015 49.7667 64.9656L49.8016 65.0818H50.9543H52.1066L52.1264 65.0239C52.1366 64.9918 52.2109 64.7461 52.2911 64.478C53.2137 61.3941 54.0784 58.2561 54.9148 54.9609C55.1804 53.915 55.3881 53.0823 55.3991 53.0219C55.4033 52.9981 55.3416 52.9964 54.2578 52.9959C53.3437 52.9959 53.1102 52.9997 53.1005 53.0141C53.0946 53.0241 53.0494 53.2291 53.0004 53.4695C52.5259 55.7919 51.8917 58.6285 51.4108 60.5779C51.2343 61.2965 50.8948 62.6151 50.8872 62.6151C50.8678 62.6151 49.9423 59.1939 49.438 57.2601C49.3254 56.8273 48.7124 54.418 48.5706 53.8479L48.4833 53.4983H47.4138C46.4777 53.4983 46.3421 53.5011 46.332 53.5199C46.3252 53.5321 46.2425 53.8562 46.1479 54.2407C45.8479 55.4556 45.5214 56.7187 44.8313 59.3336C44.4216 60.8861 43.8997 62.7756 43.8885 62.7464C43.8384 62.6134 43.1049 59.6359 42.8291 58.4461C42.5719 57.3374 42.0839 55.0578 41.7613 53.4568L41.7421 53.3621C41.7005 53.1575 41.6689 53.0016 41.6679 52.9997C41.664 52.9936 39.3207 52.9959 39.3145 53.0019C39.2987 53.0169 40.0434 55.9936 40.4188 57.418C41.0684 59.8825 41.7214 62.1845 42.461 64.616L42.4857 64.6971ZM29.174 65.0708C29.1706 65.0611 29.1689 62.3398 29.1706 59.0246L29.1745 52.9965H33.2774H37.3803L37.3842 53.8989L37.3881 54.8008L34.3756 54.8047L31.363 54.808V56.3653V57.9226L34.0497 57.9259L36.7374 57.9297V58.8396V59.7487H34.0463H31.3551V61.5093V63.2704L34.5343 63.2738L37.7135 63.2776V64.1795V65.0822L33.4474 65.0851C30.0419 65.0885 29.1796 65.0851 29.174 65.0708ZM15.8826 52.9959L15.8787 59.0427L15.8747 65.0889H16.9251H17.9749L17.9788 60.5897L17.9822 56.0899L18.2051 56.4096C19.1558 57.7693 20.3986 59.6085 21.8385 61.7855L21.8595 61.8171C22.0385 62.0874 22.3143 62.5028 22.4864 62.7608C22.7566 63.1657 23.1202 63.7176 23.9279 64.9475L24.0214 65.0889L25.119 65.0851L26.2172 65.0818V59.0389V52.9959H25.1753H24.1328L24.1255 57.4674L24.1182 61.9387L24.0799 61.8805C24.0579 61.8484 23.8778 61.5735 23.6791 61.2695C22.1064 58.8662 20.0012 55.7465 18.5096 53.6075C18.2782 53.2756 18.0874 53.0019 18.0857 52.9997C18.0841 52.9975 17.5876 52.9959 16.9825 52.9959H15.8826Z" fill="#B90005"/>
</svg>
