<svg width="80" height="80" viewBox="0 0 80 80" fill="none" xmlns="http://www.w3.org/2000/svg">
<g clip-path="url(#clip0_656_2571)">
<path fill-rule="evenodd" clip-rule="evenodd" d="M57.4554 49.5999H63.7035L65.0482 37.7639H58.629L57.4554 49.5999ZM62.8797 30.3999H47.6405L47.0959 35.8331H65.369L65.3831 32.5969C65.1908 31.2872 64.2919 30.533 62.8797 30.3999ZM85.3991 30.622H72.5167L71.9552 35.6178H81.4813L81.317 37.8332H73.7106C71.5624 37.8332 71.4439 40.363 71.4439 40.363L70.4623 49.126H86.446L86.9176 44.2582H77.3018L77.5079 42.0202H85.1788C87.082 42.0202 87.3192 39.9197 87.3192 39.9197L87.9901 32.897C88.1863 30.4782 85.3991 30.622 85.3991 30.622ZM45.6634 49.5999H51.884L53.2423 37.7639H46.837L45.6634 49.5999ZM10.2965 30.3999H-6.08552L-6.62342 35.8331H9.68881L10.2965 30.3999ZM28.8971 37.763L27.7149 49.5999H33.9911L34.6859 42.1965H43.2751C45.2623 41.8819 46.121 39.5077 46.1667 37.7618L28.8971 37.763ZM8.89313 42.5705L9.45201 37.7618H-6.83345L-8 49.5978H8.10561L8.70657 44.1535H-0.960862L-0.723197 42.5705H8.89313ZM26.2208 37.7636L10.2219 37.7639C10.1347 38.2519 10.0789 39.2874 10.393 40.5528C10.889 42.4574 12.7994 42.3502 12.7994 42.3502L21.5811 42.239L21.2669 44.159L9.6032 44.2071L9.08625 49.5996H23.8824C25.0279 49.5996 26.544 48.6306 27.2739 46.356C27.396 45.8899 27.9061 40.9077 27.8955 40.5747C27.8394 39.2877 27.1656 38.2516 26.2208 37.7636ZM46.4647 35.8331H10.428C10.4858 35.0345 10.6848 32.9336 11.3589 32.0676C12.1931 30.9511 12.8288 30.5108 13.984 30.3999H43.9232C45.1431 30.533 45.804 31.143 46.356 32.1674C46.7509 32.9078 46.5589 35.0345 46.4647 35.8331Z" fill="#FF2925"/>
</g>
<defs>
<clipPath id="clip0_656_2571">
<rect width="80" height="80" fill="white"/>
</clipPath>
</defs>
</svg>
