<svg width="80" height="80" viewBox="0 0 80 80" fill="none" xmlns="http://www.w3.org/2000/svg">
<path fill-rule="evenodd" clip-rule="evenodd" d="M72 46.8821V45.0995C71.9219 45.0995 71.8393 45.0998 71.7531 45.1C70.4875 45.1035 68.4126 45.1092 67.2654 44.431C65.2236 43.2062 65.24 40.9056 65.257 38.5148C65.2586 38.2965 65.26 38.0775 65.26 37.8585V32.3444H71.7771V30.5618H65.26V23.321H59.6901V38.4714C59.6901 44.1525 62.7537 46.9377 69.9949 46.9377C70.6629 46.9377 71.2756 46.9377 72 46.8821ZM57.5732 46.2694V38.7494C57.5732 29.8629 50.334 29.8815 46.0789 29.8925C45.9335 29.8928 45.7915 29.8932 45.6533 29.8932H34.5131V46.2135H40.2504V31.6757C40.2504 31.6757 42.8126 31.5087 44.3165 31.5087C49.7752 31.5087 51.8918 33.2912 51.8918 37.9142V46.2694H57.5732ZM8 38.2489C8 30.952 15.2411 29.8935 19.4185 29.8935V29.8379H31.8954V45.6012C31.8954 47.4393 31.8954 48.5531 31.7284 49.5556C30.5588 56.6852 22.9277 57.1866 14.5726 56.4069V54.8474C14.5726 54.8474 16.3551 55.0145 17.3577 55.0145C19.4744 55.0145 23.0392 55.0145 24.7655 52.8979C25.657 51.7838 25.9914 50.5026 26.1584 48.4975C26.2696 47.3278 26.2143 45.8241 26.2143 45.8241C24.0418 46.4926 21.9807 46.7152 19.4185 46.6593C16.2992 46.6037 8 45.5456 8 38.2489ZM26.2698 31.6758C26.2698 31.6758 25.0446 31.5087 23.7076 31.4528C22.3709 31.3973 20.6998 31.5087 19.5302 31.6758C16.5221 32.1772 14.0717 34.5165 14.0717 38.2487C14.0717 41.8131 16.578 44.3198 20.3657 44.7098C23.5964 45.0438 26.2145 43.9857 26.2145 43.8183H26.2698V31.6758Z" fill="#8D207A"/>
</svg>
