<svg width="80" height="80" viewBox="0 0 80 80" fill="none" xmlns="http://www.w3.org/2000/svg">
<path fill-rule="evenodd" clip-rule="evenodd" d="M69.1906 42.3356L65.0743 41.725C64.7321 41.676 64.6222 41.5173 64.6222 41.2729C64.6222 40.9065 64.9764 40.65 66.0025 40.65C66.3812 40.65 66.7721 40.6989 67.0774 40.8331C67.395 40.9553 67.6027 41.1753 67.6027 41.5295H71.6092C71.487 39.685 69.8868 38.6711 66.0025 38.6711C63.587 38.6711 61.6252 39.1158 61.0983 40.6463V38.9765H51.2777V40.5373C51.0732 39.9677 50.6849 39.5098 50.2455 39.2942C49.7692 39.0621 49.1707 38.9765 48.1812 38.9765H40.9256V42.2896C40.3666 38.7949 36.9573 38.6711 35.0439 38.6711C33.3228 38.6711 30.3913 38.7712 29.4125 41.3347C29.2075 39.8202 28.2485 38.9765 26.1087 38.9765H18.9996V43.9657C18.6369 43.0584 17.6923 42.5335 16.3549 42.3356L12.2385 41.725C11.8964 41.676 11.7866 41.5173 11.7866 41.2729C11.7866 40.9065 12.1407 40.65 13.1668 40.65C13.5455 40.65 13.9364 40.6989 14.2417 40.8331C14.5593 40.9553 14.767 41.1753 14.767 41.5295H18.7734C18.6513 39.685 17.0512 38.6711 13.1668 38.6711C10.333 38.6711 8.12215 39.2819 8.12215 41.5417C8.12215 42.7631 8.81837 43.7403 10.504 43.9969L14.4372 44.5831C14.9013 44.6565 15.0602 44.9131 15.0602 45.1694C15.0602 45.5847 14.767 45.878 13.6921 45.878C13.1546 45.878 12.7759 45.8169 12.5194 45.6948C12.2751 45.5604 12.1652 45.3649 12.153 45.0718H8C8.01214 47.6369 10.9071 48.0033 13.5577 48.0033C16.7482 48.0033 18.4862 47.3226 18.9996 45.8942V47.698H22.4442V44.9863H26.1331C27.7058 44.9863 28.6296 44.4493 29.089 43.6206C29.2484 47.8622 32.9997 48.0033 35.0439 48.0033C36.9573 48.0033 40.3666 47.8797 40.9256 44.3849V47.698H44.3702V45.0107H46.8131C47.4483 45.0107 47.6682 45.4016 47.7048 46.049C47.7145 46.2087 47.7225 46.3526 47.7298 46.4827L47.7302 46.489L47.7303 46.4919L47.7305 46.4934L47.7309 46.5003V46.5007C47.7693 47.1843 47.7861 47.4838 47.8881 47.698H51.6502C51.4304 47.4294 51.2594 47.0628 51.2227 46.6718L51.0761 44.7664C51.015 44.0092 50.5998 43.5694 50.0868 43.4227V43.3984C51.0884 43.1052 51.4304 42.2257 51.4304 41.4074C51.4304 41.329 51.4255 41.2519 51.4184 41.1753H54.4657V47.698H57.9102V41.1753H60.9796C60.9658 41.2924 60.9578 41.4141 60.9578 41.5417C60.9578 42.7631 61.654 43.7403 63.3397 43.9969L67.2728 44.5831C67.737 44.6565 67.8957 44.9131 67.8957 45.1694C67.8957 45.5847 67.6027 45.878 66.5278 45.878C65.9903 45.878 65.6116 45.8169 65.3551 45.6948C65.1108 45.5604 65.0009 45.3649 64.9887 45.0718H60.8356C60.8478 47.6369 63.7428 48.0033 66.3934 48.0033C70.2655 48.0033 72 47.0017 72 44.8763C72 43.3984 70.925 42.5921 69.1906 42.3356ZM46.8131 42.812H44.3701V41.1753H46.7642C47.3384 41.1753 47.7659 41.3341 47.7659 41.9936C47.7659 42.5433 47.4849 42.812 46.8131 42.812ZM32.7473 43.3373C32.7473 45.1084 33.6391 45.8048 35.0438 45.8048C36.4485 45.8048 37.3401 45.1084 37.3401 43.3373C37.3401 41.5661 36.4485 40.8699 35.0438 40.8699C33.6391 40.8699 32.7473 41.5661 32.7473 43.3373ZM24.6673 42.861H22.4442V41.0287H24.6673C25.5346 41.0287 25.8643 41.2975 25.8643 41.9571C25.8643 42.5922 25.5346 42.861 24.6673 42.861ZM35.9572 31.9966C38.0314 31.9966 39.1284 32.8024 39.1284 35.0565C39.1284 37.2077 38.04 38.1162 36.0087 38.1162H31.2521V31.9966H35.9572ZM33.6687 33.5393V36.5734H35.0571C36.1628 36.5734 36.6084 36.0249 36.6084 35.0565C36.6084 34.0879 36.1628 33.5393 35.0571 33.5393H33.6687ZM15.8012 37.6176L15.5889 38.1162H18.1601L18.4173 37.4133H20.9371L21.1942 38.1162H23.296H23.7654H25.6102V34.6879H25.6273L28.1985 38.1162H30.8469V31.9966H28.5328V35.3907H28.5072L26.0559 31.9966H23.296V37.0139L21.1599 31.9966H18.1944L16.3741 36.2722C16.3761 36.2246 16.3775 36.1766 16.3775 36.1278C16.3775 35.6735 16.1204 34.9365 15.3319 34.7308V34.7136C15.7947 34.5336 16.0604 34.0622 16.0604 33.5223C16.0604 32.5453 15.5033 31.9966 14.252 31.9966H8.74957V38.1162H13.9862C14.8416 38.1162 15.4248 37.936 15.8012 37.6176ZM11.115 36.6248H13.1806C13.6605 36.6248 13.8062 36.4193 13.8062 36.1449C13.8062 35.8792 13.6605 35.6649 13.1806 35.6649H11.115V36.6248ZM11.115 33.488H12.9406C13.4291 33.488 13.5405 33.6507 13.5405 33.8737C13.5405 34.1136 13.4291 34.2764 12.9406 34.2764H11.115V33.488ZM19.6858 33.848H19.6687L18.9487 35.9221H20.4057L19.6858 33.848Z" fill="#CF110D"/>
</svg>
