<svg width="80" height="80" viewBox="0 0 80 80" fill="none" xmlns="http://www.w3.org/2000/svg">
<path fill-rule="evenodd" clip-rule="evenodd" d="M71.0344 57.0886C71.6594 57.0886 72 56.9507 72 56.9507L71.8681 55.8451C71.8681 55.8451 71.6068 55.9131 71.4044 55.9131C70.9523 55.9131 70.7979 55.7276 70.7979 55.3479V53.49H71.8593V52.2956H70.7979V51.1898H69.2493V52.2956H68.5597V53.49H69.2493V55.4365C69.2493 56.5137 69.868 57.0886 71.0344 57.0886ZM65.8299 53.2397C65.3904 53.2397 64.9007 53.579 64.8455 54.1104H66.8234C66.7538 53.616 66.3666 53.2397 65.8299 53.2397ZM63.2725 54.6135C63.2725 53.0589 64.3151 52.1226 65.7635 52.1226C67.6236 52.1226 68.2799 53.4524 68.2323 55.0393H64.8706C64.9727 55.4563 65.3531 55.9156 66.1699 55.9156C66.8199 55.9156 67.3917 55.6226 67.3917 55.6226L67.7316 56.7229C67.7316 56.7229 66.8939 57.1017 66.0455 57.1017C64.3261 57.1017 63.2725 56.1336 63.2725 54.6135ZM62.6587 56.9401V53.9324C62.6587 52.9239 62.227 52.1185 60.9566 52.1185C59.8322 52.1185 59.3237 52.9048 59.3237 52.9048V52.2956H57.7932V56.9401H59.3237V54.6398C59.3237 53.8563 59.746 53.3578 60.3225 53.3578C60.8259 53.3578 61.1283 53.6802 61.1283 54.4631V56.9401H62.6587ZM44.479 54.6022C44.479 55.3075 45.0285 55.7884 45.6511 55.7884C46.2435 55.7884 46.8563 55.388 46.8563 54.6107C46.8563 53.9957 46.3491 53.4054 45.6511 53.4054C44.9634 53.4054 44.479 54.0875 44.479 54.6022ZM44.5232 52.8719C44.5232 52.8719 45.0401 52.1226 46.0991 52.1226C47.5465 52.1226 48.446 53.2911 48.446 54.5775C48.446 56.0594 47.3736 57.1074 46.074 57.1074C45.1166 57.1074 44.5232 56.4106 44.5232 56.4106V58.7979H43.0028V52.2968H44.5232V52.8719ZM50.6077 56.9404H49.0594V50.4378H50.6077V56.9404ZM52.8478 54.6107C52.8478 55.388 53.4606 55.7884 54.0531 55.7884C54.6759 55.7884 55.2254 55.3075 55.2254 54.6022C55.2254 54.0875 54.7408 53.4054 54.0531 53.4054C53.355 53.4054 52.8478 53.9957 52.8478 54.6107ZM53.6054 52.1226C54.664 52.1226 55.1809 52.8719 55.1809 52.8719V52.2968H56.7017V56.9413H55.1809V56.4106C55.1809 56.4106 54.5876 57.1074 53.6301 57.1074C52.3306 57.1074 51.2581 56.0594 51.2581 54.5775C51.2581 53.2911 52.1576 52.1226 53.6054 52.1226ZM39.9331 56.9404H38.385V50.4378H39.9331V56.9404ZM33.4446 54.6107C33.4446 55.388 34.0577 55.7884 34.6502 55.7884C35.2727 55.7884 35.8223 55.3075 35.8223 54.6022C35.8223 54.0875 35.338 53.4054 34.6502 53.4054C33.9521 53.4054 33.4446 53.9957 33.4446 54.6107ZM34.2022 52.1226C35.261 52.1226 35.778 52.8719 35.778 52.8719V52.2968H37.2985V56.9413H35.778V56.4106C35.778 56.4106 35.1848 57.1074 34.227 57.1074C32.9277 57.1074 31.855 56.0594 31.855 54.5775C31.855 53.2911 32.7545 52.1226 34.2022 52.1226ZM31.253 56.9401V53.8441C31.253 52.8468 30.6641 52.114 29.459 52.114C28.1739 52.114 27.6741 52.8885 27.6741 52.8885C27.4318 52.4216 26.9681 52.1186 26.1889 52.1186C25.0646 52.1186 24.5559 52.9048 24.5559 52.9048V52.2956H23.0255V56.9401H24.5559V54.6401C24.5559 53.8563 24.9783 53.3578 25.555 53.3578C26.0584 53.3578 26.3609 53.6802 26.3609 54.4631V56.9401H27.8913V54.7285C27.8913 53.8676 28.3349 53.3434 28.916 53.3434C29.4847 53.3434 29.7226 53.8591 29.7226 54.4631V56.9401H31.253ZM21.1848 51.4732C21.6818 51.4732 22.0846 51.0702 22.0846 50.5732C22.0846 50.0759 21.6818 49.6731 21.1848 49.6731C20.6878 49.6731 20.2847 50.0762 20.2847 50.5732C20.2847 51.0702 20.6878 51.4732 21.1848 51.4732ZM21.9464 56.9401H20.3982V52.2956H21.9464V56.9401ZM19.3983 56.9401V53.9324C19.3983 52.9239 18.9666 52.1185 17.6962 52.1185C16.5719 52.1185 16.0632 52.9048 16.0632 52.9048V52.2956H14.5328V56.9401H16.0632V54.6398C16.0632 53.8563 16.4856 53.3578 17.0621 53.3578C17.5657 53.3578 17.8679 53.6802 17.8679 54.4631V56.9401H19.3983ZM10.3472 52.1226C11.4062 52.1226 11.923 52.8719 11.923 52.8719V52.2968H13.4435V56.9413H11.923V56.4106C11.923 56.4106 11.3295 57.1074 10.3721 57.1074C9.07276 57.1074 8 56.0594 8 54.5775C8 53.2911 8.89955 52.1226 10.3472 52.1226ZM9.58963 54.6107C9.58963 55.388 10.2025 55.7884 10.795 55.7884C11.4177 55.7884 11.9673 55.3075 11.9673 54.6022C11.9673 54.0875 11.4827 53.4054 10.795 53.4054C10.0971 53.4054 9.58963 53.9957 9.58963 54.6107Z" fill="black"/>
<path fill-rule="evenodd" clip-rule="evenodd" d="M43.8317 21.2021V28.5723C43.8317 28.5723 44.9761 29.5092 45.5203 30.2612C42.7166 28.4321 39.7378 27.6636 36.1156 27.6636C30.1529 27.6636 24.7238 30.4263 22.0435 34.999L22.3896 35.6491C22.3896 35.6491 23.5558 34.2469 26.2504 32.8717C23.3072 35.7751 22.0744 38.0913 20.2646 43.4319L23.1352 46.2911C26.8915 42.0885 32.4178 39.3116 38.6562 39.3116C44.5591 39.3116 49.9949 41.9536 53.3929 45.4658L56.4854 42.364C54.752 39.3974 52.5009 36.6612 50.7117 34.7615C52.5626 35.8185 55.5186 36.4232 58.3417 36.4232C63.2809 36.4232 66.9101 33.7639 66.9101 30.1428C66.9101 25.6824 63.0857 22.968 56.8479 21.9359L55.8394 23.6281C58.9787 24.1878 63.862 26.0148 63.862 29.2788C63.862 31.0693 62.4772 32.571 60.4815 32.571C58.0153 32.571 55.9669 29.8208 54.7222 27.3918L52.8174 27.3459C50.6312 24.6406 47.0969 22.0006 43.8317 21.2021Z" fill="#0074FF"/>
</svg>
