<svg width="80" height="80" viewBox="0 0 80 80" fill="none" xmlns="http://www.w3.org/2000/svg">
<path fill-rule="evenodd" clip-rule="evenodd" d="M30.0168 43.8001C29.611 44.189 29.1441 44.3937 28.5777 44.3937C28.0193 44.3937 27.5461 44.1973 27.1474 43.8001C26.7596 43.3994 26.5625 42.9283 26.5625 42.3657C26.5625 41.8078 26.7596 41.3326 27.1474 40.9465C27.5461 40.5514 28.0109 40.3596 28.5777 40.3596C29.1441 40.3596 29.611 40.5514 30.0168 40.9402C30.4175 41.3283 30.6136 41.8078 30.6136 42.3657C30.6136 42.9283 30.4175 43.3994 30.0168 43.8001ZM45.7145 44.3451H44.4717C44.4128 44.3451 44.3758 44.3451 44.3283 44.3324C43.8307 44.3154 43.3901 44.1186 43.0414 43.7483C42.6406 43.3597 42.4487 42.885 42.4487 42.3309C42.4487 41.7815 42.6406 41.3061 43.0327 40.9097C43.3901 40.5516 43.8307 40.3598 44.3283 40.3248H44.4717C44.52 40.3248 45.6883 40.3248 45.6974 40.3164C46.0065 40.2994 46.2594 40.2026 46.4558 40.0022C46.6831 39.7975 46.7788 39.5311 46.7788 39.2002C46.7788 38.8596 46.6693 38.5897 46.4558 38.3801C46.2594 38.1798 46.0151 38.0838 45.7145 38.066H44.4589C43.2509 38.066 42.2391 38.4761 41.4106 39.2919C40.9721 39.7366 40.6474 40.2425 40.4385 40.8002C40.4037 40.8962 40.3725 41.0057 40.3468 41.1187C40.2333 40.3469 39.8894 39.6797 39.3393 39.1263C38.633 38.4434 37.5694 38.0924 36.5575 38.0924C35.5371 38.0924 34.4819 38.4434 33.7886 39.1263C33.1739 39.7272 32.825 40.4429 32.7511 41.2883C32.5764 40.5473 32.2053 39.8801 31.6382 39.3267C30.8012 38.5114 29.7893 38.1015 28.5779 38.1015C27.3657 38.1015 26.3448 38.5114 25.5298 39.3267C24.9733 39.8801 24.6094 40.5259 24.4303 41.2535C24.2429 40.5259 23.8813 39.8801 23.3235 39.3307C22.4948 38.5114 21.4703 38.1059 20.2665 38.1102C19.0543 38.1102 18.0382 38.5114 17.2141 39.3307C16.4291 40.1201 16.0197 41.0839 15.9841 42.2085C15.9534 42.161 15.9145 42.1084 15.862 42.0713C15.6486 41.8425 15.383 41.7424 15.0553 41.7424C14.7285 41.7424 14.4534 41.8425 14.2404 42.0713C14.0222 42.274 13.9219 42.5361 13.9219 42.8586V43.0158C13.9219 43.3953 13.7827 43.7084 13.5247 43.9748C13.276 44.2448 12.9492 44.3586 12.5748 44.3586C12.1911 44.3629 11.8678 44.245 11.6021 43.9748C11.3406 43.7178 11.2077 43.3953 11.2077 43.0158V40.4081L15.0553 40.3994C15.8101 40.3994 16.1758 40.02 16.1758 39.2655C16.1758 38.93 16.0758 38.6636 15.8711 38.4589C15.6573 38.2407 15.3936 38.145 15.0553 38.145L11.2077 38.1493V37.264C11.2077 36.9241 11.096 36.6491 10.8824 36.4446C10.6734 36.2306 10.394 36.1213 10.0674 36.1213C9.71617 36.1213 9.44772 36.2306 9.23871 36.4446C9.0335 36.6491 8.9375 36.9241 8.9375 37.2553L8.94182 43.0158C8.94182 44.0446 9.28646 44.8995 9.97979 45.5881C10.682 46.2814 11.5409 46.626 12.5748 46.626C13.5945 46.626 14.4494 46.2773 15.1427 45.575C15.6964 45.0123 16.0367 44.3502 16.1411 43.5776C16.3287 44.2712 16.6818 44.8815 17.2181 45.4202C18.0468 46.2466 19.063 46.6438 20.2665 46.6438C21.483 46.6438 22.4991 46.2423 23.3275 45.4094C23.8896 44.8469 24.2429 44.2143 24.4398 43.4819C24.6137 44.2143 24.9805 44.8469 25.5381 45.4094C26.3625 46.2338 27.3827 46.6438 28.5779 46.6438C29.7893 46.6438 30.8105 46.2338 31.6382 45.4051C32.184 44.8688 32.5413 44.2278 32.7334 43.5215V45.4791C32.7334 45.828 32.825 46.0896 33.038 46.2899C33.2499 46.5081 33.527 46.6081 33.8538 46.6081C34.1893 46.6081 34.4771 46.5081 34.6822 46.2899C34.8961 46.0896 35.0051 45.8154 35.0051 45.4791L34.9964 41.6939C34.9964 41.3239 35.1315 41.0054 35.3971 40.7433C35.5415 40.5955 35.6984 40.4911 35.8861 40.4248C36.0296 40.3687 36.3826 40.3552 36.5575 40.3469C36.7272 40.3469 37.0805 40.3687 37.2288 40.4248C37.4073 40.4911 37.5651 40.5955 37.7152 40.739C37.992 41.0054 38.1184 41.3239 38.1184 41.6855V45.4791C38.1184 45.8102 38.2315 46.0896 38.4413 46.2899C38.6594 46.4996 38.9251 46.5953 39.261 46.5953C39.5922 46.5953 39.88 46.4996 40.076 46.2899C40.2859 46.0896 40.3859 45.8016 40.3859 45.4791V43.683C40.408 43.7483 40.4207 43.8135 40.4385 43.8704C40.6474 44.4325 40.9721 44.9165 41.4242 45.3656C42.2391 46.1857 43.2638 46.5955 44.4717 46.5955H45.7321C46.0286 46.5829 46.2728 46.4731 46.4606 46.2814C46.6831 46.0675 46.7874 45.7975 46.7874 45.4663C46.7874 45.126 46.6831 44.8688 46.4606 44.6509C46.2594 44.4632 46.0151 44.3502 45.7145 44.3451Z" fill="white"/>
<path fill-rule="evenodd" clip-rule="evenodd" d="M70.7563 42.0082C70.5426 41.8035 70.2675 41.6943 69.945 41.6943C69.6181 41.6984 69.3458 41.8078 69.1343 42.0082C68.9118 42.2264 68.8023 42.5014 68.8023 42.8153V42.9675C68.8023 43.3512 68.6673 43.6651 68.4186 43.9226C68.1529 44.1888 67.8347 44.3198 67.455 44.3198C67.0799 44.3198 66.7487 44.1974 66.4874 43.9318C66.2209 43.6697 66.0945 43.3512 66.0945 42.9675V40.3597L69.945 40.3554C70.6995 40.3554 71.0662 39.9762 71.0662 39.2179C71.0662 38.8862 70.961 38.6111 70.7563 38.4151C70.5469 38.2017 70.2809 38.1017 69.9363 38.1017H66.0859V37.212C66.0859 36.8895 65.9772 36.6061 65.7676 36.3879C65.5495 36.1738 65.2838 36.0737 64.9484 36.0737C64.6081 36.0737 64.3416 36.1738 64.1283 36.3879C63.9231 36.6061 63.8228 36.8895 63.8228 37.212V38.1017H62.2057C61.2676 38.1017 60.483 38.3981 59.8373 39.0127C59.2071 39.6537 58.8957 40.4252 58.8957 41.3588V42.9548C58.8914 43.0855 58.8914 43.1942 58.8957 43.2902C58.8957 43.5914 58.7907 43.8309 58.6029 44.027C58.3985 44.2147 58.1634 44.3198 57.8749 44.3198C57.5437 44.3198 57.2736 44.4242 57.0599 44.6289C56.846 44.8471 56.75 45.1262 56.75 45.4531C56.75 45.7977 56.846 46.0633 57.0599 46.2687C57.2736 46.4735 57.5437 46.5692 57.8749 46.5692C58.7907 46.5692 59.5672 46.251 60.204 45.623C60.8364 44.987 61.1538 44.2061 61.1632 43.2902V41.3588C61.1632 41.0754 61.259 40.8443 61.4596 40.6475C61.6386 40.4514 61.8999 40.3597 62.2354 40.3597H63.8228V42.9675C63.8319 43.9922 64.1717 44.8471 64.8694 45.5447C65.5714 46.234 66.4222 46.5826 67.4687 46.5826C68.4798 46.5778 69.3387 46.234 70.0279 45.5312C70.7299 44.8425 71.0745 43.9836 71.0745 42.9631V42.8153C71.0745 42.488 70.961 42.2264 70.7563 42.0082Z" fill="white"/>
<path fill-rule="evenodd" clip-rule="evenodd" d="M51.7139 44.3587C50.5934 44.3587 49.6954 43.469 49.6954 42.3572C49.6954 41.245 50.5934 40.347 51.7139 40.347C52.8439 40.347 53.7549 41.245 53.7549 42.3572C53.7549 43.469 52.8439 44.3587 51.7139 44.3587ZM51.7103 38.0837C50.5026 38.0837 49.4914 38.4939 48.667 39.3046C47.8429 40.1287 47.4286 41.1428 47.4329 42.3443C47.4329 43.5522 47.8429 44.5632 48.667 45.3877C49.4914 46.2118 50.5075 46.6259 51.7146 46.6259C53.0406 46.6259 53.943 46.0327 53.943 46.0327C54.122 46.373 54.4837 46.6259 54.9263 46.6259C55.5261 46.6259 56.0194 46.1507 56.0194 45.588V42.3349C56.0142 41.1364 55.6041 40.1289 54.7673 39.3046C53.943 38.4939 52.9228 38.0837 51.7103 38.0837Z" fill="white"/>
<path fill-rule="evenodd" clip-rule="evenodd" d="M67.8799 42.8154V42.976C67.8598 43.1332 67.8359 43.1771 67.7578 43.2815C67.6523 43.3691 67.6135 43.3952 67.47 43.3996H67.4565C67.2866 43.3952 67.2518 43.3691 67.1338 43.2774C67.0464 43.1687 67.025 43.1332 67.025 42.9676V41.28H68.5557C68.5293 41.3064 68.5074 41.3239 68.481 41.3452C68.0803 41.729 67.8598 42.2918 67.8799 42.8154ZM71.0746 42.9631C71.0746 43.9835 70.7303 44.8425 70.0283 45.5309C69.339 46.2337 68.4799 46.5776 67.4688 46.5826C66.4222 46.5826 65.5716 46.2337 64.8696 45.5447C64.1718 44.8468 63.8322 43.9919 63.8231 42.9674V40.3597H62.2355C61.9 40.3597 61.6387 40.4514 61.4596 40.6474C61.2592 40.8442 61.1635 41.0751 61.1635 41.3588V43.2902C61.1541 44.206 60.8363 44.987 60.204 45.623C59.5673 46.251 58.7906 46.5692 57.8748 46.5692C57.5436 46.5692 57.2737 46.4735 57.0598 46.2687C56.846 46.0635 56.7501 45.7977 56.7501 45.4531C56.7501 45.1261 56.846 44.847 57.0598 44.6289C57.2737 44.4239 57.5436 44.3195 57.8748 44.3195C58.1633 44.3195 58.3986 44.2144 58.6033 44.027C58.7906 43.8309 58.8958 43.5914 58.8958 43.2902C58.8918 43.1942 58.8918 43.0853 58.8958 42.9547V41.3588C58.8958 40.4249 59.2072 39.6534 59.8375 39.0124C60.4834 38.3978 61.2679 38.1014 62.2058 38.1014H63.8231V37.212C63.8231 36.8894 63.9231 36.6058 64.1283 36.3876C64.3417 36.1738 64.608 36.0737 64.9484 36.0737C65.2839 36.0737 65.5495 36.1738 65.7677 36.3876C65.9774 36.6058 66.0859 36.8894 66.0859 37.212V38.1014H69.9366C70.281 38.1014 70.5468 38.2017 70.7567 38.4148C70.9611 38.6108 71.0663 38.8859 71.0663 39.2178C71.0663 39.9759 70.6995 40.3554 69.9449 40.3554L66.0946 40.3597V42.9674C66.0946 43.3512 66.221 43.6694 66.4874 43.9317C66.7491 44.1971 67.0799 44.3195 67.4552 44.3195C67.8348 44.3195 68.1532 44.1888 68.4186 43.9223C68.6675 43.6651 68.8024 43.3512 68.8024 42.9674V42.8153C68.8024 42.5014 68.9118 42.2263 69.1343 42.0082C69.3461 41.8078 69.6182 41.6983 69.9449 41.694C70.2674 41.694 70.5425 41.8035 70.7567 42.0082C70.9611 42.2263 71.0746 42.4877 71.0746 42.8153V42.9631ZM56.0193 45.5878C56.0193 46.1506 55.5261 46.6261 54.9265 46.6261C54.4835 46.6261 54.1221 46.3729 53.9431 46.0326C53.9431 46.0326 53.0405 46.6261 51.7148 46.6261C50.5074 46.6261 49.4912 46.2118 48.6671 45.3874C47.843 44.5633 47.4329 43.5523 47.4329 42.3444C47.4286 41.1429 47.8427 40.1288 48.6671 39.3044C49.4915 38.4938 50.5026 38.0839 51.7104 38.0839C52.9226 38.0839 53.9431 38.4938 54.7675 39.3044C55.6044 40.1288 56.0145 41.1363 56.0193 42.335V45.5878ZM46.6514 43.6694C46.3725 43.5216 46.0586 43.4342 45.7444 43.4121H44.4017C44.0919 43.3951 43.9134 43.3121 43.6995 43.098C43.4729 42.8585 43.3896 42.667 43.3813 42.3264C43.3813 41.9996 43.4729 41.8078 43.6995 41.5549C43.9134 41.3588 44.0919 41.2758 44.3753 41.245H44.4713C44.5017 41.245 44.8032 41.2407 45.1037 41.2407H45.7444C46.0714 41.2364 46.3855 41.1363 46.6689 40.9878C46.5531 41.4149 46.4949 41.8817 46.4949 42.3442C46.4949 42.8062 46.5531 43.2509 46.6514 43.6694ZM13.6643 41.3284C13.6389 41.3454 13.6125 41.3675 13.5947 41.398C13.2023 41.7639 12.9737 42.3311 12.9885 42.8591V43.016C12.9737 43.1902 12.9631 43.2207 12.8671 43.3342C12.7576 43.4125 12.7363 43.4346 12.575 43.4432H12.5699C12.396 43.4346 12.3655 43.4125 12.2608 43.3251C12.1643 43.2078 12.143 43.1816 12.1344 43.016V41.3284H13.6643ZM46.4603 46.2816C46.2726 46.4734 46.0284 46.5829 45.7319 46.5958H44.4715C43.2636 46.5958 42.2391 46.1857 41.4238 45.3658C40.972 44.9165 40.6472 44.4327 40.4385 43.8707C40.4207 43.8138 40.4078 43.7485 40.3859 43.6833V45.4794C40.3859 45.8018 40.2855 46.0898 40.0761 46.2902C39.8797 46.4998 39.5923 46.5958 39.2608 46.5958C38.9248 46.5958 38.6592 46.4998 38.441 46.2902C38.2315 46.0898 38.1185 45.8104 38.1185 45.4794V41.6858C38.1185 41.3239 37.992 41.0057 37.7149 40.7393C37.5649 40.5958 37.4071 40.4914 37.2289 40.4251C37.0802 40.369 36.7272 40.3471 36.5573 40.3471C36.3826 40.3555 36.0293 40.369 35.8858 40.4251C35.6984 40.4914 35.5412 40.5958 35.3969 40.7436C35.1313 41.0057 34.9962 41.3239 34.9962 41.6942L35.0048 45.4794C35.0048 45.8156 34.8962 46.0898 34.6823 46.2902C34.4768 46.5084 34.1891 46.6085 33.8536 46.6085C33.5267 46.6085 33.2497 46.5084 33.0381 46.2902C32.8248 46.0898 32.733 45.8283 32.733 45.4794V43.5217C32.5414 44.228 32.1837 44.869 31.6382 45.4054C30.8103 46.2338 29.7894 46.6441 28.5779 46.6441C27.3825 46.6441 26.3623 46.2341 25.5381 45.4097C24.9801 44.8472 24.6138 44.2146 24.4394 43.4821C24.2426 44.2146 23.8896 44.8472 23.3276 45.4097C22.4989 46.2425 21.4827 46.6441 20.2663 46.6441C19.0627 46.6441 18.0466 46.2468 17.2181 45.4204C16.6818 44.882 16.3285 44.2715 16.1408 43.5779C16.0364 44.3502 15.6961 45.0125 15.1427 45.5753C14.4491 46.2773 13.5943 46.6262 12.5746 46.6262C11.5407 46.6262 10.6817 46.2816 9.97978 45.5881C9.28619 44.8998 8.94156 44.0447 8.94156 43.0158L8.9375 37.2553C8.9375 36.9244 9.03324 36.6494 9.2387 36.4447C9.44747 36.2308 9.71616 36.1214 10.0671 36.1214C10.394 36.1214 10.6731 36.2308 10.8821 36.4447C11.096 36.6494 11.2075 36.9244 11.2075 37.264V38.1493L15.0551 38.145C15.3934 38.145 15.657 38.241 15.8708 38.4591C16.0755 38.6638 16.1756 38.9302 16.1756 39.2655C16.1756 40.0203 15.8099 40.3997 15.0551 40.3997L11.2075 40.4081V43.0158C11.2075 43.3953 11.3403 43.7178 11.6019 43.9748C11.8678 44.245 12.1911 44.3629 12.5746 44.3588C12.9492 44.3588 13.276 44.245 13.5247 43.9748C13.7827 43.7087 13.9219 43.3953 13.9219 43.0158V42.8586C13.9219 42.5361 14.0222 42.274 14.2401 42.0713C14.4534 41.8425 14.7282 41.7424 15.0551 41.7424C15.3827 41.7424 15.6486 41.8425 15.8617 42.0713C15.9143 42.1084 15.9534 42.161 15.9838 42.2085C16.0194 41.0839 16.4288 40.1203 17.2138 39.3308C18.0379 38.5117 19.0541 38.1102 20.2663 38.1102C21.4701 38.1059 22.4946 38.5117 23.3233 39.3308C23.881 39.8801 24.2426 40.5259 24.4303 41.2535C24.6093 40.5259 24.973 39.8801 25.5295 39.3267C26.3444 38.5117 27.3656 38.1015 28.5779 38.1015C29.7894 38.1015 30.8011 38.5117 31.6382 39.3267C32.2051 39.8801 32.5761 40.5473 32.7508 41.2883C32.8248 40.4429 33.1737 39.7275 33.7884 39.1263C34.4819 38.4434 35.5369 38.0924 36.5573 38.0924C37.5692 38.0924 38.6327 38.4434 39.3393 39.1263C39.8891 39.6797 40.2329 40.3471 40.3469 41.1187C40.3721 41.0057 40.4034 40.8962 40.4385 40.8002C40.6472 40.2425 40.972 39.7366 41.4104 39.2919C42.2388 38.4761 43.2507 38.0662 44.4585 38.0662H45.7141C46.0148 38.084 46.2592 38.1798 46.4555 38.3801C46.6691 38.5899 46.7788 38.8599 46.7788 39.2002C46.7788 39.5314 46.6828 39.7978 46.4555 40.0025C46.2592 40.2026 46.0063 40.2994 45.6972 40.3167C45.6881 40.325 44.5197 40.325 44.4715 40.325H44.328C43.8305 40.3598 43.3899 40.5516 43.0327 40.9099C42.6403 41.3064 42.4483 41.7815 42.4483 42.3309C42.4483 42.885 42.6403 43.3597 43.0411 43.7485C43.3899 44.1186 43.8305 44.3154 44.328 44.3327C44.3754 44.3454 44.4126 44.3454 44.4715 44.3454H45.7141C46.0148 44.3504 46.2592 44.4632 46.4603 44.6509C46.6828 44.869 46.7871 45.1263 46.7871 45.4666C46.7871 45.7978 46.6828 46.0678 46.4603 46.2816ZM71.4066 41.3628C71.2893 41.2365 71.1579 41.1362 70.9964 41.0402C71.1627 40.9615 71.319 40.8485 71.4505 40.7169C71.6204 40.5473 71.7376 40.3553 71.8292 40.1422C71.9999 39.6668 71.9956 39.2127 71.9956 39.2127C72.0042 38.6984 71.7995 38.132 71.4157 37.7526C71.0272 37.3511 70.4695 37.1677 69.9457 37.1677H69.9245L67.0068 37.1855C67.0068 36.6626 66.8151 36.1168 66.4227 35.733C66.039 35.3452 65.4805 35.1405 64.949 35.1448H64.9441C64.4209 35.1405 63.8498 35.3452 63.466 35.7465C63.0823 36.1211 62.8905 36.6669 62.8905 37.1855H62.2063C61.0764 37.1677 60.0036 37.5608 59.1928 38.3672C58.3863 39.1388 57.9541 40.2161 57.9628 41.345V43.299C57.9541 43.3689 57.9628 43.3338 57.9498 43.3689C57.9153 43.3993 57.9541 43.3816 57.8753 43.395C57.562 43.395 57.2395 43.4689 56.9601 43.6124V42.3349C56.9601 40.9181 56.4174 39.6185 55.4296 38.6422C54.4399 37.6609 53.1317 37.1507 51.7142 37.1507H51.6833C50.2731 37.155 48.9799 37.6779 48.008 38.6636C47.895 38.7687 47.7898 38.8774 47.6938 39.0039C47.6463 38.5285 47.463 38.0574 47.1227 37.7219C46.761 37.3511 46.2507 37.155 45.7626 37.1507L45.7319 37.1372H44.4585C43.0411 37.1372 41.7377 37.6523 40.761 38.6463C40.6386 38.7687 40.5385 38.8774 40.4381 38.9909C40.2983 38.8119 40.1548 38.6372 39.9935 38.4673C39.069 37.5692 37.7908 37.1677 36.5835 37.1677H36.47C35.2756 37.1855 34.0235 37.5913 33.1252 38.4759C32.9469 38.6549 32.7765 38.8424 32.6371 39.0387C32.5235 38.9209 32.4168 38.7984 32.284 38.672C31.3113 37.6822 30.0072 37.1677 28.5779 37.1677C27.1645 37.1677 25.8477 37.6914 24.8623 38.672C24.7138 38.834 24.5615 39.0123 24.4217 39.1893C24.2868 39.0123 24.1431 38.834 23.9727 38.672C22.9999 37.6914 21.6874 37.1677 20.2662 37.1855C19.0101 37.1677 17.8418 37.5913 16.9083 38.3672C16.8214 38.149 16.6909 37.9573 16.5245 37.8001C16.1408 37.4036 15.5744 37.2119 15.0551 37.2203L12.1339 37.2353C12.1339 36.706 11.9201 36.165 11.5406 35.7899C11.1528 35.3935 10.5857 35.188 10.0671 35.1974C9.52616 35.188 8.95931 35.3935 8.57988 35.7899C8.19182 36.178 7.99575 36.7451 8.00007 37.2551L8.00439 43.0156C8.00007 44.2491 8.46178 45.4051 9.32096 46.2466C10.1758 47.0969 11.3362 47.5631 12.5697 47.5418H12.6137C13.8258 47.5418 14.955 47.0834 15.8099 46.2336C15.9711 46.0676 16.1017 45.9063 16.2411 45.7193C16.3328 45.8321 16.4463 45.9458 16.5644 46.0676C17.53 47.0579 18.8275 47.5852 20.2294 47.5852H20.2662C21.6969 47.5852 22.9999 47.0664 23.981 46.0676C24.1434 45.9063 24.2952 45.7364 24.4303 45.5622C24.5618 45.7321 24.7138 45.9063 24.8758 46.0632C25.8563 47.0664 27.1645 47.5852 28.5779 47.5682H28.6013C29.8767 47.5682 31.0497 47.1405 31.9828 46.3466C32.0745 46.5691 32.2094 46.7743 32.3884 46.9529C32.7678 47.3406 33.3044 47.5326 33.8231 47.5326H33.8536C34.3858 47.5418 34.9436 47.345 35.3274 46.9612C35.4981 46.7956 35.6245 46.6083 35.7289 46.4035C35.7289 46.4035 35.9333 45.9979 35.9333 45.5751V41.6939C35.9333 41.5413 35.9376 41.5156 36.0557 41.3975C36.0949 41.3409 36.1344 41.3236 36.1822 41.3061C36.2609 41.2932 36.5004 41.2711 36.5659 41.2756C36.5921 41.2756 36.7186 41.2797 36.8103 41.2883C36.8534 41.2932 36.9019 41.3018 36.9233 41.3061H36.941C36.9739 41.3236 37.015 41.345 37.0718 41.3975C37.1718 41.5156 37.1811 41.537 37.1897 41.6855V45.4791C37.1811 46.0157 37.3943 46.5774 37.7908 46.9529C38.1797 47.345 38.7458 47.5326 39.2608 47.5243C39.7883 47.5326 40.3508 47.3406 40.7346 46.9442C40.9088 46.7743 41.0444 46.5691 41.127 46.3553C42.0428 47.1185 43.1719 47.5113 44.3797 47.5243H45.1565C45.2999 47.5113 45.4379 47.5113 45.5529 47.5113H45.7626C46.2593 47.4979 46.7737 47.2892 47.1227 46.9265C47.463 46.6083 47.6463 46.1465 47.7072 45.6931C47.7898 45.8154 47.8949 45.9324 48.012 46.0422C48.9799 47.0272 50.2795 47.5418 51.6833 47.5418H51.7142C52.5646 47.5418 53.2517 47.3544 53.7293 47.1624C54.0733 47.411 54.4831 47.5418 54.9259 47.5418C55.4993 47.5418 56.0272 47.3059 56.4024 46.9137C56.4024 46.9177 56.4067 46.9222 56.4067 46.9222C56.7945 47.3102 57.3441 47.5029 57.8753 47.4979C59.0138 47.5113 60.0824 47.0707 60.8626 46.2687C61.6519 45.4791 62.0966 44.4325 62.0966 43.299V41.3145L62.1052 41.3061C62.1052 41.3061 62.0883 41.2883 62.236 41.2797H62.8989V42.9673C62.8905 44.2057 63.3396 45.3526 64.2115 46.1988C65.0704 47.0664 66.2215 47.5113 67.4559 47.5029H67.4843C68.712 47.5029 69.8452 47.0359 70.6874 46.1811C71.5463 45.3306 72.0082 44.1887 71.9999 42.9673V42.8152C72.0042 42.2915 71.7995 41.7287 71.4066 41.3628Z" fill="#E20613"/>
<path fill-rule="evenodd" clip-rule="evenodd" d="M29.6852 42.3656C29.6767 42.0301 29.5986 41.8384 29.3669 41.6004C29.1138 41.3673 28.9263 41.2883 28.5781 41.2799C28.2335 41.2883 28.0458 41.3673 27.8014 41.6004C27.5792 41.8384 27.5053 42.0218 27.4875 42.3443V42.3656C27.5053 42.7016 27.5793 42.902 27.8057 43.1466C28.0587 43.3731 28.2421 43.4514 28.5781 43.4691H28.6038C28.9263 43.4514 29.1138 43.3691 29.3583 43.1331C29.5986 42.885 29.6767 42.7019 29.6852 42.3656ZM30.0165 40.9402C30.4173 41.328 30.6133 41.8077 30.6133 42.3655C30.6133 42.9282 30.4173 43.3994 30.0165 43.7999C29.6107 44.1887 29.1438 44.3934 28.5775 44.3934C28.0191 44.3934 27.5459 44.1971 27.1472 43.7999C26.7591 43.3994 26.5625 42.9282 26.5625 42.3655C26.5625 41.8077 26.7591 41.3323 27.1472 40.9465C27.5459 40.5514 28.0106 40.3596 28.5775 40.3596C29.1438 40.3596 29.6107 40.5514 30.0165 40.9402Z" fill="#E20613"/>
<path fill-rule="evenodd" clip-rule="evenodd" d="M52.8055 42.3657C52.7949 42.0302 52.7166 41.8385 52.4858 41.6005C52.2411 41.3674 52.036 41.2884 51.7049 41.28C51.3515 41.2884 51.1685 41.3674 50.9198 41.6005C50.693 41.8385 50.6235 42.0218 50.6235 42.3444V42.3657C50.6235 42.7017 50.693 42.9021 50.9289 43.1467C51.1685 43.3732 51.3601 43.4514 51.6961 43.4692H51.7135C52.0495 43.4514 52.2411 43.3691 52.4815 43.1332C52.7166 42.8851 52.7949 42.702 52.8055 42.3657ZM51.7138 40.3472C52.8438 40.3472 53.7548 41.2452 53.7548 42.3573C53.7548 43.4692 52.8438 44.3589 51.7138 44.3589C50.5933 44.3589 49.6953 43.4692 49.6953 42.3573C49.6953 41.2452 50.5935 40.3472 51.7138 40.3472Z" fill="#E20613"/>
<path fill-rule="evenodd" clip-rule="evenodd" d="M20.2968 38.9556L21.3172 41.031L23.6281 41.3627L21.9667 42.9891L22.3593 45.2652L20.2968 44.1967L18.2341 45.2652L18.6353 42.9934L16.9609 41.3667L19.2591 41.0356L20.2968 38.9556Z" fill="#E20613"/>
<path fill-rule="evenodd" clip-rule="evenodd" d="M20.508 34.7346H20.3206C19.1802 34.7346 18.0989 35.0137 17.1526 35.572C16.9301 35.6941 16.8732 35.96 16.9913 36.1739C17.1175 36.3872 17.3966 36.457 17.6105 36.3394C18.4171 35.864 19.3067 35.6288 20.3206 35.6288H20.4798C21.8139 35.6677 22.9281 36.0994 23.9025 36.9236C23.9942 36.9891 24.0943 37.0414 24.1948 37.0414C24.3257 37.0414 24.4521 36.9802 24.5435 36.8669C24.7051 36.697 24.6832 36.409 24.4915 36.2478C23.3664 35.2839 22.0145 34.7697 20.508 34.7346Z" fill="#E20613"/>
<path fill-rule="evenodd" clip-rule="evenodd" d="M15.1815 35.2712C16.6555 33.9498 18.3254 33.3136 20.266 33.3136H20.4795C22.4986 33.37 24.2164 34.0981 25.6904 35.5371C25.7775 35.6113 25.8822 35.6509 26 35.6509C26.1176 35.6509 26.2311 35.6113 26.3272 35.5244C26.4974 35.3453 26.4931 35.0576 26.3185 34.8834C24.716 33.309 22.7426 32.4717 20.51 32.4151H20.266C18.1207 32.4107 16.1974 33.1521 14.5733 34.5997C14.3835 34.7699 14.3663 35.049 14.5448 35.2275C14.702 35.4152 14.9855 35.4281 15.1815 35.2712Z" fill="#E20613"/>
</svg>
