<svg width="80" height="80" viewBox="0 0 80 80" fill="none" xmlns="http://www.w3.org/2000/svg">
<path d="M72 13.1418C72 10.3066 69.6923 8 66.8571 8H13.1429C10.3077 8 8 10.3077 8 13.1429V66.8571C8 69.6933 10.3077 72 13.1429 72H66.8571C69.6933 72 72 69.6923 72 66.8571V13.1418Z" fill="black"/>
<path d="M40.014 40C29.5534 38.6872 9.33334 37.6399 8.5874 24.7546V66.857C8.5874 69.3733 10.6275 71.4133 13.1439 71.4133H66.858C69.3743 71.4133 71.4143 69.3733 71.4143 66.857V54.0046C69.4671 42.2913 50.1295 41.2702 40.0162 40H40.014Z" fill="white"/>
<path d="M38.1148 18.9184C37.0139 17.9223 35.5777 17.4614 33.768 17.4614C32.1429 17.4614 30.4129 18.0217 29.4311 18.9173C28.6535 19.6217 28.2505 20.6112 28.2505 21.5919C28.2505 22.5727 28.6404 23.5611 29.4311 24.2797C30.4927 25.2255 32.0676 25.7377 33.768 25.7377C35.4685 25.7377 37.0958 25.2332 38.1148 24.2797C38.8771 23.572 39.279 22.5541 39.279 21.5919C39.279 20.6297 38.8979 19.6294 38.1148 18.9184ZM36.0943 23.7489C35.5111 24.33 34.6756 24.6478 33.768 24.6478C32.8605 24.6478 32.0173 24.3267 31.4363 23.7489C30.8858 23.1974 30.5877 22.422 30.5877 21.5919C30.5877 20.7619 30.8815 19.9843 31.4363 19.4284C32.0162 18.8583 32.8725 18.5416 33.768 18.5416C34.6636 18.5416 35.5199 18.8638 36.0943 19.4284C36.6568 19.9843 36.9473 20.7553 36.9473 21.5919C36.9473 22.4285 36.6775 23.169 36.0943 23.7489Z" fill="white"/>
<path d="M21.3286 17.4656C20.4188 17.4656 19.3813 17.6393 18.5086 18.0314C17.6939 18.394 17.0266 18.9783 17.0266 19.9514C17.0266 20.8207 17.5825 21.3319 17.5629 21.3176C17.8064 21.5361 18.1865 21.9107 19.1803 22.1215C19.6215 22.2209 20.5761 22.3694 21.5241 22.4732C22.459 22.5714 23.3895 22.6654 23.7652 22.7582C24.0644 22.8336 24.5635 22.9406 24.5635 23.4998C24.5635 24.059 24.0371 24.2359 23.9421 24.2741C23.8493 24.3124 23.218 24.5996 22.0691 24.5996C21.2292 24.5996 20.2146 24.3451 19.8454 24.2173C19.4239 24.0677 18.9783 23.8613 18.5578 23.3502C18.4563 23.2256 18.2979 22.8794 18.2979 22.5365H17.2549V25.4285H18.4049V25.0375C18.4049 24.9938 18.4661 24.8082 18.6539 24.901C18.8931 25.0102 19.5975 25.2854 20.338 25.4405C20.9387 25.5672 21.3286 25.6578 22.0778 25.6578C23.3043 25.6578 23.9629 25.458 24.4172 25.328C24.853 25.2024 25.3794 24.9818 25.8042 24.6454C26.0401 24.4631 26.5458 23.9836 26.5458 23.1219C26.5458 22.2602 26.1056 21.7753 25.9451 21.6213C25.7332 21.4072 25.4766 21.2434 25.2035 21.1124C24.9644 21.0064 24.5908 20.8732 24.2883 20.8C23.6942 20.6471 22.3563 20.4745 21.7196 20.4057C21.049 20.3325 19.8804 20.2364 19.4173 20.0956C19.2764 20.0508 18.987 19.9099 18.987 19.58C18.987 19.3431 19.1213 19.1388 19.3813 18.9728C19.7919 18.7161 20.6285 18.56 21.4924 18.56C22.5234 18.5589 23.3906 18.7849 23.9421 19.0318C24.131 19.1236 24.3517 19.2415 24.5275 19.3824C24.7252 19.5451 24.9993 19.876 25.0998 20.3424H26.0303V17.8228H24.9971V18.1144C24.9971 18.2127 24.8978 18.3328 24.711 18.2356C24.2479 17.9855 22.9395 17.4613 21.3308 17.458L21.3286 17.4656Z" fill="white"/>
<path d="M40.4138 17.9265V18.8472H41.2176C41.7976 18.8472 41.839 19.1716 41.839 19.449V23.7499C41.839 24.012 41.8544 24.3582 41.4852 24.3582H40.487V25.28H44.7344V24.3582H43.6968C43.2851 24.3582 43.2654 24.1714 43.2588 23.7706V20.0857L49.0767 25.28H50.5577L50.4834 19.4162C50.4933 18.9902 50.514 18.8428 50.9553 18.8428H51.8846V17.9265H47.563V18.8428H48.5132C48.9457 18.8428 49.0243 19.0143 49.0298 19.4162L49.0778 22.4862L44.0277 17.9265H40.4149H40.4138Z" fill="white"/>
<path d="M55.9181 24.3583V25.2801H60.9573V24.3583H60.0049L59.7548 24.3474C59.6544 24.3179 59.5844 24.2491 59.5604 24.1693L59.5408 23.9706V22.5191L59.5779 22.3804C59.6434 22.3039 62.2513 19.3257 62.3707 19.1957C62.6251 18.9095 62.7606 18.844 63.0945 18.844H64.0219V17.9277H59.8706V18.844H60.4931C60.6777 18.844 60.729 19.0297 60.6493 19.1302L58.8833 21.1922L58.8353 21.1834L57.1162 19.1302C56.9928 18.9795 57.0922 18.844 57.2265 18.844H57.8381V17.9277H52.7727V18.844H53.6716C54.0648 18.844 54.3203 19.0952 54.4688 19.2569C54.5868 19.3825 57.1653 22.3073 57.2254 22.3913C57.2877 22.4732 57.2877 22.4863 57.2877 22.5191V23.9706L57.2756 24.1693C57.2363 24.2502 57.1741 24.3179 57.0747 24.3474L56.8192 24.3583H55.917H55.9181Z" fill="white"/>
<path d="M18.9576 58.6528C18.6791 58.5426 18.3416 58.4694 18.0183 58.4694C16.8956 58.4694 16.3387 59.3278 16.3387 60.3413C16.3387 61.3546 16.9109 62.1695 18.0118 62.1695C18.4006 62.1695 18.7239 62.0965 19.0024 61.9706L19.1859 62.801C18.8112 62.9546 18.3493 63.0282 17.8873 63.0282C16.2949 63.0282 15.2683 61.9119 15.2683 60.3337C15.2683 58.7555 16.2512 57.6099 17.9244 57.6099C18.3864 57.6099 18.8189 57.6754 19.1564 57.8151L18.9587 58.6517L18.9576 58.6528Z" fill="black"/>
<path d="M22.8074 57.6985H23.8787V59.8347H25.8894V57.6985H26.9608V62.9398H25.8894V60.6932H23.8787V62.9398H22.8074V57.6985Z" fill="black"/>
<path d="M31.4638 62.9398H30.3269L32.212 57.6985H33.6787L35.5572 62.9398H34.405L33.9354 61.663H31.9182L31.4638 62.9398ZM32.1683 60.7958H33.6864L32.9306 58.5351L32.1672 60.7958H32.1683Z" fill="black"/>
<path d="M55.0235 57.6982H58.1777V58.5566H56.0939V59.8334H58.0084V60.6918H56.0939V62.0789H58.2432V62.937H55.0225V57.696L55.0235 57.6982Z" fill="black"/>
<path d="M61.7644 57.6985H62.8359V62.0811H64.9196V62.9398H61.7655V57.6985H61.7644Z" fill="black"/>
<path d="M42.1919 61.1485V57.6951H43.1999V62.9387H42.2388L39.9366 59.4971V62.9419H38.9209V57.6951H39.9246L42.1908 61.1485H42.1919Z" fill="black"/>
<path d="M50.2391 61.1485V57.6951H51.2471V62.9419H50.286L47.9837 59.4971V62.9419H46.968V57.6951H47.9717L50.2379 61.1485H50.2391Z" fill="black"/>
</svg>
