<svg width="80" height="80" viewBox="0 0 80 80" fill="none" xmlns="http://www.w3.org/2000/svg">
<path fill-rule="evenodd" clip-rule="evenodd" d="M65.4337 40.3484L62.9075 24.5188L60.8371 37.9273C60.7685 38.3464 60.996 38.7421 61.3832 38.8817L65.4337 40.3484ZM70.9857 45.8422L67.6634 46.7732C67.0721 46.936 66.7304 46.7498 66.6625 46.168L65.6613 41.7449L60.8595 43.0954C60.4044 43.2116 60.0631 43.6073 59.9717 44.1195L59.2666 48.263C59.1297 48.8917 58.9253 49.2409 58.265 49.427L54.9427 50.358C54.26 50.5445 53.7822 50.2188 53.9183 49.5901L59.0846 21.4923C59.2207 20.8405 59.8351 20.2118 60.4951 20.0026L65.4334 18.6056C66.116 18.4194 66.7532 18.6986 66.867 19.2805L71.9873 44.4687C72.0787 45.097 71.6688 45.6558 70.9857 45.8422ZM51.7118 22.307L48.5715 23.2383C47.9567 23.4245 47.7523 23.7737 47.6381 24.402L44.2248 46.3777L40.6975 27.0096C40.6062 26.1014 40.2423 25.7525 39.7871 25.8921L36.6925 26.8231C36.0782 27.0096 35.6681 27.5914 35.782 28.1502L40.5384 53.3615C40.652 53.9667 41.2663 54.2225 41.9035 54.0364L46.5 52.6628C47.1148 52.4536 47.7064 51.8248 47.8202 51.1731L52.6444 23.0753C52.7585 22.4469 52.3262 22.1209 51.7118 22.307ZM33.324 28.4288L29.7968 29.2205C29.0686 29.3836 28.5228 30.0119 28.5228 30.6172V56.9225C28.5228 57.5046 29.0686 57.9 29.7968 57.7606L33.324 56.969C33.9615 56.806 34.5529 56.1542 34.5529 55.5721V29.2671C34.5529 28.6384 33.9841 28.2892 33.324 28.4288ZM24.8815 30.4311L20.057 58.5285C19.9434 59.1807 19.3517 59.8092 18.7371 60.0187L14.1404 61.392C13.5033 61.5783 12.889 61.3223 12.7751 60.717L8.019 35.5057C7.90512 34.9473 8.31516 34.3651 8.92943 34.1786L12.024 33.2479C12.4793 33.108 12.8432 33.4572 12.9344 34.3651L16.4614 53.7566L19.875 31.7813C19.9892 31.1526 20.1938 30.8034 20.8084 30.6173L23.9487 29.6859C24.563 29.4764 24.9953 29.8024 24.8815 30.4311Z" fill="#655498"/>
</svg>
