<svg width="80" height="80" viewBox="0 0 80 80" fill="none" xmlns="http://www.w3.org/2000/svg">
<path d="M57.16 32.0005H68.6331C70.4459 32.0005 72.3237 32.8524 71.9527 35.7993C71.8849 36.328 71.8665 36.4902 71.8665 36.4902H56.6166L57.16 32.0005Z" fill="#FF2925"/>
<path d="M52.1511 32.0003C55.0766 32.0003 55.881 33.738 55.6478 35.6548C55.6023 36.0269 55.5439 36.4903 55.5439 36.4903H24.5253C24.5802 36.0511 24.6335 35.6116 24.6853 35.1719C24.9075 33.269 26.4862 31.9969 28.8702 32C30.1269 32.0015 52.1511 32.0005 52.1511 32.0005V32.0003Z" fill="#FF2925"/>
<path d="M9.94025 32.0007H24.0052L23.4628 36.4902H9.396L9.94025 32.0005V32.0007Z" fill="#FF2925"/>
<path d="M66.4017 38.1997L65.2118 47.9982L70.473 47.9966L71.6621 38.2015L66.4017 38.1995V38.1997Z" fill="#FF2925"/>
<path d="M55.2183 47.9982L56.4065 38.1997V38.1995L61.6691 38.2015L60.4797 47.9966L55.2183 47.9982Z" fill="#FF2925"/>
<path d="M40.6941 38.2014L39.5059 47.9989H44.7642L45.5048 41.9146H52.1097C53.983 41.9146 54.99 40.895 55.1766 39.5257C55.2366 39.085 55.2905 38.6437 55.3386 38.2014H40.6941Z" fill="#FF2925"/>
<path d="M39.157 42.4257C39.1793 42.2378 39.1967 42.0891 39.209 41.9987C39.6189 38.9345 37.5237 38.2042 35.8735 38.2042C35.4954 38.2042 33.7449 38.2038 31.6996 38.2032C28.8253 38.2024 25.3688 38.2014 24.3193 38.2014C23.9336 40.7585 25.1976 41.9143 26.9893 41.9143C27.9638 41.9143 34.106 41.9118 34.106 41.9118L33.8838 43.7473L23.6476 43.748L23.1318 47.9984C23.1318 47.9984 34.2764 48.0023 34.7282 47.9984C34.7436 47.9973 34.7626 47.9961 34.7852 47.9947C35.3118 47.962 37.7445 47.8108 38.5954 45.7404C38.8341 45.1597 39.0497 43.3345 39.157 42.4257Z" fill="#FF2925"/>
<path fill-rule="evenodd" clip-rule="evenodd" d="M22.8036 41.9146L23.2545 38.2014H9.19035L8 47.9989H22.066L22.5844 43.7485L13.7767 43.7475L13.9992 41.9146H22.8036Z" fill="#FF2925"/>
</svg>
