<svg width="80" height="80" viewBox="0 0 80 80" fill="none" xmlns="http://www.w3.org/2000/svg">
<path fill-rule="evenodd" clip-rule="evenodd" d="M51.1456 67.1614L50.7956 68.5948H50.7895L50.4596 67.1614H49.7495V69.269H50.1786V67.6429H50.1844L50.5704 69.269H50.9909L51.3967 67.6429H51.4024V69.269H51.832V67.1614H51.1456Z" fill="black"/>
<path fill-rule="evenodd" clip-rule="evenodd" d="M48.1322 67.1614V67.5114H48.6229V69.269H49.0635V67.5114H49.5545V67.1614H48.1322Z" fill="black"/>
<path fill-rule="evenodd" clip-rule="evenodd" d="M52.7891 54.2703C46.7895 60.7805 37.7728 65.7036 36.9125 66.1695L36.8781 66.1847L36.8449 66.1695C35.857 65.6352 24.0924 59.2097 18.5117 51.2536C9.74452 38.7482 11.0368 23.5116 11.0368 23.5116L16.0703 22.5032L16.7164 20.1323L22.6098 18.623L23.3273 15.677L36.8449 13.672L36.8781 13.6671L36.9125 13.672L50.4305 15.677L51.1468 18.623L57.0433 20.1323L57.6891 22.5032L62.7203 23.5116C62.7203 23.5116 63.2288 29.5359 61.4301 37.1195C61.4267 37.1334 61.4228 37.1469 61.4198 37.16C62.5521 37.1695 63.6404 37.3554 64.6622 37.6909C66.6769 28.4951 65.5906 20.8503 65.5906 20.8503L59.2653 19.5576L58.814 17.3238L53.0754 15.9957L52.1987 12.9779L36.9171 10.6665L21.5558 12.9779L20.7562 15.9202L15.2058 17.2564L14.5581 19.6294L8.30657 20.8503C8.30657 20.8503 5.65918 38.4011 15.9238 52.9062C22.5384 62.252 35.731 68.722 36.8412 69.3155L36.8781 69.3336L36.9171 69.3155C37.875 68.8056 48.1462 63.5857 55.0455 56.4885C54.1889 55.8645 53.427 55.1166 52.7891 54.2703Z" fill="black"/>
<path fill-rule="evenodd" clip-rule="evenodd" d="M65.5935 52.3952H62.8391L60.3678 45.827H58.422V52.3952H56.2359V45.827H54.1531C54.3295 45.3441 54.487 44.8383 54.6109 44.3062C54.6335 44.1774 54.6552 44.0502 54.677 43.923H62.1253L64.2217 50.0313L66.3034 43.923H68.7802L65.5935 52.3952ZM43.2839 52.7289V40.4979C43.2839 40.4979 45.6913 39.1592 46.84 39.2019C47.2133 39.2113 49.6035 38.895 49.5604 42.2862C49.519 45.6876 43.2839 52.7289 43.2839 52.7289ZM43.2188 22.7472C43.2188 22.7472 51.9696 25.242 52.0721 28.5995C52.1866 32.2602 43.2188 35.5386 43.2188 35.5386V22.7472ZM61.3514 37.1548C58.7574 37.1548 56.3777 38.0861 54.5278 39.6315C53.6991 37.3128 51.8102 35.9758 51.8102 35.9758C51.8102 35.9758 57.8612 32.715 57.9101 28.9095C57.9795 23.4699 45.3877 18.3712 43.1978 17.8387C41.4029 17.3985 39.0948 16.9267 38.3998 17.3571C38.0937 17.5421 38.0781 17.89 38.0781 17.89V62.5663C38.0781 62.5663 43.2761 60.0138 47.7458 54.9674C48.4519 54.1719 49.8181 52.754 51.1719 50.9473C52.5159 55.2911 56.5705 58.4546 61.3514 58.4546C67.224 58.4546 72 53.6775 72 47.8043C72 41.9286 67.2245 37.1548 61.3514 37.1548Z" fill="black"/>
<path fill-rule="evenodd" clip-rule="evenodd" d="M20.3101 33.1426C21.0305 37.8864 22.4409 40.6409 22.4409 40.6409L23.5462 38.6741C23.5462 38.6741 22.9694 33.2123 22.8257 30.7705C22.6809 28.325 22.8972 20.5654 22.8972 20.5654C22.8972 20.5654 24.3355 19.7703 25.1261 19.4129C25.915 19.0556 26.7609 18.7315 27.1913 19.022C27.6192 19.3071 27.5667 19.7703 27.5667 19.7703C27.5667 19.7703 27.5646 23.655 27.5667 31.7785C27.5741 40.6803 30.5858 46.0755 30.5858 46.0755V18.1186C30.5858 18.1186 31.8924 17.5192 32.8442 17.3613C33.7907 17.2021 34.7938 17.1254 35.2984 17.3715C35.691 17.5647 35.691 18.1924 35.691 18.1924V62.6114C35.691 62.6114 31.1622 59.0155 28.5743 53.7683C27.2389 51.0598 24.9825 44.8562 24.9825 44.8562L22.1784 48.9522C22.1784 48.9522 18.4659 44.2708 16.861 39.0573C16.2579 37.1106 15.5769 34.4021 15.2791 31.7518C14.9221 28.5625 14.9894 25.6254 14.9894 25.6254C14.9894 25.6254 16.3962 24.3459 16.9956 23.881C17.5991 23.413 18.6973 22.59 19.188 22.7619C19.6614 22.9321 19.6614 24.2302 19.6614 24.2302C19.6614 24.2302 19.5913 28.3959 20.3101 33.1426Z" fill="black"/>
</svg>
