<svg width="80" height="80" viewBox="0 0 80 80" fill="none" xmlns="http://www.w3.org/2000/svg">
<path d="M13.8062 46.2808L13.6601 47.4644H10.2094C10.1059 47.4644 10.0564 47.5265 10.0438 47.63L9.84249 49.2702H12.557L12.411 50.4538H9.69181L9.47787 52.1975C9.46522 52.3011 9.49742 52.3736 9.60209 52.3736H13.0585L12.9136 53.5469H8.75207C8.17695 53.5469 7.94691 53.235 8.01017 52.7417L8.70031 47.0951C8.76127 46.5971 9.05918 46.29 9.64005 46.29L13.8062 46.2808Z" fill="black"/>
<path d="M24.3736 50.9933L22.4929 53.5469H20.947L23.7076 49.9041L21.8672 46.2808H23.4775L24.7025 48.7722L26.5349 46.2808H28.0911L25.3582 49.8614L27.2411 53.5421H25.6227L24.3736 50.9933Z" fill="black"/>
<path d="M37.179 53.5467L37.9268 47.4506H35.8091L35.9541 46.2773H41.6109L41.4661 47.4506H39.338L38.5905 53.5467H37.179Z" fill="black"/>
<path d="M49.2024 53.5469L50.0951 46.2808H53.7584C54.9215 46.2808 55.3147 47.0491 55.1733 48.2017L55.0997 48.8032C54.9926 49.6751 54.5913 50.4136 53.7424 50.6437L54.6419 53.5502H53.1408L52.2851 50.716H50.9669L50.6218 53.5502L49.2024 53.5469ZM53.1317 49.5301C53.4768 49.5301 53.6494 49.3738 53.6952 48.9999L53.8172 48.0038C53.8644 47.6196 53.7275 47.4644 53.3847 47.4644H51.3661L51.1119 49.5348L53.1317 49.5301Z" fill="black"/>
<path d="M67.2851 52.0413H64.659L64.0276 53.547H62.6599L65.524 46.9561C65.7139 46.5098 65.9036 46.2395 66.3293 46.2395H67.1171C67.5531 46.2395 67.6774 46.4994 67.7566 46.9561L68.9863 53.547H67.5461L67.2851 52.0413ZM65.1421 50.9002H67.0827L66.519 47.6301L65.1421 50.9002Z" fill="black"/>
<path d="M52.5607 26.4509C52.5607 26.4509 30.9879 26.4509 29.7572 26.4509C27.4211 26.4509 25.8752 27.6794 25.6578 29.5198C25.5772 30.1961 25.5071 30.7965 25.5071 30.7965H55.8825C55.8825 30.7965 55.9399 30.3479 55.9837 29.9914C56.2138 28.1372 55.4247 26.4567 52.5607 26.4567" fill="#FF2925"/>
<path d="M55.5776 32.5474C55.5776 32.5474 55.5099 33.1604 55.4177 33.8287C55.235 35.1538 54.2492 36.1395 52.4145 36.1395H45.9456L45.2198 42.0253H40.0691L41.2331 32.5474H55.5776Z" fill="#FF2925"/>
<path d="M24.9932 26.4497L24.4618 30.793H10.6831L11.2168 26.4497H24.9932Z" fill="#FF2925"/>
<path d="M10.4818 32.448H24.2558L23.8153 36.0402H15.1908L14.9734 37.8138H23.6002L23.0929 41.9259H9.31543L10.4818 32.448Z" fill="#FF2925"/>
<path d="M57.4654 26.4509H68.7022C70.4779 26.4509 72.3172 27.2745 71.9538 30.1259C71.8883 30.6366 71.8698 30.7942 71.8698 30.7942H56.9329L57.4654 26.4509Z" fill="#FF2925"/>
<path d="M56.7282 32.447L61.8811 32.4493L60.7171 41.9238L55.564 41.9261L56.7282 32.447Z" fill="#FF2925"/>
<path d="M66.5179 32.447L71.6697 32.4493L70.5046 41.9238L65.3525 41.9261L66.5179 32.447Z" fill="#FF2925"/>
<path d="M36.6161 32.4518H25.2989C24.9216 34.9259 26.1592 36.0439 27.9134 36.0439H34.885L34.6675 37.813H24.6409L24.136 41.9251C24.136 41.9251 35.0506 41.9251 35.4945 41.9251C35.8593 41.8986 38.4126 41.8296 39.2812 39.7396C39.5641 39.061 39.8137 36.634 39.8828 36.1198C40.2841 33.1557 38.2322 32.4495 36.6161 32.4495" fill="#FF2925"/>
</svg>
