<svg width="80" height="80" viewBox="0 0 80 80" fill="none" xmlns="http://www.w3.org/2000/svg">
<path fill-rule="evenodd" clip-rule="evenodd" d="M16.9724 65.8159L16.8469 65.6905L15.7924 64.6375L15.6668 64.4497L15.4787 64.6375C15.1022 65.0139 14.7193 65.2646 14.3301 65.4648C13.9536 65.6531 13.5081 65.7789 12.9746 65.7789C12.1211 65.7553 11.4747 65.4648 10.9539 64.8821C10.4518 64.3179 10.1441 63.6033 10.1253 62.7255C10.1253 62.7232 10.1254 62.7209 10.1254 62.7181C10.1255 62.7135 10.1257 62.7084 10.1253 62.7028C10.1257 62.6978 10.1255 62.6927 10.1254 62.6876C10.1254 62.6853 10.1253 62.6825 10.1253 62.6797C10.1454 61.8084 10.4392 61.0874 10.9288 60.5236C11.4308 59.9593 12.1211 59.6708 12.9746 59.6523C13.4766 59.6573 13.8971 59.7776 14.2862 59.9654C14.6626 60.1536 15.0582 60.4043 15.4097 60.7488L15.5981 60.9371L15.7861 60.7488L16.8405 59.5329L16.9661 59.3452L16.8405 59.2194C16.4012 58.7805 15.8739 58.4107 15.2777 58.1411C14.6501 57.8903 13.9349 57.7024 13.0688 57.7024H13.0455L12.9828 57.7148C11.508 57.7513 10.3091 58.279 9.39917 59.2069C8.49549 60.1471 8.01882 61.3195 8 62.7176V62.7408V62.7634C8.02829 64.1676 8.50176 65.371 9.39917 66.2987C10.3091 67.233 11.4892 67.7093 12.9136 67.7468H12.937C13.8154 67.7417 14.5624 67.559 15.19 67.2454C15.8176 66.9319 16.3573 66.5309 16.8469 66.0041L16.9724 65.8159ZM67.808 57.9505L71.8747 67.2704L72 67.584H71.686H69.9854H69.7972L69.7514 67.4586L68.8541 65.346H64.787L63.8713 67.4586L63.8245 67.584H63.6992H62.0231H61.7096L61.8354 67.2704L65.927 57.9505L65.9728 57.8252H65.9751H66.1009H67.6193H67.7451L67.808 57.9505ZM66.8451 60.5587L65.6024 63.4484H68.1063L66.8451 60.5587ZM58.8097 63.9312C59.3745 63.743 59.8702 63.4923 60.2342 63.0599C60.6736 62.5581 60.9118 61.881 60.9243 61.0851V61.0629V61.0393C60.9229 60.6004 60.8614 60.2119 60.6731 59.8484C60.5478 59.4719 60.2967 59.1773 60.0455 58.9076V58.8845C59.732 58.5714 59.324 58.3206 58.8532 58.1764C58.3514 57.9883 57.8242 57.9255 57.222 57.9255H53.111H52.86L52.8286 57.8718V58.1223V67.3726V67.6238H53.0799H54.6866H54.9373V67.3726V64.3637H56.6379L58.8472 67.5104L58.9101 67.5733H59.0354H60.9682H61.4076L61.1564 67.2598L58.8097 63.9312ZM58.7593 61.1604C58.7538 61.5993 58.6335 61.8875 58.32 62.1257C58.0059 62.3768 57.6359 62.5017 57.0773 62.5017H54.9184V59.8373L54.8934 59.7966H57.0333C57.5985 59.7993 58.0374 59.9219 58.32 60.1726C58.5706 60.3603 58.7593 60.6739 58.7593 61.1378V61.1604ZM51.2567 57.8762H51.0057H49.3741H49.1856V58.1268V63.4553C49.1787 64.2762 48.9975 64.8659 48.6209 65.2484C48.2445 65.6244 47.7673 65.8122 47.0832 65.8122C46.3929 65.8089 45.8848 65.5615 45.5208 65.1855C45.1443 64.8095 44.956 64.2013 44.956 63.3739V58.1142V57.8636H44.7676H43.136H42.885L42.8725 57.8762V58.1268V63.4553C42.887 64.8345 43.2489 65.9315 44.0207 66.6715C44.7675 67.3985 45.7967 67.7496 47.0519 67.7496C48.3195 67.7491 49.3552 67.3735 50.1084 66.646C50.8678 65.9001 51.244 64.803 51.2567 63.3864V58.1268V57.8762ZM41.4107 57.876H41.6615V58.1266V59.6439V59.8317H41.4107H38.6995V67.3615V67.6122H38.5111H36.8544H36.6035V67.3615V59.8317H33.8925H33.7039V59.6439V58.1266V57.876H33.7078H33.8962H41.4107ZM35.3614 65.66H35.1104H30.4661V58.108V57.8574H30.2153H28.6087H28.3575L28.3788 57.8761V58.1267V67.3777V67.6288H28.6301H35.1104H35.3614V67.3777V65.9112V65.66ZM26.2407 57.8762H26.4916V58.1268V63.3864C26.4791 64.803 26.1025 65.9001 25.3431 66.646C24.5901 67.3735 23.5545 67.7491 22.287 67.7496C21.0318 67.7496 20.0025 67.3985 19.2558 66.6715C18.4839 65.9315 18.1211 64.8345 18.1072 63.4553V58.1268V57.8762L18.1198 57.8636H18.3708H20.0027H20.1908V58.1142V63.3739C20.1908 64.2013 20.379 64.8095 20.7554 65.1855C21.1194 65.5615 21.628 65.8089 22.3183 65.8122C23.0023 65.8122 23.4791 65.6244 23.8556 65.2484C24.2321 64.8659 24.4138 64.2762 24.4207 63.4553V58.1268V57.8762H24.6088H26.2407Z" fill="#39409E"/>
<path fill-rule="evenodd" clip-rule="evenodd" d="M49.3643 29.9176C49.2069 29.9131 49.048 29.9089 48.8904 29.9078C48.7327 29.9067 48.5764 29.9094 48.4235 29.9176C43.8437 30.1713 40.4385 33.3072 40.7419 38.9804V53.8243H48.6118V37.824L65.0099 37.7616V29.9176H49.3643ZM31.2761 29.9141C31.121 29.9122 30.9644 29.9134 30.8068 29.9176H15.1609V37.7616L31.5594 37.824V53.8243H39.4293V38.9804C39.7429 33.1181 36.0862 29.9763 31.2761 29.9141ZM32.196 28.3253H47.9056V12.2505H32.196V28.3253Z" fill="#27BA59"/>
</svg>
