<svg width="80" height="80" viewBox="0 0 80 80" fill="none" xmlns="http://www.w3.org/2000/svg">
<path fill-rule="evenodd" clip-rule="evenodd" d="M68.1325 36.8116C70.0452 37.8884 71.4654 39.7633 71.882 42.0565C72.6204 46.1779 69.818 50.1141 65.6045 50.8385C63.7391 51.1632 61.921 50.8009 60.3966 49.9379L53.7019 46.1505L63.7673 29.0601L69.136 32.0957L66.7973 36.0596L68.1325 36.8116ZM63.5116 44.6462C63.8051 44.8135 64.165 44.8876 64.5245 44.8227C65.3484 44.6837 65.8883 43.9129 65.7462 43.1145C65.6703 42.6688 65.3863 42.3071 65.0171 42.0934L63.6815 41.3417L62.1764 43.8941L63.5116 44.6462ZM57.423 39.1417C59.8752 37.1274 60.1971 33.544 58.1425 31.1305C56.0878 28.726 52.4233 28.4107 49.9707 30.425C47.5181 32.4395 47.1965 36.0319 49.2511 38.4364C51.3059 40.841 54.9702 41.1562 57.423 39.1417ZM52.8298 33.7666C53.3979 33.2933 54.2596 33.3674 54.7423 33.9336C55.2254 34.5002 55.1495 35.3352 54.572 35.8088C53.9945 36.2733 53.1326 36.1988 52.6593 35.6418C52.1764 35.0848 52.2519 34.2403 52.8298 33.7666ZM35.8934 41.1993C36.3059 39.8051 37.1307 38.5114 38.3517 37.5079C41.6278 34.8161 46.5046 35.2334 49.2504 38.4456C51.9967 41.6575 51.5703 46.438 48.2941 49.1304C45.018 51.8226 40.1412 51.4048 37.3951 48.193C36.0562 46.6262 35.4732 44.6867 35.6059 42.7983L34.1312 50.9998L28.0233 49.9442L29.3851 42.3708C28.663 45.4504 26.5554 48.1831 23.41 49.6222C17.9842 52.1009 11.5451 49.7984 9.01708 44.4887C6.48879 39.1696 8.83732 32.8569 14.2537 30.3791C16.9618 29.1446 19.9258 29.0981 22.5297 30.0267L20.3992 35.7726C19.2912 35.3737 18.0319 35.3921 16.8859 35.9214C14.585 36.9702 13.5908 39.6528 14.6609 41.9088C15.7307 44.1645 18.4673 45.1391 20.7682 44.09C22.3023 43.394 23.2488 41.9645 23.4003 40.4233L19.8022 42.0663L17.8421 37.9446L27.4248 33.5627C27.8888 34.1566 28.296 34.8065 28.6467 35.5121C29.5355 37.3818 29.8191 39.3742 29.5813 41.2795L31.7892 29L37.897 30.0556L35.8934 41.1993ZM42.1674 44.2658C42.6978 44.8973 43.654 44.9711 44.2883 44.4516C44.9324 43.9315 45.0081 42.9938 44.4779 42.3719C43.9473 41.75 42.9915 41.6666 42.3568 42.1864C41.7127 42.7065 41.6372 43.6439 42.1674 44.2658Z" fill="#BFF932"/>
</svg>
