<svg width="80" height="80" viewBox="0 0 80 80" fill="none" xmlns="http://www.w3.org/2000/svg">
<mask id="mask0_657_862" style="mask-type:luminance" maskUnits="userSpaceOnUse" x="7" y="26" width="66" height="28">
<path d="M72.0251 26.0342H7.9751V53.9657H72.0251V26.0342Z" fill="white"/>
</mask>
<g mask="url(#mask0_657_862)">
<path d="M17.0152 35.8163H19.7497C20.4374 35.8163 20.7808 36.0107 21.1243 36.5785L23.9487 40.9759H24.0459V35.8163H35.2389C33.4661 30.1481 28.1751 26.0342 21.9229 26.0342C15.6706 26.0342 10.3798 30.1481 8.6084 35.8163H17.0152Z" fill="#FD3823"/>
<path d="M32.6455 37.8438V46.0853H29.8673V37.8438H26.6897V46.0853H24.8357C24.148 46.0853 23.8192 45.8909 23.4612 45.3231L19.8664 39.9416H19.809V46.0853H17.1101V37.8438H13.9447V46.0853H11.1178V37.8438H8.13871C8.0318 38.5411 7.9751 39.2556 7.9751 39.9829C7.9751 47.6866 14.2201 53.9308 21.923 53.9308C29.6259 53.9308 35.8708 47.6859 35.8708 39.9829C35.8708 39.2556 35.8151 38.5411 35.7072 37.8438H32.6448H32.6455Z" fill="#FD3823"/>
<path d="M70.9942 37.8511V38.0025H70.7835V38.7591H70.5932V38.0025H70.3818V37.8511H70.9942Z" fill="#FD3823"/>
<path d="M71.0784 38.7591V37.8511H71.3838L71.5263 38.4691H71.5287L71.6793 37.8511H71.975V38.7591H71.7904V38.0592H71.7879L71.6131 38.7591H71.4324L71.2662 38.0592H71.263V38.7591H71.0784Z" fill="#FD3823"/>
<path d="M37.6125 44.215V37.9028H39.3961L41.0745 42.2743H41.0922V37.9028H42.3243V44.215H40.5852L38.8623 39.5989H38.8453V44.215H37.6125Z" fill="#FD3823"/>
<path d="M43.1985 41.0593C43.1985 39.39 43.1985 37.7983 45.3749 37.7983C47.5513 37.7983 47.5513 39.3891 47.5513 41.0593C47.5513 42.7295 47.5513 44.3203 45.3749 44.3203C43.1985 44.3203 43.1985 42.7117 43.1985 41.0593ZM46.215 41.0593C46.215 39.4418 46.1186 38.7428 45.3758 38.7428C44.6331 38.7428 44.5366 39.4418 44.5366 41.0593C44.5366 42.6769 44.6331 43.3759 45.3758 43.3759C46.1186 43.3759 46.215 42.6769 46.215 41.0593Z" fill="#FD3823"/>
<path d="M47.9194 37.9028H49.2924L50.2709 42.493H50.2886L51.3902 37.9028H52.6925L51.0232 44.215H49.4754L47.9194 37.9028Z" fill="#FD3823"/>
<path d="M53.1123 44.215V37.9028H56.5571V38.8732H54.4325V40.43H56.3911V41.4003H54.4325V43.2447H56.6268V44.215H53.1123Z" fill="#FD3823"/>
<path d="M57.3176 44.215V37.9028H58.6369V43.1661H60.6134V44.215H57.3176Z" fill="#FD3823"/>
<path d="M60.4038 44.215L62.1525 37.9036H63.8925L65.6063 44.215H64.2163L63.8665 42.8161H62.066L61.708 44.215H60.4054H60.4038ZM62.948 39.1185H62.9301L62.3268 41.8458H63.5854L62.9471 39.1185H62.948Z" fill="#FD3823"/>
<path d="M67.5631 44.3195C65.9286 44.3195 65.6224 43.3581 65.6922 42.2654H67.0124C67.0124 42.8688 67.0384 43.3759 67.7642 43.3759C68.2096 43.3759 68.4284 43.0875 68.4284 42.659C68.4284 41.5226 65.7707 41.453 65.7707 39.573C65.7707 38.5848 66.2429 37.7983 67.8516 37.7983C69.1369 37.7983 69.7744 38.375 69.687 39.6953H68.4016C68.4016 39.2231 68.323 38.7428 67.7893 38.7428C67.3606 38.7428 67.1072 38.9785 67.1072 39.4159C67.1072 40.6138 69.7648 40.5085 69.7648 42.493C69.7648 44.1275 68.5667 44.3203 67.5615 44.3203" fill="#FD3823"/>
</g>
</svg>
