<svg width="80" height="80" viewBox="0 0 80 80" fill="none" xmlns="http://www.w3.org/2000/svg">
<path d="M71.9999 44.3505V41.9004H67.402L69.3243 40.1631C71.0688 38.5745 71.9259 37.6988 71.9259 36.0508C71.9259 33.9419 70.507 32.7546 67.8891 32.7546H64.4013L63.3665 35.2041H67.7276C68.7476 35.2041 69.1318 35.6048 69.1318 36.2285C69.1318 36.9265 68.4811 37.4312 67.4612 38.3968L63.5139 42.168V44.3505H71.9999Z" fill="#FF0930"/>
<path d="M9.00517 41.9749L8 44.3507H12.6424L13.6475 41.9749H9.00517Z" fill="#FF0930"/>
<path d="M33.2062 42.0936C31.8908 42.0936 30.9295 41.099 30.9295 39.7773C30.9295 38.4556 31.8908 37.4758 33.2062 37.4758C34.5216 37.4758 35.483 38.4556 35.483 39.7773C35.483 41.099 34.5222 42.0936 33.2062 42.0936ZM33.2062 35.0115C30.4417 35.0115 28.2686 37.09 28.2686 39.7773C28.2686 42.4646 30.4417 44.5586 33.2062 44.5586C35.9708 44.5586 38.144 42.4639 38.144 39.7773C38.144 37.0906 35.9708 35.0148 33.2062 35.0148" fill="#09043E"/>
<path d="M22.3558 42.1234C21.0545 42.1234 20.0938 41.1288 20.0938 39.7774C20.0938 38.426 21.0539 37.4475 22.3558 37.4475C23.6712 37.4475 24.6473 38.4273 24.6473 39.7787C24.6473 41.1301 23.6563 42.1248 22.3558 42.1248V42.1234ZM22.9612 35.0129C21.6305 35.0129 20.6697 35.6359 20.1524 36.3786V35.2177H17.521V47.2453H20.2123V43.4005C20.8177 44.1127 21.8538 44.5141 23.0211 44.5141C25.4903 44.5141 27.309 42.4194 27.309 39.7922C27.3109 37.0752 25.4157 35.015 22.962 35.015" fill="#09043E"/>
<path d="M58.5168 44.3506L62.3754 35.219H59.2711L57.26 40.6977L55.2941 35.219H52.1299L55.9152 44.3506H58.5168Z" fill="#09043E"/>
<path d="M41.8705 44.3507V40.1038C41.8705 38.5747 42.7572 37.6713 44.5616 37.6713H45.0199V35.2178H44.7837C43.3196 35.2178 42.4477 35.6333 41.8119 36.6138V35.2178H39.1799V44.3507H41.8705Z" fill="#09043E"/>
<path d="M16.5463 41.8262V41.6188C16.5463 39.7031 15.3191 38.8572 13.1756 38.6342L11.2985 38.4409C10.8403 38.397 10.6775 38.2632 10.6775 38.0105C10.6775 37.7402 10.8699 37.5949 11.283 37.5949H14.7567L15.7618 35.2178H11.4007C9.34732 35.2178 8.00171 36.3773 8.00171 38.0848C8.00171 39.7923 8.90394 40.6978 11.3577 40.9505L13.0874 41.1289C13.5456 41.1735 13.7973 41.3512 13.7973 41.7526V41.8262H16.5463Z" fill="#09043E"/>
<path d="M51.3617 44.3505V41.9004H50.2535C49.1447 41.9004 48.6388 41.3956 48.6388 40.2969V37.6691H50.6787L51.7162 35.2176H48.6388V32.7546H45.9475V40.7125C45.9475 43.1032 47.2777 44.3505 50.0274 44.3505H51.3617Z" fill="#09043E"/>
</svg>
