<svg width="80" height="80" viewBox="0 0 80 80" fill="none" xmlns="http://www.w3.org/2000/svg">
<path d="M71.872 38.7203H67.0813V24H71.872V38.7203Z" fill="#EF4E75"/>
<path d="M67.0179 48V40.832H72V55.8723H66.7624L63.5688 50.7523L60.3749 55.8723H55.4568V40.832H60.1835V48L63.6325 42.88L67.0179 48Z" fill="#EF4E75"/>
<path fill-rule="evenodd" clip-rule="evenodd" d="M53.9878 48.3203V48.2562C53.9878 44.0324 50.539 40.6401 46.0038 40.6401C41.5328 40.6401 38.02 44.0961 38.02 48.3844C38.02 52.6084 41.4688 56.0001 46.0038 56.0001C50.475 56.0001 53.9878 52.6084 53.9878 48.3203ZM49.0696 48.3844C49.0696 50.1122 47.9198 51.6481 46.0678 51.6481C44.2155 51.6481 43.0022 50.0485 43.0022 48.3203V48.2562C43.0022 46.528 44.1515 44.9922 46.0038 44.9922C47.8563 44.9922 49.0696 46.5921 49.0696 48.3844Z" fill="#EF4E75"/>
<path d="M32.0157 46.0161H27.1616V40.832H22.4351V55.8723H27.1616V50.688H32.0157V55.8723H36.6145V40.832H32.0157V46.0161Z" fill="#EF4E75"/>
<path d="M14.6428 44.544C15.7284 44.544 16.7507 44.9283 17.9642 45.5043L21.1577 42.6238C19.497 41.3442 17.2615 40.7041 14.4513 40.7041C10.3635 40.7041 8 42.8799 8 45.7599C8 48.3202 10.0443 49.4083 12.5349 50.1121C12.9181 50.1762 13.8125 50.3681 13.8125 50.3681C15.4092 50.6879 15.7924 50.9442 15.7924 51.3279V51.3922C15.7924 51.7762 15.3452 52.0959 14.6428 52.0959C13.5569 52.0959 12.4714 51.7119 11.3214 51.1359L8.064 54.0797C9.72471 55.3602 11.8962 55.9999 14.6428 55.9999C18.7306 55.9999 21.0301 53.8242 21.0301 50.9442V50.8799C21.0301 48.3202 19.0498 47.232 16.5587 46.5278C16.1755 46.4641 15.4092 46.2722 15.4092 46.2722C13.8125 45.9519 13.5569 45.6962 13.5569 45.3119V45.2482C13.5569 44.8638 13.8761 44.544 14.6428 44.544Z" fill="#EF4E75"/>
<path d="M56.5428 38.7203H61.3333V28.1601H65.4847V24H52.3911V28.1601H56.5428V38.7203Z" fill="#EF4E75"/>
<path d="M54.6266 34.5602H47.6005V24H42.8101V38.7203H54.6266V34.5602Z" fill="#EF4E75"/>
<path d="M33.9321 39.0401C38.3392 39.0401 41.3413 37.0563 41.3413 32V24H36.04V31.9363C36.04 33.856 35.2096 34.5602 33.9321 34.5602C32.6546 34.5602 31.8242 33.7282 31.8242 31.808V24H26.5869V32.0641C26.5869 36.9921 29.5247 39.0401 33.9321 39.0401Z" fill="#EF4E75"/>
<path d="M16.6866 36.8002L13.2376 31.6802V38.5921H8.38306V24H13.4928L16.6866 29.12L19.88 24H24.7982V38.5921H20.1996V31.6802L16.6866 36.8002Z" fill="#EF4E75"/>
</svg>
