<svg width="80" height="80" viewBox="0 0 80 80" fill="none" xmlns="http://www.w3.org/2000/svg">
<path d="M8.13561 18.7196C7.68271 17.7181 8.41963 16.5854 9.52414 16.5854H13.1888C13.7881 16.5854 14.3316 16.935 14.5773 17.4784L29.4982 50.4738C29.951 51.4754 29.2141 52.608 28.1096 52.608H24.4449C23.8457 52.608 23.3021 52.2585 23.0564 51.7151L8.13561 18.7196Z" fill="#471B76"/>
<path d="M50.5093 31.3355C50.0359 30.3328 50.7949 29.1934 51.9364 29.1934H55.7042C56.3185 29.1934 56.8765 29.5398 57.1313 30.0796L71.8568 61.2727C72.3302 62.2753 71.5711 63.4148 70.4297 63.4148H66.6619C66.0476 63.4148 65.4896 63.0682 65.2348 62.5285L50.5093 31.3355Z" fill="#471B76"/>
<path d="M39.2282 31.8779C39.4647 31.3406 39.9925 30.9944 40.5748 30.9944H44.3837C45.4602 30.9944 46.1734 32.1217 45.7208 33.1078L39.6461 46.3422C39.1154 47.4985 37.4845 47.49 36.9656 46.3284L35.1725 42.3142C35 41.9278 34.9988 41.4855 35.1693 41.0982L39.2282 31.8779Z" fill="#471B76"/>
<path d="M48.8855 36.3903C49.4377 35.1901 51.2289 35.2026 51.7623 36.4104L53.849 41.1339C54.0133 41.5057 54.0125 41.9249 53.847 42.2962L49.6577 51.6992C49.4123 52.2502 48.8449 52.608 48.2166 52.608H43.8207C42.6912 52.608 41.9333 51.5027 42.3869 50.5167L48.8855 36.3903Z" fill="#471B76"/>
<path d="M22.9022 33.8585C22.4436 32.8717 23.2337 31.777 24.3908 31.7961L27.9096 31.8543C28.5371 31.8647 29.1005 32.2155 29.3492 32.7506L37.6656 50.6445C38.1242 51.6312 37.3341 52.7259 36.177 52.7068L32.6581 52.6486C32.0307 52.6383 31.4672 52.2875 31.2185 51.7524L22.9022 33.8585Z" fill="#471B76"/>
<path d="M33.2942 20.7107H35.4248V22.5352H33.2942V20.7107Z" fill="black"/>
<path fill-rule="evenodd" clip-rule="evenodd" d="M39.3817 20.7107H35.7292V26.4883H37.2511V22.5352H39.3817V20.7107Z" fill="black"/>
<path d="M39.9902 20.7107H41.5121L42.7295 26.4883H41.2077L39.9902 20.7107Z" fill="black"/>
<path d="M43.034 20.7107H44.5559L43.034 26.4883L42.4253 23.9036L43.034 20.7107Z" fill="black"/>
</svg>
