<svg width="80" height="80" viewBox="0 0 80 80" fill="none" xmlns="http://www.w3.org/2000/svg">
<path fill-rule="evenodd" clip-rule="evenodd" d="M21.7229 40.5585C20.4052 40.9325 19.0021 40.0911 18.6255 38.6932C18.2489 37.3885 19.0021 35.9865 20.4052 35.617L25.3853 34.2145C26.5103 33.8405 31.5802 32.3537 34.6777 37.7626C35.2426 38.7865 35.7131 39.8104 36.1792 40.8388C36.7486 42.1435 37.309 43.354 38.1517 44.3828C38.3396 44.5698 38.5279 44.7568 38.7162 44.9434C39.4695 45.687 40.3121 46.0655 41.1593 46.1544C41.9121 46.1544 42.7507 45.8741 43.598 45.1305C43.7907 45.0368 43.9791 44.8453 44.073 44.7568C44.1672 44.6631 44.1672 44.6631 44.2568 44.5698C44.916 43.728 45.6645 42.3305 46.3279 41.0214C46.7941 39.9974 47.2602 39.0668 47.919 38.0433C48.6725 36.8279 49.4206 35.8973 50.3574 35.2429C51.3978 34.4015 52.6166 33.9383 54.1182 33.8405C56.3688 33.7512 58.1527 34.3123 59.9368 34.8689C61.3445 35.3366 62.7564 35.804 63.7875 35.5232H63.9799C64.1683 35.5232 64.4463 35.4299 64.6348 35.3366C64.8225 35.2429 65.0063 35.2429 65.1991 35.1447C65.7598 34.8689 66.0424 34.4948 66.0424 34.1212C66.0424 33.7512 65.9479 33.3776 65.854 33.0036C65.7598 32.6295 65.6655 32.2559 65.4817 31.8863C64.2625 29.834 61.6311 28.2491 59.4703 27.3139C59.3768 27.3139 59.3768 27.3139 59.2826 27.2251C58.628 26.9403 57.9688 26.6596 57.1219 26.4771C56.2789 26.1923 55.4323 25.916 54.6789 25.6357C50.174 24.4247 45.476 23.7704 42.2847 23.6771H39.7517C38.9045 23.7704 38.0619 23.7704 37.2147 23.8637C32.9878 24.2377 28.5767 25.2661 24.4438 26.9403C24.3498 26.9403 24.3498 27.0381 24.3498 27.0381C23.2245 27.5055 22.1935 28.062 21.1584 28.6186C20.2169 29.1792 19.3697 29.834 18.5315 30.4884C14.6763 33.4709 13.0808 36.8279 13.1748 40.0911C13.1748 40.7455 13.2733 41.3954 13.4571 42.1435C13.6454 42.7978 13.8337 43.4477 14.1159 44.0088C15.5235 47.3653 18.6255 50.0724 22.1935 52.0306C22.8483 52.3114 23.5072 52.5872 24.2555 52.9613C25.0087 53.3353 25.757 53.616 26.5103 53.8959C30.6432 55.3881 35.8071 56.5054 41.2537 56.318C42.6613 56.318 44.1672 56.2244 45.6645 56.0374C47.166 55.9484 48.5779 55.668 49.9855 55.3881C57.1219 53.9896 63.4156 50.7219 67.2655 45.0368C68.1089 43.8218 69.7089 43.541 70.8343 44.2891C72.0531 45.0368 72.3397 46.6222 71.5827 47.8331C66.889 54.7331 59.3768 58.6509 51.0167 60.4229C49.5151 60.7032 47.8252 60.9792 46.2294 61.1704C44.6334 61.3574 43.033 61.4468 41.3476 61.4468C35.2426 61.5401 29.4239 60.3335 24.7264 58.6509C23.7849 58.3706 22.9422 57.9966 22.1935 57.6223C21.3418 57.2533 20.5935 56.8833 19.8448 56.5054C15.2413 54.1722 11.2921 50.5394 9.41847 46.0655C8.94749 45.1305 8.66975 44.1958 8.38749 43.2607C8.19918 42.3305 8.10031 41.3066 8.01087 40.2782C7.82256 35.3366 10.0728 30.4884 15.3307 26.4771C16.2722 25.729 17.4017 24.9813 18.5315 24.2377C19.6519 23.5833 20.8758 22.9335 22.1935 22.3724C22.2833 22.2791 22.3773 22.2791 22.4717 22.2791C27.165 20.3201 31.9568 19.2029 36.7487 18.8288C37.6853 18.7351 38.6223 18.6463 39.5634 18.6463C40.5004 18.5481 41.442 18.5481 42.3786 18.5481C45.9468 18.6463 51.2094 19.3854 55.9966 20.7834C57.0323 21.0637 57.9688 21.344 58.8119 21.6292C59.6588 21.9051 60.5018 22.1854 61.3445 22.5594C61.3445 22.5594 61.443 22.5594 61.443 22.6532C64.4463 23.8637 68.1089 26.1923 69.987 29.46C70.3632 30.2076 70.6412 30.9512 70.9235 31.6993C71.1162 32.5362 71.2062 33.3776 71.1162 34.3123C71.0181 36.5471 69.897 38.4125 67.5482 39.6279C67.1717 39.8104 66.7009 39.9974 66.2305 40.1844C65.9479 40.2782 65.4817 40.3715 65.1052 40.5585H64.8225C62.4744 41.0214 60.4076 40.3715 58.4399 39.7171C57.0323 39.3475 55.7146 38.8802 54.4947 38.969C54.0293 38.969 53.6524 39.0668 53.4597 39.2538C53.0831 39.5346 52.7109 39.9974 52.3343 40.6518C51.8639 41.3954 51.3978 42.3305 50.9267 43.2607C50.0801 44.9435 49.331 46.5284 48.1075 47.9264V48.0197H48.0136C48.0136 48.0197 48.0136 48.1134 47.919 48.1134C47.6367 48.487 47.3541 48.7633 46.9822 49.0436C45.1045 50.6286 42.9435 51.3767 40.8771 51.1896C38.8151 51.0959 36.8426 50.1657 35.1482 48.6741C34.8705 48.3892 34.5833 48.0197 34.2112 47.6461C32.8934 46.1544 32.1447 44.4761 31.4859 42.7978C31.1142 41.9564 30.7375 41.1195 30.262 40.2782C29.1416 38.4125 27.4518 38.8802 27.165 38.969C27.0752 39.0668 26.8869 39.1605 26.7925 39.1605L21.7229 40.5585Z" fill="#0CB14B"/>
</svg>
