<svg width="80" height="80" viewBox="0 0 80 80" fill="none" xmlns="http://www.w3.org/2000/svg">
<path d="M58.607 69.432C58.6217 69.2011 58.6281 69.0992 58.5865 68.776C58.438 67.6208 57.4226 66.8811 56.454 66.3808L55.8805 66.0651C55.8365 66.0384 55.7907 66.0112 55.7437 65.9829C55.2393 65.6843 54.5943 65.3019 54.5943 64.6016C54.5943 63.8816 55.0201 63.5904 55.686 63.5904C56.4134 63.5904 56.5352 64.3696 56.5352 65.0464H58.4757C58.5836 64.5824 58.472 63.9792 58.3502 63.5947C58.2587 63.3072 58.0495 62.9477 57.8177 62.7531C56.5943 61.7269 52.5734 61.7088 52.5734 64.6016C52.5734 65.448 52.632 65.8384 53.1732 66.5083C53.5748 67.0048 54.3387 67.4544 55.0182 67.8544C55.5625 68.1744 56.0526 68.4629 56.2591 68.7179C56.9492 69.5723 56.4056 70.5451 55.7266 70.5451H55.6618C55.3256 70.5467 54.9238 70.5483 54.6915 70.2053C54.4663 69.8731 54.4695 69.4357 54.4726 69.0267C54.4729 68.9797 54.4733 68.9333 54.4733 68.8875H52.4519C52.4519 68.9963 52.4507 69.0971 52.4495 69.1925C52.443 69.7253 52.4387 70.0821 52.6648 70.6549C53.0152 71.5424 53.9871 72 55.039 72C56.7596 72 58.4757 71.7589 58.5984 69.5755C58.6014 69.5216 58.6044 69.4747 58.607 69.432Z" fill="#FF4B57"/>
<path d="M61.3865 62.4186V63.5904H61.1842L61.1661 62.776L60.9011 63.5904H60.6993C60.6882 63.4549 60.5134 62.9216 60.4162 62.7824V63.5904H60.2144V62.5397C60.2144 62.408 60.308 62.4117 60.4257 62.4165C60.4488 62.4176 60.4727 62.4186 60.497 62.4186C60.5237 62.5322 60.5731 62.6672 60.6234 62.8037C60.6946 62.9978 60.7676 63.1962 60.7801 63.3482C60.8595 63.2901 60.8643 63.2709 60.8827 63.2C60.8887 63.177 60.896 63.1488 60.9077 63.112C60.9489 62.9829 60.9794 62.8778 61.0041 62.792C61.1064 62.4389 61.1123 62.4186 61.3865 62.4186Z" fill="#FF4B57"/>
<path d="M59.1628 62.4187H60.0929V62.5803H59.729V63.5904H59.5267V62.5803H59.1628V62.4187Z" fill="#FF4B57"/>
<path d="M48.1261 70.3425H51.4007V71.8385H46.1047V62.2971H51.1985C51.2916 62.2971 51.3199 62.3249 51.3199 62.4187V63.6721C51.3199 63.7643 51.2916 63.7931 51.1985 63.7931H48.1261V66.0977H50.956C51.0492 66.0977 51.0775 66.1254 51.0775 66.2187V67.5931H48.1261V70.3425Z" fill="#FF4B57"/>
<path d="M44.4469 71.8385H42.4255V62.2971H44.4469V71.8385Z" fill="#FF4B57"/>
<path fill-rule="evenodd" clip-rule="evenodd" d="M39.3126 67.1083V67.1889C39.9637 67.1889 40.5782 67.5707 40.8039 68.1643C40.9393 68.5201 40.9568 69.2411 40.9742 69.9638C40.9929 70.7329 41.0116 71.5035 41.1723 71.8385H39.1912C38.9568 71.3489 38.9708 70.5627 38.9842 69.8145C38.9869 69.6641 38.9896 69.5153 38.9901 69.3713C38.9964 67.9073 38.1829 67.9115 37.2507 67.9163C37.1971 67.9163 37.1432 67.9169 37.089 67.9169V71.8385H35.0681V62.2971H38.7871C39.4767 62.2971 40.0047 62.5563 40.3547 62.9126C40.9701 63.5377 40.9701 64.3169 40.97 65.1073V65.1275C40.97 66.0913 40.2259 67.0881 39.3126 67.1083ZM37.0579 66.4171L37.8579 66.4278C38.7522 66.4278 39.0447 65.6417 38.943 64.7265C38.8979 64.3158 38.7419 63.9883 38.4035 63.8534C38.1479 63.7515 37.359 63.7467 37.0579 63.7873V66.4171Z" fill="#FF4B57"/>
<path fill-rule="evenodd" clip-rule="evenodd" d="M30.5396 70.3425H33.8147V71.8385H28.5183V62.2971H33.6125C33.7056 62.2971 33.7339 62.3249 33.7339 62.4187V63.6721C33.7339 63.7643 33.7056 63.7931 33.6125 63.7931H30.5396V66.0977H33.37C33.4627 66.0977 33.4911 66.1254 33.4911 66.2187V67.5931H30.5396V70.3425Z" fill="#FF4B57"/>
<path fill-rule="evenodd" clip-rule="evenodd" d="M27.1034 69.1296C27.1034 69.6864 27.0788 70.1162 26.8478 70.6128C26.6759 70.9824 26.5389 71.1424 26.2456 71.384C25.8284 71.7285 25.1247 71.9392 24.374 72H23.4612C22.7075 71.9376 22.0039 71.7184 21.5937 71.3242C20.95 70.7061 20.918 69.8266 20.918 68.8874H22.9393C22.9393 69.7584 23.0403 70.545 23.9096 70.545C24.328 70.545 24.7879 70.5514 24.9886 69.9653C25.7356 67.7856 21.039 67.8725 21.039 64.8437C21.039 64.0186 21.2885 63.2416 21.9046 62.7584C22.9147 61.9653 25.3123 61.9157 26.2025 62.672C27.0091 63.3568 26.9824 64.1082 26.9824 65.0464H25.0415C25.0296 64.4981 24.9406 63.5904 24.1926 63.5904C23.3857 63.5904 23.1014 63.9157 23.1014 64.6826C23.1014 66.273 27.1034 66.3744 27.1034 69.1296Z" fill="#FF4B57"/>
<path fill-rule="evenodd" clip-rule="evenodd" d="M65.5506 32.5476V34.2994C65.487 36.1526 65.2277 38.0122 64.8154 39.6894C64.4934 40.9968 64.1229 42.0253 63.6392 43.2434C63.5621 43.437 63.4866 43.6044 63.4095 43.7812C63.3262 43.9696 63.2433 44.1316 63.1658 44.3064C62.552 45.686 61.7319 47.0338 60.8614 48.2682C60.6415 48.58 60.4277 48.8615 60.1914 49.1753C59.5559 50.0176 58.7059 50.9283 57.9806 51.654L55.8936 53.5289C53.9945 55.0419 51.7545 56.372 49.4895 57.2721C46.6304 58.4085 43.5317 59.1031 40.3641 59.1031C36.8699 59.1031 34.6727 58.7019 31.6261 57.693C31.1621 57.5396 29.8944 57.0391 29.4074 56.7991C28.7099 56.4557 27.9974 56.1308 27.3282 55.7247C26.1898 55.0338 25.0878 54.3318 24.0618 53.4924L23.4185 52.9636C22.5094 52.2313 20.9237 50.5866 20.1323 49.579C19.407 48.6555 18.8064 47.8444 18.1857 46.836L17.6047 45.8403C17.0903 44.9546 16.2394 43.0649 15.9096 42.0775C15.6474 41.2922 15.3902 40.5144 15.1851 39.6894C14.5446 37.1105 14.4495 35.5023 14.4495 32.8643L14.4909 32.0163C14.4979 31.7304 14.5053 31.4588 14.5414 31.1773L14.7321 29.6299H20.1496V44.6695H25.4459V29.6299H31.1465V44.6695H36.0384V32.9853C36.1491 33.067 36.4655 33.5864 36.5721 33.7456L38.4614 36.5858C39.7073 38.5299 41.2675 40.8299 42.5713 42.7859C42.7387 43.037 42.9311 43.2951 43.071 43.5392C43.334 43.9975 43.7791 44.71 44.4068 44.71H48.7326V29.6299H54.3925V44.71H59.6885V29.6299H65.2675C65.2725 29.835 65.3397 30.1767 65.3717 30.4151C65.4661 31.1076 65.5248 31.8223 65.5506 32.5476Z" fill="#FF4B57"/>
<path fill-rule="evenodd" clip-rule="evenodd" d="M34.5021 25.87H15.6221C15.6963 25.5508 15.8416 25.2078 15.9507 24.905C16.9156 22.2195 18.3613 19.6734 20.1595 17.4695L21.3689 16.0919C21.7492 15.6152 22.2612 15.1947 22.6674 14.8029C23.4608 14.0394 24.5907 13.1233 25.5113 12.5124C27.778 11.0072 29.0047 10.3688 31.4637 9.44985C31.7817 9.33128 32.084 9.23939 32.4356 9.12739C33.0584 8.92882 33.8071 8.71672 34.4709 8.576C37.0973 8.01928 38.1058 8.00041 40.5923 8H40.9701C43.3759 8 47.2893 8.83323 49.5019 9.81826L50.8516 10.409C52.3585 11.0306 54.7872 12.6535 55.9967 13.6324C56.5616 14.089 58.0036 15.3617 58.5259 15.9549L59.5843 17.1606C59.6857 17.289 59.7739 17.3846 59.878 17.5139C60.7412 18.5805 61.2754 19.3658 61.9856 20.5411C62.5833 21.5311 63.266 22.9067 63.7025 23.9988C63.8493 24.3655 64.299 25.5282 64.3781 25.87H43.8407V35.4519C43.7172 35.3686 43.6717 35.2378 43.5823 35.104C43.4912 34.967 43.4309 34.8775 43.3398 34.7401L39.6122 29.0076C39.4469 28.7594 39.309 28.5317 39.1515 28.2958C38.8393 27.8289 38.5431 27.337 38.221 26.8808C37.9933 26.558 37.6442 26.169 37.2754 26.0074C36.6949 25.7526 35.2397 25.87 34.5021 25.87Z" fill="#FF4B57"/>
</svg>
