<svg width="80" height="80" viewBox="0 0 80 80" fill="none" xmlns="http://www.w3.org/2000/svg">
<path fill-rule="evenodd" clip-rule="evenodd" d="M66.7135 59.184V60.8575H60.3538V51.6337H62.2503V59.184H66.7135ZM55.8871 60.8575H57.7844V51.6337H55.8871V60.8575ZM53.7186 56.6549C54.0536 56.9525 54.2395 57.4731 54.2395 58.1425C54.2395 58.5892 54.1275 58.9981 53.9416 59.3699C53.756 59.7414 53.4581 60.0768 53.0863 60.3737C52.7891 60.5974 52.4169 60.7833 52.0447 60.8575C51.6729 60.9321 51.1894 61.0063 50.6317 61.0063C49.8503 61.0063 49.1812 60.8947 48.6606 60.6716C48.1025 60.4483 47.6936 60.1139 47.3582 59.7046C47.3582 59.6861 47.3491 59.677 47.34 59.6675C47.3309 59.6584 47.3215 59.649 47.3215 59.6304C47.3215 59.6115 47.3124 59.6024 47.3029 59.593C47.2938 59.5835 47.2847 59.5744 47.2847 59.5555C47.1352 59.3699 47.0613 59.1466 46.9868 58.8861C46.9122 58.626 46.8383 58.3655 46.8008 57.9566H48.6231C48.7348 58.5143 48.9578 58.9236 49.2929 59.1466C49.6276 59.3699 50.0736 59.482 50.6317 59.482C51.152 59.482 51.5616 59.3699 51.8588 59.184C52.1568 58.9981 52.3427 58.7377 52.3427 58.403C52.3427 58.217 52.2681 58.0679 52.1568 57.9566C52.0447 57.8081 51.8217 57.6961 51.5616 57.6219L48.7723 56.5432C48.2142 56.3569 47.8046 56.0597 47.4702 55.7246C47.1352 55.3903 46.9868 54.9068 46.9868 54.2745C46.9868 53.419 47.2847 52.7495 47.9166 52.2289C48.5489 51.7078 49.3671 51.4478 50.3712 51.4478C51.4874 51.4478 52.3427 51.7078 52.975 52.2289C53.6069 52.7495 53.9045 53.456 53.9791 54.4233H52.1193C52.0073 53.9397 51.8588 53.568 51.5616 53.3448C51.3015 53.1216 50.8922 53.01 50.3712 53.01C49.9248 53.01 49.5527 53.1216 49.2554 53.3074C48.9578 53.4933 48.8091 53.7538 48.8091 54.0511C48.8091 54.2003 48.8465 54.3116 48.9578 54.4604C49.0695 54.5717 49.218 54.6834 49.4413 54.758L52.3427 55.8367C52.9004 56.0597 53.3842 56.3569 53.7186 56.6549ZM40.1757 51.6337L36.903 60.8575H38.9113L39.5434 58.9236H42.8911L43.5235 60.8575H45.5317L42.2959 51.6337H40.1757ZM40.0639 57.3617L41.2172 53.7538L42.37 57.3617H40.0639ZM35.2817 58.9236V58.961C35.2817 59.3297 35.3185 59.6626 35.3552 59.9945L35.356 60.0022C35.3934 60.3373 35.5054 60.56 35.6912 60.7462H33.571C33.5337 60.6716 33.4967 60.5974 33.4967 60.5232C33.4803 60.4903 33.4711 60.4574 33.4628 60.428C33.4523 60.3902 33.4432 60.3576 33.4225 60.3373C33.4026 60.2778 33.3933 60.2081 33.3834 60.1332C33.3746 60.0674 33.3653 59.9973 33.3478 59.9273C33.3478 59.866 33.3414 59.7981 33.3339 59.7186C33.3233 59.6059 33.3105 59.4697 33.3105 59.2954V59.0724V58.8493C33.3105 58.2913 33.2362 57.8449 33.1246 57.5476C32.9761 57.2497 32.5297 57.1013 31.7856 57.1013H30.0379V60.7462H28.1408V51.6337H32.1946C32.7903 51.6337 33.2732 51.671 33.571 51.7453C33.8684 51.8199 34.1659 51.9311 34.4264 52.08C34.4451 52.08 34.4544 52.0893 34.4637 52.0986C34.473 52.1078 34.4822 52.1169 34.5006 52.1169C34.5193 52.1169 34.5286 52.1263 34.538 52.1356C34.5473 52.145 34.5566 52.1543 34.5753 52.1543C34.9101 52.3775 35.1328 52.6753 35.2817 53.047C35.4307 53.4191 35.5054 53.8281 35.5054 54.2745C35.5054 54.8326 35.3934 55.2415 35.2075 55.5387C34.9843 55.8367 34.6496 56.1339 34.2032 56.3944C34.3895 56.469 34.5379 56.5432 34.6496 56.6174C34.7263 56.6689 34.7855 56.7375 34.8392 56.7995C34.8636 56.8278 34.8869 56.8548 34.9101 56.8779C35.0959 57.1013 35.1702 57.3617 35.2075 57.6961C35.2448 58.0308 35.2817 58.3655 35.2817 58.7377V58.8119V58.8861V58.9236ZM31.8229 55.6504C32.4551 55.6504 32.9015 55.5762 33.162 55.3903C33.4225 55.2044 33.5337 54.9068 33.5337 54.4604C33.5337 54.014 33.4225 53.7165 33.162 53.5307C32.9388 53.3818 32.4551 53.2702 31.8229 53.2702H30.0005V55.6504H31.8229ZM25.029 55.9851C25.4007 55.7246 25.6981 55.4645 25.847 55.1673C26.0329 54.8693 26.1072 54.4975 26.1072 54.0515C26.1072 53.6419 26.0329 53.3075 25.8844 52.9727C25.7354 52.638 25.5123 52.3775 25.2148 52.1543C24.9543 51.9311 24.6196 51.8199 24.3221 51.7453C24.0243 51.671 23.541 51.6337 22.9088 51.6337H18.892V60.8575H22.7972C23.4667 60.8575 23.9869 60.7833 24.3595 60.7091C24.7685 60.6342 25.1028 60.4486 25.4007 60.2253C25.6981 59.9648 25.9586 59.6304 26.1445 59.2583C26.3303 58.8861 26.405 58.4772 26.405 58.0308C26.405 57.5476 26.2934 57.1013 26.0702 56.7666C25.847 56.4315 25.5123 56.171 25.029 55.9851ZM24.0989 58.9607C23.8384 59.1095 23.3548 59.184 22.6483 59.184H20.8255V56.8779H22.6856C23.3921 56.8779 23.8758 56.9525 24.1363 57.1013C24.3968 57.2497 24.508 57.5476 24.508 58.0308C24.508 58.4772 24.3595 58.7751 24.0989 58.9607ZM22.7224 53.3075H20.7889V55.2783H22.6855C23.2435 55.2783 23.6525 55.2044 23.8757 55.0924C24.0988 54.9439 24.1735 54.6834 24.1735 54.3116C24.1735 53.9397 24.0615 53.6792 23.8383 53.5307C23.6152 53.3817 23.2435 53.3075 22.7224 53.3075Z" fill="#CC0000"/>
<path fill-rule="evenodd" clip-rule="evenodd" d="M22.9346 45.0429H32.0574C33.3034 45.0429 34.318 44.0353 34.318 42.798V24.7438C34.32 24.2975 34.6892 23.9364 35.1442 23.9364H35.1459C35.4404 23.9364 35.714 24.0936 35.8589 24.341L47.166 43.9188C47.7885 44.9871 49.1742 45.3551 50.2514 44.7435C50.9485 44.3422 51.3844 43.598 51.3858 42.798V24.7418C51.3858 24.5293 51.4695 24.3307 51.6214 24.1789C51.7783 24.0222 51.9852 23.9364 52.2106 23.9364H52.212C52.5068 23.9364 52.7803 24.0936 52.9248 24.341L64.234 43.9188C64.8578 44.9871 66.2401 45.3588 67.3191 44.7414C68.0162 44.3422 68.4506 43.598 68.452 42.798V18.9937H72V42.798C71.9965 45.9734 69.3921 48.5441 66.1833 48.5404C64.103 48.5379 62.1827 47.4347 61.1488 45.6481L54.9334 34.8891V42.798C54.9296 45.9734 52.3258 48.5441 49.1167 48.5404C47.0364 48.5379 45.1161 47.4347 44.0822 45.6481L37.8671 34.8891V42.798C37.8671 45.9734 35.2657 48.5469 32.0567 48.5469H22.9334C14.686 48.5469 8 41.9311 8 33.7707C8 25.6095 14.686 18.9937 22.9334 18.9937H27.9114V22.512L27.911 22.5125V22.4968H22.9346C16.6576 22.4985 11.5507 27.557 11.5507 33.7723C11.5524 39.9849 16.6593 45.0413 22.9346 45.0429ZM27.911 23.9188L27.9114 23.9192V27.4376H22.9334C19.399 27.4392 16.535 30.2757 16.5366 33.7731C16.5383 37.2686 19.4015 40.1014 22.9334 40.103H28.5014C28.9613 40.103 29.3334 39.7346 29.3334 39.2796V24.7426C29.3375 21.5672 31.9414 18.9969 35.1504 19.0006C37.2308 19.0027 39.1508 20.1063 40.1851 21.8925L46.3999 32.6515V24.7426C46.4038 21.5672 49.0082 18.9969 52.2166 19.0006C54.2973 19.0027 56.2179 20.1063 57.2518 21.8925L63.4669 32.6515V18.9937H67.0159V42.796C67.0141 43.0823 66.8569 43.3506 66.6063 43.4954C66.2089 43.7182 65.7034 43.5873 65.4765 43.1988L54.1677 23.6193C53.7634 22.9293 53.0138 22.5001 52.2138 22.5001H52.2085C51.6043 22.5001 51.0339 22.7356 50.6068 23.1606C50.1835 23.5844 49.9496 24.1452 49.9496 24.7418V42.796C49.9479 43.0823 49.7911 43.3506 49.5379 43.4954C49.1441 43.7235 48.6336 43.5873 48.4085 43.1988L37.1015 23.6193C36.6975 22.9293 35.9475 22.5001 35.1475 22.5001H35.1426C33.8978 22.5001 32.8837 23.504 32.882 24.7418V42.798C32.882 43.244 32.512 43.6066 32.0574 43.6066H22.9346C17.4506 43.605 12.9887 39.1931 12.9866 33.7723C12.9866 28.3483 17.449 23.9348 22.9346 23.9332H27.911V23.9188Z" fill="#CC0000"/>
</svg>
