<svg width="80" height="80" viewBox="0 0 80 80" fill="none" xmlns="http://www.w3.org/2000/svg">
<path d="M66.3413 8H13.5042V60.8372H66.3413V8Z" fill="white"/>
<path d="M18.13 68.6988L19.8257 68.9425C19.6273 69.4519 19.2639 69.8807 18.7933 70.1591C18.2528 70.4545 17.6425 70.598 17.027 70.5751C15.911 70.5751 15.0834 70.2625 14.5444 69.6369C14.1088 69.1031 13.8827 68.4284 13.9085 67.7393C13.9085 66.8236 14.1872 66.1084 14.7445 65.5942C15.3207 65.0694 16.0794 64.7911 16.8582 64.8188C17.816 64.8188 18.5709 65.0892 19.1231 65.6295C19.6752 66.1697 19.9369 66.9996 19.9081 68.118H15.663C15.658 68.3057 15.692 68.4924 15.763 68.6657C15.8339 68.8396 15.9403 68.9964 16.0752 69.1271C16.3437 69.3687 16.6953 69.4972 17.0565 69.486C17.2951 69.4919 17.5297 69.4231 17.7277 69.2897C17.9226 69.142 18.0638 68.9345 18.13 68.6988ZM18.2262 67.2252C18.2328 67.047 18.2023 66.87 18.1368 66.7041C18.0712 66.5388 17.972 66.3884 17.8454 66.2636C17.6044 66.0439 17.2881 65.926 16.9623 65.9335C16.7932 65.9281 16.6246 65.9553 16.4663 66.0151C16.308 66.0748 16.1631 66.1649 16.0398 66.2812C15.9169 66.4044 15.8214 66.5521 15.7598 66.7148C15.6983 66.8774 15.6719 67.0513 15.6826 67.2252H18.2262Z" fill="#00A7E3"/>
<path d="M20.7656 68.8795L22.3357 68.6577C22.3866 68.9163 22.5322 69.1467 22.7439 69.3035C23.0002 69.4635 23.2999 69.5403 23.6016 69.5233C23.9209 69.5451 24.2395 69.4726 24.5181 69.3153C24.5815 69.2721 24.6328 69.2129 24.6671 69.1446C24.7015 69.0758 24.7177 68.9995 24.7144 68.9227C24.7158 68.8715 24.7065 68.8209 24.6873 68.7734C24.668 68.7265 24.6391 68.6833 24.6025 68.6481C24.444 68.5457 24.2653 68.4785 24.0785 68.4518C22.812 68.1899 22.0099 67.9531 21.6723 67.7414C21.4545 67.6166 21.2744 67.4358 21.1507 67.2177C21.0271 66.999 20.9646 66.7515 20.9697 66.5009C20.9691 66.2667 21.0239 66.0353 21.1296 65.8262C21.2354 65.6171 21.389 65.4363 21.5782 65.2977C21.9824 64.9734 22.6111 64.8113 23.4642 64.8113C24.2754 64.8113 24.8779 64.9334 25.2718 65.1782C25.6696 65.4273 25.9606 65.8155 26.0882 66.2673L24.6084 66.5222C24.5539 66.3195 24.4259 66.1435 24.2493 66.0299C24.0178 65.9025 23.7552 65.8433 23.4917 65.8593C23.1871 65.8369 22.8819 65.8923 22.6046 66.0198C22.5511 66.0486 22.5064 66.0907 22.4749 66.1425C22.4435 66.1947 22.4266 66.2539 22.426 66.3142C22.4275 66.3681 22.4428 66.4209 22.4703 66.4673C22.4977 66.5137 22.5365 66.5521 22.583 66.5793C22.7243 66.6763 23.2123 66.8129 24.0471 66.9894C24.8818 67.1659 25.4654 67.3819 25.7977 67.6374C25.9599 67.7659 26.0889 67.9318 26.1743 68.1206C26.2596 68.3094 26.2987 68.5158 26.2883 68.7227C26.2851 68.9777 26.2218 69.2283 26.1034 69.4545C25.9851 69.6806 25.8152 69.8758 25.6073 70.0235C25.1533 70.3873 24.4815 70.5686 23.5918 70.5675C22.7858 70.5675 22.1473 70.4155 21.6763 70.1121C21.2291 69.8294 20.9041 69.3899 20.7656 68.8795Z" fill="#00A7E3"/>
<path d="M27.0461 64.9424H28.4985V65.7509C28.6963 65.4677 28.9604 65.2363 29.2678 65.0779C29.5998 64.9035 29.9701 64.8144 30.3452 64.8187C30.6739 64.8133 31 64.8773 31.3021 65.0069C31.6041 65.1365 31.8754 65.3285 32.0978 65.5707C32.578 66.0704 32.8181 66.7691 32.8181 67.6667C32.8181 68.5824 32.5761 69.2976 32.092 69.8117C31.8689 70.0576 31.596 70.2528 31.2913 70.3845C30.9867 70.5163 30.6574 70.5813 30.3256 70.5749C30.0197 70.5803 29.7163 70.5184 29.4366 70.3947C29.122 70.2384 28.8377 70.0277 28.5966 69.7723V72H27.0461V64.9424ZM28.5966 67.6037C28.5966 68.2219 28.73 68.6795 28.9891 68.9776C29.106 69.1189 29.2526 69.2325 29.4186 69.3104C29.5844 69.3883 29.7655 69.4288 29.9488 69.4288C30.1211 69.432 30.2919 69.3973 30.4492 69.3269C30.6066 69.2571 30.7466 69.1531 30.8595 69.0229C31.1002 68.7504 31.2212 68.3051 31.2225 67.6864C31.2225 67.1093 31.0976 66.68 30.8477 66.3989C30.7338 66.2651 30.5916 66.1579 30.4315 66.0853C30.2714 66.0128 30.0971 65.976 29.9213 65.9787C29.7418 65.9744 29.5635 66.0091 29.3988 66.0805C29.234 66.152 29.0869 66.2587 28.9675 66.3931C28.7137 66.6613 28.5868 67.0645 28.5868 67.6037H28.5966Z" fill="#00A7E3"/>
<path d="M35.2342 66.6223L33.8113 66.385C33.9371 65.9061 34.2302 65.4885 34.6375 65.2074C35.0301 64.9525 35.6103 64.8245 36.3783 64.8245C37.079 64.8245 37.5991 64.9013 37.9484 65.0543C38.2444 65.1706 38.4969 65.3765 38.6707 65.6431C38.81 65.8805 38.8787 66.3141 38.8787 66.9482L38.863 68.6495C38.8535 69.0079 38.8786 69.3658 38.9376 69.7194C38.9988 69.9775 39.0939 70.2261 39.2202 70.4591H37.6678C37.6266 70.3631 37.5775 70.2197 37.5186 70.0293C37.4911 69.9429 37.4735 69.8863 37.4617 69.8565C37.2107 70.0895 36.9194 70.2741 36.6021 70.4021C36.2897 70.5253 35.9565 70.5866 35.6208 70.5829C35.0995 70.6127 34.5856 70.4485 34.1783 70.1215C33.9028 69.8751 33.723 69.5397 33.6707 69.1738C33.6182 68.8079 33.6965 68.4357 33.8918 68.1215C34.057 67.8735 34.2909 67.6794 34.5649 67.5626C34.9655 67.4005 35.3838 67.2869 35.8112 67.2229C36.329 67.1482 36.8393 67.0282 37.3361 66.8639V66.7183C37.3454 66.6101 37.3301 66.5007 37.2914 66.3989C37.2527 66.2965 37.1915 66.2047 37.1124 66.1295C36.9632 66.0101 36.6826 65.9514 36.2685 65.9514C36.041 65.9381 35.8147 65.9914 35.6169 66.1045C35.439 66.2335 35.3054 66.4143 35.2342 66.6223ZM37.3341 67.7999C37.1314 67.8629 36.8127 67.9375 36.3783 68.0234C36.0829 68.0655 35.7953 68.1509 35.5246 68.2767C35.4331 68.3285 35.3567 68.4026 35.3029 68.4933C35.2492 68.5834 35.2201 68.6858 35.2185 68.7909C35.2182 68.8917 35.24 68.9914 35.2824 69.0831C35.3248 69.1749 35.3867 69.2559 35.4638 69.321C35.6359 69.4719 35.8592 69.5509 36.0879 69.5429C36.3781 69.5402 36.6607 69.4501 36.8985 69.2837C37.074 69.1695 37.2055 68.9994 37.2714 68.801C37.3243 68.5679 37.3454 68.329 37.3341 68.0906V67.7999Z" fill="#00A7E3"/>
<path d="M45.8103 70.4518H44.2402V67.6411C44.2621 67.2529 44.2284 66.8635 44.1401 66.4854C44.0786 66.3179 43.9642 66.175 43.8143 66.079C43.6502 65.9787 43.4608 65.9286 43.2687 65.9339C43.0102 65.9297 42.7563 66.0022 42.5386 66.1419C42.3315 66.2678 42.1747 66.4619 42.0951 66.6913C41.9933 67.1051 41.9523 67.5313 41.9734 67.9569V70.4518H40.4033V64.9425H41.8615V65.751C42.0939 65.4545 42.3923 65.2155 42.7329 65.0534C43.0735 64.8918 43.4471 64.8113 43.8241 64.8187C44.1483 64.8145 44.4702 64.8731 44.772 64.9915C45.0227 65.0833 45.2466 65.2353 45.4236 65.4353C45.5699 65.6139 45.6745 65.823 45.7298 66.0475C45.7961 66.3702 45.8251 66.6993 45.8161 67.0289L45.8103 70.4518ZM41.8988 64.2006H41.1765C41.1765 64.1222 41.1765 64.0593 41.1765 64.0145C41.1665 63.8625 41.1865 63.7105 41.2353 63.567C41.2842 63.423 41.3609 63.2902 41.4611 63.1761C41.5561 63.0795 41.67 63.0038 41.7956 62.9537C41.9212 62.9035 42.056 62.8795 42.1912 62.8838C42.3134 62.8822 42.4353 62.8955 42.5543 62.9233C42.7632 62.983 42.9677 63.0571 43.1666 63.1446C43.3847 63.2491 43.6203 63.3115 43.8614 63.3291C43.9703 63.3334 44.0768 63.2961 44.1597 63.2251C44.2517 63.1323 44.3062 63.0086 44.3128 62.8779H45.0389C45.0389 63.3451 44.9447 63.6785 44.7563 63.879C44.6664 63.9777 44.5562 64.0555 44.4332 64.1078C44.3102 64.1601 44.1774 64.1851 44.0439 64.1809C43.9187 64.1803 43.7939 64.1681 43.671 64.1435C43.5847 64.1243 43.3707 64.0518 43.0292 63.9318C42.7906 63.8337 42.5385 63.7723 42.2815 63.7494C42.2305 63.7462 42.1794 63.7537 42.1314 63.7713C42.0835 63.7889 42.0397 63.8161 42.0028 63.8513C41.926 63.951 41.8889 64.0753 41.8988 64.2006Z" fill="#00A7E3"/>
<path d="M47.0389 67.6197C47.0436 67.1248 47.179 66.64 47.4314 66.2144C47.6823 65.7664 48.0627 65.4042 48.5226 65.176C49.0101 64.9338 49.5484 64.8117 50.0926 64.8186C50.906 64.7877 51.6988 65.0789 52.2986 65.6293C52.5775 65.8917 52.7975 66.2106 52.9441 66.5648C53.0906 66.9184 53.1602 67.2992 53.1484 67.6821C53.1578 68.0693 53.0851 68.4544 52.9353 68.8117C52.7854 69.1685 52.5618 69.4901 52.279 69.7546C51.6884 70.3072 50.9027 70.6021 50.0946 70.5749C49.5577 70.5765 49.027 70.4602 48.5402 70.2336C48.0698 70.025 47.6765 69.6746 47.4157 69.2309C47.1489 68.7365 47.0188 68.1808 47.0389 67.6197ZM48.6462 67.6981C48.6153 68.1546 48.7654 68.6053 49.0643 68.952C49.1983 69.0901 49.3587 69.1994 49.5358 69.2741C49.713 69.3493 49.9033 69.3877 50.0956 69.3877C50.2879 69.3877 50.4782 69.3493 50.6554 69.2741C50.8325 69.1994 50.9929 69.0901 51.1269 68.952C51.4043 68.6618 51.543 68.2394 51.543 67.6864C51.5727 67.233 51.4233 66.7861 51.1269 66.4421C50.9929 66.304 50.8325 66.1946 50.6554 66.1194C50.4782 66.0448 50.2879 66.0064 50.0956 66.0064C49.9033 66.0064 49.713 66.0448 49.5358 66.1194C49.3587 66.1946 49.1983 66.304 49.0643 66.4421C48.7855 66.7322 48.6462 67.1509 48.6462 67.6981Z" fill="#00A7E3"/>
<path d="M54.3828 70.4518V62.8464H55.9529V70.4518H54.3828Z" fill="#00A7E3"/>
<path d="M66.4942 60.9898V58.3992C63.8407 59.3805 61.3267 60.2401 58.9441 60.9898H66.4942Z" fill="#00A7E3"/>
<path d="M38.5568 42.3886C39.7618 43.2011 43.0707 43.1835 46.6034 42.3455C50.9878 41.3033 54.336 39.3643 54.0612 38.0101C53.9955 37.7636 53.8364 37.5524 53.6177 37.4213C52.4028 36.6068 49.1037 36.6245 45.571 37.4645C42.0384 38.3044 39.0455 39.7764 38.28 41.056C38.132 41.2701 38.0722 41.533 38.1132 41.79C38.1787 42.0377 38.3396 42.2493 38.5607 42.3788" fill="#00A7E3"/>
<path d="M35.3398 19.2791L36.013 16.7512L36.7156 19.2791H35.3398Z" fill="#00A7E3"/>
<path d="M29.4482 17.6638H28.1843V16.2429H29.4404C29.8741 16.2429 30.09 16.4804 30.09 16.9515C30.09 17.4224 29.8741 17.656 29.4404 17.656L29.4482 17.6638Z" fill="#00A7E3"/>
<path d="M32.4822 30.6698H35.426V27.1018L32.4822 30.6698Z" fill="#00A7E3"/>
<path fill-rule="evenodd" clip-rule="evenodd" d="M49.3626 55.4711C38.6684 58.0087 28.7554 57.8792 24.6909 55.1492C23.7096 54.4799 23.0993 53.6773 22.9049 52.7529C22.5968 51.2908 23.3623 49.5951 25.1207 47.8464C25.1331 47.8379 25.1479 47.8333 25.1629 47.8333C25.178 47.8333 25.1927 47.8379 25.2051 47.8464C25.2161 47.8589 25.2229 47.8745 25.2247 47.891C25.2264 47.9075 25.223 47.9242 25.2149 47.9387C24.3455 49.0828 24.0099 50.1583 24.216 51.1259C24.3788 51.9109 24.8989 52.6018 25.7585 53.1748C29.4875 55.687 38.798 55.7596 48.9171 53.3711C56.0413 51.6715 62.4236 49.0299 66.4901 46.1095V8H13.5042V60.9899H18.3792C18.013 60.489 17.7562 59.9165 17.6256 59.3099C17.563 59.0097 17.5314 58.7039 17.5314 58.3973C17.5314 57.0883 18.0927 55.687 19.2035 54.2189C19.2141 54.2089 19.2281 54.2033 19.2427 54.2033C19.2573 54.2033 19.2714 54.2089 19.282 54.2189L19.3036 54.2994C18.6795 55.4495 18.4715 56.5348 18.6795 57.5298C18.9817 58.9605 20.122 60.1185 21.9178 60.9918H49.4195C49.5424 60.9643 49.6651 60.9374 49.7879 60.9106C50.0238 60.8589 50.2601 60.8072 50.4989 60.7505C56.3278 59.3629 61.8368 57.4454 66.496 55.1865V48.7218C62.1233 51.4851 56.0688 53.8834 49.3665 55.4711H49.3626ZM45.4767 37.0463C50.8247 35.7765 55.4859 36.2102 55.8784 38.0276C55.9403 38.4155 55.8511 38.8124 55.6291 39.1365C54.6321 40.7988 51.1152 42.5886 46.8623 43.6053C41.5122 44.8672 36.8531 44.4374 36.4704 42.6357C36.0876 40.8341 40.1247 38.3181 45.4826 37.0561L45.4767 37.0463ZM32.449 42.4414C32.455 42.437 32.4618 42.4338 32.4691 42.4321C32.4763 42.4304 32.4839 42.4302 32.4912 42.4315C32.4986 42.4327 32.5056 42.4355 32.5118 42.4396C32.518 42.4437 32.5234 42.449 32.5275 42.4552C32.538 42.4668 32.5438 42.4818 32.5438 42.4974C32.5438 42.513 32.538 42.5281 32.5275 42.5396C31.1537 43.7171 30.5276 44.8339 30.7259 45.7719C30.8279 46.2705 31.1616 46.7101 31.7072 47.079C34.1702 48.7374 40.7096 48.7551 47.6041 47.1163C56.3121 45.0419 62.926 41.0814 62.3235 38.267C62.1175 37.3329 61.1067 36.5988 59.3934 36.1651C59.3768 36.1597 59.3629 36.1481 59.3545 36.1328C59.3461 36.1175 59.3439 36.0996 59.3482 36.0827C59.3533 36.0682 59.3629 36.0558 59.3757 36.0473C59.3884 36.0388 59.4036 36.0347 59.4189 36.0356C62.2293 36.4929 63.8799 37.4663 64.1703 38.8558C64.3057 39.474 64.1507 40.1531 63.7228 40.8655C61.931 43.8643 55.5977 47.0987 47.9652 48.9121C40.3327 50.7255 33.3106 50.6627 30.4786 48.759C29.8054 48.3018 29.4011 47.766 29.2696 47.1359C28.9811 45.7425 30.0723 44.1214 32.4392 42.4414H32.449ZM34.9258 14.6297L32.5412 21.6812H34.6805L34.9258 20.7569H37.0847L37.3457 21.691H39.5163L37.1416 14.6297H34.9258ZM20.124 21.6812H22.3103V19.2967H24.6909V17.6442H22.3103V16.2703H25.3111V14.6198H20.124V21.6812ZM59.8683 16.2665V14.6198H54.3731V21.6852H59.8683V20.0386H56.5614V18.9709H59.309V17.3302H56.5614V16.2665H59.8683ZM32.029 17.0083C32.029 15.4735 31.1537 14.6297 29.566 14.6297H26.1668V21.6812H28.1843V19.2829H28.883C28.9753 19.4694 30.0605 21.6812 30.0605 21.6812H32.2292C32.2292 21.6812 31.0007 19.2476 30.8142 18.9061C31.1824 18.7463 31.4945 18.4804 31.7109 18.1424C31.9273 17.8044 32.038 17.4095 32.029 17.0083ZM50.3655 20.0895C49.4156 20.0895 49.0996 19.1083 49.0996 18.1545C49.0996 17.2006 49.4156 16.2154 50.3655 16.2154C51.2133 16.2154 51.4017 17.0005 51.4429 17.2556H53.4369C53.2603 15.4893 52.2594 14.4668 50.4244 14.4628C48.3735 14.4628 47.0448 15.9328 47.0448 18.1545C47.0448 20.2427 48.2675 21.8481 50.4244 21.8481C50.818 21.8609 51.2102 21.7947 51.5778 21.6532C51.9453 21.5118 52.2808 21.2981 52.5642 21.0246C52.8477 20.7513 53.0735 20.4237 53.2281 20.0615C53.3827 19.6993 53.4631 19.3098 53.4644 18.9159H51.4469C51.3232 19.5773 51.0544 20.0935 50.3655 20.0935V20.0895ZM44.1205 18.4018H44.1009L42.1619 14.6355H40.0639V21.6812H42.0088V17.8267H42.0245L44.0715 21.6812H46.0674V14.6297H44.1205V18.4018ZM39.0216 23.5653V30.6699H40.6447V33.7806H39.0177V36.3182H35.4261V33.7806H30.3038V36.3182H19.8805C19.8065 35.1998 20.1106 34.089 20.7441 33.1643C21.626 31.8645 23.0474 30.9637 24.4214 30.0929C24.6221 29.9657 24.8217 29.8392 25.0186 29.7121C25.0916 29.6643 25.1703 29.6149 25.2521 29.5636C25.8581 29.1836 26.6396 28.6936 26.6396 27.8653C26.6396 26.7153 25.994 26.311 25.1913 26.311C23.8037 26.311 23.3347 27.3747 23.3739 28.933H20.1219C19.9375 25.4298 21.9923 23.4201 25.2247 23.4201C28.1469 23.4201 30.1311 24.7173 30.1311 27.4257C30.1311 30.1078 28.1058 31.2795 26.1262 32.4247C25.6954 32.6739 25.2667 32.9219 24.8616 33.1839V33.2036H30.0879V30.346L35.5832 23.5653H39.0216Z" fill="#00A7E3"/>
</svg>
