<svg width="80" height="80" viewBox="0 0 80 80" fill="none" xmlns="http://www.w3.org/2000/svg">
<path d="M14.3242 23.9492H8V41.2093C8 45.6306 11.9632 47.5011 13.5653 47.5011H22.8407V41.2093H15.1674C14.2904 41.1412 14.268 40.3874 14.3242 40.0189V23.9492Z" fill="black"/>
<path d="M25.5398 23.9492H31.611V42.1445H25.5398V23.9492Z" fill="#FCD800"/>
<path d="M25.5398 42.9949H31.611V47.4162H25.5398V42.9949Z" fill="#FCD800"/>
<path d="M34.3079 23.9492H40.2104V47.4161H34.3079V23.9492Z" fill="black"/>
<path d="M53.7021 23.9492H47.1251L45.2701 30.6662C44.9329 32.0266 44.3707 32.4801 44.0051 32.5367H41.2227V38.5735H43.6679C44.6798 38.5735 44.7642 39.0836 44.9329 39.3387L47.4625 47.331H53.7021L50.5825 37.3831C50.3294 36.3629 49.6266 35.796 49.1488 35.5976C50.0259 35.2575 50.7509 33.8121 51.004 33.1319L53.7021 23.9492Z" fill="black"/>
<path d="M61.4598 24.0342L71.9999 23.9492V30.071H62.556C61.1226 29.986 61.5442 31.4314 61.4598 32.6218H71.8315V38.7435H61.4598C61.4598 40.6141 61.4598 41.2943 62.0501 41.2943H71.8315V47.5011H61.4598C57.0749 47.5011 55.3887 43.76 55.3887 41.2943V30.3261C55.3887 25.5647 59.6889 24.2043 61.4598 24.0342Z" fill="black"/>
<path d="M9.33683 51.9832H9.59192L10.8674 55.0785H10.5474L10.1497 54.1107H8.77045L8.377 55.0785H8.05273L9.33683 51.9832ZM10.0805 53.871L9.46222 52.3408L8.8353 53.871H10.0805Z" fill="black"/>
<path d="M13.1175 55.1091C12.9618 55.1091 12.8191 55.077 12.6894 55.013C12.5626 54.9491 12.4516 54.8635 12.3565 54.7559C12.2643 54.6455 12.1922 54.5205 12.1403 54.3809C12.0884 54.2415 12.0625 54.0976 12.0625 53.9494C12.0625 53.7373 12.1072 53.5425 12.1966 53.3652C12.2859 53.1851 12.4084 53.0412 12.5641 52.9337C12.7226 52.8232 12.9042 52.7681 13.1088 52.7681C13.3019 52.7681 13.4691 52.8173 13.6103 52.9163C13.7545 53.015 13.8755 53.137 13.9735 53.2825V52.8071H14.2373V55.0874C14.2373 55.2995 14.1868 55.4766 14.0859 55.6192C13.9851 55.7615 13.851 55.8691 13.6839 55.9418C13.5167 56.0143 13.3336 56.0507 13.1348 56.0507C12.8754 56.0507 12.6664 56.0042 12.5078 55.9113C12.3522 55.8182 12.2239 55.6933 12.123 55.5363L12.3046 55.3924C12.394 55.5349 12.5122 55.6409 12.6592 55.7107C12.8091 55.7805 12.9676 55.8153 13.1348 55.8153C13.2818 55.8153 13.4158 55.7877 13.5369 55.7324C13.6608 55.6802 13.7588 55.6002 13.8309 55.4927C13.9058 55.3851 13.9433 55.25 13.9433 55.0874V54.6382C13.8568 54.7806 13.7386 54.8953 13.5887 54.9825C13.4389 55.0668 13.2818 55.1091 13.1175 55.1091ZM13.1996 54.8605C13.3178 54.8605 13.4302 54.833 13.5369 54.7776C13.6435 54.7225 13.7329 54.6527 13.8049 54.5684C13.8798 54.4812 13.926 54.3911 13.9433 54.2982V53.5963C13.9 53.4858 13.8381 53.3884 13.7573 53.3042C13.6766 53.217 13.5844 53.1501 13.4806 53.1035C13.3769 53.0543 13.2717 53.0294 13.165 53.0294C12.9978 53.0294 12.8537 53.076 12.7327 53.1691C12.6145 53.2592 12.5222 53.3753 12.456 53.5179C12.3925 53.6573 12.3608 53.8025 12.3608 53.9537C12.3608 54.1166 12.3983 54.2677 12.4732 54.4071C12.5482 54.5438 12.6491 54.6543 12.7759 54.7386C12.9027 54.8199 13.044 54.8605 13.1996 54.8605Z" fill="black"/>
<path d="M15.8594 55.1222C15.6432 55.1222 15.4501 55.0684 15.28 54.9609C15.11 54.8533 14.976 54.7094 14.878 54.5294C14.78 54.3491 14.731 54.1514 14.731 53.9363C14.731 53.7242 14.7785 53.5294 14.8736 53.352C14.9716 53.175 15.1057 53.034 15.2757 52.9294C15.4458 52.8218 15.6389 52.7681 15.8551 52.7681C16.077 52.7681 16.2716 52.8218 16.4388 52.9294C16.6059 53.0369 16.7356 53.1792 16.8279 53.3566C16.923 53.531 16.9705 53.7228 16.9705 53.932C16.9705 53.9786 16.9691 54.0176 16.9662 54.0497H15.0379C15.0523 54.2124 15.0985 54.3579 15.1763 54.4858C15.2541 54.6107 15.3535 54.711 15.4746 54.7864C15.5957 54.8592 15.7282 54.8953 15.8724 54.8953C16.0194 54.8953 16.1577 54.8576 16.2874 54.7822C16.4171 54.7065 16.5094 54.6077 16.5641 54.4858L16.8192 54.5553C16.7731 54.6658 16.7011 54.7648 16.6031 54.8517C16.5079 54.9362 16.397 55.0029 16.2701 55.0523C16.1433 55.0989 16.0064 55.1222 15.8594 55.1222ZM15.0293 53.836H16.6938C16.6823 53.6733 16.6376 53.5294 16.5598 53.4045C16.482 53.2766 16.3826 53.1779 16.2615 53.1081C16.1404 53.0353 16.0064 52.9989 15.8594 52.9989C15.7124 52.9989 15.5784 53.0353 15.4573 53.1081C15.3362 53.1779 15.2368 53.2766 15.159 53.4045C15.084 53.5294 15.0408 53.6733 15.0293 53.836Z" fill="black"/>
<path d="M19.3178 55.0786H19.0238V53.81C19.0238 53.5425 18.9834 53.3478 18.9027 53.2258C18.8249 53.1009 18.7038 53.0383 18.5396 53.0383C18.4243 53.0383 18.3104 53.0674 18.198 53.1255C18.0856 53.1806 17.9861 53.2576 17.8997 53.3566C17.8161 53.4524 17.7555 53.5628 17.7181 53.6878V55.0786H17.4241V52.8071H17.6921V53.3215C17.7815 53.156 17.9126 53.0222 18.0856 52.9205C18.2585 52.8189 18.4459 52.7681 18.6476 52.7681C18.8148 52.7681 18.9474 52.8087 19.0454 52.8901C19.1434 52.9684 19.2126 53.0819 19.2529 53.2301C19.2962 53.3753 19.3178 53.5484 19.3178 53.7488V55.0786Z" fill="black"/>
<path d="M21.0044 54.9696C20.9698 54.984 20.9064 55.0102 20.8141 55.048C20.7219 55.0857 20.6152 55.1047 20.4942 55.1047C20.3673 55.1047 20.2564 55.0683 20.1613 54.9955C20.0661 54.923 20.0186 54.8139 20.0186 54.6686V53.0424H19.7073V52.807H20.0186V52.0398H20.3126V52.807H20.8314V53.0424H20.3126V54.5857C20.3183 54.67 20.3472 54.7326 20.399 54.7732C20.4538 54.8109 20.5158 54.8299 20.585 54.8299C20.6657 54.8299 20.7377 54.8168 20.8011 54.7906C20.8674 54.7617 20.9092 54.7414 20.9265 54.7296L21.0044 54.9696Z" fill="black"/>
<path d="M22.3064 55.1222C22.0902 55.1222 21.8971 55.0684 21.7271 54.9609C21.557 54.8533 21.423 54.7094 21.325 54.5294C21.227 54.3491 21.178 54.1514 21.178 53.9363C21.178 53.7242 21.2255 53.5294 21.3207 53.352C21.4187 53.175 21.5527 53.034 21.7227 52.9294C21.8928 52.8218 22.0859 52.7681 22.3021 52.7681C22.524 52.7681 22.7186 52.8218 22.8858 52.9294C23.053 53.0369 23.1827 53.1792 23.2749 53.3566C23.37 53.531 23.4176 53.7228 23.4176 53.932C23.4176 53.9786 23.4161 54.0176 23.4132 54.0497H21.4849C21.4994 54.2124 21.5455 54.3579 21.6233 54.4858C21.7011 54.6107 21.8006 54.711 21.9216 54.7864C22.0427 54.8592 22.1753 54.8953 22.3194 54.8953C22.4664 54.8953 22.6047 54.8576 22.7344 54.7822C22.8641 54.7065 22.9564 54.6077 23.0112 54.4858L23.2662 54.5553C23.2201 54.6658 23.1481 54.7648 23.0501 54.8517C22.955 54.9362 22.844 55.0029 22.7171 55.0523C22.5903 55.0989 22.4534 55.1222 22.3064 55.1222ZM21.4763 53.836H23.1409C23.1293 53.6733 23.0847 53.5294 23.0068 53.4045C22.929 53.2766 22.8296 53.1779 22.7085 53.1081C22.5874 53.0353 22.4534 52.9989 22.3064 52.9989C22.1594 52.9989 22.0254 53.0353 21.9043 53.1081C21.7833 53.1779 21.6838 53.2766 21.606 53.4045C21.5311 53.5294 21.4878 53.6733 21.4763 53.836Z" fill="black"/>
<path d="M26.0975 53.0687C25.9015 53.0746 25.7286 53.1297 25.5787 53.2343C25.4317 53.3389 25.3279 53.4828 25.2674 53.666V55.0785H24.9734V52.8071H25.2501V53.352C25.3279 53.1923 25.4302 53.0628 25.5571 52.9641C25.6868 52.8654 25.8237 52.81 25.9678 52.7985C25.9966 52.7956 26.0211 52.7939 26.0413 52.7939C26.0615 52.7939 26.0802 52.7956 26.0975 52.7985V53.0687Z" fill="black"/>
<path d="M27.3946 55.1222C27.1784 55.1222 26.9853 55.0684 26.8152 54.9609C26.6451 54.8533 26.5111 54.7094 26.4131 54.5294C26.3151 54.3491 26.2661 54.1514 26.2661 53.9363C26.2661 53.7242 26.3137 53.5294 26.4088 53.352C26.5068 53.175 26.6408 53.034 26.8109 52.9294C26.9809 52.8218 27.1741 52.7681 27.3902 52.7681C27.6122 52.7681 27.8067 52.8218 27.9739 52.9294C28.1411 53.0369 28.2708 53.1792 28.363 53.3566C28.4582 53.531 28.5057 53.7228 28.5057 53.932C28.5057 53.9786 28.5043 54.0176 28.5014 54.0497H26.5731C26.5875 54.2124 26.6336 54.3579 26.7114 54.4858C26.7893 54.6107 26.8887 54.711 27.0098 54.7864C27.1308 54.8592 27.2634 54.8953 27.4075 54.8953C27.5545 54.8953 27.6929 54.8576 27.8226 54.7822C27.9523 54.7065 28.0445 54.6077 28.0993 54.4858L28.3544 54.5553C28.3083 54.6658 28.2362 54.7648 28.1382 54.8517C28.0431 54.9362 27.9321 55.0029 27.8053 55.0523C27.6785 55.0989 27.5415 55.1222 27.3946 55.1222ZM26.5644 53.836H28.229C28.2175 53.6733 28.1728 53.5294 28.095 53.4045C28.0172 53.2766 27.9177 53.1779 27.7967 53.1081C27.6756 53.0353 27.5415 52.9989 27.3946 52.9989C27.2476 52.9989 27.1135 53.0353 26.9925 53.1081C26.8714 53.1779 26.772 53.2766 26.6942 53.4045C26.6192 53.5294 26.576 53.6733 26.5644 53.836Z" fill="black"/>
<path d="M29.9362 55.1222C29.7172 55.1222 29.5226 55.0684 29.3526 54.9609C29.1825 54.8504 29.0485 54.7065 28.9505 54.5294C28.8525 54.3491 28.8035 54.1514 28.8035 53.9363C28.8035 53.7212 28.851 53.5265 28.9461 53.352C29.0413 53.175 29.1739 53.034 29.3439 52.9294C29.514 52.8218 29.71 52.7681 29.9319 52.7681C30.1423 52.7681 30.3268 52.8173 30.4853 52.9163C30.6467 53.012 30.7678 53.1429 30.8485 53.3084L30.5632 53.4002C30.4997 53.2838 30.4104 53.1937 30.2951 53.1297C30.1827 53.0629 30.0573 53.0294 29.9189 53.0294C29.7662 53.0294 29.6278 53.0688 29.5039 53.1471C29.3828 53.2258 29.2848 53.3347 29.2099 53.4743C29.1378 53.6107 29.1018 53.7648 29.1018 53.9363C29.1018 54.1078 29.1393 54.2632 29.2142 54.4028C29.2892 54.5422 29.3886 54.6543 29.5125 54.7386C29.6365 54.8199 29.7734 54.8605 29.9233 54.8605C30.0213 54.8605 30.1164 54.8432 30.2086 54.8084C30.3009 54.7733 30.3801 54.7268 30.4464 54.6687C30.5127 54.6077 30.5574 54.5422 30.5804 54.4727L30.8701 54.5599C30.8298 54.6674 30.7635 54.7648 30.6713 54.8517C30.579 54.9362 30.4695 55.0029 30.3427 55.0523C30.2158 55.0989 30.0804 55.1222 29.9362 55.1222Z" fill="black"/>
<path d="M32.271 55.1222C32.0548 55.1222 31.8617 55.0684 31.6916 54.9609C31.5245 54.8533 31.3933 54.711 31.2982 54.5336C31.2031 54.3533 31.1555 54.1586 31.1555 53.9494C31.1555 53.7373 31.2031 53.5425 31.2982 53.3652C31.3962 53.1851 31.5288 53.0412 31.696 52.9337C31.866 52.8232 32.0577 52.7681 32.271 52.7681C32.4872 52.7681 32.6788 52.8232 32.846 52.9337C33.0161 53.0412 33.1487 53.1851 33.2438 53.3652C33.3418 53.5425 33.3908 53.7373 33.3908 53.9494C33.3908 54.1586 33.3432 54.3533 33.2481 54.5336C33.153 54.711 33.0204 54.8533 32.8504 54.9609C32.6832 55.0684 32.4901 55.1222 32.271 55.1222ZM31.4538 53.9537C31.4538 54.1222 31.4899 54.2763 31.5619 54.4159C31.6369 54.5524 31.7363 54.6615 31.8603 54.7428C31.9842 54.8212 32.1211 54.8605 32.271 54.8605C32.4209 54.8605 32.5578 54.8199 32.6817 54.7386C32.8057 54.6572 32.9051 54.5468 32.9801 54.4071C33.055 54.2677 33.0925 54.1137 33.0925 53.9451C33.0925 53.7766 33.055 53.6225 32.9801 53.4829C32.9051 53.3435 32.8057 53.233 32.6817 53.1517C32.5578 53.0704 32.4209 53.0294 32.271 53.0294C32.124 53.0294 31.9885 53.0717 31.8646 53.156C31.7406 53.2373 31.6412 53.3478 31.5663 53.4874C31.4913 53.6268 31.4538 53.7822 31.4538 53.9537Z" fill="black"/>
<path d="M37.233 55.0786H36.9391V53.81C36.9391 53.5484 36.8974 53.355 36.8136 53.2301C36.73 53.1022 36.6061 53.0383 36.4419 53.0383C36.2689 53.0383 36.1161 53.0992 35.9837 53.2212C35.8511 53.3435 35.7574 53.5002 35.7025 53.6923V55.0786H35.4085V53.81C35.4085 53.5425 35.3666 53.3478 35.2831 53.2258C35.2024 53.1009 35.0798 53.0383 34.9156 53.0383C34.7456 53.0383 34.5927 53.0979 34.4574 53.217C34.3248 53.3363 34.2311 53.493 34.1763 53.6878V55.0786H33.8823V52.8071H34.1504V53.3215C34.2426 53.1471 34.3637 53.012 34.5137 52.9163C34.6636 52.8173 34.8291 52.7681 35.0109 52.7681C35.1982 52.7681 35.3494 52.8232 35.4648 52.9337C35.5799 53.0412 35.6508 53.1806 35.6765 53.352C35.8842 52.9628 36.1739 52.7681 36.5456 52.7681C36.7992 52.7681 36.9765 52.858 37.0775 53.0383C37.1813 53.2156 37.233 53.4524 37.233 53.7488V55.0786Z" fill="black"/>
<path d="M38.8281 55.1222C38.6118 55.1222 38.4187 55.0684 38.2486 54.9609C38.0786 54.8533 37.9446 54.7094 37.8467 54.5294C37.7485 54.3491 37.6995 54.1514 37.6995 53.9363C37.6995 53.7242 37.7472 53.5294 37.8422 53.352C37.9404 53.175 38.0743 53.034 38.2444 52.9294C38.4144 52.8218 38.6076 52.7681 38.8238 52.7681C39.0456 52.7681 39.2403 52.8218 39.4075 52.9294C39.5746 53.0369 39.7043 53.1792 39.7964 53.3566C39.8916 53.531 39.9391 53.7228 39.9391 53.932C39.9391 53.9786 39.9378 54.0176 39.9349 54.0497H38.0067C38.021 54.2124 38.0672 54.3579 38.1449 54.4858C38.2226 54.6107 38.3221 54.711 38.4431 54.7864C38.5643 54.8592 38.697 54.8953 38.8411 54.8953C38.988 54.8953 39.1263 54.8576 39.256 54.7822C39.3857 54.7065 39.478 54.6077 39.5327 54.4858L39.7879 54.5553C39.7417 54.6658 39.6696 54.7648 39.5717 54.8517C39.4764 54.9362 39.3656 55.0029 39.2387 55.0523C39.1119 55.0989 38.975 55.1222 38.8281 55.1222ZM37.9979 53.836H39.6624C39.651 53.6733 39.6062 53.5294 39.5284 53.4045C39.4507 53.2766 39.3512 53.1779 39.2302 53.1081C39.109 53.0353 38.975 52.9989 38.8281 52.9989C38.6811 52.9989 38.5471 53.0353 38.4259 53.1081C38.3049 53.1779 38.2054 53.2766 38.1277 53.4045C38.0526 53.5294 38.0093 53.6733 37.9979 53.836Z" fill="black"/>
<path d="M42.2865 55.0786H41.9926V53.81C41.9926 53.5425 41.9523 53.3478 41.8713 53.2258C41.7936 53.1009 41.6726 53.0383 41.5084 53.0383C41.393 53.0383 41.2792 53.0674 41.1667 53.1255C41.0542 53.1806 40.955 53.2576 40.8685 53.3566C40.7849 53.4524 40.7242 53.5628 40.6868 53.6878V55.0786H40.3928V52.8071H40.6608V53.3215C40.7502 53.156 40.8815 53.0222 41.0542 52.9205C41.2272 52.8189 41.4145 52.7681 41.6164 52.7681C41.7835 52.7681 41.9162 52.8087 42.0141 52.8901C42.1122 52.9684 42.1812 53.0819 42.2218 53.2301C42.2648 53.3753 42.2865 53.5484 42.2865 53.7488V55.0786Z" fill="black"/>
<path d="M42.7625 53.9494C42.7625 53.7343 42.8057 53.5382 42.8922 53.3609C42.9813 53.1806 43.1039 53.0369 43.2596 52.9294C43.4154 52.8219 43.5926 52.7681 43.7913 52.7681C43.9789 52.7681 44.146 52.8189 44.293 52.9206C44.4429 53.0193 44.5596 53.1399 44.6432 53.2825V51.896H44.9371V54.7212C44.9371 54.7996 44.9716 54.8402 45.0409 54.8432V55.0786C44.9833 55.0874 44.9384 55.0901 44.9069 55.0874C44.8435 55.0845 44.7888 55.0612 44.7427 55.0176C44.6994 54.971 44.6777 54.9186 44.6777 54.8606V54.6383C44.5883 54.7865 44.4673 54.9042 44.3145 54.9914C44.1616 55.0786 44.0033 55.1222 43.839 55.1222C43.6833 55.1222 43.5393 55.0901 43.4066 55.0261C43.2739 54.9622 43.1588 54.875 43.0606 54.7648C42.9657 54.6543 42.8922 54.5294 42.8402 54.3897C42.7885 54.2474 42.7625 54.1006 42.7625 53.9494ZM44.6432 54.2982V53.5963C44.6058 53.4917 44.545 53.3973 44.4614 53.313C44.3779 53.2258 44.2829 53.1573 44.1762 53.1081C44.0725 53.0557 43.9688 53.0294 43.8648 53.0294C43.7035 53.0294 43.5623 53.0747 43.4411 53.1648C43.323 53.252 43.2307 53.3668 43.1644 53.5091C43.0981 53.6487 43.0652 53.7953 43.0652 53.9494C43.0652 54.1121 43.101 54.2632 43.1731 54.4028C43.2479 54.5422 43.349 54.6543 43.4758 54.7386C43.6027 54.8199 43.7454 54.8606 43.9038 54.8606C44.0019 54.8606 44.1041 54.8359 44.2107 54.7865C44.3203 54.734 44.4155 54.6658 44.4962 54.5815C44.5798 54.4973 44.6288 54.4028 44.6432 54.2982Z" fill="black"/>
<path d="M45.4216 54.4245C45.4216 54.2851 45.4622 54.1645 45.5429 54.0628C45.6235 53.9582 45.7344 53.8766 45.8758 53.8186C46.0199 53.7605 46.1857 53.7314 46.373 53.7314C46.4826 53.7314 46.5964 53.7415 46.7144 53.7619C46.8328 53.7793 46.9378 53.8041 47.0302 53.836V53.6442C47.0302 53.4524 46.9739 53.2999 46.8614 53.1865C46.7492 53.073 46.5935 53.0166 46.3945 53.0166C46.2764 53.0166 46.1581 53.0396 46.04 53.0861C45.9217 53.1297 45.7994 53.1953 45.6726 53.2825L45.5601 53.073C45.7071 52.9714 45.8512 52.8959 45.9926 52.8464C46.1337 52.794 46.2778 52.7681 46.4247 52.7681C46.7014 52.7681 46.9206 52.8478 47.0819 53.0078C47.2435 53.1675 47.3241 53.3884 47.3241 53.6704V54.7212C47.3241 54.7996 47.3602 54.8402 47.4321 54.8432V55.0786C47.3687 55.0874 47.3241 55.0901 47.2981 55.0874C47.2262 55.0845 47.1713 55.0612 47.1339 55.0176C47.0965 54.974 47.0763 54.9274 47.0734 54.8779L47.0692 54.7123C46.9681 54.8432 46.837 54.9448 46.6757 55.0176C46.5141 55.0874 46.3499 55.1222 46.1828 55.1222C46.0358 55.1222 45.9045 55.0917 45.7893 55.0307C45.6739 54.9667 45.5832 54.8825 45.5169 54.7776C45.4535 54.6701 45.4216 54.5524 45.4216 54.4245ZM46.9307 54.5989C46.997 54.5205 47.0302 54.4478 47.0302 54.3809V54.0497C46.8312 53.9713 46.6237 53.932 46.4075 53.932C46.1971 53.932 46.027 53.974 45.8973 54.0583C45.7676 54.1428 45.7028 54.2576 45.7028 54.4028C45.7028 54.5278 45.7503 54.6412 45.8456 54.7428C45.9435 54.8445 46.079 54.8953 46.2518 54.8953C46.3932 54.8953 46.5242 54.8678 46.6452 54.8127C46.7694 54.7573 46.8643 54.6861 46.9307 54.5989Z" fill="black"/>
<path d="M47.916 55.0786V54.6514H48.1712V55.0786H47.916Z" fill="black"/>
<path d="M49.7801 51.9832L50.8781 54.6992L51.972 51.9832H52.2877L51.0166 55.0785H50.7399L49.4644 51.9832H49.7801Z" fill="black"/>
<path d="M53.3355 55.1222C53.1193 55.1222 52.9262 55.0684 52.7561 54.9609C52.589 54.8533 52.4579 54.711 52.3627 54.5336C52.2677 54.3533 52.2202 54.1586 52.2202 53.9494C52.2202 53.7373 52.2677 53.5425 52.3627 53.3652C52.4608 53.1851 52.5935 53.0412 52.7606 52.9337C52.9307 52.8232 53.1222 52.7681 53.3355 52.7681C53.5518 52.7681 53.7436 52.8232 53.9107 52.9337C54.0808 53.0412 54.2134 53.1851 54.3084 53.3652C54.4063 53.5425 54.4554 53.7373 54.4554 53.9494C54.4554 54.1586 54.4079 54.3533 54.3126 54.5336C54.2177 54.711 54.085 54.8533 53.915 54.9609C53.7478 55.0684 53.5547 55.1222 53.3355 55.1222ZM52.5184 53.9537C52.5184 54.1222 52.5545 54.2763 52.6267 54.4159C52.7015 54.5524 52.801 54.6615 52.9249 54.7428C53.0487 54.8212 53.1856 54.8605 53.3355 54.8605C53.4854 54.8605 53.6223 54.8199 53.7462 54.7386C53.8704 54.6572 53.9696 54.5468 54.0447 54.4071C54.1195 54.2677 54.1572 54.1137 54.1572 53.9451C54.1572 53.7766 54.1195 53.6225 54.0447 53.4829C53.9696 53.3435 53.8704 53.233 53.7462 53.1517C53.6223 53.0704 53.4854 53.0294 53.3355 53.0294C53.1886 53.0294 53.0533 53.0717 52.9291 53.156C52.8052 53.2373 52.7057 53.3478 52.6309 53.4874C52.5558 53.6268 52.5184 53.7822 52.5184 53.9537Z" fill="black"/>
<path d="M55.9241 55.1222C55.705 55.1222 55.5105 55.0684 55.3404 54.9609C55.1704 54.8504 55.0361 54.7065 54.9382 54.5294C54.8403 54.3491 54.7913 54.1514 54.7913 53.9363C54.7913 53.7212 54.8388 53.5265 54.934 53.352C55.029 53.175 55.1616 53.034 55.3317 52.9294C55.5017 52.8218 55.6978 52.7681 55.9196 52.7681C56.13 52.7681 56.3146 52.8173 56.473 52.9163C56.6346 53.012 56.7555 53.1429 56.8362 53.3084L56.551 53.4002C56.4876 53.2838 56.3982 53.1937 56.2828 53.1297C56.1706 53.0629 56.0451 53.0294 55.9066 53.0294C55.754 53.0294 55.6155 53.0688 55.4917 53.1471C55.3707 53.2258 55.2725 53.3347 55.1977 53.4743C55.1255 53.6107 55.0895 53.7648 55.0895 53.9363C55.0895 54.1078 55.1271 54.2632 55.2019 54.4028C55.2768 54.5422 55.3762 54.6543 55.5004 54.7386C55.6243 54.8199 55.7612 54.8605 55.9111 54.8605C56.009 54.8605 56.1042 54.8432 56.1963 54.8084C56.2886 54.7733 56.3679 54.7268 56.4343 54.6687C56.5006 54.6077 56.5452 54.5422 56.5682 54.4727L56.858 54.5599C56.8176 54.6674 56.7513 54.7648 56.659 54.8517C56.5667 54.9362 56.4573 55.0029 56.3305 55.0523C56.2035 55.0989 56.0682 55.1222 55.9241 55.1222Z" fill="black"/>
<path d="M58.2717 55.1222C58.0554 55.1222 57.8623 55.0684 57.6922 54.9609C57.5222 54.8533 57.3882 54.7094 57.2903 54.5294C57.1921 54.3491 57.1431 54.1514 57.1431 53.9363C57.1431 53.7242 57.1908 53.5294 57.2858 53.3521C57.384 53.175 57.5179 53.034 57.688 52.9294C57.858 52.8219 58.0512 52.7681 58.2674 52.7681C58.4892 52.7681 58.6839 52.8219 58.8511 52.9294C59.0182 53.0369 59.1479 53.1792 59.24 53.3566C59.3352 53.531 59.3827 53.7228 59.3827 53.932C59.3827 53.9786 59.3814 54.0176 59.3785 54.0497H57.4503C57.4646 54.2124 57.5108 54.3579 57.5885 54.4858C57.6662 54.6107 57.7657 54.711 57.8867 54.7865C58.0079 54.8592 58.1406 54.8953 58.2847 54.8953C58.4316 54.8953 58.5698 54.8576 58.6996 54.7822C58.8293 54.7065 58.9216 54.6078 58.9763 54.4858L59.2315 54.5553C59.1853 54.6658 59.1132 54.7648 59.0153 54.8517C58.92 54.9363 58.8091 55.0029 58.6823 55.0524C58.5555 55.0989 58.4186 55.1222 58.2717 55.1222ZM57.4415 53.836H59.106C59.0946 53.6733 59.0498 53.5294 58.972 53.4045C58.8943 53.2766 58.7948 53.1779 58.6738 53.1081C58.5526 53.0353 58.4186 52.9989 58.2717 52.9989C58.1247 52.9989 57.9907 53.0353 57.8695 53.1081C57.7485 53.1779 57.649 53.2766 57.5713 53.4045C57.4962 53.5294 57.4529 53.6733 57.4415 53.836ZM57.727 52.2665L58.1507 51.896H58.3666L58.7948 52.2665L58.6261 52.3583L58.2587 52.0835L57.8912 52.3583L57.727 52.2665Z" fill="black"/>
<path d="M61.9155 55.1222C61.6964 55.1222 61.5019 55.0684 61.3319 54.9609C61.1618 54.8504 61.0279 54.7065 60.9297 54.5294C60.8318 54.3491 60.7827 54.1514 60.7827 53.9363C60.7827 53.7212 60.8302 53.5265 60.9254 53.352C61.0204 53.175 61.1531 53.034 61.3231 52.9294C61.4932 52.8218 61.6892 52.7681 61.911 52.7681C62.1217 52.7681 62.3061 52.8173 62.4645 52.9163C62.626 53.012 62.747 53.1429 62.8276 53.3084L62.5425 53.4002C62.479 53.2838 62.3896 53.1937 62.2742 53.1297C62.162 53.0629 62.0365 53.0294 61.8983 53.0294C61.7455 53.0294 61.607 53.0688 61.4831 53.1471C61.3621 53.2258 61.264 53.3347 61.1892 53.4743C61.117 53.6107 61.0812 53.7648 61.0812 53.9363C61.0812 54.1078 61.1186 54.2632 61.1934 54.4028C61.2685 54.5422 61.368 54.6543 61.4919 54.7386C61.6158 54.8199 61.7527 54.8605 61.9025 54.8605C62.0004 54.8605 62.0957 54.8432 62.1877 54.8084C62.2801 54.7733 62.3594 54.7268 62.4257 54.6687C62.492 54.6077 62.5366 54.5422 62.5597 54.4727L62.8494 54.5599C62.8091 54.6674 62.7428 54.7648 62.6504 54.8517C62.5584 54.9362 62.4488 55.0029 62.322 55.0523C62.1952 55.0989 62.0596 55.1222 61.9155 55.1222Z" fill="black"/>
<path d="M63.2896 54.1412V52.8071H63.5838V54.089C63.5838 54.6035 63.7581 54.8605 64.1067 54.8605C64.2796 54.8605 64.4412 54.8038 64.5911 54.6907C64.7439 54.5773 64.8532 54.4261 64.9196 54.2372V52.8071H65.2135V54.7212C65.2135 54.7996 65.2483 54.8402 65.3175 54.8432V55.0786C65.2828 55.0845 65.2554 55.0874 65.2353 55.0874C65.218 55.0874 65.1992 55.0874 65.179 55.0874C65.1185 55.0815 65.0665 55.0582 65.0233 55.0176C64.983 54.9769 64.9628 54.9274 64.9628 54.8694L64.9543 54.5641C64.8561 54.7415 64.7222 54.8795 64.5521 54.9783C64.385 55.0743 64.2032 55.1222 64.0075 55.1222C63.5289 55.1222 63.2896 54.7953 63.2896 54.1412Z" fill="black"/>
<path d="M67.0025 53.0687C66.8067 53.0746 66.6337 53.1297 66.4838 53.2343C66.3369 53.3389 66.2329 53.4828 66.1724 53.666V55.0785H65.8784V52.8071H66.1551V53.352C66.2329 53.1923 66.3353 53.0628 66.4621 52.9641C66.5918 52.8654 66.7287 52.81 66.8728 52.7985C66.9017 52.7956 66.9261 52.7939 66.9462 52.7939C66.9664 52.7939 66.9853 52.7956 67.0025 52.7985V53.0687Z" fill="black"/>
<path d="M68.475 54.9696C68.4403 54.984 68.3769 55.0102 68.2848 55.048C68.1925 55.0857 68.0858 55.1047 67.9649 55.1047C67.8381 55.1047 67.7269 55.0683 67.6319 54.9955C67.5367 54.923 67.4892 54.8139 67.4892 54.6686V53.0424H67.178V52.807H67.4892V52.0398H67.7831V52.807H68.3021V53.0424H67.7831V54.5857C67.789 54.67 67.8179 54.7326 67.8696 54.7732C67.9245 54.8109 67.9864 54.8299 68.0556 54.8299C68.1362 54.8299 68.2084 54.8168 68.2718 54.7906C68.3381 54.7617 68.3798 54.7414 68.397 54.7296L68.475 54.9696Z" fill="black"/>
<path d="M69.7773 55.1222C69.5611 55.1222 69.3679 55.0684 69.1979 54.9609C69.0278 54.8533 68.8938 54.7094 68.7959 54.5294C68.6978 54.3491 68.6487 54.1514 68.6487 53.9363C68.6487 53.7242 68.6964 53.5294 68.7914 53.352C68.8896 53.175 69.0236 53.034 69.1936 52.9294C69.3637 52.8218 69.5568 52.7681 69.773 52.7681C69.9948 52.7681 70.1895 52.8218 70.3567 52.9294C70.5238 53.0369 70.6536 53.1792 70.7456 53.3566C70.8409 53.531 70.8884 53.7228 70.8884 53.932C70.8884 53.9786 70.887 54.0176 70.8841 54.0497H68.9559C68.9702 54.2124 69.0164 54.3579 69.0941 54.4858C69.1719 54.6107 69.2713 54.711 69.3923 54.7864C69.5136 54.8592 69.6462 54.8953 69.7903 54.8953C69.9372 54.8953 70.0755 54.8576 70.2052 54.7822C70.3349 54.7065 70.4273 54.6077 70.4819 54.4858L70.7371 54.5553C70.691 54.6658 70.6188 54.7648 70.5209 54.8517C70.4257 54.9362 70.3148 55.0029 70.188 55.0523C70.0611 55.0989 69.9242 55.1222 69.7773 55.1222ZM68.9471 53.836H70.6116C70.6002 53.6733 70.5554 53.5294 70.4777 53.4045C70.3999 53.2766 70.3004 53.1779 70.1795 53.1081C70.0582 53.0353 69.9242 52.9989 69.7773 52.9989C69.6303 52.9989 69.4963 53.0353 69.3751 53.1081C69.2541 53.1779 69.1546 53.2766 69.0769 53.4045C69.0018 53.5294 68.9586 53.6733 68.9471 53.836Z" fill="black"/>
<path d="M71.2986 55.0786V54.6514H71.5538V55.0786H71.2986Z" fill="black"/>
</svg>
