<svg width="80" height="80" viewBox="0 0 80 80" fill="none" xmlns="http://www.w3.org/2000/svg">
<path d="M26.9541 55.8799C26.9541 57.7067 25.5662 59.1192 23.5583 59.1192H21.6152C22.0096 58.8555 22.3369 58.5012 22.5706 58.0856H23.5583C24.9 58.0856 25.7767 57.1732 25.7767 55.8988C25.7767 54.624 24.9 53.693 23.5583 53.693H22.2999V54.6425C22.1157 54.4095 21.8991 54.2047 21.6568 54.0345C21.5058 53.9299 21.3455 53.8399 21.178 53.7655V52.6592H23.5583C25.5685 52.6569 26.9541 54.0509 26.9541 55.8799ZM27.5926 59.1545H28.6983V54.28H27.5926V59.1545ZM32.7974 56.7383C32.6495 56.6274 32.4887 56.5357 32.3185 56.4647C32.1455 56.3912 31.9687 56.3269 31.7888 56.2727L31.384 56.1325C31.2645 56.0954 31.1484 56.0476 31.037 55.9898C30.946 55.947 30.8636 55.8877 30.7941 55.8146C30.7641 55.7839 30.7406 55.7472 30.725 55.7068C30.7095 55.6669 30.7023 55.6237 30.7039 55.5805V55.562C30.7034 55.4931 30.719 55.4253 30.7496 55.3636C30.7801 55.3022 30.8248 55.2491 30.8797 55.2087C31.0279 55.1092 31.2042 55.0614 31.3817 55.0728C31.605 55.0775 31.8261 55.1185 32.0363 55.1945C32.2786 55.283 32.5112 55.3968 32.7303 55.5338L33.1698 54.7385C32.9076 54.563 32.6217 54.4267 32.3209 54.3339C32.0218 54.2365 31.7098 54.186 31.3956 54.1842C31.168 54.1832 30.9417 54.2179 30.7247 54.2872C30.5257 54.3489 30.3403 54.4491 30.1788 54.5819C30.0238 54.7082 29.8989 54.868 29.8133 55.0496C29.7218 55.2444 29.6767 55.4585 29.6814 55.674V55.6904C29.6743 55.897 29.7206 56.1018 29.8156 56.2845C29.9054 56.44 30.025 56.576 30.1672 56.6844C30.3155 56.7954 30.4792 56.8839 30.653 56.9463C30.8273 57.0148 31.0048 57.0741 31.1851 57.1244C31.3239 57.1665 31.4626 57.2061 31.5922 57.2482C31.7113 57.2849 31.8273 57.331 31.9392 57.3863C32.0268 57.4309 32.1053 57.4922 32.1705 57.5664C32.2266 57.631 32.2571 57.7141 32.2561 57.8001V57.8165C32.2583 57.8922 32.2414 57.9671 32.207 58.0342C32.1726 58.1013 32.1218 58.1584 32.0594 58.2001C31.8949 58.3061 31.7014 58.3571 31.5066 58.3453C31.2397 58.3417 30.9755 58.2893 30.727 58.1908C30.4412 58.0813 30.1724 57.9311 29.929 57.7441L29.4362 58.5019C29.7335 58.7385 30.0683 58.923 30.4263 59.0468C30.7656 59.1656 31.122 59.2273 31.4812 59.2294C31.7156 59.2302 31.9491 59.1988 32.1751 59.1356C32.3814 59.0742 32.5756 58.9768 32.7488 58.848C32.9067 58.7224 33.0347 58.5626 33.1236 58.3803C33.2202 58.1701 33.2677 57.9407 33.2624 57.7092V57.6902C33.2692 57.4929 33.2211 57.2978 33.1236 57.1265C33.041 56.9774 32.9301 56.8464 32.7974 56.7408V56.7383ZM43.459 55.7207C43.5909 56.0319 43.6569 56.3673 43.6534 56.7055V56.7244C43.6562 57.0609 43.5885 57.3937 43.4544 57.702C43.3281 58.0039 43.146 58.2786 42.9178 58.5112C42.544 58.8744 42.0741 59.1199 41.5649 59.2184C41.0557 59.3169 40.5293 59.2637 40.0494 59.0657C39.746 58.9415 39.4695 58.7588 39.2351 58.5276C39.0028 58.2946 38.8191 58.0167 38.6947 57.7106C38.5704 57.4045 38.5079 57.0762 38.5111 56.7455V56.7265C38.5086 56.3876 38.5748 56.0518 38.7054 55.7397C38.8343 55.4382 39.0179 55.1634 39.2467 54.9305C39.4792 54.6953 39.7551 54.5084 40.0587 54.3806C40.3834 54.2446 40.7319 54.1761 41.0834 54.1795C41.4362 54.1763 41.7861 54.2439 42.1128 54.3785C42.4168 54.5034 42.6929 54.6885 42.9248 54.9233C43.1544 55.151 43.3362 55.4228 43.459 55.7232V55.7207ZM42.5477 56.7244C42.5476 56.5168 42.5108 56.3105 42.439 56.1161C42.3687 55.9323 42.2651 55.7636 42.1337 55.618C42.003 55.4753 41.8458 55.36 41.671 55.2787C41.4905 55.1948 41.2949 55.1495 41.0963 55.146C40.8977 55.142 40.7005 55.1802 40.517 55.2573C40.3337 55.3343 40.168 55.4489 40.0306 55.5941C39.8932 55.7389 39.787 55.9113 39.7186 56.0997C39.651 56.2945 39.6173 56.4993 39.6192 56.7055V56.7244C39.6185 56.9299 39.6561 57.134 39.7302 57.3252C39.7988 57.5115 39.9025 57.682 40.0355 57.8283C40.1677 57.9778 40.3301 58.097 40.5116 58.1776C40.6932 58.2583 40.8897 58.2986 41.0881 58.2961C41.2973 58.2993 41.5047 58.2568 41.6964 58.1719C41.8716 58.0916 42.0289 57.9764 42.1591 57.833C42.2873 57.6892 42.3863 57.5215 42.4505 57.3395C42.5169 57.1486 42.5505 56.9478 42.55 56.7455L42.5477 56.7244ZM46.1817 57.8611L44.8863 54.2779H43.6975L45.6821 59.1895H46.6747L48.6476 54.2779H47.4912L46.1817 57.8611ZM53.2741 55.7957C53.3726 56.1207 53.4216 56.4593 53.4198 56.799C53.4198 56.8461 53.4198 56.8974 53.4198 56.9488C53.4198 57.0002 53.4198 57.0566 53.4061 57.1101H49.8576C49.8939 57.4647 50.0587 57.793 50.3202 58.0317C50.5803 58.2476 50.9091 58.3607 51.2454 58.35C51.4917 58.3549 51.7356 58.3046 51.9604 58.2026C52.1784 58.0888 52.3782 57.9421 52.5525 57.7673L53.2025 58.35C52.9731 58.624 52.6922 58.8495 52.3767 59.0139C52.0165 59.1898 51.6198 59.2758 51.22 59.2644C50.8866 59.2662 50.5563 59.2038 50.2461 59.0796C49.9508 58.9618 49.6822 58.7842 49.4571 58.558C49.2319 58.3314 49.0548 58.061 48.9369 57.7627C48.805 57.4362 48.7397 57.0862 48.745 56.7337V56.7148C48.7425 56.3772 48.8014 56.0419 48.9182 55.7254C49.028 55.4275 49.1945 55.1538 49.4087 54.9208C49.6166 54.6893 49.8692 54.5037 50.1512 54.376C50.4504 54.2413 50.7747 54.1735 51.1022 54.1772C51.4494 54.1676 51.7938 54.2406 52.1082 54.3899C52.3884 54.5226 52.635 54.7178 52.8302 54.9608C53.0303 55.2084 53.1809 55.4928 53.2741 55.7982V55.7957ZM52.3235 56.2634C52.3076 56.1296 52.2674 55.9994 52.2056 55.8799C52.1481 55.7293 52.0652 55.5902 51.9604 55.4681C51.8566 55.3529 51.7306 55.2608 51.5902 55.197C51.4353 55.1299 51.268 55.0974 51.0997 55.101C50.9423 55.0967 50.786 55.1256 50.6403 55.1866C50.4949 55.2473 50.3636 55.3386 50.2553 55.4542C50.027 55.6651 49.8823 55.9527 49.8484 56.2634H52.3235ZM36.3297 58.3007C35.4808 58.3007 34.8886 57.5989 34.8886 56.7219C34.8886 55.8449 35.4715 55.162 36.2765 55.162C36.5164 55.1638 36.753 55.2195 36.969 55.3251C37.1851 55.4307 37.3752 55.5834 37.5256 55.7725L38.2196 55.0214C37.9813 54.7453 37.6845 54.5269 37.3514 54.3824C37.0182 54.2378 36.6572 54.1709 36.295 54.1865C35.6416 54.2066 35.0217 54.483 34.5665 54.9576C34.1113 55.4317 33.8568 56.0668 33.8568 56.7276C33.8568 57.3888 34.1113 58.0238 34.5665 58.498C35.0217 58.9726 35.6416 59.2491 36.295 59.269C36.6709 59.2812 37.0444 59.2052 37.3863 59.0468C37.7283 58.8887 38.0293 58.6525 38.2659 58.3567L37.5997 57.6927C37.4428 57.8786 37.2482 58.0285 37.0291 58.1323C36.8101 58.2361 36.5716 58.2911 36.3297 58.2936V58.3007ZM55.3493 55.0917V54.2872H54.2459V59.1545H55.3493V57.2974C55.3395 57.0095 55.38 56.7219 55.4693 56.4482C55.8024 55.5595 56.7301 55.3094 57.209 55.2366L56.8321 54.3011C56.2626 54.3799 55.7382 54.6568 55.3493 55.0846V55.0917ZM61.1209 54.2872L59.8855 57.8611L58.7288 54.2872H57.5513L59.3417 59.1288L59.3304 59.1592C59.3304 59.1592 58.9694 60.1485 58.6363 60.3872C58.384 60.5182 57.799 60.5064 57.5745 60.4921V61.4069C57.9631 61.4069 58.8791 61.428 59.1706 61.2407C59.5407 61.007 59.6332 60.9017 59.8784 60.3847C60.1516 59.821 62.2635 54.2872 62.2635 54.2872H61.1209Z" fill="#A19E9C"/>
<path d="M70.1933 43.229C69.0136 43.229 68.9374 42.1766 68.9374 41.6845V34.8567C68.9374 30.6776 67.4465 26.7127 62.061 26.6797C57.6829 26.6797 55.8392 29.5522 55.8392 29.5522V18.6511H51.1178V42.8876C47.7072 43.1773 46.306 41.5292 46.306 41.5292C48.2277 39.2666 48.6956 36.5354 49.0206 33.4982H44.9072C44.9072 36.7403 43.5614 38.426 43.5614 38.426C41.7802 36.1563 41.5013 35.7631 39.7085 33.3075C43.0384 31.7135 44.5893 29.6416 44.4234 26.9317C44.2068 23.4 41.2686 21.3211 38.1807 21.5165C37.3792 21.5589 36.594 21.764 35.8709 22.1197C35.1478 22.4753 34.5012 22.9745 33.9688 23.5881C33.4365 24.2017 33.029 24.9175 32.7702 25.6936C32.5113 26.4698 32.4063 27.2909 32.4612 28.1089C32.5718 29.9289 33.27 31.1885 33.7217 32.0172C32.5879 32.5729 31.0325 33.3805 29.8365 35.2452C28.9198 36.6547 28.484 38.3339 28.5967 40.0223C28.6398 40.7001 28.7676 41.3695 28.9769 42.0141L28.8848 41.8588C28.5714 42.4191 27.9768 43.222 27.1173 43.222C25.9328 43.222 25.8568 42.1672 25.8568 41.6728V34.8261C25.8568 30.6376 24.3635 26.6633 18.9689 26.6303C14.5906 26.6303 12.7471 29.5098 12.7471 29.5098V18.5923H8V46.9443H12.9176V36.5848C12.9176 34.4894 13.3093 32.9708 14.0905 31.956C14.8717 30.9413 16.0354 30.4845 17.4273 30.4869H17.4595C18.7754 30.4869 19.7133 31.0331 20.2248 32.0078C20.7364 32.9825 20.9162 34.3387 20.93 36.0292V42.81C20.93 44.6111 21.7688 47.4764 25.8475 47.4764C28.2119 47.4764 29.8249 46.1156 30.7467 45.0161C32.3344 46.6641 34.7126 47.6201 37.6207 47.4341C40.9621 47.2198 42.513 45.7389 43.3817 44.9407C43.9922 45.3857 45.7068 46.9726 48.9444 46.9726H56.0329V36.6131C56.0329 34.52 56.4225 33.0037 57.2013 31.9913C57.9801 30.9789 59.1414 30.5222 60.531 30.5245H60.5634C61.8768 30.5245 62.8123 31.0684 63.3285 32.0431C63.8448 33.0179 64.0198 34.3693 64.0315 36.0575V42.8241C64.0315 44.6205 64.8702 47.4812 68.9399 47.4812C69.9971 47.4841 71.042 47.2486 72 46.7913V42.6852C71.4583 43.0328 70.833 43.221 70.1933 43.229ZM38.4457 25.2271C38.6971 25.2112 38.949 25.2466 39.1868 25.3313C39.4246 25.4159 39.6436 25.5482 39.8309 25.7202C40.0181 25.8923 40.17 26.1007 40.2776 26.3334C40.3852 26.566 40.4463 26.8182 40.4574 27.0753C40.5542 28.6692 39.4251 29.3002 37.6276 30.2726C37.1345 29.4109 36.669 28.3608 36.6137 27.4685C36.5169 25.9098 37.6461 25.2836 38.4457 25.2271ZM37.5239 43.3232C34.6181 43.5092 33.0972 41.3361 32.9889 39.5915C32.899 38.1058 33.6618 36.865 35.9454 35.45C38.0609 38.4072 38.5748 39.0829 40.8676 41.953C39.9244 42.7666 38.7492 43.2472 37.517 43.3232H37.5239Z" fill="#F18E01"/>
<path d="M22.7084 56.4365C22.7084 55.9224 22.5576 55.4197 22.2751 54.9922C21.9925 54.5648 21.5909 54.2314 21.121 54.0346C20.6512 53.8378 20.1341 53.7863 19.6353 53.8866C19.1365 53.9869 18.6783 54.2346 18.3187 54.5983C17.9591 54.9619 17.7142 55.425 17.615 55.9295C17.5157 56.4337 17.5667 56.9567 17.7613 57.4316C17.9559 57.9069 18.2855 58.3129 18.7084 58.5983C19.1313 58.8841 19.6284 59.0368 20.137 59.0368C20.819 59.0368 21.473 58.7628 21.9552 58.2751C22.4375 57.7877 22.7084 57.1262 22.7084 56.4365Z" fill="#A19E9C"/>
</svg>
