<svg width="80" height="80" viewBox="0 0 80 80" fill="none" xmlns="http://www.w3.org/2000/svg">
<path fill-rule="evenodd" clip-rule="evenodd" d="M18.4291 34.3348H11.9268C11.6812 34.3348 11.5501 34.4536 11.4938 34.5643C11.4157 34.7161 11.4695 34.8734 11.4695 34.8734L14.6124 42.0919C14.9172 42.8261 14.94 43.4099 14.6772 43.8353C14.4232 44.2606 14.0542 44.5107 13.6018 44.6108C13.1497 44.7069 12.697 44.6277 12.2265 44.415C11.7743 44.1812 11.5082 43.7178 11.4281 43.2138C11.359 42.7796 11.4743 42.2461 11.9913 41.6999C12.5082 41.1576 12.8079 40.5524 12.8679 39.8737C12.9144 39.5231 12.8079 39.1938 12.5497 38.9017C12.2909 38.6306 11.9681 38.4179 11.5804 38.3013C11.1801 38.1776 10.7526 38.1432 10.3344 38.2009C9.88215 38.2593 9.49453 38.4554 9.1488 38.7681C8.65466 39.2352 8.31307 39.8735 8.11449 40.7073C7.92528 41.5454 7.96687 42.3834 8.26704 43.2136C8.46053 43.7386 8.89451 44.2392 9.58262 44.727C10.2514 45.1901 10.976 45.4274 11.7744 45.4274H18.3555C18.8513 45.4274 18.8028 44.9895 18.8028 44.9895C18.8028 44.9895 18.8075 34.9644 18.8028 34.7019C18.8028 34.2988 18.4291 34.3348 18.4291 34.3348Z" fill="#C52127"/>
<path fill-rule="evenodd" clip-rule="evenodd" d="M20.3931 45.4266H26.8955C27.1411 45.4266 27.2721 45.308 27.3284 45.1979C27.4062 45.0459 27.3522 44.8885 27.3522 44.8885L24.2093 37.6701C23.9048 36.936 23.8815 36.3523 24.1447 35.9269C24.3986 35.5016 24.7679 35.2513 25.2199 35.1513C25.6722 35.0553 26.1247 35.1345 26.595 35.3471C27.0474 35.5807 27.3133 36.0442 27.3933 36.5482C27.4627 36.9823 27.3473 37.5156 26.8306 38.0619C26.3136 38.6044 26.0138 39.2094 25.9534 39.8888C25.9074 40.2388 26.0138 40.5685 26.2724 40.8603C26.5306 41.1315 26.8535 41.3442 27.2406 41.4607C27.6408 41.5843 28.0682 41.6188 28.4864 41.5611C28.9388 41.5027 29.3264 41.3067 29.6726 40.9938C30.1664 40.5268 30.5078 39.8893 30.7061 39.0545C30.8956 38.2166 30.8537 37.3782 30.554 36.5484C30.3602 36.023 29.9263 35.5225 29.2387 35.0347C28.5701 34.5717 27.8462 34.334 27.0477 34.334H20.4668C19.9709 34.334 20.019 34.7722 20.019 34.7722C20.019 34.7722 20.0147 44.797 20.019 45.0598C20.0258 45.4269 20.3931 45.4266 20.3931 45.4266Z" fill="#C52127"/>
<path d="M33.5066 34.3225V42.3618C33.5066 44.1929 35.1494 45.6774 37.1757 45.6774H72V34.3225H33.5066ZM44.0049 42.3568C44.0046 42.5649 43.913 42.7644 43.7503 42.9115C43.5874 43.0587 43.3666 43.1414 43.1364 43.1417H43.042C42.924 43.1414 42.8072 43.1195 42.6988 43.0773C42.5904 43.0351 42.4925 42.9734 42.4113 42.8961L38.4055 39.069V43.1417H36.7324V37.4684C36.7326 37.2603 36.8242 37.0608 36.987 36.9136C37.1499 36.7665 37.3706 36.6837 37.601 36.6835H37.6949C37.813 36.6837 37.9299 36.7055 38.0383 36.7477C38.1467 36.7899 38.2446 36.8515 38.3259 36.9289L42.3321 40.7561L42.334 36.6835H44.0042L44.0049 42.3568ZM51.8421 38.0823H47.1579V39.2138L51.7703 39.2128L51.7668 40.612H47.1579V41.7439H51.8422V43.1421H46.3536C46.1232 43.1418 45.9025 43.059 45.7396 42.9119C45.5769 42.7648 45.4852 42.5653 45.4849 42.3572V36.6835H51.8422L51.8421 38.0823ZM60.3331 42.627C60.2716 42.7779 60.1604 42.9081 60.0146 43.0002C59.8688 43.0924 59.6952 43.142 59.5173 43.1424H59.3718C59.1885 43.1426 59.0098 43.0903 58.8615 42.993C58.7131 42.8957 58.6028 42.7583 58.5464 42.6008L57.6322 40.0678L56.6798 42.6091C56.6216 42.7643 56.511 42.8991 56.3636 42.9946C56.2163 43.0901 56.0395 43.1415 55.8582 43.1417H55.7212C55.543 43.1413 55.3692 43.0917 55.2233 42.9993C55.0773 42.907 54.9661 42.7765 54.9048 42.6253L52.5159 36.6835H54.305L54.3249 36.7384L55.8011 40.7944L56.7706 37.897C56.8236 37.7361 56.9326 37.5949 57.0814 37.4944C57.2303 37.3939 57.411 37.3395 57.5968 37.3392H57.6018C57.7863 37.3383 57.9663 37.3907 58.1156 37.4887C58.2649 37.5868 58.3756 37.7253 58.4316 37.8842L59.4659 40.802L60.9477 36.6829H62.7385L60.3331 42.627ZM67.2998 43.1424H63.1534V41.7434H67.1918C67.5779 41.7434 67.818 41.5267 67.818 41.1776C67.818 40.8284 67.5779 40.6116 67.1918 40.6116H65.2179C63.9584 40.6116 63.0442 39.7856 63.0442 38.6476C63.0442 37.5463 63.9992 36.6835 65.2179 36.6835H68.9164V38.0827L68.609 38.0816H65.3254C64.9394 38.0816 64.6995 38.2986 64.6995 38.6476C64.6995 38.9966 64.9394 39.2138 65.3254 39.2138H67.2998C68.5591 39.2138 69.4733 40.0398 69.4733 41.178C69.4733 42.143 68.6603 43.1417 67.2998 43.1417V43.1424Z" fill="#C52127"/>
</svg>
