<svg width="80" height="80" viewBox="0 0 80 80" fill="none" xmlns="http://www.w3.org/2000/svg">
<path d="M12.2564 61.9144H9.69258V58.624H8V67.1039C8 67.1039 8.27138 69.85 10.8567 70.2591H12.9027C12.9027 70.2591 15.5524 69.85 15.713 67.3776V64.9839C15.713 64.9839 15.5595 62.131 12.2564 61.9144ZM14.224 66.944C14.1668 68.2208 13.3348 68.7224 12.7207 68.7224H11.1102C9.77471 68.6973 9.68186 66.944 9.68186 66.944V63.5151H12.5385C14.149 63.5968 14.2311 65.4461 14.2311 65.4461L14.224 66.944Z" fill="#84AD7E"/>
<path d="M24.2937 64.7669C23.9117 62.2383 21.1549 61.9216 21.1549 61.9216H19.7088C17.0877 62.0284 16.6735 63.9206 16.5986 64.7883C16.5572 65.6759 16.5631 66.5656 16.6164 67.4527C16.8092 70.1703 19.4731 70.2663 19.4731 70.2663H21.4942C23.7402 70.2663 24.3044 67.4206 24.3044 67.4206C24.4006 66.5386 24.397 65.6484 24.2937 64.7669ZM22.7118 67.3389C22.7118 67.3389 22.6297 68.4522 21.2656 68.7224H19.7837C19.4162 68.6964 19.069 68.5447 18.8014 68.2924C18.5338 68.0401 18.3623 67.703 18.3161 67.3389V65.1085C18.3161 65.1085 18.5625 63.6857 19.7909 63.6433H21.1264C21.1264 63.6433 22.5761 63.6433 22.7118 65.3006V67.3389Z" fill="#84AD7E"/>
<path d="M27.104 70.2592C27.2147 70.1239 28.8894 67.5667 28.8894 67.5667L30.6749 70.2592C30.6749 70.2592 32.6959 70.4763 32.6424 70.2592C32.5888 70.0422 29.8571 66.0866 29.8571 66.0866L32.5603 61.9146H30.5998L29.0144 64.4401L27.104 61.9146H25.3186L27.9967 66.1331L25.14 70.2592H27.104Z" fill="#84AD7E"/>
<path d="M38.2557 61.9144H35.6883V58.624H33.9957V67.1039C33.9957 67.1039 34.2707 69.85 36.8524 70.2591H38.8984C38.8984 70.2591 41.5481 69.85 41.7123 67.3776V64.9839C41.7123 64.9839 41.5659 62.131 38.2557 61.9144ZM40.2197 66.944C40.1661 68.2208 39.3341 68.7224 38.7199 68.7224H37.1095C35.7704 68.6973 35.6811 66.944 35.6811 66.944V63.5151H38.52C40.1304 63.5968 40.2126 65.4461 40.2126 65.4461L40.2197 66.944Z" fill="#84AD7E"/>
<path d="M42.6372 70.2592V64.294C42.6372 63.8563 43.1014 61.9146 45.6796 61.9146H46.8686V63.4723H46.1545C46.1545 63.4723 45.1761 63.4723 44.8118 63.7567C44.6958 63.839 44.5989 63.9447 44.528 64.0678C44.4571 64.1903 44.4139 64.3272 44.4012 64.4682V70.2449L42.6372 70.2592Z" fill="#84AD7E"/>
<path d="M67.5723 58.624V67.872C67.5723 67.872 67.6619 70.0952 70.6648 70.4614H72.0001V68.8715H71.1537C71.1537 68.8715 69.4006 68.7474 69.3469 67.7867V58.624H67.5723Z" fill="#84AD7E"/>
<path d="M52.4249 62.245C50.8537 61.8717 50.6716 61.9963 50.6716 61.9963C50.6716 61.9963 47.1257 61.6403 47.0615 64.5361H48.8469C48.8469 64.5361 48.8183 63.7853 50.0288 63.7215H51.275C51.275 63.7215 52.3463 63.746 52.3463 64.5361C52.3463 65.3257 51.275 65.4289 51.275 65.4289C51.275 65.4289 47.5864 65.0729 47.04 67.4988C46.4937 69.9247 49.1825 70.6433 49.6896 70.6433H51.3929C51.3929 70.6433 53.8461 70.5008 54.1567 68.676V64.2266C54.0951 63.7634 53.8981 63.3288 53.5902 62.9764C53.2822 62.624 52.8769 62.3696 52.4249 62.245ZM52.3106 68.2245C52.1785 68.8716 51.2715 68.961 51.2715 68.961H49.686C49.5682 68.963 49.4511 68.9421 49.3414 68.8992C49.2317 68.8563 49.1316 68.792 49.047 68.7102C48.9624 68.629 48.8948 68.531 48.8482 68.4232C48.8016 68.3154 48.7769 68.1995 48.7754 68.082C48.8148 67.3425 49.3039 67.1679 49.8467 67.1643C50.3895 67.1612 51.4714 67.1643 51.4714 67.1643C51.76 67.198 52.0517 67.1382 52.3034 66.9937L52.3106 68.2245Z" fill="#84AD7E"/>
<path d="M55.7886 61.9146L63.6233 61.9748V63.7532C63.6233 63.7532 63.2408 66.7414 60.6772 66.8798C58.1133 67.0187 58.6275 67.1219 58.6275 67.1219C58.2877 67.2153 57.9886 67.4181 57.7768 67.6985C57.5649 67.9794 57.4522 68.3216 57.4562 68.6729H63.6233V70.2771H55.7886V69.4625C55.7886 69.4625 55.6529 65.4641 59.0024 65.4109L60.2056 65.3573C60.2056 65.3573 61.6664 65.4927 61.9091 63.6147C61.9091 63.6147 55.7815 63.5897 55.7815 63.6147L55.7886 61.9146Z" fill="#84AD7E"/>
<path d="M66.3153 58.624H64.6477V60.2851H66.3153V58.624Z" fill="#84AD7E"/>
<path d="M66.3153 61.9146H64.6477V70.2592H66.3153V61.9146Z" fill="#84AD7E"/>
<path d="M8 36.7488V51.1581C8 51.1581 7.97144 55.2912 14.8774 55.2912V52.6022L13.1313 52.5737C13.1313 52.5737 10.7567 52.1398 10.7031 50.6957V44.35H14.8774V41.5507H10.6746V36.7488H8Z" fill="#3A646D"/>
<path d="M16.4808 55.3055V45.5523C16.4808 44.841 17.2379 41.6396 21.455 41.6396H23.4012V44.2185H22.2121C22.2121 44.2185 20.6159 44.2185 20.016 44.688C19.8233 44.8228 19.6633 44.9988 19.5478 45.2031C19.4323 45.4074 19.3641 45.6349 19.3482 45.8689V55.3162L16.4808 55.3055Z" fill="#3A646D"/>
<path d="M33.2461 41.9457C30.7679 41.3517 30.4965 41.5509 30.4965 41.5509C30.4965 41.5509 24.8938 41.0174 24.7831 45.5525H27.5862C27.5862 45.5525 27.5434 44.3716 29.4502 44.2684H31.4142C31.4142 44.2684 33.1139 44.3076 33.1318 45.5525C33.1497 46.7974 31.4535 46.9753 31.4535 46.9753C31.4535 46.9753 25.6509 46.3528 24.7831 50.2228C23.9155 54.0928 28.1576 55.1777 28.9575 55.1777H31.6391C31.6391 55.1777 35.5064 54.9536 35.9992 52.0796V45.0652C35.9992 45.0652 35.7242 42.5362 33.2461 41.9457ZM33.0604 51.3646C32.8568 52.3854 31.4249 52.5277 31.4249 52.5277H28.9253C28.74 52.5305 28.5559 52.4968 28.3836 52.4286C28.2114 52.3603 28.0544 52.2588 27.9217 52.1299C27.7889 52.001 27.6831 51.8472 27.6102 51.6774C27.5374 51.5076 27.4988 51.3251 27.497 51.1405C27.5577 49.9774 28.329 49.7177 29.1967 49.6928C30.0644 49.6679 31.757 49.6928 31.757 49.6928C32.7568 49.6928 33.0639 49.4261 33.0639 49.4261L33.0604 51.3646Z" fill="#3A646D"/>
<path d="M36.0099 41.5508L41.5161 55.3056H44.1086L49.6505 41.5508L46.6474 41.5188C46.6474 41.5188 42.7766 51.2827 42.7766 51.3645C42.7766 51.4463 38.9487 41.5508 38.9487 41.5508H36.0099Z" fill="#3A646D"/>
<path d="M62.8445 47.3062C62.8445 47.3062 62.8445 41.551 56.56 41.551C50.2754 41.551 50.0111 47.0643 50.0111 47.0643V49.636C50.0111 49.636 50.0968 54.8967 55.4316 55.3556L62.8445 55.3094V52.631L56.3564 52.6558C56.3564 52.6558 55.8458 52.6274 55.4602 52.5669C54.7379 52.4893 54.0656 52.1622 53.5602 51.6424C53.0547 51.1226 52.7478 50.443 52.6928 49.7214H62.8445V47.3062ZM52.7142 47.0821C52.8154 46.3579 53.1563 45.6879 53.6827 45.1784C54.2092 44.6688 54.8912 44.3486 55.6209 44.2685H57.1742C59.6737 44.514 59.9809 47.0003 59.9988 47.0821C60.0167 47.1639 52.7035 47.1461 52.7142 47.0821Z" fill="#3A646D"/>
<path d="M64.9622 36.749V51.1334C64.9622 51.1334 65.0978 54.5837 69.7647 55.1564L71.8394 55.1279V52.638H70.5292C70.5292 52.638 67.7976 52.446 67.7188 50.952V36.749H64.9622Z" fill="#3A646D"/>
<path d="M39.9848 35.2798H39.4992C23.6732 34.9917 19.4275 21.8095 19.374 21.6637C19.31 21.4599 19.33 21.2392 19.4294 21.0501C19.5289 20.861 19.6996 20.719 19.9042 20.6553C20.1088 20.5916 20.3304 20.6115 20.5202 20.7106C20.7101 20.8096 20.8526 20.9798 20.9166 21.1835C21.0736 21.6851 24.898 33.3946 39.5278 33.6578H39.9813C54.2647 33.6578 58.4604 21.2973 58.4997 21.1729C58.5327 21.0724 58.5853 20.9794 58.6545 20.8993C58.7236 20.8191 58.8079 20.7532 58.9026 20.7055C58.9974 20.6578 59.1003 20.6291 59.2063 20.6211C59.3117 20.6131 59.4182 20.6259 59.5191 20.6589C59.62 20.6918 59.7131 20.7442 59.794 20.8131C59.8744 20.8819 59.9405 20.9659 59.9881 21.0601C60.0362 21.1545 60.0649 21.2572 60.0731 21.3626C60.0813 21.468 60.068 21.5739 60.0352 21.6744C59.9922 21.8095 55.4288 35.2798 39.9848 35.2798Z" fill="#3A646D"/>
<path d="M39.7061 28.3296C37.8225 28.3296 35.9813 27.7732 34.4151 26.7308C32.849 25.6884 31.6284 24.2068 30.9075 22.4735C30.1867 20.74 29.9982 18.8326 30.3656 16.9924C30.7331 15.1523 31.6401 13.4619 32.972 12.1352C34.3038 10.8085 36.0008 9.90501 37.8481 9.53897C39.6955 9.17294 41.6104 9.3608 43.3505 10.0788C45.0907 10.7968 46.5781 12.0127 47.6245 13.5727C48.671 15.1328 49.2295 16.9669 49.2295 18.8431C49.2276 21.3585 48.2236 23.7703 46.438 25.549C44.6525 27.3276 42.2313 28.3277 39.7061 28.3296ZM39.7061 10.5447C38.0582 10.5447 36.4474 11.0315 35.0774 11.9435C33.7073 12.8555 32.6395 14.1517 32.0091 15.6683C31.3787 17.1848 31.2139 18.8536 31.5356 20.4634C31.8573 22.0732 32.6511 23.5518 33.8166 24.7123C34.982 25.8727 36.4667 26.6628 38.083 26.9825C39.6992 27.3023 41.3744 27.1375 42.8966 26.5089C44.4187 25.8802 45.7196 24.816 46.6346 23.4509C47.5495 22.0858 48.0375 20.481 48.0368 18.8396C48.034 16.6402 47.1551 14.5319 45.5932 12.9774C44.0313 11.4228 41.914 10.5492 39.7061 10.5483V10.5447Z" fill="#3A646D"/>
<path d="M39.706 24.3636C38.6098 24.3643 37.538 24.0411 36.6261 23.4349C35.7143 22.8288 35.0034 21.9669 34.5834 20.9582C34.1634 19.9495 34.0531 18.8395 34.2666 17.7684C34.48 16.6973 35.0076 15.7133 35.7825 14.9409C36.5574 14.1685 37.5448 13.6424 38.62 13.4291C39.6951 13.2158 40.8096 13.3249 41.8225 13.7426C42.8353 14.1604 43.7011 14.8679 44.3102 15.7758C44.9193 16.6837 45.2444 17.7512 45.2444 18.8432C45.2435 20.3064 44.6598 21.7094 43.6215 22.7444C42.5831 23.7794 41.175 24.3617 39.706 24.3636Z" fill="#3A646D"/>
</svg>
