<svg width="80" height="80" viewBox="0 0 80 80" fill="none" xmlns="http://www.w3.org/2000/svg">
<path d="M61.6156 28.3733C61.9522 33.8761 60.6057 38.8962 57.0568 43.2668C52.2708 49.1633 45.9819 51.7495 38.3172 51.238C36.9206 51.1461 35.6038 50.8127 34.5881 49.7754C33.3097 48.4995 33.1797 46.7467 34.2751 45.4076C35.1107 44.3875 36.2533 43.8933 37.5229 43.5858C40.9035 42.7726 44.2577 41.8818 47.4405 40.4651C52.1202 38.3818 56.1917 35.5801 58.8933 31.1923C59.4944 30.1523 59.9729 29.0495 60.3193 27.9049C60.4966 27.3705 60.5555 26.7555 61.2672 26.4883C61.7601 27.0544 61.2964 27.7929 61.6156 28.3733Z" fill="black"/>
<path d="M26.575 14.1865C26.5426 13.5658 27.1183 13.4336 27.4844 13.175C36.3154 6.97101 48.7426 8.25261 55.9586 16.1979C57.8512 18.2841 59.5016 20.6002 60.1953 23.3817C60.9336 24.7582 60.0478 25.6806 59.1711 26.511C58.1404 27.4938 56.9181 28.0512 55.4271 27.4823C54.4351 27.1058 53.7058 26.3961 52.9854 25.6777C49.8232 22.5168 46.5223 19.5312 42.5777 17.3042C38.9609 15.2611 35.1344 13.8818 30.8621 13.9853C29.9324 14.0458 29.008 14.1687 28.0956 14.3531C27.576 14.4364 27.0327 14.6548 26.575 14.1865Z" fill="black"/>
<path d="M28.8846 48.3785C28.2129 48.1504 27.6059 47.7714 27.1131 47.2722C26.8827 46.9273 27.3227 46.7147 27.2902 46.39C26.9537 46.4589 26.6997 46.8067 26.3011 46.6313C17.3166 40.2895 15.6071 25.7724 22.8496 17.5886C23.9302 16.3674 25.191 15.945 26.7676 16.2438C28.6041 16.5513 29.4869 17.5024 29.5961 19.3098C29.6605 20.2153 29.5606 21.1248 29.3009 21.9966C28.0756 25.9822 27.1072 30.0425 27.0688 34.2062C27.0333 38.0625 27.429 41.9245 29.3186 45.4561C29.4338 45.7636 29.5578 46.1228 29.354 46.39C29.0027 46.844 28.8639 47.1687 29.354 47.6745C29.7142 48.0566 29.5784 48.459 28.8846 48.3785Z" fill="black"/>
<path d="M29.1906 45.8672C30.0586 47.2493 31.3962 48.3039 32.1048 49.7982C30.8913 49.6286 29.8815 49.0194 28.8865 48.3786C29.0843 48.2321 29.5361 48.1171 29.0932 47.8039C28.2754 47.2292 27.8738 46.7551 29.1434 46.2694C29.2054 46.2551 29.1758 46.0109 29.1906 45.8672Z" fill="black"/>
<path d="M26.293 46.6198C26.474 46.5659 26.64 46.4724 26.7782 46.3464C26.9164 46.2203 27.0231 46.0652 27.0901 45.8928C27.2897 46.0023 27.47 46.142 27.6245 46.3066C28.0024 46.8813 27.0045 46.7951 27.1049 47.2606L26.293 46.6198Z" fill="black"/>
<path d="M53.0085 45.5247C53.3658 45.6626 53.54 45.766 53.4868 45.9729C53.4632 46.0678 53.3008 46.131 53.1916 46.2114C53.0709 46.0921 52.9711 45.9542 52.8963 45.8034C52.8756 45.7086 52.9879 45.5706 53.0085 45.5247Z" fill="black"/>
<path d="M56.8394 35.5396C57.1347 35.5626 57.2085 35.7378 57.1671 35.9275C57.1388 35.98 57.0964 36.024 57.0444 36.0549C56.9925 36.0857 56.9328 36.1023 56.8718 36.1028C56.7065 36.0712 56.4674 36.0137 56.5501 35.7666C56.6003 35.6631 56.7627 35.5999 56.8394 35.5396Z" fill="black"/>
<path d="M48.0122 19.7784C47.7583 19.7784 47.5488 19.6031 47.6049 19.4479C47.766 19.0118 48.0795 18.6446 48.4906 18.4106C48.5319 18.3847 48.8597 18.6347 48.8538 18.741C48.8242 19.2697 48.3784 19.5111 48.0122 19.7784Z" fill="black"/>
<path d="M49.4537 12.9533C49.2529 12.8958 49.1083 12.7723 49.1584 12.5596C49.1647 12.5132 49.1819 12.4688 49.2086 12.4299C49.2354 12.391 49.271 12.3586 49.3127 12.3353C49.3543 12.3119 49.401 12.2982 49.449 12.2953C49.497 12.2923 49.5451 12.3002 49.5895 12.3183C49.6465 12.3502 49.6951 12.3946 49.7315 12.448C49.7679 12.5013 49.791 12.5622 49.7992 12.6257C49.8065 12.6712 49.8026 12.7177 49.7877 12.7613C49.7729 12.805 49.7474 12.8445 49.7136 12.8766C49.6797 12.9087 49.6385 12.9324 49.5933 12.9458C49.548 12.9591 49.5002 12.9617 49.4537 12.9533Z" fill="black"/>
<path d="M22.1952 39.9414C22.7267 40.4155 23.081 40.8897 22.5317 41.8811C22.4905 41.0478 21.6549 40.7087 22.1952 39.9414Z" fill="black"/>
<path d="M27.1771 44.0335L26.9585 43.772C27.0557 43.7056 27.1634 43.6551 27.2774 43.6226C27.3394 43.6226 27.4516 43.7203 27.4781 43.7978C27.5431 43.999 27.3955 44.0335 27.1771 44.0335Z" fill="black"/>
<path d="M59.4981 27.594C58.0514 32.1255 55.0694 35.0997 51.3108 37.4588C47.2156 40.045 42.6599 41.4817 37.9654 42.6024C37.5373 42.703 37.1062 42.8007 36.681 42.9157C33.9027 43.6685 32.9402 44.8381 32.5741 48.0219C30.8075 46.2636 29.5355 44.0925 28.8805 41.7174C27.2123 36.1083 27.9269 30.548 29.3145 25.0107C29.5832 23.9446 29.9256 22.8958 30.2238 21.8498C31.1096 18.7435 30.6018 17.2981 27.8884 15.3068C30.7672 14.5654 33.4982 14.7838 36.2027 15.5453C41.9985 17.1717 46.5365 20.6889 50.7321 24.7406C51.4289 25.4158 52.0961 26.117 52.7989 26.7951C54.9247 28.8641 56.646 29.1198 59.4981 27.594Z" fill="black"/>
<path d="M48.477 23.3729L47.0007 24.1142C47.0007 23.1401 47.2517 22.6545 48.477 23.3729Z" fill="black"/>
<path d="M45.7213 21.3933C46.0166 21.3933 46.3503 21.4393 46.4064 21.7697C46.4624 22.1002 46.179 22.0973 45.9192 22.0916C45.6594 22.0858 45.2991 22.1519 45.2431 21.764C45.1959 21.4335 45.4733 21.4134 45.7213 21.3933Z" fill="black"/>
<path d="M30.7339 68.9948C31.1384 69.2822 31.1355 69.2822 30.7812 69.6183C30.2202 70.1271 29.5508 70.5088 28.8207 70.7363H26.3317C25.7593 70.5421 25.2184 70.269 24.7256 69.9257C24.0125 69.3893 23.4768 68.6607 23.185 67.8307C22.8932 67.0006 22.8581 66.1055 23.084 65.2565C23.3123 64.4019 23.7947 63.6318 24.4706 63.0431C25.1466 62.4544 25.9861 62.0727 26.8839 61.9461C27.57 61.8396 28.2719 61.8862 28.9368 62.0824C29.6017 62.2787 30.2122 62.6189 30.7222 63.078C30.8905 63.2276 30.917 63.328 30.7517 63.5032C30.4564 63.8255 30.1759 64.1703 29.8925 64.5064C29.8157 64.5981 29.7567 64.6586 29.6474 64.5377C29.2351 64.1119 28.698 63.8199 28.1091 63.7015C27.7923 63.6416 27.4664 63.6416 27.1496 63.7015C26.4554 63.8434 25.8381 64.2267 25.4135 64.7795C25.0255 65.2996 24.8393 65.937 24.8879 66.5779C24.9366 67.2194 25.2169 67.823 25.6792 68.2821C26.1377 68.7396 26.7503 69.0204 27.4045 69.0731C28.0587 69.1259 28.7105 68.9471 29.24 68.5695L29.4526 68.4317C29.5973 68.302 29.8128 68.3538 29.9663 68.2477L30.0962 68.3743C30.173 68.4634 30.2084 68.5925 30.3472 68.6212L30.607 68.8769C30.6395 68.9835 30.486 69.0521 30.5509 69.1643C30.6483 69.1413 30.5981 68.9717 30.7339 68.9948Z" fill="black"/>
<path d="M71.9999 62.639C71.6602 63.1877 71.442 63.7882 71.1612 64.3631L70.6001 65.5123C70.5028 65.748 70.264 65.9207 70.2758 66.205C69.6851 67.5843 69.0236 68.9262 68.3949 70.2855C68.3678 70.3711 68.3119 70.4459 68.2366 70.4982C68.1618 70.5499 68.0706 70.576 67.9784 70.573C67.882 70.5709 67.7888 70.5391 67.7119 70.4823C67.6351 70.4254 67.5782 70.3465 67.5505 70.2568C67.1904 69.4734 66.8312 68.688 66.4725 67.9005C65.7286 66.2722 64.9867 64.6439 64.2463 63.0156C64.2202 62.9582 64.2084 62.8977 64.1874 62.8403C64.1776 62.7645 64.1935 62.6877 64.2314 62.621C64.2699 62.5544 64.3288 62.5011 64.4 62.4694C64.4851 62.4151 64.5875 62.392 64.6885 62.4053C64.7894 62.4187 64.8821 62.4668 64.9493 62.5411C65.3714 63.2856 65.6758 64.0813 66.0329 64.8401C66.6882 66.2455 67.32 67.6591 67.9876 69.1276C68.2827 68.5353 68.5276 67.9983 68.7756 67.4552C69.4786 65.934 70.18 64.4118 70.8809 62.889C70.9696 62.6907 71.0582 62.4894 71.1556 62.2942C71.3769 61.8433 71.5834 61.7915 71.9999 62.0815V62.639Z" fill="black"/>
<path d="M18.2505 63.7363C18.0822 63.7532 18.1001 63.8767 18.1001 63.992C18.1001 64.4055 18.1001 64.8225 18.1001 65.236C18.1001 65.4574 18.1738 65.5235 18.3953 65.5235C19.4729 65.5235 20.5476 65.5235 21.6253 65.5235C21.7405 65.5235 21.8586 65.5235 21.9737 65.5409C22.1332 65.9472 22.1508 66.3935 22.0239 66.811C21.9855 66.9975 21.7759 66.9801 21.6194 66.9832C21.0555 66.9832 20.4916 66.9832 19.9276 66.9832H18.7466C18.5875 66.9694 18.4275 67.0001 18.286 67.0723C18.2313 67.0841 18.1796 67.1067 18.1345 67.139C18.0893 67.1712 18.0516 67.2127 18.0238 67.2599C17.996 67.3075 17.9787 67.3598 17.973 67.4141C17.9673 67.4684 17.9733 67.5232 17.9908 67.575C18.1088 67.947 18.1371 68.3405 18.0734 68.7247C18.0734 69.0122 18.1502 69.0521 18.3864 69.0291C18.5034 69.0204 18.6208 69.0204 18.7377 69.0291C18.7761 69.0291 18.8322 69.0291 18.8234 69.0926C18.8145 69.1556 18.7554 69.1643 18.717 69.1756C19.0201 69.2596 19.3435 69.2427 19.6353 69.1269C19.8756 69.0439 20.1314 69.0127 20.3853 69.0347C20.5978 69.0347 20.4561 69.1239 20.3853 69.2043C20.6859 69.0711 21.015 69.0101 21.3449 69.0265C21.4452 69.0434 21.4658 69.0265 21.4334 69.1613C21.4334 69.213 21.4511 69.1756 21.4511 69.1813C21.6932 69.1469 21.9619 69.3365 22.1774 69.0552C22.2601 68.9517 22.4727 69.0721 22.6026 68.9973C22.7326 68.923 22.7768 69.0291 22.7768 69.1444C22.7768 69.5696 22.7768 70.0062 22.7768 70.4202C22.7768 70.6558 22.6085 70.6154 22.4638 70.6154H18.8469C18.0587 70.6154 17.2674 70.6154 16.4849 70.6154C16.2753 70.6154 16.1897 70.578 16.1897 70.3453C16.1897 67.6903 16.1897 65.0352 16.1897 62.3796C16.1897 62.1813 16.2429 62.1096 16.4584 62.1126C18.474 62.1126 20.4905 62.1126 22.5081 62.1126C22.706 62.1126 22.8034 62.1588 22.7856 62.3714C22.8019 62.8141 22.7871 63.2578 22.7414 63.6989C22.6735 63.6728 22.7 63.4115 22.5346 63.6267C22.4992 63.6759 22.3989 63.6728 22.328 63.6871C22.0147 63.6467 21.6976 63.6415 21.3832 63.6728C21.3514 63.682 21.3187 63.6877 21.2857 63.6902C20.9759 63.6441 20.6612 63.6385 20.3498 63.6728C20.3179 63.6815 20.2853 63.6871 20.2523 63.6902C19.6148 63.6185 18.9708 63.6185 18.3332 63.6902L18.2505 63.7363Z" fill="black"/>
<path d="M59.4381 66.6246C59.4381 65.4748 59.4381 64.343 59.4381 63.202C59.4381 62.9607 59.3761 62.8771 59.1163 62.8858C58.3929 62.9002 57.6666 62.8858 56.9402 62.8858C56.8413 62.8935 56.7418 62.8869 56.645 62.8659C56.456 62.8141 56.2996 62.6906 56.3173 62.4949C56.3238 62.4001 56.3665 62.311 56.437 62.2454C56.5074 62.1793 56.6005 62.1414 56.6982 62.1388C56.7837 62.1347 56.8695 62.1347 56.955 62.1388H62.9396C63.1938 62.1388 63.3915 62.251 63.3854 62.518C63.3797 62.7854 63.182 62.8889 62.9248 62.8889C62.1782 62.8889 61.4312 62.8889 60.6873 62.8889C60.3916 62.8889 60.3061 62.955 60.3091 63.2481C60.3091 65.4779 60.3091 67.7077 60.3091 69.9375C60.3214 70.0718 60.3086 70.207 60.2707 70.3372C60.2477 70.4345 60.1892 70.5206 60.1062 70.5795C60.0232 70.639 59.9213 70.6666 59.8188 70.659C59.7102 70.6508 59.6087 70.6031 59.5349 70.5252C59.4612 70.4473 59.4202 70.3454 59.4202 70.2393C59.4028 70.0006 59.4202 69.7623 59.4202 69.5236L59.4381 66.6246Z" fill="black"/>
<path d="M48.8738 62.1332C48.6199 62.4806 48.741 62.8659 48.7971 63.2276C48.8302 63.3429 48.8548 63.4597 48.8709 63.5786C48.8709 64.696 48.9358 65.8196 48.8472 66.9289C48.7941 67.5612 48.7645 68.1904 48.7409 68.8226C48.7261 69.1731 48.9535 69.4892 48.8738 69.8453C48.8671 69.997 48.8362 70.1461 48.7823 70.288C48.6406 70.5754 48.8768 70.5524 49.0775 70.5467C49.4136 70.5073 49.7527 70.4996 50.0902 70.5237C50.8815 70.5237 51.6757 70.4832 52.47 70.5467H52.9335C52.7429 70.6051 52.5416 70.6241 52.343 70.601C51.2329 70.601 50.1228 70.601 49.0126 70.601C48.7852 70.601 48.6966 70.558 48.6996 70.3141C48.6996 67.6672 48.6996 65.0209 48.6996 62.3771C48.6878 62.2766 48.6228 62.0927 48.8738 62.1332Z" fill="black"/>
<path d="M18.189 67.058C18.2186 66.9944 18.2683 66.9411 18.3309 66.9068C18.3935 66.872 18.4659 66.8576 18.5374 66.8658C19.5502 66.8658 20.5628 66.8658 21.5755 66.8658C21.8708 66.8658 22.0007 66.8079 21.9741 66.4949C21.9476 66.1818 21.9741 65.8396 21.9741 65.5122C22.166 65.4578 22.2517 65.5122 22.2457 65.7192C22.2457 66.1126 22.2457 66.5067 22.2457 66.9032C22.2457 67.0498 22.2162 67.1302 22.0361 67.1302C20.7547 67.1302 19.4763 67.1159 18.1978 67.1097C18.1742 67.1097 18.1684 67.0841 18.1743 67.0697C18.1802 67.0554 18.1801 67.058 18.189 67.058Z" fill="black"/>
<path d="M18.1883 67.0586V67.1216C18.0732 67.1908 18.0998 67.3025 18.0998 67.4091C18.0998 67.843 18.0998 68.2709 18.0998 68.7135C18.0998 68.9405 18.1825 69.001 18.3951 68.9866C19.6823 68.9866 20.9696 68.9866 22.2599 68.9866C22.375 68.9866 22.4931 68.9866 22.6082 68.9866C22.5635 69.0112 22.5159 69.0302 22.4665 69.044C22.3721 69.044 22.375 69.044 22.3189 69.1793C22.2628 69.314 22.1831 69.2162 22.1181 69.2392C21.7727 69.3658 21.4509 69.1905 21.07 69.2223C21.1999 69.0409 21.3653 69.1644 21.4686 69.0584H20.825C20.825 69.1188 21.0375 69.2249 20.7865 69.2305C20.5356 69.2367 20.326 69.2305 20.0662 69.2305C20.1547 69.021 20.3466 69.1762 20.4382 69.0553H19.7975C19.7709 69.1101 20.0278 69.2162 19.7975 69.2223C19.3428 69.2223 18.8821 69.3658 18.4038 69.1731C18.519 69.0614 18.6607 69.1388 18.7759 69.084C18.7522 69.0671 18.7434 69.0497 18.7287 69.0471C18.5102 69.0179 18.2444 69.1332 18.0821 68.9836C17.9197 68.8345 18.1116 68.5988 18.0821 68.4087C18.0378 68.1504 18.1086 67.8973 17.9108 67.636C17.7337 67.4203 17.9521 67.1908 18.1883 67.0586Z" fill="black"/>
<path d="M8.026 70.4864C8.47645 70.5089 8.92784 70.5089 9.37828 70.4864C9.69125 70.4459 9.88019 70.3137 9.79456 70.0263C9.72207 69.6128 9.7082 69.1911 9.75326 68.7736C9.75326 68.5148 9.91564 68.2735 9.88906 67.9978C9.88906 67.9317 9.95989 67.943 10.0012 67.9978C9.90084 68.0895 9.94809 68.213 9.94809 68.3196C9.94809 68.9831 9.93333 69.6471 9.94809 70.3081C9.94809 70.5607 9.86834 70.6268 9.62033 70.6155C9.16269 70.5981 8.70508 70.6155 8.24744 70.6155C8.14706 70.6099 8.00238 70.6698 8.026 70.4864Z" fill="black"/>
<path d="M64.9481 62.5261C64.8066 62.6414 64.7359 62.3253 64.5233 62.4862C64.3829 62.5692 64.2666 62.686 64.1867 62.8254C64.1155 62.6988 64.054 62.5671 64.0033 62.4314C63.9894 62.376 63.9874 62.3181 63.9966 62.2613C64.0063 62.2049 64.0273 62.1506 64.0586 62.1024C64.0898 62.0538 64.1313 62.0117 64.1795 61.9789C64.2277 61.9462 64.2825 61.9231 64.3399 61.9113C64.3896 61.8975 64.4418 61.8939 64.4931 61.9011C64.5438 61.9082 64.593 61.9262 64.6365 61.9533C64.6796 61.9805 64.7165 62.0169 64.7446 62.0589C64.7723 62.1014 64.7902 62.149 64.7979 62.1987C64.821 62.3176 64.8727 62.4298 64.9481 62.5261Z" fill="black"/>
<path d="M18.2524 63.7365V63.6966C18.3469 63.5526 18.4916 63.61 18.6215 63.6156C18.8355 63.6469 19.0526 63.6535 19.2682 63.6361C19.4522 63.61 19.6391 63.61 19.8232 63.6361C19.9797 63.6013 20.1391 63.7165 20.2956 63.6361C20.5666 63.6028 20.8412 63.6084 21.1105 63.653C21.1814 63.653 21.2552 63.6878 21.3231 63.6361C21.5931 63.6028 21.8667 63.6089 22.135 63.653C22.2059 63.653 22.2797 63.6878 22.3476 63.6361C22.4155 63.5843 22.4834 63.5956 22.5365 63.5613C22.7491 63.4204 22.7373 63.5613 22.7344 63.7022C22.699 63.7022 22.6605 63.7478 22.6251 63.7478L18.2524 63.7365Z" fill="black"/>
<path d="M47.7237 65.7649C47.6106 65.3355 47.6035 64.8867 47.703 64.4542C47.7169 64.3641 47.7248 64.2729 47.7267 64.1812C47.9146 64.6935 47.9136 65.253 47.7237 65.7649Z" fill="black"/>
<path d="M56.631 67.081C56.631 66.8341 56.6457 66.584 56.631 66.3396C56.6162 66.0958 56.7431 65.9087 56.4715 65.7192C56.3652 65.6444 56.4035 65.3282 56.5069 65.1443C56.7455 65.7637 56.7888 66.438 56.631 67.081Z" fill="black"/>
<path d="M29.9717 68.2447C29.8654 68.2995 29.9924 68.4 29.9156 68.4835C29.8524 68.4333 29.7759 68.4015 29.6949 68.3918C29.6139 68.382 29.5317 68.3948 29.458 68.4287C29.5259 68.3544 29.6026 68.2821 29.6676 68.2017C29.8005 68.0321 29.8979 68.0495 29.9717 68.2447Z" fill="black"/>
<path d="M30.7345 68.9954C30.7345 69.021 30.6931 69.0441 30.6872 69.0697C30.6666 69.1676 30.7079 69.2885 30.5809 69.3372C30.5189 69.3602 30.5012 69.2967 30.4806 69.248C30.4304 69.1276 30.3831 69.0154 30.5426 68.935C30.5682 68.917 30.592 68.8971 30.6134 68.8745C30.6456 68.876 30.6759 68.8894 30.6984 68.9114C30.7209 68.9339 30.7337 68.9637 30.7345 68.9954Z" fill="black"/>
<path d="M70.2748 66.1959C70.1062 65.8428 70.4459 65.7163 70.5991 65.5037C70.5366 65.7522 70.4265 65.9868 70.2748 66.1959Z" fill="black"/>
<path d="M27.1548 63.702C27.4648 63.5928 27.8043 63.5928 28.1143 63.702H27.1548Z" fill="black"/>
<path d="M30.3511 68.6188C30.0706 68.7279 30.168 68.4692 30.1001 68.3718C30.158 68.3923 30.2105 68.4251 30.2539 68.4676C30.2973 68.5107 30.3305 68.5619 30.3511 68.6188Z" fill="black"/>
<path d="M30.9285 67.4377C30.9817 67.4972 31.0211 67.5674 31.0441 67.6432C31.067 67.719 31.0729 67.799 31.0613 67.8773C30.974 67.7462 30.9279 67.5935 30.9285 67.4377Z" fill="black"/>
<path d="M56.1258 64.2535C56.0635 64.2274 56.0108 64.1833 55.9745 64.1274C55.9382 64.0716 55.9199 64.0065 55.922 63.9404C56.0208 64.0224 56.0918 64.1315 56.1258 64.2535Z" fill="black"/>
<path d="M13.7036 62.4601C13.5914 62.4601 13.4911 62.4601 13.4468 62.331C13.4974 62.3294 13.5476 62.3402 13.5925 62.3627C13.6375 62.3853 13.6758 62.4191 13.7036 62.4601Z" fill="black"/>
<path d="M30.8615 67.1272C30.9856 67.2102 30.9206 67.3342 30.9324 67.4403C30.8724 67.347 30.8474 67.2363 30.8615 67.1272Z" fill="black"/>
<path d="M39.9868 65.6214C39.6089 63.7594 38.4574 62.518 36.5737 62.0497C34.69 61.5814 33.0602 62.1183 31.8113 63.5781C31.3853 64.0607 31.0782 64.6315 30.9134 65.2469C30.7487 65.8627 30.7306 66.5068 30.8606 67.1298C30.958 67.2189 30.8606 67.3486 30.9314 67.4434C30.9851 67.5868 31.0294 67.7339 31.0643 67.883C31.3065 68.6023 31.7454 69.2438 32.3339 69.7393C32.8679 70.1784 33.4804 70.5186 34.1408 70.742H36.7036C36.7745 70.6528 36.8896 70.6528 36.9988 70.6185C38.0238 70.2639 38.8865 69.5676 39.4336 68.6525C39.9806 67.738 40.1767 66.6635 39.9868 65.6214ZM35.4015 69.0696C34.6813 69.0522 33.9974 68.7581 33.4995 68.2514C33.0015 67.7446 32.73 67.0668 32.7443 66.3659C32.7384 66.0144 32.8045 65.666 32.9388 65.3396C33.0731 65.0137 33.2728 64.7171 33.5263 64.4675C33.7798 64.2175 34.0819 64.0192 34.4151 63.8845C34.7483 63.7492 35.1057 63.6805 35.4665 63.6816C35.8245 63.6893 36.1774 63.7656 36.5051 63.906C36.8327 64.0469 37.1285 64.2493 37.3755 64.5014C37.6224 64.754 37.8157 65.0511 37.9441 65.3765C38.0725 65.7018 38.1336 66.0487 38.1238 66.3971C38.1265 66.7471 38.0581 67.0939 37.9226 67.4177C37.787 67.7416 37.587 68.0362 37.334 68.2847C37.081 68.5332 36.78 68.7304 36.4483 68.8652C36.1167 68.9999 35.7609 69.0691 35.4015 69.0696Z" fill="black"/>
<path d="M47.7385 65.13C47.7548 64.8144 47.7548 64.4978 47.7385 64.1816C47.5848 63.6052 47.2424 63.0923 46.763 62.7219C46.2836 62.3515 45.6933 62.1424 45.0813 62.127C43.664 62.1071 42.2439 62.127 40.8237 62.127C40.6053 62.127 40.555 62.2019 40.558 62.4145C40.5727 62.8285 40.558 63.242 40.558 63.659C40.558 65.8771 40.558 68.0987 40.558 70.3198C40.558 70.5811 40.6377 70.6559 40.9005 70.6446C41.3257 70.6241 41.7537 70.6241 42.1789 70.6446C42.4299 70.6446 42.4741 70.5667 42.4741 70.3398C42.4594 69.7393 42.4741 69.1388 42.4741 68.5352V68.0638L42.5716 68.0239C43.3009 68.7478 44.0479 69.4605 44.7565 70.2045C44.8903 70.3618 45.0619 70.4848 45.256 70.5626C45.4501 70.64 45.6607 70.6702 45.8695 70.6503C46.4778 70.6098 47.0919 70.6503 47.706 70.6503L47.7444 70.5724L44.9927 67.9029C46.3774 67.7421 47.3547 67.1242 47.7356 65.8022C47.709 65.5527 47.7622 65.3339 47.7385 65.13ZM44.7418 66.2449C44.4022 66.2624 44.0596 66.2449 43.7201 66.2449C43.3776 66.2449 43.0381 66.2449 42.6985 66.2449C42.5155 66.2449 42.4565 66.1875 42.4594 66.0123C42.4594 65.3514 42.4594 64.6873 42.4594 64.0269C42.4594 63.8573 42.5096 63.7851 42.6927 63.7881C43.3747 63.7881 44.0567 63.7881 44.7388 63.7881C44.8991 63.7876 45.0578 63.8184 45.2058 63.8788C45.3536 63.9388 45.4877 64.0274 45.6 64.1386C45.7122 64.2503 45.8004 64.3825 45.8594 64.5275C45.9184 64.6725 45.9469 64.8277 45.9434 64.9835C45.9497 65.1433 45.9236 65.3027 45.8667 65.4523C45.8097 65.6019 45.7229 65.7397 45.6113 65.8566C45.4997 65.9739 45.3654 66.0687 45.2162 66.1353C45.067 66.2019 44.9058 66.2393 44.7418 66.2449Z" fill="black"/>
<path d="M40.7985 69.0175C40.7985 69.3479 40.7985 69.6784 40.7985 70.0089C40.7985 70.0724 40.8458 70.1728 40.7336 70.1841C40.6214 70.1959 40.6096 70.118 40.6096 70.035V67.8969C40.6096 67.8339 40.6096 67.7622 40.707 67.7647C40.8044 67.7678 40.7985 67.8395 40.7985 67.9025V69.0175Z" fill="black"/>
<path d="M40.6284 63.9634V62.8142C40.7997 63.1877 40.7141 63.5725 40.7318 63.9634H40.6284Z" fill="black"/>
<path d="M12.6798 67.8226C13.2055 67.7791 13.7086 67.5946 14.1337 67.2903C14.5588 66.9864 14.8894 66.574 15.0891 66.0985C15.7298 64.7279 15.0448 62.9546 13.7043 62.4433C13.6187 62.4003 13.5154 62.3915 13.4475 62.3142C13.2137 62.1876 12.9502 62.1225 12.6828 62.1246C11.1918 62.1246 9.70076 62.1246 8.20678 62.1072C7.99125 62.1072 8.00005 62.2194 8.00005 62.3628C8.00005 63.0699 8.00005 63.7739 8.00005 64.4779V70.4777C8.4109 70.5658 8.8337 70.5879 9.25192 70.5438C9.78928 70.5238 9.89562 70.4147 9.82476 69.8803C9.79223 69.2665 9.81296 68.6511 9.88675 68.0409C9.88675 67.9922 9.9281 67.9748 9.97534 67.9922C10.8198 68.8141 11.6622 69.6384 12.5026 70.4664C12.5498 70.5146 12.6073 70.5525 12.6711 70.5766C12.7349 70.6012 12.8033 70.6114 12.8717 70.6068C13.5655 70.6068 14.2594 70.6068 14.9533 70.6068C15.0182 70.6068 15.1068 70.6442 15.154 70.5151L12.4791 67.8426C12.5263 67.8139 12.606 67.8313 12.6798 67.8226ZM9.94283 66.2481C9.75387 65.9863 9.82771 65.6732 9.82771 65.4032C9.80462 64.9293 9.82436 64.4543 9.88675 63.9835C9.91037 63.8687 9.91624 63.7908 10.0639 63.7908C10.8758 63.7908 11.6848 63.7908 12.4967 63.7908C12.5144 63.7908 12.5293 63.8113 12.547 63.8226C12.804 63.9133 13.0247 64.0808 13.1776 64.3011C13.3304 64.522 13.4073 64.7838 13.3973 65.0497C13.3903 65.3684 13.2549 65.6717 13.0201 65.8946C12.7854 66.117 12.4701 66.2409 12.1424 66.2394C11.4073 66.2563 10.6839 66.2481 9.94283 66.2481Z" fill="black"/>
<path d="M12.5491 63.8311C11.7519 63.765 10.9547 63.8168 10.1575 63.7994C9.99514 63.7994 9.92723 63.848 9.93018 64.012C9.93018 64.756 9.93018 65.5004 9.93018 66.2474C9.85557 66.2085 9.79497 66.148 9.75646 66.0748C9.71795 66.0015 9.70336 65.9185 9.71465 65.8365C9.71465 65.4026 9.71465 64.9747 9.71465 64.532C9.71465 64.2938 9.90066 64.0981 9.85933 63.8511C9.85933 63.7819 9.93609 63.762 10.004 63.762H12.4605C12.5048 63.7763 12.5255 63.8106 12.5491 63.8311Z" fill="black"/>
<path d="M56.4947 65.1331C56.3353 64.8457 56.3353 64.5121 56.1257 64.2534C56.0223 64.1729 55.9958 64.0407 55.922 63.9403C55.6292 63.4869 55.241 63.0985 54.783 62.8013C54.325 62.5042 53.8075 62.3048 53.2647 62.2162C51.815 61.9892 50.3476 62.1445 48.8861 62.1332C48.7267 62.1732 48.7326 62.2941 48.7208 62.4201C48.6824 62.9376 48.7976 63.4464 48.7917 63.9634C48.7769 65.317 48.7917 66.6702 48.7327 68.0239C48.6943 68.4865 48.7091 68.9518 48.7769 69.4114C48.825 69.6778 48.817 69.9504 48.7533 70.2132C48.6706 70.5468 48.7001 70.578 49.0663 70.5698C50.2 70.5268 51.3308 70.5381 52.4617 70.5698C52.6179 70.597 52.7778 70.597 52.9341 70.5698C53.509 70.5324 54.0647 70.3536 54.5491 70.0498C55.1091 69.7485 55.5897 69.3248 55.9529 68.8124C56.3161 68.2995 56.5521 67.7118 56.6424 67.0955C56.6651 66.9945 56.6731 66.891 56.666 66.788C56.7251 66.2162 56.5597 65.6788 56.4947 65.1331ZM54.8118 66.5206C54.7709 67.1641 54.4845 67.7697 54.0088 68.2186C53.5331 68.6669 52.9023 68.9267 52.2402 68.9461C51.7796 68.9461 51.322 68.9461 50.8644 68.9461C50.6488 68.9461 50.5926 68.88 50.5926 68.6787C50.5926 67.9117 50.5926 67.1441 50.5926 66.3802C50.5926 65.6158 50.5926 64.8657 50.5926 64.1099C50.5926 63.886 50.6399 63.7912 50.8879 63.8225C51.4784 63.8573 52.0837 63.7682 52.6742 63.8799C53.2954 64.0003 53.8521 64.3323 54.244 64.8165C54.6359 65.3006 54.8373 65.9047 54.8118 66.5206Z" fill="black"/>
</svg>
