<svg width="80" height="80" viewBox="0 0 80 80" fill="none" xmlns="http://www.w3.org/2000/svg">
<path fill-rule="evenodd" clip-rule="evenodd" d="M43.6447 32.0933C42.0092 32.0933 40.8027 33.5835 40.8027 35.4561C40.8073 37.4531 41.8976 39.0124 43.6447 39.0124C45.392 39.0124 46.4825 37.4531 46.4825 35.4561C46.4825 33.5835 45.2805 32.0933 43.6447 32.0933ZM42.0306 35.4517C42.0306 36.7361 42.4472 38.0546 43.6447 38.0546C44.8383 38.0546 45.2589 36.7361 45.2589 35.4517C45.2589 34.2192 44.7825 33.0425 43.6447 33.0425C42.5071 33.0425 42.0306 34.2192 42.0306 35.4517Z" fill="black"/>
<path d="M59.3659 37.9989H61.6283V38.8964H58.2241V32.2048H59.3659V37.9989Z" fill="black"/>
<path fill-rule="evenodd" clip-rule="evenodd" d="M38.6818 44.1147C38.6818 46.1118 37.5916 47.6708 35.8445 47.6708C34.0929 47.6708 33.0024 46.1118 33.0066 44.1147C33.0066 42.2378 34.2087 40.7473 35.8445 40.7473C37.48 40.7473 38.6818 42.2421 38.6818 44.1147ZM35.8445 41.7055C36.9821 41.7055 37.4584 42.8819 37.4584 44.1147C37.4542 45.3945 37.0336 46.7133 35.8445 46.7133C34.6468 46.7133 34.2257 45.3945 34.2257 44.1147C34.2257 42.8819 34.7024 41.7055 35.8445 41.7055Z" fill="black"/>
<path d="M42.2322 46.7133C42.537 46.7133 42.7948 46.6788 43.0351 46.5497V44.4971H44.1815V47.2587C43.5673 47.4991 42.9321 47.6707 42.2795 47.6707C40.3133 47.6707 39.0684 46.142 39.0684 44.1706C39.0684 42.3452 40.3133 40.7476 42.3181 40.7476C42.9406 40.7476 43.559 40.9793 43.9407 41.2628L43.5673 42.0574C43.2626 41.8683 42.7861 41.7055 42.3483 41.7055C41.1247 41.7055 40.2917 42.6715 40.2917 44.1922C40.2917 45.7769 41.2491 46.7133 42.2322 46.7133Z" fill="black"/>
<path d="M70.4889 46.7133C69.3814 46.7133 68.4455 45.7769 68.4455 44.1922C68.4455 42.6715 69.2912 41.7055 70.4587 41.7055C70.9011 41.7055 71.3563 41.9072 71.6351 42.0787L72 41.2628C71.6051 40.9966 71.0512 40.7476 70.4587 40.7476C68.4625 40.7476 67.2307 42.3452 67.2307 44.1706C67.2307 46.142 68.4711 47.6707 70.4417 47.6707C70.9956 47.6707 71.6051 47.4518 71.9528 47.2115L71.6351 46.3781C71.2917 46.5973 70.8969 46.7133 70.4889 46.7133Z" fill="black"/>
<path d="M65.3372 47.5548H66.4748V40.8633H65.3372V47.5548Z" fill="black"/>
<path d="M60.7137 43.4359H63.0964V40.8846H64.2426V47.5548H63.0964V44.3335H60.7137V47.5548H59.5803V40.8633H60.7137V43.4359Z" fill="black"/>
<path fill-rule="evenodd" clip-rule="evenodd" d="M56.7297 45.0295C58.0992 45.0295 58.9276 43.9212 58.9276 42.7918C58.9276 41.4944 58.1335 40.8633 56.8543 40.8633H55.0684V47.5548H56.2147V45.0295H56.7297ZM57.7814 42.839C57.7814 42.1517 57.3994 41.761 56.7297 41.761H56.2147V44.1961C56.2341 44.1951 56.2648 44.1939 56.3019 44.1924H56.302C56.4203 44.1876 56.6039 44.1803 56.6954 44.1704C57.2408 44.1404 57.7814 43.7408 57.7814 42.839Z" fill="black"/>
<path fill-rule="evenodd" clip-rule="evenodd" d="M54.7035 47.5548L52.5699 40.8633H51.6171L49.3032 47.5548H50.2947L50.8785 45.7292H52.8963L53.42 47.5548H54.7035ZM52.7243 44.909C52.6627 44.6896 52.6013 44.4746 52.5402 44.2596C52.3547 43.6082 52.1691 42.9568 51.969 42.182H51.9518C51.7552 43.0276 51.5417 43.7243 51.3248 44.4312L51.3246 44.432L51.3245 44.4324L51.3243 44.4327L51.3242 44.4333L51.3238 44.4341L51.3237 44.4349L51.3234 44.4358L51.3229 44.4374L51.3226 44.4382C51.2749 44.5941 51.227 44.7504 51.1789 44.909H52.7243Z" fill="black"/>
<path fill-rule="evenodd" clip-rule="evenodd" d="M49.2858 47.5548L47.9378 44.7845C48.6718 44.3938 49.097 43.5992 49.097 42.7961C49.097 41.4944 48.3028 40.8633 47.0233 40.8633H45.2375V47.5548H46.3881V45.0295H46.9031L47.9808 47.5548H49.2858ZM47.9504 42.839C47.9504 42.1517 47.5688 41.761 46.8904 41.761H46.3838V44.1961C46.4238 44.1924 46.4947 44.1888 46.5718 44.1849C46.6767 44.1795 46.7936 44.1736 46.8604 44.1661C47.4054 44.1361 47.9504 43.7367 47.9504 42.839Z" fill="black"/>
<path d="M30.3924 44.4923H32.2643V43.5949H30.3924V41.761H32.3027V40.8633H29.2417V47.5548H32.6462V46.6529H30.3924V44.4923Z" fill="black"/>
<path d="M27.0566 46.5497C26.8161 46.6788 26.5587 46.7133 26.2539 46.7133C25.2707 46.7133 24.3134 45.7769 24.3134 44.1922C24.3134 42.6715 25.146 41.7055 26.3697 41.7055C26.8075 41.7055 27.2884 41.8683 27.593 42.0574L27.9667 41.2628C27.5847 40.9793 26.9623 40.7476 26.3438 40.7476C24.335 40.7476 23.094 42.3452 23.094 44.1706C23.094 46.142 24.3347 47.6707 26.3054 47.6707C26.9535 47.6707 27.593 47.4991 28.2072 47.2587V44.4971H27.0566V46.5497Z" fill="black"/>
<path fill-rule="evenodd" clip-rule="evenodd" d="M53.4885 38.8964H52.4927L54.8065 32.2048H55.7554L57.8887 38.8964H56.6095L56.0861 37.071H54.0681L53.4885 38.8964ZM55.9185 36.2509H54.3687C54.4105 36.1146 54.4523 35.98 54.4939 35.8459V35.8457C54.7208 35.1135 54.9424 34.3984 55.1459 33.5233H55.1628C55.3681 34.3216 55.5581 34.9869 55.7484 35.6534L55.7485 35.6537C55.805 35.8514 55.8615 36.0494 55.9185 36.2509Z" fill="black"/>
<path d="M48.0966 38.9007H47.1821V32.2048H48.0149C49.1054 33.7339 50.1829 35.2543 51.252 36.9765H51.2733V32.2048H52.1921L52.1877 38.9007H51.3551L51.3395 38.8786C50.2541 37.344 49.1774 35.8216 48.105 34.099H48.0966V38.9007Z" fill="black"/>
<path d="M40.1074 38.8964H38.97V32.2048H40.1074V38.8964Z" fill="black"/>
<path d="M35.6941 38.9007L36.8403 38.8964V33.1025H38.596V32.2048H33.9338V33.1025H35.6941V38.9007Z" fill="black"/>
<path fill-rule="evenodd" clip-rule="evenodd" d="M32.8091 37.071L33.333 38.8964H34.6166L32.483 32.2048H31.5299L29.2202 38.8964H30.212L30.7914 37.071H32.8091ZM32.6416 36.2509C32.585 36.0504 32.5288 35.8535 32.4726 35.6567C32.2819 34.9891 32.0918 34.323 31.8863 33.5233H31.8647C31.6683 34.3687 31.4549 35.0648 31.2383 35.7712C31.1897 35.9299 31.1408 36.0893 31.0919 36.2509H32.6416Z" fill="black"/>
<path d="M27.9883 36.9765V32.2048H28.9068L28.9112 38.9007H28.0827L28.067 38.8785C26.9818 37.344 25.9051 35.8215 24.8327 34.099H24.8243V38.9007H23.9058V32.2048H24.7338C25.8245 33.7339 26.902 35.2543 27.9712 36.9765H27.9883Z" fill="black"/>
<path fill-rule="evenodd" clip-rule="evenodd" d="M21.1025 49.3888H8V30.6113H21.1025V49.3888ZM19.2005 47.499H9.8847V32.5012H19.2005V47.499Z" fill="#FFCC00"/>
</svg>
