<svg width="80" height="80" viewBox="0 0 80 80" fill="none" xmlns="http://www.w3.org/2000/svg">
<path fill-rule="evenodd" clip-rule="evenodd" d="M45.4553 33.905H54.1967C55.5779 33.905 57.0085 34.5541 56.7259 36.7993C56.6742 37.2021 56.6603 37.3257 56.6603 37.3257H45.0412L45.4553 33.905ZM41.6391 33.9047C43.8681 33.9047 44.4808 35.2288 44.3032 36.6892C44.2686 36.9726 44.224 37.3257 44.224 37.3257H20.5908C20.6326 36.9911 20.6733 36.6562 20.7127 36.3212C20.882 34.8714 22.0848 33.9022 23.9012 33.9045C24.8586 33.9057 41.6391 33.9049 41.6391 33.9049V33.9047ZM9.47814 33.9051H20.1944L19.781 37.3257H9.06348L9.47814 33.9049V33.9051ZM52.4964 38.6283L51.5898 46.0939L55.5984 46.0926L56.5043 38.6297L52.4964 38.6281V38.6283ZM43.9758 46.0939L44.8812 38.6283V38.6281L48.8907 38.6297L47.9845 46.0926L43.9758 46.0939ZM32.9097 38.6295L32.0043 46.0943H36.0108L36.575 41.4586H41.6073C43.0346 41.4586 43.8018 40.6818 43.944 39.6385C43.9898 39.3027 44.0307 38.9665 44.0675 38.6295H32.9097ZM31.7384 41.848C31.7554 41.7049 31.7687 41.5915 31.778 41.5227C32.0903 39.1881 30.4939 38.6317 29.2368 38.6317C28.9486 38.6317 27.6149 38.6313 26.0564 38.6308C23.8666 38.6302 21.2331 38.6295 20.4335 38.6295C20.1396 40.5777 21.1026 41.4584 22.4677 41.4584C23.2102 41.4584 27.89 41.4564 27.89 41.4564L27.7207 42.8549L19.9217 42.8555L19.5287 46.0939C19.5287 46.0939 28.0198 46.0968 28.364 46.0939C28.3757 46.0931 28.3902 46.0921 28.4074 46.091C28.8087 46.0661 30.6622 45.9509 31.3105 44.3735C31.4923 43.9311 31.6566 42.5404 31.7384 41.848ZM19.2789 41.4585L19.6225 38.6295H8.90693L8 46.0942H18.717L19.1119 42.8559L12.4013 42.8551L12.5708 41.4585H19.2789Z" fill="#FF2925"/>
<path d="M60.2016 42.818H67.651L67.8226 41.363H61.7822L62.0885 38.571H68.1289L68.3003 37.2602H60.8143L61.194 33.9045H68.9865C70.2485 33.9045 70.6895 33.9832 71.1674 34.2847C71.8167 34.7041 72.0863 35.4382 71.976 36.4213L71.7799 38.1122C71.6574 39.1215 71.2899 39.6065 70.2852 40.144C71.1919 40.7076 71.4124 41.2057 71.2777 42.3986L71.1429 43.5127C70.9223 45.3348 69.8809 46.0951 67.6387 46.0951H59.8096L60.2016 42.818Z" fill="#FF2925"/>
</svg>
