<svg width="80" height="80" viewBox="0 0 80 80" fill="none" xmlns="http://www.w3.org/2000/svg">
<path fill-rule="evenodd" clip-rule="evenodd" d="M39.9967 52.8922H71.9901V20.8H39.9967V52.8922Z" fill="white"/>
<path fill-rule="evenodd" clip-rule="evenodd" d="M69.7047 50.6001V23.093H60.5633V34.5536L51.4212 23.093H42.2794V50.6001H51.4221V39.1387L60.5642 50.6001H69.7047Z" fill="black"/>
<path fill-rule="evenodd" clip-rule="evenodd" d="M72 58.0279V59.113H71.7933V58.3799C71.7933 58.3581 71.7965 58.3296 71.7965 58.2896V58.201L71.5946 59.113H71.3802L71.1814 58.201V59.113H70.9763V58.0279H71.2989L71.4912 58.8839L71.6822 58.0279H71.6829H72ZM48.2541 55.1277H52.1405V56.2903H50.9245V59.113H49.4685V56.2893H48.2541V55.1277ZM66.9507 55.1277V56.434L67.9174 55.1277H69.5798L68.0714 57.0452L69.5798 59.113H67.9174L66.9507 57.6288V59.113H65.657V55.1277H66.9507ZM63.7965 55.1277C64.6938 55.1277 65.2515 55.8154 65.2515 56.5396C65.2515 57.0826 64.9322 57.5524 64.4806 57.7882L65.2515 59.113H63.8045L63.2352 57.9508H62.8237V59.113H61.5283V55.1277H63.7965ZM63.632 56.2903H62.8237V56.9543H63.632C63.8109 56.9543 63.9562 56.8064 63.9578 56.6224C63.9571 56.4397 63.8115 56.2903 63.632 56.2903ZM59.121 55.0448C60.24 55.0464 61.145 55.9764 61.1437 57.121C61.145 58.2653 60.24 59.1943 59.121 59.1959C58.0019 59.1943 57.0973 58.2644 57.0989 57.121C57.0973 55.9773 58.0019 55.0474 59.121 55.0448ZM53.7578 55.1277L54.0813 56.8788L54.7306 55.2676L55.376 56.8788L55.7018 55.1277H57.0061L56.2643 59.1146H55.1875L54.7306 58.041L54.2698 59.1146H53.1952L52.4544 55.1277H53.7578ZM70.8499 58.0272V58.2199H70.5338V59.113H70.3104V58.2199H69.9939V58.0279L70.8499 58.0272ZM47.8298 55.1287V56.2903L45.7235 56.2893V56.6372H47.5062V57.6346H45.7235V58.0352H47.8298V59.113H44.4314V55.1287H47.8298ZM59.1184 56.3748C58.7162 56.3748 58.3898 56.7088 58.3898 57.121C58.3904 57.5338 58.7171 57.8679 59.121 57.8685C59.5229 57.8685 59.848 57.5344 59.848 57.121C59.848 56.7088 59.5213 56.3748 59.1184 56.3748ZM34.8082 55.1319L36.1037 56.7917V55.1319H37.3983V59.1178H36.1045L34.809 57.4573V59.1178H33.5143V55.1319H34.8082ZM41.2944 55.1277L42.5888 56.7885V55.1277H43.8835V59.113H42.5888L41.295 57.4532V59.113H39.9996V55.1277H41.2944ZM31.1062 55.048C32.2252 55.0496 33.1313 55.9789 33.1297 57.1242C33.1305 58.2695 32.2244 59.1984 31.1046 59.2C29.9856 59.1975 29.0796 58.2685 29.0812 57.1242C29.0796 55.9789 29.9848 55.0496 31.1046 55.048H31.1062ZM31.1062 56.3786C30.7033 56.3786 30.3774 56.712 30.3774 57.1242L30.3829 57.2186C30.4271 57.5863 30.7327 57.8711 31.1046 57.872C31.5084 57.8711 31.835 57.537 31.835 57.1242C31.835 56.712 31.5084 56.3786 31.1062 56.3786ZM26.7358 55.048C27.854 55.0506 28.7585 55.9796 28.7561 57.1242C28.7585 58.2685 27.8524 59.1975 26.7334 59.2C25.6144 59.1968 24.7099 58.2679 24.7123 57.1242C24.7099 55.9789 25.6152 55.0506 26.7334 55.048H26.7358ZM10.0195 55.04C10.7467 55.041 11.4167 55.44 11.7759 56.0871L10.7213 56.7111C10.5822 56.4624 10.3247 56.2951 10.0259 56.2951C9.58239 56.2957 9.22396 56.664 9.22475 57.1175C9.22634 57.4077 9.37814 57.6759 9.62372 57.8224C10.0068 58.05 10.498 57.9175 10.7213 57.5255L11.7767 58.1466C11.4175 58.7936 10.7475 59.1936 10.0203 59.1936H10.0195C8.90048 59.1904 7.99684 58.2605 8.00001 57.1168C7.99763 55.9732 8.90128 55.0442 10.0195 55.04ZM24.5478 55.1309V56.2941H23.3358V59.1178H21.8758V56.2941H20.6646V55.1309H24.5478ZM18.8636 55.1319C19.7617 55.1319 20.3212 55.8196 20.3212 56.5431C20.3212 57.0858 19.9994 57.5556 19.5487 57.793L20.3212 59.1178H18.8724L18.3033 57.9556H17.894V59.1178H16.597V55.1319H18.8636ZM15.0051 55.1309L16.2203 59.1178H14.8429L14.657 58.4516H13.4171L13.2312 59.1178H11.8483L13.0643 55.1309H15.0051ZM26.7366 56.3786C26.3336 56.378 26.0054 56.7111 26.0046 57.1232C26.0038 57.5364 26.3305 57.8711 26.7334 57.872C27.1364 57.8727 27.4638 57.5386 27.4646 57.1274C27.4654 56.7146 27.1395 56.3796 26.7366 56.3786ZM14.0347 56.2324L13.6937 57.4567H14.3756L14.0347 56.2324ZM18.7031 56.2925H17.894V56.9591H18.7031C18.8811 56.9591 19.0242 56.8096 19.0242 56.626C19.0242 56.4429 18.8811 56.2925 18.7031 56.2925Z" fill="black"/>
<path fill-rule="evenodd" clip-rule="evenodd" d="M39.9967 52.8922H8V20.8H39.9967V52.8922ZM29.3565 39.4048C28.4451 41.0103 26.7424 42.0029 24.8962 42.0037C22.0575 42.0037 19.7542 39.6939 19.7542 36.8464C19.7542 33.9981 22.0575 31.6892 24.8962 31.6892C26.7419 31.69 28.4458 32.683 29.357 34.2882L37.2969 29.74C34.8333 25.4283 30.2058 22.5191 24.8962 22.5191C17.0084 22.5191 10.6145 28.9338 10.6145 36.8464C10.6145 44.7591 17.0084 51.1746 24.8954 51.1746C30.205 51.1746 34.8333 48.267 37.2961 43.9544L29.3565 39.4048Z" fill="black"/>
<path d="M29.357 39.4038L29.3564 39.4048L29.357 39.4038Z" fill="white"/>
<path d="M24.8962 42.0037C26.7423 42.0029 28.4451 41.0103 29.3564 39.4048L37.2961 43.9544C34.8333 48.2669 30.2049 51.1746 24.8954 51.1746C17.0084 51.1746 10.6145 44.759 10.6145 36.8464C10.6145 28.9338 17.0084 22.519 24.8962 22.519C30.2057 22.519 34.8333 25.4283 37.2969 29.74L29.357 34.2882C28.4458 32.6829 26.7419 31.6899 24.8962 31.6891C22.0575 31.6891 19.7541 33.9981 19.7541 36.8464C19.7541 39.6939 22.0575 42.0037 24.8962 42.0037Z" fill="white"/>
</svg>
