<svg width="80" height="80" viewBox="0 0 80 80" fill="none" xmlns="http://www.w3.org/2000/svg">
<path fill-rule="evenodd" clip-rule="evenodd" d="M37.3716 43.01L30.4457 37.2248V48.2424H8.00041V9.02393H29.8516L37.3716 16.8728L44.8916 9.02393H66.8575V25.7935C66.1632 26.8572 64.0394 30.4621 62.6104 34.1422C62.5403 34.3219 62.4762 34.4943 62.4158 34.6573L62.4153 34.6575C62.0702 35.5852 61.8357 36.2139 61.312 36.2139C60.6489 36.2139 60.5813 35.5789 60.5189 34.9933L60.5153 34.9578C60.377 33.6699 60.0857 31.261 59.9511 30.3742C59.6889 28.6588 59.3454 26.8434 57.4143 26.8434C55.9838 26.8434 54.4823 27.6199 54.4823 29.7437C54.4823 30.9453 55.0968 33.035 56.1463 35.7815C56.3727 36.3745 57.1336 38.3538 57.8283 40.161C58.4037 41.658 58.9338 43.0369 59.0771 43.4119C59.6577 44.9312 60.4656 45.3449 61.7216 45.3449C63.3303 45.3449 63.8868 44.7588 64.5473 42.5223C65.1105 40.6149 66.0649 37.5071 66.8575 35.5602V48.2424H53.1587C53.0414 47.2649 52.8999 45.8522 52.8999 44.6091C52.8999 44.334 52.9134 43.762 52.9307 43.0264C52.962 41.7015 53.0057 39.8459 53.0057 38.2389C53.0057 37.1768 52.8888 35.698 52.7728 34.2317C52.6589 32.79 52.5458 31.3603 52.5458 30.351C52.5456 29.9983 52.553 29.6094 52.5605 29.2203C52.5788 28.2605 52.5972 27.3003 52.5003 26.884C52.9656 26.5859 53.4031 26.3381 54.0219 25.9875C54.7118 25.5967 55.6273 25.0781 57.0582 24.2196C57.1318 24.1754 57.211 24.1287 57.2943 24.0796C58.2061 23.5414 59.6142 22.7104 59.6142 21.7265C59.6142 21.2505 59.4877 20.9398 58.8035 20.3833C58.3272 20.0054 57.8156 19.8963 57.2367 19.8963C56.3533 19.8963 55.7786 20.4579 55.1759 21.0468C54.8358 21.3791 54.487 21.72 54.0687 21.9738C52.3026 23.0449 51.3643 23.5753 51.0016 23.7742C50.9856 23.7671 50.9642 23.7565 50.9375 23.7433C50.7199 23.6359 50.1491 23.354 49.2863 23.354C48.2763 23.354 47.0997 23.8047 47.0997 25.1056C47.0995 25.2028 47.1045 25.3011 47.1094 25.3995C47.135 25.908 47.1607 26.4179 46.4863 26.7693C46.2984 26.8875 45.8055 27.1734 45.1247 27.5683C44.1748 28.1193 42.8592 28.8823 41.4959 29.6981C40.297 30.4153 39.4869 30.6622 38.8492 30.8567C38.4365 30.9825 38.096 31.0863 37.7691 31.2813C36.9999 31.7422 36.7993 32.3158 36.7993 32.8129C36.7993 33.2554 37.0795 33.8107 37.1792 33.9355C37.7085 34.6076 38.1847 34.9732 39.0205 34.9732C40.0927 34.9732 41.0283 34.2672 42.3706 33.2544C42.7981 32.9319 43.2668 32.5782 43.7942 32.2064C44.0108 32.0535 44.2246 31.8998 44.4338 31.7493C45.5416 30.9525 46.5233 30.2465 47.1382 30.2465C47.7926 30.2465 48.2463 30.735 48.2463 32.7462C48.2463 36.4153 48.1238 38.4003 48.0123 40.2043C47.9195 41.7071 47.8344 43.0845 47.8344 45.2054C47.8344 46.0446 47.8652 47.5961 47.8956 48.2424H44.2976V37.2248L37.3716 43.01ZM68.3889 23.5733V9.02393L72 11.1754V19.1463C71.1122 20.0619 69.2572 22.3012 68.3889 23.5733ZM72 48.2431H68.3889V32.318C69.1604 30.6628 71.0221 27.756 72 26.4783V48.2431ZM42.7673 42.574V40.4932L39.603 43.1341H42.0932L42.7673 42.574ZM34.9508 42.9723V48.2425H31.976V40.4893L34.9508 42.9723ZM37.3716 14.6712L31.9853 9.05077L38.8214 12.0288L39.3622 12.5938L37.3716 14.6712ZM8 70.9762H71.9969V49.7614H8V70.9762ZM58.1134 66.0283H62.7957C63.3656 66.0283 63.8781 65.9864 64.3338 65.9013C64.789 65.8161 65.2226 65.6782 65.6322 65.4862C66.134 65.2482 66.5922 64.941 67.0075 64.5626C67.4242 64.1852 67.777 63.7495 68.0673 63.258C68.3576 62.766 68.5829 62.2306 68.7426 61.6477C68.9024 61.0669 68.9817 60.4649 68.9817 59.8438C68.9817 59.0876 68.8855 58.3949 68.6909 57.768C68.4979 57.1412 68.1953 56.6026 67.7857 56.1499C67.3756 55.6987 66.8513 55.3481 66.2139 55.1003C65.5754 54.851 64.8125 54.7269 63.9237 54.7269H59.9249L58.1134 66.0283ZM45.9587 66.0283H49.0352L49.752 61.6054H53.4775C53.5468 61.6054 53.6429 61.5945 53.768 61.5723L53.6818 61.8258C53.6711 61.8837 53.6544 61.9786 53.6318 62.1139L53.0164 66.0283H56.0917L57.9042 54.7269H54.8277L54.1442 58.9635H50.4018C50.3448 58.9635 50.2537 58.9745 50.1286 58.9969L50.1967 58.7423C50.2192 58.6857 50.2422 58.5905 50.2648 58.4551L50.8634 54.7269H47.77L45.9587 66.0283ZM35.2621 66.0283L37.0738 54.7269H43.6871L43.2761 57.3193H39.7905L39.5168 58.8447C39.505 58.9013 39.4824 58.9912 39.4488 59.1153C39.5739 59.0929 39.6646 59.0811 39.7224 59.0811H42.9868L42.5421 61.6054H39.0894L38.8682 62.9276L38.8169 63.2156C38.8047 63.2724 38.7821 63.3571 38.7476 63.4701C38.8736 63.4469 38.9642 63.4356 39.0213 63.4356H42.2508L41.841 66.0283H35.2621ZM24.5207 54.7269L27.5627 66.0283H30.2623L36.2771 54.7269H32.7915L30.5703 59.7254C30.4218 60.0533 30.2984 60.3328 30.2024 60.5638C30.1063 60.7959 30.0177 61.0158 29.9373 61.2249C29.8577 61.433 29.7777 61.6508 29.6981 61.878C29.6182 62.1026 29.5275 62.3751 29.4253 62.6906L29.34 62.6735C29.2941 62.3349 29.2575 62.0504 29.2288 61.8176C29.2005 61.5863 29.1661 61.3596 29.1258 61.1397L29.1082 61.0427C29.0733 60.8516 29.0371 60.6524 28.9978 60.4454C28.9523 60.2022 28.8895 59.9004 28.8095 59.5383L27.8019 54.7269H24.5207ZM21.9812 66.0283H18.9055L20.7168 54.7269H23.8097L21.9812 66.0283ZM11.4166 66.0283H17.8749L18.3024 63.3679H15.159C15.1007 63.3679 15.0105 63.3793 14.8853 63.4015C14.919 63.2895 14.942 63.2048 14.9534 63.148C14.9646 63.0912 14.9813 62.9952 15.0047 62.8599L16.3204 54.7269H13.2271L11.4166 66.0283ZM65.6414 61.4195C65.453 61.9508 65.1934 62.3798 64.8637 62.7076C64.6011 62.9678 64.2862 63.1542 63.915 63.2657C63.5458 63.3798 63.0691 63.4361 62.4885 63.4361H61.8219C61.7758 63.4361 61.7026 63.4469 61.5997 63.4707C61.6345 63.3576 61.6565 63.2724 61.6678 63.2146L61.719 62.9281L62.6427 57.2689H63.4967C64.2821 57.2689 64.8837 57.4723 65.2999 57.8786C65.7157 58.2851 65.9236 58.8777 65.9236 59.6583C65.9236 60.3014 65.8294 60.8893 65.6414 61.4195Z" fill="#51F639"/>
</svg>
