<svg width="80" height="80" viewBox="0 0 80 80" fill="none" xmlns="http://www.w3.org/2000/svg">
<path fill-rule="evenodd" clip-rule="evenodd" d="M48.0033 45.7207H57.6003L52.806 40.8064L48.0033 45.7207Z" fill="#E4051E"/>
<path fill-rule="evenodd" clip-rule="evenodd" d="M43.2004 29.3228L36.7996 35.8837L33.6032 32.6074H27.2025L33.6032 39.1682L30.4089 42.4401L20.8017 32.5989L17.6053 35.8752L8 45.7206H14.4009L15.999 44.0825H25.6125L27.2025 45.7121H27.2143L22.3668 50.6772H28.7676L36.7996 42.4444L39.9958 45.7206H40.0042H46.3966H46.4049L52.8059 39.1598L59.2065 45.7206L72 32.599L65.5992 32.5989L59.1983 39.1598L52.8059 32.5989L43.2004 42.4444L39.9958 39.1598L49.6011 29.3228H43.2004ZM20.8098 39.1599L22.4162 40.8064H19.2034L20.8098 39.1599Z" fill="url(#paint0_linear_656_3036)"/>
<defs>
<linearGradient id="paint0_linear_656_3036" x1="46.9435" y1="61.0248" x2="57.0441" y2="23.6788" gradientUnits="userSpaceOnUse">
<stop stop-color="#3A3A3A"/>
<stop offset="1" stop-color="#383838"/>
</linearGradient>
</defs>
</svg>
