<svg width="80" height="80" viewBox="0 0 80 80" fill="none" xmlns="http://www.w3.org/2000/svg">
<path d="M8 60.2976H10.3488V64.5088H14.7047V60.2976H17.0536V71.187H14.7076V66.7535H10.3517V71.187H8V60.2976Z" fill="black"/>
<path d="M21.465 60.2976V71.187H19.1162V60.2976H21.465Z" fill="black"/>
<path d="M25.0743 67.641C25.4476 68.5739 26.2229 69.1961 27.1743 69.1961C27.94 69.1961 28.5746 68.8073 28.5746 68.1067C28.5746 67.5787 28.2176 67.2208 27.4394 66.9404L26.132 66.4742C24.546 65.8996 23.5343 64.9342 23.5343 63.3624C23.5343 61.3867 25.0437 60.0957 27.0968 60.0957C28.7153 60.0957 30.1308 60.9822 30.7989 62.4446L28.855 63.5691C28.5277 62.8381 27.9524 62.2626 27.1436 62.2626C26.4277 62.2626 25.93 62.6513 25.93 63.2274C25.93 63.7402 26.3186 64.0515 26.9876 64.3006L28.4033 64.8448C30.1462 65.4988 30.9875 66.494 30.9875 67.9555C30.9875 70.1342 29.169 71.3947 27.1446 71.3947C25.3404 71.3947 23.7534 70.4451 23.0691 68.7147L25.0743 67.641Z" fill="black"/>
<path d="M31.9141 60.2976H40.0038V62.475H37.141V71.1849H34.7922V62.475H31.9141V60.2976Z" fill="black"/>
<path d="M46.2367 71.39C43.0782 71.39 40.5427 68.8853 40.5427 65.7427C40.5427 62.6006 43.0782 60.0957 46.2367 60.0957C49.3953 60.0957 51.9298 62.5995 51.9298 65.7427C51.9298 68.8858 49.3943 71.39 46.2367 71.39ZM46.2367 62.3672C44.3856 62.3672 42.9384 63.86 42.9384 65.7427C42.9384 67.6253 44.3856 69.1207 46.2367 69.1207C48.0878 69.1207 49.534 67.6274 49.534 65.7458C49.534 63.8637 48.0878 62.3672 46.2367 62.3672Z" fill="black"/>
<path d="M55.7945 71.187H53.4763V60.2976H57.101C59.4498 60.2976 61.0835 61.5583 61.0835 63.7826C61.0835 65.3377 60.1505 66.427 58.844 66.9246L61.8453 71.187H59.0928L56.4128 67.2051H55.7907L55.7945 71.187ZM55.7945 65.2759H57.1163C58.0495 65.2759 58.7339 64.7312 58.7339 63.8297C58.7339 62.9114 58.0495 62.3939 57.1163 62.3939H55.7945V65.2759Z" fill="black"/>
<path d="M67.7423 71.187H65.3929V66.4579L61.5037 60.2976H64.1837L66.5948 64.2802L69.0059 60.2976H71.6352L67.7465 66.4579L67.7423 71.187Z" fill="black"/>
<path d="M72 56.524H8V55.5391H72V56.524Z" fill="#EE2726"/>
<path d="M47.0646 46.6892H46.2686V28.3795H22.0295V46.6892H21.2335V11.7537H22.0295V27.6107H46.2686V11.7537H47.0646V46.6892ZM49.0948 50.4643H55.0919V49.7747L54.6917 49.7695C54.6917 49.7695 53.85 49.8173 52.8631 49.2159C51.5578 48.4935 51.6189 46.799 51.6189 46.799V46.17V46.1752V12.1355C51.6351 11.7246 51.7734 10.4545 52.8608 9.85311C53.8477 9.25544 54.6893 9.29952 54.6893 9.29952L55.0896 9.2898V8.60547H38.2628V9.2898L38.6624 9.29952C38.6624 9.29952 39.504 9.25245 40.4917 9.85311C41.5852 10.4583 41.7189 11.7433 41.7336 12.1444V12.8721V13.2262L41.7181 23.489H26.6054L26.59 13.2262V12.8721V12.1444C26.6047 11.7433 26.7384 10.4583 27.8327 9.85311C28.8196 9.25544 29.6612 9.29952 29.6612 9.29952L30.0615 9.2898V8.60547H13.2339V9.2898L13.6335 9.29952C13.6335 9.29952 14.4759 9.25245 15.4628 9.85311C16.5448 10.4508 16.6877 11.7208 16.7047 12.1355V46.176V46.1707V46.7998C16.7047 46.7998 16.7666 48.4942 15.4612 49.2166C14.4743 49.8143 13.632 49.7702 13.632 49.7702L13.2324 49.7755V50.465H30.0631V49.7755L29.6628 49.7702C29.6628 49.7702 28.8212 49.8181 27.8342 49.2166C26.8211 48.6563 26.6317 47.5148 26.5977 47.0292L26.5915 32.5154H41.7336L41.7282 47.0292C41.6934 47.5148 41.5041 48.6563 40.4917 49.2166C39.504 49.8143 38.6624 49.7755 38.6624 49.7755H38.2628V50.465L49.0948 50.4643Z" fill="#FFC42C"/>
<path fill-rule="evenodd" clip-rule="evenodd" d="M54.1519 9.66968C56.8182 9.66968 65.9383 10.6609 66.1198 20.3027C66.1198 31.4094 52.9687 40.6452 51.5279 41.657C51.4476 41.7134 51.4037 41.7443 51.4005 41.7485V34.42C58.8541 24.3577 56.4546 17.0287 49.001 16.0074C41.5777 14.9862 38.972 21.7745 38.972 21.7745H37.3661C39.6083 9.69972 51.4552 9.66968 54.1519 9.66968ZM51.4005 41.7485C51.4002 41.7485 51.4002 41.7488 51.4005 41.7485V41.7485ZM68.1736 39.7441V51.7738H33.2578L40.3084 45.4561H51.0068H61.8894L67.1313 39.7441H68.1736Z" fill="#E3262E"/>
</svg>
