<svg width="80" height="80" viewBox="0 0 80 80" fill="none" xmlns="http://www.w3.org/2000/svg">
<path d="M14.1787 39.0462C14.3427 40.1143 14.8137 41.0095 15.5968 41.7529C16.3587 42.4755 17.2899 42.9205 18.3058 43.0513C18.6286 43.0932 22.5335 43.1037 31.8778 43.0932C44.1587 43.0775 45.0211 43.067 45.3386 42.9832C47.1799 42.4859 48.4604 41.2085 48.926 39.4074C49.016 39.0672 49.0213 38.2661 49.0213 25.5388V12.0313L48.9048 11.5863C48.7408 10.979 48.3281 10.1727 47.9525 9.7277C47.2804 8.93715 46.3704 8.37172 45.3704 8.12042L44.8941 8L18.2265 8L17.7185 8.13612C16.491 8.47643 15.4803 9.21986 14.8242 10.2722C14.5332 10.7434 14.2581 11.492 14.1787 12.0365C14.1205 12.4658 14.1152 38.6431 14.1787 39.0462ZM21.8774 23.6016C22.3166 20.2876 23.5918 17.5233 25.6871 15.361C26.613 14.4082 27.4649 13.7433 28.5866 13.1098C29.3909 12.6491 30.719 12.1046 31.4386 11.9318L31.5868 11.9004V12.9894L31.4386 13.026C31.1 13.1098 30.2428 13.4553 29.6608 13.7433C26.1686 15.4605 23.7346 18.8793 23.0203 23.0519C22.6764 25.0571 22.7505 27.3607 23.2214 29.2559C24.1367 32.9417 26.3749 35.7845 29.592 37.3447C29.9888 37.5436 30.6026 37.7897 30.9518 37.8996L31.5815 38.1038L31.5868 38.6378C31.5868 38.9363 31.5656 39.1771 31.5444 39.1771C31.4492 39.1771 30.5761 38.9049 30.1052 38.7216C26.2373 37.2557 23.3695 33.9992 22.2743 29.8213C22.0203 28.8528 21.9303 28.3031 21.7769 26.7429C21.7293 26.2874 21.7981 24.1933 21.8774 23.6016ZM26.3697 24.2299C26.7294 22.6174 27.6131 21.2509 28.9147 20.2981C30.8354 18.895 33.4175 18.6332 35.6028 19.6279C36.8727 20.2038 38.0897 21.3713 38.7193 22.6069C39.1902 23.5336 39.386 24.4079 39.386 25.5388C39.386 26.4654 39.3119 26.9366 39.0368 27.7115C38.6082 28.9261 37.8092 29.9994 36.7457 30.7899C36.2377 31.1668 35.2113 31.659 34.6186 31.8161C32.6767 32.3239 30.6767 31.9941 29.0628 30.8946C28.5337 30.5386 27.7771 29.7899 27.4173 29.2664C26.8617 28.4706 26.4807 27.523 26.3167 26.5335C26.2268 26.01 26.2585 24.7377 26.3697 24.2299Z" fill="#664797"/>
<path d="M27.3852 26.5279C27.6021 27.6169 28.0942 28.5435 28.8773 29.3446C30.9885 31.5068 34.4013 31.5749 36.6183 29.5069C38.375 27.8629 38.8512 25.3185 37.8035 23.1772C37.0892 21.7217 35.7876 20.6642 34.1843 20.2349C33.7452 20.1197 33.5652 20.104 32.8298 20.0987C32.0626 20.0935 31.9356 20.1092 31.4594 20.2401C29.3218 20.8265 27.7873 22.4599 27.3799 24.5855C27.2846 25.0881 27.2846 26.0357 27.3852 26.5279ZM29.1312 24.6379C29.1736 24.4703 29.3164 24.1091 29.454 23.8369C29.9091 22.9102 30.8509 22.1563 31.8827 21.8998C32.7399 21.6799 33.7875 21.795 34.5441 22.1877C36.396 23.151 37.1474 25.3237 36.2638 27.1666C35.7929 28.1509 34.8616 28.9257 33.8087 29.2084C33.3431 29.3288 32.3218 29.3288 31.8509 29.2084C30.3853 28.8263 29.2953 27.6011 29.0413 26.0619C28.9884 25.7268 29.0307 25.0201 29.1312 24.6379Z" fill="#664797"/>
<path d="M17.2182 49.5336C15.7471 49.9155 14.8264 50.7844 14.3329 52.2834C14.143 52.8372 14.1335 53.0759 14.1335 56.2649V59.6545H16.1077L16.1457 56.5227C16.1931 53.6297 16.2121 53.3623 16.3925 52.885C16.7816 51.8824 17.465 51.4909 18.8317 51.4909C20.1984 51.4909 20.8818 51.8824 21.2709 52.885C21.4513 53.3623 21.4703 53.6392 21.5177 56.5227L21.5652 59.6545H23.6058L23.6437 56.475C23.6912 52.9709 23.7197 52.7513 24.3081 52.1402C24.7448 51.6915 25.3332 51.4909 26.2348 51.4909C27.2409 51.4909 27.8389 51.6723 28.2849 52.1211C28.8544 52.694 28.8829 52.8563 28.9114 56.4273L28.9494 59.6545H31.1418L31.0943 56.3795C31.0564 53.7061 31.0184 53.0091 30.8855 52.5412C30.3161 50.5075 28.9683 49.4858 26.6904 49.3713C25.1339 49.2853 23.8336 49.6577 22.9794 50.4311L22.5902 50.7844L22.0777 50.3642C20.9293 49.4286 18.9171 49.0753 17.2182 49.5336Z" fill="#664797"/>
<path d="M32.5748 52.5602C32.6033 55.1573 32.6412 55.9116 32.7741 56.3985C33.3341 58.5755 34.8717 59.6544 37.3868 59.6544C38.9909 59.6544 40.2532 59.1961 41.0125 58.3272C41.487 57.783 41.6769 57.4201 41.9521 56.5036C42.1515 55.8256 42.161 55.6347 42.1704 52.5889L42.1799 49.3903L40.0444 49.333V52.2451C40.0444 55.2432 39.9874 55.8543 39.6552 56.5227C39.2946 57.2292 38.2885 57.6207 37.0546 57.5252C35.9252 57.4392 35.3462 57.1051 34.9855 56.3126C34.7957 55.9116 34.7862 55.692 34.7483 52.608L34.7103 49.3426H32.5273L32.5748 52.5602Z" fill="#664797"/>
<path d="M46.3561 49.4381C44.5053 49.8105 43.6511 50.7843 43.6511 52.5221C43.6606 54.5272 44.8185 55.3865 47.8273 55.5965C49.0232 55.6825 49.5547 55.8353 49.7065 56.1599C49.8679 56.475 49.792 56.9906 49.5547 57.2006C49.4692 57.277 49.2225 57.3916 49.0137 57.4489C48.5201 57.5825 47.0774 57.5825 46.5365 57.4489C46.0903 57.3343 45.7392 56.9906 45.7392 56.685C45.7392 56.5227 45.6537 56.5036 44.6951 56.5036H43.6511V56.9524C43.6606 57.7544 44.1826 58.6137 44.9514 59.0911C46.1188 59.8168 49.2035 59.8645 50.4753 59.1771C50.8644 58.967 51.4434 58.3846 51.6522 57.9931C51.9369 57.4298 51.9939 56.0931 51.7661 55.4724C51.2726 54.1739 50.4563 53.7347 48.093 53.4864C46.3087 53.3051 45.9765 53.2095 45.8341 52.8658C45.7012 52.5603 45.7772 51.9969 45.9575 51.8346C46.1758 51.6628 47.1819 51.4432 47.7798 51.4432C48.3778 51.4432 49.3838 51.6628 49.5927 51.8346C49.6591 51.8919 49.7445 52.0638 49.773 52.2166L49.8394 52.4935H51.9085V52.1306C51.9085 51.615 51.6712 50.9658 51.3295 50.5552C50.6841 49.7627 49.4028 49.333 47.7418 49.3522C47.1914 49.3617 46.5649 49.3999 46.3561 49.4381Z" fill="#664797"/>
<path d="M53.0476 59.6544H55.2306V49.3425H53.0476V59.6544Z" fill="#664797"/>
<path d="M59.7199 49.524C57.5939 50.1064 56.5593 51.7296 56.5593 54.4986C56.5593 57.9454 58.1539 59.6545 61.3524 59.6545C63.4215 59.6545 64.7882 58.9288 65.5286 57.4393C66.0411 56.389 66.0506 56.4082 64.7977 56.4082H63.7252L63.45 56.7519C63.0798 57.2198 62.4819 57.468 61.5992 57.5253C60.0901 57.6303 59.084 57.0288 58.8278 55.8639C58.6664 55.1573 58.6664 53.7347 58.8278 53.095C59.0935 52.0351 59.9192 51.5005 61.305 51.4909C62.3016 51.4909 62.871 51.6819 63.3645 52.1784L63.7822 52.589H64.8167C66.0411 52.589 66.0506 52.5794 65.576 51.6246C64.8072 50.1064 63.6303 49.4477 61.5422 49.3808C60.6216 49.3522 60.2704 49.3808 59.7199 49.524Z" fill="#664797"/>
<path d="M14.1335 66.0315C14.1335 70.3473 14.1335 70.3665 14.9403 71.1782C15.5477 71.7798 16.0982 71.9708 17.2656 71.9708C18.3287 71.9708 18.9266 71.7889 19.4866 71.2929C20.2174 70.6433 20.4927 69.8892 20.4927 68.5334C20.4927 67.1777 20.2174 66.423 19.4866 65.7739C18.8792 65.239 18.3287 65.0865 16.8196 65.0294L15.5667 64.9718L15.5098 62.375L14.1335 62.3174V66.0315ZM18.3761 66.7766C18.8792 67.1585 19.0025 67.5019 19.0025 68.5238C19.0025 69.7457 18.7842 70.1756 18.0344 70.4332C17.2372 70.7009 16.2501 70.4908 15.8609 69.975C15.6142 69.6598 15.6047 69.5932 15.5572 68.0747L15.5098 66.5089L16.8101 66.5473C17.949 66.5761 18.1388 66.6043 18.3761 66.7766Z" fill="#664797"/>
<path d="M35.0334 66.0228C35.0713 70.2906 35.0713 70.3098 35.9255 71.1695C36.2862 71.5418 36.5235 71.6943 36.9316 71.8186C37.6055 72.0095 38.9058 72.0191 39.5417 71.8282C40.1871 71.6373 40.8989 70.9877 41.1932 70.329C41.402 69.8805 41.421 69.6895 41.421 68.5338C41.421 67.3786 41.402 67.1876 41.1932 66.7391C40.8989 66.0895 40.1871 65.4308 39.5417 65.2303C39.238 65.1348 38.5451 65.0586 37.7478 65.0298L36.4381 64.9727V62.3279H35.0049L35.0334 66.0228ZM39.3519 66.777C39.4942 66.882 39.6936 67.121 39.779 67.3023C40.1586 68.0565 40.0732 69.5077 39.6176 70.0426C39.238 70.5007 38.2699 70.673 37.4726 70.4341C36.7133 70.2047 36.5235 69.7274 36.4665 67.8847L36.4096 66.5098L37.7478 66.5482C38.9153 66.5764 39.1146 66.6052 39.3519 66.777Z" fill="#664797"/>
<path d="M62.3966 70.2047L62.6338 70.6346C62.9091 71.1215 63.526 71.6277 64.0385 71.7802C64.2284 71.8474 64.7219 71.9141 65.13 71.9429L65.8608 71.9999V70.5391H65.5761C65.0446 70.5391 64.3138 70.329 64.086 70.0997L63.8677 69.8805V62.3279H62.3396L62.3966 70.2047Z" fill="#664797"/>
<path d="M23.2736 65.135C22.9509 65.2113 22.5998 65.3259 22.4859 65.3835C22.1347 65.5745 21.5367 66.1665 21.3754 66.4721C20.8249 67.5318 20.8344 69.5366 21.3754 70.5964C21.6127 71.0646 22.3625 71.6657 22.894 71.8284C23.5109 72.0097 24.8777 72.0097 25.4851 71.8284C26.0166 71.6753 26.643 71.1788 26.9467 70.6822C27.5637 69.6801 27.5637 67.3884 26.9467 66.3857C26.2919 65.3163 24.7732 64.8011 23.2736 65.135ZM25.3048 66.7771C25.7983 67.15 25.9122 67.5222 25.8837 68.639C25.8553 69.5654 25.8363 69.6801 25.599 69.9857C25.1814 70.5393 23.9665 70.7206 23.2072 70.3388C22.6377 70.062 22.5333 69.7852 22.5333 68.5436C22.5333 67.4646 22.5428 67.4076 22.7991 67.0732C23.1218 66.6438 23.473 66.5291 24.3651 66.5675C24.8682 66.5862 25.1244 66.6438 25.3048 66.7771Z" fill="#664797"/>
<path d="M27.9907 65.0585C27.9907 65.0969 28.4842 65.8703 29.0822 66.7865C29.6991 67.7321 30.1452 68.5055 30.1072 68.5722C30.0693 68.6292 29.5662 69.3839 28.9873 70.2527C28.4178 71.1215 27.9337 71.8564 27.9147 71.8948C27.8958 71.9428 28.2754 71.9711 28.769 71.9711H29.6517L30.3635 70.8826L31.0659 69.8036L31.7872 70.8826L32.499 71.9711H34.2549L33.7044 71.1311C33.4007 70.673 32.8882 69.9087 32.5655 69.4218C32.2428 68.9348 31.977 68.5151 31.977 68.4767C31.977 68.4383 32.4706 67.6649 33.0685 66.7583C33.6665 65.8511 34.16 65.0777 34.16 65.0489C34.16 65.0201 33.7803 65.0015 33.3058 65.0015H32.4516L31.7587 66.0516L31.0564 67.1017L30.373 66.0516L29.6801 65.0015H28.8354C28.3704 65.0015 27.9907 65.0297 27.9907 65.0585Z" fill="#664797"/>
<path d="M44.6954 65.0969C43.4046 65.3161 42.7497 65.698 42.3796 66.4431L42.1328 66.9492V71.9711H43.5375L43.5755 69.6036C43.5945 68.305 43.6419 67.1684 43.6894 67.0825C43.8033 66.8345 44.3442 66.6244 45.0276 66.5577L45.6446 66.5001V65.0015L45.3883 65.0105C45.2365 65.0201 44.9327 65.0585 44.6954 65.0969Z" fill="#664797"/>
<path d="M48.4919 65.0585C47.0967 65.3065 46.4418 65.8223 46.2615 66.8345L46.1951 67.1972H46.9544C47.6757 67.1972 47.7232 67.1876 47.7517 66.9775C47.7896 66.7103 48.2547 66.5385 49.014 66.5385C49.8207 66.5289 50.2763 66.6719 50.3522 66.9588C50.5041 67.5599 50.2004 67.7225 48.7862 67.8084C47.3815 67.8943 46.6412 68.3428 46.3185 69.2884C45.9863 70.3001 46.5368 71.3791 47.5998 71.7802C47.9889 71.9236 48.3401 71.9711 49.0424 71.9711C50.4946 71.9711 51.2444 71.6564 51.6525 70.8922C51.8424 70.5295 51.8613 70.3289 51.8898 68.8207C51.9373 66.7583 51.8519 66.2804 51.3393 65.7652C51.102 65.5263 50.7984 65.3449 50.4946 65.2495C49.9821 65.0969 48.8716 64.9918 48.4919 65.0585ZM50.3902 69.6223C50.3902 69.9567 50.3427 70.1951 50.2478 70.2905C50.058 70.4724 49.3652 70.5775 48.6818 70.5103C47.9225 70.4436 47.7327 70.3194 47.7327 69.9087C47.7327 69.6319 47.7801 69.5652 48.0459 69.4409C48.2072 69.3743 48.7767 69.2692 49.2987 69.2212C49.8207 69.1737 50.2763 69.1257 50.3238 69.1257C50.3617 69.1161 50.3902 69.3359 50.3902 69.6223Z" fill="#664797"/>
<path d="M52.7629 66.5289H57.7078L57.6508 66.7391C57.4515 67.4265 56.9295 67.7322 55.8 67.8276C54.6706 67.9135 54.1012 68.1519 53.5791 68.7343C53.0381 69.3359 52.8483 69.89 52.7913 71.0356L52.7344 71.9711H59.2169V70.5391L56.7492 70.5199L54.291 70.4911L54.4713 70.0906C54.7086 69.546 55.1452 69.3359 56.2271 69.2596C58.2583 69.1071 59.2169 68.0282 59.2169 65.9081V65.0015H52.7629V66.5289Z" fill="#664797"/>
<path d="M59.9763 71.9711H61.4V65.0015H59.9763V71.9711Z" fill="#664797"/>
<path d="M53.0476 47.4329H55.2306V45.3323H53.0476V47.4329Z" fill="#664797"/>
<path d="M59.9763 63.8554H61.4V62.3279H59.9763V63.8554Z" fill="#664797"/>
</svg>
