<svg width="80" height="80" viewBox="0 0 80 80" fill="none" xmlns="http://www.w3.org/2000/svg">
<path d="M12.7363 36.3918H9.95127C8.84526 36.3918 8.7679 38.0197 8.7679 38.0197L8 43.6408H9.65041L10.0802 40.8057H11.2478L12.2163 43.6408H14.3208L13.1575 40.8057C13.1575 40.8057 14.7807 40.8057 14.7807 38.0197C14.7764 37.4589 14.8624 36.3918 12.7363 36.3918ZM12.0429 39.3573H10.4197L10.563 38.0197H12.4126C12.4126 38.0197 12.861 38.0197 12.8423 38.5497C12.8037 39.4022 12.0429 39.3573 12.0429 39.3573ZM17.6661 36.3918C16.5601 36.3918 16.4827 38.0197 16.4827 38.0197L15.7148 43.6408H21.0643L21.2864 42.1714H17.5758L17.7922 40.8057H20.8938L21.0672 39.3573H18.0357L18.305 38.0197H21.8064L22.0285 36.3918H17.6661ZM32.59 36.3918C31.484 36.3918 31.4066 38.0197 31.4066 38.0197L30.6358 43.6408H35.9854L36.2074 42.1714H32.4983L32.7146 40.8057H35.8106L35.9854 39.3573H32.9596L33.229 38.0197H36.7303L36.9524 36.3918H32.59ZM39.2173 36.3918C38.1128 36.3918 38.034 38.0197 38.034 38.0197H40.0912L39.375 43.6408H41.3391L41.9293 39.3573L42.0727 38.0197H44.1815L44.4021 36.3918H39.2173ZM25.4468 36.3918H24.348C24.2247 36.3918 23.8995 36.4493 23.8379 36.7396C23.4726 38.4473 22.7563 43.6408 22.7563 43.6408H24.762C27.3795 43.6408 27.994 43.875 28.8393 42.5458C29.3594 41.7269 29.6989 39.3741 29.527 38.0211C29.3235 36.3918 28.1803 36.3918 25.4468 36.3918ZM26.8322 42.1714H24.7219C24.6978 42.1716 24.6739 42.1667 24.6518 42.1571C24.6298 42.1475 24.6101 42.1334 24.5941 42.1158C24.578 42.0981 24.5661 42.0773 24.559 42.0547C24.5518 42.0321 24.5498 42.0083 24.5528 41.9849L25.1445 38.3071C25.1556 38.2291 25.1953 38.1577 25.2562 38.1061C25.317 38.0545 25.3949 38.0263 25.4755 38.0267H27.5614C28.5399 38.0197 28.0571 42.2261 26.8322 42.1714ZM52.3792 36.3918H50.9107C50.8301 36.3926 50.7514 36.4155 50.6836 36.4578C50.6158 36.5002 50.5613 36.5604 50.5268 36.6316L48.6243 40.6837C48.6059 40.7222 48.5767 40.7548 48.5403 40.7777C48.5036 40.8005 48.4613 40.8127 48.418 40.8127H48.2229C48.1837 40.8129 48.1455 40.7986 48.1165 40.7726C48.0873 40.7467 48.0689 40.711 48.0655 40.6725L47.5668 36.6176C47.5596 36.5561 47.5295 36.4994 47.4822 36.4583C47.4349 36.4172 47.3736 36.3946 47.3104 36.3946H45.6873C45.6693 36.3949 45.6519 36.3988 45.6357 36.4062C45.6195 36.4136 45.6049 36.4243 45.5934 36.4375C45.5819 36.4508 45.5731 36.4664 45.5682 36.4831C45.5629 36.4999 45.5616 36.5175 45.5641 36.5348L46.756 43.3702C46.7691 43.4454 46.8089 43.5136 46.8686 43.5628C46.9281 43.6121 47.0034 43.6392 47.0811 43.6394H48.875C48.9391 43.6395 49.0023 43.6216 49.0567 43.5878C49.1109 43.554 49.1541 43.5058 49.1815 43.4487L52.4865 36.5559C52.4946 36.5382 52.498 36.5189 52.4968 36.4996C52.4952 36.4803 52.489 36.4617 52.4781 36.4454C52.4675 36.4291 52.4529 36.4157 52.4355 36.4063C52.4184 36.397 52.3988 36.392 52.3792 36.3918Z" fill="url(#paint0_linear_656_2362)"/>
<path d="M53.4606 58.6669C57.2659 58.6669 60.3503 55.6481 60.3503 51.9242C60.3503 48.2002 57.2659 45.1814 53.4606 45.1814C49.6556 45.1814 46.5712 48.2002 46.5712 51.9242C46.5712 55.6481 49.6556 58.6669 53.4606 58.6669Z" fill="#00EABD"/>
<path d="M70.2961 33.5862C71.0617 32.6566 71.5906 31.5622 71.8389 30.3931C72.0875 29.2241 72.048 28.014 71.7241 26.8628C71.4002 25.7117 70.8013 24.6524 69.9765 23.7724C69.1521 22.8925 68.1254 22.2172 66.9814 21.8022C65.8374 21.3873 64.6088 21.2446 63.3973 21.386C62.1858 21.5273 61.0263 21.9487 60.0142 22.6153C59.0018 23.2818 58.1661 24.1745 57.5759 25.2195C56.9857 26.2646 56.6581 27.432 56.6199 28.6255V43.1108C56.6199 43.2463 56.6563 43.3794 56.7253 43.4968C56.7947 43.6142 56.894 43.7117 57.0141 43.7796C57.2172 43.8567 57.6858 43.9198 57.8519 43.7796C57.8519 43.7796 69.6673 34.3503 70.2976 33.5862H70.2961Z" fill="url(#paint1_linear_656_2362)"/>
<defs>
<linearGradient id="paint0_linear_656_2362" x1="8" y1="40.0233" x2="52.498" y2="40.0233" gradientUnits="userSpaceOnUse">
<stop stop-color="#0084D6"/>
<stop offset="1" stop-color="#00EABD"/>
</linearGradient>
<linearGradient id="paint1_linear_656_2362" x1="5588.66" y1="216.666" x2="6966.08" y2="2800.16" gradientUnits="userSpaceOnUse">
<stop stop-color="#0084D6"/>
<stop offset="1" stop-color="#00EABD"/>
</linearGradient>
</defs>
</svg>
