<svg width="80" height="80" viewBox="0 0 80 80" fill="none" xmlns="http://www.w3.org/2000/svg">
<path fill-rule="evenodd" clip-rule="evenodd" d="M25.9398 56.0345H10.123C9.01678 56.0345 8.10133 55.1384 8.00784 54.0069L8 53.8161V26.1814C8 25.0282 8.85741 24.071 9.94039 23.9734L10.123 23.9653H25.9398C27.0425 23.9653 27.9608 24.8616 28.0543 25.9912L28.0621 26.1814V53.8161C28.0621 54.9719 27.2022 55.9286 26.1217 56.0264L25.9398 56.0345ZM23.605 32.8089C23.7421 32.8089 23.8554 32.9246 23.8547 33.0654V35.4832L23.8457 35.5519C23.8165 35.6611 23.7186 35.7414 23.6044 35.7414H20.2805L20.1481 35.7497C19.6289 35.8177 19.2279 36.2802 19.2279 36.8416V47.7639L19.2191 47.8326C19.1903 47.9422 19.0955 48.0221 18.981 48.0221H16.6682L16.602 48.0127C16.4976 47.9828 16.4213 47.8829 16.4213 47.7639V36.8416L16.4132 36.7034C16.3485 36.1613 15.9071 35.742 15.3688 35.742H11.9012L11.8359 35.733C11.7318 35.7027 11.6537 35.6021 11.6537 35.4832V33.0661L11.6624 32.9977C11.6916 32.8891 11.7889 32.8089 11.9012 32.8089H23.605Z" fill="#EE2A30"/>
<path fill-rule="evenodd" clip-rule="evenodd" d="M72 53.8161V26.1814L71.9921 25.9912C71.8987 24.8616 70.9812 23.9653 69.8787 23.9653H54.0608L53.8785 23.9734C52.7958 24.071 51.9385 25.0282 51.9385 26.1814V53.8161L51.9467 54.0069C52.0398 55.1389 52.9552 56.0345 54.0608 56.0345H69.8787L70.0606 56.0264C71.1404 55.9286 72 54.9719 72 53.8161ZM62.5355 35.6888C60.0368 35.6888 58.0079 37.8037 58.0079 40.4168C58.0079 43.0247 60.0368 45.1454 62.5355 45.1454C63.6911 45.1454 64.7492 44.688 65.5453 43.9455L65.611 43.8981C65.7068 43.8504 65.8288 43.8665 65.9056 43.9455L67.541 45.653L67.5829 45.7148C67.6254 45.8038 67.6154 45.9147 67.5536 45.9933C66.2447 47.2828 64.4774 48.0769 62.5342 48.0769C58.4845 48.0769 55.2024 44.6442 55.2024 40.4168C55.2024 36.1832 58.4845 32.7525 62.5342 32.7525C64.4774 32.7525 66.2405 33.5456 67.5536 34.838C67.6312 34.9414 67.6273 35.0862 67.541 35.1803L65.9056 36.8906L65.8406 36.9383C65.7456 36.9854 65.6239 36.9699 65.5477 36.8906L65.3426 36.7105C64.5713 36.072 63.5947 35.6888 62.5355 35.6888Z" fill="#EE2A30"/>
<path fill-rule="evenodd" clip-rule="evenodd" d="M32.0901 56.0341C30.9839 56.0341 30.0684 55.1383 29.9752 54.0068L29.9674 53.816V26.1819C29.9674 25.0278 30.8245 24.0713 31.9075 23.9736L32.0901 23.9656H47.9075C49.01 23.9656 49.9274 24.8615 50.0214 25.9915L50.0288 26.1819V53.816C50.0288 54.9718 49.1697 55.9283 48.0893 56.0261L47.9075 56.0341H32.0901ZM38.7323 48.0159C36.696 47.9076 35.8099 46.4657 35.8099 44.6132V33.065L35.8186 32.997C35.8479 32.8887 35.9442 32.8088 36.058 32.8088H38.3678C38.505 32.8088 38.6154 32.9242 38.6154 33.065V43.6811L38.623 43.8342C38.6959 44.5394 39.2662 45.0869 39.9615 45.0869H44.2268L44.2936 45.0963C44.3994 45.1276 44.4738 45.2307 44.4738 45.3483V47.7622L44.4654 47.8315C44.4372 47.9414 44.3427 48.0223 44.2268 48.0223H38.982L38.7323 48.0159Z" fill="#EE2A30"/>
</svg>
