<svg width="80" height="80" viewBox="0 0 80 80" fill="none" xmlns="http://www.w3.org/2000/svg">
<path fill-rule="evenodd" clip-rule="evenodd" d="M68.2284 32.2027V41.88L59.7718 32.574C59.6077 32.3889 59.5214 32.2027 59.1432 32.2027H56.2433V47.7731L59.9789 47.7728V37.9452L68.4109 47.373C68.64 47.6082 68.7391 47.7728 69.0829 47.7728H72V32.2027H68.2284ZM39.9998 35.2026H45.4142V47.7731H49.2777V35.2026H54.6008V32.2027H39.9998V35.2026ZM38.9654 39.8879H35.5586V44.173C35.5586 44.173 34.3662 44.7358 32.8274 44.7358C29.3612 44.7358 27.4623 42.736 27.4623 40.1159C27.4623 37.4172 29.3051 35.2621 32.9209 35.2621C35.2518 35.2621 37.2421 36.1667 37.2421 36.1667L38.7966 33.3701C38.7966 33.3701 36.1021 32 32.7298 32C27.1407 32 23.5259 35.5898 23.5259 40.0493C23.5259 44.6928 27.3587 47.9906 32.5807 47.9906C36.8963 47.9906 39.1479 46.1731 39.1479 46.1731V40.0594C39.1479 39.9571 39.0655 39.8879 38.9654 39.8879ZM21.9026 43.4647L23.057 46.4614C23.057 46.4614 20.4186 48 17.0253 48C11.0924 48 8 44.1442 8 40.0677C8 35.9784 11.1749 32.0047 17.1837 32.0047C20.487 32.0047 22.9419 33.4085 22.9419 33.4085L21.3707 36.2386C21.3707 36.2386 19.5637 35.2577 17.3895 35.2577C14.0223 35.2577 11.9282 37.3006 11.9282 40.0314C11.9282 42.5743 13.856 44.7326 17.2998 44.7326C19.7623 44.7326 21.9026 43.4647 21.9026 43.4647Z" fill="#BFAE62"/>
</svg>
