<svg width="80" height="80" viewBox="0 0 80 80" fill="none" xmlns="http://www.w3.org/2000/svg">
<path fill-rule="evenodd" clip-rule="evenodd" d="M71.6224 35.0848H64.5952V53.9903H58.2205V35.0848H50.9377V53.9903H46.6817C45.101 53.9903 44.3457 53.5423 43.5264 52.243L35.2832 39.8975H35.149V53.9903H28.9537V35.0848H21.6898V53.9903H15.2065V35.0848H8.37785C8.128 36.6848 8 38.3295 8 39.9997C8 57.6707 22.3298 71.9998 39.9999 71.9998C57.6704 71.9998 72 57.6707 72 39.9997C72 38.3295 71.872 36.6848 71.6224 35.0848ZM9.45312 30.4382C13.5171 17.4335 25.6578 8 39.9999 8C54.3424 8 66.4832 17.4335 70.5472 30.4382H44.8577V42.2782H44.6337L38.157 32.1855C37.3697 30.8801 36.5825 30.4382 35.0017 30.4382H9.45312Z" fill="black"/>
</svg>
