<svg width="80" height="80" viewBox="0 0 80 80" fill="none" xmlns="http://www.w3.org/2000/svg">
<path fill-rule="evenodd" clip-rule="evenodd" d="M39.8429 56.627C32.3312 56.627 26.9304 52.2252 24.7099 46.0051H23.1196C25.3402 52.8781 31.7144 57.6541 39.3081 57.6541C45.0788 57.6541 50.0548 55.0855 53.1116 50.8925H52.1927C49.287 54.3917 45.0515 56.627 39.8429 56.627Z" fill="black"/>
<path fill-rule="evenodd" clip-rule="evenodd" d="M54.8792 48.4904L53.769 45.6301H53.0698L54.5777 49.3929H55.1532L56.689 45.6301H55.9895L54.8792 48.4904Z" fill="black"/>
<path fill-rule="evenodd" clip-rule="evenodd" d="M51.2332 49.3929V46.2412H52.3989V45.6301H49.4241V46.2412H50.5892V49.3929H51.2332Z" fill="black"/>
<path fill-rule="evenodd" clip-rule="evenodd" d="M68.5455 42.1311V36.3968L66.5171 36.2996V43.964H72V42.159L68.5455 42.1311Z" fill="black"/>
<path fill-rule="evenodd" clip-rule="evenodd" d="M57.4565 43.9502L60.5816 36.0503L62.5417 36.1059L65.6397 43.9502H63.4603L62.9258 42.5482H60.1156L59.5811 43.9502H57.4565ZM61.541 38.6467L60.705 40.8543L62.35 40.8822L61.541 38.6467Z" fill="black"/>
<path fill-rule="evenodd" clip-rule="evenodd" d="M54.3998 38.9654C53.3857 38.7016 53.1252 38.4379 53.1252 38.1602C53.1252 37.8548 53.3718 37.6606 53.8653 37.6606C54.5096 37.6606 55.2358 37.9384 55.9214 38.4659L56.9218 36.9246C56.127 36.2167 55.1673 35.8 53.9202 35.8C52.1654 35.8 51.0691 36.8271 51.0691 38.3547C51.0691 39.7986 52.2752 40.507 53.838 40.9232C54.8248 41.187 55.058 41.3538 55.058 41.7145C55.058 42.0755 54.7562 42.256 54.2217 42.256C53.3718 42.256 52.5765 41.923 51.8502 41.2842L50.7261 42.7702C51.6176 43.6726 52.851 44.1166 54.1529 44.1166C55.9353 44.1166 57.1135 43.1448 57.1135 41.5343C57.1135 39.9928 56.0858 39.3957 54.3998 38.9654Z" fill="black"/>
<path fill-rule="evenodd" clip-rule="evenodd" d="M46.9979 35.8276C48.8892 35.8276 50.1093 36.8687 50.1093 38.6323C50.1093 39.8815 49.5199 40.6871 48.615 41.1174L50.3559 43.9777H47.9844L46.6961 41.4923H45.6544V43.9777H43.5984V35.8276H46.9979ZM45.6547 39.687H46.943C47.6692 39.687 48.0672 39.2981 48.0672 38.7149C48.0672 38.0625 47.6419 37.7015 46.943 37.7015H45.6547V39.687Z" fill="black"/>
<path fill-rule="evenodd" clip-rule="evenodd" d="M42.1409 37.6208V35.6924H36.2354V43.9546H42.1961V42.0123H38.3324V40.689H41.7822V38.8875H38.3324V37.6208H42.1409Z" fill="black"/>
<path fill-rule="evenodd" clip-rule="evenodd" d="M29.8909 35.8693L27.6289 35.9109L30.6033 43.9641H32.5638L35.4422 35.8137C34.6883 35.8137 33.9483 35.8277 33.2079 35.8277L31.6455 40.9789L29.8909 35.8693Z" fill="black"/>
<path fill-rule="evenodd" clip-rule="evenodd" d="M24.6409 43.9642H26.7108V35.925C26.0253 35.939 25.3264 35.9667 24.6409 35.9667V43.9642Z" fill="black"/>
<path fill-rule="evenodd" clip-rule="evenodd" d="M23.1195 35.9939L21.1044 36.0495V40.2286L18.0889 36.1464L16.2109 36.202V43.9634H18.1984V39.6731L21.3237 43.9634H23.1195V35.9939Z" fill="black"/>
<path fill-rule="evenodd" clip-rule="evenodd" d="M12.7702 40.6313C12.7702 41.7003 12.2356 42.2002 11.4133 42.2002C10.5769 42.2002 10.07 41.7143 10.07 40.6313V36.4522C9.38447 36.4935 8.68517 36.5215 8 36.5495V40.7149C8 43.0337 9.31576 44.1024 11.3995 44.1024C13.4695 44.1024 14.8264 43.0197 14.8264 40.5481V36.2717L12.7702 36.341V40.6313Z" fill="black"/>
<path fill-rule="evenodd" clip-rule="evenodd" d="M39.9386 23.8037C46.8059 23.8037 52.7687 28.3577 55.0713 34.5363H55.9076C53.6459 27.4692 47.1214 22.3457 39.3768 22.3457C31.8514 22.3457 25.4088 27.2191 23.01 34.0364L25.5869 33.9808C27.9173 27.8858 33.2905 23.8037 39.9386 23.8037Z" fill="black"/>
</svg>
