<svg width="80" height="80" viewBox="0 0 80 80" fill="none" xmlns="http://www.w3.org/2000/svg">
<path fill-rule="evenodd" clip-rule="evenodd" d="M43.9376 32L40.7919 35.1961V47.6349C40.9321 47.7777 41.0108 47.8575 41.1511 48H47.3709C47.5115 47.8575 47.5903 47.7777 47.7305 47.6349V45.6441H54.5976C54.7379 45.5016 54.8167 45.4215 54.9568 45.2787V40.3283C54.8167 40.1858 54.7379 40.1056 54.5976 39.9631H47.7305V38.3924H54.5976C54.7379 38.25 54.8167 38.1698 54.9568 38.0273V32.3654C54.8167 32.2229 54.7379 32.1428 54.5976 32H43.9376ZM71.6408 32H65.4208C65.2803 32.1428 65.2016 32.2229 65.0613 32.3654V39.9631H63.4785V32.3654C63.338 32.2229 63.2596 32.1428 63.1191 32H56.8992C56.7589 32.1428 56.6799 32.2229 56.5396 32.3654V39.9631L60.8007 44.292V47.6349C60.9408 47.7777 61.0196 47.8575 61.1601 48H67.3801C67.5203 47.8575 67.5991 47.7777 67.7393 47.6349V44.2926L72 39.9631V32.3654C71.8597 32.2229 71.7811 32.1428 71.6408 32ZM32.6296 32C32.4895 32.1428 32.4104 32.2229 32.2701 32.3654V39.9631H30.6873V32.3654C30.5468 32.2229 30.4681 32.1428 30.3279 32H24.1079C23.9677 32.1428 23.8889 32.2229 23.7484 32.3654V39.9631L28.0095 44.292V47.6349C28.15 47.7777 28.2284 47.8575 28.3689 48H34.5885C34.7288 47.8575 34.8079 47.7777 34.9484 47.6349V44.2926L39.2091 39.9631V32.3654C39.0683 32.2229 38.9899 32.1428 38.8492 32H32.6296ZM15.0827 39.9631V41.5339H8.35953C8.21898 41.6767 8.14055 41.7562 8 41.899V47.6349C8.14055 47.7777 8.21898 47.8575 8.35953 48H19.0196L22.1656 44.8039V40.3283C22.0251 40.1858 21.9464 40.1056 21.8061 39.9631H15.0827ZM21.8061 32C21.9464 32.1428 22.0251 32.2229 22.1656 32.3654V38.0273C22.0251 38.1698 21.9464 38.25 21.8061 38.3924H15.0827V39.9631H8.35984C8.21898 39.8216 8.14055 39.7414 8.00031 39.599V35.1961L11.1463 32H21.8061Z" fill="black"/>
</svg>
