<svg width="80" height="80" viewBox="0 0 80 80" fill="none" xmlns="http://www.w3.org/2000/svg">
<path d="M44.4446 35.6927C44.6277 35.4541 45.157 34.3908 45.1212 33.9145C45.0845 33.4381 44.9747 32.448 43.8055 32.3566C42.6361 32.2651 41.7582 33.1081 41.8314 33.9701C41.9047 34.8314 42.7452 35.7118 45.0845 37.4717C47.4239 39.2315 49.4885 40.3131 49.8548 42.7696C50.2208 45.2262 48.6672 46.8581 48.2469 47.1515C47.8267 47.4449 46.0724 48.7285 43.2761 48.5082C44.9262 47.8672 45.6154 46.4182 43.8978 44.3466C43.8978 44.3466 41.3578 40.8451 40.7729 39.6165C40.1878 38.3878 39.4021 36.4816 39.8591 34.6485C40.3159 32.8154 41.4311 32.0448 42.1251 31.7156C42.82 31.3856 43.971 31.3307 44.72 31.8802C45.4689 32.4298 45.5215 32.9968 45.4689 33.6584C45.3766 34.8131 44.4446 35.6927 44.4446 35.6927ZM49.7625 39.1282C49.9995 38.9484 51.1331 37.7826 50.7677 36.4012C50.4023 35.0199 49.1232 35.1638 48.7754 35.2887C48.4284 35.4143 47.6786 35.8986 47.8068 36.9031C47.9349 37.9075 48.6838 38.0514 49.0492 38.356C49.4146 38.6606 49.4695 39.1457 49.2139 39.4685C49.2148 39.4685 49.5252 39.3071 49.7625 39.1282ZM37.1162 41.4948C36.8766 42.1875 36.2573 44.6409 38.6698 46.3196C41.0825 47.9976 43.7322 45.6524 43.7322 45.6524C43.7322 45.6524 41.119 45.8051 39.7485 43.5355C38.3777 41.2666 39.4929 39.0924 39.6752 38.9397C39.6744 38.9397 37.683 39.855 37.1162 41.4948Z" fill="#F05A0A"/>
<path d="M57.6249 42.0309C57.1625 43.3136 56.2177 44.2703 55.3795 44.2703C54.8782 44.2703 54.6759 44.077 54.6759 43.5879C54.6759 43.1402 54.8972 42.2647 55.2546 40.8905H55.206C54.8304 42.1223 54.4061 42.9971 53.9142 43.506C53.4222 44.015 52.9311 44.2695 52.4297 44.2695C51.8996 44.2695 51.6393 43.9538 51.6393 43.2722C51.6393 40.9111 53.0561 38.9564 55.003 38.9564C55.4751 38.9564 55.9861 39.0685 56.439 39.2411L57.5954 38.8546C57.5764 38.9461 57.5087 39.2005 57.3838 39.6387C57.2588 40.0761 57.1236 40.5652 56.9786 41.0845C56.8337 41.6038 56.7088 42.1128 56.5934 42.5907C56.478 43.0694 56.4198 43.3947 56.4198 43.5577C56.8146 43.1506 57.1911 42.57 57.4219 42.0412L57.6249 42.0309ZM53.7892 43.0074C54.0496 43.0074 54.9552 42.0102 55.4759 39.6379C55.4472 39.2713 55.3509 39.1186 55.1192 39.1186C54.5509 39.1186 53.6348 40.9207 53.6348 42.7728C53.6348 42.947 53.673 43.0074 53.7892 43.0074ZM63.0478 43.5983C63.0478 42.9979 63.6743 40.9008 64.0118 39.8829H63.1831L63.3948 39.1091H64.2721L64.6771 38.1214L66.4124 38.0602L66.0654 39.1083H67.1741L66.9623 39.8821H65.8345C65.5265 40.8897 64.861 42.8953 64.8125 43.5872C65.0537 43.4241 65.3043 43.1697 65.5838 42.8341C65.8536 42.4985 66.0853 42.1422 66.2874 41.7756L66.4801 41.7652C65.8918 43.0679 64.697 44.2695 63.7713 44.2695C63.2023 44.2703 63.0478 44.0762 63.0478 43.5983ZM71.7198 41.8471C71.0933 43.1402 69.792 44.2695 68.3075 44.2695C67.3826 44.2695 66.9584 43.7605 66.9584 42.8651C66.9584 40.6662 68.2789 38.9564 70.4479 38.9564C71.5368 38.9564 72 39.323 72 39.9847C72 41.0328 70.9979 41.7255 68.9444 41.8471C68.9347 42.0205 68.9252 42.2034 68.9252 42.3768C68.9252 42.9064 69.1568 43.1609 69.5802 43.1609C70.3898 43.1609 70.9103 42.7943 71.5368 41.8583L71.7198 41.8471ZM68.9539 41.735C69.8024 41.5314 70.2362 40.8491 70.2362 39.9839C70.2362 39.4137 70.1494 39.1902 69.995 39.1902C69.5802 39.191 69.0788 40.3409 68.9539 41.735ZM57.8694 44.2703C57.8694 44.209 58.0031 43.8528 58.1089 43.4559C58.2148 43.0591 58.3406 42.6209 58.4751 42.1326C58.6 41.6443 58.7258 41.1656 58.8316 40.6869C58.9375 40.2185 58.9956 39.8829 58.9956 39.6793C58.5714 40.0761 58.2729 40.6058 58.0316 41.1855L57.8391 41.1958C58.3016 39.9131 59.1882 38.9564 60.0654 38.9564C60.5955 38.9564 60.769 39.1496 60.769 39.6387C60.769 40.0864 60.586 40.8396 60.2294 42.2137H60.2675C60.566 41.2062 60.894 40.4117 61.2506 39.832C61.6071 39.2514 61.9351 38.9564 62.2527 38.9564C62.5997 38.9564 62.7924 39.2005 62.7924 39.8519C62.7924 40.4626 62.4939 41.0431 62.1564 41.2563H62.1373C62.0123 41.0121 61.7806 40.8897 61.5396 40.8897C61.2021 40.8897 60.4403 40.9811 59.872 44.0858L57.8694 44.2703ZM8 43.3056C8 42.8269 8.46484 42.4396 9.1231 42.368H9.13424C9.16688 43.3565 9.58794 44.019 10.247 44.019C10.5821 44.019 10.7763 43.8766 10.7763 43.5601C10.7763 43.2341 10.4953 42.8269 9.72882 42.1334C9.24249 41.6849 8.7888 41.1553 8.7888 40.4928C8.7888 39.6268 10.0958 38.954 11.4027 38.954C12.4828 38.954 12.8283 39.2697 12.8283 39.7485C12.8283 40.2073 12.3531 40.6551 11.737 40.6964H11.7259C11.6933 39.9115 11.3048 39.2085 10.7325 39.2085C10.4412 39.2085 10.2788 39.3612 10.2788 39.6467C10.2788 39.9218 10.5057 40.2272 11.2833 40.9207C11.7912 41.3795 12.3308 41.9092 12.3308 42.5613C12.3308 43.5498 10.8726 44.2727 9.53301 44.2727C8.39957 44.2735 8 43.8862 8 43.3056ZM19.0487 42.0316C18.5863 43.3152 17.6423 44.2735 16.8041 44.2735C16.3035 44.2735 16.1013 44.0802 16.1013 43.5911C16.1013 43.1426 16.3226 42.2662 16.6792 40.8913H16.6314C16.2557 42.1239 15.8322 43.0003 15.3403 43.51C14.8492 44.0198 14.3581 44.2743 13.8567 44.2743C13.3266 44.2743 13.0671 43.9585 13.0671 43.2754C13.0671 40.9119 14.4831 38.9556 16.4284 38.9556C16.9004 38.9556 17.4106 39.0677 17.8635 39.2411L19.0193 38.8538C19.0002 38.9453 18.9325 39.2005 18.8076 39.6387C18.6826 40.0769 18.5473 40.566 18.4032 41.0853C18.2583 41.6046 18.1334 42.1144 18.018 42.5931C17.9025 43.0718 17.8444 43.3979 17.8444 43.5609C18.2392 43.1537 18.6149 42.5724 18.8458 42.0428L19.0487 42.0316ZM15.2154 43.0098C15.4757 43.0098 16.3807 42.011 16.9012 39.6371C16.8726 39.2705 16.7763 39.1178 16.5446 39.1178C15.9763 39.1178 15.061 40.9215 15.061 42.776C15.061 42.9494 15.1 43.0098 15.2154 43.0098ZM19.2318 43.5911C19.2318 43.2857 19.9155 40.504 20.4552 37.9671L19.8964 37.4271L19.906 37.4065L22.6608 36.5913L22.3623 37.9258C22.1315 38.9651 21.7263 40.7378 21.4183 41.9402H21.447C21.8226 40.8499 22.2461 40.0857 22.7182 39.6276C23.19 39.1791 23.6621 38.9548 24.1341 38.9548C24.6642 38.9548 24.9237 39.2705 24.9237 39.9536C24.9237 42.3171 23.4981 44.2735 21.5234 44.2735C20.7441 44.2735 19.8582 44.0086 19.2318 43.5911ZM21.1875 43.0098C21.1389 43.2444 21.0721 43.4583 21.0331 43.6317C21.0713 43.9681 21.1875 44.1104 21.4088 44.1104C22.0057 44.1104 22.9306 42.3068 22.9306 40.4523C22.9306 40.2789 22.8924 40.2177 22.7762 40.2177C22.5454 40.2185 21.7271 41.0543 21.1875 43.0098ZM25.1553 42.5621C25.1553 40.6972 26.5227 38.9556 28.4784 38.9556C29.7401 38.9556 30.3179 39.5258 30.3179 40.6773C30.3179 42.5517 28.9306 44.2743 26.9757 44.2743C25.7134 44.2735 25.1553 43.7128 25.1553 42.5621ZM28.5167 40.2288C28.5167 39.5258 28.449 39.1695 28.266 39.1695C27.7558 39.1695 26.9463 41.1561 26.9463 43.0313C26.9463 43.7239 27.0043 44.0603 27.1875 44.0603C27.6594 44.0595 28.5167 42.1032 28.5167 40.2288ZM30.5997 44.2735C30.5997 44.2122 30.7382 43.8559 30.8489 43.4583C30.9587 43.0607 31.0892 42.6225 31.2293 42.1334C31.3599 41.6443 31.4896 41.1656 31.5995 40.6869C31.7093 40.2185 31.7697 39.8821 31.7697 39.6785C31.3296 40.0761 31.0192 40.6058 30.7685 41.1863L30.5678 41.1966C31.0487 39.9131 31.9696 38.9548 32.8809 38.9548C33.4318 38.9548 33.6117 39.1481 33.6117 39.6371C33.6117 40.0857 33.4214 40.8396 33.0513 42.2153H33.0911C33.4015 41.207 33.7422 40.4117 34.1123 39.8312C34.4823 39.2506 34.8231 38.9548 35.1534 38.9548C35.514 38.9548 35.7137 39.199 35.7137 39.8511C35.7137 40.4626 35.4034 41.0431 35.0531 41.2571H35.0332C34.9026 41.0129 34.6631 40.8905 34.4124 40.8905C34.0621 40.8905 33.2709 40.9819 32.6804 44.0898L30.5997 44.2735Z" fill="#828C46"/>
</svg>
