<svg width="80" height="80" viewBox="0 0 80 80" fill="none" xmlns="http://www.w3.org/2000/svg">
<path d="M49.98 41.3217C49.98 40.556 50.6275 40.0256 51.3929 40.0256C52.2171 40.0256 52.8647 40.556 52.8647 41.3217C52.8647 42.0287 52.2171 42.6178 51.3929 42.6178C50.6275 42.6178 49.98 42.0287 49.98 41.3217Z" fill="#185242"/>
<path d="M57.2807 49.2757C57.2807 50.1006 57.575 50.2775 58.0458 50.0417L58.3993 51.9859C56.5738 52.3983 54.749 52.3392 54.749 49.6881V40.3203H57.2807V49.2757Z" fill="#185242"/>
<path d="M52.6884 52.045H50.1567V43.6787H52.6884V52.045Z" fill="#185242"/>
<path d="M46.7416 47.0369L45.7409 46.6244C44.5043 46.212 44.9164 45.0925 46.3295 45.505L47.5661 46.1533L48.6847 44.5624C44.6221 41.3219 39.9117 46.0354 44.3867 48.4509L45.7409 48.9223C46.4473 49.1579 46.8005 50.1006 45.7409 50.2184C45.0342 50.2775 44.2689 50.0417 43.4444 49.3935L42.208 50.9842C47.154 54.814 51.6287 48.7456 46.7416 47.0369Z" fill="#185242"/>
<path fill-rule="evenodd" clip-rule="evenodd" d="M40.9715 52.045V47.2724C40.9124 45.1514 40.0295 44.0319 38.5575 43.5608C37.38 43.3841 35.9671 43.5018 34.0239 44.5623L35.0248 46.2709C37.3211 44.9158 38.4399 45.446 38.4399 46.6244C34.6718 46.6244 33.4352 48.7455 33.8474 50.3364C34.2595 51.809 36.4379 53.0464 38.6753 51.161L38.9111 52.045H40.9715ZM38.4399 48.1561C36.6735 48.3919 35.8491 48.9222 36.3792 49.8649C36.909 50.3951 37.6156 50.454 38.4399 49.5115V48.1561Z" fill="#185242"/>
<path d="M33.2589 45.9173L33.6708 43.6196L33.5964 43.6078C32.4999 43.4334 31.3487 43.2502 30.1973 45.1513L30.1384 43.6783H28.0774V52.0449H30.6092V47.2723C31.1391 45.7404 32.0812 45.5048 33.2589 45.9173Z" fill="#185242"/>
<path fill-rule="evenodd" clip-rule="evenodd" d="M22.6606 52.0448C24.8392 52.0448 26.6055 50.6894 26.6055 49.0988C26.6055 47.6848 25.899 46.5063 24.3091 46.2118C25.31 45.8583 26.0168 44.9157 26.0168 43.7372C26.0168 42.3232 24.4859 41.145 23.0139 41.145H18.2449V52.0448H22.6606ZM24.0737 48.6273C24.0737 47.9203 23.485 47.2723 22.7195 47.2723H20.7764V49.9824H22.7195C23.485 49.9824 24.0737 49.3344 24.0737 48.6273ZM22.4252 45.3868H20.7764V43.1481H22.4252C23.0728 43.1481 23.6026 43.6196 23.6026 44.2676C23.6026 44.9157 23.0728 45.3868 22.4252 45.3868Z" fill="#185242"/>
<path d="M13.6523 48.0384L12.7689 44.9158H11.4148L12.8868 49.2754H14.4177L15.8897 44.9158H14.5356L13.6523 48.0384Z" fill="#185242"/>
<path d="M10.944 44.9159L11.2973 45.9174H10.0018V47.2135C10.0018 47.9795 10.0018 48.4508 11.0027 48.1561L11.2384 49.3346C9.11873 49.688 8.64762 48.9223 8.64762 48.1561V45.9174H8V44.9159H8.64762L8.82438 43.6785H10.0018V44.9159H10.944Z" fill="#185242"/>
<path fill-rule="evenodd" clip-rule="evenodd" d="M63.7573 45.6229C67.9964 40.1435 70.587 36.3141 72.0001 33.604C69.233 30.1276 65.3469 28.0655 59.9893 27.771C62.8742 31.0115 64.8172 35.8427 63.7573 45.6229Z" fill="#FFD600"/>
<path fill-rule="evenodd" clip-rule="evenodd" d="M54.3367 34.1928C58.9881 34.9588 61.9319 39.1419 63.7571 45.6229C64.817 35.8424 62.8742 31.0113 59.9891 27.7708C57.8695 29.6562 55.9267 31.9539 54.3367 34.1928Z" fill="#108439"/>
</svg>
