<svg width="80" height="80" viewBox="0 0 80 80" fill="none" xmlns="http://www.w3.org/2000/svg">
<path fill-rule="evenodd" clip-rule="evenodd" d="M32.2303 31.3333C33.9163 31.3333 35.0794 32.4407 35.0794 33.8932C35.0794 35.3478 33.9163 36.4693 32.2303 36.4693H30.8222C30.4607 36.7364 30.0082 36.8944 29.5175 36.8944C28.3285 36.8944 27.3637 35.9611 27.3637 34.8106C27.3637 33.6602 28.3285 32.7238 29.5175 32.7238C30.7076 32.7238 31.6714 33.6602 31.6714 34.8106C31.6714 35.1087 31.6063 35.3918 31.4896 35.6489L32.2303 35.6479C33.3563 35.6479 34.0928 34.9216 34.0928 33.9083C34.0928 32.8949 33.3563 32.1556 32.2303 32.1556H31.1765V32.9089C31.0216 32.7258 30.8387 32.5597 30.6373 32.4277C30.5102 32.3416 30.376 32.2706 30.2354 32.2126V31.3333H32.2303ZM53.3622 34.5765C53.3622 34.8736 53.4148 35.1488 53.5222 35.3949C53.6275 35.6419 53.7763 35.855 53.9613 36.0281C54.1482 36.2052 54.3673 36.3442 54.6193 36.4423C54.8724 36.5383 55.1461 36.5893 55.4364 36.5893C55.8084 36.5893 56.1297 36.5213 56.3982 36.3902C56.6647 36.2592 56.8972 36.0811 57.0913 35.861L56.5459 35.3989C56.3827 35.5499 56.2164 35.666 56.049 35.744C55.8796 35.822 55.6824 35.861 55.4509 35.861C55.1503 35.861 54.8952 35.777 54.6823 35.6089C54.4705 35.4379 54.3384 35.1958 54.2866 34.8766H57.2587L57.2712 34.7486C57.2722 34.7076 57.2731 34.6666 57.2731 34.6285C57.2731 34.3494 57.2329 34.0843 57.1524 33.8302C57.0708 33.5781 56.9488 33.3571 56.7877 33.166C56.6265 32.9749 56.425 32.8228 56.1813 32.7118C55.9416 32.5978 55.6596 32.5427 55.3383 32.5427C55.0459 32.5427 54.7794 32.5968 54.5398 32.6998C54.3001 32.8058 54.0934 32.9489 53.9169 33.134C53.7402 33.317 53.6049 33.5301 53.5057 33.7752C53.4096 34.0193 53.3622 34.2834 53.3622 34.5625V34.5765ZM12.5591 42.8819C10.7131 42.6579 9.84018 42.4388 9.8598 41.4224C9.8598 40.5821 10.7544 40.2079 11.2875 40.0529C11.7162 39.9348 12.1872 39.8748 12.6449 39.8748C13.2006 39.8748 14.1283 39.9708 14.7409 40.541C14.93 40.7281 15.2213 40.8141 15.4527 40.6831L16.1551 40.2849C16.3907 40.1479 16.4795 39.8558 16.3297 39.6377C15.3824 38.2872 13.4506 38.1321 12.6066 38.1321C11.9848 38.1321 11.3577 38.2091 10.8019 38.3592C9.06746 38.8524 8.05921 39.9658 8.03545 41.4224C8.01272 44.1094 10.2741 44.3925 12.2678 44.6386L12.3143 44.6436C14.1614 44.8717 15.0281 45.0908 15.0147 46.1072C15.0147 46.9475 14.0157 47.2987 13.587 47.4127C13.1769 47.5217 12.6914 47.5868 12.2255 47.5868C11.5323 47.5868 10.3588 47.4397 9.71827 46.5874C9.56745 46.3864 9.29473 46.2763 9.06333 46.3954L8.28131 46.7975C8.04062 46.9205 7.92285 47.1986 8.05508 47.4317C8.83296 48.8273 10.6935 49.3334 12.2719 49.3334C12.9031 49.3334 13.525 49.2565 14.0674 49.1104C15.806 48.6412 16.8142 47.5498 16.838 46.1122C16.8617 43.4292 14.4775 43.124 12.5591 42.8819ZM46.8624 38.137H46.9336C49.1154 38.137 51.3157 39.1494 51.3157 41.4223V48.7502C51.3157 48.9962 51.103 49.2064 50.8447 49.2064H49.9491C49.6897 49.2064 49.4728 48.9962 49.4728 48.7502V41.3983C49.4728 40.3909 48.1721 39.8557 46.886 39.8557C45.5855 39.8557 44.2756 40.3859 44.2756 41.5673V48.7502C44.2756 48.9962 44.0638 49.2064 43.8046 49.2064H42.9098C42.6454 49.2064 42.4337 48.9962 42.4337 48.7502V38.7212C42.4337 38.4691 42.6454 38.2601 42.9098 38.2601H43.8944C44.1061 38.2601 44.2756 38.4291 44.2756 38.6292C44.2756 38.7112 44.3696 38.7522 44.4409 38.7112C45.1103 38.3321 45.9335 38.137 46.8624 38.137ZM68.679 49.2242C69.9279 49.037 70.8421 48.5899 71.4589 47.8736C71.6241 47.6825 71.5528 47.3905 71.3317 47.2574L70.5921 46.8112C70.3608 46.6732 70.0695 46.7372 69.8659 46.9103C69.5034 47.2163 69.0136 47.4074 68.401 47.4854C67.8453 47.5865 67.3732 47.5865 66.8133 47.4854C66.1159 47.3714 65.5498 47.0843 65.2482 46.6961C65.1067 46.5001 65.0509 46.313 65.0509 46.0209V45.5467C65.0509 45.4237 65.1636 45.3226 65.2906 45.3276C65.3991 45.3276 65.5126 45.3316 65.6305 45.3367C66.0168 45.3506 66.4218 45.3637 66.8463 45.3637C67.8163 45.3637 69.0654 45.2996 70.0735 44.7704C71.3928 44.1042 72.1282 42.8177 71.9815 41.4221C71.8359 39.9706 70.8184 38.8071 69.3288 38.3779C68.7874 38.2359 68.2224 38.1639 67.6521 38.1639C67.086 38.1639 66.5209 38.2359 65.9838 38.3779C64.2214 38.8431 63.208 39.9205 63.208 41.3161V45.9389C63.208 46.6462 63.3867 47.2124 63.7596 47.7316C64.3629 48.5029 65.4228 49.0561 66.6666 49.2422C66.9786 49.2881 67.2751 49.3153 67.5859 49.3153C67.9248 49.3153 68.2782 49.2832 68.679 49.2242ZM65.2906 43.6891C65.1594 43.6891 65.0509 43.584 65.0509 43.457V41.3161C65.0509 40.5178 66.0354 40.1667 66.4548 40.0526C67.1986 39.8696 68.1087 39.8696 68.8494 40.0526C69.6211 40.2627 70.1583 40.8789 70.2244 41.6273C70.2853 42.3345 69.9082 42.9408 69.2202 43.2469C68.3535 43.648 67.1293 43.6981 66.1584 43.6981C66.0367 43.6981 65.9163 43.6967 65.7997 43.6954H65.7996C65.6904 43.6942 65.5846 43.6931 65.4847 43.6931C65.4186 43.6931 65.3526 43.6931 65.2906 43.6891ZM56.0976 40.0797C56.5129 39.9707 56.9086 39.9207 57.3042 39.9207C57.7009 39.9207 58.1193 39.9757 58.4922 40.0797C58.8363 40.1668 59.5377 40.4089 59.8063 40.9151C59.9292 41.1472 60.1264 41.3573 60.3909 41.3573H61.267C61.5262 41.3573 61.7433 41.1522 61.7008 40.9061C61.5118 39.7196 60.546 38.8153 58.987 38.4011C58.3786 38.251 57.8136 38.178 57.3042 38.178C56.7763 38.178 56.2113 38.251 55.6225 38.4011C53.9025 38.8573 52.8798 39.9617 52.8798 41.3573V46.1261C52.8798 47.5597 53.9025 48.6821 55.6317 49.1333C56.169 49.2653 56.734 49.3294 57.3042 49.3294C57.8838 49.3294 58.4448 49.2653 59.0056 49.1243L59.1565 49.0693L59.1792 49.0603C60.5976 48.6451 61.5076 47.7548 61.7008 46.6283C61.7433 46.3772 61.5262 46.1671 61.267 46.1671H60.3909C60.1264 46.1671 59.9292 46.3772 59.8114 46.6093C59.5521 47.1155 58.8786 47.3536 58.5666 47.4397L58.4922 47.4536C57.7804 47.6417 56.8095 47.6368 56.1079 47.4536C55.5801 47.3086 54.699 46.9424 54.699 46.1261V41.3803C54.699 40.5319 55.6792 40.1848 56.0976 40.0797ZM34.0505 45.5467V46.0209C34.0505 46.313 34.1021 46.5001 34.2437 46.6961C34.5454 47.0843 35.1155 47.3714 35.8087 47.4854C36.3697 47.5865 36.8449 47.5865 37.3964 47.4854C38.009 47.4074 38.4988 47.2163 38.8613 46.9103C39.0649 46.7372 39.3562 46.6732 39.5876 46.8112L40.3273 47.2574C40.5493 47.3905 40.6196 47.6825 40.4543 47.8736C39.8324 48.5899 38.9233 49.037 37.6744 49.2242C37.2787 49.2832 36.9203 49.3153 36.5815 49.3153C36.2695 49.3153 35.9729 49.2881 35.663 49.2422C34.4141 49.0561 33.3532 48.5029 32.7551 47.7316C32.378 47.2124 32.2034 46.6462 32.2034 45.9389V41.3161C32.2034 39.9205 33.2117 38.8431 34.9741 38.3779C35.5123 38.2359 36.0814 38.1639 36.6475 38.1639C37.2167 38.1639 37.7828 38.2359 38.32 38.3779C39.8138 38.8071 40.8313 39.9706 40.978 41.4221C41.1236 42.8177 40.3882 44.1042 39.0689 44.7704C38.0555 45.2996 36.8117 45.3637 35.8408 45.3637C35.4172 45.3637 35.0122 45.3506 34.6259 45.3367C34.5071 45.3316 34.3945 45.3276 34.2871 45.3276C34.1548 45.3226 34.0505 45.4237 34.0505 45.5467ZM34.2871 43.6891C34.1548 43.6891 34.0504 43.584 34.0504 43.457V41.3161C34.0504 40.5178 35.0257 40.1667 35.4502 40.0526C36.1951 39.8696 37.1041 39.8696 37.8437 40.0526C38.6123 40.2627 39.1537 40.8789 39.2198 41.6273C39.2765 42.3345 38.9036 42.9408 38.2156 43.2469C37.3438 43.648 36.1237 43.6981 35.1578 43.6981C35.0296 43.6981 34.9066 43.6967 34.7893 43.6954H34.7891L34.7888 43.6954C34.6823 43.6942 34.5806 43.6931 34.4843 43.6931C34.414 43.6931 34.352 43.6931 34.2871 43.6891ZM29.9236 38.2601H29.0279C28.7644 38.2601 28.5517 38.4691 28.5517 38.7212V48.7451C28.5517 48.9962 28.7644 49.2013 29.0279 49.2013H29.9236C30.187 49.2013 30.3988 48.9962 30.3988 48.7451V38.7212C30.3988 38.4691 30.187 38.2601 29.9236 38.2601ZM22.3699 39.9207C21.969 39.9207 21.5734 39.9707 21.1591 40.0797C20.7397 40.1848 19.7594 40.5319 19.7594 41.3803V46.1261C19.7594 46.9424 20.6447 47.3086 21.1633 47.4536C21.8699 47.6368 22.8461 47.6368 23.5568 47.4536L23.6281 47.4397C23.939 47.3536 24.6125 47.1155 24.8719 46.6144C24.9896 46.3772 25.1921 46.1671 25.4515 46.1671H26.3275C26.5867 46.1671 26.8037 46.3772 26.7613 46.6283C26.5681 47.7548 25.6538 48.6451 24.2449 49.0603L24.221 49.0693L24.0661 49.1243C23.5103 49.2653 22.94 49.3294 22.3699 49.3294C21.7955 49.3294 21.2294 49.2653 20.6974 49.1333C18.968 48.6821 17.936 47.5597 17.936 46.1261V41.3573C17.936 39.9617 18.9629 38.8573 20.687 38.4011C21.2717 38.251 21.8378 38.178 22.3699 38.178C22.8791 38.178 23.4442 38.251 24.0475 38.4011C25.6073 38.8153 26.5733 39.7196 26.7613 40.9061C26.8037 41.1522 26.5867 41.3573 26.3275 41.3573H25.4515C25.1869 41.3573 24.9896 41.1472 24.8668 40.9151C24.5939 40.4089 23.8967 40.1668 23.5526 40.0797C23.1808 39.9757 22.7614 39.9207 22.3699 39.9207ZM62.6956 35.4659L63.7327 32.6228H64.6977C64.6977 32.6228 62.926 37.0235 62.6956 37.4737C62.4828 37.8839 62.4136 37.9649 62.1037 38.153C61.9198 38.266 61.4415 38.283 61.0768 38.285H60.7648V37.5577C60.9519 37.5697 61.4425 37.5787 61.6554 37.4747C61.9023 37.3036 62.1718 36.6484 62.2236 36.5193L62.2318 36.4973L62.2432 36.4743L60.7401 32.6228H61.7287L62.6956 35.4659ZM58.8982 34.8357L58.893 35.0237V36.5003H57.9664V32.6228H58.893V33.2641C59.1988 32.8999 59.6709 32.7399 60.0025 32.6688L60.1348 32.6438L60.4519 33.3871C60.049 33.4431 59.2722 33.6422 58.9923 34.3495C58.9365 34.4895 58.9086 34.6526 58.8982 34.8357ZM54.2794 34.1956H56.3548C56.343 34.0878 56.3215 34.039 56.2894 33.9662V33.966C56.2795 33.9436 56.2686 33.9189 56.2567 33.8894C56.2041 33.7654 56.1348 33.6543 56.0491 33.5623C55.9623 33.4713 55.857 33.3972 55.7401 33.3472C55.6183 33.2952 55.4809 33.2702 55.329 33.2702C55.0429 33.2702 54.8083 33.3622 54.6193 33.5523C54.4344 33.7414 54.3198 33.8934 54.2794 34.1956ZM51.2031 35.4729L52.2981 32.6228H53.2722L51.6172 36.5293H50.7837L49.1204 32.6228H50.1174L51.2031 35.4729ZM44.9324 35.3628C44.825 35.1167 44.7724 34.8576 44.7724 34.5835V34.5685C44.7724 34.2894 44.8271 34.0263 44.9356 33.7832C45.0461 33.5401 45.199 33.326 45.389 33.14C45.5801 32.9559 45.8075 32.8118 46.072 32.7028C46.3333 32.5967 46.6195 32.5427 46.9305 32.5427C47.2434 32.5427 47.5306 32.5967 47.794 32.6998C48.0564 32.8058 48.2837 32.9489 48.4748 33.134C48.6679 33.317 48.8157 33.5301 48.9211 33.7712C49.0317 34.0143 49.0843 34.2744 49.0843 34.5535V34.5685C49.0843 34.8436 49.0296 35.1017 48.918 35.3478C48.8095 35.5929 48.6577 35.807 48.4675 35.9891C48.2753 36.1731 48.0462 36.3182 47.7815 36.4282C47.5181 36.5333 47.2268 36.5893 46.9159 36.5893C46.6102 36.5893 46.3251 36.5353 46.0627 36.4302C45.7991 36.3252 45.5729 36.1831 45.3808 36.0001C45.1897 35.819 45.0409 35.6079 44.9324 35.3628ZM45.6991 34.5685C45.6991 34.7366 45.73 34.8957 45.791 35.0467C45.8509 35.1998 45.9367 35.3308 46.0481 35.4459C46.1567 35.5619 46.2868 35.6519 46.4356 35.719C46.5884 35.783 46.7537 35.818 46.9305 35.818C47.1194 35.818 47.2889 35.783 47.4407 35.719C47.5906 35.6519 47.7196 35.5619 47.8282 35.4489C47.9345 35.3388 48.0151 35.2058 48.0719 35.0567C48.1278 34.9067 48.1557 34.7506 48.1557 34.5835V34.5685C48.1557 34.3975 48.1246 34.2354 48.0637 34.0843C48.0037 33.9323 47.916 33.8002 47.8096 33.6892C47.698 33.5731 47.5678 33.4851 47.4179 33.4191C47.2693 33.352 47.1008 33.321 46.9159 33.321C46.7311 33.321 46.5658 33.352 46.4149 33.4191C46.2641 33.4851 46.135 33.5731 46.0286 33.6842C45.9221 33.7952 45.8384 33.9253 45.7826 34.0723C45.7259 34.2244 45.6991 34.3834 45.6991 34.5535V34.5685ZM43.9913 35.3308L44.5502 35.86C44.1536 36.2852 43.6846 36.5863 42.8974 36.5863C41.6939 36.5863 40.8065 35.683 40.8065 34.5755C40.8065 33.4661 41.6939 32.5427 42.9046 32.5427C43.5833 32.5427 44.0357 32.7578 44.3912 33.0819L44.5202 33.208L43.9448 33.8052C43.6598 33.5151 43.3633 33.319 42.8974 33.319C42.2218 33.319 41.7331 33.8772 41.7331 34.5595C41.7331 35.2588 42.229 35.814 42.9418 35.814C43.3157 35.814 43.606 35.67 43.8643 35.4479L43.9913 35.3308ZM39.5308 35.5401C39.509 35.6271 39.4574 35.6981 39.3748 35.7552C39.2653 35.8302 39.1114 35.8692 38.9119 35.8692C38.7011 35.8692 38.4832 35.8292 38.257 35.7462C38.0297 35.6661 37.8076 35.5481 37.5875 35.391L37.1744 35.9943L37.3696 36.1283C37.5679 36.2544 37.7797 36.3534 38.005 36.4284C38.3024 36.5245 38.5969 36.5725 38.8892 36.5725C39.0958 36.5725 39.2942 36.5485 39.478 36.4974C39.664 36.4434 39.821 36.3674 39.9584 36.2684C40.0927 36.1683 40.1981 36.0433 40.2745 35.8922C40.3531 35.7382 40.3912 35.5591 40.3912 35.355V35.34L40.384 35.2129C40.3696 35.0909 40.3334 34.9829 40.2745 34.8918C40.1981 34.7688 40.0988 34.6647 39.98 34.5807C39.8603 34.4947 39.728 34.4216 39.5773 34.3626C39.4306 34.3036 39.2818 34.2526 39.133 34.2096C39.0662 34.1874 39.0011 34.1663 38.9372 34.1455L38.9371 34.1455C38.8883 34.1296 38.8405 34.1141 38.7931 34.0985C38.6825 34.0645 38.5865 34.0255 38.5028 33.9845C38.4181 33.9445 38.3489 33.8974 38.2993 33.8444C38.2498 33.7954 38.224 33.7344 38.224 33.6653V33.6513L38.2333 33.5713C38.2519 33.4943 38.2973 33.4273 38.3726 33.3702C38.4719 33.2992 38.6093 33.2632 38.7911 33.2632C38.9573 33.2632 39.1402 33.2952 39.3406 33.3602C39.5401 33.4262 39.7352 33.5153 39.9284 33.6303L40.2973 32.9971L40.0762 32.87C39.9233 32.792 39.7601 32.726 39.5866 32.675C39.3251 32.5969 39.0668 32.5559 38.8117 32.5559C38.6134 32.5559 38.4265 32.5849 38.2498 32.6389C38.072 32.692 37.9202 32.77 37.79 32.874C37.6589 32.9751 37.5566 33.0991 37.4833 33.2432C37.4089 33.3882 37.3727 33.5543 37.3727 33.7394V33.7534L37.3799 33.8884C37.3943 34.0155 37.4296 34.1285 37.4873 34.2246C37.5649 34.3516 37.6609 34.4577 37.7818 34.5437C37.9027 34.6287 38.0369 34.6987 38.1889 34.7518C38.3396 34.8068 38.4874 34.8528 38.6362 34.8918C38.711 34.9149 38.785 34.9359 38.8573 34.9565L38.8576 34.9566C38.8979 34.9681 38.9378 34.9794 38.977 34.9909C39.0886 35.0239 39.1826 35.0599 39.2663 35.1009C39.353 35.1419 39.4171 35.1909 39.4678 35.244C39.5162 35.298 39.5401 35.363 39.5401 35.436V35.449L39.5308 35.5401ZM36.5411 36.5003H35.6155V32.6228H36.5411V36.5003Z" fill="black"/>
</svg>
