<svg width="80" height="80" viewBox="0 0 80 80" fill="none" xmlns="http://www.w3.org/2000/svg">
<path d="M40 72.2665C57.6731 72.2665 72 57.8202 72 39.9998C72 22.1794 57.6731 7.73315 40 7.73315C22.3269 7.73315 8 22.1794 8 39.9998C8 57.8202 22.3269 72.2665 40 72.2665Z" fill="white"/>
<path fill-rule="evenodd" clip-rule="evenodd" d="M40 72.2667C57.6731 72.2667 71.9999 57.8202 71.9999 39.9998C71.9999 35.1231 70.9268 30.499 69.0061 26.3546C68.9421 26.3753 68.8797 26.3982 68.8184 26.4232C68.6525 26.4944 68.4941 26.5785 68.3405 26.6814C68.1911 26.7809 68.0428 26.9014 67.9004 27.0353C67.6348 27.2761 67.4135 27.56 67.2209 27.8782C67.03 28.1969 66.8678 28.5488 66.7302 28.9358C66.591 29.3181 66.4737 29.7367 66.3659 30.1772C66.2651 30.6177 66.1696 31.085 66.079 31.5767C66.0235 31.8697 65.5557 34.6775 65.1818 36.9552C65.1802 36.9552 64.6725 39.9098 64.6725 39.9098C64.6725 39.9098 64.6597 39.9855 64.6426 40.0951L64.6351 40.1394L64.6133 40.2596C64.5733 40.4969 64.5466 40.7241 64.5252 40.945C64.5135 41.0443 64.5055 41.1315 64.5013 41.1959C64.4959 41.2836 64.4879 41.4585 64.4879 41.4585L64.4916 41.4738C64.4927 41.4796 64.4938 41.4854 64.4949 41.4915L64.4954 41.4966C64.4938 41.7262 64.5013 41.9466 64.5365 42.1475C64.5839 42.4092 64.6661 42.6453 64.7919 42.8467C64.8666 42.9554 64.9498 43.0545 65.0453 43.1404C65.1392 43.2261 65.2469 43.2976 65.3621 43.3564C65.4811 43.4158 65.6101 43.458 65.7509 43.4878L65.7861 43.4943L65.8219 43.5005L64.7983 46.8522C64.7653 46.8527 64.7317 46.8534 64.6986 46.8542C64.6261 46.8559 64.553 46.8577 64.4794 46.8561C64.0932 46.8419 63.7391 46.7958 63.4137 46.7157C63.0915 46.6365 62.7961 46.5299 62.5246 46.3863C62.4926 46.3691 62.4622 46.3493 62.4318 46.3295L62.4067 46.3132L62.38 46.2965C62.1902 46.1957 62.0083 46.0903 61.8435 45.9689C61.5933 45.7831 61.3746 45.5709 61.1944 45.3419C60.904 44.9668 60.7035 44.5289 60.5687 44.0542C60.4038 44.3511 60.2048 44.6444 59.9658 44.9274L59.8045 45.105L59.6386 45.2728L59.6279 45.2914L59.6209 45.2973C59.6063 45.3095 59.5921 45.3222 59.5782 45.3344L59.5606 45.35C59.5054 45.4025 59.451 45.4531 59.3944 45.5C59.3935 45.5007 59.3928 45.5016 59.3921 45.5026C59.3913 45.5037 59.3903 45.5048 59.3886 45.5053C59.3302 45.557 59.2704 45.6055 59.2112 45.6531C59.0369 45.7948 58.8629 45.9236 58.688 46.0377C58.3748 46.2433 58.0585 46.4049 57.732 46.5293C57.4062 46.6504 57.068 46.7355 56.7131 46.786C56.3547 46.8363 55.9808 46.8522 55.5799 46.8377C55.21 46.8232 54.8537 46.7777 54.5149 46.6983C54.1761 46.6176 53.8537 46.5107 53.5606 46.3718C53.2647 46.235 52.9967 46.0681 52.7585 45.8808C52.5221 45.6953 52.3159 45.484 52.1474 45.2548C51.8439 44.838 51.6472 44.3481 51.5342 43.8158C51.4203 43.2866 51.3867 42.7097 51.403 42.1073C51.4232 41.5075 51.4977 40.8889 51.5929 40.27C51.6924 39.651 51.8155 39.0345 51.9371 38.438C52.0588 37.846 52.1862 37.2292 52.336 36.6217C52.4873 36.0117 52.6622 35.4081 52.879 34.8314C53.0947 34.2535 53.3527 33.7056 53.6714 33.2118C53.9869 32.7161 54.3657 32.2703 54.8215 31.9052C55.0717 31.698 55.3513 31.5167 55.6498 31.3563C55.9498 31.1988 56.2681 31.0676 56.6009 30.9642C56.9342 30.8579 57.2817 30.7867 57.6345 30.7391C57.9886 30.6963 58.3498 30.6844 58.7122 30.7054C59.0869 30.7273 59.4384 30.7734 59.7602 30.8517C60.0834 30.9255 60.3831 31.0319 60.6569 31.1728C60.9293 31.311 61.1778 31.4883 61.4056 31.7007C61.6077 31.8919 61.7885 32.1179 61.9555 32.3746C61.9853 32.1536 62.0173 31.93 62.0584 31.7007C62.1608 31.1232 62.292 30.5166 62.4344 29.8936C62.5768 29.2581 62.7214 28.6569 62.8755 28.0923C63.0355 27.5269 63.2078 26.9898 63.4062 26.4988C63.474 26.3298 63.5465 26.1682 63.6207 26.0087L63.6249 25.9991L63.6255 25.9987C63.6463 25.9537 63.6756 25.8907 63.7167 25.8084L63.7263 25.7909L63.7284 25.7866L63.7391 25.7673C63.7679 25.7112 63.7993 25.6503 63.8372 25.5836C63.9188 25.4358 64.0031 25.2896 64.0932 25.1499C64.2596 24.8973 64.4442 24.6644 64.6442 24.4494C65.2074 23.8135 66.0144 23.162 67.1078 22.8453C61.4456 13.7667 51.4215 7.73315 40 7.73315C22.3269 7.73315 8 22.1794 8 39.9998C8 44.975 9.11672 49.6873 11.1112 53.8956C11.5065 53.6377 11.854 53.2991 12.1319 52.892L12.253 52.7029L12.274 52.6737C12.279 52.6646 12.2847 52.656 12.2906 52.6472C12.2936 52.6426 12.2967 52.638 12.2997 52.6332L12.3032 52.6276L12.305 52.6246C12.4937 52.3233 12.6479 51.9942 12.779 51.6234C12.9007 51.2863 13.0094 50.8993 13.1115 50.4438C13.1187 50.4052 13.7406 46.949 14.3772 43.4119L14.3801 43.3957L14.3809 43.3911C14.9918 39.9965 15.6151 36.5332 15.7203 35.9496L15.7287 35.902L13.5849 35.9044L14.6383 32.2686L16.3185 32.2615L16.4974 31.3152L16.5267 31.122L16.559 30.9264L16.6116 30.6215C16.7111 30.0386 16.8244 29.3775 16.9383 28.9104C17.03 28.5204 17.1189 28.2011 17.2167 27.9047C17.3576 27.4578 17.502 27.0651 17.6599 26.705C17.9127 26.1366 18.1957 25.6397 18.5256 25.1812C18.8738 24.6996 19.2613 24.2697 19.7117 23.8629C20.0358 23.5693 20.3924 23.2945 20.7709 23.0502C21.1706 22.7864 21.6052 22.5574 22.0643 22.3639C22.562 22.1568 23.0766 21.9994 23.5937 21.8909C24.0475 21.7976 24.514 21.7421 24.9842 21.7235L25.3371 21.7164H25.4122C25.9952 21.7164 26.5468 21.7722 27.0518 21.8839C27.1861 21.9122 27.3133 21.9462 27.436 21.9825L27.617 22.0381L27.6474 22.047L26.4737 25.8931L26.4251 25.8633C26.4139 25.8575 26.4028 25.8514 26.3915 25.8452C26.3787 25.8381 26.3656 25.8308 26.3518 25.8237C26.1735 25.7389 25.9767 25.6733 25.7688 25.6293C25.6049 25.5936 25.4312 25.5702 25.2497 25.5611L25.0662 25.5561L25.0426 25.5575C24.7829 25.5575 24.5301 25.5838 24.286 25.6329C24.1422 25.6616 24.0009 25.7005 23.8577 25.7499L23.6412 25.8317L23.6133 25.8406C23.6012 25.8436 23.5888 25.8474 23.5776 25.8524C23.4151 25.9153 23.2584 25.9927 23.0987 26.0914C22.9454 26.1892 22.7965 26.3005 22.6573 26.4229C22.403 26.6415 22.1853 26.8982 21.9912 27.2061C21.8074 27.5024 21.6559 27.8247 21.5267 28.1884C21.4076 28.5178 21.3009 28.8953 21.2002 29.3441C21.1919 29.3831 21.1598 29.5689 21.1233 29.7797C21.1096 29.8593 21.0952 29.9425 21.0812 30.0227C21.0464 30.2292 21.0134 30.42 20.999 30.4989L20.9935 30.5288L20.7527 32.2644L23.3187 32.2553L22.261 35.9115L20.1623 35.8985L18.225 46.8986L17.7243 49.5705C17.6076 50.2036 17.5063 50.7324 17.3576 51.2845C17.1715 51.9803 16.9639 52.5868 16.7226 53.1366C16.4678 53.7092 16.179 54.2188 15.8388 54.69C15.4874 55.1789 15.0925 55.6182 14.6309 56.0366C14.2935 56.3409 13.9297 56.6191 13.5506 56.8661C13.3536 56.9947 13.1487 57.1151 12.9377 57.2272C18.6083 66.2652 28.6091 72.2667 40 72.2667ZM61.2552 36.1668C61.2637 35.8001 61.2397 35.461 61.1752 35.1623C61.1127 34.8583 61.009 34.5877 60.8528 34.3566C60.7631 34.2276 60.6601 34.1165 60.5439 34.0178C60.4297 33.9215 60.2986 33.8402 60.1576 33.7767C60.0165 33.709 59.8594 33.6595 59.6917 33.629C59.5235 33.595 59.3434 33.5785 59.1484 33.577C58.9521 33.5785 58.7683 33.5944 58.5905 33.629C58.4156 33.6595 58.25 33.7111 58.0909 33.7737C57.9334 33.8417 57.7815 33.9239 57.6339 34.019C57.4884 34.1174 57.3472 34.2323 57.2092 34.3617C56.9546 34.5927 56.7407 34.8648 56.5557 35.1691C56.3708 35.4772 56.2155 35.8155 56.082 36.186C55.9477 36.5541 55.8347 36.9552 55.7323 37.3792C55.6328 37.8008 55.5414 38.2496 55.4522 38.7222C55.3627 39.1887 55.2811 39.6401 55.221 40.0703C55.1594 40.4969 55.1209 40.9028 55.11 41.2807C55.099 41.6559 55.1224 42.0009 55.183 42.3153C55.2474 42.6246 55.3501 42.9005 55.5042 43.1354C55.5969 43.2645 55.6987 43.3791 55.816 43.4769C55.9288 43.578 56.0568 43.6601 56.1965 43.7242C56.34 43.7921 56.4939 43.8388 56.663 43.8728C56.8321 43.905 57.0174 43.9195 57.2155 43.9174C57.412 43.9126 57.6015 43.8926 57.7795 43.8566C57.9607 43.8202 58.1304 43.7658 58.2957 43.6979C58.4594 43.6281 58.617 43.5413 58.7683 43.437C58.9172 43.3357 59.0619 43.2196 59.1996 43.0852C59.4519 42.8467 59.6644 42.5688 59.8453 42.2579C60.028 41.9445 60.1795 41.5974 60.3118 41.2231C60.384 41.0204 60.449 40.8071 60.51 40.5873C60.5859 40.3439 60.6546 40.0922 60.7147 39.8275C60.8016 39.4529 60.8758 39.0593 60.9471 38.6514C60.9831 38.4437 61.0179 38.2407 61.0472 38.0424C61.0871 37.8064 61.1239 37.5736 61.1543 37.3494C61.2109 36.9266 61.2482 36.5334 61.2552 36.1668ZM58.141 51.2104H56.9912L55.724 52.8025V49.7814H54.7729V55.1053H55.724V53.9455L56.1272 53.4823L57.0645 55.1053H58.2431L56.778 52.78L58.141 51.2104ZM39.3445 64.1102C39.1584 64.2753 38.9496 64.3834 38.6795 64.3834C38.1653 64.3834 37.807 63.9682 37.807 63.4492C37.807 62.941 38.1593 62.5258 38.6465 62.5258C38.9824 62.5258 39.1972 62.6726 39.4023 62.8867L39.8176 62.4424L39.7339 62.358C39.4757 62.1117 39.1483 61.9476 38.6525 61.9476C37.7791 61.9476 37.1394 62.6344 37.1394 63.4611C37.1394 64.2861 37.7791 64.9567 38.6465 64.9567C39.2148 64.9567 39.553 64.733 39.8391 64.4168L39.4362 64.0231L39.3445 64.1102ZM43.1092 63.4449C43.1092 63.2373 43.0709 63.0437 42.9919 62.8625C42.9162 62.6828 42.8086 62.5242 42.6698 62.3881C42.5317 62.251 42.3675 62.1434 42.1788 62.0654C41.989 61.9874 41.7819 61.9476 41.5567 61.9476C41.3321 61.9476 41.1256 61.9874 40.9363 62.067C40.746 62.1477 40.5823 62.2558 40.4446 62.393C40.3068 62.5312 40.1969 62.6898 40.1173 62.8705C40.0385 63.0529 39.9991 63.2481 39.9991 63.4562V63.4664C39.9991 63.6713 40.0376 63.8639 40.1147 64.0473C40.1923 64.2291 40.3005 64.3866 40.438 64.5222C40.576 64.6572 40.7402 64.7631 40.9303 64.8416C41.119 64.9191 41.3246 64.9594 41.5455 64.9594C41.7698 64.9594 41.9792 64.9185 42.1699 64.8395C42.3603 64.7577 42.526 64.6496 42.6646 64.513C42.8015 64.377 42.9113 64.2172 42.9893 64.0349C43.0689 63.8531 43.1092 63.6606 43.1092 63.4562V63.4449ZM42.4402 63.4562C42.4402 63.3282 42.4172 63.2083 42.3735 63.0953C42.3301 62.9824 42.2668 62.8845 42.19 62.8012C42.1092 62.7156 42.0157 62.65 41.9076 62.6C41.7992 62.55 41.6784 62.5274 41.5455 62.5274C41.4124 62.5274 41.2927 62.55 41.1843 62.6C41.0747 62.65 40.9821 62.7156 40.9053 62.7979C40.8282 62.8797 40.7684 62.9759 40.7279 63.0862C40.687 63.1986 40.6675 63.3169 40.6675 63.4449V63.4562C40.6675 63.5804 40.6896 63.6988 40.7336 63.8117C40.7773 63.9252 40.8398 64.0231 40.9191 64.1091C40.9976 64.1957 41.0917 64.2624 41.1992 64.3113C41.3091 64.3603 41.4284 64.3861 41.5567 64.3861C41.6919 64.3861 41.8147 64.3603 41.924 64.3113C42.0324 64.2624 42.1256 64.1957 42.2029 64.1113C42.2806 64.029 42.3378 63.9306 42.3793 63.8192C42.4195 63.7079 42.4402 63.5912 42.4402 63.4664V63.4562ZM49.0163 63.4998C49.0163 63.2927 48.9864 63.0943 48.9279 62.906C48.869 62.7189 48.7816 62.5538 48.6651 62.4123C48.5489 62.2698 48.404 62.1574 48.2288 62.074C48.0548 61.9885 47.8515 61.9476 47.6196 61.9476C47.4097 61.9476 47.217 61.9874 47.0445 62.0654C46.8716 62.1434 46.7221 62.251 46.5955 62.3881C46.4672 62.5242 46.3695 62.6828 46.2987 62.8657C46.2294 63.0475 46.1949 63.2432 46.1949 63.4514V63.4621C46.1949 63.6826 46.2323 63.8881 46.3099 64.0709C46.387 64.2543 46.4931 64.4124 46.6266 64.5426C46.7609 64.6738 46.9202 64.7771 47.1014 64.8502C47.2843 64.9218 47.481 64.9594 47.6907 64.9594C47.959 64.9594 48.1908 64.9094 48.3844 64.811C48.5762 64.7142 48.7445 64.5813 48.8845 64.4178L48.4911 64.0736C48.3729 64.186 48.2532 64.2721 48.133 64.3307C48.0108 64.3882 47.869 64.4178 47.7016 64.4178C47.4842 64.4178 47.3002 64.3554 47.1465 64.2301C46.9942 64.1032 46.899 63.922 46.8621 63.6853H49.005L49.0081 63.6536L49.0113 63.6186L49.0134 63.5891C49.0151 63.5589 49.0163 63.5288 49.0163 63.4998ZM48.3528 63.1787C48.3441 63.0964 48.3286 63.0604 48.3046 63.0044L48.3043 63.0039C48.2976 62.9883 48.2899 62.9706 48.2817 62.9501C48.2443 62.8582 48.1943 62.7748 48.133 62.707C48.0698 62.6387 47.9941 62.5844 47.9096 62.5462C47.8222 62.508 47.7226 62.4892 47.613 62.4892C47.4071 62.4892 47.2377 62.5581 47.1014 62.699C46.968 62.8404 46.8857 62.9534 46.8561 63.1787H48.3528ZM50.1836 62.4844C50.4042 62.2144 50.745 62.0945 50.984 62.0423L51.0792 62.024L51.3082 62.5758C51.018 62.6183 50.4571 62.7673 50.2556 63.2927C50.2156 63.3971 50.1951 63.5186 50.1871 63.6547L50.1836 63.7956V64.8938H49.5158V62.0079H50.1836V62.4844ZM52.9268 64.1236L52.2288 62.0079H51.5164L52.6004 64.8734L52.5923 64.8911L52.5868 64.9046C52.5526 64.9938 52.3559 65.4908 52.1764 65.6177C52.0232 65.6957 51.6691 65.6892 51.5339 65.6801V66.2217H51.7588C52.022 66.22 52.3665 66.2077 52.4994 66.1238C52.7235 65.9834 52.7732 65.9232 52.9268 65.6177C53.0921 65.2837 54.37 62.0079 54.37 62.0079H53.6743L52.9268 64.1236ZM44.6372 64.1274L43.8541 62.0079H43.1351L44.3353 64.9148H44.9364L46.1299 62.0079H45.4275L44.6372 64.1274ZM36.5427 63.4637C36.6293 63.5272 36.7 63.6046 36.7555 63.6966C36.7975 63.7644 36.8237 63.844 36.8343 63.9349L36.8392 64.0295V64.0414C36.8392 64.193 36.8116 64.3259 36.7555 64.4393C36.7 64.5528 36.6232 64.6464 36.528 64.7206C36.4285 64.7948 36.3146 64.8518 36.1817 64.8911C36.0489 64.9282 35.9053 64.9476 35.7564 64.9476C35.5456 64.9476 35.333 64.911 35.1185 64.8395C34.9566 64.7846 34.8035 64.7104 34.6597 64.6168L34.5191 64.5168L34.8171 64.0677C34.9761 64.1844 35.1355 64.2721 35.3002 64.3323C35.4636 64.3936 35.6209 64.4237 35.7722 64.4237C35.916 64.4237 36.0276 64.3942 36.1061 64.3377C36.1662 64.2963 36.2033 64.243 36.218 64.179L36.2252 64.1113V64.1011C36.2252 64.0473 36.2088 63.9983 36.1737 63.9585C36.1372 63.9187 36.0908 63.8827 36.0284 63.852C35.9678 63.8214 35.8996 63.795 35.8197 63.7703L35.7174 63.7396L35.7165 63.7391C35.6695 63.7257 35.6215 63.7111 35.5732 63.6966C35.4665 63.667 35.3598 63.6326 35.2508 63.5923C35.1415 63.5525 35.0446 63.5009 34.9577 63.4369C34.8709 63.3734 34.801 63.2938 34.7452 63.1991C34.7035 63.1281 34.6781 63.0448 34.6678 62.9485L34.6629 62.8485V62.8388C34.6629 62.7011 34.6891 62.5769 34.7423 62.4693C34.7946 62.3612 34.8694 62.2698 34.9634 62.1934C35.0575 62.1176 35.1671 62.059 35.2948 62.0186C35.4222 61.9794 35.5571 61.9573 35.7 61.9573C35.8846 61.9573 36.071 61.9874 36.2588 62.0461C36.4003 62.0891 36.5309 62.1461 36.6531 62.2139L36.7725 62.2859L36.5064 62.7571C36.367 62.6726 36.2252 62.6054 36.0813 62.5564C35.9373 62.508 35.8053 62.4838 35.6856 62.4838C35.5547 62.4838 35.455 62.5102 35.3831 62.564C35.3293 62.6059 35.2962 62.6559 35.283 62.7135L35.2766 62.7737V62.7834C35.2766 62.835 35.2948 62.8797 35.3305 62.9168C35.3664 62.9566 35.4164 62.991 35.4777 63.0206C35.5375 63.0518 35.6068 63.0803 35.6865 63.1061L35.7016 63.1115L35.7673 63.133L35.8208 63.1507C35.8574 63.1631 35.8946 63.1755 35.9324 63.1884C36.0397 63.2206 36.1466 63.2578 36.2528 63.3029C36.3606 63.3465 36.4564 63.4008 36.5427 63.4637ZM34.0633 64.8938H33.3954V62.0073H34.0633V64.8938ZM30.9534 64.8701C32.1697 64.8701 33.0083 64.0349 33.0083 62.9534C33.0083 61.8718 32.1697 61.0473 30.9534 61.0473H29.5143V61.7019C29.6155 61.746 29.713 61.7981 29.8042 61.861C29.9502 61.9611 30.0817 62.0848 30.193 62.2209V61.6594H30.9534C31.7653 61.6594 32.2962 62.2106 32.2962 62.9641C32.2962 63.7181 31.7653 64.2597 30.9534 64.2597H30.3564C30.2148 64.5055 30.0176 64.7142 29.7797 64.8701H30.9534ZM52.5966 52.2914C52.4496 52.1416 52.3257 52.0589 52.091 52.0589C51.7976 52.0589 51.4758 52.284 51.4758 52.7783V55.1255H50.5244V51.2302H51.4543V51.603C51.6372 51.3788 52.0033 51.1847 52.4137 51.1847C52.7873 51.1847 53.0505 51.2822 53.3133 51.5508L52.5966 52.2914ZM48.8805 53.1729C48.8805 52.4716 48.7936 52.0281 48.4486 51.6633C48.2141 51.4098 47.8259 51.1847 47.2636 51.1847C46.6985 51.1847 46.3183 51.4098 46.0836 51.6633C45.7399 52.0281 45.6516 52.4716 45.6516 53.1729C45.6516 53.8826 45.7399 54.3245 46.0836 54.6923C46.3183 54.9458 46.6985 55.1694 47.2636 55.1694C47.8259 55.1694 48.2141 54.9458 48.4486 54.6923C48.7936 54.3245 48.8805 53.8826 48.8805 53.1729ZM47.9294 53.1729C47.9294 52.77 47.9067 52.435 47.7097 52.2314C47.6001 52.1188 47.4534 52.0589 47.2636 52.0589C47.0727 52.0589 46.9329 52.1188 46.8233 52.2314C46.6246 52.435 46.6036 52.77 46.6036 53.1729C46.6036 53.5765 46.6246 53.9207 46.8233 54.1227C46.9329 54.2353 47.0727 54.2955 47.2636 54.2955C47.4534 54.2955 47.6001 54.2353 47.7097 54.1227C47.9067 53.9207 47.9294 53.5765 47.9294 53.1729ZM43.2771 51.1847L42.6625 53.591L41.8797 51.1847H41.1834L40.4072 53.591L39.7923 51.1847H38.7797L39.9533 55.08H40.7371L41.5357 52.6353L42.333 55.08H43.117L44.2812 51.1847H43.2771ZM35.6833 50.1643V51.3165H35.281V52.0565H35.6833V53.9851C35.6833 54.539 36.0132 55.0997 36.7886 55.0997H37.3088V54.2761H36.9646C36.7382 54.2761 36.6353 54.1487 36.6353 53.9245V52.0565H37.3088V51.3165H36.6353V50.1643H35.6833ZM33.8576 53.4802H31.4702C31.4702 53.9807 31.7705 54.3479 32.3063 54.3479C32.7224 54.3479 32.9281 54.2279 33.1694 53.9807L33.7481 54.5564C33.3595 54.952 32.9862 55.1694 32.2977 55.1694C31.3978 55.1694 30.5332 54.7511 30.5332 53.1729C30.5332 51.9035 31.2068 51.1847 32.195 51.1847C33.2571 51.1847 33.8576 51.9768 33.8576 53.0456V53.4802ZM32.832 52.3942C32.8916 52.5372 32.9131 52.6432 32.9203 52.8134H31.4702C31.4786 52.6432 31.5002 52.5372 31.5582 52.3942C31.6609 52.1649 31.8743 51.993 32.195 51.993C32.5183 51.993 32.73 52.1649 32.832 52.3942ZM27.8787 55.1255V52.77C27.8787 52.2388 27.5491 52.0589 27.2497 52.0589C26.9497 52.0589 26.6115 52.2388 26.6115 52.77V55.1255H25.6604V51.2302H26.5902V51.588C26.8396 51.3203 27.191 51.1847 27.5424 51.1847C27.9224 51.1847 28.2295 51.3112 28.4424 51.53C28.7498 51.8423 28.8306 52.2087 28.8306 52.6347V55.1255H27.8787ZM28.7633 61.8465C29.6155 61.8465 30.3055 62.5306 30.3055 63.3729C30.3055 64.2151 29.6155 64.8976 28.7633 64.8976C27.9123 64.8976 27.2212 64.2151 27.2212 63.3729C27.2212 62.5306 27.9123 61.8465 28.7633 61.8465ZM34.4098 43.4961C34.7058 43.0742 34.9554 42.6208 35.1665 42.1256C35.3793 41.6319 35.5562 41.0943 35.7075 40.5067C35.8579 39.919 35.987 39.2756 36.1029 38.5686C36.2211 37.8661 36.3077 37.2318 36.3517 36.651C36.3969 36.0716 36.4017 35.5437 36.3537 35.0625C36.3086 34.577 36.2116 34.1381 36.0595 33.7236C35.9053 33.3093 35.694 32.9292 35.4173 32.5646C35.2312 32.3135 35.0063 32.0703 34.7371 31.8437C34.4693 31.6201 34.1576 31.4109 33.7981 31.2346C33.4383 31.0597 33.0354 30.9119 32.5784 30.8118C32.1248 30.7057 31.6198 30.6466 31.0618 30.6448C30.5007 30.6366 29.9741 30.688 29.4818 30.7849C28.9897 30.8797 28.5307 31.0224 28.1082 31.1923C27.6848 31.3654 27.2963 31.5669 26.9422 31.792C26.5896 32.0171 26.2704 32.2615 25.9871 32.5108C25.5738 32.8766 25.2206 33.2638 24.9135 33.6789C24.6072 34.0958 24.3492 34.5455 24.1238 35.0356C23.9017 35.5292 23.7142 36.0633 23.5491 36.6563C23.3838 37.2445 23.2417 37.8915 23.1105 38.6082C22.9814 39.3287 22.8862 39.9799 22.8339 40.5811C22.7798 41.1784 22.7717 41.7223 22.8117 42.2231C22.854 42.7241 22.9469 43.1812 23.0996 43.6078C23.2546 44.0317 23.4689 44.4279 23.7527 44.8016C23.9466 45.0584 24.1787 45.308 24.4545 45.5402C24.7303 45.7709 25.0487 45.9772 25.4165 46.1517C25.7815 46.3296 26.1988 46.4729 26.6659 46.568C27.1303 46.664 27.6494 46.7151 28.2244 46.7063C28.797 46.7 29.3365 46.6309 29.8381 46.5255C30.338 46.4114 30.8024 46.2602 31.231 46.0743C31.6595 45.8923 32.0495 45.6719 32.4044 45.44C32.7584 45.2025 33.0751 44.9511 33.3572 44.6911C33.765 44.3154 34.1116 43.9183 34.4098 43.4961ZM32.6298 36.1201C32.6385 35.7558 32.6155 35.4223 32.5499 35.1239C32.4892 34.8249 32.3848 34.5564 32.2315 34.3271C32.1421 34.198 32.0394 34.0896 31.9266 33.9933C31.813 33.8961 31.6828 33.8178 31.5424 33.7519C31.4012 33.6878 31.2494 33.6373 31.0829 33.6042C30.9163 33.5741 30.7366 33.5587 30.5442 33.5575C30.3501 33.5575 30.1668 33.5726 29.9911 33.6057C29.82 33.6373 29.6537 33.6866 29.4967 33.7507C29.3391 33.8178 29.1899 33.8991 29.0461 33.9941C28.902 34.0911 28.761 34.2039 28.6227 34.3298C28.3725 34.5617 28.1591 34.829 27.9765 35.1328C27.793 35.4365 27.6382 35.7706 27.5085 36.1393C27.3745 36.5009 27.2623 36.9 27.1608 37.3198C27.0613 37.7381 26.971 38.1828 26.885 38.6508C26.795 39.1116 26.7148 39.5601 26.6543 39.9826C26.5951 40.4074 26.5551 40.8106 26.5462 41.1832C26.5347 41.5554 26.5551 41.8972 26.6164 42.2048C26.6808 42.5123 26.782 42.7862 26.9365 43.0201C27.0271 43.1457 27.1286 43.2597 27.2428 43.3572C27.3544 43.4568 27.4827 43.5387 27.6219 43.6036C27.7633 43.668 27.9169 43.7162 28.0823 43.7502C28.25 43.7809 28.4334 43.7963 28.6299 43.7939C28.8226 43.7892 29.0101 43.7682 29.1887 43.7354C29.3656 43.6973 29.537 43.6444 29.7004 43.5756C29.8614 43.5064 30.0179 43.4217 30.1654 43.3186C30.3141 43.216 30.4582 43.1011 30.5939 42.9696C30.8435 42.7345 31.0529 42.4597 31.2329 42.1498C31.4142 41.8399 31.5649 41.4966 31.6952 41.1258C31.7682 40.9217 31.8326 40.7081 31.8933 40.4875C31.9681 40.2496 32.0368 40.0026 32.0949 39.7426C32.1795 39.3742 32.2531 38.9849 32.3247 38.5804C32.3601 38.3754 32.3937 38.1754 32.4236 37.9822C32.4633 37.7458 32.4999 37.5151 32.5298 37.2903C32.587 36.8725 32.6236 36.4808 32.6298 36.1201ZM37.1809 42.2251C37.1406 41.7223 37.1481 41.1784 37.2036 40.5811C37.2557 39.9799 37.3511 39.3287 37.4788 38.6067C37.6091 37.8915 37.7532 37.2445 37.9174 36.6554C38.0839 36.0633 38.2706 35.5292 38.4929 35.0356C38.7192 34.5455 38.9761 34.0972 39.2838 33.6789C39.5927 33.2638 39.9444 32.8766 40.3595 32.5108C40.6421 32.2609 40.9605 32.0157 41.3151 31.792C41.6701 31.5669 42.0574 31.3654 42.4797 31.1905C42.9024 31.0224 43.36 30.8797 43.8524 30.7861C44.3459 30.688 44.8728 30.6366 45.4339 30.6448C45.9915 30.6466 46.4972 30.7057 46.9501 30.8109C47.4057 30.9119 47.8109 31.0597 48.1693 31.2346C48.5282 31.4083 48.8405 31.6183 49.1095 31.8437C49.3781 32.0703 49.6038 32.3135 49.7888 32.5646C50.066 32.9292 50.278 33.3109 50.4307 33.7236C50.5854 34.1366 50.6795 34.5756 50.7255 35.061C50.7723 35.5443 50.7689 36.0716 50.7235 36.651C50.6795 37.2318 50.5929 37.8661 50.4753 38.5686C50.3582 39.2756 50.2314 39.9185 50.0798 40.5067C49.9268 41.0943 49.7514 41.6319 49.5383 42.1256C49.3257 42.6208 49.0769 43.0727 48.7804 43.4946C48.4836 43.9183 48.1362 44.3154 47.7295 44.6911C47.4471 44.9499 47.1299 45.2025 46.775 45.4389C46.4218 45.6719 46.0301 45.8923 45.6027 46.0743C45.173 46.2596 44.7103 46.4099 44.2099 46.5255C43.7068 46.6324 43.1687 46.7 42.5947 46.7048C42.0209 46.7151 41.5038 46.664 41.0373 46.5674C40.5694 46.4714 40.1529 46.3281 39.7866 46.1532C39.4213 45.9772 39.0995 45.7709 38.8251 45.5402C38.549 45.3074 38.3157 45.0569 38.1216 44.8016C37.8377 44.4252 37.6264 44.0344 37.4693 43.6078C37.3163 43.1812 37.2237 42.7241 37.1809 42.2251ZM40.9893 42.2069C40.9274 41.8972 40.9067 41.5554 40.9168 41.1829C40.9274 40.8106 40.9648 40.4068 41.0264 39.984C41.0859 39.5589 41.167 39.1116 41.2556 38.6508C41.3428 38.1828 41.4333 37.7381 41.532 37.3198C41.6347 36.9006 41.7457 36.5009 41.8783 36.1393C42.0109 35.7706 42.1656 35.4365 42.3482 35.1328C42.5311 34.829 42.7431 34.5617 42.9953 34.3318C43.1316 34.203 43.2711 34.0911 43.4164 33.9939C43.5607 33.8981 43.712 33.8178 43.8673 33.7507C44.0249 33.6878 44.1897 33.6373 44.362 33.6057C44.5386 33.5726 44.7212 33.5575 44.9151 33.5575C45.1077 33.5575 45.2869 33.5726 45.454 33.6057C45.6197 33.6373 45.7741 33.6866 45.9153 33.7519C46.0537 33.8154 46.1834 33.8961 46.297 33.9933C46.4112 34.0896 46.5141 34.198 46.6021 34.3271C46.7577 34.5564 46.8604 34.8249 46.9225 35.1239C46.9866 35.4223 47.0099 35.7558 47.0008 36.1201C46.9947 36.4823 46.9576 36.8719 46.9015 37.2903C46.8711 37.513 46.8354 37.7423 46.7942 37.9781C46.7655 38.1736 46.7318 38.3733 46.6967 38.5798C46.6257 38.9849 46.5521 39.3742 46.4661 39.7426C46.4065 40.0056 46.3384 40.2561 46.2627 40.4963C46.2026 40.714 46.1391 40.9244 46.0672 41.1244C45.9363 41.4954 45.7876 41.8399 45.6056 42.1498C45.4258 42.4591 45.2153 42.7345 44.966 42.9696C44.8296 43.1011 44.6852 43.216 44.538 43.3171C44.3893 43.4217 44.2332 43.5064 44.071 43.5756C43.9079 43.6433 43.7388 43.6973 43.559 43.7342C43.3839 43.7694 43.1961 43.7886 43.0011 43.7939C42.8038 43.7963 42.6212 43.7809 42.4535 43.7493C42.2881 43.7162 42.1337 43.668 41.9924 43.6036C41.8547 43.5387 41.7281 43.4568 41.6151 43.3572C41.4989 43.2597 41.3988 43.1457 41.3059 43.0201C41.1541 42.7847 41.0514 42.5123 40.9893 42.2069Z" fill="#C41D3D"/>
</svg>
