<svg width="80" height="80" viewBox="0 0 80 80" fill="none" xmlns="http://www.w3.org/2000/svg">
<path fill-rule="evenodd" clip-rule="evenodd" d="M47.8311 33.8927H47.8186C46.7999 33.8927 46.0777 33.1062 46.0777 32.0837C46.0591 30.9697 46.8988 30.0523 47.9485 30.0392C47.9667 30.0392 47.9791 30.0392 47.9977 30.0457C49.0224 30.0457 49.7385 30.832 49.7385 31.8542C49.7385 32.9753 48.8865 33.8859 47.8311 33.8927ZM66.7711 40.5898C66.7094 40.9897 66.6785 41.3959 66.6723 41.8023C66.6723 43.5062 67.4316 44.3317 68.4935 44.3317C69.3948 44.3317 70.0183 43.8664 70.7777 42.7984H70.895C70.0554 44.8628 68.6108 45.8848 66.8699 45.8848C64.8942 45.8848 63.4867 44.5481 63.4867 41.9923C63.4867 38.6109 66.1105 34.9082 69.5368 34.9082C71.1789 34.9082 72 35.7997 72 37.0578C72 39.4431 69.5739 40.4588 66.7711 40.5898ZM66.8328 40.2753C68.5183 39.7251 69.7775 37.6608 69.7775 35.9764C69.7775 35.5506 69.6356 35.295 69.3763 35.295C68.481 35.295 67.2588 37.9098 66.8328 40.2753ZM58.2517 37.5622C59.0109 35.8847 59.9741 34.9278 61.3384 34.9278C62.6842 34.9278 63.2401 35.8455 63.2401 37.0578C63.2337 37.4574 63.1844 37.8573 63.0978 38.2507L61.8077 43.742C61.7704 43.8732 61.746 44.011 61.746 44.1484C61.746 44.5089 61.9065 44.7446 62.2458 44.7446C62.4251 44.7384 62.5979 44.6793 62.7459 44.5742V44.6137C62.1472 45.5311 61.3632 45.8916 60.5051 45.8916C59.1839 45.8916 58.6036 45.0591 58.6036 43.9323C58.6036 43.6531 58.6565 43.3797 58.7133 43.086C58.7178 43.0624 58.7225 43.0387 58.727 43.0148L59.8691 38.1456C59.9433 37.89 59.9865 37.6278 59.9925 37.3591C59.9925 37.0183 59.8691 36.8089 59.5543 36.8089C58.9307 36.8089 58.2887 37.6804 57.8505 39.4692L56.4057 45.6817H53.1771L54.943 38.1522C55.0168 37.9098 55.0603 37.6608 55.0662 37.4051C55.0662 37.0447 54.9241 36.8089 54.5845 36.8089C53.961 36.8089 53.344 37.6804 52.8995 39.5283L51.4611 45.6754H48.2135L50.1397 37.4642C50.1633 37.3504 50.1858 37.2443 50.207 37.1452C50.312 36.65 50.3807 36.3271 50.3807 36.0812C50.3807 35.7012 50.2569 35.4456 49.9794 35.1899V35.1442H53.9302L53.35 37.5886C54.0909 35.9111 55.0106 34.9278 56.3936 34.9278C57.7147 34.9278 58.2951 35.8847 58.2951 37.1166C58.2887 37.2674 58.2765 37.4182 58.2517 37.5622ZM46.8988 43.742C46.8741 43.8732 46.8617 44.011 46.8556 44.1484C46.8556 44.5089 47.0161 44.7446 47.3371 44.7446C47.5222 44.7384 47.7013 44.6793 47.8555 44.5742V44.6137C47.2319 45.5311 46.4543 45.8916 45.5897 45.8916C44.2875 45.8916 43.7257 45.0591 43.7257 43.9323C43.7193 43.6241 43.7567 43.3162 43.8242 43.0148L45.1086 37.4642L45.1271 37.3854C45.2767 36.7509 45.3675 36.3648 45.3675 36.0812C45.3675 35.7012 45.2441 35.4456 44.9481 35.1899V35.1442H48.9176L46.8988 43.742ZM41.769 44.5415C41.2871 44.5415 40.9044 44.1811 40.9044 43.565C40.9044 43.4142 40.9229 43.2637 40.9661 43.1194L42.707 35.6685H44.5097L44.7319 35.1377H42.849L43.7132 31.435H43.5345C42.2501 33.5846 40.9044 34.8232 38.8238 35.393L38.7623 35.6685H39.4844L37.8608 42.5624C37.7745 42.9032 37.7313 43.2506 37.7188 43.6045C37.7188 44.9872 38.4782 45.8785 39.9228 45.8785C41.1883 45.8785 42.1702 45.2559 42.911 44.0042L42.8922 43.9649C42.5098 44.3515 42.0896 44.5415 41.769 44.5415ZM32.669 40.5898C32.6073 40.9897 32.5766 41.3959 32.5703 41.8023C32.5703 43.5062 33.3295 44.3317 34.3915 44.3317C35.2929 44.3317 35.9164 43.8664 36.6756 42.7984H36.799C35.9595 44.8628 34.5148 45.8848 32.774 45.8848C30.786 45.8848 29.3848 44.5481 29.3848 41.9923C29.3848 38.6109 32.0086 34.9082 35.4347 34.9082C37.0768 34.9082 37.8979 35.7997 37.8979 37.0578C37.8979 39.4431 35.4719 40.4588 32.669 40.5898ZM32.7308 40.2753C34.416 39.7251 35.6754 37.6608 35.6754 35.9764C35.6754 35.5506 35.5335 35.295 35.2742 35.295C34.3728 35.295 33.1505 37.9098 32.7308 40.2753ZM29.3415 35.1442H30.8479L30.607 35.6751H29.2427L26.9958 45.3346C26.1745 48.8864 24.7301 50.3542 21.7669 50.4001V50.3609C22.8284 49.5939 23.2917 47.746 24.2115 43.4866L25.9154 35.6816H24.9955L25.0573 35.4458L26.0759 34.9803L26.2549 34.3839C26.977 31.3432 29.1378 29.6001 31.4282 29.6001C32.6936 29.6001 33.7122 30.2622 33.7122 31.3631C33.7122 32.6214 32.8482 33.3224 31.8479 33.3224C31.1873 33.3224 30.7243 32.9421 30.6257 32.4902C31.2244 32.3854 31.8912 31.8283 31.8912 30.6161C31.8912 30.2094 31.6938 29.9344 31.3293 29.9344C30.607 29.9344 30.0083 30.9959 29.6254 33.4863L29.3415 35.1442ZM23.3348 44.5742V44.6137C22.7111 45.5311 21.9335 45.8916 21.0692 45.8916C19.7666 45.8916 19.2048 45.0591 19.2048 43.9323C19.1985 43.6241 19.2355 43.3162 19.3036 43.0148L20.5877 37.4642C20.5945 37.4353 20.6012 37.407 20.6077 37.3791C20.7564 36.7483 20.847 36.3639 20.847 36.0812C20.847 35.7012 20.7296 35.4456 20.4269 35.1899V35.1442H24.3967L22.3718 43.742C22.3472 43.8732 22.3347 44.011 22.3347 44.1484C22.3347 44.5089 22.4952 44.7446 22.8162 44.7446C23.0014 44.7384 23.1804 44.6793 23.3348 44.5742ZM23.3102 33.899H23.2917C22.2667 33.899 21.5507 33.1125 21.5507 32.0905C21.5322 30.9763 22.3718 30.0588 23.4212 30.0457C23.4336 30.0389 23.4519 30.0389 23.4707 30.0457C24.4955 30.0457 25.2114 30.832 25.2114 31.8542C25.2178 32.9753 24.3657 33.8927 23.3102 33.899ZM18.8592 40.6948H18.896L17.3961 45.6754H8V45.6359C8.90133 45.0855 9.12381 44.5742 9.44457 43.1719L11.7658 33.296C11.9076 32.6802 11.9881 32.2345 11.9881 31.8937C11.9881 31.4284 11.8707 31.1271 11.488 30.832V30.7928H16.7969V30.832C15.8959 31.3827 15.6737 31.8937 15.3526 33.3028L12.5684 45.1642H13.0684C15.3526 45.1642 16.7969 43.8664 18.8592 40.6948Z" fill="#F51A50"/>
</svg>
