<svg width="80" height="80" viewBox="0 0 80 80" fill="none" xmlns="http://www.w3.org/2000/svg">
<path d="M38.9285 39.8828H42.5648L42.3735 40.8125H38.9285V43.6703H37.8208V36.3298H42.6756L42.8674 37.2596H38.9285V39.8828Z" fill="#46B854"/>
<path d="M49.061 38.1666V43.7796H47.9989L48.1003 42.8794C47.6753 43.5323 46.9873 43.8998 46.057 43.8998C44.8235 43.8998 44.0144 43.1553 44.0144 41.93V38.1666H45.1057V41.7086C45.1057 42.5453 45.5307 42.9737 46.3093 42.9737C47.2907 42.9737 47.9581 42.2186 47.9581 41.0245V38.165L49.061 38.1666Z" fill="#46B854"/>
<path d="M53.8341 42.6011C54.1854 42.5955 54.5309 42.5102 54.8436 42.3519L54.672 43.6001C54.1974 43.8074 53.7817 43.8996 53.3397 43.8996C52.0678 43.8996 51.3499 43.0809 51.3499 41.6524V39.4353H50.2207L49.9783 38.2669H51.3514V36.9586L52.8046 36.5591V38.2689H55.0249L54.7929 39.4373H52.8029V41.4249C52.806 42.2317 53.1391 42.6011 53.8341 42.6011Z" fill="#46B854"/>
<path d="M60.9895 38.165V43.7574H59.7396L59.8069 42.8832C59.4029 43.5337 58.7597 43.8998 57.9039 43.8998C56.6925 43.8998 55.9429 43.1375 55.9429 41.9066V38.165H57.3269V41.6122C57.3269 42.3139 57.673 42.6901 58.2879 42.6901C59.036 42.6901 59.5956 42.0802 59.5956 40.9718V38.165H60.9895Z" fill="#46B854"/>
<path d="M66.2653 39.9478H65.9238C64.9379 39.9478 64.4496 40.4453 64.4496 41.4196V43.6704H62.595V38.3113H64.1569L64.0688 39.5585C64.3129 38.6991 64.957 38.1556 65.9726 38.1652L66.2653 39.9478Z" fill="#46B854"/>
<path d="M72.0001 40.3514V43.7521H70.5202L70.6352 42.9314C70.2897 43.5341 69.6938 43.8998 68.8767 43.8998C67.6561 43.8998 66.7241 43.0894 66.7241 41.9328C66.7241 40.8556 67.454 40.4196 69.1749 40.4196H70.222C70.1642 39.9067 69.7319 39.6502 68.8756 39.6502C68.3024 39.6563 67.733 39.7463 67.1844 39.9175L67.5204 38.3849C68.1384 38.2335 68.772 38.1598 69.4072 38.1653C71.1849 38.1653 72.0001 38.8978 72.0001 40.3514ZM70.2225 41.5475H69.2901C68.8 41.5475 68.5501 41.6763 68.5501 42.0025C68.5501 42.3682 68.8767 42.635 69.3284 42.635C69.8679 42.635 70.2239 42.2492 70.2239 41.5475H70.2225Z" fill="#46B854"/>
<path d="M20.6165 52.6165C13.6599 52.6165 8 46.9563 8 39.9993C8 33.0422 13.6599 27.3835 20.6165 27.3835C27.5731 27.3835 33.2329 33.0417 33.2329 39.9993C33.2329 46.9568 27.5731 52.6165 20.6165 52.6165ZM20.6165 30.3893C15.3181 30.3893 11.0071 34.7 11.0071 39.9993C11.0071 45.2985 15.3181 49.6092 20.6165 49.6092C25.9149 49.6092 30.226 45.298 30.226 39.9993C30.226 34.7006 25.9149 30.3893 20.6165 30.3893Z" fill="#46B854"/>
<path d="M27.498 46.8817C33.3156 46.8817 33.2328 40 33.2328 40H30.2412C30.2412 40 30.0496 44.2837 27.498 46.8817Z" fill="#22942C"/>
<path d="M27.6127 45.5054C26.5012 45.5054 25.4146 45.1825 24.4904 44.5776C23.5662 43.9726 22.8458 43.1128 22.4205 42.1068C21.9951 41.1009 21.8838 39.9939 22.1007 38.926C22.3175 37.858 22.8528 36.8771 23.6388 36.1071C24.4247 35.3372 25.4261 34.8128 26.5163 34.6004C27.6065 34.388 28.7365 34.497 29.7635 34.9137C30.7903 35.3304 31.6682 36.036 32.2858 36.9414C32.9031 37.8468 33.2328 38.9111 33.2328 40C33.2312 41.4596 32.6386 42.859 31.5849 43.8911C30.5312 44.9233 29.1028 45.5038 27.6127 45.5054ZM27.6127 37.4487C27.0976 37.4487 26.5941 37.5983 26.1658 37.8787C25.7375 38.159 25.4037 38.5575 25.2065 39.0237C25.0094 39.4899 24.9578 40.0028 25.0583 40.4977C25.1588 40.9927 25.4069 41.4473 25.7711 41.8041C26.1354 42.1609 26.5994 42.4039 27.1046 42.5023C27.6099 42.6007 28.1335 42.5502 28.6094 42.3571C29.0854 42.164 29.4921 41.837 29.7782 41.4174C30.0644 40.9979 30.2173 40.5046 30.2173 40C30.2165 39.3236 29.9418 38.6751 29.4536 38.1968C28.9653 37.7185 28.3032 37.4495 27.6127 37.4487Z" fill="#46B854"/>
<path d="M30.2508 40C30.2508 36.5557 28.3636 34.5519 28.3636 34.5519C27.3728 34.4118 26.3611 34.5298 25.4336 34.8938C25.4336 34.8938 30.0037 37.0824 30.2508 40Z" fill="#22942C"/>
</svg>
