<svg width="80" height="80" viewBox="0 0 80 80" fill="none" xmlns="http://www.w3.org/2000/svg">
<path fill-rule="evenodd" clip-rule="evenodd" d="M32.381 46.6031H72V33.3967H32.381V46.6031Z" fill="#DD1D54"/>
<path d="M66.1003 44.781C67.5392 44.781 69.2063 44.1698 69.2063 42.5004C69.2063 41.1144 68.0788 40.707 66.9602 40.4501C66.7966 40.413 66.6332 40.3791 66.4731 40.3458C65.525 40.1489 64.6966 39.9768 64.6966 39.3251C64.6966 38.7098 65.5168 38.6034 65.9644 38.6034C66.6356 38.6034 67.241 38.8027 67.3771 39.5378H68.9782C68.7894 37.9789 67.4998 37.3811 66.0696 37.3811C64.8061 37.3811 63.1656 37.8596 63.1656 39.3915C63.1656 40.8175 64.2665 41.225 65.3987 41.4684C65.5604 41.5058 65.7223 41.5397 65.881 41.5729C66.8148 41.7687 67.6371 41.9411 67.6708 42.6376C67.7102 43.4394 66.7015 43.5633 66.1222 43.5633C65.302 43.5633 64.6308 43.2354 64.5474 42.341V42.3367H63.0206C63.0472 43.9928 64.3542 44.781 66.1003 44.781Z" fill="white"/>
<path d="M62.1565 37.5716H60.7703V35.468H59.235V37.5716H58.0721V38.7315H59.2307V42.8723C59.2568 44.0414 59.555 44.6656 61.1564 44.6656C61.3753 44.6656 61.5886 44.6415 61.8023 44.6173C61.9185 44.6042 62.0348 44.591 62.1522 44.5818V43.3859C61.9372 43.4393 61.7225 43.4393 61.5074 43.4393C60.8229 43.4393 60.7703 43.1114 60.7703 42.4736V38.7272H62.1565V37.5716Z" fill="white"/>
<path d="M57.3464 37.4143C57.2447 37.401 57.1259 37.3855 56.8616 37.3855C55.9185 37.3855 55.006 38.1873 54.8304 38.931H54.8042V37.5718H53.3608V44.5953H54.8962V41.256C54.8962 39.7061 55.7298 38.8515 56.7783 38.8515C56.9479 38.8515 57.1227 38.8753 57.2926 38.8984C57.3424 38.9052 57.3919 38.9119 57.4406 38.918V37.4255C57.4082 37.4223 57.3782 37.4184 57.3464 37.4143Z" fill="white"/>
<path fill-rule="evenodd" clip-rule="evenodd" d="M51.8431 39.4182V43.0317C51.8431 43.4127 51.9262 43.5633 52.2028 43.5633C52.2991 43.5633 52.4221 43.5633 52.5799 43.5366V44.6083C52.3519 44.6881 51.8647 44.7856 51.6106 44.7856C50.9919 44.7856 50.5489 44.5685 50.4259 43.9307C49.8247 44.5241 48.8422 44.7856 48.0218 44.7856C46.7716 44.7856 45.6398 44.108 45.6398 42.7351C45.6398 40.9815 47.0259 40.698 48.3158 40.5476C48.5499 40.5043 48.7787 40.4758 48.9939 40.449C49.7905 40.3498 50.3997 40.2739 50.3997 39.5555C50.3997 38.754 49.5792 38.6034 48.9606 38.6034C48.1008 38.6034 47.4954 38.9577 47.4253 39.7194H45.8941C45.9994 37.9127 47.5175 37.3811 49.0572 37.3811C50.4169 37.3811 51.8431 37.9391 51.8431 39.4182ZM48.5924 43.5587C49.2634 43.5587 50.3117 43.2046 50.3117 42.2302V41.0744C49.9786 41.2945 49.5083 41.3517 49.0236 41.4107C48.8254 41.4348 48.6247 41.4592 48.4299 41.4951C47.7719 41.606 47.1797 41.8494 47.1797 42.6643C47.1797 43.3552 48.0525 43.5587 48.5924 43.5587Z" fill="white"/>
<path fill-rule="evenodd" clip-rule="evenodd" d="M43.1129 39.8653H40.8933C40.8537 40.1134 40.7177 40.3702 40.5423 40.6006L39.8053 39.6749C40.7177 39.1877 41.5643 38.28 41.5643 37.1773C41.5643 35.4547 40.2747 34.6665 38.4849 34.6665C37.0547 34.6665 35.6332 35.6273 35.6332 37.1773C35.6332 37.8595 35.9402 38.4573 36.3834 38.9442C35.3307 39.4846 34.2427 40.3836 34.2427 41.672C34.2427 43.5632 35.6728 44.8252 37.5109 44.8252C38.5769 44.8252 39.3841 44.6038 40.2572 43.9129L40.7968 44.5905H43.9464L41.9811 42.2124C42.5995 41.5615 42.9769 40.6935 43.1129 39.8653ZM37.7213 42.6773C37.2611 42.6773 36.8046 42.2965 36.8046 41.7652C36.8046 41.2779 37.3399 40.9236 37.7302 40.7199L38.849 42.0928C38.5286 42.3896 38.1512 42.6773 37.7213 42.6773ZM38.4351 38.0412C38.4612 38.0713 38.4867 38.1008 38.5111 38.1294C38.8884 37.9523 39.2789 37.5716 39.2789 37.1241C39.2789 36.7701 39.0113 36.4732 38.6341 36.4732C38.2962 36.4732 37.9189 36.7167 37.9189 37.1375C37.9189 37.444 38.2026 37.7722 38.4351 38.0412Z" fill="white"/>
<path fill-rule="evenodd" clip-rule="evenodd" d="M30.3867 38.7052C30.5181 39.0374 30.5839 39.4402 30.5839 39.9098V44.7856H28.6008V40.6538C28.6008 40.4101 28.5923 40.1799 28.5748 39.9629C28.5569 39.7458 28.5043 39.5601 28.4209 39.4005C28.3378 39.2411 28.2105 39.1126 28.0527 39.0197C27.8902 38.9266 27.6666 38.8779 27.3903 38.8779C27.1138 38.8779 26.8856 38.931 26.7145 39.0418C26.5437 39.148 26.4075 39.2896 26.3109 39.4626C26.2146 39.6352 26.1488 39.8343 26.1137 40.056C26.0829 40.2772 26.0653 40.4988 26.0653 40.7246V44.7856H24.0824V40.6979C24.0824 40.4809 24.078 40.2684 24.0692 40.056C24.0605 39.8433 24.0211 39.6486 23.9507 39.4713C23.8806 39.2943 23.7667 39.148 23.5997 39.0418C23.4376 38.9356 23.1964 38.8779 22.8802 38.8779C22.7882 38.8779 22.6654 38.9002 22.512 38.9399C22.3584 38.9841 22.2092 39.0595 22.0644 39.1791C21.9197 39.2943 21.7969 39.4669 21.6958 39.6883C21.5906 39.9098 21.5425 40.1976 21.5425 40.5563V44.7856H19.5596V37.4963H21.4195V38.4838H21.446C21.7047 38.1074 22.0206 37.8152 22.3891 37.6114C22.7577 37.4034 23.1785 37.3015 23.6525 37.3015C24.1086 37.3015 24.5254 37.39 24.9025 37.5717C25.28 37.7487 25.5652 38.0633 25.7627 38.5148C25.9776 38.1959 26.2672 37.9127 26.6357 37.6689C27.004 37.4254 27.4384 37.3015 27.9428 37.3015C28.3244 37.3015 28.68 37.3503 29.0045 37.4431C29.3291 37.5406 29.6099 37.6866 29.8425 37.895C30.075 38.103 30.2547 38.3732 30.3867 38.7052Z" fill="#1E120D"/>
<path fill-rule="evenodd" clip-rule="evenodd" d="M16.502 44.7856H18.4849V34.7197H16.502V44.7856Z" fill="#1E120D"/>
<path fill-rule="evenodd" clip-rule="evenodd" d="M13.4617 44.7856H15.4446V37.4963H13.4617V44.7856Z" fill="#1E120D"/>
<path fill-rule="evenodd" clip-rule="evenodd" d="M13.4574 36.3671H15.4401V34.7197H13.4574V36.3671Z" fill="#1E120D"/>
<path fill-rule="evenodd" clip-rule="evenodd" d="M12.1281 34.7374C12.3035 34.7507 12.4791 34.7641 12.6458 34.7728V36.2652C12.4133 36.2386 12.1721 36.2209 11.9177 36.2209C11.65 36.2209 11.4526 36.283 11.3384 36.4115C11.22 36.5398 11.1631 36.7522 11.1631 37.0534V37.4919H12.5317V38.8291H11.1671V44.7856H9.18465V38.8337H8V37.4963H9.18465V36.9295C9.18465 36.283 9.38646 35.7516 9.7855 35.3352C10.1845 34.9234 10.7899 34.7153 11.5974 34.7153C11.7728 34.7153 11.9525 34.7241 12.1281 34.7374Z" fill="#1E120D"/>
</svg>
