<svg width="80" height="80" viewBox="0 0 80 80" fill="none" xmlns="http://www.w3.org/2000/svg">
<path d="M68.4329 43.4979V38.0342H69.7311V42.3344H72.0001V43.4979H68.4329Z" fill="#045F8C"/>
<path fill-rule="evenodd" clip-rule="evenodd" d="M66.0172 38.0342H64.8883L62.3823 43.5207H63.229C63.308 43.5207 63.3983 43.5093 63.4773 43.4865C63.5676 43.4637 63.6466 43.4294 63.7144 43.3838C63.7821 43.3382 63.8499 43.2811 63.9063 43.2241C63.9627 43.1671 64.0078 43.0987 64.0418 43.0302L64.3126 42.4257H66.593L66.8752 43.0302C66.9091 43.11 66.9542 43.1785 67.0107 43.2355C67.067 43.2924 67.1346 43.338 67.2021 43.3835L67.2025 43.3838C67.2703 43.418 67.3493 43.4523 67.4284 43.4751C67.5073 43.4979 67.5864 43.5093 67.6767 43.5093H68.5233L66.0172 38.0342ZM66.0624 41.2736H64.832L65.34 40.133C65.3468 40.1159 65.3536 40.0998 65.36 40.0845C65.3751 40.0486 65.3886 40.0167 65.3964 39.9847C65.4077 39.9391 65.4191 39.8935 65.4303 39.8592C65.4415 39.825 65.4529 39.7794 65.4529 39.7452C65.4529 39.7723 65.46 39.7993 65.4685 39.8321C65.4708 39.8407 65.4731 39.8497 65.4755 39.8592C65.4868 39.8935 65.498 39.9391 65.5093 39.9847C65.5173 40.0168 65.5308 40.0489 65.546 40.085C65.5524 40.1002 65.5591 40.1161 65.5658 40.133L66.0624 41.2736Z" fill="#045F8C"/>
<path fill-rule="evenodd" clip-rule="evenodd" d="M58.1489 43.4981H59.4584V41.8327H60.1696L61.1292 43.076C61.1969 43.1673 61.2758 43.2471 61.3549 43.3041C61.4339 43.3612 61.513 43.4068 61.5806 43.4296C61.6422 43.4607 61.7037 43.4729 61.7568 43.4835C61.7621 43.4846 61.7674 43.4856 61.7726 43.4866C61.829 43.4981 61.8742 43.4981 61.8967 43.4981H61.9194H63.0144L61.4904 41.5247C61.6597 41.4107 61.7951 41.2966 61.908 41.1711C62.0209 41.0457 62.1225 40.9088 62.1903 40.7719C62.258 40.635 62.3145 40.4982 62.3483 40.3499C62.3822 40.2016 62.3934 40.0647 62.3934 39.9164C62.3934 39.7681 62.3709 39.6199 62.337 39.4716C62.3031 39.3233 62.2468 39.175 62.1677 39.0381C62.0886 38.8898 61.9984 38.7644 61.8855 38.6389C61.7726 38.5134 61.6372 38.4108 61.4904 38.3195C61.3436 38.2283 61.1743 38.1598 60.9937 38.1028C60.813 38.0458 60.6099 38.0229 60.3953 38.0229H58.1489V43.4981ZM60.7115 40.521C60.6325 40.5552 60.5534 40.578 60.4744 40.578H59.4697V39.2777H60.4744C60.5534 39.2777 60.6325 39.3005 60.7115 39.3347C60.7905 39.3689 60.8582 39.4259 60.9146 39.483C60.9711 39.54 61.0162 39.6084 61.0501 39.6883C61.084 39.7681 61.1066 39.848 61.1066 39.9278C61.1066 40.0077 61.084 40.0875 61.0501 40.1674C61.0162 40.2472 60.9711 40.3156 60.9146 40.3727C60.902 40.3833 60.8897 40.394 60.8776 40.4046C60.8251 40.4503 60.7757 40.4931 60.7115 40.521Z" fill="#045F8C"/>
<path d="M54.0848 41.2964C54.0848 41.4333 54.1187 41.5588 54.1752 41.6842C54.2316 41.8097 54.3105 41.9124 54.4122 42.0036C54.5138 42.0949 54.6267 42.1633 54.7508 42.2203C54.875 42.2774 55.0218 42.3002 55.1573 42.3002C55.3041 42.3002 55.4394 42.2774 55.5636 42.2203C55.6878 42.1633 55.812 42.0949 55.9023 42.0036C56.0039 41.9124 56.0829 41.8097 56.1394 41.6842C56.1958 41.5588 56.2297 41.4333 56.2297 41.2964V38.0342H57.5392V41.2964C57.5392 41.6044 57.4714 41.9009 57.3473 42.1747C57.2231 42.4485 57.0538 42.688 56.8393 42.8933C56.6248 43.0987 56.3652 43.2583 56.0829 43.3724C55.7895 43.4865 55.4847 43.5549 55.1573 43.5549C54.9428 43.5549 54.7283 43.5321 54.5251 43.4751C54.3219 43.418 54.1299 43.3496 53.9607 43.2469C53.7801 43.1443 53.622 43.0302 53.4753 42.8933C53.3285 42.7565 53.2043 42.6082 53.1028 42.4371C53.0011 42.266 52.9221 42.0949 52.8657 41.9009C52.8092 41.707 52.7754 41.5131 52.7754 41.2964V38.0342H54.0848V41.2964Z" fill="#045F8C"/>
<path fill-rule="evenodd" clip-rule="evenodd" d="M47.9553 43.4981H49.2535V41.8327H49.976L50.9356 43.076C51.0033 43.1673 51.0823 43.2471 51.1613 43.3041C51.2403 43.3612 51.3194 43.4068 51.387 43.4296C51.4487 43.4607 51.5102 43.4729 51.5633 43.4835C51.5685 43.4846 51.5738 43.4856 51.579 43.4866C51.6354 43.4981 51.6806 43.4981 51.7031 43.4981H51.7258H52.8208L51.2968 41.5247C51.4661 41.4107 51.6015 41.2966 51.7144 41.1711C51.8273 41.0457 51.9289 40.9088 51.9967 40.7719C52.0644 40.635 52.1209 40.4982 52.1547 40.3499C52.1886 40.2016 52.1998 40.0647 52.1998 39.9164C52.1998 39.7681 52.1773 39.6199 52.1434 39.4716C52.1095 39.3233 52.0532 39.175 51.9741 39.0381C51.895 38.8898 51.8048 38.7644 51.6919 38.6389C51.579 38.5134 51.4435 38.4108 51.2968 38.3195C51.15 38.2283 50.9807 38.1598 50.8001 38.1028C50.6195 38.0458 50.4163 38.0229 50.2018 38.0229H47.9553V43.4981ZM50.4954 40.521C50.4277 40.5552 50.3486 40.578 50.2695 40.578H49.2649V39.2777H50.2695C50.3486 39.2777 50.4163 39.3005 50.4954 39.3347C50.5744 39.3689 50.6421 39.4259 50.6985 39.483C50.755 39.54 50.8002 39.6084 50.834 39.6883C50.8679 39.7681 50.8904 39.848 50.8904 39.9278C50.8904 40.0077 50.8679 40.0875 50.834 40.1674C50.8002 40.2472 50.755 40.3156 50.6985 40.3727C50.6421 40.4297 50.5744 40.4867 50.4954 40.521Z" fill="#045F8C"/>
<path d="M43.5752 43.4979V38.0457H44.0493V43.0189H46.5216V43.4979H43.5752Z" fill="#045F8C"/>
<path fill-rule="evenodd" clip-rule="evenodd" d="M40.6965 38.0457H40.3014L37.9194 43.4979H38.134C38.2355 43.4979 38.3146 43.4638 38.3936 43.4181C38.4726 43.3611 38.5291 43.2927 38.5629 43.2128L38.9919 42.1976H41.9722L42.4124 43.2128C42.4575 43.304 42.5026 43.3725 42.5817 43.4181C42.6494 43.4751 42.7397 43.4979 42.83 43.4979H43.0445C42.9486 43.2698 42.8498 43.0417 42.751 42.8136C42.6523 42.5854 42.5535 42.3573 42.4575 42.1292C42.3342 41.836 42.2063 41.5429 42.0796 41.2527C42.0092 41.0913 41.9391 40.9308 41.8705 40.7718C41.7745 40.5437 41.6758 40.3184 41.577 40.0931C41.4783 39.8678 41.3795 39.6425 41.2836 39.4144C41.2116 39.2479 41.1398 39.0781 41.0673 38.907C40.9463 38.621 40.8236 38.3311 40.6965 38.0457ZM41.7802 41.73H39.2176L40.4254 38.9354C40.4368 38.9012 40.4481 38.867 40.4593 38.8328C40.4707 38.7985 40.4819 38.7643 40.4819 38.7301C40.4932 38.6959 40.5045 38.6502 40.5045 38.616C40.5045 38.6502 40.5045 38.6959 40.5158 38.7301C40.5158 38.7643 40.5271 38.7985 40.5384 38.8328C40.5496 38.8784 40.5609 38.9126 40.5722 38.9354L41.7802 41.73Z" fill="#045F8C"/>
<path d="M37.4115 43.4979H36.9487L33.6863 38.7871C33.6749 38.7757 33.6636 38.7529 33.6524 38.73C33.641 38.7072 33.641 38.6844 33.6298 38.673C33.6185 38.6502 33.6072 38.6274 33.6072 38.6046V43.4979H33.1331V38.0457H33.4604C33.5621 38.0457 33.641 38.0571 33.6975 38.0799C33.754 38.1027 33.8104 38.1483 33.8443 38.2053L36.8245 42.517C36.8471 42.5398 36.8584 42.574 36.8696 42.5969C36.881 42.631 36.8922 42.6538 36.9035 42.6767C36.9148 42.6995 36.9261 42.7337 36.9261 42.7679V38.0457H37.389V43.4979H37.4115Z" fill="#045F8C"/>
<path fill-rule="evenodd" clip-rule="evenodd" d="M30.2544 38.0457H29.8593L27.5 43.4979H27.7145C27.8048 43.4979 27.8838 43.4638 27.9628 43.4181C28.0418 43.3611 28.0983 43.2927 28.1322 43.2128L28.5612 42.1976H31.5413L31.9816 43.2128C32.0268 43.304 32.0719 43.3725 32.151 43.4181C32.2187 43.4751 32.309 43.4979 32.3993 43.4979H32.6137C32.5178 43.2698 32.419 43.0417 32.3203 42.8136C32.2215 42.5854 32.1228 42.3573 32.0268 42.1292C31.9036 41.8365 31.7759 41.5438 31.6495 41.2541C31.5788 41.0923 31.5086 40.9313 31.4397 40.7718C31.3436 40.5432 31.2446 40.3174 31.1457 40.0917C31.047 39.8669 30.9485 39.6421 30.8527 39.4144C30.7378 39.1629 30.6266 38.9041 30.5148 38.6441C30.4289 38.4443 30.3427 38.2439 30.2544 38.0457ZM31.3381 41.73H28.7756L29.9834 38.9354C29.9892 38.918 29.9949 38.9006 30.0006 38.8832C30.0062 38.8664 30.0117 38.8496 30.0173 38.8328C30.0286 38.7985 30.0399 38.7643 30.0399 38.7301C30.0511 38.6959 30.0624 38.6502 30.0624 38.616C30.0624 38.6502 30.0624 38.6959 30.0738 38.7301C30.0738 38.7641 30.0849 38.7981 30.0961 38.8322L30.0963 38.8328C30.1076 38.8784 30.1189 38.9126 30.1302 38.9354L31.3381 41.73Z" fill="#045F8C"/>
<path d="M23.1199 40.7718C23.1199 40.9885 23.1425 41.1938 23.199 41.3878C23.2554 41.5817 23.3344 41.7642 23.4247 41.9353C23.5263 42.1064 23.6393 42.266 23.7859 42.4029C23.9214 42.5398 24.0795 42.6653 24.2488 42.7679C24.4181 42.8706 24.5987 42.9505 24.7906 42.9961C24.9826 43.0531 25.1857 43.0759 25.4002 43.0759C25.6486 43.0759 25.8743 43.0417 26.1001 42.9618C26.3146 42.8934 26.5179 42.7907 26.7097 42.6653C26.7436 42.6425 26.7774 42.6197 26.8226 42.6083C26.8678 42.5968 26.9016 42.5854 26.9468 42.5854C27.0146 42.5854 27.0823 42.5968 27.1387 42.6197C27.1952 42.6425 27.2403 42.6767 27.2854 42.7223L27.3193 42.7566C27.071 42.9961 26.7775 43.19 26.4501 43.3268C26.1227 43.4637 25.7728 43.5321 25.4002 43.5321C25.0165 43.5321 24.6664 43.4637 24.3279 43.3155C23.9891 43.1672 23.7069 42.9733 23.4473 42.7223C23.199 42.4714 22.9958 42.1748 22.8602 41.8326C22.7135 41.4904 22.6458 41.1368 22.6458 40.749C22.6458 40.3612 22.7135 40.0076 22.8602 39.6654C23.007 39.3232 23.199 39.0266 23.4473 38.7757C23.6956 38.5247 23.9891 38.3194 24.3279 38.1825C24.6664 38.0343 25.0165 37.9658 25.4002 37.9658C25.784 37.9658 26.134 38.0343 26.4501 38.1711C26.7775 38.308 27.0597 38.5019 27.308 38.7415L27.2742 38.7757C27.229 38.8213 27.1838 38.8555 27.1274 38.8783C27.071 38.9012 27.0146 38.9126 26.9468 38.9126C26.8564 38.9126 26.7775 38.8897 26.7097 38.8327C26.5291 38.7072 26.326 38.6046 26.1001 38.5247C25.8857 38.4563 25.6486 38.4107 25.4002 38.4107C25.1857 38.4107 24.9826 38.4335 24.7906 38.4905C24.5987 38.5475 24.4181 38.6274 24.2488 38.7186C24.0795 38.8213 23.9214 38.9354 23.7859 39.0837C23.6504 39.2205 23.5263 39.3802 23.4247 39.5513C23.3231 39.7224 23.2441 39.9049 23.199 40.0988C23.1425 40.3498 23.1199 40.5551 23.1199 40.7718Z" fill="#045F8C"/>
<path fill-rule="evenodd" clip-rule="evenodd" d="M10.8479 41.2205V39.5931C10.8479 38.6949 11.5769 37.9658 12.4752 37.9658C13.3735 37.9658 14.1025 38.6949 14.1025 39.5931C14.1025 40.4914 13.3735 41.2205 12.4752 41.2205H10.8479ZM12.4752 38.799C12.0391 38.799 11.6811 39.157 11.6811 39.5931H11.6876V40.3873H12.4817C12.9179 40.3873 13.2694 40.0293 13.2694 39.5931C13.2694 39.157 12.9114 38.799 12.4752 38.799Z" fill="url(#paint0_linear_657_1141)"/>
<path d="M9.22046 39.4442V45.2889H10.083V41.5467V39.4442C10.083 38.184 11.1544 37.1616 12.4751 37.1616C13.7958 37.1616 14.8672 38.184 14.8672 39.4442C14.8672 40.7045 13.7958 41.7268 12.4751 41.7268H10.7905V42.5498H12.4751C14.2675 42.5498 15.7297 41.161 15.7297 39.4442C15.7297 37.7275 14.2675 36.3386 12.4751 36.3386C10.676 36.3386 9.22046 37.7275 9.22046 39.4442Z" fill="url(#paint1_linear_657_1141)"/>
<path d="M8 39.3915C8 39.4044 8 39.4109 8 39.4238V44.4213C8.00647 44.5313 8.06471 45.2888 8.88006 45.2888V42.1233V39.4303V39.3915C8.88006 37.2941 10.5819 35.5916 12.6786 35.5916C14.7752 35.5916 16.477 37.2941 16.477 39.3915C16.477 41.4888 14.7752 43.1914 12.6786 43.1914H11.0608V44.0717H12.6786C15.2605 44.0717 17.357 41.9744 17.357 39.3915C17.357 36.8086 15.254 34.7112 12.6786 34.7112C10.0966 34.7112 8 36.8086 8 39.3915Z" fill="url(#paint2_linear_657_1141)"/>
<path d="M14.8773 39.5933C14.8773 40.7489 13.8184 41.6864 12.513 41.6864H10.8479V42.4411H12.513C14.2846 42.4411 15.7299 41.1675 15.7299 39.5933H14.8773Z" fill="url(#paint3_linear_657_1141)"/>
<path d="M12.5204 43.2243H10.8479V44.0684H12.5204C15.183 44.0684 17.3505 42.0636 17.3572 39.5933H16.4474C16.4406 41.5981 14.6812 43.2243 12.5204 43.2243Z" fill="url(#paint4_linear_657_1141)"/>
<path d="M10.8479 43.2546V43.305V44.0607V44.1111H12.5742C13.5064 44.1111 14.3212 44.5897 14.7355 45.2888H15.6953H15.7299L15.7091 45.2384C15.2396 44.0796 14.0174 43.2546 12.5811 43.2546H10.8479Z" fill="url(#paint5_linear_657_1141)"/>
<path d="M10.8479 41.6272V42.5261H12.4488C14.1457 42.5261 15.5864 43.6893 16.0475 45.2887H16.9503C16.4637 43.1936 14.6259 41.6272 12.4488 41.6272H10.8479Z" fill="url(#paint6_linear_657_1141)"/>
<defs>
<linearGradient id="paint0_linear_657_1141" x1="7.78493" y1="44.2005" x2="17.0045" y2="44.2005" gradientUnits="userSpaceOnUse">
<stop stop-color="#8EC045"/>
<stop offset="0.2789" stop-color="#74B989"/>
<stop offset="0.5309" stop-color="#5BB3B4"/>
<stop offset="0.7425" stop-color="#44AFCF"/>
<stop offset="0.9054" stop-color="#33ACDE"/>
<stop offset="1" stop-color="#2AABE3"/>
</linearGradient>
<linearGradient id="paint1_linear_657_1141" x1="7.61958" y1="47.3755" x2="17.1637" y2="47.3755" gradientUnits="userSpaceOnUse">
<stop stop-color="#8EC045"/>
<stop offset="0.2789" stop-color="#74B989"/>
<stop offset="0.5309" stop-color="#5BB3B4"/>
<stop offset="0.7425" stop-color="#44AFCF"/>
<stop offset="0.9054" stop-color="#33ACDE"/>
<stop offset="1" stop-color="#2AABE3"/>
</linearGradient>
<linearGradient id="paint2_linear_657_1141" x1="7.99708" y1="45.288" x2="17.3547" y2="45.288" gradientUnits="userSpaceOnUse">
<stop stop-color="#8EC045"/>
<stop offset="0.2789" stop-color="#74B989"/>
<stop offset="0.5309" stop-color="#5BB3B4"/>
<stop offset="0.7425" stop-color="#44AFCF"/>
<stop offset="0.9054" stop-color="#33ACDE"/>
<stop offset="1" stop-color="#2AABE3"/>
</linearGradient>
<linearGradient id="paint3_linear_657_1141" x1="15.5458" y1="44.2411" x2="16.1316" y2="39.8316" gradientUnits="userSpaceOnUse">
<stop stop-color="#025F9D"/>
<stop offset="0.4508" stop-color="#025F9D"/>
<stop offset="0.5232" stop-color="#0864A3" stop-opacity="0.8681"/>
<stop offset="0.8309" stop-color="#1F7BBC" stop-opacity="0.3078"/>
<stop offset="1" stop-color="#2784C6" stop-opacity="0.01"/>
</linearGradient>
<linearGradient id="paint4_linear_657_1141" x1="16.1288" y1="45.0154" x2="17.0208" y2="40.4037" gradientUnits="userSpaceOnUse">
<stop stop-color="#025F9D"/>
<stop offset="0.4508" stop-color="#025F9D"/>
<stop offset="0.5232" stop-color="#0864A3" stop-opacity="0.8681"/>
<stop offset="0.8309" stop-color="#1F7BBC" stop-opacity="0.3078"/>
<stop offset="1" stop-color="#2784C6" stop-opacity="0.01"/>
</linearGradient>
<linearGradient id="paint5_linear_657_1141" x1="20.1377" y1="44.0777" x2="18.3285" y2="39.4147" gradientUnits="userSpaceOnUse">
<stop stop-color="#8EC045"/>
<stop offset="0.2789" stop-color="#74B989"/>
<stop offset="0.5309" stop-color="#5BB3B4"/>
<stop offset="0.7425" stop-color="#44AFCF"/>
<stop offset="0.9054" stop-color="#33ACDE"/>
<stop offset="1" stop-color="#2AABE3"/>
</linearGradient>
<linearGradient id="paint6_linear_657_1141" x1="18.7429" y1="42.4457" x2="14.725" y2="38.033" gradientUnits="userSpaceOnUse">
<stop stop-color="#8EC045"/>
<stop offset="0.2789" stop-color="#74B989"/>
<stop offset="0.5309" stop-color="#5BB3B4"/>
<stop offset="0.7425" stop-color="#44AFCF"/>
<stop offset="0.9054" stop-color="#33ACDE"/>
<stop offset="1" stop-color="#2AABE3"/>
</linearGradient>
</defs>
</svg>
