<svg width="80" height="80" viewBox="0 0 80 80" fill="none" xmlns="http://www.w3.org/2000/svg">
<path d="M57.2777 30.3663H48.0337C47.9112 30.3663 47.8546 30.3043 47.8214 30.1852L44.9195 21.3333L42.0786 30.1852C42.0503 30.3091 41.9891 30.3663 41.8663 30.3663H32.6224L40.0875 35.8624C40.1771 35.9244 40.2669 35.9244 40.3611 35.8624C42.4137 34.5801 44.2589 33.6649 48.0952 32.6877C44.5891 35.4334 41.1444 38.5461 38.3038 42.1498C38.2141 42.2737 38.1811 42.3023 38.1245 42.4834L37.3081 45.0146L44.7731 39.5519C44.8958 39.4613 44.9525 39.4613 45.0752 39.5519L52.5402 45.0146L49.6995 36.1007C49.6712 35.9768 49.6995 35.9196 49.7891 35.8576L57.2777 30.3663Z" fill="url(#paint0_linear_656_3419)"/>
<path fill-rule="evenodd" clip-rule="evenodd" d="M71.4197 30.185C71.4197 33.0546 69.2772 35.3141 66.6772 35.6478L72 43.1554H67.3474L62.3597 35.6478V43.1602H58.3394V24.4172H64.8652C68.9138 24.4172 71.4197 26.4622 71.4197 30.185ZM64.8606 27.9875H62.3551V32.6304H64.8606C66.3704 32.6304 67.3378 31.6532 67.3378 30.1564C67.3378 28.7789 66.3704 27.9875 64.8606 27.9875Z" fill="black"/>
<path d="M21.9579 24.4172V28.1067H26.0349V43.1554H30.1166V28.1067H34.1935V24.4172H21.9579Z" fill="black"/>
<path d="M14.4033 31.3148C13.1953 30.7666 12.7423 30.1565 12.7423 29.3605C12.7423 28.4452 13.4973 27.6825 14.7053 27.7112C15.7623 27.7397 16.5787 28.3213 17.1543 29.6941L20.6273 28.1354C19.66 25.6328 17.697 24.1694 14.526 24.1694C11.171 24.1694 8.69365 26.4003 8.69365 29.389C8.69365 31.434 9.6893 33.0499 12.0487 34.2416L14.6487 35.5525C16.0973 36.2866 16.7957 36.8347 16.7957 37.9025C16.7957 39.0608 15.8614 39.8855 14.6487 39.8855C13.351 39.8855 12.1714 39.1514 11.6287 37.5069L8 38.5794C8.84465 41.6635 11.355 43.4653 14.6156 43.4653C18.15 43.4653 20.868 41.1773 20.868 37.8787C20.868 35.3475 19.509 33.6649 16.909 32.4779L14.4033 31.3148Z" fill="black"/>
<path d="M63.9735 50.9873H65.6061V56.9554H68.6357V58.4805H63.9735V50.9873Z" fill="black"/>
<path d="M56.7444 50.9873H61.7841V52.5128H58.3773V53.9094H61.5955V55.4347H58.3773V56.9601H61.973V58.4855H56.7444V50.9873Z" fill="black"/>
<path d="M47.5148 50.9873H49.7323L52.8846 56.1926H52.9034V50.9873H54.5455V58.4805H52.408L49.1662 53.1465H49.1474V58.4805H47.5148V50.9873Z" fill="black"/>
<path d="M38.3459 50.9873H40.5684L43.7207 56.1926H43.7395V50.9873H45.3721V58.4805H43.2346L39.9976 53.1465H39.9786V58.4805H38.3459V50.9873Z" fill="black"/>
<path fill-rule="evenodd" clip-rule="evenodd" d="M33.7453 50.9873H32.3957L29.187 58.4805H30.9895L31.6077 56.8932H34.4908L35.1279 58.4805H36.9729L33.7453 50.9873ZM32.122 55.5013L33.0233 53.1705L33.934 55.5013H32.122Z" fill="black"/>
<path d="M21.3729 50.9873H23.0056V53.7806H26.1813V50.9873H27.814V58.4805H26.1813V55.244H23.0056V58.4805H21.3729V50.9873Z" fill="black"/>
<path d="M18.4144 52.937C18.0889 52.5462 17.617 52.3221 17.0083 52.3221C15.772 52.3221 14.8612 53.3374 14.8612 54.7342C14.8612 56.1308 15.772 57.146 16.9563 57.146C17.617 57.146 18.1502 56.8504 18.4852 56.3405L19.8489 57.3653C19.2308 58.2566 18.1832 58.6667 17.1687 58.6667C14.8518 58.6667 13.1672 57.1317 13.1672 54.7293C13.1672 52.3269 14.8518 50.792 17.1687 50.792C17.9945 50.792 19.042 51.078 19.6744 51.8931L18.4144 52.937Z" fill="black"/>
<defs>
<linearGradient id="paint0_linear_656_3419" x1="46.4774" y1="52.0071" x2="61.1194" y2="32.8997" gradientUnits="userSpaceOnUse">
<stop offset="0.28" stop-color="#FA1660"/>
<stop offset="0.78" stop-color="#FF7D17"/>
</linearGradient>
</defs>
</svg>
