<svg width="80" height="80" viewBox="0 0 80 80" fill="none" xmlns="http://www.w3.org/2000/svg">
<path fill-rule="evenodd" clip-rule="evenodd" d="M57.067 41.7852H59.5558V30.0848H57.067V41.7852ZM39.5482 39.2642V30.0845H37.0588V38.637C37.0588 39.223 36.6663 39.5725 36.0085 39.5725H35.2813C34.6237 39.5725 34.2308 39.223 34.2308 38.637V30.0845H31.7422V39.2642C31.7422 40.5678 32.9023 41.8872 35.1203 41.8872H36.331C38.443 41.8872 39.5482 40.5674 39.5482 39.2642ZM19.6662 32.3985H22.426V41.7852H24.9155V32.3985H27.6718V30.0848H19.6662V32.3985ZM69.5115 33.2495C69.5115 32.6632 69.1187 32.314 68.4612 32.314H67.734C67.076 32.314 66.6837 32.6636 66.6837 33.2495V38.6377C66.6837 39.2236 67.076 39.5735 67.734 39.5735H68.4612C69.1187 39.5735 69.5115 39.2236 69.5115 38.6377V33.2495ZM72 32.6223V39.2642C72 40.5674 70.8947 41.8872 68.7827 41.8872H67.5727C65.355 41.8872 64.1945 40.5678 64.1945 39.2642V32.6223C64.1945 31.3191 65.355 30 67.5727 30H68.7827C70.8947 30 72 31.3191 72 32.6223ZM12.6146 35.0139C12.4844 34.9531 12.358 34.8947 12.2384 34.8373L12.0314 34.7399C11.2034 34.3504 10.4885 34.014 10.4885 33.4406V33.2921C10.4885 32.7058 10.8813 32.3566 11.5388 32.3566H12.181C12.8383 32.3566 13.2311 32.7058 13.2311 33.2921V33.8882H15.7201V32.6652C15.7201 31.362 14.6152 30.0429 12.5029 30.0429H11.056C9.04973 30.0429 8 31.362 8 32.6652V33.7493C8 35.6642 10.0662 36.6007 11.5749 37.2843L11.7415 37.3599C11.84 37.4048 11.9426 37.4477 12.0445 37.4909C12.618 37.7336 13.2116 37.9838 13.2116 38.5519V38.6803C13.2116 39.6158 12.4486 39.6158 12.1609 39.6158H11.541C10.8835 39.6158 10.4907 39.2662 10.4907 38.6803V38.3752H8.00188V39.3068C8.00188 40.61 9.16204 41.9294 11.3801 41.9294H12.576C14.688 41.9294 15.7933 40.61 15.7933 39.3068V38.0191C15.7933 36.4894 13.9617 35.6391 12.6146 35.0139ZM49.7532 33.3512C49.7532 32.7652 49.3603 32.4153 48.7027 32.4153H46.863V39.4712H48.7027C49.3603 39.4712 49.7532 39.1216 49.7532 38.5357V33.3512ZM52.2415 39.1625C52.2415 40.4658 51.1363 41.7852 49.0243 41.7852H44.3743V30.1017H49.0243C51.1363 30.1017 52.2415 31.4207 52.2415 32.724V39.1625ZM66.972 46.494H66.2435V49.9713H68.2385V49.2418H66.972V46.494ZM60.7342 48.605L60.3872 47.4893H60.3373L59.9893 48.605H60.7342ZM60.7243 46.4894L61.8187 49.9713H61.1627L60.9507 49.2887L59.7738 49.2907L59.5605 49.9713H58.9123L60.0068 46.4894H60.7243ZM53.498 47.8792C53.18 47.751 52.9052 47.6422 52.9052 47.5005V47.412C52.9052 47.2517 53.0143 47.1542 53.2025 47.1542H53.5473C53.739 47.1542 53.8535 47.2542 53.8535 47.4217V47.7022H54.5773V47.2602C54.5773 46.8677 54.2503 46.4696 53.6273 46.4696H53.0798C52.4885 46.4696 52.18 46.8623 52.18 47.2513V47.5632C52.18 48.1745 52.8445 48.4323 53.3295 48.6198C53.6245 48.7343 53.8808 48.8332 53.8808 48.9645V49.0483C53.8808 49.289 53.6548 49.316 53.5588 49.316H53.206C53.0517 49.316 52.8863 49.245 52.8863 49.043V48.9093H52.1615V49.1995C52.1615 49.5973 52.5057 49.9997 53.1642 49.9997V50H53.644C54.2742 50 54.6045 49.6005 54.6045 49.2048V48.843C54.6045 48.3225 53.9908 48.0775 53.498 47.8792ZM46.9525 47.4457C46.9525 47.281 46.8377 47.1827 46.6432 47.1827H46.0153V48.1205H46.6513C46.7982 48.1205 46.9525 48.0515 46.9525 47.8583V47.4457ZM47.1847 48.7212L47.7657 49.9717H47.003V49.9713L46.513 48.804H46.0157V49.9713H45.2868V46.494H46.7267C47.3503 46.494 47.6768 46.8938 47.6768 47.2892V48.0197C47.6768 48.3125 47.494 48.5747 47.1847 48.7212ZM39.327 48.5552H40.4897V47.8708H39.327V47.178H40.6545V46.494H38.5973V49.9713H40.7V49.286H39.327V48.5552ZM32.72 48.9417L31.9987 46.4986H31.2662L32.3608 49.9713H33.0792L34.1725 46.4986H33.4447L32.72 48.9417ZM26.1073 49.9713H26.9192V46.494H26.1073V49.9713ZM20.848 48.4942L19.7864 46.494H19.0651V49.9713H19.7948V48.054L20.8628 49.9713H21.5721V46.494H20.848V48.4942ZM13.7493 46.494H14.475V49.1995C14.475 49.5973 14.1509 49.9997 13.5329 49.9997H13.0155C12.3702 49.9997 12.0314 49.5973 12.0314 49.1995V46.494H12.7611V49.0427C12.7611 49.2443 12.9145 49.3157 13.0576 49.3157H13.4485C13.5944 49.3157 13.7493 49.2443 13.7493 49.0427V46.494Z" fill="black"/>
</svg>
