<svg width="80" height="80" viewBox="0 0 80 80" fill="none" xmlns="http://www.w3.org/2000/svg">
<path d="M15.4449 32.6035C13.471 32.6074 11.5791 33.3872 10.1837 34.7723C8.78821 36.1573 8.00299 38.0346 8 39.9929C8 44.0816 11.3435 47.3967 15.4482 47.3967C19.5528 47.3967 22.911 44.0796 22.911 39.9929C22.9076 35.9206 19.5495 32.6035 15.4449 32.6035ZM20.5347 43.4848C18.9081 43.6628 17.1446 43.707 15.4449 43.707C13.7452 43.707 11.9823 43.6628 10.3405 43.4848C9.87517 43.4406 9.63853 43.3219 9.57871 42.8332C9.48964 41.9007 9.48964 40.9524 9.48964 39.9902C9.48964 39.0426 9.48964 38.0949 9.57871 37.1618C9.63853 36.6731 9.87784 36.5544 10.3405 36.5102C11.9823 36.3328 13.7432 36.288 15.4449 36.288C17.1466 36.288 18.9081 36.3328 20.5347 36.5102C21.0126 36.5544 21.2512 36.6731 21.3111 37.1618C21.3855 38.0949 21.3855 39.0426 21.3855 39.9902C21.3855 40.9524 21.3855 41.9027 21.3111 42.8332C21.2512 43.3245 21.016 43.4432 20.5347 43.4874V43.4848Z" fill="#E52E2E"/>
<path d="M12.4298 39.9927C12.4327 39.4017 12.612 38.8248 12.945 38.3348C13.2781 37.8448 13.75 37.4636 14.3012 37.2394C14.8524 37.0152 15.4582 36.9581 16.0421 37.0751C16.626 37.1922 17.1619 37.4782 17.5821 37.8971C18.0023 38.3161 18.2881 38.8491 18.4032 39.429C18.5184 40.0088 18.4578 40.6095 18.2292 41.1553C18.0005 41.701 17.6141 42.1674 17.1186 42.4954C16.623 42.8235 16.0407 42.9986 15.445 42.9986C15.0474 42.9997 14.6536 42.9226 14.2864 42.7718C13.919 42.621 13.5855 42.3994 13.3051 42.1198C13.0247 41.8403 12.803 41.5084 12.6527 41.1433C12.5025 40.7781 12.4267 40.3871 12.4298 39.9927Z" fill="#E52E2E"/>
<path d="M33.9886 38.9562V44.9192C33.9886 45.2739 33.774 45.4869 33.4164 45.4869H31.6516C31.2939 45.4869 31.0792 45.2739 31.0792 44.9192V39.4297C31.0792 37.8681 30.4809 37.0636 29.1947 37.0636C27.8593 37.0636 27.1202 37.9868 27.1202 39.524V44.9192C27.1202 45.2739 26.9054 45.4869 26.5478 45.4869H24.7829C24.4253 45.4869 24.2106 45.2739 24.2106 44.9192V35.0759C24.2106 34.7211 24.4253 34.5081 24.7829 34.5081H26.3783C26.7359 34.5081 26.9506 34.7211 26.9506 35.0759V35.6905C27.6213 34.9104 28.6941 34.3188 30.0296 34.3188C32.5097 34.3188 33.9886 36.0467 33.9886 38.9562Z" fill="#E52E2E"/>
<path d="M46.1691 40.258V40.2818C46.1691 40.6366 45.9543 40.8496 45.5967 40.8496H38.0855C38.372 42.2457 39.4687 43.1683 40.923 43.1683C41.8537 43.1683 42.5184 42.9078 42.9744 42.3162C43.1652 42.0557 43.356 41.9377 43.6657 41.9377H45.4777C45.8832 41.9377 46.0501 42.2015 45.9312 42.553C45.2663 44.5637 43.3553 45.6762 40.8035 45.6762C37.6314 45.6762 35.1533 43.2863 35.1533 39.9975C35.1533 36.78 37.6334 34.3188 40.6386 34.3188C44.0938 34.3188 46.1691 36.9435 46.1691 40.258ZM38.108 38.6753H43.0682C42.7584 37.4447 41.8052 36.7589 40.7077 36.7589C39.3716 36.7563 38.4178 37.5608 38.108 38.6727V38.6753Z" fill="#E52E2E"/>
<path d="M61.6303 34.5081C62.0358 34.5081 62.2286 34.7718 62.1077 35.1471L58.9595 45.0134C58.8637 45.3213 58.6272 45.4869 58.2915 45.4869H56.5745C56.2421 45.4869 56.026 45.3213 55.9304 45.0134L54.1183 38.4847L52.3535 45.0134C52.2577 45.3213 52.0431 45.4869 51.7094 45.4869H49.9924C49.66 45.4869 49.4201 45.3213 49.3277 45.0134L46.129 35.1471C46.0094 34.7672 46.2001 34.5081 46.6077 34.5081H48.7541C49.0864 34.5081 49.3024 34.6742 49.3743 35.0053L50.8765 41.2749L52.6174 35.0053C52.7131 34.698 52.9039 34.5081 53.2375 34.5081H55.1454C55.4777 34.5081 55.6705 34.6742 55.7656 35.0053L57.5065 41.3224L58.9854 35.0053C59.0566 34.6756 59.2713 34.5081 59.6049 34.5081H61.6303Z" fill="#E52E2E"/>
<path d="M62.7231 42.553C62.6034 42.1744 62.8181 41.9377 63.2236 41.9377H65.0848C65.3713 41.9377 65.5381 42.0557 65.705 42.3162C65.9915 42.766 66.397 43.1208 67.5416 43.1208C68.4722 43.1208 69.1156 42.8603 69.1156 42.34C69.1156 41.4411 67.8275 41.3224 66.397 41.0626C64.656 40.7329 62.6998 40.1868 62.6998 37.6551C62.6998 35.6675 64.4413 34.3188 67.2073 34.3188C69.7119 34.3188 71.238 35.5494 71.7865 37.4184C71.9055 37.8206 71.6915 38.0574 71.286 38.0574H69.4001C69.1144 38.0574 68.9947 37.9631 68.8018 37.6551C68.4941 37.1823 68.0407 36.8776 66.92 36.8776C66.0141 36.8776 65.5367 37.2561 65.5367 37.6821C65.5367 38.5342 67.0391 38.5579 68.5898 38.8652C70.259 39.195 71.9999 39.8116 71.9999 42.1303C71.9999 44.2834 70.0442 45.6795 67.3966 45.6795C64.559 45.6762 63.2475 44.1852 62.7231 42.553Z" fill="#E52E2E"/>
</svg>
