<svg width="80" height="80" viewBox="0 0 80 80" fill="none" xmlns="http://www.w3.org/2000/svg">
<path fill-rule="evenodd" clip-rule="evenodd" d="M37.5409 66.7149C41.7846 66.7149 46.9967 62.869 45.2573 58.9984L40.8956 49.2919L56.8178 64.5146C59.7789 67.3459 64.4516 67.4008 67.3481 64.5039H67.349C70.2416 61.6041 70.2377 56.8644 67.3388 53.9695L56.793 43.44L67.6111 32.6377C70.5094 29.7444 70.5143 25.0039 67.6213 22.1035C64.7278 19.2039 59.9894 19.1992 57.09 22.0933L45.2573 33.908V21.0015C45.2573 16.7571 41.7846 13.2844 37.5409 13.2844C33.2972 13.2844 29.8246 16.7571 29.8246 21.0015V58.9984C29.8246 63.2429 33.2972 66.7149 37.5409 66.7149Z" fill="#42DF70"/>
<path fill-rule="evenodd" clip-rule="evenodd" d="M37.5409 66.7148C41.7846 66.7148 46.9967 62.8689 45.2572 58.9983L40.8956 49.2918L56.8177 64.5145C59.7788 67.3458 64.4516 67.4007 67.348 64.5038H67.349C70.2415 61.604 70.2376 56.8643 67.3388 53.9694L56.7929 43.4399L67.611 32.6376C70.5094 29.7443 70.5142 25.0038 67.6212 22.1034C64.7277 19.2038 59.9893 19.1991 57.09 22.0932L45.2572 33.9079V21.0014C45.2572 16.757 41.7846 13.2843 37.5409 13.2843C33.2972 13.2843 29.8245 16.757 29.8245 21.0014V21.2341C32.4962 23.6353 34.183 27.1135 34.183 30.9665C34.183 33.4613 33.4756 35.7982 32.2518 37.7876L33.691 43.1286C33.8686 44.0176 33.4725 44.2125 32.7753 44.0443L29.8245 43.0863V58.9983C29.8245 63.2428 33.2972 66.7148 37.5409 66.7148ZM27.3191 42.4709V58.9461C27.3191 64.5675 31.9188 69.1683 37.5412 69.1683C43.1227 69.1683 47.695 64.6351 47.7618 59.0687L54.9641 66.2597C58.8542 70.1435 65.2114 70.1367 69.0928 66.2456C72.9751 62.3551 72.9678 55.9953 69.0787 52.1124L60.3053 43.3506L68.9173 34.7524C72.7578 30.9174 72.7651 24.6372 68.9319 20.7951C65.0991 16.9531 58.8211 16.9467 54.9806 20.781L47.7634 27.9872V21.0545C47.7634 15.4321 43.1636 10.8315 37.5412 10.8315C32.4385 10.8315 28.178 14.621 27.4341 19.5246C25.5522 18.4742 23.3883 17.8746 21.0911 17.8746C13.8904 17.8746 8 23.7658 8 30.9665C8 38.1673 13.8904 44.0585 21.0911 44.0585C23.3414 44.0585 25.4639 43.4821 27.3191 42.4709ZM22.2662 22.0295H16.0417C14.5318 22.0295 13.297 23.2431 13.297 24.7255V37.6508C13.297 39.134 14.5318 40.3468 16.0417 40.3468H22.2662C26.6074 40.3468 30.6758 35.3627 30.6758 31.1882C30.6758 27.0136 26.6074 22.0295 22.2662 22.0295ZM20.7029 26.7456H18.495V35.6315H20.7029C23.1906 35.6315 25.2264 33.6319 25.2264 31.1882C25.2264 28.7445 23.1906 26.7456 20.7029 26.7456Z" fill="#013B53"/>
<path fill-rule="evenodd" clip-rule="evenodd" d="M16.0417 22.0295H22.2662C26.6074 22.0295 30.6758 27.0137 30.6758 31.1882C30.6758 35.3627 26.6074 40.3469 22.2662 40.3469H16.0417C14.5318 40.3469 13.297 39.1341 13.297 37.6509V24.7256C13.297 23.2431 14.5318 22.0295 16.0417 22.0295ZM18.4949 26.7457H20.7029C23.1906 26.7457 25.2264 28.7445 25.2264 31.1883C25.2264 33.632 23.1906 35.6316 20.7029 35.6316H18.4949V26.7457Z" fill="#FFF847"/>
</svg>
