<svg width="80" height="80" viewBox="0 0 80 80" fill="none" xmlns="http://www.w3.org/2000/svg">
<path d="M10.5033 29.3614C9.8433 29.4617 9.29004 29.7497 8.83061 30.2285C8.38412 30.6944 8.1091 31.2639 8.02822 31.8851C8.00233 32.0824 7.99586 34.4702 8.00233 40.184C8.01204 47.6935 8.01851 48.2207 8.07028 48.4149C8.37765 49.5409 9.16709 50.3239 10.2801 50.6085C10.4904 50.6636 10.9854 50.6668 18.8508 50.6668H27.1982L27.4732 50.5957C27.8485 50.4952 28.3468 50.243 28.6218 50.0133C29.1104 49.6023 29.4597 49.0458 29.6151 48.4343L29.6896 48.1431V39.9898V31.8365L29.6053 31.5259C29.395 30.7753 28.9356 30.1573 28.2853 29.7561C27.9941 29.5782 27.5315 29.4099 27.195 29.3614C26.9297 29.3258 10.7525 29.3226 10.5033 29.3614ZM20.0479 34.069C22.0959 34.3375 23.8042 35.1173 25.1405 36.3985C25.7293 36.9647 26.1402 37.4856 26.5317 38.1715C26.8165 38.6633 27.1529 39.4754 27.2597 39.9154L27.2791 40.006H26.9425H26.6062L26.5834 39.9154C26.5317 39.7084 26.3182 39.1842 26.1402 38.8283C25.079 36.6929 22.9662 35.2046 20.3876 34.7678C19.1484 34.5575 17.7248 34.6028 16.5536 34.8908C14.2758 35.4505 12.519 36.8191 11.5549 38.7863C11.4319 39.0289 11.2798 39.4042 11.2119 39.6178L11.0857 40.0028L10.7557 40.006C10.5713 40.006 10.4224 39.9931 10.4224 39.9801C10.4224 39.9219 10.5907 39.388 10.7039 39.1001C11.6098 36.735 13.6223 34.9814 16.2042 34.3116C16.8027 34.1563 17.1425 34.1013 18.1066 34.0075C18.3881 33.9784 19.6823 34.0205 20.0479 34.069ZM19.6596 36.8159C20.6561 37.0359 21.5006 37.5762 22.0894 38.3721C22.9565 39.5466 23.1183 41.1255 22.5036 42.4617C22.1477 43.2382 21.4262 43.9824 20.6626 44.3674C20.09 44.6553 19.5496 44.775 18.8508 44.775C18.2781 44.775 17.9869 44.7297 17.5081 44.5615C16.7574 44.2994 16.0942 43.8109 15.6056 43.1606C15.3727 42.85 15.0685 42.2223 14.9715 41.8599C14.6576 40.6725 14.8615 39.4495 15.5409 38.4627C15.7609 38.1392 16.2236 37.6765 16.5471 37.4565C17.0389 37.1168 17.6245 36.8838 18.236 36.7835C18.5596 36.7285 19.3458 36.7479 19.6596 36.8159Z" fill="#2387C8"/>
<path d="M18.2394 37.4371C17.5664 37.5698 16.9938 37.8707 16.4988 38.3496C15.1625 39.6405 15.1204 41.7273 16.3984 43.083C17.4144 44.1571 18.9868 44.4483 20.3101 43.8077C21.2096 43.3709 21.8631 42.575 22.1284 41.5947C22.1996 41.3261 22.2093 41.2161 22.2125 40.7664C22.2158 40.2973 22.2061 40.2196 22.1252 39.9284C21.7628 38.6213 20.7534 37.683 19.4398 37.4339C19.1292 37.3757 18.5435 37.3757 18.2394 37.4371ZM19.4074 38.5048C19.5109 38.5307 19.7342 38.6181 19.9024 38.7022C20.4751 38.9804 20.941 39.5564 21.0995 40.1873C21.2354 40.7114 21.1643 41.352 20.9216 41.8147C20.3263 42.9471 18.9836 43.4065 17.8447 42.8662C17.2364 42.5783 16.7576 42.0088 16.5829 41.365C16.5085 41.0802 16.5085 40.4558 16.5829 40.1679C16.8191 39.2716 17.5762 38.6051 18.5274 38.4498C18.7344 38.4175 19.1712 38.4434 19.4074 38.5048Z" fill="#2387C8"/>
<path d="M46.9456 30.8974H48.5111V29.3335H46.9456V30.8974Z" fill="#2387C8"/>
<path d="M35.8403 31.9655C34.2748 32.1718 33.3159 33.0602 33.006 34.5975C32.8953 35.1431 32.8887 35.4127 32.8887 38.5903V41.778H34.4542V39.9479H35.7719C36.5251 39.9479 37.2003 39.9313 37.3472 39.9113C38.1918 39.7948 38.8343 39.4821 39.3203 38.953C39.953 38.2642 40.227 37.3592 40.227 35.9717C40.2302 35.2829 40.1911 34.8803 40.0801 34.4377C39.7148 32.9604 38.7919 32.1585 37.2264 31.9622C36.9036 31.9222 36.1664 31.9256 35.8403 31.9655ZM37.3406 33.6059C37.833 33.7423 38.2048 34.0285 38.3973 34.4178C38.5669 34.7605 38.6321 35.0999 38.6517 35.7487C38.694 37.103 38.4332 37.7851 37.7384 38.1345C37.321 38.3441 37.1971 38.3574 35.7489 38.374L34.4476 38.3907L34.464 36.8135C34.4737 35.4692 34.4867 35.203 34.5324 34.9901C34.7249 34.1516 35.1228 33.7457 35.9217 33.5726C36.212 33.5127 37.073 33.5327 37.3406 33.6059Z" fill="#2387C8"/>
<path d="M44.6725 31.9656C43.1265 32.1186 42.1546 32.7142 41.7763 33.7424C41.6067 34.1982 41.5969 34.3812 41.5969 37.2761V39.948H43.1591L43.1688 37.2428C43.1786 34.6774 43.182 34.531 43.2407 34.3746C43.332 34.135 43.6124 33.8588 43.8636 33.7624C44.1799 33.6392 44.617 33.5594 45.0965 33.5361L45.5432 33.5161V31.929L45.2431 31.9323C45.0767 31.9356 44.8191 31.9489 44.6725 31.9656Z" fill="#2387C8"/>
<path d="M46.9456 39.948H48.5111V31.929H46.9456V39.948Z" fill="#2387C8"/>
<path d="M52.9304 31.9656C51.4888 32.1552 50.5657 32.9205 50.1906 34.2415C49.9983 34.9203 50.0015 34.9036 49.9885 37.5256L49.9753 39.948H51.5409L51.554 37.6088C51.567 35.1033 51.5702 35.08 51.7432 34.6075C51.9355 34.0818 52.2943 33.7657 52.8813 33.6026C53.1848 33.5161 54.1142 33.5194 54.4143 33.6026C54.7698 33.7025 55.0208 33.8422 55.2264 34.0485C55.4383 34.2681 55.5558 34.4877 55.6601 34.8737C55.732 35.1366 55.732 35.1765 55.7449 37.5423L55.7547 39.948H57.3464L57.3593 37.5589C57.3691 35.2331 57.3723 35.1665 57.4409 34.9003C57.6267 34.1849 57.9952 33.7923 58.6541 33.606C58.9574 33.5194 59.9163 33.5194 60.2196 33.606C60.885 33.7923 61.2731 34.1883 61.4393 34.8404C61.5405 35.243 61.5568 35.649 61.5568 37.7918V39.948H63.1255L63.1158 37.5256C63.1028 34.8205 63.1028 34.8238 62.8646 34.1051C62.3853 32.6443 61.2599 31.929 59.4368 31.929C58.2496 31.929 57.2941 32.285 56.6973 32.9471L56.5504 33.1102L56.3711 32.9139C55.9048 32.4114 55.1448 32.0587 54.3033 31.9656C53.9414 31.9223 53.2564 31.9256 52.9304 31.9656Z" fill="#2387C8"/>
<path d="M67.623 31.9655C66.6413 32.0953 65.8977 32.4779 65.415 33.1068C65.0531 33.5826 64.7823 34.3146 64.6909 35.0733C64.6389 35.5025 64.6486 36.5041 64.7041 36.9167C64.9519 38.6935 65.8781 39.6717 67.5414 39.9146C67.6753 39.9313 68.6602 39.9479 69.8833 39.9479H71.9933V38.3874L69.9158 38.374C68.0861 38.3641 67.809 38.3541 67.6262 38.3075C66.9317 38.1178 66.462 37.6387 66.3053 36.9599L66.2598 36.7536H71.9999L71.9836 35.8951C71.964 34.7572 71.8662 34.2514 71.5336 33.5926C71.0573 32.641 70.2355 32.1152 68.9928 31.9622C68.6732 31.9222 67.9297 31.9256 67.623 31.9655ZM69.1788 33.6392C69.4821 33.739 69.7853 33.9353 69.9549 34.135C70.1084 34.318 70.2844 34.6873 70.343 34.9468L70.3887 35.1565H66.2598L66.3053 34.9468C66.4424 34.3512 66.8207 33.8854 67.3229 33.6924C67.6655 33.5593 67.9004 33.526 68.4221 33.5394C68.8428 33.5493 68.9505 33.5627 69.1788 33.6392Z" fill="#2387C8"/>
<path d="M67.5964 44.5577H68.6402V43.5557H67.5964V44.5577Z" fill="#2387C8"/>
<path d="M32.9082 48.7759L32.9962 49.0893C33.2213 49.9039 33.678 50.3629 34.4739 50.5763C34.8588 50.6765 35.6904 50.6765 36.1015 50.5763C36.9104 50.3759 37.3866 49.8943 37.6083 49.0506C37.7356 48.5626 37.7356 47.6737 37.6019 47.1436C37.4519 46.5456 37.0636 46.0381 36.5777 45.8118C36.1276 45.5985 36.0167 45.5823 34.924 45.5694L33.9356 45.5532V43.5557H32.8887L32.9082 48.7759ZM35.8634 46.6522C36.121 46.7363 36.3168 46.872 36.4341 47.0466C36.6821 47.4182 36.744 48.3169 36.558 48.9052C36.4081 49.39 35.984 49.6325 35.2892 49.6325C34.5946 49.6325 34.1966 49.3965 34.027 48.8922C33.9585 48.695 33.9552 48.6045 33.9422 47.6154L33.9324 46.5553L34.7902 46.5682C35.5536 46.5811 35.6709 46.5908 35.8634 46.6522Z" fill="#2387C8"/>
<path d="M48.7437 46.0413C48.7437 48.1197 48.7502 48.5722 48.7927 48.8115C48.9655 49.7973 49.4352 50.337 50.3257 50.5763C50.7106 50.6765 51.5422 50.6797 51.9532 50.5763C52.3545 50.476 52.661 50.3112 52.9188 50.0525C53.2839 49.6906 53.4764 49.2058 53.5385 48.5043C53.6688 47.0466 53.1764 46.0348 52.1749 45.7084C51.7868 45.5823 51.5652 45.5597 50.6453 45.5597H49.7874V43.5557H48.7437V46.0413ZM51.7152 46.6522C52.299 46.8429 52.5109 47.2277 52.5077 48.1132C52.5077 48.3718 52.4914 48.6239 52.4652 48.7274C52.3088 49.3576 51.9076 49.6325 51.141 49.6325C50.4464 49.6325 50.0484 49.3997 49.8788 48.8922C49.8103 48.6918 49.8037 48.6109 49.794 47.6154L49.7842 46.5552L50.642 46.5682C51.4053 46.5811 51.5227 46.5908 51.7152 46.6522Z" fill="#2387C8"/>
<path d="M69.3972 46.3581C69.407 48.8826 69.4168 49.1832 69.4657 49.3512C69.6941 50.1205 70.2975 50.5181 71.413 50.6344C71.5826 50.6506 71.7848 50.6668 71.863 50.6668H72.0001V49.6325H71.7586C71.5108 49.6325 71.1162 49.5709 70.94 49.5032C70.7672 49.4385 70.6106 49.3125 70.529 49.1702L70.4507 49.0344L70.4312 43.5557H69.3875L69.3972 46.3581Z" fill="#2387C8"/>
<path d="M39.7904 45.6243C38.949 45.8021 38.4204 46.3193 38.2019 47.1921C38.1399 47.4442 38.1301 47.5702 38.1301 48.1131C38.1301 48.834 38.1824 49.1314 38.3911 49.5581C38.5184 49.8232 38.8119 50.156 39.0499 50.308C39.8099 50.7896 41.2615 50.7798 42.0149 50.2886C42.3769 50.0525 42.6706 49.6292 42.8042 49.1476C42.9673 48.5787 42.9673 47.6477 42.8074 47.0789C42.5824 46.2837 42.0475 45.7892 41.2386 45.6243C40.8309 45.5403 40.198 45.5403 39.7904 45.6243ZM40.8309 46.594C41.568 46.7007 41.891 47.1629 41.891 48.1131C41.891 48.8987 41.6691 49.348 41.1799 49.5419C41.0201 49.6065 40.9385 49.613 40.5243 49.613C40.11 49.613 40.0284 49.6065 39.8686 49.5419C39.4903 49.3931 39.2882 49.1185 39.2034 48.6433C39.1152 48.1617 39.1641 47.5314 39.3109 47.2017C39.523 46.7201 40.1035 46.4906 40.8309 46.594Z" fill="#2387C8"/>
<path d="M43.4469 45.5986C43.463 45.6212 43.8349 46.1837 44.2785 46.8495L45.0808 48.0584L44.223 49.3416C43.7501 50.0495 43.3621 50.6377 43.3621 50.6475C43.3621 50.6571 43.6392 50.6669 43.9816 50.6669H44.6013L45.1558 49.8427C45.4625 49.3901 45.7169 49.0184 45.7235 49.0184C45.7235 49.0184 45.9811 49.3901 46.2845 49.8427L46.8357 50.6669H47.4522C47.9283 50.6669 48.0621 50.6571 48.049 50.6249C48.0426 50.6055 47.6577 50.0205 47.1944 49.332C46.7052 48.5983 46.366 48.0552 46.3757 48.0294C46.3855 48.0034 46.7541 47.4443 47.1944 46.7849C47.6348 46.1255 47.9935 45.5824 47.9935 45.5728C47.9935 45.5663 47.7132 45.5598 47.3738 45.5598H46.7509L45.7201 47.1113L44.6829 45.5598H44.0534C43.5576 45.5598 43.4271 45.5695 43.4469 45.5986Z" fill="#2387C8"/>
<path d="M55.8708 45.6115C54.9183 45.757 54.3834 46.1513 54.1649 46.8624C54.1226 47.0047 54.1126 47.3117 54.1028 48.8472L54.0898 50.6669H55.1368V48.999C55.1368 47.8386 55.1499 47.2891 55.1761 47.1824C55.2315 46.9627 55.4305 46.7784 55.7044 46.6944C55.8838 46.6394 56.4317 46.5618 56.6404 46.5618C56.6993 46.5618 56.7025 46.5295 56.7025 46.0608V45.5598L56.4351 45.5631C56.285 45.5663 56.0338 45.5857 55.8708 45.6115Z" fill="#2387C8"/>
<path d="M58.6108 45.605C57.7693 45.7698 57.2899 46.2126 57.2344 46.8817L57.2148 47.1112H58.2684V47.011C58.2684 46.8623 58.438 46.7104 58.6794 46.6393C58.8196 46.5973 58.9859 46.5811 59.3121 46.5811C59.8438 46.5811 60.0819 46.6393 60.2483 46.8042C60.3395 46.8947 60.3558 46.9334 60.3558 47.0724C60.3558 47.1855 60.3363 47.2566 60.2874 47.3182C60.1405 47.5023 59.9318 47.5541 59.1686 47.596C58.3695 47.6382 58.0074 47.7512 57.6486 48.0712C57.3485 48.3395 57.2051 48.7338 57.2312 49.2252C57.2605 49.7165 57.4465 50.0655 57.815 50.308C58.4836 50.7509 59.9677 50.7896 60.7243 50.3823C60.943 50.2659 61.2072 49.975 61.3018 49.7423C61.38 49.5516 61.3832 49.5452 61.3931 48.2166C61.3995 47.3439 61.3898 46.8236 61.367 46.7137C61.2529 46.1642 60.8907 45.8248 60.2319 45.6502C59.9057 45.563 58.9599 45.5371 58.6108 45.605ZM60.3492 48.9182C60.3395 49.3059 60.3331 49.3414 60.2612 49.4191C60.1144 49.5743 59.9091 49.6163 59.3121 49.6163C58.5032 49.6163 58.3009 49.5258 58.2749 49.1477C58.2618 48.9633 58.2652 48.9503 58.3727 48.8437C58.5228 48.695 58.65 48.6659 59.3121 48.6271C59.6251 48.611 59.9643 48.5754 60.0623 48.5528C60.3851 48.4721 60.3624 48.443 60.3492 48.9182Z" fill="#2387C8"/>
<path d="M62.1494 46.5618H65.9005L65.881 46.6491C65.7928 47.0047 65.6166 47.2729 65.3688 47.4184C65.1926 47.5186 64.8632 47.5961 64.5958 47.5961C64.0315 47.5961 63.4737 47.7256 63.1281 47.9355C62.9192 48.0616 62.6518 48.3266 62.5245 48.5336C62.2799 48.9215 62.1494 49.5193 62.1494 50.237V50.6669H66.9768V49.6326H63.2259L63.2454 49.5421C63.2977 49.319 63.4379 49.0733 63.5912 48.9376C63.8326 48.7243 64.0347 48.6628 64.6056 48.6272C65.2024 48.5917 65.4797 48.5336 65.8353 48.3656C66.6148 47.997 66.9768 47.2244 66.9768 45.9412V45.5598H62.1494V46.5618Z" fill="#2387C8"/>
<path d="M67.5964 50.6669H68.6402V45.5598H67.5964V50.6669Z" fill="#2387C8"/>
</svg>
