<svg width="80" height="80" viewBox="0 0 80 80" fill="none" xmlns="http://www.w3.org/2000/svg">
<path fill-rule="evenodd" clip-rule="evenodd" d="M69.465 41.7474V40.9839H71.7093V38.9743H69.465V38.2105H71.9169V36.1205H66.5558V43.8375H72V41.7474H69.465ZM66.057 40.0996C66.057 42.3905 64.3947 43.8777 62.0261 43.8777H58.3273V36.1205H58.3687H61.3195C64.0207 36.1205 66.057 37.246 66.057 40.0996ZM63.1482 40.0996C63.1482 39.0143 62.483 38.5322 61.4441 38.5322H61.2779V41.5465H61.4441C62.4001 41.5465 63.1482 41.1043 63.1482 40.0996ZM52.5507 36.1205L55.0025 40.3808V36.1205H57.7453V43.8375H55.0025L52.5093 39.7781V43.8375H49.7246V36.1205H52.5507ZM44.8207 43.9982C47.2312 43.9982 49.2261 42.511 49.2261 40.0193C49.2261 37.5674 47.2312 36 44.8207 36C42.4104 36 40.4156 37.6076 40.4156 40.0193C40.4156 42.511 42.3686 43.9982 44.8207 43.9982ZM44.8207 38.5322C45.7351 38.5322 46.3169 39.2555 46.3169 40.0593C46.3169 40.9436 45.6935 41.5465 44.8207 41.5465C43.9482 41.5465 43.3246 40.9436 43.3246 40.0593C43.3246 39.2153 43.9064 38.5322 44.8207 38.5322ZM36.1766 36.1205L35.0129 40.1798L33.8908 36.1205H30.8988L29.6104 43.8375H32.3947L32.8104 39.6172L34.1818 43.8375H35.8856L37.257 39.6172L37.6312 43.8375H40.457L39.1272 36.1205H36.1766ZM26.826 38.8536C25.5791 38.8536 25.1222 39.1348 25.1222 39.1348L25.3297 38.291H29.0285V36.1205H23.2104L22.4207 40.7427C22.4207 40.7427 23.3766 40.5015 24.3324 40.421C25.3715 40.3808 26.4104 40.5819 26.3686 41.2651C26.3272 41.8279 25.0806 42.1091 24.083 41.9082C23.1272 41.7072 22.2959 41.3455 22.2959 41.3455L21.9222 43.3953C21.9222 43.3953 23.8338 44.0384 25.2051 43.9982C26.5766 43.9579 29.3195 43.6365 29.4856 41.2651C29.5686 39.6574 27.8234 38.8536 26.826 38.8536ZM22.7947 36.1205L19.4285 43.8375H16.7686L14.5246 38.5322H12.8623V43.8375H9.87008V38.5722H8V36.1205H16.7686L18.0988 40.5015L19.4285 36.1205H22.7947Z" fill="#00ABE9"/>
</svg>
